<?xml version="1.0" encoding="UTF-8" standalone="no"?>
<!DOCTYPE svg PUBLIC "-//W3C//DTD SVG 1.1//EN"
 "http://www.w3.org/Graphics/SVG/1.1/DTD/svg11.dtd">
<!-- Generated by graphviz version 2.38.0 (20140413.2041)
 -->
<!-- Title: dependencies Pages: 1 -->
<svg width="504pt" height="284pt"
 viewBox="0.00 0.00 504.00 284.00" xmlns="http://www.w3.org/2000/svg" xmlns:xlink="http://www.w3.org/1999/xlink">
<g id="graph0" class="graph" transform="scale(1 1) rotate(0) translate(4 280)">
<title>dependencies</title>
<polygon fill="white" stroke="none" points="-4,4 -4,-280 500,-280 500,4 -4,4"/>
<text text-anchor="start" x="227.009" y="-42.4" font-family="sans-serif" font-weight="bold" font-size="14.00">Legend</text>
<polygon fill="#ffffb3" stroke="none" points="14,-10 14,-30 34,-30 34,-10 14,-10"/>
<text text-anchor="start" x="37.629" y="-15.4" font-family="sans-serif" font-size="14.00"> &#160;Declarations</text>
<polygon fill="#8dd3c7" stroke="none" points="127,-10 127,-30 147,-30 147,-10 127,-10"/>
<text text-anchor="start" x="150.725" y="-15.4" font-family="sans-serif" font-size="14.00"> &#160;Module</text>
<polygon fill="#80b1d3" stroke="none" points="213,-10 213,-30 233,-30 233,-10 213,-10"/>
<text text-anchor="start" x="236.781" y="-15.4" font-family="sans-serif" font-size="14.00"> &#160;Bootstrap</text>
<polygon fill="#fdb462" stroke="none" points="310,-10 310,-30 330,-30 330,-10 310,-10"/>
<text text-anchor="start" x="333.673" y="-15.4" font-family="sans-serif" font-size="14.00"> &#160;Providers</text>
<polygon fill="#fb8072" stroke="none" points="406,-10 406,-30 426,-30 426,-10 406,-10"/>
<text text-anchor="start" x="429.726" y="-15.4" font-family="sans-serif" font-size="14.00"> &#160;Exports</text>
<g id="clust1" class="cluster"><title>cluster_PopoverModule</title>
<polygon fill="none" stroke="black" stroke-dasharray="1,5" points="16,-70 16,-268 480,-268 480,-70 16,-70"/>
</g>
<g id="clust2" class="cluster"><title>cluster_PopoverModule_declarations</title>
<polygon fill="none" stroke="black" points="160,-78 160,-130 472,-130 472,-78 160,-78"/>
</g>
<g id="clust5" class="cluster"><title>cluster_PopoverModule_imports</title>
<polygon fill="none" stroke="black" points="24,-78 24,-130 152,-130 152,-78 24,-78"/>
</g>
<g id="clust6" class="cluster"><title>cluster_PopoverModule_exports</title>
<polygon fill="none" stroke="black" points="183,-208 183,-260 317,-260 317,-208 183,-208"/>
</g>
<!-- PopoverDirective -->
<g id="node1" class="node"><title>PopoverDirective</title>
<polygon fill="#ffffb3" stroke="black" points="464.241,-122 349.759,-122 349.759,-86 464.241,-86 464.241,-122"/>
<text text-anchor="middle" x="407" y="-99.8" font-family="Times,serif" font-size="14.00">PopoverDirective</text>
</g>
<!-- PopoverModule -->
<g id="node3" class="node"><title>PopoverModule</title>
<polygon fill="#8dd3c7" stroke="black" points="303.208,-187 300.208,-191 279.208,-191 276.208,-187 196.792,-187 196.792,-151 303.208,-151 303.208,-187"/>
<text text-anchor="middle" x="250" y="-164.8" font-family="Times,serif" font-size="14.00">PopoverModule</text>
</g>
<!-- PopoverDirective&#45;&gt;PopoverModule -->
<g id="edge1" class="edge"><title>PopoverDirective&#45;&gt;PopoverModule</title>
<path fill="none" stroke="black" d="M407,-122.106C407,-141.339 407,-169 407,-169 407,-169 313.153,-169 313.153,-169"/>
<polygon fill="black" stroke="black" points="313.153,-165.5 303.153,-169 313.153,-172.5 313.153,-165.5"/>
</g>
<!-- PopoverPopupComponent -->
<g id="node2" class="node"><title>PopoverPopupComponent</title>
<polygon fill="#ffffb3" stroke="black" points="331.773,-122 168.227,-122 168.227,-86 331.773,-86 331.773,-122"/>
<text text-anchor="middle" x="250" y="-99.8" font-family="Times,serif" font-size="14.00">PopoverPopupComponent</text>
</g>
<!-- PopoverPopupComponent&#45;&gt;PopoverModule -->
<g id="edge2" class="edge"><title>PopoverPopupComponent&#45;&gt;PopoverModule</title>
<path fill="none" stroke="black" d="M250,-122.106C250,-122.106 250,-140.991 250,-140.991"/>
<polygon fill="black" stroke="black" points="246.5,-140.991 250,-150.991 253.5,-140.991 246.5,-140.991"/>
</g>
<!-- PopoverDirective  -->
<g id="node5" class="node"><title>PopoverDirective </title>
<polygon fill="#fb8072" stroke="black" points="309.241,-252 190.759,-252 190.759,-216 309.241,-216 309.241,-252"/>
<text text-anchor="middle" x="250" y="-229.8" font-family="Times,serif" font-size="14.00">PopoverDirective </text>
</g>
<!-- PopoverModule&#45;&gt;PopoverDirective  -->
<g id="edge4" class="edge"><title>PopoverModule&#45;&gt;PopoverDirective </title>
<path fill="none" stroke="black" stroke-dasharray="5,2" d="M250,-187.106C250,-187.106 250,-205.991 250,-205.991"/>
<polygon fill="black" stroke="black" points="246.5,-205.991 250,-215.991 253.5,-205.991 246.5,-205.991"/>
</g>
<!-- CommonModule -->
<g id="node4" class="node"><title>CommonModule</title>
<polygon fill="#8dd3c7" stroke="black" points="143.668,-122 140.668,-126 119.668,-126 116.668,-122 32.3319,-122 32.3319,-86 143.668,-86 143.668,-122"/>
<text text-anchor="middle" x="88" y="-99.8" font-family="Times,serif" font-size="14.00">CommonModule</text>
</g>
<!-- CommonModule&#45;&gt;PopoverModule -->
<g id="edge3" class="edge"><title>CommonModule&#45;&gt;PopoverModule</title>
<path fill="none" stroke="black" d="M88,-122.106C88,-141.339 88,-169 88,-169 88,-169 186.506,-169 186.506,-169"/>
<polygon fill="black" stroke="black" points="186.506,-172.5 196.506,-169 186.506,-165.5 186.506,-172.5"/>
</g>
</g>
</svg>
