<?xml version="1.0" encoding="UTF-8" standalone="no"?>
<!DOCTYPE svg PUBLIC "-//W3C//DTD SVG 1.1//EN"
 "http://www.w3.org/Graphics/SVG/1.1/DTD/svg11.dtd">
<!-- Generated by graphviz version 2.40.1 (20161225.0304)
 -->
<!-- Title: dependencies Pages: 1 -->
<svg width="504pt" height="284pt"
 viewBox="0.00 0.00 504.00 284.00" xmlns="http://www.w3.org/2000/svg" xmlns:xlink="http://www.w3.org/1999/xlink">
<g id="graph0" class="graph" transform="scale(1 1) rotate(0) translate(4 280)">
<title>dependencies</title>
<polygon fill="#ffffff" stroke="transparent" points="-4,4 -4,-280 500,-280 500,4 -4,4"/>
<text text-anchor="start" x="227.0091" y="-42.4" font-family="sans-serif" font-weight="bold" font-size="14.00" fill="#000000">Legend</text>
<polygon fill="#ffffb3" stroke="transparent" points="14,-10 14,-30 34,-30 34,-10 14,-10"/>
<text text-anchor="start" x="37.629" y="-15.4" font-family="sans-serif" font-size="14.00" fill="#000000"> &#160;Declarations</text>
<polygon fill="#8dd3c7" stroke="transparent" points="127,-10 127,-30 147,-30 147,-10 127,-10"/>
<text text-anchor="start" x="150.7251" y="-15.4" font-family="sans-serif" font-size="14.00" fill="#000000"> &#160;Module</text>
<polygon fill="#80b1d3" stroke="transparent" points="213,-10 213,-30 233,-30 233,-10 213,-10"/>
<text text-anchor="start" x="236.7812" y="-15.4" font-family="sans-serif" font-size="14.00" fill="#000000"> &#160;Bootstrap</text>
<polygon fill="#fdb462" stroke="transparent" points="310,-10 310,-30 330,-30 330,-10 310,-10"/>
<text text-anchor="start" x="333.6732" y="-15.4" font-family="sans-serif" font-size="14.00" fill="#000000"> &#160;Providers</text>
<polygon fill="#fb8072" stroke="transparent" points="406,-10 406,-30 426,-30 426,-10 406,-10"/>
<text text-anchor="start" x="429.7258" y="-15.4" font-family="sans-serif" font-size="14.00" fill="#000000"> &#160;Exports</text>
<g id="clust1" class="cluster">
<title>cluster_PopoverModule</title>
<polygon fill="none" stroke="#000000" stroke-dasharray="1,5" points="16,-70 16,-268 480,-268 480,-70 16,-70"/>
</g>
<g id="clust2" class="cluster">
<title>cluster_PopoverModule_declarations</title>
<polygon fill="none" stroke="#000000" points="160,-78 160,-130 472,-130 472,-78 160,-78"/>
</g>
<g id="clust5" class="cluster">
<title>cluster_PopoverModule_imports</title>
<polygon fill="none" stroke="#000000" points="24,-78 24,-130 152,-130 152,-78 24,-78"/>
</g>
<g id="clust6" class="cluster">
<title>cluster_PopoverModule_exports</title>
<polygon fill="none" stroke="#000000" points="183,-208 183,-260 317,-260 317,-208 183,-208"/>
</g>
<!-- PopoverDirective -->
<g id="node1" class="node">
<title>PopoverDirective</title>
<polygon fill="#ffffb3" stroke="#000000" points="464.2409,-122 349.7591,-122 349.7591,-86 464.2409,-86 464.2409,-122"/>
<text text-anchor="middle" x="407" y="-99.8" font-family="Times,serif" font-size="14.00" fill="#000000">PopoverDirective</text>
</g>
<!-- PopoverModule -->
<g id="node3" class="node">
<title>PopoverModule</title>
<polygon fill="#8dd3c7" stroke="#000000" points="303.2078,-187 300.2078,-191 279.2078,-191 276.2078,-187 196.7922,-187 196.7922,-151 303.2078,-151 303.2078,-187"/>
<text text-anchor="middle" x="250" y="-164.8" font-family="Times,serif" font-size="14.00" fill="#000000">PopoverModule</text>
</g>
<!-- PopoverDirective&#45;&gt;PopoverModule -->
<g id="edge1" class="edge">
<title>PopoverDirective&#45;&gt;PopoverModule</title>
<path fill="none" stroke="#000000" d="M407,-122.1061C407,-141.3391 407,-169 407,-169 407,-169 313.153,-169 313.153,-169"/>
<polygon fill="#000000" stroke="#000000" points="313.1531,-165.5001 303.153,-169 313.153,-172.5001 313.1531,-165.5001"/>
</g>
<!-- PopoverPopupComponent -->
<g id="node2" class="node">
<title>PopoverPopupComponent</title>
<polygon fill="#ffffb3" stroke="#000000" points="331.773,-122 168.227,-122 168.227,-86 331.773,-86 331.773,-122"/>
<text text-anchor="middle" x="250" y="-99.8" font-family="Times,serif" font-size="14.00" fill="#000000">PopoverPopupComponent</text>
</g>
<!-- PopoverPopupComponent&#45;&gt;PopoverModule -->
<g id="edge2" class="edge">
<title>PopoverPopupComponent&#45;&gt;PopoverModule</title>
<path fill="none" stroke="#000000" d="M250,-122.1061C250,-122.1061 250,-140.991 250,-140.991"/>
<polygon fill="#000000" stroke="#000000" points="246.5001,-140.9909 250,-150.991 253.5001,-140.991 246.5001,-140.9909"/>
</g>
<!-- PopoverDirective  -->
<g id="node5" class="node">
<title>PopoverDirective </title>
<polygon fill="#fb8072" stroke="#000000" points="309.2408,-252 190.7592,-252 190.7592,-216 309.2408,-216 309.2408,-252"/>
<text text-anchor="middle" x="250" y="-229.8" font-family="Times,serif" font-size="14.00" fill="#000000">PopoverDirective </text>
</g>
<!-- PopoverModule&#45;&gt;PopoverDirective  -->
<g id="edge4" class="edge">
<title>PopoverModule&#45;&gt;PopoverDirective </title>
<path fill="none" stroke="#000000" stroke-dasharray="5,2" d="M250,-187.1061C250,-187.1061 250,-205.991 250,-205.991"/>
<polygon fill="#000000" stroke="#000000" points="246.5001,-205.9909 250,-215.991 253.5001,-205.991 246.5001,-205.9909"/>
</g>
<!-- CommonModule -->
<g id="node4" class="node">
<title>CommonModule</title>
<polygon fill="#8dd3c7" stroke="#000000" points="143.6681,-122 140.6681,-126 119.6681,-126 116.6681,-122 32.3319,-122 32.3319,-86 143.6681,-86 143.6681,-122"/>
<text text-anchor="middle" x="88" y="-99.8" font-family="Times,serif" font-size="14.00" fill="#000000">CommonModule</text>
</g>
<!-- CommonModule&#45;&gt;PopoverModule -->
<g id="edge3" class="edge">
<title>CommonModule&#45;&gt;PopoverModule</title>
<path fill="none" stroke="#000000" d="M88,-122.1061C88,-141.3391 88,-169 88,-169 88,-169 186.5062,-169 186.5062,-169"/>
<polygon fill="#000000" stroke="#000000" points="186.5062,-172.5001 196.5062,-169 186.5061,-165.5001 186.5062,-172.5001"/>
</g>
</g>
</svg>
