<?xml version="1.0" encoding="UTF-8" standalone="no"?>
<!DOCTYPE svg PUBLIC "-//W3C//DTD SVG 1.1//EN"
 "http://www.w3.org/Graphics/SVG/1.1/DTD/svg11.dtd">
<!-- Generated by graphviz version 2.40.1 (20161225.0304)
 -->
<!-- Title: dependencies Pages: 1 -->
<svg width="504pt" height="284pt"
 viewBox="0.00 0.00 504.00 284.00" xmlns="http://www.w3.org/2000/svg" xmlns:xlink="http://www.w3.org/1999/xlink">
<g id="graph0" class="graph" transform="scale(1 1) rotate(0) translate(4 280)">
<title>dependencies</title>
<polygon fill="#ffffff" stroke="transparent" points="-4,4 -4,-280 500,-280 500,4 -4,4"/>
<text text-anchor="start" x="227.0091" y="-42.4" font-family="sans-serif" font-weight="bold" font-size="14.00" fill="#000000">Legend</text>
<polygon fill="#ffffb3" stroke="transparent" points="14,-10 14,-30 34,-30 34,-10 14,-10"/>
<text text-anchor="start" x="37.629" y="-15.4" font-family="sans-serif" font-size="14.00" fill="#000000"> &#160;Declarations</text>
<polygon fill="#8dd3c7" stroke="transparent" points="127,-10 127,-30 147,-30 147,-10 127,-10"/>
<text text-anchor="start" x="150.7251" y="-15.4" font-family="sans-serif" font-size="14.00" fill="#000000"> &#160;Module</text>
<polygon fill="#80b1d3" stroke="transparent" points="213,-10 213,-30 233,-30 233,-10 213,-10"/>
<text text-anchor="start" x="236.7812" y="-15.4" font-family="sans-serif" font-size="14.00" fill="#000000"> &#160;Bootstrap</text>
<polygon fill="#fdb462" stroke="transparent" points="310,-10 310,-30 330,-30 330,-10 310,-10"/>
<text text-anchor="start" x="333.6732" y="-15.4" font-family="sans-serif" font-size="14.00" fill="#000000"> &#160;Providers</text>
<polygon fill="#fb8072" stroke="transparent" points="406,-10 406,-30 426,-30 426,-10 406,-10"/>
<text text-anchor="start" x="429.7258" y="-15.4" font-family="sans-serif" font-size="14.00" fill="#000000"> &#160;Exports</text>
<g id="clust1" class="cluster">
<title>cluster_PopoverModule</title>
<polygon fill="none" stroke="#000000" stroke-dasharray="1,5" points="84,-70 84,-268 412,-268 412,-70 84,-70"/>
</g>
<g id="clust2" class="cluster">
<title>cluster_PopoverModule_declarations</title>
<polygon fill="none" stroke="#000000" points="92,-78 92,-130 404,-130 404,-78 92,-78"/>
</g>
<g id="clust6" class="cluster">
<title>cluster_PopoverModule_exports</title>
<polygon fill="none" stroke="#000000" points="192,-208 192,-260 326,-260 326,-208 192,-208"/>
</g>
<!-- PopoverDirective -->
<g id="node1" class="node">
<title>PopoverDirective</title>
<polygon fill="#ffffb3" stroke="#000000" points="396.2409,-122 281.7591,-122 281.7591,-86 396.2409,-86 396.2409,-122"/>
<text text-anchor="middle" x="339" y="-99.8" font-family="Times,serif" font-size="14.00" fill="#000000">PopoverDirective</text>
</g>
<!-- PopoverModule -->
<g id="node3" class="node">
<title>PopoverModule</title>
<polygon fill="#8dd3c7" stroke="#000000" points="312.2078,-187 309.2078,-191 288.2078,-191 285.2078,-187 205.7922,-187 205.7922,-151 312.2078,-151 312.2078,-187"/>
<text text-anchor="middle" x="259" y="-164.8" font-family="Times,serif" font-size="14.00" fill="#000000">PopoverModule</text>
</g>
<!-- PopoverDirective&#45;&gt;PopoverModule -->
<g id="edge1" class="edge">
<title>PopoverDirective&#45;&gt;PopoverModule</title>
<path fill="none" stroke="#000000" d="M296.8668,-122.1061C296.8668,-122.1061 296.8668,-140.991 296.8668,-140.991"/>
<polygon fill="#000000" stroke="#000000" points="293.3668,-140.9909 296.8668,-150.991 300.3668,-140.991 293.3668,-140.9909"/>
</g>
<!-- PopoverPopupComponent -->
<g id="node2" class="node">
<title>PopoverPopupComponent</title>
<polygon fill="#ffffb3" stroke="#000000" points="263.773,-122 100.227,-122 100.227,-86 263.773,-86 263.773,-122"/>
<text text-anchor="middle" x="182" y="-99.8" font-family="Times,serif" font-size="14.00" fill="#000000">PopoverPopupComponent</text>
</g>
<!-- PopoverPopupComponent&#45;&gt;PopoverModule -->
<g id="edge2" class="edge">
<title>PopoverPopupComponent&#45;&gt;PopoverModule</title>
<path fill="none" stroke="#000000" d="M234.8913,-122.1061C234.8913,-122.1061 234.8913,-140.991 234.8913,-140.991"/>
<polygon fill="#000000" stroke="#000000" points="231.3914,-140.9909 234.8913,-150.991 238.3914,-140.991 231.3914,-140.9909"/>
</g>
<!-- PopoverDirective  -->
<g id="node4" class="node">
<title>PopoverDirective </title>
<polygon fill="#fb8072" stroke="#000000" points="318.2408,-252 199.7592,-252 199.7592,-216 318.2408,-216 318.2408,-252"/>
<text text-anchor="middle" x="259" y="-229.8" font-family="Times,serif" font-size="14.00" fill="#000000">PopoverDirective </text>
</g>
<!-- PopoverModule&#45;&gt;PopoverDirective  -->
<g id="edge3" class="edge">
<title>PopoverModule&#45;&gt;PopoverDirective </title>
<path fill="none" stroke="#000000" stroke-dasharray="5,2" d="M259,-187.1061C259,-187.1061 259,-205.991 259,-205.991"/>
<polygon fill="#000000" stroke="#000000" points="255.5001,-205.9909 259,-215.991 262.5001,-205.991 255.5001,-205.9909"/>
</g>
</g>
</svg>
