<?xml version="1.0" encoding="UTF-8" standalone="no"?>
<!DOCTYPE svg PUBLIC "-//W3C//DTD SVG 1.1//EN"
 "http://www.w3.org/Graphics/SVG/1.1/DTD/svg11.dtd">
<!-- Generated by graphviz version 2.40.1 (20161225.0304)
 -->
<!-- Title: dependencies Pages: 1 -->
<svg width="894pt" height="284pt"
 viewBox="0.00 0.00 894.00 284.00" xmlns="http://www.w3.org/2000/svg" xmlns:xlink="http://www.w3.org/1999/xlink">
<g id="graph0" class="graph" transform="scale(1 1) rotate(0) translate(4 280)">
<title>dependencies</title>
<polygon fill="#ffffff" stroke="transparent" points="-4,4 -4,-280 890,-280 890,4 -4,4"/>
<text text-anchor="start" x="422.0091" y="-42.4" font-family="sans-serif" font-weight="bold" font-size="14.00" fill="#000000">Legend</text>
<polygon fill="#ffffb3" stroke="transparent" points="209,-10 209,-30 229,-30 229,-10 209,-10"/>
<text text-anchor="start" x="232.629" y="-15.4" font-family="sans-serif" font-size="14.00" fill="#000000"> &#160;Declarations</text>
<polygon fill="#8dd3c7" stroke="transparent" points="322,-10 322,-30 342,-30 342,-10 322,-10"/>
<text text-anchor="start" x="345.7251" y="-15.4" font-family="sans-serif" font-size="14.00" fill="#000000"> &#160;Module</text>
<polygon fill="#80b1d3" stroke="transparent" points="408,-10 408,-30 428,-30 428,-10 408,-10"/>
<text text-anchor="start" x="431.7812" y="-15.4" font-family="sans-serif" font-size="14.00" fill="#000000"> &#160;Bootstrap</text>
<polygon fill="#fdb462" stroke="transparent" points="505,-10 505,-30 525,-30 525,-10 505,-10"/>
<text text-anchor="start" x="528.6732" y="-15.4" font-family="sans-serif" font-size="14.00" fill="#000000"> &#160;Providers</text>
<polygon fill="#fb8072" stroke="transparent" points="601,-10 601,-30 621,-30 621,-10 601,-10"/>
<text text-anchor="start" x="624.7258" y="-15.4" font-family="sans-serif" font-size="14.00" fill="#000000"> &#160;Exports</text>
<g id="clust1" class="cluster">
<title>cluster_RebirthCommonModule</title>
<polygon fill="none" stroke="#000000" stroke-dasharray="1,5" points="8,-70 8,-268 878,-268 878,-70 8,-70"/>
</g>
<g id="clust2" class="cluster">
<title>cluster_RebirthCommonModule_declarations</title>
<polygon fill="none" stroke="#000000" points="28,-78 28,-130 861,-130 861,-78 28,-78"/>
</g>
<g id="clust10" class="cluster">
<title>cluster_RebirthCommonModule_exports</title>
<polygon fill="none" stroke="#000000" points="16,-208 16,-260 870,-260 870,-208 16,-208"/>
</g>
<!-- AutoFocusDirective -->
<g id="node1" class="node">
<title>AutoFocusDirective</title>
<polygon fill="#ffffb3" stroke="#000000" points="852.5227,-122 723.4773,-122 723.4773,-86 852.5227,-86 852.5227,-122"/>
<text text-anchor="middle" x="788" y="-99.8" font-family="Times,serif" font-size="14.00" fill="#000000">AutoFocusDirective</text>
</g>
<!-- RebirthCommonModule -->
<g id="node7" class="node">
<title>RebirthCommonModule</title>
<polygon fill="#8dd3c7" stroke="#000000" points="490.661,-187 487.661,-191 466.661,-191 463.661,-187 337.339,-187 337.339,-151 490.661,-151 490.661,-187"/>
<text text-anchor="middle" x="414" y="-164.8" font-family="Times,serif" font-size="14.00" fill="#000000">RebirthCommonModule</text>
</g>
<!-- AutoFocusDirective&#45;&gt;RebirthCommonModule -->
<g id="edge1" class="edge">
<title>AutoFocusDirective&#45;&gt;RebirthCommonModule</title>
<path fill="none" stroke="#000000" d="M811.337,-122.2667C811.337,-140.5552 811.337,-166 811.337,-166 811.337,-166 501.0817,-166 501.0817,-166"/>
<polygon fill="#000000" stroke="#000000" points="501.0817,-162.5001 491.0817,-166 501.0817,-169.5001 501.0817,-162.5001"/>
</g>
<!-- DatePipe -->
<g id="node2" class="node">
<title>DatePipe</title>
<polygon fill="#ffffb3" stroke="#000000" points="705.8149,-122 638.1851,-122 638.1851,-86 705.8149,-86 705.8149,-122"/>
<text text-anchor="middle" x="672" y="-99.8" font-family="Times,serif" font-size="14.00" fill="#000000">DatePipe</text>
</g>
<!-- DatePipe&#45;&gt;RebirthCommonModule -->
<g id="edge2" class="edge">
<title>DatePipe&#45;&gt;RebirthCommonModule</title>
<path fill="none" stroke="#000000" d="M683.6357,-122.0091C683.6357,-138.0494 683.6357,-159 683.6357,-159 683.6357,-159 500.9059,-159 500.9059,-159"/>
<polygon fill="#000000" stroke="#000000" points="500.906,-155.5001 490.9059,-159 500.9059,-162.5001 500.906,-155.5001"/>
</g>
<!-- DropdownDirective -->
<g id="node3" class="node">
<title>DropdownDirective</title>
<polygon fill="#ffffb3" stroke="#000000" points="619.9566,-122 492.0434,-122 492.0434,-86 619.9566,-86 619.9566,-122"/>
<text text-anchor="middle" x="556" y="-99.8" font-family="Times,serif" font-size="14.00" fill="#000000">DropdownDirective</text>
</g>
<!-- DropdownDirective&#45;&gt;RebirthCommonModule -->
<g id="edge3" class="edge">
<title>DropdownDirective&#45;&gt;RebirthCommonModule</title>
<path fill="none" stroke="#000000" d="M491.8915,-104C486.2338,-104 482.5947,-104 482.5947,-104 482.5947,-104 482.5947,-140.8939 482.5947,-140.8939"/>
<polygon fill="#000000" stroke="#000000" points="479.0948,-140.8938 482.5947,-150.8939 486.0948,-140.8939 479.0948,-140.8938"/>
</g>
<!-- ResizeableDirective -->
<g id="node4" class="node">
<title>ResizeableDirective</title>
<polygon fill="#ffffb3" stroke="#000000" points="474.2185,-122 345.7815,-122 345.7815,-86 474.2185,-86 474.2185,-122"/>
<text text-anchor="middle" x="410" y="-99.8" font-family="Times,serif" font-size="14.00" fill="#000000">ResizeableDirective</text>
</g>
<!-- ResizeableDirective&#45;&gt;RebirthCommonModule -->
<g id="edge4" class="edge">
<title>ResizeableDirective&#45;&gt;RebirthCommonModule</title>
<path fill="none" stroke="#000000" d="M410,-122.1061C410,-122.1061 410,-140.991 410,-140.991"/>
<polygon fill="#000000" stroke="#000000" points="406.5001,-140.9909 410,-150.991 413.5001,-140.991 406.5001,-140.9909"/>
</g>
<!-- TemplateLoaderComponent -->
<g id="node5" class="node">
<title>TemplateLoaderComponent</title>
<polygon fill="#ffffb3" stroke="#000000" points="327.8431,-122 154.1569,-122 154.1569,-86 327.8431,-86 327.8431,-122"/>
<text text-anchor="middle" x="241" y="-99.8" font-family="Times,serif" font-size="14.00" fill="#000000">TemplateLoaderComponent</text>
</g>
<!-- TemplateLoaderComponent&#45;&gt;RebirthCommonModule -->
<g id="edge5" class="edge">
<title>TemplateLoaderComponent&#45;&gt;RebirthCommonModule</title>
<path fill="none" stroke="#000000" d="M327.8642,-104C336.0722,-104 341.4053,-104 341.4053,-104 341.4053,-104 341.4053,-140.8939 341.4053,-140.8939"/>
<polygon fill="#000000" stroke="#000000" points="337.9054,-140.8938 341.4053,-150.8939 344.9054,-140.8939 337.9054,-140.8938"/>
</g>
<!-- TrustHtmlPipe -->
<g id="node6" class="node">
<title>TrustHtmlPipe</title>
<polygon fill="#ffffb3" stroke="#000000" points="135.7148,-122 36.2852,-122 36.2852,-86 135.7148,-86 135.7148,-122"/>
<text text-anchor="middle" x="86" y="-99.8" font-family="Times,serif" font-size="14.00" fill="#000000">TrustHtmlPipe</text>
</g>
<!-- TrustHtmlPipe&#45;&gt;RebirthCommonModule -->
<g id="edge6" class="edge">
<title>TrustHtmlPipe&#45;&gt;RebirthCommonModule</title>
<path fill="none" stroke="#000000" d="M130.9823,-122.027C130.9823,-138.3976 130.9823,-160 130.9823,-160 130.9823,-160 327.038,-160 327.038,-160"/>
<polygon fill="#000000" stroke="#000000" points="327.038,-163.5001 337.038,-160 327.038,-156.5001 327.038,-163.5001"/>
</g>
<!-- AutoFocusDirective  -->
<g id="node8" class="node">
<title>AutoFocusDirective </title>
<polygon fill="#fb8072" stroke="#000000" points="861.5218,-252 728.4782,-252 728.4782,-216 861.5218,-216 861.5218,-252"/>
<text text-anchor="middle" x="795" y="-229.8" font-family="Times,serif" font-size="14.00" fill="#000000">AutoFocusDirective </text>
</g>
<!-- RebirthCommonModule&#45;&gt;AutoFocusDirective  -->
<g id="edge7" class="edge">
<title>RebirthCommonModule&#45;&gt;AutoFocusDirective </title>
<path fill="none" stroke="#000000" stroke-dasharray="5,2" d="M490.7896,-173C595.4183,-173 769.913,-173 769.913,-173 769.913,-173 769.913,-205.698 769.913,-205.698"/>
<polygon fill="#000000" stroke="#000000" points="766.4131,-205.698 769.913,-215.698 773.4131,-205.698 766.4131,-205.698"/>
</g>
<!-- DatePipe  -->
<g id="node9" class="node">
<title>DatePipe </title>
<polygon fill="#fb8072" stroke="#000000" points="710.3144,-252 639.6856,-252 639.6856,-216 710.3144,-216 710.3144,-252"/>
<text text-anchor="middle" x="675" y="-229.8" font-family="Times,serif" font-size="14.00" fill="#000000">DatePipe </text>
</g>
<!-- RebirthCommonModule&#45;&gt;DatePipe  -->
<g id="edge8" class="edge">
<title>RebirthCommonModule&#45;&gt;DatePipe </title>
<path fill="none" stroke="#000000" stroke-dasharray="5,2" d="M490.9894,-180C563.6771,-180 661.6143,-180 661.6143,-180 661.6143,-180 661.6143,-205.7181 661.6143,-205.7181"/>
<polygon fill="#000000" stroke="#000000" points="658.1144,-205.718 661.6143,-215.7181 665.1144,-205.7181 658.1144,-205.718"/>
</g>
<!-- DropdownDirective  -->
<g id="node10" class="node">
<title>DropdownDirective </title>
<polygon fill="#fb8072" stroke="#000000" points="621.9574,-252 490.0426,-252 490.0426,-216 621.9574,-216 621.9574,-252"/>
<text text-anchor="middle" x="556" y="-229.8" font-family="Times,serif" font-size="14.00" fill="#000000">DropdownDirective </text>
</g>
<!-- RebirthCommonModule&#45;&gt;DropdownDirective  -->
<g id="edge9" class="edge">
<title>RebirthCommonModule&#45;&gt;DropdownDirective </title>
<path fill="none" stroke="#000000" stroke-dasharray="5,2" d="M481.1904,-187.1061C481.1904,-206.3391 481.1904,-234 481.1904,-234 481.1904,-234 482.0779,-234 482.0779,-234"/>
<polygon fill="#000000" stroke="#000000" points="480.0659,-237.5001 490.0658,-234 480.0658,-230.5001 480.0659,-237.5001"/>
</g>
<!-- ResizeableDirective  -->
<g id="node11" class="node">
<title>ResizeableDirective </title>
<polygon fill="#fb8072" stroke="#000000" points="472.2184,-252 339.7816,-252 339.7816,-216 472.2184,-216 472.2184,-252"/>
<text text-anchor="middle" x="406" y="-229.8" font-family="Times,serif" font-size="14.00" fill="#000000">ResizeableDirective </text>
</g>
<!-- RebirthCommonModule&#45;&gt;ResizeableDirective  -->
<g id="edge10" class="edge">
<title>RebirthCommonModule&#45;&gt;ResizeableDirective </title>
<path fill="none" stroke="#000000" stroke-dasharray="5,2" d="M406,-187.1061C406,-187.1061 406,-205.991 406,-205.991"/>
<polygon fill="#000000" stroke="#000000" points="402.5001,-205.9909 406,-215.991 409.5001,-205.991 402.5001,-205.9909"/>
</g>
<!-- TemplateLoaderComponent  -->
<g id="node12" class="node">
<title>TemplateLoaderComponent </title>
<polygon fill="#fb8072" stroke="#000000" points="321.8433,-252 144.1567,-252 144.1567,-216 321.8433,-216 321.8433,-252"/>
<text text-anchor="middle" x="233" y="-229.8" font-family="Times,serif" font-size="14.00" fill="#000000">TemplateLoaderComponent </text>
</g>
<!-- RebirthCommonModule&#45;&gt;TemplateLoaderComponent  -->
<g id="edge11" class="edge">
<title>RebirthCommonModule&#45;&gt;TemplateLoaderComponent </title>
<path fill="none" stroke="#000000" stroke-dasharray="5,2" d="M337.2614,-178C289.7993,-178 237.875,-178 237.875,-178 237.875,-178 237.875,-205.973 237.875,-205.973"/>
<polygon fill="#000000" stroke="#000000" points="234.3751,-205.973 237.875,-215.973 241.3751,-205.973 234.3751,-205.973"/>
</g>
<!-- TrustHtmlPipe  -->
<g id="node13" class="node">
<title>TrustHtmlPipe </title>
<polygon fill="#fb8072" stroke="#000000" points="126.215,-252 23.785,-252 23.785,-216 126.215,-216 126.215,-252"/>
<text text-anchor="middle" x="75" y="-229.8" font-family="Times,serif" font-size="14.00" fill="#000000">TrustHtmlPipe </text>
</g>
<!-- RebirthCommonModule&#45;&gt;TrustHtmlPipe  -->
<g id="edge12" class="edge">
<title>RebirthCommonModule&#45;&gt;TrustHtmlPipe </title>
<path fill="none" stroke="#000000" stroke-dasharray="5,2" d="M337.2715,-169C239.0392,-169 81.375,-169 81.375,-169 81.375,-169 81.375,-205.8939 81.375,-205.8939"/>
<polygon fill="#000000" stroke="#000000" points="77.8751,-205.8938 81.375,-215.8939 84.8751,-205.8939 77.8751,-205.8938"/>
</g>
</g>
</svg>
