<?xml version="1.0" encoding="UTF-8" standalone="no"?>
<!DOCTYPE svg PUBLIC "-//W3C//DTD SVG 1.1//EN"
 "http://www.w3.org/Graphics/SVG/1.1/DTD/svg11.dtd">
<!-- Generated by graphviz version 2.40.1 (20161225.0304)
 -->
<!-- Title: dependencies Pages: 1 -->
<svg width="893pt" height="284pt"
 viewBox="0.00 0.00 893.00 284.00" xmlns="http://www.w3.org/2000/svg" xmlns:xlink="http://www.w3.org/1999/xlink">
<g id="graph0" class="graph" transform="scale(1 1) rotate(0) translate(4 280)">
<title>dependencies</title>
<polygon fill="#ffffff" stroke="transparent" points="-4,4 -4,-280 889,-280 889,4 -4,4"/>
<text text-anchor="start" x="421.5091" y="-42.4" font-family="sans-serif" font-weight="bold" font-size="14.00" fill="#000000">Legend</text>
<polygon fill="#ffffb3" stroke="transparent" points="208.5,-10 208.5,-30 228.5,-30 228.5,-10 208.5,-10"/>
<text text-anchor="start" x="232.129" y="-15.4" font-family="sans-serif" font-size="14.00" fill="#000000"> &#160;Declarations</text>
<polygon fill="#8dd3c7" stroke="transparent" points="321.5,-10 321.5,-30 341.5,-30 341.5,-10 321.5,-10"/>
<text text-anchor="start" x="345.2251" y="-15.4" font-family="sans-serif" font-size="14.00" fill="#000000"> &#160;Module</text>
<polygon fill="#80b1d3" stroke="transparent" points="407.5,-10 407.5,-30 427.5,-30 427.5,-10 407.5,-10"/>
<text text-anchor="start" x="431.2812" y="-15.4" font-family="sans-serif" font-size="14.00" fill="#000000"> &#160;Bootstrap</text>
<polygon fill="#fdb462" stroke="transparent" points="504.5,-10 504.5,-30 524.5,-30 524.5,-10 504.5,-10"/>
<text text-anchor="start" x="528.1732" y="-15.4" font-family="sans-serif" font-size="14.00" fill="#000000"> &#160;Providers</text>
<polygon fill="#fb8072" stroke="transparent" points="600.5,-10 600.5,-30 620.5,-30 620.5,-10 600.5,-10"/>
<text text-anchor="start" x="624.2258" y="-15.4" font-family="sans-serif" font-size="14.00" fill="#000000"> &#160;Exports</text>
<g id="clust1" class="cluster">
<title>cluster_RebirthCommonModule</title>
<polygon fill="none" stroke="#000000" stroke-dasharray="1,5" points="8,-70 8,-268 877,-268 877,-70 8,-70"/>
</g>
<g id="clust2" class="cluster">
<title>cluster_RebirthCommonModule_declarations</title>
<polygon fill="none" stroke="#000000" points="27,-78 27,-130 861,-130 861,-78 27,-78"/>
</g>
<g id="clust10" class="cluster">
<title>cluster_RebirthCommonModule_exports</title>
<polygon fill="none" stroke="#000000" points="16,-208 16,-260 869,-260 869,-208 16,-208"/>
</g>
<!-- AutoFocusDirective -->
<g id="node1" class="node">
<title>AutoFocusDirective</title>
<polygon fill="#ffffb3" stroke="#000000" points="852.5227,-122 723.4773,-122 723.4773,-86 852.5227,-86 852.5227,-122"/>
<text text-anchor="middle" x="788" y="-99.8" font-family="Times,serif" font-size="14.00" fill="#000000">AutoFocusDirective</text>
</g>
<!-- RebirthCommonModule -->
<g id="node7" class="node">
<title>RebirthCommonModule</title>
<polygon fill="#8dd3c7" stroke="#000000" points="411.661,-187 408.661,-191 387.661,-191 384.661,-187 258.339,-187 258.339,-151 411.661,-151 411.661,-187"/>
<text text-anchor="middle" x="335" y="-164.8" font-family="Times,serif" font-size="14.00" fill="#000000">RebirthCommonModule</text>
</g>
<!-- AutoFocusDirective&#45;&gt;RebirthCommonModule -->
<g id="edge1" class="edge">
<title>AutoFocusDirective&#45;&gt;RebirthCommonModule</title>
<path fill="none" stroke="#000000" d="M811.0036,-122.2667C811.0036,-140.5552 811.0036,-166 811.0036,-166 811.0036,-166 421.7426,-166 421.7426,-166"/>
<polygon fill="#000000" stroke="#000000" points="421.7426,-162.5001 411.7426,-166 421.7425,-169.5001 421.7426,-162.5001"/>
</g>
<!-- TemplateLoaderComponent -->
<g id="node2" class="node">
<title>TemplateLoaderComponent</title>
<polygon fill="#ffffb3" stroke="#000000" points="704.8431,-122 531.1569,-122 531.1569,-86 704.8431,-86 704.8431,-122"/>
<text text-anchor="middle" x="618" y="-99.8" font-family="Times,serif" font-size="14.00" fill="#000000">TemplateLoaderComponent</text>
</g>
<!-- TemplateLoaderComponent&#45;&gt;RebirthCommonModule -->
<g id="edge2" class="edge">
<title>TemplateLoaderComponent&#45;&gt;RebirthCommonModule</title>
<path fill="none" stroke="#000000" d="M647.3905,-122.0091C647.3905,-138.0494 647.3905,-159 647.3905,-159 647.3905,-159 421.8194,-159 421.8194,-159"/>
<polygon fill="#000000" stroke="#000000" points="421.8194,-155.5001 411.8194,-159 421.8194,-162.5001 421.8194,-155.5001"/>
</g>
<!-- TrustHtmlPipe -->
<g id="node3" class="node">
<title>TrustHtmlPipe</title>
<polygon fill="#ffffb3" stroke="#000000" points="512.7148,-122 413.2852,-122 413.2852,-86 512.7148,-86 512.7148,-122"/>
<text text-anchor="middle" x="463" y="-99.8" font-family="Times,serif" font-size="14.00" fill="#000000">TrustHtmlPipe</text>
</g>
<!-- TrustHtmlPipe&#45;&gt;RebirthCommonModule -->
<g id="edge3" class="edge">
<title>TrustHtmlPipe&#45;&gt;RebirthCommonModule</title>
<path fill="none" stroke="#000000" d="M413.1392,-104C407.4245,-104 403.5947,-104 403.5947,-104 403.5947,-104 403.5947,-140.8939 403.5947,-140.8939"/>
<polygon fill="#000000" stroke="#000000" points="400.0948,-140.8938 403.5947,-150.8939 407.0948,-140.8939 400.0948,-140.8938"/>
</g>
<!-- ResizeableDirective -->
<g id="node4" class="node">
<title>ResizeableDirective</title>
<polygon fill="#ffffb3" stroke="#000000" points="395.2185,-122 266.7815,-122 266.7815,-86 395.2185,-86 395.2185,-122"/>
<text text-anchor="middle" x="331" y="-99.8" font-family="Times,serif" font-size="14.00" fill="#000000">ResizeableDirective</text>
</g>
<!-- ResizeableDirective&#45;&gt;RebirthCommonModule -->
<g id="edge4" class="edge">
<title>ResizeableDirective&#45;&gt;RebirthCommonModule</title>
<path fill="none" stroke="#000000" d="M331,-122.1061C331,-122.1061 331,-140.991 331,-140.991"/>
<polygon fill="#000000" stroke="#000000" points="327.5001,-140.9909 331,-150.991 334.5001,-140.991 327.5001,-140.9909"/>
</g>
<!-- DropdownDirective -->
<g id="node5" class="node">
<title>DropdownDirective</title>
<polygon fill="#ffffb3" stroke="#000000" points="248.9566,-122 121.0434,-122 121.0434,-86 248.9566,-86 248.9566,-122"/>
<text text-anchor="middle" x="185" y="-99.8" font-family="Times,serif" font-size="14.00" fill="#000000">DropdownDirective</text>
</g>
<!-- DropdownDirective&#45;&gt;RebirthCommonModule -->
<g id="edge5" class="edge">
<title>DropdownDirective&#45;&gt;RebirthCommonModule</title>
<path fill="none" stroke="#000000" d="M249.2745,-104C257.1033,-104 262.4053,-104 262.4053,-104 262.4053,-104 262.4053,-140.8939 262.4053,-140.8939"/>
<polygon fill="#000000" stroke="#000000" points="258.9054,-140.8938 262.4053,-150.8939 265.9054,-140.8939 258.9054,-140.8938"/>
</g>
<!-- DatePipe -->
<g id="node6" class="node">
<title>DatePipe</title>
<polygon fill="#ffffb3" stroke="#000000" points="102.8149,-122 35.1851,-122 35.1851,-86 102.8149,-86 102.8149,-122"/>
<text text-anchor="middle" x="69" y="-99.8" font-family="Times,serif" font-size="14.00" fill="#000000">DatePipe</text>
</g>
<!-- DatePipe&#45;&gt;RebirthCommonModule -->
<g id="edge6" class="edge">
<title>DatePipe&#45;&gt;RebirthCommonModule</title>
<path fill="none" stroke="#000000" d="M98.5321,-122.027C98.5321,-138.3976 98.5321,-160 98.5321,-160 98.5321,-160 248.2256,-160 248.2256,-160"/>
<polygon fill="#000000" stroke="#000000" points="248.2257,-163.5001 258.2256,-160 248.2256,-156.5001 248.2257,-163.5001"/>
</g>
<!-- AutoFocusDirective  -->
<g id="node8" class="node">
<title>AutoFocusDirective </title>
<polygon fill="#fb8072" stroke="#000000" points="860.5218,-252 727.4782,-252 727.4782,-216 860.5218,-216 860.5218,-252"/>
<text text-anchor="middle" x="794" y="-229.8" font-family="Times,serif" font-size="14.00" fill="#000000">AutoFocusDirective </text>
</g>
<!-- RebirthCommonModule&#45;&gt;AutoFocusDirective  -->
<g id="edge7" class="edge">
<title>RebirthCommonModule&#45;&gt;AutoFocusDirective </title>
<path fill="none" stroke="#000000" stroke-dasharray="5,2" d="M412.1342,-173C536.9192,-173 769.2464,-173 769.2464,-173 769.2464,-173 769.2464,-205.698 769.2464,-205.698"/>
<polygon fill="#000000" stroke="#000000" points="765.7465,-205.698 769.2464,-215.698 772.7465,-205.698 765.7465,-205.698"/>
</g>
<!-- TemplateLoaderComponent  -->
<g id="node9" class="node">
<title>TemplateLoaderComponent </title>
<polygon fill="#fb8072" stroke="#000000" points="709.8433,-252 532.1567,-252 532.1567,-216 709.8433,-216 709.8433,-252"/>
<text text-anchor="middle" x="621" y="-229.8" font-family="Times,serif" font-size="14.00" fill="#000000">TemplateLoaderComponent </text>
</g>
<!-- RebirthCommonModule&#45;&gt;TemplateLoaderComponent  -->
<g id="edge8" class="edge">
<title>RebirthCommonModule&#45;&gt;TemplateLoaderComponent </title>
<path fill="none" stroke="#000000" stroke-dasharray="5,2" d="M411.8119,-180C486.8534,-180 589.8595,-180 589.8595,-180 589.8595,-180 589.8595,-205.7181 589.8595,-205.7181"/>
<polygon fill="#000000" stroke="#000000" points="586.3596,-205.718 589.8595,-215.7181 593.3596,-205.7181 586.3596,-205.718"/>
</g>
<!-- TrustHtmlPipe  -->
<g id="node10" class="node">
<title>TrustHtmlPipe </title>
<polygon fill="#fb8072" stroke="#000000" points="514.215,-252 411.785,-252 411.785,-216 514.215,-216 514.215,-252"/>
<text text-anchor="middle" x="463" y="-229.8" font-family="Times,serif" font-size="14.00" fill="#000000">TrustHtmlPipe </text>
</g>
<!-- RebirthCommonModule&#45;&gt;TrustHtmlPipe  -->
<g id="edge9" class="edge">
<title>RebirthCommonModule&#45;&gt;TrustHtmlPipe </title>
<path fill="none" stroke="#000000" stroke-dasharray="5,2" d="M402.8759,-187.1061C402.8759,-206.3391 402.8759,-234 402.8759,-234 402.8759,-234 403.7631,-234 403.7631,-234"/>
<polygon fill="#000000" stroke="#000000" points="401.7475,-237.5001 411.7474,-234 401.7474,-230.5001 401.7475,-237.5001"/>
</g>
<!-- ResizeableDirective  -->
<g id="node11" class="node">
<title>ResizeableDirective </title>
<polygon fill="#fb8072" stroke="#000000" points="394.2184,-252 261.7816,-252 261.7816,-216 394.2184,-216 394.2184,-252"/>
<text text-anchor="middle" x="328" y="-229.8" font-family="Times,serif" font-size="14.00" fill="#000000">ResizeableDirective </text>
</g>
<!-- RebirthCommonModule&#45;&gt;ResizeableDirective  -->
<g id="edge10" class="edge">
<title>RebirthCommonModule&#45;&gt;ResizeableDirective </title>
<path fill="none" stroke="#000000" stroke-dasharray="5,2" d="M328,-187.1061C328,-187.1061 328,-205.991 328,-205.991"/>
<polygon fill="#000000" stroke="#000000" points="324.5001,-205.9909 328,-215.991 331.5001,-205.991 324.5001,-205.9909"/>
</g>
<!-- DropdownDirective  -->
<g id="node12" class="node">
<title>DropdownDirective </title>
<polygon fill="#fb8072" stroke="#000000" points="243.9574,-252 112.0426,-252 112.0426,-216 243.9574,-216 243.9574,-252"/>
<text text-anchor="middle" x="178" y="-229.8" font-family="Times,serif" font-size="14.00" fill="#000000">DropdownDirective </text>
</g>
<!-- RebirthCommonModule&#45;&gt;DropdownDirective  -->
<g id="edge11" class="edge">
<title>RebirthCommonModule&#45;&gt;DropdownDirective </title>
<path fill="none" stroke="#000000" stroke-dasharray="5,2" d="M258.2404,-178C220.2337,-178 182.375,-178 182.375,-178 182.375,-178 182.375,-205.973 182.375,-205.973"/>
<polygon fill="#000000" stroke="#000000" points="178.8751,-205.973 182.375,-215.973 185.8751,-205.973 178.8751,-205.973"/>
</g>
<!-- DatePipe  -->
<g id="node13" class="node">
<title>DatePipe </title>
<polygon fill="#fb8072" stroke="#000000" points="94.3144,-252 23.6856,-252 23.6856,-216 94.3144,-216 94.3144,-252"/>
<text text-anchor="middle" x="59" y="-229.8" font-family="Times,serif" font-size="14.00" fill="#000000">DatePipe </text>
</g>
<!-- RebirthCommonModule&#45;&gt;DatePipe  -->
<g id="edge12" class="edge">
<title>RebirthCommonModule&#45;&gt;DatePipe </title>
<path fill="none" stroke="#000000" stroke-dasharray="5,2" d="M258.3156,-169C178.4548,-169 64.875,-169 64.875,-169 64.875,-169 64.875,-205.8939 64.875,-205.8939"/>
<polygon fill="#000000" stroke="#000000" points="61.3751,-205.8938 64.875,-215.8939 68.3751,-205.8939 61.3751,-205.8938"/>
</g>
</g>
</svg>
