<?xml version="1.0" encoding="UTF-8" standalone="no"?>
<!DOCTYPE svg PUBLIC "-//W3C//DTD SVG 1.1//EN"
 "http://www.w3.org/Graphics/SVG/1.1/DTD/svg11.dtd">
<!-- Generated by graphviz version 2.38.0 (20140413.2041)
 -->
<!-- Title: dependencies Pages: 1 -->
<svg width="504pt" height="284pt"
 viewBox="0.00 0.00 504.00 284.00" xmlns="http://www.w3.org/2000/svg" xmlns:xlink="http://www.w3.org/1999/xlink">
<g id="graph0" class="graph" transform="scale(1 1) rotate(0) translate(4 280)">
<title>dependencies</title>
<polygon fill="white" stroke="none" points="-4,4 -4,-280 500,-280 500,4 -4,4"/>
<text text-anchor="start" x="227.009" y="-42.4" font-family="sans-serif" font-weight="bold" font-size="14.00">Legend</text>
<polygon fill="#ffffb3" stroke="none" points="14,-10 14,-30 34,-30 34,-10 14,-10"/>
<text text-anchor="start" x="37.629" y="-15.4" font-family="sans-serif" font-size="14.00"> &#160;Declarations</text>
<polygon fill="#8dd3c7" stroke="none" points="127,-10 127,-30 147,-30 147,-10 127,-10"/>
<text text-anchor="start" x="150.725" y="-15.4" font-family="sans-serif" font-size="14.00"> &#160;Module</text>
<polygon fill="#80b1d3" stroke="none" points="213,-10 213,-30 233,-30 233,-10 213,-10"/>
<text text-anchor="start" x="236.781" y="-15.4" font-family="sans-serif" font-size="14.00"> &#160;Bootstrap</text>
<polygon fill="#fdb462" stroke="none" points="310,-10 310,-30 330,-30 330,-10 310,-10"/>
<text text-anchor="start" x="333.673" y="-15.4" font-family="sans-serif" font-size="14.00"> &#160;Providers</text>
<polygon fill="#fb8072" stroke="none" points="406,-10 406,-30 426,-30 426,-10 406,-10"/>
<text text-anchor="start" x="429.726" y="-15.4" font-family="sans-serif" font-size="14.00"> &#160;Exports</text>
<g id="clust1" class="cluster"><title>cluster_RebirthCommonModule</title>
<polygon fill="none" stroke="black" stroke-dasharray="1,5" points="99,-70 99,-268 397,-268 397,-70 99,-70"/>
</g>
<g id="clust2" class="cluster"><title>cluster_RebirthCommonModule_declarations</title>
<polygon fill="none" stroke="black" points="243,-78 243,-130 389,-130 389,-78 243,-78"/>
</g>
<g id="clust4" class="cluster"><title>cluster_RebirthCommonModule_imports</title>
<polygon fill="none" stroke="black" points="107,-78 107,-130 235,-130 235,-78 107,-78"/>
</g>
<g id="clust5" class="cluster"><title>cluster_RebirthCommonModule_exports</title>
<polygon fill="none" stroke="black" points="173,-208 173,-260 323,-260 323,-208 173,-208"/>
</g>
<!-- AutoFocusDirective -->
<g id="node1" class="node"><title>AutoFocusDirective</title>
<polygon fill="#ffffb3" stroke="black" points="380.523,-122 251.477,-122 251.477,-86 380.523,-86 380.523,-122"/>
<text text-anchor="middle" x="316" y="-99.8" font-family="Times,serif" font-size="14.00">AutoFocusDirective</text>
</g>
<!-- RebirthCommonModule -->
<g id="node2" class="node"><title>RebirthCommonModule</title>
<polygon fill="#8dd3c7" stroke="black" points="324.661,-187 321.661,-191 300.661,-191 297.661,-187 171.339,-187 171.339,-151 324.661,-151 324.661,-187"/>
<text text-anchor="middle" x="248" y="-164.8" font-family="Times,serif" font-size="14.00">RebirthCommonModule</text>
</g>
<!-- AutoFocusDirective&#45;&gt;RebirthCommonModule -->
<g id="edge1" class="edge"><title>AutoFocusDirective&#45;&gt;RebirthCommonModule</title>
<path fill="none" stroke="black" d="M288.035,-122.106C288.035,-122.106 288.035,-140.991 288.035,-140.991"/>
<polygon fill="black" stroke="black" points="284.535,-140.991 288.035,-150.991 291.535,-140.991 284.535,-140.991"/>
</g>
<!-- AutoFocusDirective  -->
<g id="node4" class="node"><title>AutoFocusDirective </title>
<polygon fill="#fb8072" stroke="black" points="314.522,-252 181.478,-252 181.478,-216 314.522,-216 314.522,-252"/>
<text text-anchor="middle" x="248" y="-229.8" font-family="Times,serif" font-size="14.00">AutoFocusDirective </text>
</g>
<!-- RebirthCommonModule&#45;&gt;AutoFocusDirective  -->
<g id="edge3" class="edge"><title>RebirthCommonModule&#45;&gt;AutoFocusDirective </title>
<path fill="none" stroke="black" stroke-dasharray="5,2" d="M248,-187.106C248,-187.106 248,-205.991 248,-205.991"/>
<polygon fill="black" stroke="black" points="244.5,-205.991 248,-215.991 251.5,-205.991 244.5,-205.991"/>
</g>
<!-- CommonModule -->
<g id="node3" class="node"><title>CommonModule</title>
<polygon fill="#8dd3c7" stroke="black" points="226.668,-122 223.668,-126 202.668,-126 199.668,-122 115.332,-122 115.332,-86 226.668,-86 226.668,-122"/>
<text text-anchor="middle" x="171" y="-99.8" font-family="Times,serif" font-size="14.00">CommonModule</text>
</g>
<!-- CommonModule&#45;&gt;RebirthCommonModule -->
<g id="edge2" class="edge"><title>CommonModule&#45;&gt;RebirthCommonModule</title>
<path fill="none" stroke="black" d="M199.002,-122.106C199.002,-122.106 199.002,-140.991 199.002,-140.991"/>
<polygon fill="black" stroke="black" points="195.502,-140.991 199.002,-150.991 202.502,-140.991 195.502,-140.991"/>
</g>
</g>
</svg>
