<?xml version="1.0" encoding="UTF-8" standalone="no"?>
<!DOCTYPE svg PUBLIC "-//W3C//DTD SVG 1.1//EN"
 "http://www.w3.org/Graphics/SVG/1.1/DTD/svg11.dtd">
<!-- Generated by graphviz version 2.40.1 (20161225.0304)
 -->
<!-- Title: dependencies Pages: 1 -->
<svg width="514pt" height="284pt"
 viewBox="0.00 0.00 514.00 284.00" xmlns="http://www.w3.org/2000/svg" xmlns:xlink="http://www.w3.org/1999/xlink">
<g id="graph0" class="graph" transform="scale(1 1) rotate(0) translate(4 280)">
<title>dependencies</title>
<polygon fill="#ffffff" stroke="transparent" points="-4,4 -4,-280 510,-280 510,4 -4,4"/>
<text text-anchor="start" x="232.0091" y="-42.4" font-family="sans-serif" font-weight="bold" font-size="14.00" fill="#000000">Legend</text>
<polygon fill="#ffffb3" stroke="transparent" points="19,-10 19,-30 39,-30 39,-10 19,-10"/>
<text text-anchor="start" x="42.629" y="-15.4" font-family="sans-serif" font-size="14.00" fill="#000000"> &#160;Declarations</text>
<polygon fill="#8dd3c7" stroke="transparent" points="132,-10 132,-30 152,-30 152,-10 132,-10"/>
<text text-anchor="start" x="155.7251" y="-15.4" font-family="sans-serif" font-size="14.00" fill="#000000"> &#160;Module</text>
<polygon fill="#80b1d3" stroke="transparent" points="218,-10 218,-30 238,-30 238,-10 218,-10"/>
<text text-anchor="start" x="241.7812" y="-15.4" font-family="sans-serif" font-size="14.00" fill="#000000"> &#160;Bootstrap</text>
<polygon fill="#fdb462" stroke="transparent" points="315,-10 315,-30 335,-30 335,-10 315,-10"/>
<text text-anchor="start" x="338.6732" y="-15.4" font-family="sans-serif" font-size="14.00" fill="#000000"> &#160;Providers</text>
<polygon fill="#fb8072" stroke="transparent" points="411,-10 411,-30 431,-30 431,-10 411,-10"/>
<text text-anchor="start" x="434.7258" y="-15.4" font-family="sans-serif" font-size="14.00" fill="#000000"> &#160;Exports</text>
<g id="clust1" class="cluster">
<title>cluster_RebirthCommonModule</title>
<polygon fill="none" stroke="#000000" stroke-dasharray="1,5" points="8,-70 8,-268 498,-268 498,-70 8,-70"/>
</g>
<g id="clust2" class="cluster">
<title>cluster_RebirthCommonModule_declarations</title>
<polygon fill="none" stroke="#000000" points="152,-78 152,-130 490,-130 490,-78 152,-78"/>
</g>
<g id="clust5" class="cluster">
<title>cluster_RebirthCommonModule_imports</title>
<polygon fill="none" stroke="#000000" points="16,-78 16,-130 144,-130 144,-78 16,-78"/>
</g>
<g id="clust6" class="cluster">
<title>cluster_RebirthCommonModule_exports</title>
<polygon fill="none" stroke="#000000" points="81,-208 81,-260 426,-260 426,-208 81,-208"/>
</g>
<!-- AutoFocusDirective -->
<g id="node1" class="node">
<title>AutoFocusDirective</title>
<polygon fill="#ffffb3" stroke="#000000" points="481.5227,-122 352.4773,-122 352.4773,-86 481.5227,-86 481.5227,-122"/>
<text text-anchor="middle" x="417" y="-99.8" font-family="Times,serif" font-size="14.00" fill="#000000">AutoFocusDirective</text>
</g>
<!-- RebirthCommonModule -->
<g id="node3" class="node">
<title>RebirthCommonModule</title>
<polygon fill="#8dd3c7" stroke="#000000" points="323.661,-187 320.661,-191 299.661,-191 296.661,-187 170.339,-187 170.339,-151 323.661,-151 323.661,-187"/>
<text text-anchor="middle" x="247" y="-164.8" font-family="Times,serif" font-size="14.00" fill="#000000">RebirthCommonModule</text>
</g>
<!-- AutoFocusDirective&#45;&gt;RebirthCommonModule -->
<g id="edge1" class="edge">
<title>AutoFocusDirective&#45;&gt;RebirthCommonModule</title>
<path fill="none" stroke="#000000" d="M384.875,-122.1061C384.875,-141.3391 384.875,-169 384.875,-169 384.875,-169 333.9997,-169 333.9997,-169"/>
<polygon fill="#000000" stroke="#000000" points="333.9997,-165.5001 323.9997,-169 333.9996,-172.5001 333.9997,-165.5001"/>
</g>
<!-- TemplateLoaderComponent -->
<g id="node2" class="node">
<title>TemplateLoaderComponent</title>
<polygon fill="#ffffb3" stroke="#000000" points="333.8431,-122 160.1569,-122 160.1569,-86 333.8431,-86 333.8431,-122"/>
<text text-anchor="middle" x="247" y="-99.8" font-family="Times,serif" font-size="14.00" fill="#000000">TemplateLoaderComponent</text>
</g>
<!-- TemplateLoaderComponent&#45;&gt;RebirthCommonModule -->
<g id="edge2" class="edge">
<title>TemplateLoaderComponent&#45;&gt;RebirthCommonModule</title>
<path fill="none" stroke="#000000" d="M247,-122.1061C247,-122.1061 247,-140.991 247,-140.991"/>
<polygon fill="#000000" stroke="#000000" points="243.5001,-140.9909 247,-150.991 250.5001,-140.991 243.5001,-140.9909"/>
</g>
<!-- AutoFocusDirective  -->
<g id="node5" class="node">
<title>AutoFocusDirective </title>
<polygon fill="#fb8072" stroke="#000000" points="417.5218,-252 284.4782,-252 284.4782,-216 417.5218,-216 417.5218,-252"/>
<text text-anchor="middle" x="351" y="-229.8" font-family="Times,serif" font-size="14.00" fill="#000000">AutoFocusDirective </text>
</g>
<!-- RebirthCommonModule&#45;&gt;AutoFocusDirective  -->
<g id="edge4" class="edge">
<title>RebirthCommonModule&#45;&gt;AutoFocusDirective </title>
<path fill="none" stroke="#000000" stroke-dasharray="5,2" d="M304.1597,-187.1061C304.1597,-187.1061 304.1597,-205.991 304.1597,-205.991"/>
<polygon fill="#000000" stroke="#000000" points="300.6598,-205.9909 304.1597,-215.991 307.6598,-205.991 300.6598,-205.9909"/>
</g>
<!-- TemplateLoaderComponent  -->
<g id="node6" class="node">
<title>TemplateLoaderComponent </title>
<polygon fill="#fb8072" stroke="#000000" points="266.8433,-252 89.1567,-252 89.1567,-216 266.8433,-216 266.8433,-252"/>
<text text-anchor="middle" x="178" y="-229.8" font-family="Times,serif" font-size="14.00" fill="#000000">TemplateLoaderComponent </text>
</g>
<!-- RebirthCommonModule&#45;&gt;TemplateLoaderComponent  -->
<g id="edge5" class="edge">
<title>RebirthCommonModule&#45;&gt;TemplateLoaderComponent </title>
<path fill="none" stroke="#000000" stroke-dasharray="5,2" d="M218.4206,-187.1061C218.4206,-187.1061 218.4206,-205.991 218.4206,-205.991"/>
<polygon fill="#000000" stroke="#000000" points="214.9207,-205.9909 218.4206,-215.991 221.9207,-205.991 214.9207,-205.9909"/>
</g>
<!-- CommonModule -->
<g id="node4" class="node">
<title>CommonModule</title>
<polygon fill="#8dd3c7" stroke="#000000" points="135.6681,-122 132.6681,-126 111.6681,-126 108.6681,-122 24.3319,-122 24.3319,-86 135.6681,-86 135.6681,-122"/>
<text text-anchor="middle" x="80" y="-99.8" font-family="Times,serif" font-size="14.00" fill="#000000">CommonModule</text>
</g>
<!-- CommonModule&#45;&gt;RebirthCommonModule -->
<g id="edge3" class="edge">
<title>CommonModule&#45;&gt;RebirthCommonModule</title>
<path fill="none" stroke="#000000" d="M112.5812,-122.1061C112.5812,-141.3391 112.5812,-169 112.5812,-169 112.5812,-169 159.9767,-169 159.9767,-169"/>
<polygon fill="#000000" stroke="#000000" points="159.9768,-172.5001 169.9767,-169 159.9767,-165.5001 159.9768,-172.5001"/>
</g>
</g>
</svg>
