<?xml version="1.0" encoding="UTF-8" standalone="no"?>
<!DOCTYPE svg PUBLIC "-//W3C//DTD SVG 1.1//EN"
 "http://www.w3.org/Graphics/SVG/1.1/DTD/svg11.dtd">
<!-- Generated by graphviz version 2.40.1 (20161225.0304)
 -->
<!-- Title: dependencies Pages: 1 -->
<svg width="655pt" height="284pt"
 viewBox="0.00 0.00 655.00 284.00" xmlns="http://www.w3.org/2000/svg" xmlns:xlink="http://www.w3.org/1999/xlink">
<g id="graph0" class="graph" transform="scale(1 1) rotate(0) translate(4 280)">
<title>dependencies</title>
<polygon fill="#ffffff" stroke="transparent" points="-4,4 -4,-280 651,-280 651,4 -4,4"/>
<text text-anchor="start" x="302.5091" y="-42.4" font-family="sans-serif" font-weight="bold" font-size="14.00" fill="#000000">Legend</text>
<polygon fill="#ffffb3" stroke="transparent" points="89.5,-10 89.5,-30 109.5,-30 109.5,-10 89.5,-10"/>
<text text-anchor="start" x="113.129" y="-15.4" font-family="sans-serif" font-size="14.00" fill="#000000"> &#160;Declarations</text>
<polygon fill="#8dd3c7" stroke="transparent" points="202.5,-10 202.5,-30 222.5,-30 222.5,-10 202.5,-10"/>
<text text-anchor="start" x="226.2251" y="-15.4" font-family="sans-serif" font-size="14.00" fill="#000000"> &#160;Module</text>
<polygon fill="#80b1d3" stroke="transparent" points="288.5,-10 288.5,-30 308.5,-30 308.5,-10 288.5,-10"/>
<text text-anchor="start" x="312.2812" y="-15.4" font-family="sans-serif" font-size="14.00" fill="#000000"> &#160;Bootstrap</text>
<polygon fill="#fdb462" stroke="transparent" points="385.5,-10 385.5,-30 405.5,-30 405.5,-10 385.5,-10"/>
<text text-anchor="start" x="409.1732" y="-15.4" font-family="sans-serif" font-size="14.00" fill="#000000"> &#160;Providers</text>
<polygon fill="#fb8072" stroke="transparent" points="481.5,-10 481.5,-30 501.5,-30 501.5,-10 481.5,-10"/>
<text text-anchor="start" x="505.2258" y="-15.4" font-family="sans-serif" font-size="14.00" fill="#000000"> &#160;Exports</text>
<g id="clust1" class="cluster">
<title>cluster_RebirthCommonModule</title>
<polygon fill="none" stroke="#000000" stroke-dasharray="1,5" points="8,-70 8,-268 639,-268 639,-70 8,-70"/>
</g>
<g id="clust3" class="cluster">
<title>cluster_RebirthCommonModule_imports</title>
<polygon fill="none" stroke="#000000" points="240,-78 240,-130 368,-130 368,-78 240,-78"/>
</g>
<g id="clust4" class="cluster">
<title>cluster_RebirthCommonModule_exports</title>
<polygon fill="none" stroke="#000000" points="16,-208 16,-260 631,-260 631,-208 16,-208"/>
</g>
<!-- CommonModule -->
<g id="node1" class="node">
<title>CommonModule</title>
<polygon fill="#8dd3c7" stroke="#000000" points="359.6681,-122 356.6681,-126 335.6681,-126 332.6681,-122 248.3319,-122 248.3319,-86 359.6681,-86 359.6681,-122"/>
<text text-anchor="middle" x="304" y="-99.8" font-family="Times,serif" font-size="14.00" fill="#000000">CommonModule</text>
</g>
<!-- RebirthCommonModule -->
<g id="node2" class="node">
<title>RebirthCommonModule</title>
<polygon fill="#8dd3c7" stroke="#000000" points="380.661,-187 377.661,-191 356.661,-191 353.661,-187 227.339,-187 227.339,-151 380.661,-151 380.661,-187"/>
<text text-anchor="middle" x="304" y="-164.8" font-family="Times,serif" font-size="14.00" fill="#000000">RebirthCommonModule</text>
</g>
<!-- CommonModule&#45;&gt;RebirthCommonModule -->
<g id="edge1" class="edge">
<title>CommonModule&#45;&gt;RebirthCommonModule</title>
<path fill="none" stroke="#000000" d="M304,-122.1061C304,-122.1061 304,-140.991 304,-140.991"/>
<polygon fill="#000000" stroke="#000000" points="300.5001,-140.9909 304,-150.991 307.5001,-140.991 300.5001,-140.9909"/>
</g>
<!-- AutoFocusDirective  -->
<g id="node3" class="node">
<title>AutoFocusDirective </title>
<polygon fill="#fb8072" stroke="#000000" points="622.5218,-252 489.4782,-252 489.4782,-216 622.5218,-216 622.5218,-252"/>
<text text-anchor="middle" x="556" y="-229.8" font-family="Times,serif" font-size="14.00" fill="#000000">AutoFocusDirective </text>
</g>
<!-- RebirthCommonModule&#45;&gt;AutoFocusDirective  -->
<g id="edge2" class="edge">
<title>RebirthCommonModule&#45;&gt;AutoFocusDirective </title>
<path fill="none" stroke="#000000" stroke-dasharray="5,2" d="M380.9776,-169C455.0862,-169 556,-169 556,-169 556,-169 556,-205.8939 556,-205.8939"/>
<polygon fill="#000000" stroke="#000000" points="552.5001,-205.8938 556,-215.8939 559.5001,-205.8939 552.5001,-205.8938"/>
</g>
<!-- TemplateLoaderComponent  -->
<g id="node4" class="node">
<title>TemplateLoaderComponent </title>
<polygon fill="#fb8072" stroke="#000000" points="471.8433,-252 294.1567,-252 294.1567,-216 471.8433,-216 471.8433,-252"/>
<text text-anchor="middle" x="383" y="-229.8" font-family="Times,serif" font-size="14.00" fill="#000000">TemplateLoaderComponent </text>
</g>
<!-- RebirthCommonModule&#45;&gt;TemplateLoaderComponent  -->
<g id="edge3" class="edge">
<title>RebirthCommonModule&#45;&gt;TemplateLoaderComponent </title>
<path fill="none" stroke="#000000" stroke-dasharray="5,2" d="M337.5794,-187.1061C337.5794,-187.1061 337.5794,-205.991 337.5794,-205.991"/>
<polygon fill="#000000" stroke="#000000" points="334.0795,-205.9909 337.5794,-215.991 341.0795,-205.991 334.0795,-205.9909"/>
</g>
<!-- TrustHtmlPipe  -->
<g id="node5" class="node">
<title>TrustHtmlPipe </title>
<polygon fill="#fb8072" stroke="#000000" points="276.215,-252 173.785,-252 173.785,-216 276.215,-216 276.215,-252"/>
<text text-anchor="middle" x="225" y="-229.8" font-family="Times,serif" font-size="14.00" fill="#000000">TrustHtmlPipe </text>
</g>
<!-- RebirthCommonModule&#45;&gt;TrustHtmlPipe  -->
<g id="edge4" class="edge">
<title>RebirthCommonModule&#45;&gt;TrustHtmlPipe </title>
<path fill="none" stroke="#000000" stroke-dasharray="5,2" d="M251.7635,-187.1061C251.7635,-187.1061 251.7635,-205.991 251.7635,-205.991"/>
<polygon fill="#000000" stroke="#000000" points="248.2636,-205.9909 251.7635,-215.991 255.2636,-205.991 248.2636,-205.9909"/>
</g>
<!-- ResizeableDirective  -->
<g id="node6" class="node">
<title>ResizeableDirective </title>
<polygon fill="#fb8072" stroke="#000000" points="156.2184,-252 23.7816,-252 23.7816,-216 156.2184,-216 156.2184,-252"/>
<text text-anchor="middle" x="90" y="-229.8" font-family="Times,serif" font-size="14.00" fill="#000000">ResizeableDirective </text>
</g>
<!-- RebirthCommonModule&#45;&gt;ResizeableDirective  -->
<g id="edge5" class="edge">
<title>RebirthCommonModule&#45;&gt;ResizeableDirective </title>
<path fill="none" stroke="#000000" stroke-dasharray="5,2" d="M227.0434,-169C165.6917,-169 90,-169 90,-169 90,-169 90,-205.8939 90,-205.8939"/>
<polygon fill="#000000" stroke="#000000" points="86.5001,-205.8938 90,-215.8939 93.5001,-205.8939 86.5001,-205.8938"/>
</g>
</g>
</svg>
