<?xml version="1.0" encoding="UTF-8" standalone="no"?>
<!DOCTYPE svg PUBLIC "-//W3C//DTD SVG 1.1//EN"
 "http://www.w3.org/Graphics/SVG/1.1/DTD/svg11.dtd">
<!-- Generated by graphviz version 2.40.1 (20161225.0304)
 -->
<!-- Title: dependencies Pages: 1 -->
<svg width="805pt" height="284pt"
 viewBox="0.00 0.00 805.00 284.00" xmlns="http://www.w3.org/2000/svg" xmlns:xlink="http://www.w3.org/1999/xlink">
<g id="graph0" class="graph" transform="scale(1 1) rotate(0) translate(4 280)">
<title>dependencies</title>
<polygon fill="#ffffff" stroke="transparent" points="-4,4 -4,-280 801,-280 801,4 -4,4"/>
<text text-anchor="start" x="377.5091" y="-42.4" font-family="sans-serif" font-weight="bold" font-size="14.00" fill="#000000">Legend</text>
<polygon fill="#ffffb3" stroke="transparent" points="164.5,-10 164.5,-30 184.5,-30 184.5,-10 164.5,-10"/>
<text text-anchor="start" x="188.129" y="-15.4" font-family="sans-serif" font-size="14.00" fill="#000000"> &#160;Declarations</text>
<polygon fill="#8dd3c7" stroke="transparent" points="277.5,-10 277.5,-30 297.5,-30 297.5,-10 277.5,-10"/>
<text text-anchor="start" x="301.2251" y="-15.4" font-family="sans-serif" font-size="14.00" fill="#000000"> &#160;Module</text>
<polygon fill="#80b1d3" stroke="transparent" points="363.5,-10 363.5,-30 383.5,-30 383.5,-10 363.5,-10"/>
<text text-anchor="start" x="387.2812" y="-15.4" font-family="sans-serif" font-size="14.00" fill="#000000"> &#160;Bootstrap</text>
<polygon fill="#fdb462" stroke="transparent" points="460.5,-10 460.5,-30 480.5,-30 480.5,-10 460.5,-10"/>
<text text-anchor="start" x="484.1732" y="-15.4" font-family="sans-serif" font-size="14.00" fill="#000000"> &#160;Providers</text>
<polygon fill="#fb8072" stroke="transparent" points="556.5,-10 556.5,-30 576.5,-30 576.5,-10 556.5,-10"/>
<text text-anchor="start" x="580.2258" y="-15.4" font-family="sans-serif" font-size="14.00" fill="#000000"> &#160;Exports</text>
<g id="clust1" class="cluster">
<title>cluster_RebirthCommonModule</title>
<polygon fill="none" stroke="#000000" stroke-dasharray="1,5" points="8,-70 8,-268 789,-268 789,-70 8,-70"/>
</g>
<g id="clust3" class="cluster">
<title>cluster_RebirthCommonModule_imports</title>
<polygon fill="none" stroke="#000000" points="311,-78 311,-130 439,-130 439,-78 311,-78"/>
</g>
<g id="clust4" class="cluster">
<title>cluster_RebirthCommonModule_exports</title>
<polygon fill="none" stroke="#000000" points="16,-208 16,-260 781,-260 781,-208 16,-208"/>
</g>
<!-- CommonModule -->
<g id="node1" class="node">
<title>CommonModule</title>
<polygon fill="#8dd3c7" stroke="#000000" points="430.6681,-122 427.6681,-126 406.6681,-126 403.6681,-122 319.3319,-122 319.3319,-86 430.6681,-86 430.6681,-122"/>
<text text-anchor="middle" x="375" y="-99.8" font-family="Times,serif" font-size="14.00" fill="#000000">CommonModule</text>
</g>
<!-- RebirthCommonModule -->
<g id="node2" class="node">
<title>RebirthCommonModule</title>
<polygon fill="#8dd3c7" stroke="#000000" points="451.661,-187 448.661,-191 427.661,-191 424.661,-187 298.339,-187 298.339,-151 451.661,-151 451.661,-187"/>
<text text-anchor="middle" x="375" y="-164.8" font-family="Times,serif" font-size="14.00" fill="#000000">RebirthCommonModule</text>
</g>
<!-- CommonModule&#45;&gt;RebirthCommonModule -->
<g id="edge1" class="edge">
<title>CommonModule&#45;&gt;RebirthCommonModule</title>
<path fill="none" stroke="#000000" d="M375,-122.1061C375,-122.1061 375,-140.991 375,-140.991"/>
<polygon fill="#000000" stroke="#000000" points="371.5001,-140.9909 375,-150.991 378.5001,-140.991 371.5001,-140.9909"/>
</g>
<!-- AutoFocusDirective  -->
<g id="node3" class="node">
<title>AutoFocusDirective </title>
<polygon fill="#fb8072" stroke="#000000" points="772.5218,-252 639.4782,-252 639.4782,-216 772.5218,-216 772.5218,-252"/>
<text text-anchor="middle" x="706" y="-229.8" font-family="Times,serif" font-size="14.00" fill="#000000">AutoFocusDirective </text>
</g>
<!-- RebirthCommonModule&#45;&gt;AutoFocusDirective  -->
<g id="edge2" class="edge">
<title>RebirthCommonModule&#45;&gt;AutoFocusDirective </title>
<path fill="none" stroke="#000000" stroke-dasharray="5,2" d="M451.77,-169C549.5508,-169 706,-169 706,-169 706,-169 706,-205.8939 706,-205.8939"/>
<polygon fill="#000000" stroke="#000000" points="702.5001,-205.8938 706,-215.8939 709.5001,-205.8939 702.5001,-205.8938"/>
</g>
<!-- TemplateLoaderComponent  -->
<g id="node4" class="node">
<title>TemplateLoaderComponent </title>
<polygon fill="#fb8072" stroke="#000000" points="621.8433,-252 444.1567,-252 444.1567,-216 621.8433,-216 621.8433,-252"/>
<text text-anchor="middle" x="533" y="-229.8" font-family="Times,serif" font-size="14.00" fill="#000000">TemplateLoaderComponent </text>
</g>
<!-- RebirthCommonModule&#45;&gt;TemplateLoaderComponent  -->
<g id="edge3" class="edge">
<title>RebirthCommonModule&#45;&gt;TemplateLoaderComponent </title>
<path fill="none" stroke="#000000" stroke-dasharray="5,2" d="M448.0794,-187.1061C448.0794,-187.1061 448.0794,-205.991 448.0794,-205.991"/>
<polygon fill="#000000" stroke="#000000" points="444.5795,-205.9909 448.0794,-215.991 451.5795,-205.991 444.5795,-205.9909"/>
</g>
<!-- TrustHtmlPipe  -->
<g id="node5" class="node">
<title>TrustHtmlPipe </title>
<polygon fill="#fb8072" stroke="#000000" points="426.215,-252 323.785,-252 323.785,-216 426.215,-216 426.215,-252"/>
<text text-anchor="middle" x="375" y="-229.8" font-family="Times,serif" font-size="14.00" fill="#000000">TrustHtmlPipe </text>
</g>
<!-- RebirthCommonModule&#45;&gt;TrustHtmlPipe  -->
<g id="edge4" class="edge">
<title>RebirthCommonModule&#45;&gt;TrustHtmlPipe </title>
<path fill="none" stroke="#000000" stroke-dasharray="5,2" d="M375,-187.1061C375,-187.1061 375,-205.991 375,-205.991"/>
<polygon fill="#000000" stroke="#000000" points="371.5001,-205.9909 375,-215.991 378.5001,-205.991 371.5001,-205.9909"/>
</g>
<!-- ResizeableDirective  -->
<g id="node6" class="node">
<title>ResizeableDirective </title>
<polygon fill="#fb8072" stroke="#000000" points="306.2184,-252 173.7816,-252 173.7816,-216 306.2184,-216 306.2184,-252"/>
<text text-anchor="middle" x="240" y="-229.8" font-family="Times,serif" font-size="14.00" fill="#000000">ResizeableDirective </text>
</g>
<!-- RebirthCommonModule&#45;&gt;ResizeableDirective  -->
<g id="edge5" class="edge">
<title>RebirthCommonModule&#45;&gt;ResizeableDirective </title>
<path fill="none" stroke="#000000" stroke-dasharray="5,2" d="M302.1394,-187.1061C302.1394,-187.1061 302.1394,-205.991 302.1394,-205.991"/>
<polygon fill="#000000" stroke="#000000" points="298.6395,-205.9909 302.1394,-215.991 305.6395,-205.991 298.6395,-205.9909"/>
</g>
<!-- DropdownDirective  -->
<g id="node7" class="node">
<title>DropdownDirective </title>
<polygon fill="#fb8072" stroke="#000000" points="155.9574,-252 24.0426,-252 24.0426,-216 155.9574,-216 155.9574,-252"/>
<text text-anchor="middle" x="90" y="-229.8" font-family="Times,serif" font-size="14.00" fill="#000000">DropdownDirective </text>
</g>
<!-- RebirthCommonModule&#45;&gt;DropdownDirective  -->
<g id="edge6" class="edge">
<title>RebirthCommonModule&#45;&gt;DropdownDirective </title>
<path fill="none" stroke="#000000" stroke-dasharray="5,2" d="M298.2503,-169C213.8376,-169 90,-169 90,-169 90,-169 90,-205.8939 90,-205.8939"/>
<polygon fill="#000000" stroke="#000000" points="86.5001,-205.8938 90,-215.8939 93.5001,-205.8939 86.5001,-205.8938"/>
</g>
</g>
</svg>
