<?xml version="1.0" encoding="UTF-8" standalone="no"?>
<!DOCTYPE svg PUBLIC "-//W3C//DTD SVG 1.1//EN"
 "http://www.w3.org/Graphics/SVG/1.1/DTD/svg11.dtd">
<!-- Generated by graphviz version 2.40.1 (20161225.0304)
 -->
<!-- Title: dependencies Pages: 1 -->
<svg width="504pt" height="284pt"
 viewBox="0.00 0.00 504.00 284.00" xmlns="http://www.w3.org/2000/svg" xmlns:xlink="http://www.w3.org/1999/xlink">
<g id="graph0" class="graph" transform="scale(1 1) rotate(0) translate(4 280)">
<title>dependencies</title>
<polygon fill="#ffffff" stroke="transparent" points="-4,4 -4,-280 500,-280 500,4 -4,4"/>
<text text-anchor="start" x="227.0091" y="-42.4" font-family="sans-serif" font-weight="bold" font-size="14.00" fill="#000000">Legend</text>
<polygon fill="#ffffb3" stroke="transparent" points="14,-10 14,-30 34,-30 34,-10 14,-10"/>
<text text-anchor="start" x="37.629" y="-15.4" font-family="sans-serif" font-size="14.00" fill="#000000"> &#160;Declarations</text>
<polygon fill="#8dd3c7" stroke="transparent" points="127,-10 127,-30 147,-30 147,-10 127,-10"/>
<text text-anchor="start" x="150.7251" y="-15.4" font-family="sans-serif" font-size="14.00" fill="#000000"> &#160;Module</text>
<polygon fill="#80b1d3" stroke="transparent" points="213,-10 213,-30 233,-30 233,-10 213,-10"/>
<text text-anchor="start" x="236.7812" y="-15.4" font-family="sans-serif" font-size="14.00" fill="#000000"> &#160;Bootstrap</text>
<polygon fill="#fdb462" stroke="transparent" points="310,-10 310,-30 330,-30 330,-10 310,-10"/>
<text text-anchor="start" x="333.6732" y="-15.4" font-family="sans-serif" font-size="14.00" fill="#000000"> &#160;Providers</text>
<polygon fill="#fb8072" stroke="transparent" points="406,-10 406,-30 426,-30 426,-10 406,-10"/>
<text text-anchor="start" x="429.7258" y="-15.4" font-family="sans-serif" font-size="14.00" fill="#000000"> &#160;Exports</text>
<g id="clust1" class="cluster">
<title>cluster_RebirthCommonModule</title>
<polygon fill="none" stroke="#000000" stroke-dasharray="1,5" points="67.5,-70 67.5,-268 428.5,-268 428.5,-70 67.5,-70"/>
</g>
<g id="clust3" class="cluster">
<title>cluster_RebirthCommonModule_imports</title>
<polygon fill="none" stroke="#000000" points="193.5,-78 193.5,-130 321.5,-130 321.5,-78 193.5,-78"/>
</g>
<g id="clust4" class="cluster">
<title>cluster_RebirthCommonModule_exports</title>
<polygon fill="none" stroke="#000000" points="75.5,-208 75.5,-260 420.5,-260 420.5,-208 75.5,-208"/>
</g>
<!-- CommonModule -->
<g id="node1" class="node">
<title>CommonModule</title>
<polygon fill="#8dd3c7" stroke="#000000" points="313.1681,-122 310.1681,-126 289.1681,-126 286.1681,-122 201.8319,-122 201.8319,-86 313.1681,-86 313.1681,-122"/>
<text text-anchor="middle" x="257.5" y="-99.8" font-family="Times,serif" font-size="14.00" fill="#000000">CommonModule</text>
</g>
<!-- RebirthCommonModule -->
<g id="node2" class="node">
<title>RebirthCommonModule</title>
<polygon fill="#8dd3c7" stroke="#000000" points="334.161,-187 331.161,-191 310.161,-191 307.161,-187 180.839,-187 180.839,-151 334.161,-151 334.161,-187"/>
<text text-anchor="middle" x="257.5" y="-164.8" font-family="Times,serif" font-size="14.00" fill="#000000">RebirthCommonModule</text>
</g>
<!-- CommonModule&#45;&gt;RebirthCommonModule -->
<g id="edge1" class="edge">
<title>CommonModule&#45;&gt;RebirthCommonModule</title>
<path fill="none" stroke="#000000" d="M257.5,-122.1061C257.5,-122.1061 257.5,-140.991 257.5,-140.991"/>
<polygon fill="#000000" stroke="#000000" points="254.0001,-140.9909 257.5,-150.991 261.0001,-140.991 254.0001,-140.9909"/>
</g>
<!-- AutoFocusDirective  -->
<g id="node3" class="node">
<title>AutoFocusDirective </title>
<polygon fill="#fb8072" stroke="#000000" points="412.0218,-252 278.9782,-252 278.9782,-216 412.0218,-216 412.0218,-252"/>
<text text-anchor="middle" x="345.5" y="-229.8" font-family="Times,serif" font-size="14.00" fill="#000000">AutoFocusDirective </text>
</g>
<!-- RebirthCommonModule&#45;&gt;AutoFocusDirective  -->
<g id="edge2" class="edge">
<title>RebirthCommonModule&#45;&gt;AutoFocusDirective </title>
<path fill="none" stroke="#000000" stroke-dasharray="5,2" d="M306.6597,-187.1061C306.6597,-187.1061 306.6597,-205.991 306.6597,-205.991"/>
<polygon fill="#000000" stroke="#000000" points="303.1598,-205.9909 306.6597,-215.991 310.1598,-205.991 303.1598,-205.9909"/>
</g>
<!-- TemplateLoaderComponent  -->
<g id="node4" class="node">
<title>TemplateLoaderComponent </title>
<polygon fill="#fb8072" stroke="#000000" points="261.3433,-252 83.6567,-252 83.6567,-216 261.3433,-216 261.3433,-252"/>
<text text-anchor="middle" x="172.5" y="-229.8" font-family="Times,serif" font-size="14.00" fill="#000000">TemplateLoaderComponent </text>
</g>
<!-- RebirthCommonModule&#45;&gt;TemplateLoaderComponent  -->
<g id="edge3" class="edge">
<title>RebirthCommonModule&#45;&gt;TemplateLoaderComponent </title>
<path fill="none" stroke="#000000" stroke-dasharray="5,2" d="M220.9206,-187.1061C220.9206,-187.1061 220.9206,-205.991 220.9206,-205.991"/>
<polygon fill="#000000" stroke="#000000" points="217.4207,-205.9909 220.9206,-215.991 224.4207,-205.991 217.4207,-205.9909"/>
</g>
</g>
</svg>
