<?xml version="1.0" encoding="UTF-8" standalone="no"?>
<!DOCTYPE svg PUBLIC "-//W3C//DTD SVG 1.1//EN"
 "http://www.w3.org/Graphics/SVG/1.1/DTD/svg11.dtd">
<!-- Generated by graphviz version 2.38.0 (20140413.2041)
 -->
<!-- Title: dependencies Pages: 1 -->
<svg width="514pt" height="284pt"
 viewBox="0.00 0.00 514.00 284.00" xmlns="http://www.w3.org/2000/svg" xmlns:xlink="http://www.w3.org/1999/xlink">
<g id="graph0" class="graph" transform="scale(1 1) rotate(0) translate(4 280)">
<title>dependencies</title>
<polygon fill="white" stroke="none" points="-4,4 -4,-280 510,-280 510,4 -4,4"/>
<text text-anchor="start" x="232.009" y="-42.4" font-family="sans-serif" font-weight="bold" font-size="14.00">Legend</text>
<polygon fill="#ffffb3" stroke="none" points="19,-10 19,-30 39,-30 39,-10 19,-10"/>
<text text-anchor="start" x="42.629" y="-15.4" font-family="sans-serif" font-size="14.00"> &#160;Declarations</text>
<polygon fill="#8dd3c7" stroke="none" points="132,-10 132,-30 152,-30 152,-10 132,-10"/>
<text text-anchor="start" x="155.725" y="-15.4" font-family="sans-serif" font-size="14.00"> &#160;Module</text>
<polygon fill="#80b1d3" stroke="none" points="218,-10 218,-30 238,-30 238,-10 218,-10"/>
<text text-anchor="start" x="241.781" y="-15.4" font-family="sans-serif" font-size="14.00"> &#160;Bootstrap</text>
<polygon fill="#fdb462" stroke="none" points="315,-10 315,-30 335,-30 335,-10 315,-10"/>
<text text-anchor="start" x="338.673" y="-15.4" font-family="sans-serif" font-size="14.00"> &#160;Providers</text>
<polygon fill="#fb8072" stroke="none" points="411,-10 411,-30 431,-30 431,-10 411,-10"/>
<text text-anchor="start" x="434.726" y="-15.4" font-family="sans-serif" font-size="14.00"> &#160;Exports</text>
<g id="clust1" class="cluster"><title>cluster_RebirthCommonModule</title>
<polygon fill="none" stroke="black" stroke-dasharray="1,5" points="8,-70 8,-268 498,-268 498,-70 8,-70"/>
</g>
<g id="clust2" class="cluster"><title>cluster_RebirthCommonModule_declarations</title>
<polygon fill="none" stroke="black" points="152,-78 152,-130 490,-130 490,-78 152,-78"/>
</g>
<g id="clust5" class="cluster"><title>cluster_RebirthCommonModule_imports</title>
<polygon fill="none" stroke="black" points="16,-78 16,-130 144,-130 144,-78 16,-78"/>
</g>
<g id="clust6" class="cluster"><title>cluster_RebirthCommonModule_exports</title>
<polygon fill="none" stroke="black" points="80,-208 80,-260 425,-260 425,-208 80,-208"/>
</g>
<!-- AutoFocusDirective -->
<g id="node1" class="node"><title>AutoFocusDirective</title>
<polygon fill="#ffffb3" stroke="black" points="481.523,-122 352.477,-122 352.477,-86 481.523,-86 481.523,-122"/>
<text text-anchor="middle" x="417" y="-99.8" font-family="Times,serif" font-size="14.00">AutoFocusDirective</text>
</g>
<!-- RebirthCommonModule -->
<g id="node3" class="node"><title>RebirthCommonModule</title>
<polygon fill="#8dd3c7" stroke="black" points="323.661,-187 320.661,-191 299.661,-191 296.661,-187 170.339,-187 170.339,-151 323.661,-151 323.661,-187"/>
<text text-anchor="middle" x="247" y="-164.8" font-family="Times,serif" font-size="14.00">RebirthCommonModule</text>
</g>
<!-- AutoFocusDirective&#45;&gt;RebirthCommonModule -->
<g id="edge1" class="edge"><title>AutoFocusDirective&#45;&gt;RebirthCommonModule</title>
<path fill="none" stroke="black" d="M384.375,-122.106C384.375,-141.339 384.375,-169 384.375,-169 384.375,-169 333.72,-169 333.72,-169"/>
<polygon fill="black" stroke="black" points="333.72,-165.5 323.72,-169 333.72,-172.5 333.72,-165.5"/>
</g>
<!-- TemplateLoaderComponent -->
<g id="node2" class="node"><title>TemplateLoaderComponent</title>
<polygon fill="#ffffb3" stroke="black" points="333.843,-122 160.157,-122 160.157,-86 333.843,-86 333.843,-122"/>
<text text-anchor="middle" x="247" y="-99.8" font-family="Times,serif" font-size="14.00">TemplateLoaderComponent</text>
</g>
<!-- TemplateLoaderComponent&#45;&gt;RebirthCommonModule -->
<g id="edge2" class="edge"><title>TemplateLoaderComponent&#45;&gt;RebirthCommonModule</title>
<path fill="none" stroke="black" d="M247,-122.106C247,-122.106 247,-140.991 247,-140.991"/>
<polygon fill="black" stroke="black" points="243.5,-140.991 247,-150.991 250.5,-140.991 243.5,-140.991"/>
</g>
<!-- AutoFocusDirective  -->
<g id="node5" class="node"><title>AutoFocusDirective </title>
<polygon fill="#fb8072" stroke="black" points="416.522,-252 283.478,-252 283.478,-216 416.522,-216 416.522,-252"/>
<text text-anchor="middle" x="350" y="-229.8" font-family="Times,serif" font-size="14.00">AutoFocusDirective </text>
</g>
<!-- RebirthCommonModule&#45;&gt;AutoFocusDirective  -->
<g id="edge4" class="edge"><title>RebirthCommonModule&#45;&gt;AutoFocusDirective </title>
<path fill="none" stroke="black" stroke-dasharray="5,2" d="M303.66,-187.106C303.66,-187.106 303.66,-205.991 303.66,-205.991"/>
<polygon fill="black" stroke="black" points="300.16,-205.991 303.66,-215.991 307.16,-205.991 300.16,-205.991"/>
</g>
<!-- TemplateLoaderComponent  -->
<g id="node6" class="node"><title>TemplateLoaderComponent </title>
<polygon fill="#fb8072" stroke="black" points="265.843,-252 88.1567,-252 88.1567,-216 265.843,-216 265.843,-252"/>
<text text-anchor="middle" x="177" y="-229.8" font-family="Times,serif" font-size="14.00">TemplateLoaderComponent </text>
</g>
<!-- RebirthCommonModule&#45;&gt;TemplateLoaderComponent  -->
<g id="edge5" class="edge"><title>RebirthCommonModule&#45;&gt;TemplateLoaderComponent </title>
<path fill="none" stroke="black" stroke-dasharray="5,2" d="M217.921,-187.106C217.921,-187.106 217.921,-205.991 217.921,-205.991"/>
<polygon fill="black" stroke="black" points="214.421,-205.991 217.921,-215.991 221.421,-205.991 214.421,-205.991"/>
</g>
<!-- CommonModule -->
<g id="node4" class="node"><title>CommonModule</title>
<polygon fill="#8dd3c7" stroke="black" points="135.668,-122 132.668,-126 111.668,-126 108.668,-122 24.3319,-122 24.3319,-86 135.668,-86 135.668,-122"/>
<text text-anchor="middle" x="80" y="-99.8" font-family="Times,serif" font-size="14.00">CommonModule</text>
</g>
<!-- CommonModule&#45;&gt;RebirthCommonModule -->
<g id="edge3" class="edge"><title>CommonModule&#45;&gt;RebirthCommonModule</title>
<path fill="none" stroke="black" d="M112.081,-122.106C112.081,-141.339 112.081,-169 112.081,-169 112.081,-169 160.082,-169 160.082,-169"/>
<polygon fill="black" stroke="black" points="160.082,-172.5 170.082,-169 160.082,-165.5 160.082,-172.5"/>
</g>
</g>
</svg>
