<?xml version="1.0" encoding="UTF-8" standalone="no"?>
<!DOCTYPE svg PUBLIC "-//W3C//DTD SVG 1.1//EN"
 "http://www.w3.org/Graphics/SVG/1.1/DTD/svg11.dtd">
<!-- Generated by graphviz version 2.40.1 (20161225.0304)
 -->
<!-- Title: dependencies Pages: 1 -->
<svg width="505pt" height="284pt"
 viewBox="0.00 0.00 505.00 284.00" xmlns="http://www.w3.org/2000/svg" xmlns:xlink="http://www.w3.org/1999/xlink">
<g id="graph0" class="graph" transform="scale(1 1) rotate(0) translate(4 280)">
<title>dependencies</title>
<polygon fill="#ffffff" stroke="transparent" points="-4,4 -4,-280 501,-280 501,4 -4,4"/>
<text text-anchor="start" x="227.5091" y="-42.4" font-family="sans-serif" font-weight="bold" font-size="14.00" fill="#000000">Legend</text>
<polygon fill="#ffffb3" stroke="transparent" points="14.5,-10 14.5,-30 34.5,-30 34.5,-10 14.5,-10"/>
<text text-anchor="start" x="38.129" y="-15.4" font-family="sans-serif" font-size="14.00" fill="#000000"> &#160;Declarations</text>
<polygon fill="#8dd3c7" stroke="transparent" points="127.5,-10 127.5,-30 147.5,-30 147.5,-10 127.5,-10"/>
<text text-anchor="start" x="151.2251" y="-15.4" font-family="sans-serif" font-size="14.00" fill="#000000"> &#160;Module</text>
<polygon fill="#80b1d3" stroke="transparent" points="213.5,-10 213.5,-30 233.5,-30 233.5,-10 213.5,-10"/>
<text text-anchor="start" x="237.2812" y="-15.4" font-family="sans-serif" font-size="14.00" fill="#000000"> &#160;Bootstrap</text>
<polygon fill="#fdb462" stroke="transparent" points="310.5,-10 310.5,-30 330.5,-30 330.5,-10 310.5,-10"/>
<text text-anchor="start" x="334.1732" y="-15.4" font-family="sans-serif" font-size="14.00" fill="#000000"> &#160;Providers</text>
<polygon fill="#fb8072" stroke="transparent" points="406.5,-10 406.5,-30 426.5,-30 426.5,-10 406.5,-10"/>
<text text-anchor="start" x="430.2258" y="-15.4" font-family="sans-serif" font-size="14.00" fill="#000000"> &#160;Exports</text>
<g id="clust1" class="cluster">
<title>cluster_RebirthCommonModule</title>
<polygon fill="none" stroke="#000000" stroke-dasharray="1,5" points="8,-70 8,-268 489,-268 489,-70 8,-70"/>
</g>
<g id="clust3" class="cluster">
<title>cluster_RebirthCommonModule_imports</title>
<polygon fill="none" stroke="#000000" points="169,-78 169,-130 297,-130 297,-78 169,-78"/>
</g>
<g id="clust4" class="cluster">
<title>cluster_RebirthCommonModule_exports</title>
<polygon fill="none" stroke="#000000" points="16,-208 16,-260 481,-260 481,-208 16,-208"/>
</g>
<!-- CommonModule -->
<g id="node1" class="node">
<title>CommonModule</title>
<polygon fill="#8dd3c7" stroke="#000000" points="288.6681,-122 285.6681,-126 264.6681,-126 261.6681,-122 177.3319,-122 177.3319,-86 288.6681,-86 288.6681,-122"/>
<text text-anchor="middle" x="233" y="-99.8" font-family="Times,serif" font-size="14.00" fill="#000000">CommonModule</text>
</g>
<!-- RebirthCommonModule -->
<g id="node2" class="node">
<title>RebirthCommonModule</title>
<polygon fill="#8dd3c7" stroke="#000000" points="309.661,-187 306.661,-191 285.661,-191 282.661,-187 156.339,-187 156.339,-151 309.661,-151 309.661,-187"/>
<text text-anchor="middle" x="233" y="-164.8" font-family="Times,serif" font-size="14.00" fill="#000000">RebirthCommonModule</text>
</g>
<!-- CommonModule&#45;&gt;RebirthCommonModule -->
<g id="edge1" class="edge">
<title>CommonModule&#45;&gt;RebirthCommonModule</title>
<path fill="none" stroke="#000000" d="M233,-122.1061C233,-122.1061 233,-140.991 233,-140.991"/>
<polygon fill="#000000" stroke="#000000" points="229.5001,-140.9909 233,-150.991 236.5001,-140.991 229.5001,-140.9909"/>
</g>
<!-- AutoFocusDirective  -->
<g id="node3" class="node">
<title>AutoFocusDirective </title>
<polygon fill="#fb8072" stroke="#000000" points="472.5218,-252 339.4782,-252 339.4782,-216 472.5218,-216 472.5218,-252"/>
<text text-anchor="middle" x="406" y="-229.8" font-family="Times,serif" font-size="14.00" fill="#000000">AutoFocusDirective </text>
</g>
<!-- RebirthCommonModule&#45;&gt;AutoFocusDirective  -->
<g id="edge2" class="edge">
<title>RebirthCommonModule&#45;&gt;AutoFocusDirective </title>
<path fill="none" stroke="#000000" stroke-dasharray="5,2" d="M309.8878,-169C356.0918,-169 406,-169 406,-169 406,-169 406,-205.8939 406,-205.8939"/>
<polygon fill="#000000" stroke="#000000" points="402.5001,-205.8938 406,-215.8939 409.5001,-205.8939 402.5001,-205.8938"/>
</g>
<!-- TemplateLoaderComponent  -->
<g id="node4" class="node">
<title>TemplateLoaderComponent </title>
<polygon fill="#fb8072" stroke="#000000" points="321.8433,-252 144.1567,-252 144.1567,-216 321.8433,-216 321.8433,-252"/>
<text text-anchor="middle" x="233" y="-229.8" font-family="Times,serif" font-size="14.00" fill="#000000">TemplateLoaderComponent </text>
</g>
<!-- RebirthCommonModule&#45;&gt;TemplateLoaderComponent  -->
<g id="edge3" class="edge">
<title>RebirthCommonModule&#45;&gt;TemplateLoaderComponent </title>
<path fill="none" stroke="#000000" stroke-dasharray="5,2" d="M233,-187.1061C233,-187.1061 233,-205.991 233,-205.991"/>
<polygon fill="#000000" stroke="#000000" points="229.5001,-205.9909 233,-215.991 236.5001,-205.991 229.5001,-205.9909"/>
</g>
<!-- TrustHtmlPipe  -->
<g id="node5" class="node">
<title>TrustHtmlPipe </title>
<polygon fill="#fb8072" stroke="#000000" points="126.215,-252 23.785,-252 23.785,-216 126.215,-216 126.215,-252"/>
<text text-anchor="middle" x="75" y="-229.8" font-family="Times,serif" font-size="14.00" fill="#000000">TrustHtmlPipe </text>
</g>
<!-- RebirthCommonModule&#45;&gt;TrustHtmlPipe  -->
<g id="edge4" class="edge">
<title>RebirthCommonModule&#45;&gt;TrustHtmlPipe </title>
<path fill="none" stroke="#000000" stroke-dasharray="5,2" d="M156.3142,-169C116.058,-169 75,-169 75,-169 75,-169 75,-205.8939 75,-205.8939"/>
<polygon fill="#000000" stroke="#000000" points="71.5001,-205.8938 75,-215.8939 78.5001,-205.8939 71.5001,-205.8938"/>
</g>
</g>
</svg>
