<?xml version="1.0" encoding="UTF-8" standalone="no"?>
<!DOCTYPE svg PUBLIC "-//W3C//DTD SVG 1.1//EN"
 "http://www.w3.org/Graphics/SVG/1.1/DTD/svg11.dtd">
<!-- Generated by graphviz version 2.38.0 (20140413.2041)
 -->
<!-- Title: dependencies Pages: 1 -->
<svg width="504pt" height="284pt"
 viewBox="0.00 0.00 504.00 284.00" xmlns="http://www.w3.org/2000/svg" xmlns:xlink="http://www.w3.org/1999/xlink">
<g id="graph0" class="graph" transform="scale(1 1) rotate(0) translate(4 280)">
<title>dependencies</title>
<polygon fill="white" stroke="none" points="-4,4 -4,-280 500,-280 500,4 -4,4"/>
<text text-anchor="start" x="227.009" y="-42.4" font-family="sans-serif" font-weight="bold" font-size="14.00">Legend</text>
<polygon fill="#ffffb3" stroke="none" points="14,-10 14,-30 34,-30 34,-10 14,-10"/>
<text text-anchor="start" x="37.629" y="-15.4" font-family="sans-serif" font-size="14.00"> &#160;Declarations</text>
<polygon fill="#8dd3c7" stroke="none" points="127,-10 127,-30 147,-30 147,-10 127,-10"/>
<text text-anchor="start" x="150.725" y="-15.4" font-family="sans-serif" font-size="14.00"> &#160;Module</text>
<polygon fill="#80b1d3" stroke="none" points="213,-10 213,-30 233,-30 233,-10 213,-10"/>
<text text-anchor="start" x="236.781" y="-15.4" font-family="sans-serif" font-size="14.00"> &#160;Bootstrap</text>
<polygon fill="#fdb462" stroke="none" points="310,-10 310,-30 330,-30 330,-10 310,-10"/>
<text text-anchor="start" x="333.673" y="-15.4" font-family="sans-serif" font-size="14.00"> &#160;Providers</text>
<polygon fill="#fb8072" stroke="none" points="406,-10 406,-30 426,-30 426,-10 406,-10"/>
<text text-anchor="start" x="429.726" y="-15.4" font-family="sans-serif" font-size="14.00"> &#160;Exports</text>
<g id="clust1" class="cluster"><title>cluster_PagerModule</title>
<polygon fill="none" stroke="black" stroke-dasharray="1,5" points="107,-70 107,-268 389,-268 389,-70 107,-70"/>
</g>
<g id="clust2" class="cluster"><title>cluster_PagerModule_declarations</title>
<polygon fill="none" stroke="black" points="251,-78 251,-130 381,-130 381,-78 251,-78"/>
</g>
<g id="clust4" class="cluster"><title>cluster_PagerModule_imports</title>
<polygon fill="none" stroke="black" points="115,-78 115,-130 243,-130 243,-78 115,-78"/>
</g>
<g id="clust5" class="cluster"><title>cluster_PagerModule_exports</title>
<polygon fill="none" stroke="black" points="182,-208 182,-260 314,-260 314,-208 182,-208"/>
</g>
<!-- PagerComponent -->
<g id="node1" class="node"><title>PagerComponent</title>
<polygon fill="#ffffb3" stroke="black" points="372.705,-122 259.295,-122 259.295,-86 372.705,-86 372.705,-122"/>
<text text-anchor="middle" x="316" y="-99.8" font-family="Times,serif" font-size="14.00">PagerComponent</text>
</g>
<!-- PagerModule -->
<g id="node2" class="node"><title>PagerModule</title>
<polygon fill="#8dd3c7" stroke="black" points="293.923,-187 290.923,-191 269.923,-191 266.923,-187 202.077,-187 202.077,-151 293.923,-151 293.923,-187"/>
<text text-anchor="middle" x="248" y="-164.8" font-family="Times,serif" font-size="14.00">PagerModule</text>
</g>
<!-- PagerComponent&#45;&gt;PagerModule -->
<g id="edge1" class="edge"><title>PagerComponent&#45;&gt;PagerModule</title>
<path fill="none" stroke="black" d="M276.554,-122.106C276.554,-122.106 276.554,-140.991 276.554,-140.991"/>
<polygon fill="black" stroke="black" points="273.054,-140.991 276.554,-150.991 280.054,-140.991 273.054,-140.991"/>
</g>
<!-- PagerComponent  -->
<g id="node4" class="node"><title>PagerComponent </title>
<polygon fill="#fb8072" stroke="black" points="306.205,-252 189.795,-252 189.795,-216 306.205,-216 306.205,-252"/>
<text text-anchor="middle" x="248" y="-229.8" font-family="Times,serif" font-size="14.00">PagerComponent </text>
</g>
<!-- PagerModule&#45;&gt;PagerComponent  -->
<g id="edge3" class="edge"><title>PagerModule&#45;&gt;PagerComponent </title>
<path fill="none" stroke="black" stroke-dasharray="5,2" d="M248,-187.106C248,-187.106 248,-205.991 248,-205.991"/>
<polygon fill="black" stroke="black" points="244.5,-205.991 248,-215.991 251.5,-205.991 244.5,-205.991"/>
</g>
<!-- CommonModule -->
<g id="node3" class="node"><title>CommonModule</title>
<polygon fill="#8dd3c7" stroke="black" points="234.668,-122 231.668,-126 210.668,-126 207.668,-122 123.332,-122 123.332,-86 234.668,-86 234.668,-122"/>
<text text-anchor="middle" x="179" y="-99.8" font-family="Times,serif" font-size="14.00">CommonModule</text>
</g>
<!-- CommonModule&#45;&gt;PagerModule -->
<g id="edge2" class="edge"><title>CommonModule&#45;&gt;PagerModule</title>
<path fill="none" stroke="black" d="M218.561,-122.106C218.561,-122.106 218.561,-140.991 218.561,-140.991"/>
<polygon fill="black" stroke="black" points="215.061,-140.991 218.561,-150.991 222.061,-140.991 215.061,-140.991"/>
</g>
</g>
</svg>
