<?xml version="1.0" encoding="UTF-8" standalone="no"?>
<!DOCTYPE svg PUBLIC "-//W3C//DTD SVG 1.1//EN"
 "http://www.w3.org/Graphics/SVG/1.1/DTD/svg11.dtd">
<!-- Generated by graphviz version 2.38.0 (20140413.2041)
 -->
<!-- Title: dependencies Pages: 1 -->
<svg width="525pt" height="211pt"
 viewBox="0.00 0.00 525.00 211.00" xmlns="http://www.w3.org/2000/svg" xmlns:xlink="http://www.w3.org/1999/xlink">
<g id="graph0" class="graph" transform="scale(1 1) rotate(0) translate(4 207)">
<title>dependencies</title>
<polygon fill="white" stroke="none" points="-4,4 -4,-207 521,-207 521,4 -4,4"/>
<text text-anchor="start" x="237.509" y="-42.4" font-family="sans-serif" font-weight="bold" font-size="14.00">Legend</text>
<polygon fill="#ffffb3" stroke="none" points="24.5,-10 24.5,-30 44.5,-30 44.5,-10 24.5,-10"/>
<text text-anchor="start" x="48.129" y="-15.4" font-family="sans-serif" font-size="14.00"> &#160;Declarations</text>
<polygon fill="#8dd3c7" stroke="none" points="137.5,-10 137.5,-30 157.5,-30 157.5,-10 137.5,-10"/>
<text text-anchor="start" x="161.225" y="-15.4" font-family="sans-serif" font-size="14.00"> &#160;Module</text>
<polygon fill="#80b1d3" stroke="none" points="223.5,-10 223.5,-30 243.5,-30 243.5,-10 223.5,-10"/>
<text text-anchor="start" x="247.281" y="-15.4" font-family="sans-serif" font-size="14.00"> &#160;Bootstrap</text>
<polygon fill="#fdb462" stroke="none" points="320.5,-10 320.5,-30 340.5,-30 340.5,-10 320.5,-10"/>
<text text-anchor="start" x="344.173" y="-15.4" font-family="sans-serif" font-size="14.00"> &#160;Providers</text>
<polygon fill="#fb8072" stroke="none" points="416.5,-10 416.5,-30 436.5,-30 436.5,-10 416.5,-10"/>
<text text-anchor="start" x="440.226" y="-15.4" font-family="sans-serif" font-size="14.00"> &#160;Exports</text>
<g id="clust1" class="cluster"><title>cluster_DialogModule</title>
<polygon fill="none" stroke="black" stroke-dasharray="1,5" points="8,-70 8,-195 509,-195 509,-70 8,-70"/>
</g>
<g id="clust2" class="cluster"><title>cluster_DialogModule_declarations</title>
<polygon fill="none" stroke="black" points="152,-78 152,-130 501,-130 501,-78 152,-78"/>
</g>
<g id="clust5" class="cluster"><title>cluster_DialogModule_imports</title>
<polygon fill="none" stroke="black" points="16,-78 16,-130 144,-130 144,-78 16,-78"/>
</g>
<!-- AlertDialogComponent -->
<g id="node1" class="node"><title>AlertDialogComponent</title>
<polygon fill="#ffffb3" stroke="black" points="493.198,-122 344.802,-122 344.802,-86 493.198,-86 493.198,-122"/>
<text text-anchor="middle" x="419" y="-99.8" font-family="Times,serif" font-size="14.00">AlertDialogComponent</text>
</g>
<!-- DialogModule -->
<g id="node3" class="node"><title>DialogModule</title>
<polygon fill="#8dd3c7" stroke="black" points="291.653,-187 288.653,-191 267.653,-191 264.653,-187 194.347,-187 194.347,-151 291.653,-151 291.653,-187"/>
<text text-anchor="middle" x="243" y="-164.8" font-family="Times,serif" font-size="14.00">DialogModule</text>
</g>
<!-- AlertDialogComponent&#45;&gt;DialogModule -->
<g id="edge1" class="edge"><title>AlertDialogComponent&#45;&gt;DialogModule</title>
<path fill="none" stroke="black" d="M419,-122.106C419,-141.339 419,-169 419,-169 419,-169 302.026,-169 302.026,-169"/>
<polygon fill="black" stroke="black" points="302.026,-165.5 292.026,-169 302.026,-172.5 302.026,-165.5"/>
</g>
<!-- ConfirmDialogComponent -->
<g id="node2" class="node"><title>ConfirmDialogComponent</title>
<polygon fill="#ffffb3" stroke="black" points="326.374,-122 159.626,-122 159.626,-86 326.374,-86 326.374,-122"/>
<text text-anchor="middle" x="243" y="-99.8" font-family="Times,serif" font-size="14.00">ConfirmDialogComponent</text>
</g>
<!-- ConfirmDialogComponent&#45;&gt;DialogModule -->
<g id="edge2" class="edge"><title>ConfirmDialogComponent&#45;&gt;DialogModule</title>
<path fill="none" stroke="black" d="M243,-122.106C243,-122.106 243,-140.991 243,-140.991"/>
<polygon fill="black" stroke="black" points="239.5,-140.991 243,-150.991 246.5,-140.991 239.5,-140.991"/>
</g>
<!-- CommonModule -->
<g id="node4" class="node"><title>CommonModule</title>
<polygon fill="#8dd3c7" stroke="black" points="135.668,-122 132.668,-126 111.668,-126 108.668,-122 24.3319,-122 24.3319,-86 135.668,-86 135.668,-122"/>
<text text-anchor="middle" x="80" y="-99.8" font-family="Times,serif" font-size="14.00">CommonModule</text>
</g>
<!-- CommonModule&#45;&gt;DialogModule -->
<g id="edge3" class="edge"><title>CommonModule&#45;&gt;DialogModule</title>
<path fill="none" stroke="black" d="M80,-122.106C80,-141.339 80,-169 80,-169 80,-169 184.095,-169 184.095,-169"/>
<polygon fill="black" stroke="black" points="184.095,-172.5 194.095,-169 184.095,-165.5 184.095,-172.5"/>
</g>
</g>
</svg>
