<?xml version="1.0" encoding="UTF-8" standalone="no"?>
<!DOCTYPE svg PUBLIC "-//W3C//DTD SVG 1.1//EN"
 "http://www.w3.org/Graphics/SVG/1.1/DTD/svg11.dtd">
<!-- Generated by graphviz version 2.40.1 (20161225.0304)
 -->
<!-- Title: dependencies Pages: 1 -->
<svg width="504pt" height="211pt"
 viewBox="0.00 0.00 504.00 211.00" xmlns="http://www.w3.org/2000/svg" xmlns:xlink="http://www.w3.org/1999/xlink">
<g id="graph0" class="graph" transform="scale(1 1) rotate(0) translate(4 207)">
<title>dependencies</title>
<polygon fill="#ffffff" stroke="transparent" points="-4,4 -4,-207 500,-207 500,4 -4,4"/>
<text text-anchor="start" x="227.0091" y="-42.4" font-family="sans-serif" font-weight="bold" font-size="14.00" fill="#000000">Legend</text>
<polygon fill="#ffffb3" stroke="transparent" points="14,-10 14,-30 34,-30 34,-10 14,-10"/>
<text text-anchor="start" x="37.629" y="-15.4" font-family="sans-serif" font-size="14.00" fill="#000000"> &#160;Declarations</text>
<polygon fill="#8dd3c7" stroke="transparent" points="127,-10 127,-30 147,-30 147,-10 127,-10"/>
<text text-anchor="start" x="150.7251" y="-15.4" font-family="sans-serif" font-size="14.00" fill="#000000"> &#160;Module</text>
<polygon fill="#80b1d3" stroke="transparent" points="213,-10 213,-30 233,-30 233,-10 213,-10"/>
<text text-anchor="start" x="236.7812" y="-15.4" font-family="sans-serif" font-size="14.00" fill="#000000"> &#160;Bootstrap</text>
<polygon fill="#fdb462" stroke="transparent" points="310,-10 310,-30 330,-30 330,-10 310,-10"/>
<text text-anchor="start" x="333.6732" y="-15.4" font-family="sans-serif" font-size="14.00" fill="#000000"> &#160;Providers</text>
<polygon fill="#fb8072" stroke="transparent" points="406,-10 406,-30 426,-30 426,-10 406,-10"/>
<text text-anchor="start" x="429.7258" y="-15.4" font-family="sans-serif" font-size="14.00" fill="#000000"> &#160;Exports</text>
<g id="clust1" class="cluster">
<title>cluster_DialogModule</title>
<polygon fill="none" stroke="#000000" stroke-dasharray="1,5" points="90,-70 90,-195 406,-195 406,-70 90,-70"/>
</g>
<g id="clust3" class="cluster">
<title>cluster_DialogModule_imports</title>
<polygon fill="none" stroke="#000000" points="98,-78 98,-130 398,-130 398,-78 98,-78"/>
</g>
<!-- CommonModule -->
<g id="node1" class="node">
<title>CommonModule</title>
<polygon fill="#8dd3c7" stroke="#000000" points="389.6681,-122 386.6681,-126 365.6681,-126 362.6681,-122 278.3319,-122 278.3319,-86 389.6681,-86 389.6681,-122"/>
<text text-anchor="middle" x="334" y="-99.8" font-family="Times,serif" font-size="14.00" fill="#000000">CommonModule</text>
</g>
<!-- DialogModule -->
<g id="node3" class="node">
<title>DialogModule</title>
<polygon fill="#8dd3c7" stroke="#000000" points="306.6528,-187 303.6528,-191 282.6528,-191 279.6528,-187 209.3472,-187 209.3472,-151 306.6528,-151 306.6528,-187"/>
<text text-anchor="middle" x="258" y="-164.8" font-family="Times,serif" font-size="14.00" fill="#000000">DialogModule</text>
</g>
<!-- CommonModule&#45;&gt;DialogModule -->
<g id="edge1" class="edge">
<title>CommonModule&#45;&gt;DialogModule</title>
<path fill="none" stroke="#000000" d="M292.4962,-122.1061C292.4962,-122.1061 292.4962,-140.991 292.4962,-140.991"/>
<polygon fill="#000000" stroke="#000000" points="288.9962,-140.9909 292.4962,-150.991 295.9962,-140.991 288.9962,-140.9909"/>
</g>
<!-- RebirthCommonModule -->
<g id="node2" class="node">
<title>RebirthCommonModule</title>
<polygon fill="#8dd3c7" stroke="#000000" points="259.661,-122 256.661,-126 235.661,-126 232.661,-122 106.339,-122 106.339,-86 259.661,-86 259.661,-122"/>
<text text-anchor="middle" x="183" y="-99.8" font-family="Times,serif" font-size="14.00" fill="#000000">RebirthCommonModule</text>
</g>
<!-- RebirthCommonModule&#45;&gt;DialogModule -->
<g id="edge2" class="edge">
<title>RebirthCommonModule&#45;&gt;DialogModule</title>
<path fill="none" stroke="#000000" d="M234.5021,-122.1061C234.5021,-122.1061 234.5021,-140.991 234.5021,-140.991"/>
<polygon fill="#000000" stroke="#000000" points="231.0022,-140.9909 234.5021,-150.991 238.0022,-140.991 231.0022,-140.9909"/>
</g>
</g>
</svg>
