<?xml version="1.0" encoding="UTF-8" standalone="no"?>
<!DOCTYPE svg PUBLIC "-//W3C//DTD SVG 1.1//EN"
 "http://www.w3.org/Graphics/SVG/1.1/DTD/svg11.dtd">
<!-- Generated by graphviz version 2.40.1 (20161225.0304)
 -->
<!-- Title: dependencies Pages: 1 -->
<svg width="746pt" height="211pt"
 viewBox="0.00 0.00 746.00 211.00" xmlns="http://www.w3.org/2000/svg" xmlns:xlink="http://www.w3.org/1999/xlink">
<g id="graph0" class="graph" transform="scale(1 1) rotate(0) translate(4 207)">
<title>dependencies</title>
<polygon fill="#ffffff" stroke="transparent" points="-4,4 -4,-207 742,-207 742,4 -4,4"/>
<text text-anchor="start" x="348.0091" y="-42.4" font-family="sans-serif" font-weight="bold" font-size="14.00" fill="#000000">Legend</text>
<polygon fill="#ffffb3" stroke="transparent" points="135,-10 135,-30 155,-30 155,-10 135,-10"/>
<text text-anchor="start" x="158.629" y="-15.4" font-family="sans-serif" font-size="14.00" fill="#000000"> &#160;Declarations</text>
<polygon fill="#8dd3c7" stroke="transparent" points="248,-10 248,-30 268,-30 268,-10 248,-10"/>
<text text-anchor="start" x="271.7251" y="-15.4" font-family="sans-serif" font-size="14.00" fill="#000000"> &#160;Module</text>
<polygon fill="#80b1d3" stroke="transparent" points="334,-10 334,-30 354,-30 354,-10 334,-10"/>
<text text-anchor="start" x="357.7812" y="-15.4" font-family="sans-serif" font-size="14.00" fill="#000000"> &#160;Bootstrap</text>
<polygon fill="#fdb462" stroke="transparent" points="431,-10 431,-30 451,-30 451,-10 431,-10"/>
<text text-anchor="start" x="454.6732" y="-15.4" font-family="sans-serif" font-size="14.00" fill="#000000"> &#160;Providers</text>
<polygon fill="#fb8072" stroke="transparent" points="527,-10 527,-30 547,-30 547,-10 527,-10"/>
<text text-anchor="start" x="550.7258" y="-15.4" font-family="sans-serif" font-size="14.00" fill="#000000"> &#160;Exports</text>
<g id="clust1" class="cluster">
<title>cluster_DialogModule</title>
<polygon fill="none" stroke="#000000" stroke-dasharray="1,5" points="8,-70 8,-195 730,-195 730,-70 8,-70"/>
</g>
<g id="clust2" class="cluster">
<title>cluster_DialogModule_declarations</title>
<polygon fill="none" stroke="#000000" points="194,-78 194,-130 722,-130 722,-78 194,-78"/>
</g>
<g id="clust6" class="cluster">
<title>cluster_DialogModule_imports</title>
<polygon fill="none" stroke="#000000" points="16,-78 16,-130 186,-130 186,-78 16,-78"/>
</g>
<!-- AlertDialogComponent -->
<g id="node1" class="node">
<title>AlertDialogComponent</title>
<polygon fill="#ffffb3" stroke="#000000" points="714.1979,-122 565.8021,-122 565.8021,-86 714.1979,-86 714.1979,-122"/>
<text text-anchor="middle" x="640" y="-99.8" font-family="Times,serif" font-size="14.00" fill="#000000">AlertDialogComponent</text>
</g>
<!-- DialogModule -->
<g id="node4" class="node">
<title>DialogModule</title>
<polygon fill="#8dd3c7" stroke="#000000" points="421.6528,-187 418.6528,-191 397.6528,-191 394.6528,-187 324.3472,-187 324.3472,-151 421.6528,-151 421.6528,-187"/>
<text text-anchor="middle" x="373" y="-164.8" font-family="Times,serif" font-size="14.00" fill="#000000">DialogModule</text>
</g>
<!-- AlertDialogComponent&#45;&gt;DialogModule -->
<g id="edge1" class="edge">
<title>AlertDialogComponent&#45;&gt;DialogModule</title>
<path fill="none" stroke="#000000" d="M640,-122.1061C640,-141.3391 640,-169 640,-169 640,-169 431.6615,-169 431.6615,-169"/>
<polygon fill="#000000" stroke="#000000" points="431.6615,-165.5001 421.6615,-169 431.6614,-172.5001 431.6615,-165.5001"/>
</g>
<!-- ConfirmDialogComponent -->
<g id="node2" class="node">
<title>ConfirmDialogComponent</title>
<polygon fill="#ffffb3" stroke="#000000" points="547.3738,-122 380.6262,-122 380.6262,-86 547.3738,-86 547.3738,-122"/>
<text text-anchor="middle" x="464" y="-99.8" font-family="Times,serif" font-size="14.00" fill="#000000">ConfirmDialogComponent</text>
</g>
<!-- ConfirmDialogComponent&#45;&gt;DialogModule -->
<g id="edge2" class="edge">
<title>ConfirmDialogComponent&#45;&gt;DialogModule</title>
<path fill="none" stroke="#000000" d="M401.1946,-122.1061C401.1946,-122.1061 401.1946,-140.991 401.1946,-140.991"/>
<polygon fill="#000000" stroke="#000000" points="397.6947,-140.9909 401.1946,-150.991 404.6947,-140.991 397.6947,-140.9909"/>
</g>
<!-- PromptDialogComponent -->
<g id="node3" class="node">
<title>PromptDialogComponent</title>
<polygon fill="#ffffb3" stroke="#000000" points="362.1596,-122 201.8404,-122 201.8404,-86 362.1596,-86 362.1596,-122"/>
<text text-anchor="middle" x="282" y="-99.8" font-family="Times,serif" font-size="14.00" fill="#000000">PromptDialogComponent</text>
</g>
<!-- PromptDialogComponent&#45;&gt;DialogModule -->
<g id="edge3" class="edge">
<title>PromptDialogComponent&#45;&gt;DialogModule</title>
<path fill="none" stroke="#000000" d="M343.2518,-122.1061C343.2518,-122.1061 343.2518,-140.991 343.2518,-140.991"/>
<polygon fill="#000000" stroke="#000000" points="339.7518,-140.9909 343.2518,-150.991 346.7518,-140.991 339.7518,-140.9909"/>
</g>
<!-- RebirthCommonModule -->
<g id="node5" class="node">
<title>RebirthCommonModule</title>
<polygon fill="#8dd3c7" stroke="#000000" points="177.661,-122 174.661,-126 153.661,-126 150.661,-122 24.339,-122 24.339,-86 177.661,-86 177.661,-122"/>
<text text-anchor="middle" x="101" y="-99.8" font-family="Times,serif" font-size="14.00" fill="#000000">RebirthCommonModule</text>
</g>
<!-- RebirthCommonModule&#45;&gt;DialogModule -->
<g id="edge4" class="edge">
<title>RebirthCommonModule&#45;&gt;DialogModule</title>
<path fill="none" stroke="#000000" d="M101,-122.1061C101,-141.3391 101,-169 101,-169 101,-169 314.0577,-169 314.0577,-169"/>
<polygon fill="#000000" stroke="#000000" points="314.0577,-172.5001 324.0577,-169 314.0577,-165.5001 314.0577,-172.5001"/>
</g>
</g>
</svg>
