<?xml version="1.0" encoding="UTF-8" standalone="no"?>
<!DOCTYPE svg PUBLIC "-//W3C//DTD SVG 1.1//EN"
 "http://www.w3.org/Graphics/SVG/1.1/DTD/svg11.dtd">
<!-- Generated by graphviz version 2.40.1 (20161225.0304)
 -->
<!-- Title: dependencies Pages: 1 -->
<svg width="558pt" height="349pt"
 viewBox="0.00 0.00 558.00 349.00" xmlns="http://www.w3.org/2000/svg" xmlns:xlink="http://www.w3.org/1999/xlink">
<g id="graph0" class="graph" transform="scale(1 1) rotate(0) translate(4 345)">
<title>dependencies</title>
<polygon fill="#ffffff" stroke="transparent" points="-4,4 -4,-345 554,-345 554,4 -4,4"/>
<text text-anchor="start" x="254.0091" y="-42.4" font-family="sans-serif" font-weight="bold" font-size="14.00" fill="#000000">Legend</text>
<polygon fill="#ffffb3" stroke="transparent" points="41,-10 41,-30 61,-30 61,-10 41,-10"/>
<text text-anchor="start" x="64.629" y="-15.4" font-family="sans-serif" font-size="14.00" fill="#000000"> &#160;Declarations</text>
<polygon fill="#8dd3c7" stroke="transparent" points="154,-10 154,-30 174,-30 174,-10 154,-10"/>
<text text-anchor="start" x="177.7251" y="-15.4" font-family="sans-serif" font-size="14.00" fill="#000000"> &#160;Module</text>
<polygon fill="#80b1d3" stroke="transparent" points="240,-10 240,-30 260,-30 260,-10 240,-10"/>
<text text-anchor="start" x="263.7812" y="-15.4" font-family="sans-serif" font-size="14.00" fill="#000000"> &#160;Bootstrap</text>
<polygon fill="#fdb462" stroke="transparent" points="337,-10 337,-30 357,-30 357,-10 337,-10"/>
<text text-anchor="start" x="360.6732" y="-15.4" font-family="sans-serif" font-size="14.00" fill="#000000"> &#160;Providers</text>
<polygon fill="#fb8072" stroke="transparent" points="433,-10 433,-30 453,-30 453,-10 433,-10"/>
<text text-anchor="start" x="456.7258" y="-15.4" font-family="sans-serif" font-size="14.00" fill="#000000"> &#160;Exports</text>
<g id="clust1" class="cluster">
<title>cluster_TimePickerModule</title>
<polygon fill="none" stroke="#000000" stroke-dasharray="1,5" points="8,-70 8,-333 542,-333 542,-70 8,-70"/>
</g>
<g id="clust2" class="cluster">
<title>cluster_TimePickerModule_declarations</title>
<polygon fill="none" stroke="#000000" points="194,-143 194,-195 356,-195 356,-143 194,-143"/>
</g>
<g id="clust3" class="cluster">
<title>cluster_TimePickerModule_TimePickerComponent_providers</title>
<polygon fill="none" stroke="#000000" points="16,-78 16,-130 534,-130 534,-78 16,-78"/>
</g>
<g id="clust5" class="cluster">
<title>cluster_TimePickerModule_exports</title>
<polygon fill="none" stroke="#000000" points="192,-273 192,-325 358,-325 358,-273 192,-273"/>
</g>
<!-- TimePickerComponent -->
<g id="node1" class="node">
<title>TimePickerComponent</title>
<polygon fill="#ffffb3" stroke="#000000" points="348.1442,-187 201.8558,-187 201.8558,-151 348.1442,-151 348.1442,-187"/>
<text text-anchor="middle" x="275" y="-164.8" font-family="Times,serif" font-size="14.00" fill="#000000">TimePickerComponent</text>
</g>
<!-- TimePickerModule -->
<g id="node2" class="node">
<title>TimePickerModule</title>
<polygon fill="#8dd3c7" stroke="#000000" points="337.3613,-252 334.3613,-256 313.3613,-256 310.3613,-252 212.6387,-252 212.6387,-216 337.3613,-216 337.3613,-252"/>
<text text-anchor="middle" x="275" y="-229.8" font-family="Times,serif" font-size="14.00" fill="#000000">TimePickerModule</text>
</g>
<!-- TimePickerComponent&#45;&gt;TimePickerModule -->
<g id="edge1" class="edge">
<title>TimePickerComponent&#45;&gt;TimePickerModule</title>
<path fill="none" stroke="#000000" d="M275,-187.1061C275,-187.1061 275,-205.991 275,-205.991"/>
<polygon fill="#000000" stroke="#000000" points="271.5001,-205.9909 275,-215.991 278.5001,-205.991 271.5001,-205.9909"/>
</g>
<!-- TimePickerComponent  -->
<g id="node4" class="node">
<title>TimePickerComponent </title>
<polygon fill="#fb8072" stroke="#000000" points="350.1439,-317 199.8561,-317 199.8561,-281 350.1439,-281 350.1439,-317"/>
<text text-anchor="middle" x="275" y="-294.8" font-family="Times,serif" font-size="14.00" fill="#000000">TimePickerComponent </text>
</g>
<!-- TimePickerModule&#45;&gt;TimePickerComponent  -->
<g id="edge3" class="edge">
<title>TimePickerModule&#45;&gt;TimePickerComponent </title>
<path fill="none" stroke="#000000" stroke-dasharray="5,2" d="M275,-252.1061C275,-252.1061 275,-270.991 275,-270.991"/>
<polygon fill="#000000" stroke="#000000" points="271.5001,-270.9909 275,-280.991 278.5001,-270.991 271.5001,-270.9909"/>
</g>
<!-- { provide: NG_VALUE_ACCESSOR, useExisting: , multi: &#160;} -->
<g id="node3" class="node">
<title>{ provide: NG_VALUE_ACCESSOR, useExisting: , multi: &#160;}</title>
<ellipse fill="#fdb462" stroke="#000000" cx="275" cy="-104" rx="251.4985" ry="18"/>
<text text-anchor="middle" x="275" y="-99.8" font-family="Times,serif" font-size="14.00" fill="#000000">{ provide: NG_VALUE_ACCESSOR, useExisting: , multi: &#160;}</text>
</g>
<!-- { provide: NG_VALUE_ACCESSOR, useExisting: , multi: &#160;}&#45;&gt;TimePickerComponent -->
<g id="edge2" class="edge">
<title>{ provide: NG_VALUE_ACCESSOR, useExisting: , multi: &#160;}&#45;&gt;TimePickerComponent</title>
<path fill="none" stroke="#000000" d="M275,-122.1061C275,-122.1061 275,-140.991 275,-140.991"/>
<polygon fill="#000000" stroke="#000000" points="271.5001,-140.9909 275,-150.991 278.5001,-140.991 271.5001,-140.9909"/>
</g>
</g>
</svg>
