<?xml version="1.0" encoding="UTF-8" standalone="no"?>
<!DOCTYPE svg PUBLIC "-//W3C//DTD SVG 1.1//EN"
 "http://www.w3.org/Graphics/SVG/1.1/DTD/svg11.dtd">
<!-- Generated by graphviz version 2.40.1 (20161225.0304)
 -->
<!-- Title: dependencies Pages: 1 -->
<svg width="1050pt" height="284pt"
 viewBox="0.00 0.00 1050.00 284.00" xmlns="http://www.w3.org/2000/svg" xmlns:xlink="http://www.w3.org/1999/xlink">
<g id="graph0" class="graph" transform="scale(1 1) rotate(0) translate(4 280)">
<title>dependencies</title>
<polygon fill="#ffffff" stroke="transparent" points="-4,4 -4,-280 1046,-280 1046,4 -4,4"/>
<text text-anchor="start" x="500.0091" y="-42.4" font-family="sans-serif" font-weight="bold" font-size="14.00" fill="#000000">Legend</text>
<polygon fill="#ffffb3" stroke="transparent" points="287,-10 287,-30 307,-30 307,-10 287,-10"/>
<text text-anchor="start" x="310.629" y="-15.4" font-family="sans-serif" font-size="14.00" fill="#000000"> &#160;Declarations</text>
<polygon fill="#8dd3c7" stroke="transparent" points="400,-10 400,-30 420,-30 420,-10 400,-10"/>
<text text-anchor="start" x="423.7251" y="-15.4" font-family="sans-serif" font-size="14.00" fill="#000000"> &#160;Module</text>
<polygon fill="#80b1d3" stroke="transparent" points="486,-10 486,-30 506,-30 506,-10 486,-10"/>
<text text-anchor="start" x="509.7812" y="-15.4" font-family="sans-serif" font-size="14.00" fill="#000000"> &#160;Bootstrap</text>
<polygon fill="#fdb462" stroke="transparent" points="583,-10 583,-30 603,-30 603,-10 583,-10"/>
<text text-anchor="start" x="606.6732" y="-15.4" font-family="sans-serif" font-size="14.00" fill="#000000"> &#160;Providers</text>
<polygon fill="#fb8072" stroke="transparent" points="679,-10 679,-30 699,-30 699,-10 679,-10"/>
<text text-anchor="start" x="702.7258" y="-15.4" font-family="sans-serif" font-size="14.00" fill="#000000"> &#160;Exports</text>
<g id="clust1" class="cluster">
<title>cluster_FileUploadModule</title>
<polygon fill="none" stroke="#000000" stroke-dasharray="1,5" points="8,-70 8,-268 1034,-268 1034,-70 8,-70"/>
</g>
<g id="clust3" class="cluster">
<title>cluster_FileUploadModule_imports</title>
<polygon fill="none" stroke="#000000" points="282,-78 282,-130 778,-130 778,-78 282,-78"/>
</g>
<g id="clust4" class="cluster">
<title>cluster_FileUploadModule_exports</title>
<polygon fill="none" stroke="#000000" points="16,-208 16,-260 1026,-260 1026,-208 16,-208"/>
</g>
<!-- CommonModule -->
<g id="node1" class="node">
<title>CommonModule</title>
<polygon fill="#8dd3c7" stroke="#000000" points="769.6681,-122 766.6681,-126 745.6681,-126 742.6681,-122 658.3319,-122 658.3319,-86 769.6681,-86 769.6681,-122"/>
<text text-anchor="middle" x="714" y="-99.8" font-family="Times,serif" font-size="14.00" fill="#000000">CommonModule</text>
</g>
<!-- FileUploadModule -->
<g id="node5" class="node">
<title>FileUploadModule</title>
<polygon fill="#8dd3c7" stroke="#000000" points="601.0409,-187 598.0409,-191 577.0409,-191 574.0409,-187 478.9591,-187 478.9591,-151 601.0409,-151 601.0409,-187"/>
<text text-anchor="middle" x="540" y="-164.8" font-family="Times,serif" font-size="14.00" fill="#000000">FileUploadModule</text>
</g>
<!-- CommonModule&#45;&gt;FileUploadModule -->
<g id="edge1" class="edge">
<title>CommonModule&#45;&gt;FileUploadModule</title>
<path fill="none" stroke="#000000" d="M732.6113,-122.027C732.6113,-138.3976 732.6113,-160 732.6113,-160 732.6113,-160 611.2081,-160 611.2081,-160"/>
<polygon fill="#000000" stroke="#000000" points="611.2081,-156.5001 601.2081,-160 611.208,-163.5001 611.2081,-156.5001"/>
</g>
<!-- HttpModule -->
<g id="node2" class="node">
<title>HttpModule</title>
<polygon fill="#8dd3c7" stroke="#000000" points="640.4387,-122 637.4387,-126 616.4387,-126 613.4387,-122 555.5613,-122 555.5613,-86 640.4387,-86 640.4387,-122"/>
<text text-anchor="middle" x="598" y="-99.8" font-family="Times,serif" font-size="14.00" fill="#000000">HttpModule</text>
</g>
<!-- HttpModule&#45;&gt;FileUploadModule -->
<g id="edge2" class="edge">
<title>HttpModule&#45;&gt;FileUploadModule</title>
<path fill="none" stroke="#000000" d="M578.5256,-122.1061C578.5256,-122.1061 578.5256,-140.991 578.5256,-140.991"/>
<polygon fill="#000000" stroke="#000000" points="575.0257,-140.9909 578.5256,-150.991 582.0257,-140.991 575.0257,-140.9909"/>
</g>
<!-- AlertBoxModule -->
<g id="node3" class="node">
<title>AlertBoxModule</title>
<polygon fill="#8dd3c7" stroke="#000000" points="537.6499,-122 534.6499,-126 513.6499,-126 510.6499,-122 426.3501,-122 426.3501,-86 537.6499,-86 537.6499,-122"/>
<text text-anchor="middle" x="482" y="-99.8" font-family="Times,serif" font-size="14.00" fill="#000000">AlertBoxModule</text>
</g>
<!-- AlertBoxModule&#45;&gt;FileUploadModule -->
<g id="edge3" class="edge">
<title>AlertBoxModule&#45;&gt;FileUploadModule</title>
<path fill="none" stroke="#000000" d="M508.2774,-122.1061C508.2774,-122.1061 508.2774,-140.991 508.2774,-140.991"/>
<polygon fill="#000000" stroke="#000000" points="504.7774,-140.9909 508.2774,-150.991 511.7774,-140.991 504.7774,-140.9909"/>
</g>
<!-- DraggableModule -->
<g id="node4" class="node">
<title>DraggableModule</title>
<polygon fill="#8dd3c7" stroke="#000000" points="407.8515,-122 404.8515,-126 383.8515,-126 380.8515,-122 290.1485,-122 290.1485,-86 407.8515,-86 407.8515,-122"/>
<text text-anchor="middle" x="349" y="-99.8" font-family="Times,serif" font-size="14.00" fill="#000000">DraggableModule</text>
</g>
<!-- DraggableModule&#45;&gt;FileUploadModule -->
<g id="edge4" class="edge">
<title>DraggableModule&#45;&gt;FileUploadModule</title>
<path fill="none" stroke="#000000" d="M349,-122.027C349,-138.3976 349,-160 349,-160 349,-160 468.7783,-160 468.7783,-160"/>
<polygon fill="#000000" stroke="#000000" points="468.7783,-163.5001 478.7783,-160 468.7783,-156.5001 468.7783,-163.5001"/>
</g>
<!-- FileUploadComponent  -->
<g id="node6" class="node">
<title>FileUploadComponent </title>
<polygon fill="#fb8072" stroke="#000000" points="1017.8227,-252 870.1773,-252 870.1773,-216 1017.8227,-216 1017.8227,-252"/>
<text text-anchor="middle" x="944" y="-229.8" font-family="Times,serif" font-size="14.00" fill="#000000">FileUploadComponent </text>
</g>
<!-- FileUploadModule&#45;&gt;FileUploadComponent  -->
<g id="edge5" class="edge">
<title>FileUploadModule&#45;&gt;FileUploadComponent </title>
<path fill="none" stroke="#000000" stroke-dasharray="5,2" d="M601.3589,-169C714.3766,-169 944,-169 944,-169 944,-169 944,-205.8939 944,-205.8939"/>
<polygon fill="#000000" stroke="#000000" points="940.5001,-205.8938 944,-215.8939 947.5001,-205.8939 940.5001,-205.8938"/>
</g>
<!-- FileUploadPreviewComponent  -->
<g id="node7" class="node">
<title>FileUploadPreviewComponent </title>
<polygon fill="#fb8072" stroke="#000000" points="851.6924,-252 658.3076,-252 658.3076,-216 851.6924,-216 851.6924,-252"/>
<text text-anchor="middle" x="755" y="-229.8" font-family="Times,serif" font-size="14.00" fill="#000000">FileUploadPreviewComponent </text>
</g>
<!-- FileUploadModule&#45;&gt;FileUploadPreviewComponent  -->
<g id="edge6" class="edge">
<title>FileUploadModule&#45;&gt;FileUploadPreviewComponent </title>
<path fill="none" stroke="#000000" stroke-dasharray="5,2" d="M601.4137,-178C644.8476,-178 695.3887,-178 695.3887,-178 695.3887,-178 695.3887,-205.973 695.3887,-205.973"/>
<polygon fill="#000000" stroke="#000000" points="691.8888,-205.973 695.3887,-215.973 698.8888,-205.973 691.8888,-205.973"/>
</g>
<!-- UploadToolbarTmplComponent  -->
<g id="node8" class="node">
<title>UploadToolbarTmplComponent </title>
<polygon fill="#fb8072" stroke="#000000" points="640.1966,-252 439.8034,-252 439.8034,-216 640.1966,-216 640.1966,-252"/>
<text text-anchor="middle" x="540" y="-229.8" font-family="Times,serif" font-size="14.00" fill="#000000">UploadToolbarTmplComponent </text>
</g>
<!-- FileUploadModule&#45;&gt;UploadToolbarTmplComponent  -->
<g id="edge7" class="edge">
<title>FileUploadModule&#45;&gt;UploadToolbarTmplComponent </title>
<path fill="none" stroke="#000000" stroke-dasharray="5,2" d="M540,-187.1061C540,-187.1061 540,-205.991 540,-205.991"/>
<polygon fill="#000000" stroke="#000000" points="536.5001,-205.9909 540,-215.991 543.5001,-205.991 536.5001,-205.9909"/>
</g>
<!-- UploadPreviewTmplComponent  -->
<g id="node9" class="node">
<title>UploadPreviewTmplComponent </title>
<polygon fill="#fb8072" stroke="#000000" points="422.2478,-252 219.7522,-252 219.7522,-216 422.2478,-216 422.2478,-252"/>
<text text-anchor="middle" x="321" y="-229.8" font-family="Times,serif" font-size="14.00" fill="#000000">UploadPreviewTmplComponent </text>
</g>
<!-- FileUploadModule&#45;&gt;UploadPreviewTmplComponent  -->
<g id="edge8" class="edge">
<title>FileUploadModule&#45;&gt;UploadPreviewTmplComponent </title>
<path fill="none" stroke="#000000" stroke-dasharray="5,2" d="M478.6107,-178C447.0051,-178 415.0248,-178 415.0248,-178 415.0248,-178 415.0248,-205.973 415.0248,-205.973"/>
<polygon fill="#000000" stroke="#000000" points="411.5248,-205.973 415.0248,-215.973 418.5248,-205.973 411.5248,-205.973"/>
</g>
<!-- UploadFileTmplComponent  -->
<g id="node10" class="node">
<title>UploadFileTmplComponent </title>
<polygon fill="#fb8072" stroke="#000000" points="202.1565,-252 23.8435,-252 23.8435,-216 202.1565,-216 202.1565,-252"/>
<text text-anchor="middle" x="113" y="-229.8" font-family="Times,serif" font-size="14.00" fill="#000000">UploadFileTmplComponent </text>
</g>
<!-- FileUploadModule&#45;&gt;UploadFileTmplComponent  -->
<g id="edge9" class="edge">
<title>FileUploadModule&#45;&gt;UploadFileTmplComponent </title>
<path fill="none" stroke="#000000" stroke-dasharray="5,2" d="M478.8213,-169C360.752,-169 113,-169 113,-169 113,-169 113,-205.8939 113,-205.8939"/>
<polygon fill="#000000" stroke="#000000" points="109.5001,-205.8938 113,-215.8939 116.5001,-205.8939 109.5001,-205.8938"/>
</g>
</g>
</svg>
