<?xml version="1.0" encoding="UTF-8" standalone="no"?>
<!DOCTYPE svg PUBLIC "-//W3C//DTD SVG 1.1//EN"
 "http://www.w3.org/Graphics/SVG/1.1/DTD/svg11.dtd">
<!-- Generated by graphviz version 2.38.0 (20140413.2041)
 -->
<!-- Title: dependencies Pages: 1 -->
<svg width="1537pt" height="284pt"
 viewBox="0.00 0.00 1537.00 284.00" xmlns="http://www.w3.org/2000/svg" xmlns:xlink="http://www.w3.org/1999/xlink">
<g id="graph0" class="graph" transform="scale(1 1) rotate(0) translate(4 280)">
<title>dependencies</title>
<polygon fill="white" stroke="none" points="-4,4 -4,-280 1533,-280 1533,4 -4,4"/>
<text text-anchor="start" x="743.509" y="-42.4" font-family="sans-serif" font-weight="bold" font-size="14.00">Legend</text>
<polygon fill="#ffffb3" stroke="none" points="530.5,-10 530.5,-30 550.5,-30 550.5,-10 530.5,-10"/>
<text text-anchor="start" x="554.129" y="-15.4" font-family="sans-serif" font-size="14.00"> &#160;Declarations</text>
<polygon fill="#8dd3c7" stroke="none" points="643.5,-10 643.5,-30 663.5,-30 663.5,-10 643.5,-10"/>
<text text-anchor="start" x="667.225" y="-15.4" font-family="sans-serif" font-size="14.00"> &#160;Module</text>
<polygon fill="#80b1d3" stroke="none" points="729.5,-10 729.5,-30 749.5,-30 749.5,-10 729.5,-10"/>
<text text-anchor="start" x="753.281" y="-15.4" font-family="sans-serif" font-size="14.00"> &#160;Bootstrap</text>
<polygon fill="#fdb462" stroke="none" points="826.5,-10 826.5,-30 846.5,-30 846.5,-10 826.5,-10"/>
<text text-anchor="start" x="850.173" y="-15.4" font-family="sans-serif" font-size="14.00"> &#160;Providers</text>
<polygon fill="#fb8072" stroke="none" points="922.5,-10 922.5,-30 942.5,-30 942.5,-10 922.5,-10"/>
<text text-anchor="start" x="946.226" y="-15.4" font-family="sans-serif" font-size="14.00"> &#160;Exports</text>
<g id="clust1" class="cluster"><title>cluster_FileUploadModule</title>
<polygon fill="none" stroke="black" stroke-dasharray="1,5" points="8,-70 8,-268 1521,-268 1521,-70 8,-70"/>
</g>
<g id="clust2" class="cluster"><title>cluster_FileUploadModule_declarations</title>
<polygon fill="none" stroke="black" points="520,-78 520,-130 1513,-130 1513,-78 520,-78"/>
</g>
<g id="clust8" class="cluster"><title>cluster_FileUploadModule_imports</title>
<polygon fill="none" stroke="black" points="16,-78 16,-130 512,-130 512,-78 16,-78"/>
</g>
<g id="clust9" class="cluster"><title>cluster_FileUploadModule_exports</title>
<polygon fill="none" stroke="black" points="91,-208 91,-260 1101,-260 1101,-208 91,-208"/>
</g>
<!-- FileUploadComponent -->
<g id="node1" class="node"><title>FileUploadComponent</title>
<polygon fill="#ffffb3" stroke="black" points="1505.32,-122 1360.68,-122 1360.68,-86 1505.32,-86 1505.32,-122"/>
<text text-anchor="middle" x="1433" y="-99.8" font-family="Times,serif" font-size="14.00">FileUploadComponent</text>
</g>
<!-- FileUploadModule -->
<g id="node6" class="node"><title>FileUploadModule</title>
<polygon fill="#8dd3c7" stroke="black" points="676.041,-187 673.041,-191 652.041,-191 649.041,-187 553.959,-187 553.959,-151 676.041,-151 676.041,-187"/>
<text text-anchor="middle" x="615" y="-164.8" font-family="Times,serif" font-size="14.00">FileUploadModule</text>
</g>
<!-- FileUploadComponent&#45;&gt;FileUploadModule -->
<g id="edge1" class="edge"><title>FileUploadComponent&#45;&gt;FileUploadModule</title>
<path fill="none" stroke="black" d="M1433,-122.223C1433,-142.365 1433,-172 1433,-172 1433,-172 686.148,-172 686.148,-172"/>
<polygon fill="black" stroke="black" points="686.148,-168.5 676.148,-172 686.148,-175.5 686.148,-168.5"/>
</g>
<!-- FileUploadPreviewComponent -->
<g id="node2" class="node"><title>FileUploadPreviewComponent</title>
<polygon fill="#ffffb3" stroke="black" points="1343.19,-122 1152.81,-122 1152.81,-86 1343.19,-86 1343.19,-122"/>
<text text-anchor="middle" x="1248" y="-99.8" font-family="Times,serif" font-size="14.00">FileUploadPreviewComponent</text>
</g>
<!-- FileUploadPreviewComponent&#45;&gt;FileUploadModule -->
<g id="edge2" class="edge"><title>FileUploadPreviewComponent&#45;&gt;FileUploadModule</title>
<path fill="none" stroke="black" d="M1248,-122.222C1248,-140.829 1248,-167 1248,-167 1248,-167 686.27,-167 686.27,-167"/>
<polygon fill="black" stroke="black" points="686.27,-163.5 676.27,-167 686.27,-170.5 686.27,-163.5"/>
</g>
<!-- UploadToolbarTmplComponent -->
<g id="node3" class="node"><title>UploadToolbarTmplComponent</title>
<polygon fill="#ffffb3" stroke="black" points="1134.7,-122 937.304,-122 937.304,-86 1134.7,-86 1134.7,-122"/>
<text text-anchor="middle" x="1036" y="-99.8" font-family="Times,serif" font-size="14.00">UploadToolbarTmplComponent</text>
</g>
<!-- UploadToolbarTmplComponent&#45;&gt;FileUploadModule -->
<g id="edge3" class="edge"><title>UploadToolbarTmplComponent&#45;&gt;FileUploadModule</title>
<path fill="none" stroke="black" d="M941.245,-122.034C941.245,-139.06 941.245,-162 941.245,-162 941.245,-162 686.364,-162 686.364,-162"/>
<polygon fill="black" stroke="black" points="686.364,-158.5 676.364,-162 686.364,-165.5 686.364,-158.5"/>
</g>
<!-- UploadPreviewTmplComponent -->
<g id="node4" class="node"><title>UploadPreviewTmplComponent</title>
<polygon fill="#ffffb3" stroke="black" points="919.248,-122 720.752,-122 720.752,-86 919.248,-86 919.248,-122"/>
<text text-anchor="middle" x="820" y="-99.8" font-family="Times,serif" font-size="14.00">UploadPreviewTmplComponent</text>
</g>
<!-- UploadPreviewTmplComponent&#45;&gt;FileUploadModule -->
<g id="edge4" class="edge"><title>UploadPreviewTmplComponent&#45;&gt;FileUploadModule</title>
<path fill="none" stroke="black" d="M726.89,-122.24C726.89,-137.571 726.89,-157 726.89,-157 726.89,-157 686.183,-157 686.183,-157"/>
<polygon fill="black" stroke="black" points="686.183,-153.5 676.183,-157 686.183,-160.5 686.183,-153.5"/>
</g>
<!-- UploadFileTmplComponent -->
<g id="node5" class="node"><title>UploadFileTmplComponent</title>
<polygon fill="#ffffb3" stroke="black" points="702.157,-122 527.843,-122 527.843,-86 702.157,-86 702.157,-122"/>
<text text-anchor="middle" x="615" y="-99.8" font-family="Times,serif" font-size="14.00">UploadFileTmplComponent</text>
</g>
<!-- UploadFileTmplComponent&#45;&gt;FileUploadModule -->
<g id="edge5" class="edge"><title>UploadFileTmplComponent&#45;&gt;FileUploadModule</title>
<path fill="none" stroke="black" d="M615,-122.106C615,-122.106 615,-140.991 615,-140.991"/>
<polygon fill="black" stroke="black" points="611.5,-140.991 615,-150.991 618.5,-140.991 611.5,-140.991"/>
</g>
<!-- FileUploadComponent  -->
<g id="node11" class="node"><title>FileUploadComponent </title>
<polygon fill="#fb8072" stroke="black" points="1092.82,-252 945.177,-252 945.177,-216 1092.82,-216 1092.82,-252"/>
<text text-anchor="middle" x="1019" y="-229.8" font-family="Times,serif" font-size="14.00">FileUploadComponent </text>
</g>
<!-- FileUploadModule&#45;&gt;FileUploadComponent  -->
<g id="edge10" class="edge"><title>FileUploadModule&#45;&gt;FileUploadComponent </title>
<path fill="none" stroke="black" stroke-dasharray="5,2" d="M676.359,-177C789.377,-177 1019,-177 1019,-177 1019,-177 1019,-205.965 1019,-205.965"/>
<polygon fill="black" stroke="black" points="1015.5,-205.965 1019,-215.965 1022.5,-205.965 1015.5,-205.965"/>
</g>
<!-- FileUploadPreviewComponent  -->
<g id="node12" class="node"><title>FileUploadPreviewComponent </title>
<polygon fill="#fb8072" stroke="black" points="926.692,-252 733.308,-252 733.308,-216 926.692,-216 926.692,-252"/>
<text text-anchor="middle" x="830" y="-229.8" font-family="Times,serif" font-size="14.00">FileUploadPreviewComponent </text>
</g>
<!-- FileUploadModule&#45;&gt;FileUploadPreviewComponent  -->
<g id="edge11" class="edge"><title>FileUploadModule&#45;&gt;FileUploadPreviewComponent </title>
<path fill="none" stroke="black" stroke-dasharray="5,2" d="M676.106,-182C738.501,-182 826.264,-182 826.264,-182 826.264,-182 826.264,-205.813 826.264,-205.813"/>
<polygon fill="black" stroke="black" points="822.764,-205.813 826.264,-215.813 829.764,-205.813 822.764,-205.813"/>
</g>
<!-- UploadToolbarTmplComponent  -->
<g id="node13" class="node"><title>UploadToolbarTmplComponent </title>
<polygon fill="#fb8072" stroke="black" points="715.197,-252 514.803,-252 514.803,-216 715.197,-216 715.197,-252"/>
<text text-anchor="middle" x="615" y="-229.8" font-family="Times,serif" font-size="14.00">UploadToolbarTmplComponent </text>
</g>
<!-- FileUploadModule&#45;&gt;UploadToolbarTmplComponent  -->
<g id="edge12" class="edge"><title>FileUploadModule&#45;&gt;UploadToolbarTmplComponent </title>
<path fill="none" stroke="black" stroke-dasharray="5,2" d="M615,-187.106C615,-187.106 615,-205.991 615,-205.991"/>
<polygon fill="black" stroke="black" points="611.5,-205.991 615,-215.991 618.5,-205.991 611.5,-205.991"/>
</g>
<!-- UploadPreviewTmplComponent  -->
<g id="node14" class="node"><title>UploadPreviewTmplComponent </title>
<polygon fill="#fb8072" stroke="black" points="497.248,-252 294.752,-252 294.752,-216 497.248,-216 497.248,-252"/>
<text text-anchor="middle" x="396" y="-229.8" font-family="Times,serif" font-size="14.00">UploadPreviewTmplComponent </text>
</g>
<!-- FileUploadModule&#45;&gt;UploadPreviewTmplComponent  -->
<g id="edge13" class="edge"><title>FileUploadModule&#45;&gt;UploadPreviewTmplComponent </title>
<path fill="none" stroke="black" stroke-dasharray="5,2" d="M553.751,-182C498.934,-182 427.152,-182 427.152,-182 427.152,-182 427.152,-205.813 427.152,-205.813"/>
<polygon fill="black" stroke="black" points="423.652,-205.813 427.152,-215.813 430.652,-205.813 423.652,-205.813"/>
</g>
<!-- UploadFileTmplComponent  -->
<g id="node15" class="node"><title>UploadFileTmplComponent </title>
<polygon fill="#fb8072" stroke="black" points="277.156,-252 98.8435,-252 98.8435,-216 277.156,-216 277.156,-252"/>
<text text-anchor="middle" x="188" y="-229.8" font-family="Times,serif" font-size="14.00">UploadFileTmplComponent </text>
</g>
<!-- FileUploadModule&#45;&gt;UploadFileTmplComponent  -->
<g id="edge14" class="edge"><title>FileUploadModule&#45;&gt;UploadFileTmplComponent </title>
<path fill="none" stroke="black" stroke-dasharray="5,2" d="M553.829,-177C437.834,-177 197.392,-177 197.392,-177 197.392,-177 197.392,-205.965 197.392,-205.965"/>
<polygon fill="black" stroke="black" points="193.892,-205.965 197.392,-215.965 200.892,-205.965 193.892,-205.965"/>
</g>
<!-- CommonModule -->
<g id="node7" class="node"><title>CommonModule</title>
<polygon fill="#8dd3c7" stroke="black" points="503.668,-122 500.668,-126 479.668,-126 476.668,-122 392.332,-122 392.332,-86 503.668,-86 503.668,-122"/>
<text text-anchor="middle" x="448" y="-99.8" font-family="Times,serif" font-size="14.00">CommonModule</text>
</g>
<!-- CommonModule&#45;&gt;FileUploadModule -->
<g id="edge6" class="edge"><title>CommonModule&#45;&gt;FileUploadModule</title>
<path fill="none" stroke="black" d="M462.138,-122.24C462.138,-137.571 462.138,-157 462.138,-157 462.138,-157 543.706,-157 543.706,-157"/>
<polygon fill="black" stroke="black" points="543.706,-160.5 553.706,-157 543.706,-153.5 543.706,-160.5"/>
</g>
<!-- HttpModule -->
<g id="node8" class="node"><title>HttpModule</title>
<polygon fill="#8dd3c7" stroke="black" points="374.439,-122 371.439,-126 350.439,-126 347.439,-122 289.561,-122 289.561,-86 374.439,-86 374.439,-122"/>
<text text-anchor="middle" x="332" y="-99.8" font-family="Times,serif" font-size="14.00">HttpModule</text>
</g>
<!-- HttpModule&#45;&gt;FileUploadModule -->
<g id="edge7" class="edge"><title>HttpModule&#45;&gt;FileUploadModule</title>
<path fill="none" stroke="black" d="M334.548,-122.034C334.548,-139.06 334.548,-162 334.548,-162 334.548,-162 543.8,-162 543.8,-162"/>
<polygon fill="black" stroke="black" points="543.8,-165.5 553.8,-162 543.8,-158.5 543.8,-165.5"/>
</g>
<!-- AlertBoxModule -->
<g id="node9" class="node"><title>AlertBoxModule</title>
<polygon fill="#8dd3c7" stroke="black" points="271.65,-122 268.65,-126 247.65,-126 244.65,-122 160.35,-122 160.35,-86 271.65,-86 271.65,-122"/>
<text text-anchor="middle" x="216" y="-99.8" font-family="Times,serif" font-size="14.00">AlertBoxModule</text>
</g>
<!-- AlertBoxModule&#45;&gt;FileUploadModule -->
<g id="edge8" class="edge"><title>AlertBoxModule&#45;&gt;FileUploadModule</title>
<path fill="none" stroke="black" d="M234.608,-122.222C234.608,-140.829 234.608,-167 234.608,-167 234.608,-167 543.883,-167 543.883,-167"/>
<polygon fill="black" stroke="black" points="543.884,-170.5 553.883,-167 543.883,-163.5 543.884,-170.5"/>
</g>
<!-- DraggableModule -->
<g id="node10" class="node"><title>DraggableModule</title>
<polygon fill="#8dd3c7" stroke="black" points="141.851,-122 138.851,-126 117.851,-126 114.851,-122 24.1485,-122 24.1485,-86 141.851,-86 141.851,-122"/>
<text text-anchor="middle" x="83" y="-99.8" font-family="Times,serif" font-size="14.00">DraggableModule</text>
</g>
<!-- DraggableModule&#45;&gt;FileUploadModule -->
<g id="edge9" class="edge"><title>DraggableModule&#45;&gt;FileUploadModule</title>
<path fill="none" stroke="black" d="M120.424,-122.223C120.424,-142.365 120.424,-172 120.424,-172 120.424,-172 543.859,-172 543.859,-172"/>
<polygon fill="black" stroke="black" points="543.859,-175.5 553.859,-172 543.859,-168.5 543.859,-175.5"/>
</g>
</g>
</svg>
