<?xml version="1.0" encoding="UTF-8" standalone="no"?>
<!DOCTYPE svg PUBLIC "-//W3C//DTD SVG 1.1//EN"
 "http://www.w3.org/Graphics/SVG/1.1/DTD/svg11.dtd">
<!-- Generated by graphviz version 2.40.1 (20161225.0304)
 -->
<!-- Title: dependencies Pages: 1 -->
<svg width="680pt" height="349pt"
 viewBox="0.00 0.00 680.00 349.00" xmlns="http://www.w3.org/2000/svg" xmlns:xlink="http://www.w3.org/1999/xlink">
<g id="graph0" class="graph" transform="scale(1 1) rotate(0) translate(4 345)">
<title>dependencies</title>
<polygon fill="#ffffff" stroke="transparent" points="-4,4 -4,-345 676,-345 676,4 -4,4"/>
<text text-anchor="start" x="315.0091" y="-42.4" font-family="sans-serif" font-weight="bold" font-size="14.00" fill="#000000">Legend</text>
<polygon fill="#ffffb3" stroke="transparent" points="102,-10 102,-30 122,-30 122,-10 102,-10"/>
<text text-anchor="start" x="125.629" y="-15.4" font-family="sans-serif" font-size="14.00" fill="#000000"> &#160;Declarations</text>
<polygon fill="#8dd3c7" stroke="transparent" points="215,-10 215,-30 235,-30 235,-10 215,-10"/>
<text text-anchor="start" x="238.7251" y="-15.4" font-family="sans-serif" font-size="14.00" fill="#000000"> &#160;Module</text>
<polygon fill="#80b1d3" stroke="transparent" points="301,-10 301,-30 321,-30 321,-10 301,-10"/>
<text text-anchor="start" x="324.7812" y="-15.4" font-family="sans-serif" font-size="14.00" fill="#000000"> &#160;Bootstrap</text>
<polygon fill="#fdb462" stroke="transparent" points="398,-10 398,-30 418,-30 418,-10 398,-10"/>
<text text-anchor="start" x="421.6732" y="-15.4" font-family="sans-serif" font-size="14.00" fill="#000000"> &#160;Providers</text>
<polygon fill="#fb8072" stroke="transparent" points="494,-10 494,-30 514,-30 514,-10 494,-10"/>
<text text-anchor="start" x="517.7258" y="-15.4" font-family="sans-serif" font-size="14.00" fill="#000000"> &#160;Exports</text>
<g id="clust1" class="cluster">
<title>cluster_FileUploadModule</title>
<polygon fill="none" stroke="#000000" stroke-dasharray="1,5" points="8,-70 8,-333 664,-333 664,-70 8,-70"/>
</g>
<g id="clust2" class="cluster">
<title>cluster_FileUploadModule_declarations</title>
<polygon fill="none" stroke="#000000" points="288,-143 288,-195 656,-195 656,-143 288,-143"/>
</g>
<g id="clust3" class="cluster">
<title>cluster_FileUploadModule_FileUploadComponent_providers</title>
<polygon fill="none" stroke="#000000" points="138,-78 138,-130 656,-130 656,-78 138,-78"/>
</g>
<g id="clust5" class="cluster">
<title>cluster_FileUploadModule_imports</title>
<polygon fill="none" stroke="#000000" points="16,-143 16,-195 280,-195 280,-143 16,-143"/>
</g>
<g id="clust6" class="cluster">
<title>cluster_FileUploadModule_exports</title>
<polygon fill="none" stroke="#000000" points="106,-273 106,-325 482,-325 482,-273 106,-273"/>
</g>
<!-- FileUploadComponent -->
<g id="node1" class="node">
<title>FileUploadComponent</title>
<polygon fill="#ffffb3" stroke="#000000" points="648.323,-187 503.677,-187 503.677,-151 648.323,-151 648.323,-187"/>
<text text-anchor="middle" x="576" y="-164.8" font-family="Times,serif" font-size="14.00" fill="#000000">FileUploadComponent</text>
</g>
<!-- FileUploadModule -->
<g id="node3" class="node">
<title>FileUploadModule</title>
<polygon fill="#8dd3c7" stroke="#000000" points="361.0409,-252 358.0409,-256 337.0409,-256 334.0409,-252 238.9591,-252 238.9591,-216 361.0409,-216 361.0409,-252"/>
<text text-anchor="middle" x="300" y="-229.8" font-family="Times,serif" font-size="14.00" fill="#000000">FileUploadModule</text>
</g>
<!-- FileUploadComponent&#45;&gt;FileUploadModule -->
<g id="edge1" class="edge">
<title>FileUploadComponent&#45;&gt;FileUploadModule</title>
<path fill="none" stroke="#000000" d="M576,-187.1061C576,-206.3391 576,-234 576,-234 576,-234 371.2533,-234 371.2533,-234"/>
<polygon fill="#000000" stroke="#000000" points="371.2534,-230.5001 361.2533,-234 371.2533,-237.5001 371.2534,-230.5001"/>
</g>
<!-- FileUploadPreviewComponent -->
<g id="node2" class="node">
<title>FileUploadPreviewComponent</title>
<polygon fill="#ffffb3" stroke="#000000" points="486.1923,-187 295.8077,-187 295.8077,-151 486.1923,-151 486.1923,-187"/>
<text text-anchor="middle" x="391" y="-164.8" font-family="Times,serif" font-size="14.00" fill="#000000">FileUploadPreviewComponent</text>
</g>
<!-- FileUploadPreviewComponent&#45;&gt;FileUploadModule -->
<g id="edge3" class="edge">
<title>FileUploadPreviewComponent&#45;&gt;FileUploadModule</title>
<path fill="none" stroke="#000000" d="M328.587,-187.1061C328.587,-187.1061 328.587,-205.991 328.587,-205.991"/>
<polygon fill="#000000" stroke="#000000" points="325.087,-205.9909 328.587,-215.991 332.087,-205.991 325.087,-205.9909"/>
</g>
<!-- FileUploadComponent  -->
<g id="node7" class="node">
<title>FileUploadComponent </title>
<polygon fill="#fb8072" stroke="#000000" points="473.8227,-317 326.1773,-317 326.1773,-281 473.8227,-281 473.8227,-317"/>
<text text-anchor="middle" x="400" y="-294.8" font-family="Times,serif" font-size="14.00" fill="#000000">FileUploadComponent </text>
</g>
<!-- FileUploadModule&#45;&gt;FileUploadComponent  -->
<g id="edge6" class="edge">
<title>FileUploadModule&#45;&gt;FileUploadComponent </title>
<path fill="none" stroke="#000000" stroke-dasharray="5,2" d="M343.6794,-252.1061C343.6794,-252.1061 343.6794,-270.991 343.6794,-270.991"/>
<polygon fill="#000000" stroke="#000000" points="340.1794,-270.9909 343.6794,-280.991 347.1794,-270.991 340.1794,-270.9909"/>
</g>
<!-- FileUploadPreviewComponent  -->
<g id="node8" class="node">
<title>FileUploadPreviewComponent </title>
<polygon fill="#fb8072" stroke="#000000" points="307.6924,-317 114.3076,-317 114.3076,-281 307.6924,-281 307.6924,-317"/>
<text text-anchor="middle" x="211" y="-294.8" font-family="Times,serif" font-size="14.00" fill="#000000">FileUploadPreviewComponent </text>
</g>
<!-- FileUploadModule&#45;&gt;FileUploadPreviewComponent  -->
<g id="edge7" class="edge">
<title>FileUploadModule&#45;&gt;FileUploadPreviewComponent </title>
<path fill="none" stroke="#000000" stroke-dasharray="5,2" d="M273.2881,-252.1061C273.2881,-252.1061 273.2881,-270.991 273.2881,-270.991"/>
<polygon fill="#000000" stroke="#000000" points="269.7881,-270.9909 273.2881,-280.991 276.7881,-270.991 269.7881,-270.9909"/>
</g>
<!-- { provide: NG_VALUE_ACCESSOR, useExisting: , multi: &#160;} -->
<g id="node4" class="node">
<title>{ provide: NG_VALUE_ACCESSOR, useExisting: , multi: &#160;}</title>
<ellipse fill="#fdb462" stroke="#000000" cx="397" cy="-104" rx="251.4985" ry="18"/>
<text text-anchor="middle" x="397" y="-99.8" font-family="Times,serif" font-size="14.00" fill="#000000">{ provide: NG_VALUE_ACCESSOR, useExisting: , multi: &#160;}</text>
</g>
<!-- { provide: NG_VALUE_ACCESSOR, useExisting: , multi: &#160;}&#45;&gt;FileUploadComponent -->
<g id="edge2" class="edge">
<title>{ provide: NG_VALUE_ACCESSOR, useExisting: , multi: &#160;}&#45;&gt;FileUploadComponent</title>
<path fill="none" stroke="#000000" d="M576,-116.8419C576,-116.8419 576,-140.5231 576,-140.5231"/>
<polygon fill="#000000" stroke="#000000" points="572.5001,-140.523 576,-150.5231 579.5001,-140.5231 572.5001,-140.523"/>
</g>
<!-- AlertBoxModule -->
<g id="node5" class="node">
<title>AlertBoxModule</title>
<polygon fill="#8dd3c7" stroke="#000000" points="271.6499,-187 268.6499,-191 247.6499,-191 244.6499,-187 160.3501,-187 160.3501,-151 271.6499,-151 271.6499,-187"/>
<text text-anchor="middle" x="216" y="-164.8" font-family="Times,serif" font-size="14.00" fill="#000000">AlertBoxModule</text>
</g>
<!-- AlertBoxModule&#45;&gt;FileUploadModule -->
<g id="edge4" class="edge">
<title>AlertBoxModule&#45;&gt;FileUploadModule</title>
<path fill="none" stroke="#000000" d="M255.2774,-187.1061C255.2774,-187.1061 255.2774,-205.991 255.2774,-205.991"/>
<polygon fill="#000000" stroke="#000000" points="251.7774,-205.9909 255.2774,-215.991 258.7774,-205.991 251.7774,-205.9909"/>
</g>
<!-- DraggableModule -->
<g id="node6" class="node">
<title>DraggableModule</title>
<polygon fill="#8dd3c7" stroke="#000000" points="141.8515,-187 138.8515,-191 117.8515,-191 114.8515,-187 24.1485,-187 24.1485,-151 141.8515,-151 141.8515,-187"/>
<text text-anchor="middle" x="83" y="-164.8" font-family="Times,serif" font-size="14.00" fill="#000000">DraggableModule</text>
</g>
<!-- DraggableModule&#45;&gt;FileUploadModule -->
<g id="edge5" class="edge">
<title>DraggableModule&#45;&gt;FileUploadModule</title>
<path fill="none" stroke="#000000" d="M128.0398,-187.1061C128.0398,-206.3391 128.0398,-234 128.0398,-234 128.0398,-234 228.8891,-234 228.8891,-234"/>
<polygon fill="#000000" stroke="#000000" points="228.8891,-237.5001 238.8891,-234 228.889,-230.5001 228.8891,-237.5001"/>
</g>
</g>
</svg>
