<?xml version="1.0" encoding="UTF-8" standalone="no"?>
<!DOCTYPE svg PUBLIC "-//W3C//DTD SVG 1.1//EN"
 "http://www.w3.org/Graphics/SVG/1.1/DTD/svg11.dtd">
<!-- Generated by graphviz version 2.40.1 (20161225.0304)
 -->
<!-- Title: dependencies Pages: 1 -->
<svg width="1305pt" height="284pt"
 viewBox="0.00 0.00 1305.00 284.00" xmlns="http://www.w3.org/2000/svg" xmlns:xlink="http://www.w3.org/1999/xlink">
<g id="graph0" class="graph" transform="scale(1 1) rotate(0) translate(4 280)">
<title>dependencies</title>
<polygon fill="#ffffff" stroke="transparent" points="-4,4 -4,-280 1301,-280 1301,4 -4,4"/>
<text text-anchor="start" x="627.5091" y="-42.4" font-family="sans-serif" font-weight="bold" font-size="14.00" fill="#000000">Legend</text>
<polygon fill="#ffffb3" stroke="transparent" points="414.5,-10 414.5,-30 434.5,-30 434.5,-10 414.5,-10"/>
<text text-anchor="start" x="438.129" y="-15.4" font-family="sans-serif" font-size="14.00" fill="#000000"> &#160;Declarations</text>
<polygon fill="#8dd3c7" stroke="transparent" points="527.5,-10 527.5,-30 547.5,-30 547.5,-10 527.5,-10"/>
<text text-anchor="start" x="551.2251" y="-15.4" font-family="sans-serif" font-size="14.00" fill="#000000"> &#160;Module</text>
<polygon fill="#80b1d3" stroke="transparent" points="613.5,-10 613.5,-30 633.5,-30 633.5,-10 613.5,-10"/>
<text text-anchor="start" x="637.2812" y="-15.4" font-family="sans-serif" font-size="14.00" fill="#000000"> &#160;Bootstrap</text>
<polygon fill="#fdb462" stroke="transparent" points="710.5,-10 710.5,-30 730.5,-30 730.5,-10 710.5,-10"/>
<text text-anchor="start" x="734.1732" y="-15.4" font-family="sans-serif" font-size="14.00" fill="#000000"> &#160;Providers</text>
<polygon fill="#fb8072" stroke="transparent" points="806.5,-10 806.5,-30 826.5,-30 826.5,-10 806.5,-10"/>
<text text-anchor="start" x="830.2258" y="-15.4" font-family="sans-serif" font-size="14.00" fill="#000000"> &#160;Exports</text>
<g id="clust1" class="cluster">
<title>cluster_FileUploadModule</title>
<polygon fill="none" stroke="#000000" stroke-dasharray="1,5" points="8,-70 8,-268 1289,-268 1289,-70 8,-70"/>
</g>
<g id="clust2" class="cluster">
<title>cluster_FileUploadModule_declarations</title>
<polygon fill="none" stroke="#000000" points="288,-78 288,-130 1281,-130 1281,-78 288,-78"/>
</g>
<g id="clust8" class="cluster">
<title>cluster_FileUploadModule_imports</title>
<polygon fill="none" stroke="#000000" points="16,-78 16,-130 280,-130 280,-78 16,-78"/>
</g>
<g id="clust9" class="cluster">
<title>cluster_FileUploadModule_exports</title>
<polygon fill="none" stroke="#000000" points="64,-208 64,-260 1074,-260 1074,-208 64,-208"/>
</g>
<!-- FileUploadComponent -->
<g id="node1" class="node">
<title>FileUploadComponent</title>
<polygon fill="#ffffb3" stroke="#000000" points="1273.323,-122 1128.677,-122 1128.677,-86 1273.323,-86 1273.323,-122"/>
<text text-anchor="middle" x="1201" y="-99.8" font-family="Times,serif" font-size="14.00" fill="#000000">FileUploadComponent</text>
</g>
<!-- FileUploadModule -->
<g id="node6" class="node">
<title>FileUploadModule</title>
<polygon fill="#8dd3c7" stroke="#000000" points="649.0409,-187 646.0409,-191 625.0409,-191 622.0409,-187 526.9591,-187 526.9591,-151 649.0409,-151 649.0409,-187"/>
<text text-anchor="middle" x="588" y="-164.8" font-family="Times,serif" font-size="14.00" fill="#000000">FileUploadModule</text>
</g>
<!-- FileUploadComponent&#45;&gt;FileUploadModule -->
<g id="edge1" class="edge">
<title>FileUploadComponent&#45;&gt;FileUploadModule</title>
<path fill="none" stroke="#000000" d="M1201,-122.1061C1201,-141.3391 1201,-169 1201,-169 1201,-169 659.3004,-169 659.3004,-169"/>
<polygon fill="#000000" stroke="#000000" points="659.3004,-165.5001 649.3004,-169 659.3004,-172.5001 659.3004,-165.5001"/>
</g>
<!-- FileUploadPreviewComponent -->
<g id="node2" class="node">
<title>FileUploadPreviewComponent</title>
<polygon fill="#ffffb3" stroke="#000000" points="1111.1923,-122 920.8077,-122 920.8077,-86 1111.1923,-86 1111.1923,-122"/>
<text text-anchor="middle" x="1016" y="-99.8" font-family="Times,serif" font-size="14.00" fill="#000000">FileUploadPreviewComponent</text>
</g>
<!-- FileUploadPreviewComponent&#45;&gt;FileUploadModule -->
<g id="edge2" class="edge">
<title>FileUploadPreviewComponent&#45;&gt;FileUploadModule</title>
<path fill="none" stroke="#000000" d="M969.2397,-122.0225C969.2397,-139.3734 969.2397,-163 969.2397,-163 969.2397,-163 659.2528,-163 659.2528,-163"/>
<polygon fill="#000000" stroke="#000000" points="659.2528,-159.5001 649.2528,-163 659.2527,-166.5001 659.2528,-159.5001"/>
</g>
<!-- UploadToolbarTmplComponent -->
<g id="node3" class="node">
<title>UploadToolbarTmplComponent</title>
<polygon fill="#ffffb3" stroke="#000000" points="902.6965,-122 705.3035,-122 705.3035,-86 902.6965,-86 902.6965,-122"/>
<text text-anchor="middle" x="804" y="-99.8" font-family="Times,serif" font-size="14.00" fill="#000000">UploadToolbarTmplComponent</text>
</g>
<!-- UploadToolbarTmplComponent&#45;&gt;FileUploadModule -->
<g id="edge3" class="edge">
<title>UploadToolbarTmplComponent&#45;&gt;FileUploadModule</title>
<path fill="none" stroke="#000000" d="M770.718,-122.2396C770.718,-137.5706 770.718,-157 770.718,-157 770.718,-157 659.0965,-157 659.0965,-157"/>
<polygon fill="#000000" stroke="#000000" points="659.0965,-153.5001 649.0965,-157 659.0964,-160.5001 659.0965,-153.5001"/>
</g>
<!-- UploadPreviewTmplComponent -->
<g id="node4" class="node">
<title>UploadPreviewTmplComponent</title>
<polygon fill="#ffffb3" stroke="#000000" points="687.2478,-122 488.7522,-122 488.7522,-86 687.2478,-86 687.2478,-122"/>
<text text-anchor="middle" x="588" y="-99.8" font-family="Times,serif" font-size="14.00" fill="#000000">UploadPreviewTmplComponent</text>
</g>
<!-- UploadPreviewTmplComponent&#45;&gt;FileUploadModule -->
<g id="edge4" class="edge">
<title>UploadPreviewTmplComponent&#45;&gt;FileUploadModule</title>
<path fill="none" stroke="#000000" d="M588,-122.1061C588,-122.1061 588,-140.991 588,-140.991"/>
<polygon fill="#000000" stroke="#000000" points="584.5001,-140.9909 588,-150.991 591.5001,-140.991 584.5001,-140.9909"/>
</g>
<!-- UploadFileTmplComponent -->
<g id="node5" class="node">
<title>UploadFileTmplComponent</title>
<polygon fill="#ffffb3" stroke="#000000" points="470.1567,-122 295.8433,-122 295.8433,-86 470.1567,-86 470.1567,-122"/>
<text text-anchor="middle" x="383" y="-99.8" font-family="Times,serif" font-size="14.00" fill="#000000">UploadFileTmplComponent</text>
</g>
<!-- UploadFileTmplComponent&#45;&gt;FileUploadModule -->
<g id="edge5" class="edge">
<title>UploadFileTmplComponent&#45;&gt;FileUploadModule</title>
<path fill="none" stroke="#000000" d="M411.9731,-122.2396C411.9731,-137.5706 411.9731,-157 411.9731,-157 411.9731,-157 516.9284,-157 516.9284,-157"/>
<polygon fill="#000000" stroke="#000000" points="516.9284,-160.5001 526.9284,-157 516.9283,-153.5001 516.9284,-160.5001"/>
</g>
<!-- FileUploadComponent  -->
<g id="node9" class="node">
<title>FileUploadComponent </title>
<polygon fill="#fb8072" stroke="#000000" points="1065.8227,-252 918.1773,-252 918.1773,-216 1065.8227,-216 1065.8227,-252"/>
<text text-anchor="middle" x="992" y="-229.8" font-family="Times,serif" font-size="14.00" fill="#000000">FileUploadComponent </text>
</g>
<!-- FileUploadModule&#45;&gt;FileUploadComponent  -->
<g id="edge8" class="edge">
<title>FileUploadModule&#45;&gt;FileUploadComponent </title>
<path fill="none" stroke="#000000" stroke-dasharray="5,2" d="M649.0915,-175C767.6897,-175 1017.5755,-175 1017.5755,-175 1017.5755,-175 1017.5755,-205.9775 1017.5755,-205.9775"/>
<polygon fill="#000000" stroke="#000000" points="1014.0756,-205.9774 1017.5755,-215.9775 1021.0756,-205.9775 1014.0756,-205.9774"/>
</g>
<!-- FileUploadPreviewComponent  -->
<g id="node10" class="node">
<title>FileUploadPreviewComponent </title>
<polygon fill="#fb8072" stroke="#000000" points="899.6924,-252 706.3076,-252 706.3076,-216 899.6924,-216 899.6924,-252"/>
<text text-anchor="middle" x="803" y="-229.8" font-family="Times,serif" font-size="14.00" fill="#000000">FileUploadPreviewComponent </text>
</g>
<!-- FileUploadModule&#45;&gt;FileUploadPreviewComponent  -->
<g id="edge9" class="edge">
<title>FileUploadModule&#45;&gt;FileUploadPreviewComponent </title>
<path fill="none" stroke="#000000" stroke-dasharray="5,2" d="M649.1259,-181C722.3532,-181 835.282,-181 835.282,-181 835.282,-181 835.282,-205.7604 835.282,-205.7604"/>
<polygon fill="#000000" stroke="#000000" points="831.7821,-205.7604 835.282,-215.7604 838.7821,-205.7604 831.7821,-205.7604"/>
</g>
<!-- UploadToolbarTmplComponent  -->
<g id="node11" class="node">
<title>UploadToolbarTmplComponent </title>
<polygon fill="#fb8072" stroke="#000000" points="688.1966,-252 487.8034,-252 487.8034,-216 688.1966,-216 688.1966,-252"/>
<text text-anchor="middle" x="588" y="-229.8" font-family="Times,serif" font-size="14.00" fill="#000000">UploadToolbarTmplComponent </text>
</g>
<!-- FileUploadModule&#45;&gt;UploadToolbarTmplComponent  -->
<g id="edge10" class="edge">
<title>FileUploadModule&#45;&gt;UploadToolbarTmplComponent </title>
<path fill="none" stroke="#000000" stroke-dasharray="5,2" d="M588,-187.1061C588,-187.1061 588,-205.991 588,-205.991"/>
<polygon fill="#000000" stroke="#000000" points="584.5001,-205.9909 588,-215.991 591.5001,-205.991 584.5001,-205.9909"/>
</g>
<!-- UploadPreviewTmplComponent  -->
<g id="node12" class="node">
<title>UploadPreviewTmplComponent </title>
<polygon fill="#fb8072" stroke="#000000" points="470.2478,-252 267.7522,-252 267.7522,-216 470.2478,-216 470.2478,-252"/>
<text text-anchor="middle" x="369" y="-229.8" font-family="Times,serif" font-size="14.00" fill="#000000">UploadPreviewTmplComponent </text>
</g>
<!-- FileUploadModule&#45;&gt;UploadPreviewTmplComponent  -->
<g id="edge11" class="edge">
<title>FileUploadModule&#45;&gt;UploadPreviewTmplComponent </title>
<path fill="none" stroke="#000000" stroke-dasharray="5,2" d="M526.7785,-181C457.3938,-181 353.8225,-181 353.8225,-181 353.8225,-181 353.8225,-205.7604 353.8225,-205.7604"/>
<polygon fill="#000000" stroke="#000000" points="350.3226,-205.7604 353.8225,-215.7604 357.3226,-205.7604 350.3226,-205.7604"/>
</g>
<!-- UploadFileTmplComponent  -->
<g id="node13" class="node">
<title>UploadFileTmplComponent </title>
<polygon fill="#fb8072" stroke="#000000" points="250.1565,-252 71.8435,-252 71.8435,-216 250.1565,-216 250.1565,-252"/>
<text text-anchor="middle" x="161" y="-229.8" font-family="Times,serif" font-size="14.00" fill="#000000">UploadFileTmplComponent </text>
</g>
<!-- FileUploadModule&#45;&gt;UploadFileTmplComponent  -->
<g id="edge12" class="edge">
<title>FileUploadModule&#45;&gt;UploadFileTmplComponent </title>
<path fill="none" stroke="#000000" stroke-dasharray="5,2" d="M526.9092,-175C418.8137,-175 205.1268,-175 205.1268,-175 205.1268,-175 205.1268,-205.9775 205.1268,-205.9775"/>
<polygon fill="#000000" stroke="#000000" points="201.6268,-205.9774 205.1267,-215.9775 208.6268,-205.9775 201.6268,-205.9774"/>
</g>
<!-- AlertBoxModule -->
<g id="node7" class="node">
<title>AlertBoxModule</title>
<polygon fill="#8dd3c7" stroke="#000000" points="271.6499,-122 268.6499,-126 247.6499,-126 244.6499,-122 160.3501,-122 160.3501,-86 271.6499,-86 271.6499,-122"/>
<text text-anchor="middle" x="216" y="-99.8" font-family="Times,serif" font-size="14.00" fill="#000000">AlertBoxModule</text>
</g>
<!-- AlertBoxModule&#45;&gt;FileUploadModule -->
<g id="edge6" class="edge">
<title>AlertBoxModule&#45;&gt;FileUploadModule</title>
<path fill="none" stroke="#000000" d="M258.9772,-122.0225C258.9772,-139.3734 258.9772,-163 258.9772,-163 258.9772,-163 516.8844,-163 516.8844,-163"/>
<polygon fill="#000000" stroke="#000000" points="516.8845,-166.5001 526.8844,-163 516.8844,-159.5001 516.8845,-166.5001"/>
</g>
<!-- DraggableModule -->
<g id="node8" class="node">
<title>DraggableModule</title>
<polygon fill="#8dd3c7" stroke="#000000" points="141.8515,-122 138.8515,-126 117.8515,-126 114.8515,-122 24.1485,-122 24.1485,-86 141.8515,-86 141.8515,-122"/>
<text text-anchor="middle" x="83" y="-99.8" font-family="Times,serif" font-size="14.00" fill="#000000">DraggableModule</text>
</g>
<!-- DraggableModule&#45;&gt;FileUploadModule -->
<g id="edge7" class="edge">
<title>DraggableModule&#45;&gt;FileUploadModule</title>
<path fill="none" stroke="#000000" d="M106.9238,-122.1061C106.9238,-141.3391 106.9238,-169 106.9238,-169 106.9238,-169 516.5827,-169 516.5827,-169"/>
<polygon fill="#000000" stroke="#000000" points="516.5828,-172.5001 526.5827,-169 516.5827,-165.5001 516.5828,-172.5001"/>
</g>
</g>
</svg>
