<?xml version="1.0" encoding="UTF-8" standalone="no"?>
<!DOCTYPE svg PUBLIC "-//W3C//DTD SVG 1.1//EN"
 "http://www.w3.org/Graphics/SVG/1.1/DTD/svg11.dtd">
<!-- Generated by graphviz version 2.38.0 (20140413.2041)
 -->
<!-- Title: dependencies Pages: 1 -->
<svg width="810pt" height="284pt"
 viewBox="0.00 0.00 810.00 284.00" xmlns="http://www.w3.org/2000/svg" xmlns:xlink="http://www.w3.org/1999/xlink">
<g id="graph0" class="graph" transform="scale(1 1) rotate(0) translate(4 280)">
<title>dependencies</title>
<polygon fill="white" stroke="none" points="-4,4 -4,-280 806,-280 806,4 -4,4"/>
<text text-anchor="start" x="380.009" y="-42.4" font-family="sans-serif" font-weight="bold" font-size="14.00">Legend</text>
<polygon fill="#ffffb3" stroke="none" points="167,-10 167,-30 187,-30 187,-10 167,-10"/>
<text text-anchor="start" x="190.629" y="-15.4" font-family="sans-serif" font-size="14.00"> &#160;Declarations</text>
<polygon fill="#8dd3c7" stroke="none" points="280,-10 280,-30 300,-30 300,-10 280,-10"/>
<text text-anchor="start" x="303.725" y="-15.4" font-family="sans-serif" font-size="14.00"> &#160;Module</text>
<polygon fill="#80b1d3" stroke="none" points="366,-10 366,-30 386,-30 386,-10 366,-10"/>
<text text-anchor="start" x="389.781" y="-15.4" font-family="sans-serif" font-size="14.00"> &#160;Bootstrap</text>
<polygon fill="#fdb462" stroke="none" points="463,-10 463,-30 483,-30 483,-10 463,-10"/>
<text text-anchor="start" x="486.673" y="-15.4" font-family="sans-serif" font-size="14.00"> &#160;Providers</text>
<polygon fill="#fb8072" stroke="none" points="559,-10 559,-30 579,-30 579,-10 559,-10"/>
<text text-anchor="start" x="582.726" y="-15.4" font-family="sans-serif" font-size="14.00"> &#160;Exports</text>
<g id="clust1" class="cluster"><title>cluster_FileUploadModule</title>
<polygon fill="none" stroke="black" stroke-dasharray="1,5" points="8,-70 8,-268 794,-268 794,-70 8,-70"/>
</g>
<g id="clust2" class="cluster"><title>cluster_FileUploadModule_declarations</title>
<polygon fill="none" stroke="black" points="418,-78 418,-130 786,-130 786,-78 418,-78"/>
</g>
<g id="clust5" class="cluster"><title>cluster_FileUploadModule_imports</title>
<polygon fill="none" stroke="black" points="16,-78 16,-130 410,-130 410,-78 16,-78"/>
</g>
<g id="clust6" class="cluster"><title>cluster_FileUploadModule_exports</title>
<polygon fill="none" stroke="black" points="146,-208 146,-260 522,-260 522,-208 146,-208"/>
</g>
<!-- FileUploadComponent -->
<g id="node1" class="node"><title>FileUploadComponent</title>
<polygon fill="#ffffb3" stroke="black" points="778.323,-122 633.677,-122 633.677,-86 778.323,-86 778.323,-122"/>
<text text-anchor="middle" x="706" y="-99.8" font-family="Times,serif" font-size="14.00">FileUploadComponent</text>
</g>
<!-- FileUploadModule -->
<g id="node3" class="node"><title>FileUploadModule</title>
<polygon fill="#8dd3c7" stroke="black" points="407.041,-187 404.041,-191 383.041,-191 380.041,-187 284.959,-187 284.959,-151 407.041,-151 407.041,-187"/>
<text text-anchor="middle" x="346" y="-164.8" font-family="Times,serif" font-size="14.00">FileUploadModule</text>
</g>
<!-- FileUploadComponent&#45;&gt;FileUploadModule -->
<g id="edge1" class="edge"><title>FileUploadComponent&#45;&gt;FileUploadModule</title>
<path fill="none" stroke="black" d="M706,-122.284C706,-143.321 706,-175 706,-175 706,-175 417.069,-175 417.069,-175"/>
<polygon fill="black" stroke="black" points="417.069,-171.5 407.069,-175 417.069,-178.5 417.069,-171.5"/>
</g>
<!-- FileUploadPreviewComponent -->
<g id="node2" class="node"><title>FileUploadPreviewComponent</title>
<polygon fill="#ffffb3" stroke="black" points="616.192,-122 425.808,-122 425.808,-86 616.192,-86 616.192,-122"/>
<text text-anchor="middle" x="521" y="-99.8" font-family="Times,serif" font-size="14.00">FileUploadPreviewComponent</text>
</g>
<!-- FileUploadPreviewComponent&#45;&gt;FileUploadModule -->
<g id="edge2" class="edge"><title>FileUploadPreviewComponent&#45;&gt;FileUploadModule</title>
<path fill="none" stroke="black" d="M469.908,-122.023C469.908,-139.373 469.908,-163 469.908,-163 469.908,-163 417.228,-163 417.228,-163"/>
<polygon fill="black" stroke="black" points="417.228,-159.5 407.228,-163 417.228,-166.5 417.228,-159.5"/>
</g>
<!-- FileUploadComponent  -->
<g id="node7" class="node"><title>FileUploadComponent </title>
<polygon fill="#fb8072" stroke="black" points="513.823,-252 366.177,-252 366.177,-216 513.823,-216 513.823,-252"/>
<text text-anchor="middle" x="440" y="-229.8" font-family="Times,serif" font-size="14.00">FileUploadComponent </text>
</g>
<!-- FileUploadModule&#45;&gt;FileUploadComponent  -->
<g id="edge6" class="edge"><title>FileUploadModule&#45;&gt;FileUploadComponent </title>
<path fill="none" stroke="black" stroke-dasharray="5,2" d="M386.679,-187.106C386.679,-187.106 386.679,-205.991 386.679,-205.991"/>
<polygon fill="black" stroke="black" points="383.179,-205.991 386.679,-215.991 390.179,-205.991 383.179,-205.991"/>
</g>
<!-- FileUploadPreviewComponent  -->
<g id="node8" class="node"><title>FileUploadPreviewComponent </title>
<polygon fill="#fb8072" stroke="black" points="347.692,-252 154.308,-252 154.308,-216 347.692,-216 347.692,-252"/>
<text text-anchor="middle" x="251" y="-229.8" font-family="Times,serif" font-size="14.00">FileUploadPreviewComponent </text>
</g>
<!-- FileUploadModule&#45;&gt;FileUploadPreviewComponent  -->
<g id="edge7" class="edge"><title>FileUploadModule&#45;&gt;FileUploadPreviewComponent </title>
<path fill="none" stroke="black" stroke-dasharray="5,2" d="M316.288,-187.106C316.288,-187.106 316.288,-205.991 316.288,-205.991"/>
<polygon fill="black" stroke="black" points="312.788,-205.991 316.288,-215.991 319.788,-205.991 312.788,-205.991"/>
</g>
<!-- CommonModule -->
<g id="node4" class="node"><title>CommonModule</title>
<polygon fill="#8dd3c7" stroke="black" points="401.668,-122 398.668,-126 377.668,-126 374.668,-122 290.332,-122 290.332,-86 401.668,-86 401.668,-122"/>
<text text-anchor="middle" x="346" y="-99.8" font-family="Times,serif" font-size="14.00">CommonModule</text>
</g>
<!-- CommonModule&#45;&gt;FileUploadModule -->
<g id="edge3" class="edge"><title>CommonModule&#45;&gt;FileUploadModule</title>
<path fill="none" stroke="black" d="M346,-122.106C346,-122.106 346,-140.991 346,-140.991"/>
<polygon fill="black" stroke="black" points="342.5,-140.991 346,-150.991 349.5,-140.991 342.5,-140.991"/>
</g>
<!-- AlertBoxModule -->
<g id="node5" class="node"><title>AlertBoxModule</title>
<polygon fill="#8dd3c7" stroke="black" points="271.65,-122 268.65,-126 247.65,-126 244.65,-122 160.35,-122 160.35,-86 271.65,-86 271.65,-122"/>
<text text-anchor="middle" x="216" y="-99.8" font-family="Times,serif" font-size="14.00">AlertBoxModule</text>
</g>
<!-- AlertBoxModule&#45;&gt;FileUploadModule -->
<g id="edge4" class="edge"><title>AlertBoxModule&#45;&gt;FileUploadModule</title>
<path fill="none" stroke="black" d="M216,-122.023C216,-139.373 216,-163 216,-163 216,-163 274.807,-163 274.807,-163"/>
<polygon fill="black" stroke="black" points="274.807,-166.5 284.807,-163 274.807,-159.5 274.807,-166.5"/>
</g>
<!-- DraggableModule -->
<g id="node6" class="node"><title>DraggableModule</title>
<polygon fill="#8dd3c7" stroke="black" points="141.851,-122 138.851,-126 117.851,-126 114.851,-122 24.1485,-122 24.1485,-86 141.851,-86 141.851,-122"/>
<text text-anchor="middle" x="83" y="-99.8" font-family="Times,serif" font-size="14.00">DraggableModule</text>
</g>
<!-- DraggableModule&#45;&gt;FileUploadModule -->
<g id="edge5" class="edge"><title>DraggableModule&#45;&gt;FileUploadModule</title>
<path fill="none" stroke="black" d="M83,-122.284C83,-143.321 83,-175 83,-175 83,-175 274.67,-175 274.67,-175"/>
<polygon fill="black" stroke="black" points="274.67,-178.5 284.67,-175 274.67,-171.5 274.67,-178.5"/>
</g>
</g>
</svg>
