<?xml version="1.0" encoding="UTF-8" standalone="no"?>
<!DOCTYPE svg PUBLIC "-//W3C//DTD SVG 1.1//EN"
 "http://www.w3.org/Graphics/SVG/1.1/DTD/svg11.dtd">
<!-- Generated by graphviz version 2.40.1 (20161225.0304)
 -->
<!-- Title: dependencies Pages: 1 -->
<svg width="680pt" height="396pt"
 viewBox="0.00 0.00 680.00 395.59" xmlns="http://www.w3.org/2000/svg" xmlns:xlink="http://www.w3.org/1999/xlink">
<g id="graph0" class="graph" transform="scale(1 1) rotate(0) translate(4 391.5901)">
<title>dependencies</title>
<polygon fill="#ffffff" stroke="transparent" points="-4,4 -4,-391.5901 676,-391.5901 676,4 -4,4"/>
<text text-anchor="start" x="315.0091" y="-42.4" font-family="sans-serif" font-weight="bold" font-size="14.00" fill="#000000">Legend</text>
<polygon fill="#ffffb3" stroke="transparent" points="102,-10 102,-30 122,-30 122,-10 102,-10"/>
<text text-anchor="start" x="125.629" y="-15.4" font-family="sans-serif" font-size="14.00" fill="#000000"> &#160;Declarations</text>
<polygon fill="#8dd3c7" stroke="transparent" points="215,-10 215,-30 235,-30 235,-10 215,-10"/>
<text text-anchor="start" x="238.7251" y="-15.4" font-family="sans-serif" font-size="14.00" fill="#000000"> &#160;Module</text>
<polygon fill="#80b1d3" stroke="transparent" points="301,-10 301,-30 321,-30 321,-10 301,-10"/>
<text text-anchor="start" x="324.7812" y="-15.4" font-family="sans-serif" font-size="14.00" fill="#000000"> &#160;Bootstrap</text>
<polygon fill="#fdb462" stroke="transparent" points="398,-10 398,-30 418,-30 418,-10 398,-10"/>
<text text-anchor="start" x="421.6732" y="-15.4" font-family="sans-serif" font-size="14.00" fill="#000000"> &#160;Providers</text>
<polygon fill="#fb8072" stroke="transparent" points="494,-10 494,-30 514,-30 514,-10 494,-10"/>
<text text-anchor="start" x="517.7258" y="-15.4" font-family="sans-serif" font-size="14.00" fill="#000000"> &#160;Exports</text>
<g id="clust1" class="cluster">
<title>cluster_FileUploadModule</title>
<polygon fill="none" stroke="#000000" stroke-dasharray="1,5" points="8,-70 8,-379.5901 664,-379.5901 664,-70 8,-70"/>
</g>
<g id="clust2" class="cluster">
<title>cluster_FileUploadModule_declarations</title>
<polygon fill="none" stroke="#000000" points="288,-189.5901 288,-241.5901 656,-241.5901 656,-189.5901 288,-189.5901"/>
</g>
<g id="clust3" class="cluster">
<title>cluster_FileUploadModule_FileUploadComponent_providers</title>
<polygon fill="none" stroke="#000000" points="458,-78 458,-176.5901 656,-176.5901 656,-78 458,-78"/>
</g>
<g id="clust5" class="cluster">
<title>cluster_FileUploadModule_imports</title>
<polygon fill="none" stroke="#000000" points="16,-189.5901 16,-241.5901 280,-241.5901 280,-189.5901 16,-189.5901"/>
</g>
<g id="clust6" class="cluster">
<title>cluster_FileUploadModule_exports</title>
<polygon fill="none" stroke="#000000" points="106,-319.5901 106,-371.5901 482,-371.5901 482,-319.5901 106,-319.5901"/>
</g>
<!-- FileUploadComponent -->
<g id="node1" class="node">
<title>FileUploadComponent</title>
<polygon fill="#ffffb3" stroke="#000000" points="648.323,-233.5901 503.677,-233.5901 503.677,-197.5901 648.323,-197.5901 648.323,-233.5901"/>
<text text-anchor="middle" x="576" y="-211.3901" font-family="Times,serif" font-size="14.00" fill="#000000">FileUploadComponent</text>
</g>
<!-- FileUploadModule -->
<g id="node3" class="node">
<title>FileUploadModule</title>
<polygon fill="#8dd3c7" stroke="#000000" points="361.0409,-298.5901 358.0409,-302.5901 337.0409,-302.5901 334.0409,-298.5901 238.9591,-298.5901 238.9591,-262.5901 361.0409,-262.5901 361.0409,-298.5901"/>
<text text-anchor="middle" x="300" y="-276.3901" font-family="Times,serif" font-size="14.00" fill="#000000">FileUploadModule</text>
</g>
<!-- FileUploadComponent&#45;&gt;FileUploadModule -->
<g id="edge1" class="edge">
<title>FileUploadComponent&#45;&gt;FileUploadModule</title>
<path fill="none" stroke="#000000" d="M576,-233.6962C576,-252.9292 576,-280.5901 576,-280.5901 576,-280.5901 371.2533,-280.5901 371.2533,-280.5901"/>
<polygon fill="#000000" stroke="#000000" points="371.2534,-277.0902 361.2533,-280.5901 371.2533,-284.0902 371.2534,-277.0902"/>
</g>
<!-- FileUploadPreviewComponent -->
<g id="node2" class="node">
<title>FileUploadPreviewComponent</title>
<polygon fill="#ffffb3" stroke="#000000" points="486.1923,-233.5901 295.8077,-233.5901 295.8077,-197.5901 486.1923,-197.5901 486.1923,-233.5901"/>
<text text-anchor="middle" x="391" y="-211.3901" font-family="Times,serif" font-size="14.00" fill="#000000">FileUploadPreviewComponent</text>
</g>
<!-- FileUploadPreviewComponent&#45;&gt;FileUploadModule -->
<g id="edge3" class="edge">
<title>FileUploadPreviewComponent&#45;&gt;FileUploadModule</title>
<path fill="none" stroke="#000000" d="M328.587,-233.6962C328.587,-233.6962 328.587,-252.581 328.587,-252.581"/>
<polygon fill="#000000" stroke="#000000" points="325.087,-252.581 328.587,-262.581 332.087,-252.5811 325.087,-252.581"/>
</g>
<!-- FileUploadComponent  -->
<g id="node7" class="node">
<title>FileUploadComponent </title>
<polygon fill="#fb8072" stroke="#000000" points="473.8227,-363.5901 326.1773,-363.5901 326.1773,-327.5901 473.8227,-327.5901 473.8227,-363.5901"/>
<text text-anchor="middle" x="400" y="-341.3901" font-family="Times,serif" font-size="14.00" fill="#000000">FileUploadComponent </text>
</g>
<!-- FileUploadModule&#45;&gt;FileUploadComponent  -->
<g id="edge6" class="edge">
<title>FileUploadModule&#45;&gt;FileUploadComponent </title>
<path fill="none" stroke="#000000" stroke-dasharray="5,2" d="M343.6794,-298.6962C343.6794,-298.6962 343.6794,-317.581 343.6794,-317.581"/>
<polygon fill="#000000" stroke="#000000" points="340.1794,-317.581 343.6794,-327.581 347.1794,-317.5811 340.1794,-317.581"/>
</g>
<!-- FileUploadPreviewComponent  -->
<g id="node8" class="node">
<title>FileUploadPreviewComponent </title>
<polygon fill="#fb8072" stroke="#000000" points="307.6924,-363.5901 114.3076,-363.5901 114.3076,-327.5901 307.6924,-327.5901 307.6924,-363.5901"/>
<text text-anchor="middle" x="211" y="-341.3901" font-family="Times,serif" font-size="14.00" fill="#000000">FileUploadPreviewComponent </text>
</g>
<!-- FileUploadModule&#45;&gt;FileUploadPreviewComponent  -->
<g id="edge7" class="edge">
<title>FileUploadModule&#45;&gt;FileUploadPreviewComponent </title>
<path fill="none" stroke="#000000" stroke-dasharray="5,2" d="M273.2881,-298.6962C273.2881,-298.6962 273.2881,-317.581 273.2881,-317.581"/>
<polygon fill="#000000" stroke="#000000" points="269.7881,-317.581 273.2881,-327.581 276.7881,-317.5811 269.7881,-317.581"/>
</g>
<!-- {
 &#160;&#160;&#160;: , : (() =&gt; ), : true
} -->
<g id="node4" class="node">
<title>{
 &#160;&#160;&#160;: , : (() =&gt; ), : true
}</title>
<ellipse fill="#fdb462" stroke="#000000" cx="557" cy="-127.295" rx="91.4557" ry="41.0911"/>
<text text-anchor="middle" x="557" y="-139.895" font-family="Times,serif" font-size="14.00" fill="#000000">{</text>
<text text-anchor="middle" x="557" y="-123.095" font-family="Times,serif" font-size="14.00" fill="#000000"> &#160;&#160;&#160;: , : (() =&gt; ), : true</text>
<text text-anchor="middle" x="557" y="-106.295" font-family="Times,serif" font-size="14.00" fill="#000000">}</text>
</g>
<!-- {
 &#160;&#160;&#160;: , : (() =&gt; ), : true
}&#45;&gt;FileUploadComponent -->
<g id="edge2" class="edge">
<title>{
 &#160;&#160;&#160;: , : (() =&gt; ), : true
}&#45;&gt;FileUploadComponent</title>
<path fill="none" stroke="#000000" d="M576,-167.8247C576,-167.8247 576,-187.3455 576,-187.3455"/>
<polygon fill="#000000" stroke="#000000" points="572.5001,-187.3455 576,-197.3455 579.5001,-187.3455 572.5001,-187.3455"/>
</g>
<!-- AlertBoxModule -->
<g id="node5" class="node">
<title>AlertBoxModule</title>
<polygon fill="#8dd3c7" stroke="#000000" points="271.6499,-233.5901 268.6499,-237.5901 247.6499,-237.5901 244.6499,-233.5901 160.3501,-233.5901 160.3501,-197.5901 271.6499,-197.5901 271.6499,-233.5901"/>
<text text-anchor="middle" x="216" y="-211.3901" font-family="Times,serif" font-size="14.00" fill="#000000">AlertBoxModule</text>
</g>
<!-- AlertBoxModule&#45;&gt;FileUploadModule -->
<g id="edge4" class="edge">
<title>AlertBoxModule&#45;&gt;FileUploadModule</title>
<path fill="none" stroke="#000000" d="M255.2774,-233.6962C255.2774,-233.6962 255.2774,-252.581 255.2774,-252.581"/>
<polygon fill="#000000" stroke="#000000" points="251.7774,-252.581 255.2774,-262.581 258.7774,-252.5811 251.7774,-252.581"/>
</g>
<!-- DraggableModule -->
<g id="node6" class="node">
<title>DraggableModule</title>
<polygon fill="#8dd3c7" stroke="#000000" points="141.8515,-233.5901 138.8515,-237.5901 117.8515,-237.5901 114.8515,-233.5901 24.1485,-233.5901 24.1485,-197.5901 141.8515,-197.5901 141.8515,-233.5901"/>
<text text-anchor="middle" x="83" y="-211.3901" font-family="Times,serif" font-size="14.00" fill="#000000">DraggableModule</text>
</g>
<!-- DraggableModule&#45;&gt;FileUploadModule -->
<g id="edge5" class="edge">
<title>DraggableModule&#45;&gt;FileUploadModule</title>
<path fill="none" stroke="#000000" d="M128.0398,-233.6962C128.0398,-252.9292 128.0398,-280.5901 128.0398,-280.5901 128.0398,-280.5901 228.8891,-280.5901 228.8891,-280.5901"/>
<polygon fill="#000000" stroke="#000000" points="228.8891,-284.0902 238.8891,-280.5901 228.889,-277.0902 228.8891,-284.0902"/>
</g>
</g>
</svg>
