<?xml version="1.0" encoding="UTF-8" standalone="no"?>
<!DOCTYPE svg PUBLIC "-//W3C//DTD SVG 1.1//EN"
 "http://www.w3.org/Graphics/SVG/1.1/DTD/svg11.dtd">
<!-- Generated by graphviz version 2.40.1 (20161225.0304)
 -->
<!-- Title: dependencies Pages: 1 -->
<svg width="680pt" height="284pt"
 viewBox="0.00 0.00 680.00 284.00" xmlns="http://www.w3.org/2000/svg" xmlns:xlink="http://www.w3.org/1999/xlink">
<g id="graph0" class="graph" transform="scale(1 1) rotate(0) translate(4 280)">
<title>dependencies</title>
<polygon fill="#ffffff" stroke="transparent" points="-4,4 -4,-280 676,-280 676,4 -4,4"/>
<text text-anchor="start" x="315.0091" y="-42.4" font-family="sans-serif" font-weight="bold" font-size="14.00" fill="#000000">Legend</text>
<polygon fill="#ffffb3" stroke="transparent" points="102,-10 102,-30 122,-30 122,-10 102,-10"/>
<text text-anchor="start" x="125.629" y="-15.4" font-family="sans-serif" font-size="14.00" fill="#000000"> &#160;Declarations</text>
<polygon fill="#8dd3c7" stroke="transparent" points="215,-10 215,-30 235,-30 235,-10 215,-10"/>
<text text-anchor="start" x="238.7251" y="-15.4" font-family="sans-serif" font-size="14.00" fill="#000000"> &#160;Module</text>
<polygon fill="#80b1d3" stroke="transparent" points="301,-10 301,-30 321,-30 321,-10 301,-10"/>
<text text-anchor="start" x="324.7812" y="-15.4" font-family="sans-serif" font-size="14.00" fill="#000000"> &#160;Bootstrap</text>
<polygon fill="#fdb462" stroke="transparent" points="398,-10 398,-30 418,-30 418,-10 398,-10"/>
<text text-anchor="start" x="421.6732" y="-15.4" font-family="sans-serif" font-size="14.00" fill="#000000"> &#160;Providers</text>
<polygon fill="#fb8072" stroke="transparent" points="494,-10 494,-30 514,-30 514,-10 494,-10"/>
<text text-anchor="start" x="517.7258" y="-15.4" font-family="sans-serif" font-size="14.00" fill="#000000"> &#160;Exports</text>
<g id="clust1" class="cluster">
<title>cluster_FileUploadModule</title>
<polygon fill="none" stroke="#000000" stroke-dasharray="1,5" points="8,-70 8,-268 664,-268 664,-70 8,-70"/>
</g>
<g id="clust2" class="cluster">
<title>cluster_FileUploadModule_declarations</title>
<polygon fill="none" stroke="#000000" points="288,-78 288,-130 656,-130 656,-78 288,-78"/>
</g>
<g id="clust5" class="cluster">
<title>cluster_FileUploadModule_imports</title>
<polygon fill="none" stroke="#000000" points="16,-78 16,-130 280,-130 280,-78 16,-78"/>
</g>
<g id="clust6" class="cluster">
<title>cluster_FileUploadModule_exports</title>
<polygon fill="none" stroke="#000000" points="106,-208 106,-260 482,-260 482,-208 106,-208"/>
</g>
<!-- FileUploadComponent -->
<g id="node1" class="node">
<title>FileUploadComponent</title>
<polygon fill="#ffffb3" stroke="#000000" points="648.323,-122 503.677,-122 503.677,-86 648.323,-86 648.323,-122"/>
<text text-anchor="middle" x="576" y="-99.8" font-family="Times,serif" font-size="14.00" fill="#000000">FileUploadComponent</text>
</g>
<!-- FileUploadModule -->
<g id="node3" class="node">
<title>FileUploadModule</title>
<polygon fill="#8dd3c7" stroke="#000000" points="361.0409,-187 358.0409,-191 337.0409,-191 334.0409,-187 238.9591,-187 238.9591,-151 361.0409,-151 361.0409,-187"/>
<text text-anchor="middle" x="300" y="-164.8" font-family="Times,serif" font-size="14.00" fill="#000000">FileUploadModule</text>
</g>
<!-- FileUploadComponent&#45;&gt;FileUploadModule -->
<g id="edge1" class="edge">
<title>FileUploadComponent&#45;&gt;FileUploadModule</title>
<path fill="none" stroke="#000000" d="M576,-122.1061C576,-141.3391 576,-169 576,-169 576,-169 371.2533,-169 371.2533,-169"/>
<polygon fill="#000000" stroke="#000000" points="371.2534,-165.5001 361.2533,-169 371.2533,-172.5001 371.2534,-165.5001"/>
</g>
<!-- FileUploadPreviewComponent -->
<g id="node2" class="node">
<title>FileUploadPreviewComponent</title>
<polygon fill="#ffffb3" stroke="#000000" points="486.1923,-122 295.8077,-122 295.8077,-86 486.1923,-86 486.1923,-122"/>
<text text-anchor="middle" x="391" y="-99.8" font-family="Times,serif" font-size="14.00" fill="#000000">FileUploadPreviewComponent</text>
</g>
<!-- FileUploadPreviewComponent&#45;&gt;FileUploadModule -->
<g id="edge2" class="edge">
<title>FileUploadPreviewComponent&#45;&gt;FileUploadModule</title>
<path fill="none" stroke="#000000" d="M328.587,-122.1061C328.587,-122.1061 328.587,-140.991 328.587,-140.991"/>
<polygon fill="#000000" stroke="#000000" points="325.087,-140.9909 328.587,-150.991 332.087,-140.991 325.087,-140.9909"/>
</g>
<!-- FileUploadComponent  -->
<g id="node6" class="node">
<title>FileUploadComponent </title>
<polygon fill="#fb8072" stroke="#000000" points="473.8227,-252 326.1773,-252 326.1773,-216 473.8227,-216 473.8227,-252"/>
<text text-anchor="middle" x="400" y="-229.8" font-family="Times,serif" font-size="14.00" fill="#000000">FileUploadComponent </text>
</g>
<!-- FileUploadModule&#45;&gt;FileUploadComponent  -->
<g id="edge5" class="edge">
<title>FileUploadModule&#45;&gt;FileUploadComponent </title>
<path fill="none" stroke="#000000" stroke-dasharray="5,2" d="M343.6794,-187.1061C343.6794,-187.1061 343.6794,-205.991 343.6794,-205.991"/>
<polygon fill="#000000" stroke="#000000" points="340.1794,-205.9909 343.6794,-215.991 347.1794,-205.991 340.1794,-205.9909"/>
</g>
<!-- FileUploadPreviewComponent  -->
<g id="node7" class="node">
<title>FileUploadPreviewComponent </title>
<polygon fill="#fb8072" stroke="#000000" points="307.6924,-252 114.3076,-252 114.3076,-216 307.6924,-216 307.6924,-252"/>
<text text-anchor="middle" x="211" y="-229.8" font-family="Times,serif" font-size="14.00" fill="#000000">FileUploadPreviewComponent </text>
</g>
<!-- FileUploadModule&#45;&gt;FileUploadPreviewComponent  -->
<g id="edge6" class="edge">
<title>FileUploadModule&#45;&gt;FileUploadPreviewComponent </title>
<path fill="none" stroke="#000000" stroke-dasharray="5,2" d="M273.2881,-187.1061C273.2881,-187.1061 273.2881,-205.991 273.2881,-205.991"/>
<polygon fill="#000000" stroke="#000000" points="269.7881,-205.9909 273.2881,-215.991 276.7881,-205.991 269.7881,-205.9909"/>
</g>
<!-- AlertBoxModule -->
<g id="node4" class="node">
<title>AlertBoxModule</title>
<polygon fill="#8dd3c7" stroke="#000000" points="271.6499,-122 268.6499,-126 247.6499,-126 244.6499,-122 160.3501,-122 160.3501,-86 271.6499,-86 271.6499,-122"/>
<text text-anchor="middle" x="216" y="-99.8" font-family="Times,serif" font-size="14.00" fill="#000000">AlertBoxModule</text>
</g>
<!-- AlertBoxModule&#45;&gt;FileUploadModule -->
<g id="edge3" class="edge">
<title>AlertBoxModule&#45;&gt;FileUploadModule</title>
<path fill="none" stroke="#000000" d="M255.2774,-122.1061C255.2774,-122.1061 255.2774,-140.991 255.2774,-140.991"/>
<polygon fill="#000000" stroke="#000000" points="251.7774,-140.9909 255.2774,-150.991 258.7774,-140.991 251.7774,-140.9909"/>
</g>
<!-- DraggableModule -->
<g id="node5" class="node">
<title>DraggableModule</title>
<polygon fill="#8dd3c7" stroke="#000000" points="141.8515,-122 138.8515,-126 117.8515,-126 114.8515,-122 24.1485,-122 24.1485,-86 141.8515,-86 141.8515,-122"/>
<text text-anchor="middle" x="83" y="-99.8" font-family="Times,serif" font-size="14.00" fill="#000000">DraggableModule</text>
</g>
<!-- DraggableModule&#45;&gt;FileUploadModule -->
<g id="edge4" class="edge">
<title>DraggableModule&#45;&gt;FileUploadModule</title>
<path fill="none" stroke="#000000" d="M128.0398,-122.1061C128.0398,-141.3391 128.0398,-169 128.0398,-169 128.0398,-169 228.8891,-169 228.8891,-169"/>
<polygon fill="#000000" stroke="#000000" points="228.8891,-172.5001 238.8891,-169 228.889,-165.5001 228.8891,-172.5001"/>
</g>
</g>
</svg>
