<?xml version="1.0" encoding="UTF-8" standalone="no"?>
<!DOCTYPE svg PUBLIC "-//W3C//DTD SVG 1.1//EN"
 "http://www.w3.org/Graphics/SVG/1.1/DTD/svg11.dtd">
<!-- Generated by graphviz version 2.40.1 (20161225.0304)
 -->
<!-- Title: dependencies Pages: 1 -->
<svg width="1537pt" height="284pt"
 viewBox="0.00 0.00 1537.00 284.00" xmlns="http://www.w3.org/2000/svg" xmlns:xlink="http://www.w3.org/1999/xlink">
<g id="graph0" class="graph" transform="scale(1 1) rotate(0) translate(4 280)">
<title>dependencies</title>
<polygon fill="#ffffff" stroke="transparent" points="-4,4 -4,-280 1533,-280 1533,4 -4,4"/>
<text text-anchor="start" x="743.5091" y="-42.4" font-family="sans-serif" font-weight="bold" font-size="14.00" fill="#000000">Legend</text>
<polygon fill="#ffffb3" stroke="transparent" points="530.5,-10 530.5,-30 550.5,-30 550.5,-10 530.5,-10"/>
<text text-anchor="start" x="554.129" y="-15.4" font-family="sans-serif" font-size="14.00" fill="#000000"> &#160;Declarations</text>
<polygon fill="#8dd3c7" stroke="transparent" points="643.5,-10 643.5,-30 663.5,-30 663.5,-10 643.5,-10"/>
<text text-anchor="start" x="667.2251" y="-15.4" font-family="sans-serif" font-size="14.00" fill="#000000"> &#160;Module</text>
<polygon fill="#80b1d3" stroke="transparent" points="729.5,-10 729.5,-30 749.5,-30 749.5,-10 729.5,-10"/>
<text text-anchor="start" x="753.2812" y="-15.4" font-family="sans-serif" font-size="14.00" fill="#000000"> &#160;Bootstrap</text>
<polygon fill="#fdb462" stroke="transparent" points="826.5,-10 826.5,-30 846.5,-30 846.5,-10 826.5,-10"/>
<text text-anchor="start" x="850.1732" y="-15.4" font-family="sans-serif" font-size="14.00" fill="#000000"> &#160;Providers</text>
<polygon fill="#fb8072" stroke="transparent" points="922.5,-10 922.5,-30 942.5,-30 942.5,-10 922.5,-10"/>
<text text-anchor="start" x="946.2258" y="-15.4" font-family="sans-serif" font-size="14.00" fill="#000000"> &#160;Exports</text>
<g id="clust1" class="cluster">
<title>cluster_FileUploadModule</title>
<polygon fill="none" stroke="#000000" stroke-dasharray="1,5" points="8,-70 8,-268 1521,-268 1521,-70 8,-70"/>
</g>
<g id="clust2" class="cluster">
<title>cluster_FileUploadModule_declarations</title>
<polygon fill="none" stroke="#000000" points="520,-78 520,-130 1513,-130 1513,-78 520,-78"/>
</g>
<g id="clust8" class="cluster">
<title>cluster_FileUploadModule_imports</title>
<polygon fill="none" stroke="#000000" points="16,-78 16,-130 512,-130 512,-78 16,-78"/>
</g>
<g id="clust9" class="cluster">
<title>cluster_FileUploadModule_exports</title>
<polygon fill="none" stroke="#000000" points="91,-208 91,-260 1101,-260 1101,-208 91,-208"/>
</g>
<!-- FileUploadComponent -->
<g id="node1" class="node">
<title>FileUploadComponent</title>
<polygon fill="#ffffb3" stroke="#000000" points="1505.323,-122 1360.677,-122 1360.677,-86 1505.323,-86 1505.323,-122"/>
<text text-anchor="middle" x="1433" y="-99.8" font-family="Times,serif" font-size="14.00" fill="#000000">FileUploadComponent</text>
</g>
<!-- FileUploadModule -->
<g id="node6" class="node">
<title>FileUploadModule</title>
<polygon fill="#8dd3c7" stroke="#000000" points="676.0409,-187 673.0409,-191 652.0409,-191 649.0409,-187 553.9591,-187 553.9591,-151 676.0409,-151 676.0409,-187"/>
<text text-anchor="middle" x="615" y="-164.8" font-family="Times,serif" font-size="14.00" fill="#000000">FileUploadModule</text>
</g>
<!-- FileUploadComponent&#45;&gt;FileUploadModule -->
<g id="edge1" class="edge">
<title>FileUploadComponent&#45;&gt;FileUploadModule</title>
<path fill="none" stroke="#000000" d="M1433,-122.2228C1433,-142.3652 1433,-172 1433,-172 1433,-172 686.1484,-172 686.1484,-172"/>
<polygon fill="#000000" stroke="#000000" points="686.1485,-168.5001 676.1484,-172 686.1484,-175.5001 686.1485,-168.5001"/>
</g>
<!-- FileUploadPreviewComponent -->
<g id="node2" class="node">
<title>FileUploadPreviewComponent</title>
<polygon fill="#ffffb3" stroke="#000000" points="1343.1923,-122 1152.8077,-122 1152.8077,-86 1343.1923,-86 1343.1923,-122"/>
<text text-anchor="middle" x="1248" y="-99.8" font-family="Times,serif" font-size="14.00" fill="#000000">FileUploadPreviewComponent</text>
</g>
<!-- FileUploadPreviewComponent&#45;&gt;FileUploadModule -->
<g id="edge2" class="edge">
<title>FileUploadPreviewComponent&#45;&gt;FileUploadModule</title>
<path fill="none" stroke="#000000" d="M1248,-122.2222C1248,-140.8285 1248,-167 1248,-167 1248,-167 686.2699,-167 686.2699,-167"/>
<polygon fill="#000000" stroke="#000000" points="686.2699,-163.5001 676.2699,-167 686.2698,-170.5001 686.2699,-163.5001"/>
</g>
<!-- UploadToolbarTmplComponent -->
<g id="node3" class="node">
<title>UploadToolbarTmplComponent</title>
<polygon fill="#ffffb3" stroke="#000000" points="1134.6965,-122 937.3035,-122 937.3035,-86 1134.6965,-86 1134.6965,-122"/>
<text text-anchor="middle" x="1036" y="-99.8" font-family="Times,serif" font-size="14.00" fill="#000000">UploadToolbarTmplComponent</text>
</g>
<!-- UploadToolbarTmplComponent&#45;&gt;FileUploadModule -->
<g id="edge3" class="edge">
<title>UploadToolbarTmplComponent&#45;&gt;FileUploadModule</title>
<path fill="none" stroke="#000000" d="M941.2453,-122.0336C941.2453,-139.0597 941.2453,-162 941.2453,-162 941.2453,-162 686.3642,-162 686.3642,-162"/>
<polygon fill="#000000" stroke="#000000" points="686.3643,-158.5001 676.3642,-162 686.3642,-165.5001 686.3643,-158.5001"/>
</g>
<!-- UploadPreviewTmplComponent -->
<g id="node4" class="node">
<title>UploadPreviewTmplComponent</title>
<polygon fill="#ffffb3" stroke="#000000" points="919.2478,-122 720.7522,-122 720.7522,-86 919.2478,-86 919.2478,-122"/>
<text text-anchor="middle" x="820" y="-99.8" font-family="Times,serif" font-size="14.00" fill="#000000">UploadPreviewTmplComponent</text>
</g>
<!-- UploadPreviewTmplComponent&#45;&gt;FileUploadModule -->
<g id="edge4" class="edge">
<title>UploadPreviewTmplComponent&#45;&gt;FileUploadModule</title>
<path fill="none" stroke="#000000" d="M726.8901,-122.2396C726.8901,-137.5706 726.8901,-157 726.8901,-157 726.8901,-157 686.183,-157 686.183,-157"/>
<polygon fill="#000000" stroke="#000000" points="686.1831,-153.5001 676.183,-157 686.183,-160.5001 686.1831,-153.5001"/>
</g>
<!-- UploadFileTmplComponent -->
<g id="node5" class="node">
<title>UploadFileTmplComponent</title>
<polygon fill="#ffffb3" stroke="#000000" points="702.1567,-122 527.8433,-122 527.8433,-86 702.1567,-86 702.1567,-122"/>
<text text-anchor="middle" x="615" y="-99.8" font-family="Times,serif" font-size="14.00" fill="#000000">UploadFileTmplComponent</text>
</g>
<!-- UploadFileTmplComponent&#45;&gt;FileUploadModule -->
<g id="edge5" class="edge">
<title>UploadFileTmplComponent&#45;&gt;FileUploadModule</title>
<path fill="none" stroke="#000000" d="M615,-122.1061C615,-122.1061 615,-140.991 615,-140.991"/>
<polygon fill="#000000" stroke="#000000" points="611.5001,-140.9909 615,-150.991 618.5001,-140.991 611.5001,-140.9909"/>
</g>
<!-- FileUploadComponent  -->
<g id="node11" class="node">
<title>FileUploadComponent </title>
<polygon fill="#fb8072" stroke="#000000" points="1092.8227,-252 945.1773,-252 945.1773,-216 1092.8227,-216 1092.8227,-252"/>
<text text-anchor="middle" x="1019" y="-229.8" font-family="Times,serif" font-size="14.00" fill="#000000">FileUploadComponent </text>
</g>
<!-- FileUploadModule&#45;&gt;FileUploadComponent  -->
<g id="edge10" class="edge">
<title>FileUploadModule&#45;&gt;FileUploadComponent </title>
<path fill="none" stroke="#000000" stroke-dasharray="5,2" d="M676.3589,-177C789.3766,-177 1019,-177 1019,-177 1019,-177 1019,-205.9648 1019,-205.9648"/>
<polygon fill="#000000" stroke="#000000" points="1015.5001,-205.9648 1019,-215.9648 1022.5001,-205.9649 1015.5001,-205.9648"/>
</g>
<!-- FileUploadPreviewComponent  -->
<g id="node12" class="node">
<title>FileUploadPreviewComponent </title>
<polygon fill="#fb8072" stroke="#000000" points="926.6924,-252 733.3076,-252 733.3076,-216 926.6924,-216 926.6924,-252"/>
<text text-anchor="middle" x="830" y="-229.8" font-family="Times,serif" font-size="14.00" fill="#000000">FileUploadPreviewComponent </text>
</g>
<!-- FileUploadModule&#45;&gt;FileUploadPreviewComponent  -->
<g id="edge11" class="edge">
<title>FileUploadModule&#45;&gt;FileUploadPreviewComponent </title>
<path fill="none" stroke="#000000" stroke-dasharray="5,2" d="M676.1063,-182C738.5005,-182 826.2639,-182 826.2639,-182 826.2639,-182 826.2639,-205.8129 826.2639,-205.8129"/>
<polygon fill="#000000" stroke="#000000" points="822.7639,-205.8129 826.2639,-215.8129 829.7639,-205.813 822.7639,-205.8129"/>
</g>
<!-- UploadToolbarTmplComponent  -->
<g id="node13" class="node">
<title>UploadToolbarTmplComponent </title>
<polygon fill="#fb8072" stroke="#000000" points="715.1966,-252 514.8034,-252 514.8034,-216 715.1966,-216 715.1966,-252"/>
<text text-anchor="middle" x="615" y="-229.8" font-family="Times,serif" font-size="14.00" fill="#000000">UploadToolbarTmplComponent </text>
</g>
<!-- FileUploadModule&#45;&gt;UploadToolbarTmplComponent  -->
<g id="edge12" class="edge">
<title>FileUploadModule&#45;&gt;UploadToolbarTmplComponent </title>
<path fill="none" stroke="#000000" stroke-dasharray="5,2" d="M615,-187.1061C615,-187.1061 615,-205.991 615,-205.991"/>
<polygon fill="#000000" stroke="#000000" points="611.5001,-205.9909 615,-215.991 618.5001,-205.991 611.5001,-205.9909"/>
</g>
<!-- UploadPreviewTmplComponent  -->
<g id="node14" class="node">
<title>UploadPreviewTmplComponent </title>
<polygon fill="#fb8072" stroke="#000000" points="497.2478,-252 294.7522,-252 294.7522,-216 497.2478,-216 497.2478,-252"/>
<text text-anchor="middle" x="396" y="-229.8" font-family="Times,serif" font-size="14.00" fill="#000000">UploadPreviewTmplComponent </text>
</g>
<!-- FileUploadModule&#45;&gt;UploadPreviewTmplComponent  -->
<g id="edge13" class="edge">
<title>FileUploadModule&#45;&gt;UploadPreviewTmplComponent </title>
<path fill="none" stroke="#000000" stroke-dasharray="5,2" d="M553.7515,-182C498.9338,-182 427.1521,-182 427.1521,-182 427.1521,-182 427.1521,-205.8129 427.1521,-205.8129"/>
<polygon fill="#000000" stroke="#000000" points="423.6522,-205.8129 427.1521,-215.8129 430.6522,-205.813 423.6522,-205.8129"/>
</g>
<!-- UploadFileTmplComponent  -->
<g id="node15" class="node">
<title>UploadFileTmplComponent </title>
<polygon fill="#fb8072" stroke="#000000" points="277.1565,-252 98.8435,-252 98.8435,-216 277.1565,-216 277.1565,-252"/>
<text text-anchor="middle" x="188" y="-229.8" font-family="Times,serif" font-size="14.00" fill="#000000">UploadFileTmplComponent </text>
</g>
<!-- FileUploadModule&#45;&gt;UploadFileTmplComponent  -->
<g id="edge14" class="edge">
<title>FileUploadModule&#45;&gt;UploadFileTmplComponent </title>
<path fill="none" stroke="#000000" stroke-dasharray="5,2" d="M553.8289,-177C437.8342,-177 197.3918,-177 197.3918,-177 197.3918,-177 197.3918,-205.9648 197.3918,-205.9648"/>
<polygon fill="#000000" stroke="#000000" points="193.8917,-205.9649 197.3918,-215.9648 200.8917,-205.9648 193.8917,-205.9649"/>
</g>
<!-- CommonModule -->
<g id="node7" class="node">
<title>CommonModule</title>
<polygon fill="#8dd3c7" stroke="#000000" points="503.6681,-122 500.6681,-126 479.6681,-126 476.6681,-122 392.3319,-122 392.3319,-86 503.6681,-86 503.6681,-122"/>
<text text-anchor="middle" x="448" y="-99.8" font-family="Times,serif" font-size="14.00" fill="#000000">CommonModule</text>
</g>
<!-- CommonModule&#45;&gt;FileUploadModule -->
<g id="edge6" class="edge">
<title>CommonModule&#45;&gt;FileUploadModule</title>
<path fill="none" stroke="#000000" d="M462.1379,-122.2396C462.1379,-137.5706 462.1379,-157 462.1379,-157 462.1379,-157 543.7059,-157 543.7059,-157"/>
<polygon fill="#000000" stroke="#000000" points="543.706,-160.5001 553.7059,-157 543.7059,-153.5001 543.706,-160.5001"/>
</g>
<!-- HttpModule -->
<g id="node8" class="node">
<title>HttpModule</title>
<polygon fill="#8dd3c7" stroke="#000000" points="374.4387,-122 371.4387,-126 350.4387,-126 347.4387,-122 289.5613,-122 289.5613,-86 374.4387,-86 374.4387,-122"/>
<text text-anchor="middle" x="332" y="-99.8" font-family="Times,serif" font-size="14.00" fill="#000000">HttpModule</text>
</g>
<!-- HttpModule&#45;&gt;FileUploadModule -->
<g id="edge7" class="edge">
<title>HttpModule&#45;&gt;FileUploadModule</title>
<path fill="none" stroke="#000000" d="M334.5475,-122.0336C334.5475,-139.0597 334.5475,-162 334.5475,-162 334.5475,-162 543.8001,-162 543.8001,-162"/>
<polygon fill="#000000" stroke="#000000" points="543.8001,-165.5001 553.8001,-162 543.8,-158.5001 543.8001,-165.5001"/>
</g>
<!-- AlertBoxModule -->
<g id="node9" class="node">
<title>AlertBoxModule</title>
<polygon fill="#8dd3c7" stroke="#000000" points="271.6499,-122 268.6499,-126 247.6499,-126 244.6499,-122 160.3501,-122 160.3501,-86 271.6499,-86 271.6499,-122"/>
<text text-anchor="middle" x="216" y="-99.8" font-family="Times,serif" font-size="14.00" fill="#000000">AlertBoxModule</text>
</g>
<!-- AlertBoxModule&#45;&gt;FileUploadModule -->
<g id="edge8" class="edge">
<title>AlertBoxModule&#45;&gt;FileUploadModule</title>
<path fill="none" stroke="#000000" d="M234.6082,-122.2222C234.6082,-140.8285 234.6082,-167 234.6082,-167 234.6082,-167 543.8835,-167 543.8835,-167"/>
<polygon fill="#000000" stroke="#000000" points="543.8835,-170.5001 553.8835,-167 543.8834,-163.5001 543.8835,-170.5001"/>
</g>
<!-- DraggableModule -->
<g id="node10" class="node">
<title>DraggableModule</title>
<polygon fill="#8dd3c7" stroke="#000000" points="141.8515,-122 138.8515,-126 117.8515,-126 114.8515,-122 24.1485,-122 24.1485,-86 141.8515,-86 141.8515,-122"/>
<text text-anchor="middle" x="83" y="-99.8" font-family="Times,serif" font-size="14.00" fill="#000000">DraggableModule</text>
</g>
<!-- DraggableModule&#45;&gt;FileUploadModule -->
<g id="edge9" class="edge">
<title>DraggableModule&#45;&gt;FileUploadModule</title>
<path fill="none" stroke="#000000" d="M120.4238,-122.2228C120.4238,-142.3652 120.4238,-172 120.4238,-172 120.4238,-172 543.8592,-172 543.8592,-172"/>
<polygon fill="#000000" stroke="#000000" points="543.8592,-175.5001 553.8592,-172 543.8592,-168.5001 543.8592,-175.5001"/>
</g>
</g>
</svg>
