<?xml version="1.0" encoding="UTF-8" standalone="no"?>
<!DOCTYPE svg PUBLIC "-//W3C//DTD SVG 1.1//EN"
 "http://www.w3.org/Graphics/SVG/1.1/DTD/svg11.dtd">
<!-- Generated by graphviz version 2.40.1 (20161225.0304)
 -->
<!-- Title: dependencies Pages: 1 -->
<svg width="822pt" height="396pt"
 viewBox="0.00 0.00 822.00 395.59" xmlns="http://www.w3.org/2000/svg" xmlns:xlink="http://www.w3.org/1999/xlink">
<g id="graph0" class="graph" transform="scale(1 1) rotate(0) translate(4 391.5901)">
<title>dependencies</title>
<polygon fill="#ffffff" stroke="transparent" points="-4,4 -4,-391.5901 818,-391.5901 818,4 -4,4"/>
<text text-anchor="start" x="386.0091" y="-42.4" font-family="sans-serif" font-weight="bold" font-size="14.00" fill="#000000">Legend</text>
<polygon fill="#ffffb3" stroke="transparent" points="173,-10 173,-30 193,-30 193,-10 173,-10"/>
<text text-anchor="start" x="196.629" y="-15.4" font-family="sans-serif" font-size="14.00" fill="#000000"> &#160;Declarations</text>
<polygon fill="#8dd3c7" stroke="transparent" points="286,-10 286,-30 306,-30 306,-10 286,-10"/>
<text text-anchor="start" x="309.7251" y="-15.4" font-family="sans-serif" font-size="14.00" fill="#000000"> &#160;Module</text>
<polygon fill="#80b1d3" stroke="transparent" points="372,-10 372,-30 392,-30 392,-10 372,-10"/>
<text text-anchor="start" x="395.7812" y="-15.4" font-family="sans-serif" font-size="14.00" fill="#000000"> &#160;Bootstrap</text>
<polygon fill="#fdb462" stroke="transparent" points="469,-10 469,-30 489,-30 489,-10 469,-10"/>
<text text-anchor="start" x="492.6732" y="-15.4" font-family="sans-serif" font-size="14.00" fill="#000000"> &#160;Providers</text>
<polygon fill="#fb8072" stroke="transparent" points="565,-10 565,-30 585,-30 585,-10 565,-10"/>
<text text-anchor="start" x="588.7258" y="-15.4" font-family="sans-serif" font-size="14.00" fill="#000000"> &#160;Exports</text>
<g id="clust1" class="cluster">
<title>cluster_AutoCompleteModule</title>
<polygon fill="none" stroke="#000000" stroke-dasharray="1,5" points="8,-70 8,-379.5901 806,-379.5901 806,-70 8,-70"/>
</g>
<g id="clust2" class="cluster">
<title>cluster_AutoCompleteModule_declarations</title>
<polygon fill="none" stroke="#000000" points="25,-189.5901 25,-241.5901 791,-241.5901 791,-189.5901 25,-189.5901"/>
</g>
<g id="clust3" class="cluster">
<title>cluster_AutoCompleteModule_AutoCompleteDirective_providers</title>
<polygon fill="none" stroke="#000000" points="509,-78 509,-176.5901 707,-176.5901 707,-78 509,-78"/>
</g>
<g id="clust8" class="cluster">
<title>cluster_AutoCompleteModule_exports</title>
<polygon fill="none" stroke="#000000" points="16,-319.5901 16,-371.5901 798,-371.5901 798,-319.5901 16,-319.5901"/>
</g>
<!-- AutoCompleteDirective -->
<g id="node1" class="node">
<title>AutoCompleteDirective</title>
<polygon fill="#ffffb3" stroke="#000000" points="783.0184,-233.5901 632.9816,-233.5901 632.9816,-197.5901 783.0184,-197.5901 783.0184,-233.5901"/>
<text text-anchor="middle" x="708" y="-211.3901" font-family="Times,serif" font-size="14.00" fill="#000000">AutoCompleteDirective</text>
</g>
<!-- AutoCompleteModule -->
<g id="node5" class="node">
<title>AutoCompleteModule</title>
<polygon fill="#8dd3c7" stroke="#000000" points="401.9846,-298.5901 398.9846,-302.5901 377.9846,-302.5901 374.9846,-298.5901 260.0154,-298.5901 260.0154,-262.5901 401.9846,-262.5901 401.9846,-298.5901"/>
<text text-anchor="middle" x="331" y="-276.3901" font-family="Times,serif" font-size="14.00" fill="#000000">AutoCompleteModule</text>
</g>
<!-- AutoCompleteDirective&#45;&gt;AutoCompleteModule -->
<g id="edge1" class="edge">
<title>AutoCompleteDirective&#45;&gt;AutoCompleteModule</title>
<path fill="none" stroke="#000000" d="M734.1696,-233.8568C734.1696,-252.1452 734.1696,-277.5901 734.1696,-277.5901 734.1696,-277.5901 412.1506,-277.5901 412.1506,-277.5901"/>
<polygon fill="#000000" stroke="#000000" points="412.1506,-274.0902 402.1506,-277.5901 412.1505,-281.0902 412.1506,-274.0902"/>
</g>
<!-- AutoCompletePopupComponent -->
<g id="node2" class="node">
<title>AutoCompletePopupComponent</title>
<polygon fill="#ffffb3" stroke="#000000" points="614.5503,-233.5901 415.4497,-233.5901 415.4497,-197.5901 614.5503,-197.5901 614.5503,-233.5901"/>
<text text-anchor="middle" x="515" y="-211.3901" font-family="Times,serif" font-size="14.00" fill="#000000">AutoCompletePopupComponent</text>
</g>
<!-- AutoCompletePopupComponent&#45;&gt;AutoCompleteModule -->
<g id="edge3" class="edge">
<title>AutoCompletePopupComponent&#45;&gt;AutoCompleteModule</title>
<path fill="none" stroke="#000000" d="M548.2583,-233.5991C548.2583,-249.6394 548.2583,-270.5901 548.2583,-270.5901 548.2583,-270.5901 412.1385,-270.5901 412.1385,-270.5901"/>
<polygon fill="#000000" stroke="#000000" points="412.1385,-267.0902 402.1385,-270.5901 412.1385,-274.0902 412.1385,-267.0902"/>
</g>
<!-- HightlightComponent -->
<g id="node3" class="node">
<title>HightlightComponent</title>
<polygon fill="#ffffb3" stroke="#000000" points="397.392,-233.5901 258.608,-233.5901 258.608,-197.5901 397.392,-197.5901 397.392,-233.5901"/>
<text text-anchor="middle" x="328" y="-211.3901" font-family="Times,serif" font-size="14.00" fill="#000000">HightlightComponent</text>
</g>
<!-- HightlightComponent&#45;&gt;AutoCompleteModule -->
<g id="edge5" class="edge">
<title>HightlightComponent&#45;&gt;AutoCompleteModule</title>
<path fill="none" stroke="#000000" d="M328.7269,-233.6962C328.7269,-233.6962 328.7269,-252.581 328.7269,-252.581"/>
<polygon fill="#000000" stroke="#000000" points="325.2269,-252.581 328.7269,-262.581 332.2269,-252.5811 325.2269,-252.581"/>
</g>
<!-- MutipleAutoCompleteComponent -->
<g id="node4" class="node">
<title>MutipleAutoCompleteComponent</title>
<polygon fill="#ffffb3" stroke="#000000" points="241.0982,-233.5901 32.9018,-233.5901 32.9018,-197.5901 241.0982,-197.5901 241.0982,-233.5901"/>
<text text-anchor="middle" x="137" y="-211.3901" font-family="Times,serif" font-size="14.00" fill="#000000">MutipleAutoCompleteComponent</text>
</g>
<!-- MutipleAutoCompleteComponent&#45;&gt;AutoCompleteModule -->
<g id="edge6" class="edge">
<title>MutipleAutoCompleteComponent&#45;&gt;AutoCompleteModule</title>
<path fill="none" stroke="#000000" d="M168.183,-233.6126C168.183,-250.9634 168.183,-274.5901 168.183,-274.5901 168.183,-274.5901 249.5861,-274.5901 249.5861,-274.5901"/>
<polygon fill="#000000" stroke="#000000" points="249.5861,-278.0902 259.5861,-274.5901 249.5861,-271.0902 249.5861,-278.0902"/>
</g>
<!-- AutoCompleteDirective  -->
<g id="node7" class="node">
<title>AutoCompleteDirective </title>
<polygon fill="#fb8072" stroke="#000000" points="790.0176,-363.5901 635.9824,-363.5901 635.9824,-327.5901 790.0176,-327.5901 790.0176,-363.5901"/>
<text text-anchor="middle" x="713" y="-341.3901" font-family="Times,serif" font-size="14.00" fill="#000000">AutoCompleteDirective </text>
</g>
<!-- AutoCompleteModule&#45;&gt;AutoCompleteDirective  -->
<g id="edge7" class="edge">
<title>AutoCompleteModule&#45;&gt;AutoCompleteDirective </title>
<path fill="none" stroke="#000000" stroke-dasharray="5,2" d="M402.2275,-284.5901C505.6248,-284.5901 685.0804,-284.5901 685.0804,-284.5901 685.0804,-284.5901 685.0804,-317.2881 685.0804,-317.2881"/>
<polygon fill="#000000" stroke="#000000" points="681.5805,-317.288 685.0804,-327.2881 688.5805,-317.2881 681.5805,-317.288"/>
</g>
<!-- AutoCompletePopupComponent  -->
<g id="node8" class="node">
<title>AutoCompletePopupComponent </title>
<polygon fill="#fb8072" stroke="#000000" points="617.5498,-363.5901 414.4502,-363.5901 414.4502,-327.5901 617.5498,-327.5901 617.5498,-363.5901"/>
<text text-anchor="middle" x="516" y="-341.3901" font-family="Times,serif" font-size="14.00" fill="#000000">AutoCompletePopupComponent </text>
</g>
<!-- AutoCompleteModule&#45;&gt;AutoCompletePopupComponent  -->
<g id="edge8" class="edge">
<title>AutoCompleteModule&#45;&gt;AutoCompletePopupComponent </title>
<path fill="none" stroke="#000000" stroke-dasharray="5,2" d="M402.3979,-291.5901C441.3599,-291.5901 481.7417,-291.5901 481.7417,-291.5901 481.7417,-291.5901 481.7417,-317.3081 481.7417,-317.3081"/>
<polygon fill="#000000" stroke="#000000" points="478.2418,-317.3081 481.7417,-327.3081 485.2418,-317.3082 478.2418,-317.3081"/>
</g>
<!-- HightlightComponent  -->
<g id="node9" class="node">
<title>HightlightComponent </title>
<polygon fill="#fb8072" stroke="#000000" points="396.3925,-363.5901 253.6075,-363.5901 253.6075,-327.5901 396.3925,-327.5901 396.3925,-363.5901"/>
<text text-anchor="middle" x="325" y="-341.3901" font-family="Times,serif" font-size="14.00" fill="#000000">HightlightComponent </text>
</g>
<!-- AutoCompleteModule&#45;&gt;HightlightComponent  -->
<g id="edge9" class="edge">
<title>AutoCompleteModule&#45;&gt;HightlightComponent </title>
<path fill="none" stroke="#000000" stroke-dasharray="5,2" d="M328.1019,-298.6962C328.1019,-298.6962 328.1019,-317.581 328.1019,-317.581"/>
<polygon fill="#000000" stroke="#000000" points="324.6019,-317.581 328.1019,-327.581 331.6019,-317.5811 324.6019,-317.581"/>
</g>
<!-- MutipleAutoCompleteComponent  -->
<g id="node10" class="node">
<title>MutipleAutoCompleteComponent </title>
<polygon fill="#fb8072" stroke="#000000" points="235.5986,-363.5901 24.4014,-363.5901 24.4014,-327.5901 235.5986,-327.5901 235.5986,-363.5901"/>
<text text-anchor="middle" x="130" y="-341.3901" font-family="Times,serif" font-size="14.00" fill="#000000">MutipleAutoCompleteComponent </text>
</g>
<!-- AutoCompleteModule&#45;&gt;MutipleAutoCompleteComponent  -->
<g id="edge10" class="edge">
<title>AutoCompleteModule&#45;&gt;MutipleAutoCompleteComponent </title>
<path fill="none" stroke="#000000" stroke-dasharray="5,2" d="M259.9822,-286.5901C192.2755,-286.5901 100.567,-286.5901 100.567,-286.5901 100.567,-286.5901 100.567,-317.5675 100.567,-317.5675"/>
<polygon fill="#000000" stroke="#000000" points="97.0671,-317.5675 100.567,-327.5675 104.0671,-317.5676 97.0671,-317.5675"/>
</g>
<!-- {
 &#160;&#160;&#160;: , : (() =&gt; ), : true
} -->
<g id="node6" class="node">
<title>{
 &#160;&#160;&#160;: , : (() =&gt; ), : true
}</title>
<ellipse fill="#fdb462" stroke="#000000" cx="608" cy="-127.295" rx="91.4557" ry="41.0911"/>
<text text-anchor="middle" x="608" y="-139.895" font-family="Times,serif" font-size="14.00" fill="#000000">{</text>
<text text-anchor="middle" x="608" y="-123.095" font-family="Times,serif" font-size="14.00" fill="#000000"> &#160;&#160;&#160;: , : (() =&gt; ), : true</text>
<text text-anchor="middle" x="608" y="-106.295" font-family="Times,serif" font-size="14.00" fill="#000000">}</text>
</g>
<!-- {
 &#160;&#160;&#160;: , : (() =&gt; ), : true
}&#45;&gt;AutoCompleteDirective -->
<g id="edge2" class="edge">
<title>{
 &#160;&#160;&#160;: , : (() =&gt; ), : true
}&#45;&gt;AutoCompleteDirective</title>
<path fill="none" stroke="#000000" d="M666.1095,-159.4213C666.1095,-159.4213 666.1095,-187.4808 666.1095,-187.4808"/>
<polygon fill="#000000" stroke="#000000" points="662.6096,-187.4808 666.1095,-197.4808 669.6096,-187.4809 662.6096,-187.4808"/>
</g>
<!-- {
 &#160;&#160;&#160;: , : (() =&gt; ), : true
}&#45;&gt;AutoCompletePopupComponent -->
<g id="edge4" class="edge">
<title>{
 &#160;&#160;&#160;: , : (() =&gt; ), : true
}&#45;&gt;AutoCompletePopupComponent</title>
<path fill="none" stroke="#000000" d="M565.6485,-163.973C565.6485,-163.973 565.6485,-187.4708 565.6485,-187.4708"/>
<polygon fill="#000000" stroke="#000000" points="562.1486,-187.4708 565.6485,-197.4708 569.1486,-187.4709 562.1486,-187.4708"/>
</g>
</g>
</svg>
