<?xml version="1.0" encoding="UTF-8" standalone="no"?>
<!DOCTYPE svg PUBLIC "-//W3C//DTD SVG 1.1//EN"
 "http://www.w3.org/Graphics/SVG/1.1/DTD/svg11.dtd">
<!-- Generated by graphviz version 2.40.1 (20161225.0304)
 -->
<!-- Title: dependencies Pages: 1 -->
<svg width="822pt" height="349pt"
 viewBox="0.00 0.00 822.00 349.00" xmlns="http://www.w3.org/2000/svg" xmlns:xlink="http://www.w3.org/1999/xlink">
<g id="graph0" class="graph" transform="scale(1 1) rotate(0) translate(4 345)">
<title>dependencies</title>
<polygon fill="#ffffff" stroke="transparent" points="-4,4 -4,-345 818,-345 818,4 -4,4"/>
<text text-anchor="start" x="386.0091" y="-42.4" font-family="sans-serif" font-weight="bold" font-size="14.00" fill="#000000">Legend</text>
<polygon fill="#ffffb3" stroke="transparent" points="173,-10 173,-30 193,-30 193,-10 173,-10"/>
<text text-anchor="start" x="196.629" y="-15.4" font-family="sans-serif" font-size="14.00" fill="#000000"> &#160;Declarations</text>
<polygon fill="#8dd3c7" stroke="transparent" points="286,-10 286,-30 306,-30 306,-10 286,-10"/>
<text text-anchor="start" x="309.7251" y="-15.4" font-family="sans-serif" font-size="14.00" fill="#000000"> &#160;Module</text>
<polygon fill="#80b1d3" stroke="transparent" points="372,-10 372,-30 392,-30 392,-10 372,-10"/>
<text text-anchor="start" x="395.7812" y="-15.4" font-family="sans-serif" font-size="14.00" fill="#000000"> &#160;Bootstrap</text>
<polygon fill="#fdb462" stroke="transparent" points="469,-10 469,-30 489,-30 489,-10 469,-10"/>
<text text-anchor="start" x="492.6732" y="-15.4" font-family="sans-serif" font-size="14.00" fill="#000000"> &#160;Providers</text>
<polygon fill="#fb8072" stroke="transparent" points="565,-10 565,-30 585,-30 585,-10 565,-10"/>
<text text-anchor="start" x="588.7258" y="-15.4" font-family="sans-serif" font-size="14.00" fill="#000000"> &#160;Exports</text>
<g id="clust1" class="cluster">
<title>cluster_AutoCompleteModule</title>
<polygon fill="none" stroke="#000000" stroke-dasharray="1,5" points="8,-70 8,-333 806,-333 806,-70 8,-70"/>
</g>
<g id="clust2" class="cluster">
<title>cluster_AutoCompleteModule_declarations</title>
<polygon fill="none" stroke="#000000" points="19,-143 19,-195 785,-195 785,-143 19,-143"/>
</g>
<g id="clust4" class="cluster">
<title>cluster_AutoCompleteModule_AutoCompletePopupComponent_providers</title>
<polygon fill="none" stroke="#000000" points="250,-78 250,-130 768,-130 768,-78 250,-78"/>
</g>
<g id="clust8" class="cluster">
<title>cluster_AutoCompleteModule_exports</title>
<polygon fill="none" stroke="#000000" points="16,-273 16,-325 798,-325 798,-273 16,-273"/>
</g>
<!-- AutoCompleteDirective -->
<g id="node1" class="node">
<title>AutoCompleteDirective</title>
<polygon fill="#ffffb3" stroke="#000000" points="777.0184,-187 626.9816,-187 626.9816,-151 777.0184,-151 777.0184,-187"/>
<text text-anchor="middle" x="702" y="-164.8" font-family="Times,serif" font-size="14.00" fill="#000000">AutoCompleteDirective</text>
</g>
<!-- AutoCompleteModule -->
<g id="node5" class="node">
<title>AutoCompleteModule</title>
<polygon fill="#8dd3c7" stroke="#000000" points="487.9846,-252 484.9846,-256 463.9846,-256 460.9846,-252 346.0154,-252 346.0154,-216 487.9846,-216 487.9846,-252"/>
<text text-anchor="middle" x="417" y="-229.8" font-family="Times,serif" font-size="14.00" fill="#000000">AutoCompleteModule</text>
</g>
<!-- AutoCompleteDirective&#45;&gt;AutoCompleteModule -->
<g id="edge1" class="edge">
<title>AutoCompleteDirective&#45;&gt;AutoCompleteModule</title>
<path fill="none" stroke="#000000" d="M631.3662,-187.0225C631.3662,-204.3734 631.3662,-228 631.3662,-228 631.3662,-228 498.0831,-228 498.0831,-228"/>
<polygon fill="#000000" stroke="#000000" points="498.0831,-224.5001 488.0831,-228 498.0831,-231.5001 498.0831,-224.5001"/>
</g>
<!-- AutoCompletePopupComponent -->
<g id="node2" class="node">
<title>AutoCompletePopupComponent</title>
<polygon fill="#ffffb3" stroke="#000000" points="608.5503,-187 409.4497,-187 409.4497,-151 608.5503,-151 608.5503,-187"/>
<text text-anchor="middle" x="509" y="-164.8" font-family="Times,serif" font-size="14.00" fill="#000000">AutoCompletePopupComponent</text>
</g>
<!-- AutoCompletePopupComponent&#45;&gt;AutoCompleteModule -->
<g id="edge2" class="edge">
<title>AutoCompletePopupComponent&#45;&gt;AutoCompleteModule</title>
<path fill="none" stroke="#000000" d="M448.6087,-187.1061C448.6087,-187.1061 448.6087,-205.991 448.6087,-205.991"/>
<polygon fill="#000000" stroke="#000000" points="445.1088,-205.9909 448.6087,-215.991 452.1088,-205.991 445.1088,-205.9909"/>
</g>
<!-- HightlightComponent -->
<g id="node3" class="node">
<title>HightlightComponent</title>
<polygon fill="#ffffb3" stroke="#000000" points="391.392,-187 252.608,-187 252.608,-151 391.392,-151 391.392,-187"/>
<text text-anchor="middle" x="322" y="-164.8" font-family="Times,serif" font-size="14.00" fill="#000000">HightlightComponent</text>
</g>
<!-- HightlightComponent&#45;&gt;AutoCompleteModule -->
<g id="edge4" class="edge">
<title>HightlightComponent&#45;&gt;AutoCompleteModule</title>
<path fill="none" stroke="#000000" d="M368.7269,-187.1061C368.7269,-187.1061 368.7269,-205.991 368.7269,-205.991"/>
<polygon fill="#000000" stroke="#000000" points="365.2269,-205.9909 368.7269,-215.991 372.2269,-205.991 365.2269,-205.9909"/>
</g>
<!-- MutipleAutoCompleteComponent -->
<g id="node4" class="node">
<title>MutipleAutoCompleteComponent</title>
<polygon fill="#ffffb3" stroke="#000000" points="235.0982,-187 26.9018,-187 26.9018,-151 235.0982,-151 235.0982,-187"/>
<text text-anchor="middle" x="131" y="-164.8" font-family="Times,serif" font-size="14.00" fill="#000000">MutipleAutoCompleteComponent</text>
</g>
<!-- MutipleAutoCompleteComponent&#45;&gt;AutoCompleteModule -->
<g id="edge5" class="edge">
<title>MutipleAutoCompleteComponent&#45;&gt;AutoCompleteModule</title>
<path fill="none" stroke="#000000" d="M165.683,-187.0225C165.683,-204.3734 165.683,-228 165.683,-228 165.683,-228 335.9904,-228 335.9904,-228"/>
<polygon fill="#000000" stroke="#000000" points="335.9904,-231.5001 345.9904,-228 335.9903,-224.5001 335.9904,-231.5001"/>
</g>
<!-- AutoCompleteDirective  -->
<g id="node7" class="node">
<title>AutoCompleteDirective </title>
<polygon fill="#fb8072" stroke="#000000" points="790.0176,-317 635.9824,-317 635.9824,-281 790.0176,-281 790.0176,-317"/>
<text text-anchor="middle" x="713" y="-294.8" font-family="Times,serif" font-size="14.00" fill="#000000">AutoCompleteDirective </text>
</g>
<!-- AutoCompleteModule&#45;&gt;AutoCompleteDirective  -->
<g id="edge6" class="edge">
<title>AutoCompleteModule&#45;&gt;AutoCompleteDirective </title>
<path fill="none" stroke="#000000" stroke-dasharray="5,2" d="M488.2212,-240C573.9764,-240 706.625,-240 706.625,-240 706.625,-240 706.625,-270.9775 706.625,-270.9775"/>
<polygon fill="#000000" stroke="#000000" points="703.1251,-270.9774 706.625,-280.9775 710.1251,-270.9775 703.1251,-270.9774"/>
</g>
<!-- AutoCompletePopupComponent  -->
<g id="node8" class="node">
<title>AutoCompletePopupComponent </title>
<polygon fill="#fb8072" stroke="#000000" points="617.5498,-317 414.4502,-317 414.4502,-281 617.5498,-281 617.5498,-317"/>
<text text-anchor="middle" x="516" y="-294.8" font-family="Times,serif" font-size="14.00" fill="#000000">AutoCompletePopupComponent </text>
</g>
<!-- AutoCompleteModule&#45;&gt;AutoCompletePopupComponent  -->
<g id="edge7" class="edge">
<title>AutoCompleteModule&#45;&gt;AutoCompletePopupComponent </title>
<path fill="none" stroke="#000000" stroke-dasharray="5,2" d="M451.2337,-252.1061C451.2337,-252.1061 451.2337,-270.991 451.2337,-270.991"/>
<polygon fill="#000000" stroke="#000000" points="447.7338,-270.9909 451.2337,-280.991 454.7338,-270.991 447.7338,-270.9909"/>
</g>
<!-- HightlightComponent  -->
<g id="node9" class="node">
<title>HightlightComponent </title>
<polygon fill="#fb8072" stroke="#000000" points="396.3925,-317 253.6075,-317 253.6075,-281 396.3925,-281 396.3925,-317"/>
<text text-anchor="middle" x="325" y="-294.8" font-family="Times,serif" font-size="14.00" fill="#000000">HightlightComponent </text>
</g>
<!-- AutoCompleteModule&#45;&gt;HightlightComponent  -->
<g id="edge8" class="edge">
<title>AutoCompleteModule&#45;&gt;HightlightComponent </title>
<path fill="none" stroke="#000000" stroke-dasharray="5,2" d="M371.1019,-252.1061C371.1019,-252.1061 371.1019,-270.991 371.1019,-270.991"/>
<polygon fill="#000000" stroke="#000000" points="367.6019,-270.9909 371.1019,-280.991 374.6019,-270.991 367.6019,-270.9909"/>
</g>
<!-- MutipleAutoCompleteComponent  -->
<g id="node10" class="node">
<title>MutipleAutoCompleteComponent </title>
<polygon fill="#fb8072" stroke="#000000" points="235.5986,-317 24.4014,-317 24.4014,-281 235.5986,-281 235.5986,-317"/>
<text text-anchor="middle" x="130" y="-294.8" font-family="Times,serif" font-size="14.00" fill="#000000">MutipleAutoCompleteComponent </text>
</g>
<!-- AutoCompleteModule&#45;&gt;MutipleAutoCompleteComponent  -->
<g id="edge9" class="edge">
<title>AutoCompleteModule&#45;&gt;MutipleAutoCompleteComponent </title>
<path fill="none" stroke="#000000" stroke-dasharray="5,2" d="M345.83,-240C251.3542,-240 96.317,-240 96.317,-240 96.317,-240 96.317,-270.9775 96.317,-270.9775"/>
<polygon fill="#000000" stroke="#000000" points="92.8169,-270.9775 96.317,-280.9775 99.8169,-270.9774 92.8169,-270.9775"/>
</g>
<!-- { provide: NG_VALUE_ACCESSOR, useExisting: , multi: &#160;} -->
<g id="node6" class="node">
<title>{ provide: NG_VALUE_ACCESSOR, useExisting: , multi: &#160;}</title>
<ellipse fill="#fdb462" stroke="#000000" cx="509" cy="-104" rx="251.4985" ry="18"/>
<text text-anchor="middle" x="509" y="-99.8" font-family="Times,serif" font-size="14.00" fill="#000000">{ provide: NG_VALUE_ACCESSOR, useExisting: , multi: &#160;}</text>
</g>
<!-- { provide: NG_VALUE_ACCESSOR, useExisting: , multi: &#160;}&#45;&gt;AutoCompletePopupComponent -->
<g id="edge3" class="edge">
<title>{ provide: NG_VALUE_ACCESSOR, useExisting: , multi: &#160;}&#45;&gt;AutoCompletePopupComponent</title>
<path fill="none" stroke="#000000" d="M509,-122.1061C509,-122.1061 509,-140.991 509,-140.991"/>
<polygon fill="#000000" stroke="#000000" points="505.5001,-140.9909 509,-150.991 512.5001,-140.991 505.5001,-140.9909"/>
</g>
</g>
</svg>
