<?xml version="1.0" encoding="UTF-8" standalone="no"?>
<!DOCTYPE svg PUBLIC "-//W3C//DTD SVG 1.1//EN"
 "http://www.w3.org/Graphics/SVG/1.1/DTD/svg11.dtd">
<!-- Generated by graphviz version 2.40.1 (20161225.0304)
 -->
<!-- Title: dependencies Pages: 1 -->
<svg width="822pt" height="284pt"
 viewBox="0.00 0.00 822.00 284.00" xmlns="http://www.w3.org/2000/svg" xmlns:xlink="http://www.w3.org/1999/xlink">
<g id="graph0" class="graph" transform="scale(1 1) rotate(0) translate(4 280)">
<title>dependencies</title>
<polygon fill="#ffffff" stroke="transparent" points="-4,4 -4,-280 818,-280 818,4 -4,4"/>
<text text-anchor="start" x="386.0091" y="-42.4" font-family="sans-serif" font-weight="bold" font-size="14.00" fill="#000000">Legend</text>
<polygon fill="#ffffb3" stroke="transparent" points="173,-10 173,-30 193,-30 193,-10 173,-10"/>
<text text-anchor="start" x="196.629" y="-15.4" font-family="sans-serif" font-size="14.00" fill="#000000"> &#160;Declarations</text>
<polygon fill="#8dd3c7" stroke="transparent" points="286,-10 286,-30 306,-30 306,-10 286,-10"/>
<text text-anchor="start" x="309.7251" y="-15.4" font-family="sans-serif" font-size="14.00" fill="#000000"> &#160;Module</text>
<polygon fill="#80b1d3" stroke="transparent" points="372,-10 372,-30 392,-30 392,-10 372,-10"/>
<text text-anchor="start" x="395.7812" y="-15.4" font-family="sans-serif" font-size="14.00" fill="#000000"> &#160;Bootstrap</text>
<polygon fill="#fdb462" stroke="transparent" points="469,-10 469,-30 489,-30 489,-10 469,-10"/>
<text text-anchor="start" x="492.6732" y="-15.4" font-family="sans-serif" font-size="14.00" fill="#000000"> &#160;Providers</text>
<polygon fill="#fb8072" stroke="transparent" points="565,-10 565,-30 585,-30 585,-10 565,-10"/>
<text text-anchor="start" x="588.7258" y="-15.4" font-family="sans-serif" font-size="14.00" fill="#000000"> &#160;Exports</text>
<g id="clust1" class="cluster">
<title>cluster_AutoCompleteModule</title>
<polygon fill="none" stroke="#000000" stroke-dasharray="1,5" points="8,-70 8,-268 806,-268 806,-70 8,-70"/>
</g>
<g id="clust3" class="cluster">
<title>cluster_AutoCompleteModule_imports</title>
<polygon fill="none" stroke="#000000" points="303,-78 303,-130 544,-130 544,-78 303,-78"/>
</g>
<g id="clust4" class="cluster">
<title>cluster_AutoCompleteModule_exports</title>
<polygon fill="none" stroke="#000000" points="16,-208 16,-260 798,-260 798,-208 16,-208"/>
</g>
<!-- CommonModule -->
<g id="node1" class="node">
<title>CommonModule</title>
<polygon fill="#8dd3c7" stroke="#000000" points="535.6681,-122 532.6681,-126 511.6681,-126 508.6681,-122 424.3319,-122 424.3319,-86 535.6681,-86 535.6681,-122"/>
<text text-anchor="middle" x="480" y="-99.8" font-family="Times,serif" font-size="14.00" fill="#000000">CommonModule</text>
</g>
<!-- AutoCompleteModule -->
<g id="node3" class="node">
<title>AutoCompleteModule</title>
<polygon fill="#8dd3c7" stroke="#000000" points="490.9846,-187 487.9846,-191 466.9846,-191 463.9846,-187 349.0154,-187 349.0154,-151 490.9846,-151 490.9846,-187"/>
<text text-anchor="middle" x="420" y="-164.8" font-family="Times,serif" font-size="14.00" fill="#000000">AutoCompleteModule</text>
</g>
<!-- CommonModule&#45;&gt;AutoCompleteModule -->
<g id="edge1" class="edge">
<title>CommonModule&#45;&gt;AutoCompleteModule</title>
<path fill="none" stroke="#000000" d="M457.5793,-122.1061C457.5793,-122.1061 457.5793,-140.991 457.5793,-140.991"/>
<polygon fill="#000000" stroke="#000000" points="454.0793,-140.9909 457.5793,-150.991 461.0793,-140.991 454.0793,-140.9909"/>
</g>
<!-- FormsModule -->
<g id="node2" class="node">
<title>FormsModule</title>
<polygon fill="#8dd3c7" stroke="#000000" points="406.8288,-122 403.8288,-126 382.8288,-126 379.8288,-122 311.1712,-122 311.1712,-86 406.8288,-86 406.8288,-122"/>
<text text-anchor="middle" x="359" y="-99.8" font-family="Times,serif" font-size="14.00" fill="#000000">FormsModule</text>
</g>
<!-- FormsModule&#45;&gt;AutoCompleteModule -->
<g id="edge2" class="edge">
<title>FormsModule&#45;&gt;AutoCompleteModule</title>
<path fill="none" stroke="#000000" d="M377.8359,-122.1061C377.8359,-122.1061 377.8359,-140.991 377.8359,-140.991"/>
<polygon fill="#000000" stroke="#000000" points="374.336,-140.9909 377.8359,-150.991 381.336,-140.991 374.336,-140.9909"/>
</g>
<!-- AutoCompleteDirective  -->
<g id="node4" class="node">
<title>AutoCompleteDirective </title>
<polygon fill="#fb8072" stroke="#000000" points="790.0176,-252 635.9824,-252 635.9824,-216 790.0176,-216 790.0176,-252"/>
<text text-anchor="middle" x="713" y="-229.8" font-family="Times,serif" font-size="14.00" fill="#000000">AutoCompleteDirective </text>
</g>
<!-- AutoCompleteModule&#45;&gt;AutoCompleteDirective  -->
<g id="edge3" class="edge">
<title>AutoCompleteModule&#45;&gt;AutoCompleteDirective </title>
<path fill="none" stroke="#000000" stroke-dasharray="5,2" d="M491.3012,-169C578.03,-169 713,-169 713,-169 713,-169 713,-205.8939 713,-205.8939"/>
<polygon fill="#000000" stroke="#000000" points="709.5001,-205.8938 713,-215.8939 716.5001,-205.8939 709.5001,-205.8938"/>
</g>
<!-- AutoCompletePopupComponent  -->
<g id="node5" class="node">
<title>AutoCompletePopupComponent </title>
<polygon fill="#fb8072" stroke="#000000" points="617.5498,-252 414.4502,-252 414.4502,-216 617.5498,-216 617.5498,-252"/>
<text text-anchor="middle" x="516" y="-229.8" font-family="Times,serif" font-size="14.00" fill="#000000">AutoCompletePopupComponent </text>
</g>
<!-- AutoCompleteModule&#45;&gt;AutoCompletePopupComponent  -->
<g id="edge4" class="edge">
<title>AutoCompleteModule&#45;&gt;AutoCompletePopupComponent </title>
<path fill="none" stroke="#000000" stroke-dasharray="5,2" d="M452.7337,-187.1061C452.7337,-187.1061 452.7337,-205.991 452.7337,-205.991"/>
<polygon fill="#000000" stroke="#000000" points="449.2338,-205.9909 452.7337,-215.991 456.2338,-205.991 449.2338,-205.9909"/>
</g>
<!-- HightlightComponent  -->
<g id="node6" class="node">
<title>HightlightComponent </title>
<polygon fill="#fb8072" stroke="#000000" points="396.3925,-252 253.6075,-252 253.6075,-216 396.3925,-216 396.3925,-252"/>
<text text-anchor="middle" x="325" y="-229.8" font-family="Times,serif" font-size="14.00" fill="#000000">HightlightComponent </text>
</g>
<!-- AutoCompleteModule&#45;&gt;HightlightComponent  -->
<g id="edge5" class="edge">
<title>AutoCompleteModule&#45;&gt;HightlightComponent </title>
<path fill="none" stroke="#000000" stroke-dasharray="5,2" d="M372.6019,-187.1061C372.6019,-187.1061 372.6019,-205.991 372.6019,-205.991"/>
<polygon fill="#000000" stroke="#000000" points="369.1019,-205.9909 372.6019,-215.991 376.1019,-205.991 369.1019,-205.9909"/>
</g>
<!-- MutipleAutoCompleteComponent  -->
<g id="node7" class="node">
<title>MutipleAutoCompleteComponent </title>
<polygon fill="#fb8072" stroke="#000000" points="235.5986,-252 24.4014,-252 24.4014,-216 235.5986,-216 235.5986,-252"/>
<text text-anchor="middle" x="130" y="-229.8" font-family="Times,serif" font-size="14.00" fill="#000000">MutipleAutoCompleteComponent </text>
</g>
<!-- AutoCompleteModule&#45;&gt;MutipleAutoCompleteComponent  -->
<g id="edge6" class="edge">
<title>AutoCompleteModule&#45;&gt;MutipleAutoCompleteComponent </title>
<path fill="none" stroke="#000000" stroke-dasharray="5,2" d="M348.6866,-169C262.8203,-169 130,-169 130,-169 130,-169 130,-205.8939 130,-205.8939"/>
<polygon fill="#000000" stroke="#000000" points="126.5001,-205.8938 130,-215.8939 133.5001,-205.8939 126.5001,-205.8938"/>
</g>
</g>
</svg>
