<?xml version="1.0" encoding="UTF-8" standalone="no"?>
<!DOCTYPE svg PUBLIC "-//W3C//DTD SVG 1.1//EN"
 "http://www.w3.org/Graphics/SVG/1.1/DTD/svg11.dtd">
<!-- Generated by graphviz version 2.40.1 (20161225.0304)
 -->
<!-- Title: dependencies Pages: 1 -->
<svg width="822pt" height="349pt"
 viewBox="0.00 0.00 822.00 349.00" xmlns="http://www.w3.org/2000/svg" xmlns:xlink="http://www.w3.org/1999/xlink">
<g id="graph0" class="graph" transform="scale(1 1) rotate(0) translate(4 345)">
<title>dependencies</title>
<polygon fill="#ffffff" stroke="transparent" points="-4,4 -4,-345 818,-345 818,4 -4,4"/>
<text text-anchor="start" x="386.0091" y="-42.4" font-family="sans-serif" font-weight="bold" font-size="14.00" fill="#000000">Legend</text>
<polygon fill="#ffffb3" stroke="transparent" points="173,-10 173,-30 193,-30 193,-10 173,-10"/>
<text text-anchor="start" x="196.629" y="-15.4" font-family="sans-serif" font-size="14.00" fill="#000000"> &#160;Declarations</text>
<polygon fill="#8dd3c7" stroke="transparent" points="286,-10 286,-30 306,-30 306,-10 286,-10"/>
<text text-anchor="start" x="309.7251" y="-15.4" font-family="sans-serif" font-size="14.00" fill="#000000"> &#160;Module</text>
<polygon fill="#80b1d3" stroke="transparent" points="372,-10 372,-30 392,-30 392,-10 372,-10"/>
<text text-anchor="start" x="395.7812" y="-15.4" font-family="sans-serif" font-size="14.00" fill="#000000"> &#160;Bootstrap</text>
<polygon fill="#fdb462" stroke="transparent" points="469,-10 469,-30 489,-30 489,-10 469,-10"/>
<text text-anchor="start" x="492.6732" y="-15.4" font-family="sans-serif" font-size="14.00" fill="#000000"> &#160;Providers</text>
<polygon fill="#fb8072" stroke="transparent" points="565,-10 565,-30 585,-30 585,-10 565,-10"/>
<text text-anchor="start" x="588.7258" y="-15.4" font-family="sans-serif" font-size="14.00" fill="#000000"> &#160;Exports</text>
<g id="clust1" class="cluster">
<title>cluster_AutoCompleteModule</title>
<polygon fill="none" stroke="#000000" stroke-dasharray="1,5" points="8,-70 8,-333 806,-333 806,-70 8,-70"/>
</g>
<g id="clust2" class="cluster">
<title>cluster_AutoCompleteModule_declarations</title>
<polygon fill="none" stroke="#000000" points="16,-143 16,-195 782,-195 782,-143 16,-143"/>
</g>
<g id="clust3" class="cluster">
<title>cluster_AutoCompleteModule_AutoCompleteDirective_providers</title>
<polygon fill="none" stroke="#000000" points="280,-78 280,-130 798,-130 798,-78 280,-78"/>
</g>
<g id="clust8" class="cluster">
<title>cluster_AutoCompleteModule_exports</title>
<polygon fill="none" stroke="#000000" points="16,-273 16,-325 798,-325 798,-273 16,-273"/>
</g>
<!-- AutoCompleteDirective -->
<g id="node1" class="node">
<title>AutoCompleteDirective</title>
<polygon fill="#ffffb3" stroke="#000000" points="774.0184,-187 623.9816,-187 623.9816,-151 774.0184,-151 774.0184,-187"/>
<text text-anchor="middle" x="699" y="-164.8" font-family="Times,serif" font-size="14.00" fill="#000000">AutoCompleteDirective</text>
</g>
<!-- AutoCompleteModule -->
<g id="node5" class="node">
<title>AutoCompleteModule</title>
<polygon fill="#8dd3c7" stroke="#000000" points="485.9846,-252 482.9846,-256 461.9846,-256 458.9846,-252 344.0154,-252 344.0154,-216 485.9846,-216 485.9846,-252"/>
<text text-anchor="middle" x="415" y="-229.8" font-family="Times,serif" font-size="14.00" fill="#000000">AutoCompleteModule</text>
</g>
<!-- AutoCompleteDirective&#45;&gt;AutoCompleteModule -->
<g id="edge1" class="edge">
<title>AutoCompleteDirective&#45;&gt;AutoCompleteModule</title>
<path fill="none" stroke="#000000" d="M629.8662,-187.0225C629.8662,-204.3734 629.8662,-228 629.8662,-228 629.8662,-228 496.2489,-228 496.2489,-228"/>
<polygon fill="#000000" stroke="#000000" points="496.2489,-224.5001 486.2489,-228 496.2488,-231.5001 496.2489,-224.5001"/>
</g>
<!-- AutoCompletePopupComponent -->
<g id="node2" class="node">
<title>AutoCompletePopupComponent</title>
<polygon fill="#ffffb3" stroke="#000000" points="605.5503,-187 406.4497,-187 406.4497,-151 605.5503,-151 605.5503,-187"/>
<text text-anchor="middle" x="506" y="-164.8" font-family="Times,serif" font-size="14.00" fill="#000000">AutoCompletePopupComponent</text>
</g>
<!-- AutoCompletePopupComponent&#45;&gt;AutoCompleteModule -->
<g id="edge3" class="edge">
<title>AutoCompletePopupComponent&#45;&gt;AutoCompleteModule</title>
<path fill="none" stroke="#000000" d="M446.1087,-187.1061C446.1087,-187.1061 446.1087,-205.991 446.1087,-205.991"/>
<polygon fill="#000000" stroke="#000000" points="442.6088,-205.9909 446.1087,-215.991 449.6088,-205.991 442.6088,-205.9909"/>
</g>
<!-- HightlightComponent -->
<g id="node3" class="node">
<title>HightlightComponent</title>
<polygon fill="#ffffb3" stroke="#000000" points="388.392,-187 249.608,-187 249.608,-151 388.392,-151 388.392,-187"/>
<text text-anchor="middle" x="319" y="-164.8" font-family="Times,serif" font-size="14.00" fill="#000000">HightlightComponent</text>
</g>
<!-- HightlightComponent&#45;&gt;AutoCompleteModule -->
<g id="edge4" class="edge">
<title>HightlightComponent&#45;&gt;AutoCompleteModule</title>
<path fill="none" stroke="#000000" d="M366.2269,-187.1061C366.2269,-187.1061 366.2269,-205.991 366.2269,-205.991"/>
<polygon fill="#000000" stroke="#000000" points="362.7269,-205.9909 366.2269,-215.991 369.7269,-205.991 362.7269,-205.9909"/>
</g>
<!-- MutipleAutoCompleteComponent -->
<g id="node4" class="node">
<title>MutipleAutoCompleteComponent</title>
<polygon fill="#ffffb3" stroke="#000000" points="232.0982,-187 23.9018,-187 23.9018,-151 232.0982,-151 232.0982,-187"/>
<text text-anchor="middle" x="128" y="-164.8" font-family="Times,serif" font-size="14.00" fill="#000000">MutipleAutoCompleteComponent</text>
</g>
<!-- MutipleAutoCompleteComponent&#45;&gt;AutoCompleteModule -->
<g id="edge5" class="edge">
<title>MutipleAutoCompleteComponent&#45;&gt;AutoCompleteModule</title>
<path fill="none" stroke="#000000" d="M93.4836,-187.0225C93.4836,-204.3734 93.4836,-228 93.4836,-228 93.4836,-228 333.6451,-228 333.6451,-228"/>
<polygon fill="#000000" stroke="#000000" points="333.6451,-231.5001 343.6451,-228 333.6451,-224.5001 333.6451,-231.5001"/>
</g>
<!-- AutoCompleteDirective  -->
<g id="node7" class="node">
<title>AutoCompleteDirective </title>
<polygon fill="#fb8072" stroke="#000000" points="790.0176,-317 635.9824,-317 635.9824,-281 790.0176,-281 790.0176,-317"/>
<text text-anchor="middle" x="713" y="-294.8" font-family="Times,serif" font-size="14.00" fill="#000000">AutoCompleteDirective </text>
</g>
<!-- AutoCompleteModule&#45;&gt;AutoCompleteDirective  -->
<g id="edge6" class="edge">
<title>AutoCompleteModule&#45;&gt;AutoCompleteDirective </title>
<path fill="none" stroke="#000000" stroke-dasharray="5,2" d="M486.3441,-240C572.2474,-240 705.125,-240 705.125,-240 705.125,-240 705.125,-270.9775 705.125,-270.9775"/>
<polygon fill="#000000" stroke="#000000" points="701.6251,-270.9774 705.125,-280.9775 708.6251,-270.9775 701.6251,-270.9774"/>
</g>
<!-- AutoCompletePopupComponent  -->
<g id="node8" class="node">
<title>AutoCompletePopupComponent </title>
<polygon fill="#fb8072" stroke="#000000" points="617.5498,-317 414.4502,-317 414.4502,-281 617.5498,-281 617.5498,-317"/>
<text text-anchor="middle" x="516" y="-294.8" font-family="Times,serif" font-size="14.00" fill="#000000">AutoCompletePopupComponent </text>
</g>
<!-- AutoCompleteModule&#45;&gt;AutoCompletePopupComponent  -->
<g id="edge7" class="edge">
<title>AutoCompleteModule&#45;&gt;AutoCompletePopupComponent </title>
<path fill="none" stroke="#000000" stroke-dasharray="5,2" d="M450.2337,-252.1061C450.2337,-252.1061 450.2337,-270.991 450.2337,-270.991"/>
<polygon fill="#000000" stroke="#000000" points="446.7338,-270.9909 450.2337,-280.991 453.7338,-270.991 446.7338,-270.9909"/>
</g>
<!-- HightlightComponent  -->
<g id="node9" class="node">
<title>HightlightComponent </title>
<polygon fill="#fb8072" stroke="#000000" points="396.3925,-317 253.6075,-317 253.6075,-281 396.3925,-281 396.3925,-317"/>
<text text-anchor="middle" x="325" y="-294.8" font-family="Times,serif" font-size="14.00" fill="#000000">HightlightComponent </text>
</g>
<!-- AutoCompleteModule&#45;&gt;HightlightComponent  -->
<g id="edge8" class="edge">
<title>AutoCompleteModule&#45;&gt;HightlightComponent </title>
<path fill="none" stroke="#000000" stroke-dasharray="5,2" d="M370.1019,-252.1061C370.1019,-252.1061 370.1019,-270.991 370.1019,-270.991"/>
<polygon fill="#000000" stroke="#000000" points="366.6019,-270.9909 370.1019,-280.991 373.6019,-270.991 366.6019,-270.9909"/>
</g>
<!-- MutipleAutoCompleteComponent  -->
<g id="node10" class="node">
<title>MutipleAutoCompleteComponent </title>
<polygon fill="#fb8072" stroke="#000000" points="235.5986,-317 24.4014,-317 24.4014,-281 235.5986,-281 235.5986,-317"/>
<text text-anchor="middle" x="130" y="-294.8" font-family="Times,serif" font-size="14.00" fill="#000000">MutipleAutoCompleteComponent </text>
</g>
<!-- AutoCompleteModule&#45;&gt;MutipleAutoCompleteComponent  -->
<g id="edge9" class="edge">
<title>AutoCompleteModule&#45;&gt;MutipleAutoCompleteComponent </title>
<path fill="none" stroke="#000000" stroke-dasharray="5,2" d="M343.7314,-240C269.143,-240 162.7664,-240 162.7664,-240 162.7664,-240 162.7664,-270.9775 162.7664,-270.9775"/>
<polygon fill="#000000" stroke="#000000" points="159.2665,-270.9774 162.7664,-280.9775 166.2665,-270.9775 159.2665,-270.9774"/>
</g>
<!-- { provide: NG_VALUE_ACCESSOR, useExisting: , multi: &#160;} -->
<g id="node6" class="node">
<title>{ provide: NG_VALUE_ACCESSOR, useExisting: , multi: &#160;}</title>
<ellipse fill="#fdb462" stroke="#000000" cx="539" cy="-104" rx="251.4985" ry="18"/>
<text text-anchor="middle" x="539" y="-99.8" font-family="Times,serif" font-size="14.00" fill="#000000">{ provide: NG_VALUE_ACCESSOR, useExisting: , multi: &#160;}</text>
</g>
<!-- { provide: NG_VALUE_ACCESSOR, useExisting: , multi: &#160;}&#45;&gt;AutoCompleteDirective -->
<g id="edge2" class="edge">
<title>{ provide: NG_VALUE_ACCESSOR, useExisting: , multi: &#160;}&#45;&gt;AutoCompleteDirective</title>
<path fill="none" stroke="#000000" d="M699,-118.104C699,-118.104 699,-140.7209 699,-140.7209"/>
<polygon fill="#000000" stroke="#000000" points="695.5001,-140.7209 699,-150.7209 702.5001,-140.7209 695.5001,-140.7209"/>
</g>
</g>
</svg>
