<?xml version="1.0" encoding="UTF-8" standalone="no"?>
<!DOCTYPE svg PUBLIC "-//W3C//DTD SVG 1.1//EN"
 "http://www.w3.org/Graphics/SVG/1.1/DTD/svg11.dtd">
<!-- Generated by graphviz version 2.40.1 (20161225.0304)
 -->
<!-- Title: dependencies Pages: 1 -->
<svg width="822pt" height="349pt"
 viewBox="0.00 0.00 822.00 349.00" xmlns="http://www.w3.org/2000/svg" xmlns:xlink="http://www.w3.org/1999/xlink">
<g id="graph0" class="graph" transform="scale(1 1) rotate(0) translate(4 345)">
<title>dependencies</title>
<polygon fill="#ffffff" stroke="transparent" points="-4,4 -4,-345 818,-345 818,4 -4,4"/>
<text text-anchor="start" x="386.0091" y="-42.4" font-family="sans-serif" font-weight="bold" font-size="14.00" fill="#000000">Legend</text>
<polygon fill="#ffffb3" stroke="transparent" points="173,-10 173,-30 193,-30 193,-10 173,-10"/>
<text text-anchor="start" x="196.629" y="-15.4" font-family="sans-serif" font-size="14.00" fill="#000000"> &#160;Declarations</text>
<polygon fill="#8dd3c7" stroke="transparent" points="286,-10 286,-30 306,-30 306,-10 286,-10"/>
<text text-anchor="start" x="309.7251" y="-15.4" font-family="sans-serif" font-size="14.00" fill="#000000"> &#160;Module</text>
<polygon fill="#80b1d3" stroke="transparent" points="372,-10 372,-30 392,-30 392,-10 372,-10"/>
<text text-anchor="start" x="395.7812" y="-15.4" font-family="sans-serif" font-size="14.00" fill="#000000"> &#160;Bootstrap</text>
<polygon fill="#fdb462" stroke="transparent" points="469,-10 469,-30 489,-30 489,-10 469,-10"/>
<text text-anchor="start" x="492.6732" y="-15.4" font-family="sans-serif" font-size="14.00" fill="#000000"> &#160;Providers</text>
<polygon fill="#fb8072" stroke="transparent" points="565,-10 565,-30 585,-30 585,-10 565,-10"/>
<text text-anchor="start" x="588.7258" y="-15.4" font-family="sans-serif" font-size="14.00" fill="#000000"> &#160;Exports</text>
<g id="clust1" class="cluster">
<title>cluster_AutoCompleteModule</title>
<polygon fill="none" stroke="#000000" stroke-dasharray="1,5" points="8,-70 8,-333 806,-333 806,-70 8,-70"/>
</g>
<g id="clust2" class="cluster">
<title>cluster_AutoCompleteModule_declarations</title>
<polygon fill="none" stroke="#000000" points="25,-143 25,-195 791,-195 791,-143 25,-143"/>
</g>
<g id="clust3" class="cluster">
<title>cluster_AutoCompleteModule_AutoCompleteDirective_providers</title>
<polygon fill="none" stroke="#000000" points="269,-78 269,-130 787,-130 787,-78 269,-78"/>
</g>
<g id="clust8" class="cluster">
<title>cluster_AutoCompleteModule_exports</title>
<polygon fill="none" stroke="#000000" points="16,-273 16,-325 798,-325 798,-273 16,-273"/>
</g>
<!-- AutoCompleteDirective -->
<g id="node1" class="node">
<title>AutoCompleteDirective</title>
<polygon fill="#ffffb3" stroke="#000000" points="783.0184,-187 632.9816,-187 632.9816,-151 783.0184,-151 783.0184,-187"/>
<text text-anchor="middle" x="708" y="-164.8" font-family="Times,serif" font-size="14.00" fill="#000000">AutoCompleteDirective</text>
</g>
<!-- AutoCompleteModule -->
<g id="node5" class="node">
<title>AutoCompleteModule</title>
<polygon fill="#8dd3c7" stroke="#000000" points="401.9846,-252 398.9846,-256 377.9846,-256 374.9846,-252 260.0154,-252 260.0154,-216 401.9846,-216 401.9846,-252"/>
<text text-anchor="middle" x="331" y="-229.8" font-family="Times,serif" font-size="14.00" fill="#000000">AutoCompleteModule</text>
</g>
<!-- AutoCompleteDirective&#45;&gt;AutoCompleteModule -->
<g id="edge1" class="edge">
<title>AutoCompleteDirective&#45;&gt;AutoCompleteModule</title>
<path fill="none" stroke="#000000" d="M734.1696,-187.2667C734.1696,-205.5552 734.1696,-231 734.1696,-231 734.1696,-231 412.1506,-231 412.1506,-231"/>
<polygon fill="#000000" stroke="#000000" points="412.1506,-227.5001 402.1506,-231 412.1505,-234.5001 412.1506,-227.5001"/>
</g>
<!-- AutoCompletePopupComponent -->
<g id="node2" class="node">
<title>AutoCompletePopupComponent</title>
<polygon fill="#ffffb3" stroke="#000000" points="614.5503,-187 415.4497,-187 415.4497,-151 614.5503,-151 614.5503,-187"/>
<text text-anchor="middle" x="515" y="-164.8" font-family="Times,serif" font-size="14.00" fill="#000000">AutoCompletePopupComponent</text>
</g>
<!-- AutoCompletePopupComponent&#45;&gt;AutoCompleteModule -->
<g id="edge3" class="edge">
<title>AutoCompletePopupComponent&#45;&gt;AutoCompleteModule</title>
<path fill="none" stroke="#000000" d="M548.2583,-187.0091C548.2583,-203.0494 548.2583,-224 548.2583,-224 548.2583,-224 412.1385,-224 412.1385,-224"/>
<polygon fill="#000000" stroke="#000000" points="412.1385,-220.5001 402.1385,-224 412.1385,-227.5001 412.1385,-220.5001"/>
</g>
<!-- HightlightComponent -->
<g id="node3" class="node">
<title>HightlightComponent</title>
<polygon fill="#ffffb3" stroke="#000000" points="397.392,-187 258.608,-187 258.608,-151 397.392,-151 397.392,-187"/>
<text text-anchor="middle" x="328" y="-164.8" font-family="Times,serif" font-size="14.00" fill="#000000">HightlightComponent</text>
</g>
<!-- HightlightComponent&#45;&gt;AutoCompleteModule -->
<g id="edge5" class="edge">
<title>HightlightComponent&#45;&gt;AutoCompleteModule</title>
<path fill="none" stroke="#000000" d="M328.7269,-187.1061C328.7269,-187.1061 328.7269,-205.991 328.7269,-205.991"/>
<polygon fill="#000000" stroke="#000000" points="325.2269,-205.9909 328.7269,-215.991 332.2269,-205.991 325.2269,-205.9909"/>
</g>
<!-- MutipleAutoCompleteComponent -->
<g id="node4" class="node">
<title>MutipleAutoCompleteComponent</title>
<polygon fill="#ffffb3" stroke="#000000" points="241.0982,-187 32.9018,-187 32.9018,-151 241.0982,-151 241.0982,-187"/>
<text text-anchor="middle" x="137" y="-164.8" font-family="Times,serif" font-size="14.00" fill="#000000">MutipleAutoCompleteComponent</text>
</g>
<!-- MutipleAutoCompleteComponent&#45;&gt;AutoCompleteModule -->
<g id="edge6" class="edge">
<title>MutipleAutoCompleteComponent&#45;&gt;AutoCompleteModule</title>
<path fill="none" stroke="#000000" d="M168.183,-187.0225C168.183,-204.3734 168.183,-228 168.183,-228 168.183,-228 249.5861,-228 249.5861,-228"/>
<polygon fill="#000000" stroke="#000000" points="249.5861,-231.5001 259.5861,-228 249.5861,-224.5001 249.5861,-231.5001"/>
</g>
<!-- AutoCompleteDirective  -->
<g id="node7" class="node">
<title>AutoCompleteDirective </title>
<polygon fill="#fb8072" stroke="#000000" points="790.0176,-317 635.9824,-317 635.9824,-281 790.0176,-281 790.0176,-317"/>
<text text-anchor="middle" x="713" y="-294.8" font-family="Times,serif" font-size="14.00" fill="#000000">AutoCompleteDirective </text>
</g>
<!-- AutoCompleteModule&#45;&gt;AutoCompleteDirective  -->
<g id="edge7" class="edge">
<title>AutoCompleteModule&#45;&gt;AutoCompleteDirective </title>
<path fill="none" stroke="#000000" stroke-dasharray="5,2" d="M402.2275,-238C505.6248,-238 685.0804,-238 685.0804,-238 685.0804,-238 685.0804,-270.698 685.0804,-270.698"/>
<polygon fill="#000000" stroke="#000000" points="681.5805,-270.698 685.0804,-280.698 688.5805,-270.698 681.5805,-270.698"/>
</g>
<!-- AutoCompletePopupComponent  -->
<g id="node8" class="node">
<title>AutoCompletePopupComponent </title>
<polygon fill="#fb8072" stroke="#000000" points="617.5498,-317 414.4502,-317 414.4502,-281 617.5498,-281 617.5498,-317"/>
<text text-anchor="middle" x="516" y="-294.8" font-family="Times,serif" font-size="14.00" fill="#000000">AutoCompletePopupComponent </text>
</g>
<!-- AutoCompleteModule&#45;&gt;AutoCompletePopupComponent  -->
<g id="edge8" class="edge">
<title>AutoCompleteModule&#45;&gt;AutoCompletePopupComponent </title>
<path fill="none" stroke="#000000" stroke-dasharray="5,2" d="M402.3979,-245C441.3599,-245 481.7417,-245 481.7417,-245 481.7417,-245 481.7417,-270.7181 481.7417,-270.7181"/>
<polygon fill="#000000" stroke="#000000" points="478.2418,-270.718 481.7417,-280.7181 485.2418,-270.7181 478.2418,-270.718"/>
</g>
<!-- HightlightComponent  -->
<g id="node9" class="node">
<title>HightlightComponent </title>
<polygon fill="#fb8072" stroke="#000000" points="396.3925,-317 253.6075,-317 253.6075,-281 396.3925,-281 396.3925,-317"/>
<text text-anchor="middle" x="325" y="-294.8" font-family="Times,serif" font-size="14.00" fill="#000000">HightlightComponent </text>
</g>
<!-- AutoCompleteModule&#45;&gt;HightlightComponent  -->
<g id="edge9" class="edge">
<title>AutoCompleteModule&#45;&gt;HightlightComponent </title>
<path fill="none" stroke="#000000" stroke-dasharray="5,2" d="M328.1019,-252.1061C328.1019,-252.1061 328.1019,-270.991 328.1019,-270.991"/>
<polygon fill="#000000" stroke="#000000" points="324.6019,-270.9909 328.1019,-280.991 331.6019,-270.991 324.6019,-270.9909"/>
</g>
<!-- MutipleAutoCompleteComponent  -->
<g id="node10" class="node">
<title>MutipleAutoCompleteComponent </title>
<polygon fill="#fb8072" stroke="#000000" points="235.5986,-317 24.4014,-317 24.4014,-281 235.5986,-281 235.5986,-317"/>
<text text-anchor="middle" x="130" y="-294.8" font-family="Times,serif" font-size="14.00" fill="#000000">MutipleAutoCompleteComponent </text>
</g>
<!-- AutoCompleteModule&#45;&gt;MutipleAutoCompleteComponent  -->
<g id="edge10" class="edge">
<title>AutoCompleteModule&#45;&gt;MutipleAutoCompleteComponent </title>
<path fill="none" stroke="#000000" stroke-dasharray="5,2" d="M259.9822,-240C192.2755,-240 100.567,-240 100.567,-240 100.567,-240 100.567,-270.9775 100.567,-270.9775"/>
<polygon fill="#000000" stroke="#000000" points="97.0671,-270.9774 100.567,-280.9775 104.0671,-270.9775 97.0671,-270.9774"/>
</g>
<!-- { provide: NG_VALUE_ACCESSOR, useExisting: , multi: &#160;} -->
<g id="node6" class="node">
<title>{ provide: NG_VALUE_ACCESSOR, useExisting: , multi: &#160;}</title>
<ellipse fill="#fdb462" stroke="#000000" cx="528" cy="-104" rx="251.4985" ry="18"/>
<text text-anchor="middle" x="528" y="-99.8" font-family="Times,serif" font-size="14.00" fill="#000000">{ provide: NG_VALUE_ACCESSOR, useExisting: , multi: &#160;}</text>
</g>
<!-- { provide: NG_VALUE_ACCESSOR, useExisting: , multi: &#160;}&#45;&gt;AutoCompleteDirective -->
<g id="edge2" class="edge">
<title>{ provide: NG_VALUE_ACCESSOR, useExisting: , multi: &#160;}&#45;&gt;AutoCompleteDirective</title>
<path fill="none" stroke="#000000" d="M705.9952,-116.8419C705.9952,-116.8419 705.9952,-140.5231 705.9952,-140.5231"/>
<polygon fill="#000000" stroke="#000000" points="702.4953,-140.523 705.9952,-150.5231 709.4953,-140.5231 702.4953,-140.523"/>
</g>
<!-- { provide: NG_VALUE_ACCESSOR, useExisting: , multi: &#160;}&#45;&gt;AutoCompletePopupComponent -->
<g id="edge4" class="edge">
<title>{ provide: NG_VALUE_ACCESSOR, useExisting: , multi: &#160;}&#45;&gt;AutoCompletePopupComponent</title>
<path fill="none" stroke="#000000" d="M515,-122.1061C515,-122.1061 515,-140.991 515,-140.991"/>
<polygon fill="#000000" stroke="#000000" points="511.5001,-140.9909 515,-150.991 518.5001,-140.991 511.5001,-140.9909"/>
</g>
</g>
</svg>
