<?xml version="1.0" encoding="UTF-8" standalone="no"?>
<!DOCTYPE svg PUBLIC "-//W3C//DTD SVG 1.1//EN"
 "http://www.w3.org/Graphics/SVG/1.1/DTD/svg11.dtd">
<!-- Generated by graphviz version 2.38.0 (20140413.2041)
 -->
<!-- Title: dependencies Pages: 1 -->
<svg width="1055pt" height="284pt"
 viewBox="0.00 0.00 1055.00 284.00" xmlns="http://www.w3.org/2000/svg" xmlns:xlink="http://www.w3.org/1999/xlink">
<g id="graph0" class="graph" transform="scale(1 1) rotate(0) translate(4 280)">
<title>dependencies</title>
<polygon fill="white" stroke="none" points="-4,4 -4,-280 1051,-280 1051,4 -4,4"/>
<text text-anchor="start" x="502.509" y="-42.4" font-family="sans-serif" font-weight="bold" font-size="14.00">Legend</text>
<polygon fill="#ffffb3" stroke="none" points="289.5,-10 289.5,-30 309.5,-30 309.5,-10 289.5,-10"/>
<text text-anchor="start" x="313.129" y="-15.4" font-family="sans-serif" font-size="14.00"> &#160;Declarations</text>
<polygon fill="#8dd3c7" stroke="none" points="402.5,-10 402.5,-30 422.5,-30 422.5,-10 402.5,-10"/>
<text text-anchor="start" x="426.225" y="-15.4" font-family="sans-serif" font-size="14.00"> &#160;Module</text>
<polygon fill="#80b1d3" stroke="none" points="488.5,-10 488.5,-30 508.5,-30 508.5,-10 488.5,-10"/>
<text text-anchor="start" x="512.281" y="-15.4" font-family="sans-serif" font-size="14.00"> &#160;Bootstrap</text>
<polygon fill="#fdb462" stroke="none" points="585.5,-10 585.5,-30 605.5,-30 605.5,-10 585.5,-10"/>
<text text-anchor="start" x="609.173" y="-15.4" font-family="sans-serif" font-size="14.00"> &#160;Providers</text>
<polygon fill="#fb8072" stroke="none" points="681.5,-10 681.5,-30 701.5,-30 701.5,-10 681.5,-10"/>
<text text-anchor="start" x="705.226" y="-15.4" font-family="sans-serif" font-size="14.00"> &#160;Exports</text>
<g id="clust1" class="cluster"><title>cluster_AutoCompleteModule</title>
<polygon fill="none" stroke="black" stroke-dasharray="1,5" points="8,-70 8,-268 1039,-268 1039,-70 8,-70"/>
</g>
<g id="clust2" class="cluster"><title>cluster_AutoCompleteModule_declarations</title>
<polygon fill="none" stroke="black" points="265,-78 265,-130 1031,-130 1031,-78 265,-78"/>
</g>
<g id="clust7" class="cluster"><title>cluster_AutoCompleteModule_imports</title>
<polygon fill="none" stroke="black" points="16,-78 16,-130 257,-130 257,-78 16,-78"/>
</g>
<g id="clust8" class="cluster"><title>cluster_AutoCompleteModule_exports</title>
<polygon fill="none" stroke="black" points="76,-208 76,-260 858,-260 858,-208 76,-208"/>
</g>
<!-- AutoCompleteDirective -->
<g id="node1" class="node"><title>AutoCompleteDirective</title>
<polygon fill="#ffffb3" stroke="black" points="1023.02,-122 872.982,-122 872.982,-86 1023.02,-86 1023.02,-122"/>
<text text-anchor="middle" x="948" y="-99.8" font-family="Times,serif" font-size="14.00">AutoCompleteDirective</text>
</g>
<!-- AutoCompleteModule -->
<g id="node5" class="node"><title>AutoCompleteModule</title>
<polygon fill="#8dd3c7" stroke="black" points="516.985,-187 513.985,-191 492.985,-191 489.985,-187 375.015,-187 375.015,-151 516.985,-151 516.985,-187"/>
<text text-anchor="middle" x="446" y="-164.8" font-family="Times,serif" font-size="14.00">AutoCompleteModule</text>
</g>
<!-- AutoCompleteDirective&#45;&gt;AutoCompleteModule -->
<g id="edge1" class="edge"><title>AutoCompleteDirective&#45;&gt;AutoCompleteModule</title>
<path fill="none" stroke="black" d="M948,-122.106C948,-141.339 948,-169 948,-169 948,-169 527.125,-169 527.125,-169"/>
<polygon fill="black" stroke="black" points="527.125,-165.5 517.125,-169 527.125,-172.5 527.125,-165.5"/>
</g>
<!-- AutoCompletePopupComponent -->
<g id="node2" class="node"><title>AutoCompletePopupComponent</title>
<polygon fill="#ffffb3" stroke="black" points="854.55,-122 655.45,-122 655.45,-86 854.55,-86 854.55,-122"/>
<text text-anchor="middle" x="755" y="-99.8" font-family="Times,serif" font-size="14.00">AutoCompletePopupComponent</text>
</g>
<!-- AutoCompletePopupComponent&#45;&gt;AutoCompleteModule -->
<g id="edge2" class="edge"><title>AutoCompletePopupComponent&#45;&gt;AutoCompleteModule</title>
<path fill="none" stroke="black" d="M666.375,-122.027C666.375,-138.398 666.375,-160 666.375,-160 666.375,-160 527.245,-160 527.245,-160"/>
<polygon fill="black" stroke="black" points="527.245,-156.5 517.245,-160 527.245,-163.5 527.245,-156.5"/>
</g>
<!-- HightlightComponent -->
<g id="node3" class="node"><title>HightlightComponent</title>
<polygon fill="#ffffb3" stroke="black" points="637.392,-122 498.608,-122 498.608,-86 637.392,-86 637.392,-122"/>
<text text-anchor="middle" x="568" y="-99.8" font-family="Times,serif" font-size="14.00">HightlightComponent</text>
</g>
<!-- HightlightComponent&#45;&gt;AutoCompleteModule -->
<g id="edge3" class="edge"><title>HightlightComponent&#45;&gt;AutoCompleteModule</title>
<path fill="none" stroke="black" d="M507.773,-122.106C507.773,-122.106 507.773,-140.991 507.773,-140.991"/>
<polygon fill="black" stroke="black" points="504.273,-140.991 507.773,-150.991 511.273,-140.991 504.273,-140.991"/>
</g>
<!-- MutipleAutoCompleteComponent -->
<g id="node4" class="node"><title>MutipleAutoCompleteComponent</title>
<polygon fill="#ffffb3" stroke="black" points="481.098,-122 272.902,-122 272.902,-86 481.098,-86 481.098,-122"/>
<text text-anchor="middle" x="377" y="-99.8" font-family="Times,serif" font-size="14.00">MutipleAutoCompleteComponent</text>
</g>
<!-- MutipleAutoCompleteComponent&#45;&gt;AutoCompleteModule -->
<g id="edge4" class="edge"><title>MutipleAutoCompleteComponent&#45;&gt;AutoCompleteModule</title>
<path fill="none" stroke="black" d="M428.028,-122.106C428.028,-122.106 428.028,-140.991 428.028,-140.991"/>
<polygon fill="black" stroke="black" points="424.528,-140.991 428.028,-150.991 431.528,-140.991 424.528,-140.991"/>
</g>
<!-- AutoCompleteDirective  -->
<g id="node8" class="node"><title>AutoCompleteDirective </title>
<polygon fill="#fb8072" stroke="black" points="850.018,-252 695.982,-252 695.982,-216 850.018,-216 850.018,-252"/>
<text text-anchor="middle" x="773" y="-229.8" font-family="Times,serif" font-size="14.00">AutoCompleteDirective </text>
</g>
<!-- AutoCompleteModule&#45;&gt;AutoCompleteDirective  -->
<g id="edge7" class="edge"><title>AutoCompleteModule&#45;&gt;AutoCompleteDirective </title>
<path fill="none" stroke="black" stroke-dasharray="5,2" d="M517.357,-178C613.574,-178 773,-178 773,-178 773,-178 773,-205.973 773,-205.973"/>
<polygon fill="black" stroke="black" points="769.5,-205.973 773,-215.973 776.5,-205.973 769.5,-205.973"/>
</g>
<!-- AutoCompletePopupComponent  -->
<g id="node9" class="node"><title>AutoCompletePopupComponent </title>
<polygon fill="#fb8072" stroke="black" points="677.55,-252 474.45,-252 474.45,-216 677.55,-216 677.55,-252"/>
<text text-anchor="middle" x="576" y="-229.8" font-family="Times,serif" font-size="14.00">AutoCompletePopupComponent </text>
</g>
<!-- AutoCompleteModule&#45;&gt;AutoCompletePopupComponent  -->
<g id="edge8" class="edge"><title>AutoCompleteModule&#45;&gt;AutoCompletePopupComponent </title>
<path fill="none" stroke="black" stroke-dasharray="5,2" d="M495.734,-187.106C495.734,-187.106 495.734,-205.991 495.734,-205.991"/>
<polygon fill="black" stroke="black" points="492.234,-205.991 495.734,-215.991 499.234,-205.991 492.234,-205.991"/>
</g>
<!-- HightlightComponent  -->
<g id="node10" class="node"><title>HightlightComponent </title>
<polygon fill="#fb8072" stroke="black" points="456.393,-252 313.607,-252 313.607,-216 456.393,-216 456.393,-252"/>
<text text-anchor="middle" x="385" y="-229.8" font-family="Times,serif" font-size="14.00">HightlightComponent </text>
</g>
<!-- AutoCompleteModule&#45;&gt;HightlightComponent  -->
<g id="edge9" class="edge"><title>AutoCompleteModule&#45;&gt;HightlightComponent </title>
<path fill="none" stroke="black" stroke-dasharray="5,2" d="M415.602,-187.106C415.602,-187.106 415.602,-205.991 415.602,-205.991"/>
<polygon fill="black" stroke="black" points="412.102,-205.991 415.602,-215.991 419.102,-205.991 412.102,-205.991"/>
</g>
<!-- MutipleAutoCompleteComponent  -->
<g id="node11" class="node"><title>MutipleAutoCompleteComponent </title>
<polygon fill="#fb8072" stroke="black" points="295.599,-252 84.4014,-252 84.4014,-216 295.599,-216 295.599,-252"/>
<text text-anchor="middle" x="190" y="-229.8" font-family="Times,serif" font-size="14.00">MutipleAutoCompleteComponent </text>
</g>
<!-- AutoCompleteModule&#45;&gt;MutipleAutoCompleteComponent  -->
<g id="edge10" class="edge"><title>AutoCompleteModule&#45;&gt;MutipleAutoCompleteComponent </title>
<path fill="none" stroke="black" stroke-dasharray="5,2" d="M374.638,-178C331.341,-178 284.375,-178 284.375,-178 284.375,-178 284.375,-205.973 284.375,-205.973"/>
<polygon fill="black" stroke="black" points="280.875,-205.973 284.375,-215.973 287.875,-205.973 280.875,-205.973"/>
</g>
<!-- CommonModule -->
<g id="node6" class="node"><title>CommonModule</title>
<polygon fill="#8dd3c7" stroke="black" points="248.668,-122 245.668,-126 224.668,-126 221.668,-122 137.332,-122 137.332,-86 248.668,-86 248.668,-122"/>
<text text-anchor="middle" x="193" y="-99.8" font-family="Times,serif" font-size="14.00">CommonModule</text>
</g>
<!-- CommonModule&#45;&gt;AutoCompleteModule -->
<g id="edge5" class="edge"><title>CommonModule&#45;&gt;AutoCompleteModule</title>
<path fill="none" stroke="black" d="M193,-122.027C193,-138.398 193,-160 193,-160 193,-160 364.852,-160 364.852,-160"/>
<polygon fill="black" stroke="black" points="364.852,-163.5 374.852,-160 364.852,-156.5 364.852,-163.5"/>
</g>
<!-- FormsModule -->
<g id="node7" class="node"><title>FormsModule</title>
<polygon fill="#8dd3c7" stroke="black" points="119.829,-122 116.829,-126 95.8288,-126 92.8288,-122 24.1712,-122 24.1712,-86 119.829,-86 119.829,-122"/>
<text text-anchor="middle" x="72" y="-99.8" font-family="Times,serif" font-size="14.00">FormsModule</text>
</g>
<!-- FormsModule&#45;&gt;AutoCompleteModule -->
<g id="edge6" class="edge"><title>FormsModule&#45;&gt;AutoCompleteModule</title>
<path fill="none" stroke="black" d="M101.933,-122.106C101.933,-141.339 101.933,-169 101.933,-169 101.933,-169 364.709,-169 364.709,-169"/>
<polygon fill="black" stroke="black" points="364.709,-172.5 374.709,-169 364.709,-165.5 364.709,-172.5"/>
</g>
</g>
</svg>
