<?xml version="1.0" encoding="UTF-8" standalone="no"?>
<!DOCTYPE svg PUBLIC "-//W3C//DTD SVG 1.1//EN"
 "http://www.w3.org/Graphics/SVG/1.1/DTD/svg11.dtd">
<!-- Generated by graphviz version 2.40.1 (20161225.0304)
 -->
<!-- Title: dependencies Pages: 1 -->
<svg width="1055pt" height="349pt"
 viewBox="0.00 0.00 1055.00 349.00" xmlns="http://www.w3.org/2000/svg" xmlns:xlink="http://www.w3.org/1999/xlink">
<g id="graph0" class="graph" transform="scale(1 1) rotate(0) translate(4 345)">
<title>dependencies</title>
<polygon fill="#ffffff" stroke="transparent" points="-4,4 -4,-345 1051,-345 1051,4 -4,4"/>
<text text-anchor="start" x="502.5091" y="-42.4" font-family="sans-serif" font-weight="bold" font-size="14.00" fill="#000000">Legend</text>
<polygon fill="#ffffb3" stroke="transparent" points="289.5,-10 289.5,-30 309.5,-30 309.5,-10 289.5,-10"/>
<text text-anchor="start" x="313.129" y="-15.4" font-family="sans-serif" font-size="14.00" fill="#000000"> &#160;Declarations</text>
<polygon fill="#8dd3c7" stroke="transparent" points="402.5,-10 402.5,-30 422.5,-30 422.5,-10 402.5,-10"/>
<text text-anchor="start" x="426.2251" y="-15.4" font-family="sans-serif" font-size="14.00" fill="#000000"> &#160;Module</text>
<polygon fill="#80b1d3" stroke="transparent" points="488.5,-10 488.5,-30 508.5,-30 508.5,-10 488.5,-10"/>
<text text-anchor="start" x="512.2812" y="-15.4" font-family="sans-serif" font-size="14.00" fill="#000000"> &#160;Bootstrap</text>
<polygon fill="#fdb462" stroke="transparent" points="585.5,-10 585.5,-30 605.5,-30 605.5,-10 585.5,-10"/>
<text text-anchor="start" x="609.1732" y="-15.4" font-family="sans-serif" font-size="14.00" fill="#000000"> &#160;Providers</text>
<polygon fill="#fb8072" stroke="transparent" points="681.5,-10 681.5,-30 701.5,-30 701.5,-10 681.5,-10"/>
<text text-anchor="start" x="705.2258" y="-15.4" font-family="sans-serif" font-size="14.00" fill="#000000"> &#160;Exports</text>
<g id="clust1" class="cluster">
<title>cluster_AutoCompleteModule</title>
<polygon fill="none" stroke="#000000" stroke-dasharray="1,5" points="8,-70 8,-333 1039,-333 1039,-70 8,-70"/>
</g>
<g id="clust2" class="cluster">
<title>cluster_AutoCompleteModule_declarations</title>
<polygon fill="none" stroke="#000000" points="265,-143 265,-195 1031,-195 1031,-143 265,-143"/>
</g>
<g id="clust3" class="cluster">
<title>cluster_AutoCompleteModule_AutoCompleteDirective_providers</title>
<polygon fill="none" stroke="#000000" points="504,-78 504,-130 1022,-130 1022,-78 504,-78"/>
</g>
<g id="clust7" class="cluster">
<title>cluster_AutoCompleteModule_imports</title>
<polygon fill="none" stroke="#000000" points="16,-143 16,-195 257,-195 257,-143 16,-143"/>
</g>
<g id="clust8" class="cluster">
<title>cluster_AutoCompleteModule_exports</title>
<polygon fill="none" stroke="#000000" points="87,-273 87,-325 869,-325 869,-273 87,-273"/>
</g>
<!-- AutoCompleteDirective -->
<g id="node1" class="node">
<title>AutoCompleteDirective</title>
<polygon fill="#ffffb3" stroke="#000000" points="1023.0184,-187 872.9816,-187 872.9816,-151 1023.0184,-151 1023.0184,-187"/>
<text text-anchor="middle" x="948" y="-164.8" font-family="Times,serif" font-size="14.00" fill="#000000">AutoCompleteDirective</text>
</g>
<!-- AutoCompleteModule -->
<g id="node5" class="node">
<title>AutoCompleteModule</title>
<polygon fill="#8dd3c7" stroke="#000000" points="537.9846,-252 534.9846,-256 513.9846,-256 510.9846,-252 396.0154,-252 396.0154,-216 537.9846,-216 537.9846,-252"/>
<text text-anchor="middle" x="467" y="-229.8" font-family="Times,serif" font-size="14.00" fill="#000000">AutoCompleteModule</text>
</g>
<!-- AutoCompleteDirective&#45;&gt;AutoCompleteModule -->
<g id="edge1" class="edge">
<title>AutoCompleteDirective&#45;&gt;AutoCompleteModule</title>
<path fill="none" stroke="#000000" d="M948,-187.1061C948,-206.3391 948,-234 948,-234 948,-234 548.232,-234 548.232,-234"/>
<polygon fill="#000000" stroke="#000000" points="548.232,-230.5001 538.232,-234 548.232,-237.5001 548.232,-230.5001"/>
</g>
<!-- AutoCompletePopupComponent -->
<g id="node2" class="node">
<title>AutoCompletePopupComponent</title>
<polygon fill="#ffffb3" stroke="#000000" points="854.5503,-187 655.4497,-187 655.4497,-151 854.5503,-151 854.5503,-187"/>
<text text-anchor="middle" x="755" y="-164.8" font-family="Times,serif" font-size="14.00" fill="#000000">AutoCompletePopupComponent</text>
</g>
<!-- AutoCompletePopupComponent&#45;&gt;AutoCompleteModule -->
<g id="edge3" class="edge">
<title>AutoCompletePopupComponent&#45;&gt;AutoCompleteModule</title>
<path fill="none" stroke="#000000" d="M671.875,-187.027C671.875,-203.3976 671.875,-225 671.875,-225 671.875,-225 548.0804,-225 548.0804,-225"/>
<polygon fill="#000000" stroke="#000000" points="548.0804,-221.5001 538.0804,-225 548.0803,-228.5001 548.0804,-221.5001"/>
</g>
<!-- HightlightComponent -->
<g id="node3" class="node">
<title>HightlightComponent</title>
<polygon fill="#ffffb3" stroke="#000000" points="637.392,-187 498.608,-187 498.608,-151 637.392,-151 637.392,-187"/>
<text text-anchor="middle" x="568" y="-164.8" font-family="Times,serif" font-size="14.00" fill="#000000">HightlightComponent</text>
</g>
<!-- HightlightComponent&#45;&gt;AutoCompleteModule -->
<g id="edge5" class="edge">
<title>HightlightComponent&#45;&gt;AutoCompleteModule</title>
<path fill="none" stroke="#000000" d="M518.2732,-187.1061C518.2732,-187.1061 518.2732,-205.991 518.2732,-205.991"/>
<polygon fill="#000000" stroke="#000000" points="514.7732,-205.9909 518.2732,-215.991 521.7732,-205.991 514.7732,-205.9909"/>
</g>
<!-- MutipleAutoCompleteComponent -->
<g id="node4" class="node">
<title>MutipleAutoCompleteComponent</title>
<polygon fill="#ffffb3" stroke="#000000" points="481.0982,-187 272.9018,-187 272.9018,-151 481.0982,-151 481.0982,-187"/>
<text text-anchor="middle" x="377" y="-164.8" font-family="Times,serif" font-size="14.00" fill="#000000">MutipleAutoCompleteComponent</text>
</g>
<!-- MutipleAutoCompleteComponent&#45;&gt;AutoCompleteModule -->
<g id="edge6" class="edge">
<title>MutipleAutoCompleteComponent&#45;&gt;AutoCompleteModule</title>
<path fill="none" stroke="#000000" d="M438.5284,-187.1061C438.5284,-187.1061 438.5284,-205.991 438.5284,-205.991"/>
<polygon fill="#000000" stroke="#000000" points="435.0285,-205.9909 438.5284,-215.991 442.0285,-205.991 435.0285,-205.9909"/>
</g>
<!-- AutoCompleteDirective  -->
<g id="node9" class="node">
<title>AutoCompleteDirective </title>
<polygon fill="#fb8072" stroke="#000000" points="861.0176,-317 706.9824,-317 706.9824,-281 861.0176,-281 861.0176,-317"/>
<text text-anchor="middle" x="784" y="-294.8" font-family="Times,serif" font-size="14.00" fill="#000000">AutoCompleteDirective </text>
</g>
<!-- AutoCompleteModule&#45;&gt;AutoCompleteDirective  -->
<g id="edge9" class="edge">
<title>AutoCompleteModule&#45;&gt;AutoCompleteDirective </title>
<path fill="none" stroke="#000000" stroke-dasharray="5,2" d="M538.2249,-243C630.8336,-243 780.883,-243 780.883,-243 780.883,-243 780.883,-270.973 780.883,-270.973"/>
<polygon fill="#000000" stroke="#000000" points="777.3831,-270.973 780.883,-280.973 784.3831,-270.973 777.3831,-270.973"/>
</g>
<!-- AutoCompletePopupComponent  -->
<g id="node10" class="node">
<title>AutoCompletePopupComponent </title>
<polygon fill="#fb8072" stroke="#000000" points="688.5498,-317 485.4502,-317 485.4502,-281 688.5498,-281 688.5498,-317"/>
<text text-anchor="middle" x="587" y="-294.8" font-family="Times,serif" font-size="14.00" fill="#000000">AutoCompletePopupComponent </text>
</g>
<!-- AutoCompleteModule&#45;&gt;AutoCompletePopupComponent  -->
<g id="edge10" class="edge">
<title>AutoCompleteModule&#45;&gt;AutoCompletePopupComponent </title>
<path fill="none" stroke="#000000" stroke-dasharray="5,2" d="M511.7337,-252.1061C511.7337,-252.1061 511.7337,-270.991 511.7337,-270.991"/>
<polygon fill="#000000" stroke="#000000" points="508.2338,-270.9909 511.7337,-280.991 515.2338,-270.991 508.2338,-270.9909"/>
</g>
<!-- HightlightComponent  -->
<g id="node11" class="node">
<title>HightlightComponent </title>
<polygon fill="#fb8072" stroke="#000000" points="467.3925,-317 324.6075,-317 324.6075,-281 467.3925,-281 467.3925,-317"/>
<text text-anchor="middle" x="396" y="-294.8" font-family="Times,serif" font-size="14.00" fill="#000000">HightlightComponent </text>
</g>
<!-- AutoCompleteModule&#45;&gt;HightlightComponent  -->
<g id="edge11" class="edge">
<title>AutoCompleteModule&#45;&gt;HightlightComponent </title>
<path fill="none" stroke="#000000" stroke-dasharray="5,2" d="M431.6019,-252.1061C431.6019,-252.1061 431.6019,-270.991 431.6019,-270.991"/>
<polygon fill="#000000" stroke="#000000" points="428.1019,-270.9909 431.6019,-280.991 435.1019,-270.991 428.1019,-270.9909"/>
</g>
<!-- MutipleAutoCompleteComponent  -->
<g id="node12" class="node">
<title>MutipleAutoCompleteComponent </title>
<polygon fill="#fb8072" stroke="#000000" points="306.5986,-317 95.4014,-317 95.4014,-281 306.5986,-281 306.5986,-317"/>
<text text-anchor="middle" x="201" y="-294.8" font-family="Times,serif" font-size="14.00" fill="#000000">MutipleAutoCompleteComponent </text>
</g>
<!-- AutoCompleteModule&#45;&gt;MutipleAutoCompleteComponent  -->
<g id="edge12" class="edge">
<title>AutoCompleteModule&#45;&gt;MutipleAutoCompleteComponent </title>
<path fill="none" stroke="#000000" stroke-dasharray="5,2" d="M395.9771,-243C346.6995,-243 289.875,-243 289.875,-243 289.875,-243 289.875,-270.973 289.875,-270.973"/>
<polygon fill="#000000" stroke="#000000" points="286.3751,-270.973 289.875,-280.973 293.3751,-270.973 286.3751,-270.973"/>
</g>
<!-- { provide: NG_VALUE_ACCESSOR, useExisting: , multi: &#160;} -->
<g id="node6" class="node">
<title>{ provide: NG_VALUE_ACCESSOR, useExisting: , multi: &#160;}</title>
<ellipse fill="#fdb462" stroke="#000000" cx="763" cy="-104" rx="251.4985" ry="18"/>
<text text-anchor="middle" x="763" y="-99.8" font-family="Times,serif" font-size="14.00" fill="#000000">{ provide: NG_VALUE_ACCESSOR, useExisting: , multi: &#160;}</text>
</g>
<!-- { provide: NG_VALUE_ACCESSOR, useExisting: , multi: &#160;}&#45;&gt;AutoCompleteDirective -->
<g id="edge2" class="edge">
<title>{ provide: NG_VALUE_ACCESSOR, useExisting: , multi: &#160;}&#45;&gt;AutoCompleteDirective</title>
<path fill="none" stroke="#000000" d="M943.4952,-116.5327C943.4952,-116.5327 943.4952,-140.8507 943.4952,-140.8507"/>
<polygon fill="#000000" stroke="#000000" points="939.9953,-140.8506 943.4952,-150.8507 946.9953,-140.8507 939.9953,-140.8506"/>
</g>
<!-- { provide: NG_VALUE_ACCESSOR, useExisting: , multi: &#160;}&#45;&gt;AutoCompletePopupComponent -->
<g id="edge4" class="edge">
<title>{ provide: NG_VALUE_ACCESSOR, useExisting: , multi: &#160;}&#45;&gt;AutoCompletePopupComponent</title>
<path fill="none" stroke="#000000" d="M755,-122.1061C755,-122.1061 755,-140.991 755,-140.991"/>
<polygon fill="#000000" stroke="#000000" points="751.5001,-140.9909 755,-150.991 758.5001,-140.991 751.5001,-140.9909"/>
</g>
<!-- CommonModule -->
<g id="node7" class="node">
<title>CommonModule</title>
<polygon fill="#8dd3c7" stroke="#000000" points="248.6681,-187 245.6681,-191 224.6681,-191 221.6681,-187 137.3319,-187 137.3319,-151 248.6681,-151 248.6681,-187"/>
<text text-anchor="middle" x="193" y="-164.8" font-family="Times,serif" font-size="14.00" fill="#000000">CommonModule</text>
</g>
<!-- CommonModule&#45;&gt;AutoCompleteModule -->
<g id="edge7" class="edge">
<title>CommonModule&#45;&gt;AutoCompleteModule</title>
<path fill="none" stroke="#000000" d="M193,-187.027C193,-203.3976 193,-225 193,-225 193,-225 385.725,-225 385.725,-225"/>
<polygon fill="#000000" stroke="#000000" points="385.725,-228.5001 395.725,-225 385.725,-221.5001 385.725,-228.5001"/>
</g>
<!-- FormsModule -->
<g id="node8" class="node">
<title>FormsModule</title>
<polygon fill="#8dd3c7" stroke="#000000" points="119.8288,-187 116.8288,-191 95.8288,-191 92.8288,-187 24.1712,-187 24.1712,-151 119.8288,-151 119.8288,-187"/>
<text text-anchor="middle" x="72" y="-164.8" font-family="Times,serif" font-size="14.00" fill="#000000">FormsModule</text>
</g>
<!-- FormsModule&#45;&gt;AutoCompleteModule -->
<g id="edge8" class="edge">
<title>FormsModule&#45;&gt;AutoCompleteModule</title>
<path fill="none" stroke="#000000" d="M107.4325,-187.1061C107.4325,-206.3391 107.4325,-234 107.4325,-234 107.4325,-234 385.961,-234 385.961,-234"/>
<polygon fill="#000000" stroke="#000000" points="385.9611,-237.5001 395.961,-234 385.961,-230.5001 385.9611,-237.5001"/>
</g>
</g>
</svg>
