<?xml version="1.0" encoding="UTF-8" standalone="no"?>
<!DOCTYPE svg PUBLIC "-//W3C//DTD SVG 1.1//EN"
 "http://www.w3.org/Graphics/SVG/1.1/DTD/svg11.dtd">
<!-- Generated by graphviz version 2.38.0 (20140413.2041)
 -->
<!-- Title: dependencies Pages: 1 -->
<svg width="716pt" height="284pt"
 viewBox="0.00 0.00 716.00 284.00" xmlns="http://www.w3.org/2000/svg" xmlns:xlink="http://www.w3.org/1999/xlink">
<g id="graph0" class="graph" transform="scale(1 1) rotate(0) translate(4 280)">
<title>dependencies</title>
<polygon fill="white" stroke="none" points="-4,4 -4,-280 712,-280 712,4 -4,4"/>
<text text-anchor="start" x="333.009" y="-42.4" font-family="sans-serif" font-weight="bold" font-size="14.00">Legend</text>
<polygon fill="#ffffb3" stroke="none" points="120,-10 120,-30 140,-30 140,-10 120,-10"/>
<text text-anchor="start" x="143.629" y="-15.4" font-family="sans-serif" font-size="14.00"> &#160;Declarations</text>
<polygon fill="#8dd3c7" stroke="none" points="233,-10 233,-30 253,-30 253,-10 233,-10"/>
<text text-anchor="start" x="256.725" y="-15.4" font-family="sans-serif" font-size="14.00"> &#160;Module</text>
<polygon fill="#80b1d3" stroke="none" points="319,-10 319,-30 339,-30 339,-10 319,-10"/>
<text text-anchor="start" x="342.781" y="-15.4" font-family="sans-serif" font-size="14.00"> &#160;Bootstrap</text>
<polygon fill="#fdb462" stroke="none" points="416,-10 416,-30 436,-30 436,-10 416,-10"/>
<text text-anchor="start" x="439.673" y="-15.4" font-family="sans-serif" font-size="14.00"> &#160;Providers</text>
<polygon fill="#fb8072" stroke="none" points="512,-10 512,-30 532,-30 532,-10 512,-10"/>
<text text-anchor="start" x="535.726" y="-15.4" font-family="sans-serif" font-size="14.00"> &#160;Exports</text>
<g id="clust1" class="cluster"><title>cluster_AutoCompleteModule</title>
<polygon fill="none" stroke="black" stroke-dasharray="1,5" points="8,-70 8,-268 700,-268 700,-70 8,-70"/>
</g>
<g id="clust2" class="cluster"><title>cluster_AutoCompleteModule_declarations</title>
<polygon fill="none" stroke="black" points="152,-78 152,-130 692,-130 692,-78 152,-78"/>
</g>
<g id="clust6" class="cluster"><title>cluster_AutoCompleteModule_imports</title>
<polygon fill="none" stroke="black" points="16,-78 16,-130 144,-130 144,-78 16,-78"/>
</g>
<g id="clust7" class="cluster"><title>cluster_AutoCompleteModule_exports</title>
<polygon fill="none" stroke="black" points="78,-208 78,-260 630,-260 630,-208 78,-208"/>
</g>
<!-- AutoCompleteDirective -->
<g id="node1" class="node"><title>AutoCompleteDirective</title>
<polygon fill="#ffffb3" stroke="black" points="684.018,-122 533.982,-122 533.982,-86 684.018,-86 684.018,-122"/>
<text text-anchor="middle" x="609" y="-99.8" font-family="Times,serif" font-size="14.00">AutoCompleteDirective</text>
</g>
<!-- AutoCompleteModule -->
<g id="node4" class="node"><title>AutoCompleteModule</title>
<polygon fill="#8dd3c7" stroke="black" points="418.985,-187 415.985,-191 394.985,-191 391.985,-187 277.015,-187 277.015,-151 418.985,-151 418.985,-187"/>
<text text-anchor="middle" x="348" y="-164.8" font-family="Times,serif" font-size="14.00">AutoCompleteModule</text>
</g>
<!-- AutoCompleteDirective&#45;&gt;AutoCompleteModule -->
<g id="edge1" class="edge"><title>AutoCompleteDirective&#45;&gt;AutoCompleteModule</title>
<path fill="none" stroke="black" d="M577.875,-122.023C577.875,-139.373 577.875,-163 577.875,-163 577.875,-163 429.16,-163 429.16,-163"/>
<polygon fill="black" stroke="black" points="429.16,-159.5 419.16,-163 429.16,-166.5 429.16,-159.5"/>
</g>
<!-- AutoCompletePopupComponent -->
<g id="node2" class="node"><title>AutoCompletePopupComponent</title>
<polygon fill="#ffffb3" stroke="black" points="515.55,-122 316.45,-122 316.45,-86 515.55,-86 515.55,-122"/>
<text text-anchor="middle" x="416" y="-99.8" font-family="Times,serif" font-size="14.00">AutoCompletePopupComponent</text>
</g>
<!-- AutoCompletePopupComponent&#45;&gt;AutoCompleteModule -->
<g id="edge2" class="edge"><title>AutoCompletePopupComponent&#45;&gt;AutoCompleteModule</title>
<path fill="none" stroke="black" d="M367.609,-122.106C367.609,-122.106 367.609,-140.991 367.609,-140.991"/>
<polygon fill="black" stroke="black" points="364.109,-140.991 367.609,-150.991 371.109,-140.991 364.109,-140.991"/>
</g>
<!-- HightlightComponent -->
<g id="node3" class="node"><title>HightlightComponent</title>
<polygon fill="#ffffb3" stroke="black" points="298.392,-122 159.608,-122 159.608,-86 298.392,-86 298.392,-122"/>
<text text-anchor="middle" x="229" y="-99.8" font-family="Times,serif" font-size="14.00">HightlightComponent</text>
</g>
<!-- HightlightComponent&#45;&gt;AutoCompleteModule -->
<g id="edge3" class="edge"><title>HightlightComponent&#45;&gt;AutoCompleteModule</title>
<path fill="none" stroke="black" d="M287.727,-122.106C287.727,-122.106 287.727,-140.991 287.727,-140.991"/>
<polygon fill="black" stroke="black" points="284.227,-140.991 287.727,-150.991 291.227,-140.991 284.227,-140.991"/>
</g>
<!-- AutoCompleteDirective  -->
<g id="node6" class="node"><title>AutoCompleteDirective </title>
<polygon fill="#fb8072" stroke="black" points="622.018,-252 467.982,-252 467.982,-216 622.018,-216 622.018,-252"/>
<text text-anchor="middle" x="545" y="-229.8" font-family="Times,serif" font-size="14.00">AutoCompleteDirective </text>
</g>
<!-- AutoCompleteModule&#45;&gt;AutoCompleteDirective  -->
<g id="edge5" class="edge"><title>AutoCompleteModule&#45;&gt;AutoCompleteDirective </title>
<path fill="none" stroke="black" stroke-dasharray="5,2" d="M419.098,-175C455.348,-175 491.883,-175 491.883,-175 491.883,-175 491.883,-205.977 491.883,-205.977"/>
<polygon fill="black" stroke="black" points="488.383,-205.977 491.883,-215.977 495.383,-205.978 488.383,-205.977"/>
</g>
<!-- AutoCompletePopupComponent  -->
<g id="node7" class="node"><title>AutoCompletePopupComponent </title>
<polygon fill="#fb8072" stroke="black" points="449.55,-252 246.45,-252 246.45,-216 449.55,-216 449.55,-252"/>
<text text-anchor="middle" x="348" y="-229.8" font-family="Times,serif" font-size="14.00">AutoCompletePopupComponent </text>
</g>
<!-- AutoCompleteModule&#45;&gt;AutoCompletePopupComponent  -->
<g id="edge6" class="edge"><title>AutoCompleteModule&#45;&gt;AutoCompletePopupComponent </title>
<path fill="none" stroke="black" stroke-dasharray="5,2" d="M348,-187.106C348,-187.106 348,-205.991 348,-205.991"/>
<polygon fill="black" stroke="black" points="344.5,-205.991 348,-215.991 351.5,-205.991 344.5,-205.991"/>
</g>
<!-- HightlightComponent  -->
<g id="node8" class="node"><title>HightlightComponent </title>
<polygon fill="#fb8072" stroke="black" points="228.393,-252 85.6075,-252 85.6075,-216 228.393,-216 228.393,-252"/>
<text text-anchor="middle" x="157" y="-229.8" font-family="Times,serif" font-size="14.00">HightlightComponent </text>
</g>
<!-- AutoCompleteModule&#45;&gt;HightlightComponent  -->
<g id="edge7" class="edge"><title>AutoCompleteModule&#45;&gt;HightlightComponent </title>
<path fill="none" stroke="black" stroke-dasharray="5,2" d="M276.802,-175C236.419,-175 193.875,-175 193.875,-175 193.875,-175 193.875,-205.977 193.875,-205.977"/>
<polygon fill="black" stroke="black" points="190.375,-205.977 193.875,-215.977 197.375,-205.978 190.375,-205.977"/>
</g>
<!-- CommonModule -->
<g id="node5" class="node"><title>CommonModule</title>
<polygon fill="#8dd3c7" stroke="black" points="135.668,-122 132.668,-126 111.668,-126 108.668,-122 24.3319,-122 24.3319,-86 135.668,-86 135.668,-122"/>
<text text-anchor="middle" x="80" y="-99.8" font-family="Times,serif" font-size="14.00">CommonModule</text>
</g>
<!-- CommonModule&#45;&gt;AutoCompleteModule -->
<g id="edge4" class="edge"><title>CommonModule&#45;&gt;AutoCompleteModule</title>
<path fill="none" stroke="black" d="M110.819,-122.023C110.819,-139.373 110.819,-163 110.819,-163 110.819,-163 266.838,-163 266.838,-163"/>
<polygon fill="black" stroke="black" points="266.838,-166.5 276.838,-163 266.838,-159.5 266.838,-166.5"/>
</g>
</g>
</svg>
