<?xml version="1.0" encoding="UTF-8" standalone="no"?>
<!DOCTYPE svg PUBLIC "-//W3C//DTD SVG 1.1//EN"
 "http://www.w3.org/Graphics/SVG/1.1/DTD/svg11.dtd">
<!-- Generated by graphviz version 2.40.1 (20161225.0304)
 -->
<!-- Title: dependencies Pages: 1 -->
<svg width="504pt" height="284pt"
 viewBox="0.00 0.00 504.00 284.00" xmlns="http://www.w3.org/2000/svg" xmlns:xlink="http://www.w3.org/1999/xlink">
<g id="graph0" class="graph" transform="scale(1 1) rotate(0) translate(4 280)">
<title>dependencies</title>
<polygon fill="#ffffff" stroke="transparent" points="-4,4 -4,-280 500,-280 500,4 -4,4"/>
<text text-anchor="start" x="227.0091" y="-42.4" font-family="sans-serif" font-weight="bold" font-size="14.00" fill="#000000">Legend</text>
<polygon fill="#ffffb3" stroke="transparent" points="14,-10 14,-30 34,-30 34,-10 14,-10"/>
<text text-anchor="start" x="37.629" y="-15.4" font-family="sans-serif" font-size="14.00" fill="#000000"> &#160;Declarations</text>
<polygon fill="#8dd3c7" stroke="transparent" points="127,-10 127,-30 147,-30 147,-10 127,-10"/>
<text text-anchor="start" x="150.7251" y="-15.4" font-family="sans-serif" font-size="14.00" fill="#000000"> &#160;Module</text>
<polygon fill="#80b1d3" stroke="transparent" points="213,-10 213,-30 233,-30 233,-10 213,-10"/>
<text text-anchor="start" x="236.7812" y="-15.4" font-family="sans-serif" font-size="14.00" fill="#000000"> &#160;Bootstrap</text>
<polygon fill="#fdb462" stroke="transparent" points="310,-10 310,-30 330,-30 330,-10 310,-10"/>
<text text-anchor="start" x="333.6732" y="-15.4" font-family="sans-serif" font-size="14.00" fill="#000000"> &#160;Providers</text>
<polygon fill="#fb8072" stroke="transparent" points="406,-10 406,-30 426,-30 426,-10 406,-10"/>
<text text-anchor="start" x="429.7258" y="-15.4" font-family="sans-serif" font-size="14.00" fill="#000000"> &#160;Exports</text>
<g id="clust1" class="cluster">
<title>cluster_AlertBoxModule</title>
<polygon fill="none" stroke="#000000" stroke-dasharray="1,5" points="71,-70 71,-268 425,-268 425,-70 71,-70"/>
</g>
<g id="clust3" class="cluster">
<title>cluster_AlertBoxModule_imports</title>
<polygon fill="none" stroke="#000000" points="192,-78 192,-130 320,-130 320,-78 192,-78"/>
</g>
<g id="clust4" class="cluster">
<title>cluster_AlertBoxModule_exports</title>
<polygon fill="none" stroke="#000000" points="79,-208 79,-260 417,-260 417,-208 79,-208"/>
</g>
<!-- CommonModule -->
<g id="node1" class="node">
<title>CommonModule</title>
<polygon fill="#8dd3c7" stroke="#000000" points="311.6681,-122 308.6681,-126 287.6681,-126 284.6681,-122 200.3319,-122 200.3319,-86 311.6681,-86 311.6681,-122"/>
<text text-anchor="middle" x="256" y="-99.8" font-family="Times,serif" font-size="14.00" fill="#000000">CommonModule</text>
</g>
<!-- AlertBoxModule -->
<g id="node2" class="node">
<title>AlertBoxModule</title>
<polygon fill="#8dd3c7" stroke="#000000" points="311.6499,-187 308.6499,-191 287.6499,-191 284.6499,-187 200.3501,-187 200.3501,-151 311.6499,-151 311.6499,-187"/>
<text text-anchor="middle" x="256" y="-164.8" font-family="Times,serif" font-size="14.00" fill="#000000">AlertBoxModule</text>
</g>
<!-- CommonModule&#45;&gt;AlertBoxModule -->
<g id="edge1" class="edge">
<title>CommonModule&#45;&gt;AlertBoxModule</title>
<path fill="none" stroke="#000000" d="M256,-122.1061C256,-122.1061 256,-140.991 256,-140.991"/>
<polygon fill="#000000" stroke="#000000" points="252.5001,-140.9909 256,-150.991 259.5001,-140.991 252.5001,-140.9909"/>
</g>
<!-- AlertBoxComponent  -->
<g id="node3" class="node">
<title>AlertBoxComponent </title>
<polygon fill="#fb8072" stroke="#000000" points="409.432,-252 272.568,-252 272.568,-216 409.432,-216 409.432,-252"/>
<text text-anchor="middle" x="341" y="-229.8" font-family="Times,serif" font-size="14.00" fill="#000000">AlertBoxComponent </text>
</g>
<!-- AlertBoxModule&#45;&gt;AlertBoxComponent  -->
<g id="edge2" class="edge">
<title>AlertBoxModule&#45;&gt;AlertBoxComponent </title>
<path fill="none" stroke="#000000" stroke-dasharray="5,2" d="M292.1794,-187.1061C292.1794,-187.1061 292.1794,-205.991 292.1794,-205.991"/>
<polygon fill="#000000" stroke="#000000" points="288.6794,-205.9909 292.1794,-215.991 295.6794,-205.991 288.6794,-205.9909"/>
</g>
<!-- AlertBoxPanelComponent  -->
<g id="node4" class="node">
<title>AlertBoxPanelComponent </title>
<polygon fill="#fb8072" stroke="#000000" points="255.0344,-252 86.9656,-252 86.9656,-216 255.0344,-216 255.0344,-252"/>
<text text-anchor="middle" x="171" y="-229.8" font-family="Times,serif" font-size="14.00" fill="#000000">AlertBoxPanelComponent </text>
</g>
<!-- AlertBoxModule&#45;&gt;AlertBoxPanelComponent  -->
<g id="edge3" class="edge">
<title>AlertBoxModule&#45;&gt;AlertBoxPanelComponent </title>
<path fill="none" stroke="#000000" stroke-dasharray="5,2" d="M227.5963,-187.1061C227.5963,-187.1061 227.5963,-205.991 227.5963,-205.991"/>
<polygon fill="#000000" stroke="#000000" points="224.0963,-205.9909 227.5963,-215.991 231.0963,-205.991 224.0963,-205.9909"/>
</g>
</g>
</svg>
