<?xml version="1.0" encoding="UTF-8" standalone="no"?>
<!DOCTYPE svg PUBLIC "-//W3C//DTD SVG 1.1//EN"
 "http://www.w3.org/Graphics/SVG/1.1/DTD/svg11.dtd">
<!-- Generated by graphviz version 2.38.0 (20140413.2041)
 -->
<!-- Title: dependencies Pages: 1 -->
<svg width="504pt" height="284pt"
 viewBox="0.00 0.00 504.00 284.00" xmlns="http://www.w3.org/2000/svg" xmlns:xlink="http://www.w3.org/1999/xlink">
<g id="graph0" class="graph" transform="scale(1 1) rotate(0) translate(4 280)">
<title>dependencies</title>
<polygon fill="white" stroke="none" points="-4,4 -4,-280 500,-280 500,4 -4,4"/>
<text text-anchor="start" x="227.009" y="-42.4" font-family="sans-serif" font-weight="bold" font-size="14.00">Legend</text>
<polygon fill="#ffffb3" stroke="none" points="14,-10 14,-30 34,-30 34,-10 14,-10"/>
<text text-anchor="start" x="37.629" y="-15.4" font-family="sans-serif" font-size="14.00"> &#160;Declarations</text>
<polygon fill="#8dd3c7" stroke="none" points="127,-10 127,-30 147,-30 147,-10 127,-10"/>
<text text-anchor="start" x="150.725" y="-15.4" font-family="sans-serif" font-size="14.00"> &#160;Module</text>
<polygon fill="#80b1d3" stroke="none" points="213,-10 213,-30 233,-30 233,-10 213,-10"/>
<text text-anchor="start" x="236.781" y="-15.4" font-family="sans-serif" font-size="14.00"> &#160;Bootstrap</text>
<polygon fill="#fdb462" stroke="none" points="310,-10 310,-30 330,-30 330,-10 310,-10"/>
<text text-anchor="start" x="333.673" y="-15.4" font-family="sans-serif" font-size="14.00"> &#160;Providers</text>
<polygon fill="#fb8072" stroke="none" points="406,-10 406,-30 426,-30 426,-10 406,-10"/>
<text text-anchor="start" x="429.726" y="-15.4" font-family="sans-serif" font-size="14.00"> &#160;Exports</text>
<g id="clust1" class="cluster"><title>cluster_AlertBoxModule</title>
<polygon fill="none" stroke="black" stroke-dasharray="1,5" points="97,-70 97,-268 399,-268 399,-70 97,-70"/>
</g>
<g id="clust2" class="cluster"><title>cluster_AlertBoxModule_declarations</title>
<polygon fill="none" stroke="black" points="241,-78 241,-130 391,-130 391,-78 241,-78"/>
</g>
<g id="clust4" class="cluster"><title>cluster_AlertBoxModule_imports</title>
<polygon fill="none" stroke="black" points="105,-78 105,-130 233,-130 233,-78 105,-78"/>
</g>
<g id="clust5" class="cluster"><title>cluster_AlertBoxModule_exports</title>
<polygon fill="none" stroke="black" points="172,-208 172,-260 324,-260 324,-208 172,-208"/>
</g>
<!-- AlertBoxComponent -->
<g id="node1" class="node"><title>AlertBoxComponent</title>
<polygon fill="#ffffb3" stroke="black" points="382.933,-122 249.067,-122 249.067,-86 382.933,-86 382.933,-122"/>
<text text-anchor="middle" x="316" y="-99.8" font-family="Times,serif" font-size="14.00">AlertBoxComponent</text>
</g>
<!-- AlertBoxModule -->
<g id="node2" class="node"><title>AlertBoxModule</title>
<polygon fill="#8dd3c7" stroke="black" points="303.65,-187 300.65,-191 279.65,-191 276.65,-187 192.35,-187 192.35,-151 303.65,-151 303.65,-187"/>
<text text-anchor="middle" x="248" y="-164.8" font-family="Times,serif" font-size="14.00">AlertBoxModule</text>
</g>
<!-- AlertBoxComponent&#45;&gt;AlertBoxModule -->
<g id="edge1" class="edge"><title>AlertBoxComponent&#45;&gt;AlertBoxModule</title>
<path fill="none" stroke="black" d="M276.554,-122.106C276.554,-122.106 276.554,-140.991 276.554,-140.991"/>
<polygon fill="black" stroke="black" points="273.054,-140.991 276.554,-150.991 280.054,-140.991 273.054,-140.991"/>
</g>
<!-- AlertBoxComponent  -->
<g id="node4" class="node"><title>AlertBoxComponent </title>
<polygon fill="#fb8072" stroke="black" points="316.432,-252 179.568,-252 179.568,-216 316.432,-216 316.432,-252"/>
<text text-anchor="middle" x="248" y="-229.8" font-family="Times,serif" font-size="14.00">AlertBoxComponent </text>
</g>
<!-- AlertBoxModule&#45;&gt;AlertBoxComponent  -->
<g id="edge3" class="edge"><title>AlertBoxModule&#45;&gt;AlertBoxComponent </title>
<path fill="none" stroke="black" stroke-dasharray="5,2" d="M248,-187.106C248,-187.106 248,-205.991 248,-205.991"/>
<polygon fill="black" stroke="black" points="244.5,-205.991 248,-215.991 251.5,-205.991 244.5,-205.991"/>
</g>
<!-- CommonModule -->
<g id="node3" class="node"><title>CommonModule</title>
<polygon fill="#8dd3c7" stroke="black" points="224.668,-122 221.668,-126 200.668,-126 197.668,-122 113.332,-122 113.332,-86 224.668,-86 224.668,-122"/>
<text text-anchor="middle" x="169" y="-99.8" font-family="Times,serif" font-size="14.00">CommonModule</text>
</g>
<!-- CommonModule&#45;&gt;AlertBoxModule -->
<g id="edge2" class="edge"><title>CommonModule&#45;&gt;AlertBoxModule</title>
<path fill="none" stroke="black" d="M208.505,-122.106C208.505,-122.106 208.505,-140.991 208.505,-140.991"/>
<polygon fill="black" stroke="black" points="205.005,-140.991 208.505,-150.991 212.005,-140.991 205.005,-140.991"/>
</g>
</g>
</svg>
