<?xml version="1.0" encoding="UTF-8" standalone="no"?>
<!DOCTYPE svg PUBLIC "-//W3C//DTD SVG 1.1//EN"
 "http://www.w3.org/Graphics/SVG/1.1/DTD/svg11.dtd">
<!-- Generated by graphviz version 2.40.1 (20161225.0304)
 -->
<!-- Title: dependencies Pages: 1 -->
<svg width="504pt" height="284pt"
 viewBox="0.00 0.00 504.00 284.00" xmlns="http://www.w3.org/2000/svg" xmlns:xlink="http://www.w3.org/1999/xlink">
<g id="graph0" class="graph" transform="scale(1 1) rotate(0) translate(4 280)">
<title>dependencies</title>
<polygon fill="#ffffff" stroke="transparent" points="-4,4 -4,-280 500,-280 500,4 -4,4"/>
<text text-anchor="start" x="227.0091" y="-42.4" font-family="sans-serif" font-weight="bold" font-size="14.00" fill="#000000">Legend</text>
<polygon fill="#ffffb3" stroke="transparent" points="14,-10 14,-30 34,-30 34,-10 14,-10"/>
<text text-anchor="start" x="37.629" y="-15.4" font-family="sans-serif" font-size="14.00" fill="#000000"> &#160;Declarations</text>
<polygon fill="#8dd3c7" stroke="transparent" points="127,-10 127,-30 147,-30 147,-10 127,-10"/>
<text text-anchor="start" x="150.7251" y="-15.4" font-family="sans-serif" font-size="14.00" fill="#000000"> &#160;Module</text>
<polygon fill="#80b1d3" stroke="transparent" points="213,-10 213,-30 233,-30 233,-10 213,-10"/>
<text text-anchor="start" x="236.7812" y="-15.4" font-family="sans-serif" font-size="14.00" fill="#000000"> &#160;Bootstrap</text>
<polygon fill="#fdb462" stroke="transparent" points="310,-10 310,-30 330,-30 330,-10 310,-10"/>
<text text-anchor="start" x="333.6732" y="-15.4" font-family="sans-serif" font-size="14.00" fill="#000000"> &#160;Providers</text>
<polygon fill="#fb8072" stroke="transparent" points="406,-10 406,-30 426,-30 426,-10 406,-10"/>
<text text-anchor="start" x="429.7258" y="-15.4" font-family="sans-serif" font-size="14.00" fill="#000000"> &#160;Exports</text>
<g id="clust1" class="cluster">
<title>cluster_CheckboxGroupModule</title>
<polygon fill="none" stroke="#000000" stroke-dasharray="1,5" points="63.5,-70 63.5,-268 432.5,-268 432.5,-70 63.5,-70"/>
</g>
<g id="clust2" class="cluster">
<title>cluster_CheckboxGroupModule_declarations</title>
<polygon fill="none" stroke="#000000" points="75.5,-78 75.5,-130 421.5,-130 421.5,-78 75.5,-78"/>
</g>
<g id="clust6" class="cluster">
<title>cluster_CheckboxGroupModule_exports</title>
<polygon fill="none" stroke="#000000" points="71.5,-208 71.5,-260 424.5,-260 424.5,-208 71.5,-208"/>
</g>
<!-- CheckboxGroupComponent -->
<g id="node1" class="node">
<title>CheckboxGroupComponent</title>
<polygon fill="#ffffb3" stroke="#000000" points="413.3655,-122 239.6345,-122 239.6345,-86 413.3655,-86 413.3655,-122"/>
<text text-anchor="middle" x="326.5" y="-99.8" font-family="Times,serif" font-size="14.00" fill="#000000">CheckboxGroupComponent</text>
</g>
<!-- CheckboxGroupModule -->
<g id="node3" class="node">
<title>CheckboxGroupModule</title>
<polygon fill="#8dd3c7" stroke="#000000" points="229.5828,-187 226.5828,-191 205.5828,-191 202.5828,-187 77.4172,-187 77.4172,-151 229.5828,-151 229.5828,-187"/>
<text text-anchor="middle" x="153.5" y="-164.8" font-family="Times,serif" font-size="14.00" fill="#000000">CheckboxGroupModule</text>
</g>
<!-- CheckboxGroupComponent&#45;&gt;CheckboxGroupModule -->
<g id="edge1" class="edge">
<title>CheckboxGroupComponent&#45;&gt;CheckboxGroupModule</title>
<path fill="none" stroke="#000000" d="M239.5826,-104C231.0909,-104 225.5453,-104 225.5453,-104 225.5453,-104 225.5453,-140.8939 225.5453,-140.8939"/>
<polygon fill="#000000" stroke="#000000" points="222.0453,-140.8938 225.5453,-150.8939 229.0453,-140.8939 222.0453,-140.8938"/>
</g>
<!-- CheckboxComponent -->
<g id="node2" class="node">
<title>CheckboxComponent</title>
<polygon fill="#ffffb3" stroke="#000000" points="221.5982,-122 83.4018,-122 83.4018,-86 221.5982,-86 221.5982,-122"/>
<text text-anchor="middle" x="152.5" y="-99.8" font-family="Times,serif" font-size="14.00" fill="#000000">CheckboxComponent</text>
</g>
<!-- CheckboxComponent&#45;&gt;CheckboxGroupModule -->
<g id="edge2" class="edge">
<title>CheckboxComponent&#45;&gt;CheckboxGroupModule</title>
<path fill="none" stroke="#000000" d="M152.5,-122.1061C152.5,-122.1061 152.5,-140.991 152.5,-140.991"/>
<polygon fill="#000000" stroke="#000000" points="149.0001,-140.9909 152.5,-150.991 156.0001,-140.991 149.0001,-140.9909"/>
</g>
<!-- CheckboxGroupComponent  -->
<g id="node4" class="node">
<title>CheckboxGroupComponent </title>
<polygon fill="#fb8072" stroke="#000000" points="416.3658,-252 238.6342,-252 238.6342,-216 416.3658,-216 416.3658,-252"/>
<text text-anchor="middle" x="327.5" y="-229.8" font-family="Times,serif" font-size="14.00" fill="#000000">CheckboxGroupComponent </text>
</g>
<!-- CheckboxGroupModule&#45;&gt;CheckboxGroupComponent  -->
<g id="edge3" class="edge">
<title>CheckboxGroupModule&#45;&gt;CheckboxGroupComponent </title>
<path fill="none" stroke="#000000" stroke-dasharray="5,2" d="M225.4203,-187.1061C225.4203,-206.3391 225.4203,-234 225.4203,-234 225.4203,-234 228.7654,-234 228.7654,-234"/>
<polygon fill="#000000" stroke="#000000" points="228.7654,-237.5001 238.7654,-234 228.7654,-230.5001 228.7654,-237.5001"/>
</g>
<!-- CheckboxComponent  -->
<g id="node5" class="node">
<title>CheckboxComponent </title>
<polygon fill="#fb8072" stroke="#000000" points="221.0988,-252 79.9012,-252 79.9012,-216 221.0988,-216 221.0988,-252"/>
<text text-anchor="middle" x="150.5" y="-229.8" font-family="Times,serif" font-size="14.00" fill="#000000">CheckboxComponent </text>
</g>
<!-- CheckboxGroupModule&#45;&gt;CheckboxComponent  -->
<g id="edge4" class="edge">
<title>CheckboxGroupModule&#45;&gt;CheckboxComponent </title>
<path fill="none" stroke="#000000" stroke-dasharray="5,2" d="M150.5,-187.1061C150.5,-187.1061 150.5,-205.991 150.5,-205.991"/>
<polygon fill="#000000" stroke="#000000" points="147.0001,-205.9909 150.5,-215.991 154.0001,-205.991 147.0001,-205.9909"/>
</g>
</g>
</svg>
