<?xml version="1.0" encoding="UTF-8" standalone="no"?>
<!DOCTYPE svg PUBLIC "-//W3C//DTD SVG 1.1//EN"
 "http://www.w3.org/Graphics/SVG/1.1/DTD/svg11.dtd">
<!-- Generated by graphviz version 2.40.1 (20161225.0304)
 -->
<!-- Title: dependencies Pages: 1 -->
<svg width="558pt" height="349pt"
 viewBox="0.00 0.00 558.00 349.00" xmlns="http://www.w3.org/2000/svg" xmlns:xlink="http://www.w3.org/1999/xlink">
<g id="graph0" class="graph" transform="scale(1 1) rotate(0) translate(4 345)">
<title>dependencies</title>
<polygon fill="#ffffff" stroke="transparent" points="-4,4 -4,-345 554,-345 554,4 -4,4"/>
<text text-anchor="start" x="254.0091" y="-42.4" font-family="sans-serif" font-weight="bold" font-size="14.00" fill="#000000">Legend</text>
<polygon fill="#ffffb3" stroke="transparent" points="41,-10 41,-30 61,-30 61,-10 41,-10"/>
<text text-anchor="start" x="64.629" y="-15.4" font-family="sans-serif" font-size="14.00" fill="#000000"> &#160;Declarations</text>
<polygon fill="#8dd3c7" stroke="transparent" points="154,-10 154,-30 174,-30 174,-10 154,-10"/>
<text text-anchor="start" x="177.7251" y="-15.4" font-family="sans-serif" font-size="14.00" fill="#000000"> &#160;Module</text>
<polygon fill="#80b1d3" stroke="transparent" points="240,-10 240,-30 260,-30 260,-10 240,-10"/>
<text text-anchor="start" x="263.7812" y="-15.4" font-family="sans-serif" font-size="14.00" fill="#000000"> &#160;Bootstrap</text>
<polygon fill="#fdb462" stroke="transparent" points="337,-10 337,-30 357,-30 357,-10 337,-10"/>
<text text-anchor="start" x="360.6732" y="-15.4" font-family="sans-serif" font-size="14.00" fill="#000000"> &#160;Providers</text>
<polygon fill="#fb8072" stroke="transparent" points="433,-10 433,-30 453,-30 453,-10 433,-10"/>
<text text-anchor="start" x="456.7258" y="-15.4" font-family="sans-serif" font-size="14.00" fill="#000000"> &#160;Exports</text>
<g id="clust1" class="cluster">
<title>cluster_CheckboxGroupModule</title>
<polygon fill="none" stroke="#000000" stroke-dasharray="1,5" points="8,-70 8,-333 542,-333 542,-70 8,-70"/>
</g>
<g id="clust2" class="cluster">
<title>cluster_CheckboxGroupModule_declarations</title>
<polygon fill="none" stroke="#000000" points="24,-143 24,-195 370,-195 370,-143 24,-143"/>
</g>
<g id="clust3" class="cluster">
<title>cluster_CheckboxGroupModule_CheckboxGroupComponent_providers</title>
<polygon fill="none" stroke="#000000" points="16,-78 16,-130 534,-130 534,-78 16,-78"/>
</g>
<g id="clust6" class="cluster">
<title>cluster_CheckboxGroupModule_exports</title>
<polygon fill="none" stroke="#000000" points="59,-273 59,-325 412,-325 412,-273 59,-273"/>
</g>
<!-- CheckboxGroupComponent -->
<g id="node1" class="node">
<title>CheckboxGroupComponent</title>
<polygon fill="#ffffb3" stroke="#000000" points="361.8655,-187 188.1345,-187 188.1345,-151 361.8655,-151 361.8655,-187"/>
<text text-anchor="middle" x="275" y="-164.8" font-family="Times,serif" font-size="14.00" fill="#000000">CheckboxGroupComponent</text>
</g>
<!-- CheckboxGroupModule -->
<g id="node3" class="node">
<title>CheckboxGroupModule</title>
<polygon fill="#8dd3c7" stroke="#000000" points="256.0828,-252 253.0828,-256 232.0828,-256 229.0828,-252 103.9172,-252 103.9172,-216 256.0828,-216 256.0828,-252"/>
<text text-anchor="middle" x="180" y="-229.8" font-family="Times,serif" font-size="14.00" fill="#000000">CheckboxGroupModule</text>
</g>
<!-- CheckboxGroupComponent&#45;&gt;CheckboxGroupModule -->
<g id="edge1" class="edge">
<title>CheckboxGroupComponent&#45;&gt;CheckboxGroupModule</title>
<path fill="none" stroke="#000000" d="M222.0544,-187.1061C222.0544,-187.1061 222.0544,-205.991 222.0544,-205.991"/>
<polygon fill="#000000" stroke="#000000" points="218.5544,-205.9909 222.0544,-215.991 225.5544,-205.991 218.5544,-205.9909"/>
</g>
<!-- CheckboxComponent -->
<g id="node2" class="node">
<title>CheckboxComponent</title>
<polygon fill="#ffffb3" stroke="#000000" points="170.0982,-187 31.9018,-187 31.9018,-151 170.0982,-151 170.0982,-187"/>
<text text-anchor="middle" x="101" y="-164.8" font-family="Times,serif" font-size="14.00" fill="#000000">CheckboxComponent</text>
</g>
<!-- CheckboxComponent&#45;&gt;CheckboxGroupModule -->
<g id="edge3" class="edge">
<title>CheckboxComponent&#45;&gt;CheckboxGroupModule</title>
<path fill="none" stroke="#000000" d="M137.0039,-187.1061C137.0039,-187.1061 137.0039,-205.991 137.0039,-205.991"/>
<polygon fill="#000000" stroke="#000000" points="133.5039,-205.9909 137.0039,-215.991 140.5039,-205.991 133.5039,-205.9909"/>
</g>
<!-- CheckboxGroupComponent  -->
<g id="node5" class="node">
<title>CheckboxGroupComponent </title>
<polygon fill="#fb8072" stroke="#000000" points="403.8658,-317 226.1342,-317 226.1342,-281 403.8658,-281 403.8658,-317"/>
<text text-anchor="middle" x="315" y="-294.8" font-family="Times,serif" font-size="14.00" fill="#000000">CheckboxGroupComponent </text>
</g>
<!-- CheckboxGroupModule&#45;&gt;CheckboxGroupComponent  -->
<g id="edge4" class="edge">
<title>CheckboxGroupModule&#45;&gt;CheckboxGroupComponent </title>
<path fill="none" stroke="#000000" stroke-dasharray="5,2" d="M241.1794,-252.1061C241.1794,-252.1061 241.1794,-270.991 241.1794,-270.991"/>
<polygon fill="#000000" stroke="#000000" points="237.6794,-270.9909 241.1794,-280.991 244.6794,-270.991 237.6794,-270.9909"/>
</g>
<!-- CheckboxComponent  -->
<g id="node6" class="node">
<title>CheckboxComponent </title>
<polygon fill="#fb8072" stroke="#000000" points="208.5988,-317 67.4012,-317 67.4012,-281 208.5988,-281 208.5988,-317"/>
<text text-anchor="middle" x="138" y="-294.8" font-family="Times,serif" font-size="14.00" fill="#000000">CheckboxComponent </text>
</g>
<!-- CheckboxGroupModule&#45;&gt;CheckboxComponent  -->
<g id="edge5" class="edge">
<title>CheckboxGroupModule&#45;&gt;CheckboxComponent </title>
<path fill="none" stroke="#000000" stroke-dasharray="5,2" d="M156.3789,-252.1061C156.3789,-252.1061 156.3789,-270.991 156.3789,-270.991"/>
<polygon fill="#000000" stroke="#000000" points="152.8789,-270.9909 156.3789,-280.991 159.8789,-270.991 152.8789,-270.9909"/>
</g>
<!-- { provide: NG_VALUE_ACCESSOR, useExisting: , multi: &#160;} -->
<g id="node4" class="node">
<title>{ provide: NG_VALUE_ACCESSOR, useExisting: , multi: &#160;}</title>
<ellipse fill="#fdb462" stroke="#000000" cx="275" cy="-104" rx="251.4985" ry="18"/>
<text text-anchor="middle" x="275" y="-99.8" font-family="Times,serif" font-size="14.00" fill="#000000">{ provide: NG_VALUE_ACCESSOR, useExisting: , multi: &#160;}</text>
</g>
<!-- { provide: NG_VALUE_ACCESSOR, useExisting: , multi: &#160;}&#45;&gt;CheckboxGroupComponent -->
<g id="edge2" class="edge">
<title>{ provide: NG_VALUE_ACCESSOR, useExisting: , multi: &#160;}&#45;&gt;CheckboxGroupComponent</title>
<path fill="none" stroke="#000000" d="M275,-122.1061C275,-122.1061 275,-140.991 275,-140.991"/>
<polygon fill="#000000" stroke="#000000" points="271.5001,-140.9909 275,-150.991 278.5001,-140.991 271.5001,-140.9909"/>
</g>
</g>
</svg>
