<?xml version="1.0" encoding="UTF-8" standalone="no"?>
<!DOCTYPE svg PUBLIC "-//W3C//DTD SVG 1.1//EN"
 "http://www.w3.org/Graphics/SVG/1.1/DTD/svg11.dtd">
<!-- Generated by graphviz version 2.40.1 (20161225.0304)
 -->
<!-- Title: dependencies Pages: 1 -->
<svg width="504pt" height="284pt"
 viewBox="0.00 0.00 504.00 284.00" xmlns="http://www.w3.org/2000/svg" xmlns:xlink="http://www.w3.org/1999/xlink">
<g id="graph0" class="graph" transform="scale(1 1) rotate(0) translate(4 280)">
<title>dependencies</title>
<polygon fill="#ffffff" stroke="transparent" points="-4,4 -4,-280 500,-280 500,4 -4,4"/>
<text text-anchor="start" x="227.0091" y="-42.4" font-family="sans-serif" font-weight="bold" font-size="14.00" fill="#000000">Legend</text>
<polygon fill="#ffffb3" stroke="transparent" points="14,-10 14,-30 34,-30 34,-10 14,-10"/>
<text text-anchor="start" x="37.629" y="-15.4" font-family="sans-serif" font-size="14.00" fill="#000000"> &#160;Declarations</text>
<polygon fill="#8dd3c7" stroke="transparent" points="127,-10 127,-30 147,-30 147,-10 127,-10"/>
<text text-anchor="start" x="150.7251" y="-15.4" font-family="sans-serif" font-size="14.00" fill="#000000"> &#160;Module</text>
<polygon fill="#80b1d3" stroke="transparent" points="213,-10 213,-30 233,-30 233,-10 213,-10"/>
<text text-anchor="start" x="236.7812" y="-15.4" font-family="sans-serif" font-size="14.00" fill="#000000"> &#160;Bootstrap</text>
<polygon fill="#fdb462" stroke="transparent" points="310,-10 310,-30 330,-30 330,-10 310,-10"/>
<text text-anchor="start" x="333.6732" y="-15.4" font-family="sans-serif" font-size="14.00" fill="#000000"> &#160;Providers</text>
<polygon fill="#fb8072" stroke="transparent" points="406,-10 406,-30 426,-30 426,-10 406,-10"/>
<text text-anchor="start" x="429.7258" y="-15.4" font-family="sans-serif" font-size="14.00" fill="#000000"> &#160;Exports</text>
<g id="clust1" class="cluster">
<title>cluster_CheckboxGroupModule</title>
<polygon fill="none" stroke="#000000" stroke-dasharray="1,5" points="63.5,-70 63.5,-268 432.5,-268 432.5,-70 63.5,-70"/>
</g>
<g id="clust3" class="cluster">
<title>cluster_CheckboxGroupModule_imports</title>
<polygon fill="none" stroke="#000000" points="174.5,-78 174.5,-130 302.5,-130 302.5,-78 174.5,-78"/>
</g>
<g id="clust4" class="cluster">
<title>cluster_CheckboxGroupModule_exports</title>
<polygon fill="none" stroke="#000000" points="71.5,-208 71.5,-260 424.5,-260 424.5,-208 71.5,-208"/>
</g>
<!-- CommonModule -->
<g id="node1" class="node">
<title>CommonModule</title>
<polygon fill="#8dd3c7" stroke="#000000" points="294.1681,-122 291.1681,-126 270.1681,-126 267.1681,-122 182.8319,-122 182.8319,-86 294.1681,-86 294.1681,-122"/>
<text text-anchor="middle" x="238.5" y="-99.8" font-family="Times,serif" font-size="14.00" fill="#000000">CommonModule</text>
</g>
<!-- CheckboxGroupModule -->
<g id="node2" class="node">
<title>CheckboxGroupModule</title>
<polygon fill="#8dd3c7" stroke="#000000" points="314.5828,-187 311.5828,-191 290.5828,-191 287.5828,-187 162.4172,-187 162.4172,-151 314.5828,-151 314.5828,-187"/>
<text text-anchor="middle" x="238.5" y="-164.8" font-family="Times,serif" font-size="14.00" fill="#000000">CheckboxGroupModule</text>
</g>
<!-- CommonModule&#45;&gt;CheckboxGroupModule -->
<g id="edge1" class="edge">
<title>CommonModule&#45;&gt;CheckboxGroupModule</title>
<path fill="none" stroke="#000000" d="M238.5,-122.1061C238.5,-122.1061 238.5,-140.991 238.5,-140.991"/>
<polygon fill="#000000" stroke="#000000" points="235.0001,-140.9909 238.5,-150.991 242.0001,-140.991 235.0001,-140.9909"/>
</g>
<!-- CheckboxGroupComponent  -->
<g id="node3" class="node">
<title>CheckboxGroupComponent </title>
<polygon fill="#fb8072" stroke="#000000" points="416.3658,-252 238.6342,-252 238.6342,-216 416.3658,-216 416.3658,-252"/>
<text text-anchor="middle" x="327.5" y="-229.8" font-family="Times,serif" font-size="14.00" fill="#000000">CheckboxGroupComponent </text>
</g>
<!-- CheckboxGroupModule&#45;&gt;CheckboxGroupComponent  -->
<g id="edge2" class="edge">
<title>CheckboxGroupModule&#45;&gt;CheckboxGroupComponent </title>
<path fill="none" stroke="#000000" stroke-dasharray="5,2" d="M276.6794,-187.1061C276.6794,-187.1061 276.6794,-205.991 276.6794,-205.991"/>
<polygon fill="#000000" stroke="#000000" points="273.1794,-205.9909 276.6794,-215.991 280.1794,-205.991 273.1794,-205.9909"/>
</g>
<!-- CheckboxComponent  -->
<g id="node4" class="node">
<title>CheckboxComponent </title>
<polygon fill="#fb8072" stroke="#000000" points="221.0988,-252 79.9012,-252 79.9012,-216 221.0988,-216 221.0988,-252"/>
<text text-anchor="middle" x="150.5" y="-229.8" font-family="Times,serif" font-size="14.00" fill="#000000">CheckboxComponent </text>
</g>
<!-- CheckboxGroupModule&#45;&gt;CheckboxComponent  -->
<g id="edge3" class="edge">
<title>CheckboxGroupModule&#45;&gt;CheckboxComponent </title>
<path fill="none" stroke="#000000" stroke-dasharray="5,2" d="M191.8789,-187.1061C191.8789,-187.1061 191.8789,-205.991 191.8789,-205.991"/>
<polygon fill="#000000" stroke="#000000" points="188.3789,-205.9909 191.8789,-215.991 195.3789,-205.991 188.3789,-205.9909"/>
</g>
</g>
</svg>
