<?xml version="1.0" encoding="UTF-8" standalone="no"?>
<!DOCTYPE svg PUBLIC "-//W3C//DTD SVG 1.1//EN"
 "http://www.w3.org/Graphics/SVG/1.1/DTD/svg11.dtd">
<!-- Generated by graphviz version 2.40.1 (20161225.0304)
 -->
<!-- Title: dependencies Pages: 1 -->
<svg width="504pt" height="396pt"
 viewBox="0.00 0.00 504.00 395.59" xmlns="http://www.w3.org/2000/svg" xmlns:xlink="http://www.w3.org/1999/xlink">
<g id="graph0" class="graph" transform="scale(1 1) rotate(0) translate(4 391.5901)">
<title>dependencies</title>
<polygon fill="#ffffff" stroke="transparent" points="-4,4 -4,-391.5901 500,-391.5901 500,4 -4,4"/>
<text text-anchor="start" x="227.0091" y="-42.4" font-family="sans-serif" font-weight="bold" font-size="14.00" fill="#000000">Legend</text>
<polygon fill="#ffffb3" stroke="transparent" points="14,-10 14,-30 34,-30 34,-10 14,-10"/>
<text text-anchor="start" x="37.629" y="-15.4" font-family="sans-serif" font-size="14.00" fill="#000000"> &#160;Declarations</text>
<polygon fill="#8dd3c7" stroke="transparent" points="127,-10 127,-30 147,-30 147,-10 127,-10"/>
<text text-anchor="start" x="150.7251" y="-15.4" font-family="sans-serif" font-size="14.00" fill="#000000"> &#160;Module</text>
<polygon fill="#80b1d3" stroke="transparent" points="213,-10 213,-30 233,-30 233,-10 213,-10"/>
<text text-anchor="start" x="236.7812" y="-15.4" font-family="sans-serif" font-size="14.00" fill="#000000"> &#160;Bootstrap</text>
<polygon fill="#fdb462" stroke="transparent" points="310,-10 310,-30 330,-30 330,-10 310,-10"/>
<text text-anchor="start" x="333.6732" y="-15.4" font-family="sans-serif" font-size="14.00" fill="#000000"> &#160;Providers</text>
<polygon fill="#fb8072" stroke="transparent" points="406,-10 406,-30 426,-30 426,-10 406,-10"/>
<text text-anchor="start" x="429.7258" y="-15.4" font-family="sans-serif" font-size="14.00" fill="#000000"> &#160;Exports</text>
<g id="clust1" class="cluster">
<title>cluster_CheckboxGroupModule</title>
<polygon fill="none" stroke="#000000" stroke-dasharray="1,5" points="63.5,-70 63.5,-379.5901 432.5,-379.5901 432.5,-70 63.5,-70"/>
</g>
<g id="clust2" class="cluster">
<title>cluster_CheckboxGroupModule_declarations</title>
<polygon fill="none" stroke="#000000" points="76.5,-189.5901 76.5,-241.5901 422.5,-241.5901 422.5,-189.5901 76.5,-189.5901"/>
</g>
<g id="clust4" class="cluster">
<title>cluster_CheckboxGroupModule_CheckboxGroupComponent_providers</title>
<polygon fill="none" stroke="#000000" points="72.5,-78 72.5,-176.5901 270.5,-176.5901 270.5,-78 72.5,-78"/>
</g>
<g id="clust6" class="cluster">
<title>cluster_CheckboxGroupModule_exports</title>
<polygon fill="none" stroke="#000000" points="71.5,-319.5901 71.5,-371.5901 424.5,-371.5901 424.5,-319.5901 71.5,-319.5901"/>
</g>
<!-- CheckboxComponent -->
<g id="node1" class="node">
<title>CheckboxComponent</title>
<polygon fill="#ffffb3" stroke="#000000" points="414.5982,-233.5901 276.4018,-233.5901 276.4018,-197.5901 414.5982,-197.5901 414.5982,-233.5901"/>
<text text-anchor="middle" x="345.5" y="-211.3901" font-family="Times,serif" font-size="14.00" fill="#000000">CheckboxComponent</text>
</g>
<!-- CheckboxGroupModule -->
<g id="node3" class="node">
<title>CheckboxGroupModule</title>
<polygon fill="#8dd3c7" stroke="#000000" points="334.5828,-298.5901 331.5828,-302.5901 310.5828,-302.5901 307.5828,-298.5901 182.4172,-298.5901 182.4172,-262.5901 334.5828,-262.5901 334.5828,-298.5901"/>
<text text-anchor="middle" x="258.5" y="-276.3901" font-family="Times,serif" font-size="14.00" fill="#000000">CheckboxGroupModule</text>
</g>
<!-- CheckboxComponent&#45;&gt;CheckboxGroupModule -->
<g id="edge1" class="edge">
<title>CheckboxComponent&#45;&gt;CheckboxGroupModule</title>
<path fill="none" stroke="#000000" d="M305.4962,-233.6962C305.4962,-233.6962 305.4962,-252.581 305.4962,-252.581"/>
<polygon fill="#000000" stroke="#000000" points="301.9962,-252.581 305.4962,-262.581 308.9962,-252.5811 301.9962,-252.581"/>
</g>
<!-- CheckboxGroupComponent -->
<g id="node2" class="node">
<title>CheckboxGroupComponent</title>
<polygon fill="#ffffb3" stroke="#000000" points="258.3655,-233.5901 84.6345,-233.5901 84.6345,-197.5901 258.3655,-197.5901 258.3655,-233.5901"/>
<text text-anchor="middle" x="171.5" y="-211.3901" font-family="Times,serif" font-size="14.00" fill="#000000">CheckboxGroupComponent</text>
</g>
<!-- CheckboxGroupComponent&#45;&gt;CheckboxGroupModule -->
<g id="edge2" class="edge">
<title>CheckboxGroupComponent&#45;&gt;CheckboxGroupModule</title>
<path fill="none" stroke="#000000" d="M220.4457,-233.6962C220.4457,-233.6962 220.4457,-252.581 220.4457,-252.581"/>
<polygon fill="#000000" stroke="#000000" points="216.9457,-252.581 220.4457,-262.581 223.9457,-252.5811 216.9457,-252.581"/>
</g>
<!-- CheckboxComponent  -->
<g id="node5" class="node">
<title>CheckboxComponent </title>
<polygon fill="#fb8072" stroke="#000000" points="416.0988,-363.5901 274.9012,-363.5901 274.9012,-327.5901 416.0988,-327.5901 416.0988,-363.5901"/>
<text text-anchor="middle" x="345.5" y="-341.3901" font-family="Times,serif" font-size="14.00" fill="#000000">CheckboxComponent </text>
</g>
<!-- CheckboxGroupModule&#45;&gt;CheckboxComponent  -->
<g id="edge4" class="edge">
<title>CheckboxGroupModule&#45;&gt;CheckboxComponent </title>
<path fill="none" stroke="#000000" stroke-dasharray="5,2" d="M304.6212,-298.6962C304.6212,-298.6962 304.6212,-317.581 304.6212,-317.581"/>
<polygon fill="#000000" stroke="#000000" points="301.1212,-317.581 304.6212,-327.581 308.1212,-317.5811 301.1212,-317.581"/>
</g>
<!-- CheckboxGroupComponent  -->
<g id="node6" class="node">
<title>CheckboxGroupComponent </title>
<polygon fill="#fb8072" stroke="#000000" points="257.3658,-363.5901 79.6342,-363.5901 79.6342,-327.5901 257.3658,-327.5901 257.3658,-363.5901"/>
<text text-anchor="middle" x="168.5" y="-341.3901" font-family="Times,serif" font-size="14.00" fill="#000000">CheckboxGroupComponent </text>
</g>
<!-- CheckboxGroupModule&#45;&gt;CheckboxGroupComponent  -->
<g id="edge5" class="edge">
<title>CheckboxGroupModule&#45;&gt;CheckboxGroupComponent </title>
<path fill="none" stroke="#000000" stroke-dasharray="5,2" d="M219.8207,-298.6962C219.8207,-298.6962 219.8207,-317.581 219.8207,-317.581"/>
<polygon fill="#000000" stroke="#000000" points="216.3207,-317.581 219.8207,-327.581 223.3207,-317.5811 216.3207,-317.581"/>
</g>
<!-- {
 &#160;&#160;&#160;: , : (() =&gt; ), : true
} -->
<g id="node4" class="node">
<title>{
 &#160;&#160;&#160;: , : (() =&gt; ), : true
}</title>
<ellipse fill="#fdb462" stroke="#000000" cx="171.5" cy="-127.295" rx="91.4557" ry="41.0911"/>
<text text-anchor="middle" x="171.5" y="-139.895" font-family="Times,serif" font-size="14.00" fill="#000000">{</text>
<text text-anchor="middle" x="171.5" y="-123.095" font-family="Times,serif" font-size="14.00" fill="#000000"> &#160;&#160;&#160;: , : (() =&gt; ), : true</text>
<text text-anchor="middle" x="171.5" y="-106.295" font-family="Times,serif" font-size="14.00" fill="#000000">}</text>
</g>
<!-- {
 &#160;&#160;&#160;: , : (() =&gt; ), : true
}&#45;&gt;CheckboxGroupComponent -->
<g id="edge3" class="edge">
<title>{
 &#160;&#160;&#160;: , : (() =&gt; ), : true
}&#45;&gt;CheckboxGroupComponent</title>
<path fill="none" stroke="#000000" d="M171.5,-168.5989C171.5,-168.5989 171.5,-187.2551 171.5,-187.2551"/>
<polygon fill="#000000" stroke="#000000" points="168.0001,-187.255 171.5,-197.2551 175.0001,-187.2551 168.0001,-187.255"/>
</g>
</g>
</svg>
