<?xml version="1.0" encoding="UTF-8" standalone="no"?>
<!DOCTYPE svg PUBLIC "-//W3C//DTD SVG 1.1//EN"
 "http://www.w3.org/Graphics/SVG/1.1/DTD/svg11.dtd">
<!-- Generated by graphviz version 2.40.1 (20161225.0304)
 -->
<!-- Title: dependencies Pages: 1 -->
<svg width="504pt" height="396pt"
 viewBox="0.00 0.00 504.00 395.59" xmlns="http://www.w3.org/2000/svg" xmlns:xlink="http://www.w3.org/1999/xlink">
<g id="graph0" class="graph" transform="scale(1 1) rotate(0) translate(4 391.5901)">
<title>dependencies</title>
<polygon fill="#ffffff" stroke="transparent" points="-4,4 -4,-391.5901 500,-391.5901 500,4 -4,4"/>
<text text-anchor="start" x="227.0091" y="-42.4" font-family="sans-serif" font-weight="bold" font-size="14.00" fill="#000000">Legend</text>
<polygon fill="#ffffb3" stroke="transparent" points="14,-10 14,-30 34,-30 34,-10 14,-10"/>
<text text-anchor="start" x="37.629" y="-15.4" font-family="sans-serif" font-size="14.00" fill="#000000"> &#160;Declarations</text>
<polygon fill="#8dd3c7" stroke="transparent" points="127,-10 127,-30 147,-30 147,-10 127,-10"/>
<text text-anchor="start" x="150.7251" y="-15.4" font-family="sans-serif" font-size="14.00" fill="#000000"> &#160;Module</text>
<polygon fill="#80b1d3" stroke="transparent" points="213,-10 213,-30 233,-30 233,-10 213,-10"/>
<text text-anchor="start" x="236.7812" y="-15.4" font-family="sans-serif" font-size="14.00" fill="#000000"> &#160;Bootstrap</text>
<polygon fill="#fdb462" stroke="transparent" points="310,-10 310,-30 330,-30 330,-10 310,-10"/>
<text text-anchor="start" x="333.6732" y="-15.4" font-family="sans-serif" font-size="14.00" fill="#000000"> &#160;Providers</text>
<polygon fill="#fb8072" stroke="transparent" points="406,-10 406,-30 426,-30 426,-10 406,-10"/>
<text text-anchor="start" x="429.7258" y="-15.4" font-family="sans-serif" font-size="14.00" fill="#000000"> &#160;Exports</text>
<g id="clust1" class="cluster">
<title>cluster_CheckboxGroupModule</title>
<polygon fill="none" stroke="#000000" stroke-dasharray="1,5" points="63.5,-70 63.5,-379.5901 432.5,-379.5901 432.5,-70 63.5,-70"/>
</g>
<g id="clust2" class="cluster">
<title>cluster_CheckboxGroupModule_declarations</title>
<polygon fill="none" stroke="#000000" points="72.5,-189.5901 72.5,-241.5901 418.5,-241.5901 418.5,-189.5901 72.5,-189.5901"/>
</g>
<g id="clust3" class="cluster">
<title>cluster_CheckboxGroupModule_CheckboxGroupComponent_providers</title>
<polygon fill="none" stroke="#000000" points="224.5,-78 224.5,-176.5901 422.5,-176.5901 422.5,-78 224.5,-78"/>
</g>
<g id="clust6" class="cluster">
<title>cluster_CheckboxGroupModule_exports</title>
<polygon fill="none" stroke="#000000" points="71.5,-319.5901 71.5,-371.5901 424.5,-371.5901 424.5,-319.5901 71.5,-319.5901"/>
</g>
<!-- CheckboxGroupComponent -->
<g id="node1" class="node">
<title>CheckboxGroupComponent</title>
<polygon fill="#ffffb3" stroke="#000000" points="410.3655,-233.5901 236.6345,-233.5901 236.6345,-197.5901 410.3655,-197.5901 410.3655,-233.5901"/>
<text text-anchor="middle" x="323.5" y="-211.3901" font-family="Times,serif" font-size="14.00" fill="#000000">CheckboxGroupComponent</text>
</g>
<!-- CheckboxGroupModule -->
<g id="node3" class="node">
<title>CheckboxGroupModule</title>
<polygon fill="#8dd3c7" stroke="#000000" points="312.5828,-298.5901 309.5828,-302.5901 288.5828,-302.5901 285.5828,-298.5901 160.4172,-298.5901 160.4172,-262.5901 312.5828,-262.5901 312.5828,-298.5901"/>
<text text-anchor="middle" x="236.5" y="-276.3901" font-family="Times,serif" font-size="14.00" fill="#000000">CheckboxGroupModule</text>
</g>
<!-- CheckboxGroupComponent&#45;&gt;CheckboxGroupModule -->
<g id="edge1" class="edge">
<title>CheckboxGroupComponent&#45;&gt;CheckboxGroupModule</title>
<path fill="none" stroke="#000000" d="M274.5544,-233.6962C274.5544,-233.6962 274.5544,-252.581 274.5544,-252.581"/>
<polygon fill="#000000" stroke="#000000" points="271.0544,-252.581 274.5544,-262.581 278.0544,-252.5811 271.0544,-252.581"/>
</g>
<!-- CheckboxComponent -->
<g id="node2" class="node">
<title>CheckboxComponent</title>
<polygon fill="#ffffb3" stroke="#000000" points="218.5982,-233.5901 80.4018,-233.5901 80.4018,-197.5901 218.5982,-197.5901 218.5982,-233.5901"/>
<text text-anchor="middle" x="149.5" y="-211.3901" font-family="Times,serif" font-size="14.00" fill="#000000">CheckboxComponent</text>
</g>
<!-- CheckboxComponent&#45;&gt;CheckboxGroupModule -->
<g id="edge3" class="edge">
<title>CheckboxComponent&#45;&gt;CheckboxGroupModule</title>
<path fill="none" stroke="#000000" d="M189.5039,-233.6962C189.5039,-233.6962 189.5039,-252.581 189.5039,-252.581"/>
<polygon fill="#000000" stroke="#000000" points="186.0039,-252.581 189.5039,-262.581 193.0039,-252.5811 186.0039,-252.581"/>
</g>
<!-- CheckboxGroupComponent  -->
<g id="node5" class="node">
<title>CheckboxGroupComponent </title>
<polygon fill="#fb8072" stroke="#000000" points="416.3658,-363.5901 238.6342,-363.5901 238.6342,-327.5901 416.3658,-327.5901 416.3658,-363.5901"/>
<text text-anchor="middle" x="327.5" y="-341.3901" font-family="Times,serif" font-size="14.00" fill="#000000">CheckboxGroupComponent </text>
</g>
<!-- CheckboxGroupModule&#45;&gt;CheckboxGroupComponent  -->
<g id="edge4" class="edge">
<title>CheckboxGroupModule&#45;&gt;CheckboxGroupComponent </title>
<path fill="none" stroke="#000000" stroke-dasharray="5,2" d="M275.6794,-298.6962C275.6794,-298.6962 275.6794,-317.581 275.6794,-317.581"/>
<polygon fill="#000000" stroke="#000000" points="272.1794,-317.581 275.6794,-327.581 279.1794,-317.5811 272.1794,-317.581"/>
</g>
<!-- CheckboxComponent  -->
<g id="node6" class="node">
<title>CheckboxComponent </title>
<polygon fill="#fb8072" stroke="#000000" points="221.0988,-363.5901 79.9012,-363.5901 79.9012,-327.5901 221.0988,-327.5901 221.0988,-363.5901"/>
<text text-anchor="middle" x="150.5" y="-341.3901" font-family="Times,serif" font-size="14.00" fill="#000000">CheckboxComponent </text>
</g>
<!-- CheckboxGroupModule&#45;&gt;CheckboxComponent  -->
<g id="edge5" class="edge">
<title>CheckboxGroupModule&#45;&gt;CheckboxComponent </title>
<path fill="none" stroke="#000000" stroke-dasharray="5,2" d="M190.8789,-298.6962C190.8789,-298.6962 190.8789,-317.581 190.8789,-317.581"/>
<polygon fill="#000000" stroke="#000000" points="187.3789,-317.581 190.8789,-327.581 194.3789,-317.5811 187.3789,-317.581"/>
</g>
<!-- {
 &#160;&#160;&#160;: , : (() =&gt; ), : true
} -->
<g id="node4" class="node">
<title>{
 &#160;&#160;&#160;: , : (() =&gt; ), : true
}</title>
<ellipse fill="#fdb462" stroke="#000000" cx="323.5" cy="-127.295" rx="91.4557" ry="41.0911"/>
<text text-anchor="middle" x="323.5" y="-139.895" font-family="Times,serif" font-size="14.00" fill="#000000">{</text>
<text text-anchor="middle" x="323.5" y="-123.095" font-family="Times,serif" font-size="14.00" fill="#000000"> &#160;&#160;&#160;: , : (() =&gt; ), : true</text>
<text text-anchor="middle" x="323.5" y="-106.295" font-family="Times,serif" font-size="14.00" fill="#000000">}</text>
</g>
<!-- {
 &#160;&#160;&#160;: , : (() =&gt; ), : true
}&#45;&gt;CheckboxGroupComponent -->
<g id="edge2" class="edge">
<title>{
 &#160;&#160;&#160;: , : (() =&gt; ), : true
}&#45;&gt;CheckboxGroupComponent</title>
<path fill="none" stroke="#000000" d="M323.5,-168.5989C323.5,-168.5989 323.5,-187.2551 323.5,-187.2551"/>
<polygon fill="#000000" stroke="#000000" points="320.0001,-187.255 323.5,-197.2551 327.0001,-187.2551 320.0001,-187.255"/>
</g>
</g>
</svg>
