<?xml version="1.0" encoding="UTF-8" standalone="no"?>
<!DOCTYPE svg PUBLIC "-//W3C//DTD SVG 1.1//EN"
 "http://www.w3.org/Graphics/SVG/1.1/DTD/svg11.dtd">
<!-- Generated by graphviz version 2.38.0 (20140413.2041)
 -->
<!-- Title: dependencies Pages: 1 -->
<svg width="633pt" height="284pt"
 viewBox="0.00 0.00 633.00 284.00" xmlns="http://www.w3.org/2000/svg" xmlns:xlink="http://www.w3.org/1999/xlink">
<g id="graph0" class="graph" transform="scale(1 1) rotate(0) translate(4 280)">
<title>dependencies</title>
<polygon fill="white" stroke="none" points="-4,4 -4,-280 629,-280 629,4 -4,4"/>
<text text-anchor="start" x="291.509" y="-42.4" font-family="sans-serif" font-weight="bold" font-size="14.00">Legend</text>
<polygon fill="#ffffb3" stroke="none" points="78.5,-10 78.5,-30 98.5,-30 98.5,-10 78.5,-10"/>
<text text-anchor="start" x="102.129" y="-15.4" font-family="sans-serif" font-size="14.00"> &#160;Declarations</text>
<polygon fill="#8dd3c7" stroke="none" points="191.5,-10 191.5,-30 211.5,-30 211.5,-10 191.5,-10"/>
<text text-anchor="start" x="215.225" y="-15.4" font-family="sans-serif" font-size="14.00"> &#160;Module</text>
<polygon fill="#80b1d3" stroke="none" points="277.5,-10 277.5,-30 297.5,-30 297.5,-10 277.5,-10"/>
<text text-anchor="start" x="301.281" y="-15.4" font-family="sans-serif" font-size="14.00"> &#160;Bootstrap</text>
<polygon fill="#fdb462" stroke="none" points="374.5,-10 374.5,-30 394.5,-30 394.5,-10 374.5,-10"/>
<text text-anchor="start" x="398.173" y="-15.4" font-family="sans-serif" font-size="14.00"> &#160;Providers</text>
<polygon fill="#fb8072" stroke="none" points="470.5,-10 470.5,-30 490.5,-30 490.5,-10 470.5,-10"/>
<text text-anchor="start" x="494.226" y="-15.4" font-family="sans-serif" font-size="14.00"> &#160;Exports</text>
<g id="clust1" class="cluster"><title>cluster_DatePickerModule</title>
<polygon fill="none" stroke="black" stroke-dasharray="1,5" points="8,-70 8,-268 617,-268 617,-70 8,-70"/>
</g>
<g id="clust2" class="cluster"><title>cluster_DatePickerModule_declarations</title>
<polygon fill="none" stroke="black" points="265,-78 265,-130 609,-130 609,-78 265,-78"/>
</g>
<g id="clust5" class="cluster"><title>cluster_DatePickerModule_imports</title>
<polygon fill="none" stroke="black" points="16,-78 16,-130 257,-130 257,-78 16,-78"/>
</g>
<g id="clust6" class="cluster"><title>cluster_DatePickerModule_exports</title>
<polygon fill="none" stroke="black" points="79,-208 79,-260 429,-260 429,-208 79,-208"/>
</g>
<!-- DatePickerDirective -->
<g id="node1" class="node"><title>DatePickerDirective</title>
<polygon fill="#ffffb3" stroke="black" points="601.272,-122 470.728,-122 470.728,-86 601.272,-86 601.272,-122"/>
<text text-anchor="middle" x="536" y="-99.8" font-family="Times,serif" font-size="14.00">DatePickerDirective</text>
</g>
<!-- DatePickerModule -->
<g id="node3" class="node"><title>DatePickerModule</title>
<polygon fill="#8dd3c7" stroke="black" points="302.739,-187 299.739,-191 278.739,-191 275.739,-187 181.261,-187 181.261,-151 302.739,-151 302.739,-187"/>
<text text-anchor="middle" x="242" y="-164.8" font-family="Times,serif" font-size="14.00">DatePickerModule</text>
</g>
<!-- DatePickerDirective&#45;&gt;DatePickerModule -->
<g id="edge1" class="edge"><title>DatePickerDirective&#45;&gt;DatePickerModule</title>
<path fill="none" stroke="black" d="M536,-122.106C536,-141.339 536,-169 536,-169 536,-169 312.917,-169 312.917,-169"/>
<polygon fill="black" stroke="black" points="312.917,-165.5 302.917,-169 312.917,-172.5 312.917,-165.5"/>
</g>
<!-- DatePickerPopupComponent -->
<g id="node2" class="node"><title>DatePickerPopupComponent</title>
<polygon fill="#ffffb3" stroke="black" points="452.805,-122 273.195,-122 273.195,-86 452.805,-86 452.805,-122"/>
<text text-anchor="middle" x="363" y="-99.8" font-family="Times,serif" font-size="14.00">DatePickerPopupComponent</text>
</g>
<!-- DatePickerPopupComponent&#45;&gt;DatePickerModule -->
<g id="edge2" class="edge"><title>DatePickerPopupComponent&#45;&gt;DatePickerModule</title>
<path fill="none" stroke="black" d="M288.109,-122.106C288.109,-122.106 288.109,-140.991 288.109,-140.991"/>
<polygon fill="black" stroke="black" points="284.609,-140.991 288.109,-150.991 291.609,-140.991 284.609,-140.991"/>
</g>
<!-- DatePickerDirective  -->
<g id="node6" class="node"><title>DatePickerDirective </title>
<polygon fill="#fb8072" stroke="black" points="420.772,-252 287.228,-252 287.228,-216 420.772,-216 420.772,-252"/>
<text text-anchor="middle" x="354" y="-229.8" font-family="Times,serif" font-size="14.00">DatePickerDirective </text>
</g>
<!-- DatePickerModule&#45;&gt;DatePickerDirective  -->
<g id="edge5" class="edge"><title>DatePickerModule&#45;&gt;DatePickerDirective </title>
<path fill="none" stroke="black" stroke-dasharray="5,2" d="M294.992,-187.106C294.992,-187.106 294.992,-205.991 294.992,-205.991"/>
<polygon fill="black" stroke="black" points="291.492,-205.991 294.992,-215.991 298.492,-205.991 291.492,-205.991"/>
</g>
<!-- DatePickerPopupComponent  -->
<g id="node7" class="node"><title>DatePickerPopupComponent </title>
<polygon fill="#fb8072" stroke="black" points="269.305,-252 86.6955,-252 86.6955,-216 269.305,-216 269.305,-252"/>
<text text-anchor="middle" x="178" y="-229.8" font-family="Times,serif" font-size="14.00">DatePickerPopupComponent </text>
</g>
<!-- DatePickerModule&#45;&gt;DatePickerPopupComponent  -->
<g id="edge6" class="edge"><title>DatePickerModule&#45;&gt;DatePickerPopupComponent </title>
<path fill="none" stroke="black" stroke-dasharray="5,2" d="M225.266,-187.106C225.266,-187.106 225.266,-205.991 225.266,-205.991"/>
<polygon fill="black" stroke="black" points="221.766,-205.991 225.266,-215.991 228.766,-205.991 221.766,-205.991"/>
</g>
<!-- CommonModule -->
<g id="node4" class="node"><title>CommonModule</title>
<polygon fill="#8dd3c7" stroke="black" points="248.668,-122 245.668,-126 224.668,-126 221.668,-122 137.332,-122 137.332,-86 248.668,-86 248.668,-122"/>
<text text-anchor="middle" x="193" y="-99.8" font-family="Times,serif" font-size="14.00">CommonModule</text>
</g>
<!-- CommonModule&#45;&gt;DatePickerModule -->
<g id="edge3" class="edge"><title>CommonModule&#45;&gt;DatePickerModule</title>
<path fill="none" stroke="black" d="M214.982,-122.106C214.982,-122.106 214.982,-140.991 214.982,-140.991"/>
<polygon fill="black" stroke="black" points="211.482,-140.991 214.982,-150.991 218.482,-140.991 211.482,-140.991"/>
</g>
<!-- FormsModule -->
<g id="node5" class="node"><title>FormsModule</title>
<polygon fill="#8dd3c7" stroke="black" points="119.829,-122 116.829,-126 95.8288,-126 92.8288,-122 24.1712,-122 24.1712,-86 119.829,-86 119.829,-122"/>
<text text-anchor="middle" x="72" y="-99.8" font-family="Times,serif" font-size="14.00">FormsModule</text>
</g>
<!-- FormsModule&#45;&gt;DatePickerModule -->
<g id="edge4" class="edge"><title>FormsModule&#45;&gt;DatePickerModule</title>
<path fill="none" stroke="black" d="M103.131,-122.106C103.131,-141.339 103.131,-169 103.131,-169 103.131,-169 171.09,-169 171.09,-169"/>
<polygon fill="black" stroke="black" points="171.09,-172.5 181.09,-169 171.09,-165.5 171.09,-172.5"/>
</g>
</g>
</svg>
