<?xml version="1.0" encoding="UTF-8" standalone="no"?>
<!DOCTYPE svg PUBLIC "-//W3C//DTD SVG 1.1//EN"
 "http://www.w3.org/Graphics/SVG/1.1/DTD/svg11.dtd">
<!-- Generated by graphviz version 2.40.1 (20161225.0304)
 -->
<!-- Title: dependencies Pages: 1 -->
<svg width="558pt" height="349pt"
 viewBox="0.00 0.00 558.00 349.00" xmlns="http://www.w3.org/2000/svg" xmlns:xlink="http://www.w3.org/1999/xlink">
<g id="graph0" class="graph" transform="scale(1 1) rotate(0) translate(4 345)">
<title>dependencies</title>
<polygon fill="#ffffff" stroke="transparent" points="-4,4 -4,-345 554,-345 554,4 -4,4"/>
<text text-anchor="start" x="254.0091" y="-42.4" font-family="sans-serif" font-weight="bold" font-size="14.00" fill="#000000">Legend</text>
<polygon fill="#ffffb3" stroke="transparent" points="41,-10 41,-30 61,-30 61,-10 41,-10"/>
<text text-anchor="start" x="64.629" y="-15.4" font-family="sans-serif" font-size="14.00" fill="#000000"> &#160;Declarations</text>
<polygon fill="#8dd3c7" stroke="transparent" points="154,-10 154,-30 174,-30 174,-10 154,-10"/>
<text text-anchor="start" x="177.7251" y="-15.4" font-family="sans-serif" font-size="14.00" fill="#000000"> &#160;Module</text>
<polygon fill="#80b1d3" stroke="transparent" points="240,-10 240,-30 260,-30 260,-10 240,-10"/>
<text text-anchor="start" x="263.7812" y="-15.4" font-family="sans-serif" font-size="14.00" fill="#000000"> &#160;Bootstrap</text>
<polygon fill="#fdb462" stroke="transparent" points="337,-10 337,-30 357,-30 357,-10 337,-10"/>
<text text-anchor="start" x="360.6732" y="-15.4" font-family="sans-serif" font-size="14.00" fill="#000000"> &#160;Providers</text>
<polygon fill="#fb8072" stroke="transparent" points="433,-10 433,-30 453,-30 453,-10 433,-10"/>
<text text-anchor="start" x="456.7258" y="-15.4" font-family="sans-serif" font-size="14.00" fill="#000000"> &#160;Exports</text>
<g id="clust1" class="cluster">
<title>cluster_DatePickerModule</title>
<polygon fill="none" stroke="#000000" stroke-dasharray="1,5" points="8,-70 8,-333 542,-333 542,-70 8,-70"/>
</g>
<g id="clust2" class="cluster">
<title>cluster_DatePickerModule_declarations</title>
<polygon fill="none" stroke="#000000" points="117,-143 117,-195 461,-195 461,-143 117,-143"/>
</g>
<g id="clust3" class="cluster">
<title>cluster_DatePickerModule_DatePickerDirective_providers</title>
<polygon fill="none" stroke="#000000" points="16,-78 16,-130 534,-130 534,-78 16,-78"/>
</g>
<g id="clust6" class="cluster">
<title>cluster_DatePickerModule_exports</title>
<polygon fill="none" stroke="#000000" points="96,-273 96,-325 446,-325 446,-273 96,-273"/>
</g>
<!-- DatePickerDirective -->
<g id="node1" class="node">
<title>DatePickerDirective</title>
<polygon fill="#ffffb3" stroke="#000000" points="453.2725,-187 322.7275,-187 322.7275,-151 453.2725,-151 453.2725,-187"/>
<text text-anchor="middle" x="388" y="-164.8" font-family="Times,serif" font-size="14.00" fill="#000000">DatePickerDirective</text>
</g>
<!-- DatePickerModule -->
<g id="node3" class="node">
<title>DatePickerModule</title>
<polygon fill="#8dd3c7" stroke="#000000" points="315.7395,-252 312.7395,-256 291.7395,-256 288.7395,-252 194.2605,-252 194.2605,-216 315.7395,-216 315.7395,-252"/>
<text text-anchor="middle" x="255" y="-229.8" font-family="Times,serif" font-size="14.00" fill="#000000">DatePickerModule</text>
</g>
<!-- DatePickerDirective&#45;&gt;DatePickerModule -->
<g id="edge1" class="edge">
<title>DatePickerDirective&#45;&gt;DatePickerModule</title>
<path fill="none" stroke="#000000" d="M322.751,-169C315.2726,-169 310.2609,-169 310.2609,-169 310.2609,-169 310.2609,-205.8939 310.2609,-205.8939"/>
<polygon fill="#000000" stroke="#000000" points="306.761,-205.8938 310.2609,-215.8939 313.761,-205.8939 306.761,-205.8938"/>
</g>
<!-- DatePickerPopupComponent -->
<g id="node2" class="node">
<title>DatePickerPopupComponent</title>
<polygon fill="#ffffb3" stroke="#000000" points="304.8047,-187 125.1953,-187 125.1953,-151 304.8047,-151 304.8047,-187"/>
<text text-anchor="middle" x="215" y="-164.8" font-family="Times,serif" font-size="14.00" fill="#000000">DatePickerPopupComponent</text>
</g>
<!-- DatePickerPopupComponent&#45;&gt;DatePickerModule -->
<g id="edge3" class="edge">
<title>DatePickerPopupComponent&#45;&gt;DatePickerModule</title>
<path fill="none" stroke="#000000" d="M249.3913,-187.1061C249.3913,-187.1061 249.3913,-205.991 249.3913,-205.991"/>
<polygon fill="#000000" stroke="#000000" points="245.8914,-205.9909 249.3913,-215.991 252.8914,-205.991 245.8914,-205.9909"/>
</g>
<!-- DatePickerDirective  -->
<g id="node5" class="node">
<title>DatePickerDirective </title>
<polygon fill="#fb8072" stroke="#000000" points="437.7724,-317 304.2276,-317 304.2276,-281 437.7724,-281 437.7724,-317"/>
<text text-anchor="middle" x="371" y="-294.8" font-family="Times,serif" font-size="14.00" fill="#000000">DatePickerDirective </text>
</g>
<!-- DatePickerModule&#45;&gt;DatePickerDirective  -->
<g id="edge5" class="edge">
<title>DatePickerModule&#45;&gt;DatePickerDirective </title>
<path fill="none" stroke="#000000" stroke-dasharray="5,2" d="M309.9918,-252.1061C309.9918,-252.1061 309.9918,-270.991 309.9918,-270.991"/>
<polygon fill="#000000" stroke="#000000" points="306.4918,-270.9909 309.9918,-280.991 313.4918,-270.991 306.4918,-270.9909"/>
</g>
<!-- DatePickerPopupComponent  -->
<g id="node6" class="node">
<title>DatePickerPopupComponent </title>
<polygon fill="#fb8072" stroke="#000000" points="286.3045,-317 103.6955,-317 103.6955,-281 286.3045,-281 286.3045,-317"/>
<text text-anchor="middle" x="195" y="-294.8" font-family="Times,serif" font-size="14.00" fill="#000000">DatePickerPopupComponent </text>
</g>
<!-- DatePickerModule&#45;&gt;DatePickerPopupComponent  -->
<g id="edge6" class="edge">
<title>DatePickerModule&#45;&gt;DatePickerPopupComponent </title>
<path fill="none" stroke="#000000" stroke-dasharray="5,2" d="M240.2663,-252.1061C240.2663,-252.1061 240.2663,-270.991 240.2663,-270.991"/>
<polygon fill="#000000" stroke="#000000" points="236.7664,-270.9909 240.2663,-280.991 243.7664,-270.991 236.7664,-270.9909"/>
</g>
<!-- { provide: NG_VALUE_ACCESSOR, useExisting: , multi: &#160;} -->
<g id="node4" class="node">
<title>{ provide: NG_VALUE_ACCESSOR, useExisting: , multi: &#160;}</title>
<ellipse fill="#fdb462" stroke="#000000" cx="275" cy="-104" rx="251.4985" ry="18"/>
<text text-anchor="middle" x="275" y="-99.8" font-family="Times,serif" font-size="14.00" fill="#000000">{ provide: NG_VALUE_ACCESSOR, useExisting: , multi: &#160;}</text>
</g>
<!-- { provide: NG_VALUE_ACCESSOR, useExisting: , multi: &#160;}&#45;&gt;DatePickerDirective -->
<g id="edge2" class="edge">
<title>{ provide: NG_VALUE_ACCESSOR, useExisting: , multi: &#160;}&#45;&gt;DatePickerDirective</title>
<path fill="none" stroke="#000000" d="M388,-120.4022C388,-120.4022 388,-140.5366 388,-140.5366"/>
<polygon fill="#000000" stroke="#000000" points="384.5001,-140.5366 388,-150.5366 391.5001,-140.5367 384.5001,-140.5366"/>
</g>
<!-- { provide: NG_VALUE_ACCESSOR, useExisting: , multi: &#160;}&#45;&gt;DatePickerPopupComponent -->
<g id="edge4" class="edge">
<title>{ provide: NG_VALUE_ACCESSOR, useExisting: , multi: &#160;}&#45;&gt;DatePickerPopupComponent</title>
<path fill="none" stroke="#000000" d="M215,-121.7615C215,-121.7615 215,-140.8074 215,-140.8074"/>
<polygon fill="#000000" stroke="#000000" points="211.5001,-140.8074 215,-150.8074 218.5001,-140.8075 211.5001,-140.8074"/>
</g>
</g>
</svg>
