<?xml version="1.0" encoding="UTF-8" standalone="no"?>
<!DOCTYPE svg PUBLIC "-//W3C//DTD SVG 1.1//EN"
 "http://www.w3.org/Graphics/SVG/1.1/DTD/svg11.dtd">
<!-- Generated by graphviz version 2.40.1 (20161225.0304)
 -->
<!-- Title: dependencies Pages: 1 -->
<svg width="633pt" height="349pt"
 viewBox="0.00 0.00 633.00 349.00" xmlns="http://www.w3.org/2000/svg" xmlns:xlink="http://www.w3.org/1999/xlink">
<g id="graph0" class="graph" transform="scale(1 1) rotate(0) translate(4 345)">
<title>dependencies</title>
<polygon fill="#ffffff" stroke="transparent" points="-4,4 -4,-345 629,-345 629,4 -4,4"/>
<text text-anchor="start" x="291.5091" y="-42.4" font-family="sans-serif" font-weight="bold" font-size="14.00" fill="#000000">Legend</text>
<polygon fill="#ffffb3" stroke="transparent" points="78.5,-10 78.5,-30 98.5,-30 98.5,-10 78.5,-10"/>
<text text-anchor="start" x="102.129" y="-15.4" font-family="sans-serif" font-size="14.00" fill="#000000"> &#160;Declarations</text>
<polygon fill="#8dd3c7" stroke="transparent" points="191.5,-10 191.5,-30 211.5,-30 211.5,-10 191.5,-10"/>
<text text-anchor="start" x="215.2251" y="-15.4" font-family="sans-serif" font-size="14.00" fill="#000000"> &#160;Module</text>
<polygon fill="#80b1d3" stroke="transparent" points="277.5,-10 277.5,-30 297.5,-30 297.5,-10 277.5,-10"/>
<text text-anchor="start" x="301.2812" y="-15.4" font-family="sans-serif" font-size="14.00" fill="#000000"> &#160;Bootstrap</text>
<polygon fill="#fdb462" stroke="transparent" points="374.5,-10 374.5,-30 394.5,-30 394.5,-10 374.5,-10"/>
<text text-anchor="start" x="398.1732" y="-15.4" font-family="sans-serif" font-size="14.00" fill="#000000"> &#160;Providers</text>
<polygon fill="#fb8072" stroke="transparent" points="470.5,-10 470.5,-30 490.5,-30 490.5,-10 470.5,-10"/>
<text text-anchor="start" x="494.2258" y="-15.4" font-family="sans-serif" font-size="14.00" fill="#000000"> &#160;Exports</text>
<g id="clust1" class="cluster">
<title>cluster_DatePickerModule</title>
<polygon fill="none" stroke="#000000" stroke-dasharray="1,5" points="8,-70 8,-333 617,-333 617,-70 8,-70"/>
</g>
<g id="clust2" class="cluster">
<title>cluster_DatePickerModule_declarations</title>
<polygon fill="none" stroke="#000000" points="265,-143 265,-195 609,-195 609,-143 265,-143"/>
</g>
<g id="clust3" class="cluster">
<title>cluster_DatePickerModule_DatePickerDirective_providers</title>
<polygon fill="none" stroke="#000000" points="91,-78 91,-130 609,-130 609,-78 91,-78"/>
</g>
<g id="clust5" class="cluster">
<title>cluster_DatePickerModule_imports</title>
<polygon fill="none" stroke="#000000" points="16,-143 16,-195 257,-195 257,-143 16,-143"/>
</g>
<g id="clust6" class="cluster">
<title>cluster_DatePickerModule_exports</title>
<polygon fill="none" stroke="#000000" points="96,-273 96,-325 446,-325 446,-273 96,-273"/>
</g>
<!-- DatePickerDirective -->
<g id="node1" class="node">
<title>DatePickerDirective</title>
<polygon fill="#ffffb3" stroke="#000000" points="601.2725,-187 470.7275,-187 470.7275,-151 601.2725,-151 601.2725,-187"/>
<text text-anchor="middle" x="536" y="-164.8" font-family="Times,serif" font-size="14.00" fill="#000000">DatePickerDirective</text>
</g>
<!-- DatePickerModule -->
<g id="node3" class="node">
<title>DatePickerModule</title>
<polygon fill="#8dd3c7" stroke="#000000" points="335.7395,-252 332.7395,-256 311.7395,-256 308.7395,-252 214.2605,-252 214.2605,-216 335.7395,-216 335.7395,-252"/>
<text text-anchor="middle" x="275" y="-229.8" font-family="Times,serif" font-size="14.00" fill="#000000">DatePickerModule</text>
</g>
<!-- DatePickerDirective&#45;&gt;DatePickerModule -->
<g id="edge1" class="edge">
<title>DatePickerDirective&#45;&gt;DatePickerModule</title>
<path fill="none" stroke="#000000" d="M536,-187.1061C536,-206.3391 536,-234 536,-234 536,-234 345.8635,-234 345.8635,-234"/>
<polygon fill="#000000" stroke="#000000" points="345.8635,-230.5001 335.8635,-234 345.8635,-237.5001 345.8635,-230.5001"/>
</g>
<!-- DatePickerPopupComponent -->
<g id="node2" class="node">
<title>DatePickerPopupComponent</title>
<polygon fill="#ffffb3" stroke="#000000" points="452.8047,-187 273.1953,-187 273.1953,-151 452.8047,-151 452.8047,-187"/>
<text text-anchor="middle" x="363" y="-164.8" font-family="Times,serif" font-size="14.00" fill="#000000">DatePickerPopupComponent</text>
</g>
<!-- DatePickerPopupComponent&#45;&gt;DatePickerModule -->
<g id="edge3" class="edge">
<title>DatePickerPopupComponent&#45;&gt;DatePickerModule</title>
<path fill="none" stroke="#000000" d="M304.6087,-187.1061C304.6087,-187.1061 304.6087,-205.991 304.6087,-205.991"/>
<polygon fill="#000000" stroke="#000000" points="301.1088,-205.9909 304.6087,-215.991 308.1088,-205.991 301.1088,-205.9909"/>
</g>
<!-- DatePickerDirective  -->
<g id="node7" class="node">
<title>DatePickerDirective </title>
<polygon fill="#fb8072" stroke="#000000" points="437.7724,-317 304.2276,-317 304.2276,-281 437.7724,-281 437.7724,-317"/>
<text text-anchor="middle" x="371" y="-294.8" font-family="Times,serif" font-size="14.00" fill="#000000">DatePickerDirective </text>
</g>
<!-- DatePickerModule&#45;&gt;DatePickerDirective  -->
<g id="edge7" class="edge">
<title>DatePickerModule&#45;&gt;DatePickerDirective </title>
<path fill="none" stroke="#000000" stroke-dasharray="5,2" d="M319.9918,-252.1061C319.9918,-252.1061 319.9918,-270.991 319.9918,-270.991"/>
<polygon fill="#000000" stroke="#000000" points="316.4918,-270.9909 319.9918,-280.991 323.4918,-270.991 316.4918,-270.9909"/>
</g>
<!-- DatePickerPopupComponent  -->
<g id="node8" class="node">
<title>DatePickerPopupComponent </title>
<polygon fill="#fb8072" stroke="#000000" points="286.3045,-317 103.6955,-317 103.6955,-281 286.3045,-281 286.3045,-317"/>
<text text-anchor="middle" x="195" y="-294.8" font-family="Times,serif" font-size="14.00" fill="#000000">DatePickerPopupComponent </text>
</g>
<!-- DatePickerModule&#45;&gt;DatePickerPopupComponent  -->
<g id="edge8" class="edge">
<title>DatePickerModule&#45;&gt;DatePickerPopupComponent </title>
<path fill="none" stroke="#000000" stroke-dasharray="5,2" d="M250.2663,-252.1061C250.2663,-252.1061 250.2663,-270.991 250.2663,-270.991"/>
<polygon fill="#000000" stroke="#000000" points="246.7664,-270.9909 250.2663,-280.991 253.7664,-270.991 246.7664,-270.9909"/>
</g>
<!-- { provide: NG_VALUE_ACCESSOR, useExisting: , multi: &#160;} -->
<g id="node4" class="node">
<title>{ provide: NG_VALUE_ACCESSOR, useExisting: , multi: &#160;}</title>
<ellipse fill="#fdb462" stroke="#000000" cx="350" cy="-104" rx="251.4985" ry="18"/>
<text text-anchor="middle" x="350" y="-99.8" font-family="Times,serif" font-size="14.00" fill="#000000">{ provide: NG_VALUE_ACCESSOR, useExisting: , multi: &#160;}</text>
</g>
<!-- { provide: NG_VALUE_ACCESSOR, useExisting: , multi: &#160;}&#45;&gt;DatePickerDirective -->
<g id="edge2" class="edge">
<title>{ provide: NG_VALUE_ACCESSOR, useExisting: , multi: &#160;}&#45;&gt;DatePickerDirective</title>
<path fill="none" stroke="#000000" d="M536,-116.226C536,-116.226 536,-140.683 536,-140.683"/>
<polygon fill="#000000" stroke="#000000" points="532.5001,-140.683 536,-150.683 539.5001,-140.683 532.5001,-140.683"/>
</g>
<!-- { provide: NG_VALUE_ACCESSOR, useExisting: , multi: &#160;}&#45;&gt;DatePickerPopupComponent -->
<g id="edge4" class="edge">
<title>{ provide: NG_VALUE_ACCESSOR, useExisting: , multi: &#160;}&#45;&gt;DatePickerPopupComponent</title>
<path fill="none" stroke="#000000" d="M363,-122.1061C363,-122.1061 363,-140.991 363,-140.991"/>
<polygon fill="#000000" stroke="#000000" points="359.5001,-140.9909 363,-150.991 366.5001,-140.991 359.5001,-140.9909"/>
</g>
<!-- CommonModule -->
<g id="node5" class="node">
<title>CommonModule</title>
<polygon fill="#8dd3c7" stroke="#000000" points="248.6681,-187 245.6681,-191 224.6681,-191 221.6681,-187 137.3319,-187 137.3319,-151 248.6681,-151 248.6681,-187"/>
<text text-anchor="middle" x="193" y="-164.8" font-family="Times,serif" font-size="14.00" fill="#000000">CommonModule</text>
</g>
<!-- CommonModule&#45;&gt;DatePickerModule -->
<g id="edge5" class="edge">
<title>CommonModule&#45;&gt;DatePickerModule</title>
<path fill="none" stroke="#000000" d="M231.4821,-187.1061C231.4821,-187.1061 231.4821,-205.991 231.4821,-205.991"/>
<polygon fill="#000000" stroke="#000000" points="227.9822,-205.9909 231.4821,-215.991 234.9822,-205.991 227.9822,-205.9909"/>
</g>
<!-- FormsModule -->
<g id="node6" class="node">
<title>FormsModule</title>
<polygon fill="#8dd3c7" stroke="#000000" points="119.8288,-187 116.8288,-191 95.8288,-191 92.8288,-187 24.1712,-187 24.1712,-151 119.8288,-151 119.8288,-187"/>
<text text-anchor="middle" x="72" y="-164.8" font-family="Times,serif" font-size="14.00" fill="#000000">FormsModule</text>
</g>
<!-- FormsModule&#45;&gt;DatePickerModule -->
<g id="edge6" class="edge">
<title>FormsModule&#45;&gt;DatePickerModule</title>
<path fill="none" stroke="#000000" d="M111.631,-187.1061C111.631,-206.3391 111.631,-234 111.6309,-234 111.6309,-234 204.1674,-234 204.1674,-234"/>
<polygon fill="#000000" stroke="#000000" points="204.1674,-237.5001 214.1674,-234 204.1674,-230.5001 204.1674,-237.5001"/>
</g>
</g>
</svg>
