<?xml version="1.0" encoding="UTF-8" standalone="no"?>
<!DOCTYPE svg PUBLIC "-//W3C//DTD SVG 1.1//EN"
 "http://www.w3.org/Graphics/SVG/1.1/DTD/svg11.dtd">
<!-- Generated by graphviz version 2.40.1 (20161225.0304)
 -->
<!-- Title: dependencies Pages: 1 -->
<svg width="558pt" height="349pt"
 viewBox="0.00 0.00 558.00 349.00" xmlns="http://www.w3.org/2000/svg" xmlns:xlink="http://www.w3.org/1999/xlink">
<g id="graph0" class="graph" transform="scale(1 1) rotate(0) translate(4 345)">
<title>dependencies</title>
<polygon fill="#ffffff" stroke="transparent" points="-4,4 -4,-345 554,-345 554,4 -4,4"/>
<text text-anchor="start" x="254.0091" y="-42.4" font-family="sans-serif" font-weight="bold" font-size="14.00" fill="#000000">Legend</text>
<polygon fill="#ffffb3" stroke="transparent" points="41,-10 41,-30 61,-30 61,-10 41,-10"/>
<text text-anchor="start" x="64.629" y="-15.4" font-family="sans-serif" font-size="14.00" fill="#000000"> &#160;Declarations</text>
<polygon fill="#8dd3c7" stroke="transparent" points="154,-10 154,-30 174,-30 174,-10 154,-10"/>
<text text-anchor="start" x="177.7251" y="-15.4" font-family="sans-serif" font-size="14.00" fill="#000000"> &#160;Module</text>
<polygon fill="#80b1d3" stroke="transparent" points="240,-10 240,-30 260,-30 260,-10 240,-10"/>
<text text-anchor="start" x="263.7812" y="-15.4" font-family="sans-serif" font-size="14.00" fill="#000000"> &#160;Bootstrap</text>
<polygon fill="#fdb462" stroke="transparent" points="337,-10 337,-30 357,-30 357,-10 337,-10"/>
<text text-anchor="start" x="360.6732" y="-15.4" font-family="sans-serif" font-size="14.00" fill="#000000"> &#160;Providers</text>
<polygon fill="#fb8072" stroke="transparent" points="433,-10 433,-30 453,-30 453,-10 433,-10"/>
<text text-anchor="start" x="456.7258" y="-15.4" font-family="sans-serif" font-size="14.00" fill="#000000"> &#160;Exports</text>
<g id="clust1" class="cluster">
<title>cluster_DatePickerModule</title>
<polygon fill="none" stroke="#000000" stroke-dasharray="1,5" points="8,-70 8,-333 542,-333 542,-70 8,-70"/>
</g>
<g id="clust2" class="cluster">
<title>cluster_DatePickerModule_declarations</title>
<polygon fill="none" stroke="#000000" points="177,-143 177,-195 521,-195 521,-143 177,-143"/>
</g>
<g id="clust4" class="cluster">
<title>cluster_DatePickerModule_DatePickerPopupComponent_providers</title>
<polygon fill="none" stroke="#000000" points="16,-78 16,-130 534,-130 534,-78 16,-78"/>
</g>
<g id="clust6" class="cluster">
<title>cluster_DatePickerModule_exports</title>
<polygon fill="none" stroke="#000000" points="98,-273 98,-325 448,-325 448,-273 98,-273"/>
</g>
<!-- DatePickerDirective -->
<g id="node1" class="node">
<title>DatePickerDirective</title>
<polygon fill="#ffffb3" stroke="#000000" points="513.2725,-187 382.7275,-187 382.7275,-151 513.2725,-151 513.2725,-187"/>
<text text-anchor="middle" x="448" y="-164.8" font-family="Times,serif" font-size="14.00" fill="#000000">DatePickerDirective</text>
</g>
<!-- DatePickerModule -->
<g id="node3" class="node">
<title>DatePickerModule</title>
<polygon fill="#8dd3c7" stroke="#000000" points="339.7395,-252 336.7395,-256 315.7395,-256 312.7395,-252 218.2605,-252 218.2605,-216 339.7395,-216 339.7395,-252"/>
<text text-anchor="middle" x="279" y="-229.8" font-family="Times,serif" font-size="14.00" fill="#000000">DatePickerModule</text>
</g>
<!-- DatePickerDirective&#45;&gt;DatePickerModule -->
<g id="edge1" class="edge">
<title>DatePickerDirective&#45;&gt;DatePickerModule</title>
<path fill="none" stroke="#000000" d="M411.375,-187.1061C411.375,-206.3391 411.375,-234 411.375,-234 411.375,-234 349.7635,-234 349.7635,-234"/>
<polygon fill="#000000" stroke="#000000" points="349.7635,-230.5001 339.7635,-234 349.7634,-237.5001 349.7635,-230.5001"/>
</g>
<!-- DatePickerPopupComponent -->
<g id="node2" class="node">
<title>DatePickerPopupComponent</title>
<polygon fill="#ffffb3" stroke="#000000" points="364.8047,-187 185.1953,-187 185.1953,-151 364.8047,-151 364.8047,-187"/>
<text text-anchor="middle" x="275" y="-164.8" font-family="Times,serif" font-size="14.00" fill="#000000">DatePickerPopupComponent</text>
</g>
<!-- DatePickerPopupComponent&#45;&gt;DatePickerModule -->
<g id="edge2" class="edge">
<title>DatePickerPopupComponent&#45;&gt;DatePickerModule</title>
<path fill="none" stroke="#000000" d="M279,-187.1061C279,-187.1061 279,-205.991 279,-205.991"/>
<polygon fill="#000000" stroke="#000000" points="275.5001,-205.9909 279,-215.991 282.5001,-205.991 275.5001,-205.9909"/>
</g>
<!-- DatePickerDirective  -->
<g id="node5" class="node">
<title>DatePickerDirective </title>
<polygon fill="#fb8072" stroke="#000000" points="439.7724,-317 306.2276,-317 306.2276,-281 439.7724,-281 439.7724,-317"/>
<text text-anchor="middle" x="373" y="-294.8" font-family="Times,serif" font-size="14.00" fill="#000000">DatePickerDirective </text>
</g>
<!-- DatePickerModule&#45;&gt;DatePickerDirective  -->
<g id="edge4" class="edge">
<title>DatePickerModule&#45;&gt;DatePickerDirective </title>
<path fill="none" stroke="#000000" stroke-dasharray="5,2" d="M322.9918,-252.1061C322.9918,-252.1061 322.9918,-270.991 322.9918,-270.991"/>
<polygon fill="#000000" stroke="#000000" points="319.4918,-270.9909 322.9918,-280.991 326.4918,-270.991 319.4918,-270.9909"/>
</g>
<!-- DatePickerPopupComponent  -->
<g id="node6" class="node">
<title>DatePickerPopupComponent </title>
<polygon fill="#fb8072" stroke="#000000" points="288.3045,-317 105.6955,-317 105.6955,-281 288.3045,-281 288.3045,-317"/>
<text text-anchor="middle" x="197" y="-294.8" font-family="Times,serif" font-size="14.00" fill="#000000">DatePickerPopupComponent </text>
</g>
<!-- DatePickerModule&#45;&gt;DatePickerPopupComponent  -->
<g id="edge5" class="edge">
<title>DatePickerModule&#45;&gt;DatePickerPopupComponent </title>
<path fill="none" stroke="#000000" stroke-dasharray="5,2" d="M253.2663,-252.1061C253.2663,-252.1061 253.2663,-270.991 253.2663,-270.991"/>
<polygon fill="#000000" stroke="#000000" points="249.7664,-270.9909 253.2663,-280.991 256.7664,-270.991 249.7664,-270.9909"/>
</g>
<!-- { provide: NG_VALUE_ACCESSOR, useExisting: , multi: &#160;} -->
<g id="node4" class="node">
<title>{ provide: NG_VALUE_ACCESSOR, useExisting: , multi: &#160;}</title>
<ellipse fill="#fdb462" stroke="#000000" cx="275" cy="-104" rx="251.4985" ry="18"/>
<text text-anchor="middle" x="275" y="-99.8" font-family="Times,serif" font-size="14.00" fill="#000000">{ provide: NG_VALUE_ACCESSOR, useExisting: , multi: &#160;}</text>
</g>
<!-- { provide: NG_VALUE_ACCESSOR, useExisting: , multi: &#160;}&#45;&gt;DatePickerPopupComponent -->
<g id="edge3" class="edge">
<title>{ provide: NG_VALUE_ACCESSOR, useExisting: , multi: &#160;}&#45;&gt;DatePickerPopupComponent</title>
<path fill="none" stroke="#000000" d="M275,-122.1061C275,-122.1061 275,-140.991 275,-140.991"/>
<polygon fill="#000000" stroke="#000000" points="271.5001,-140.9909 275,-150.991 278.5001,-140.991 271.5001,-140.9909"/>
</g>
</g>
</svg>
