<?xml version="1.0" encoding="UTF-8" standalone="no"?>
<!DOCTYPE svg PUBLIC "-//W3C//DTD SVG 1.1//EN"
 "http://www.w3.org/Graphics/SVG/1.1/DTD/svg11.dtd">
<!-- Generated by graphviz version 2.40.1 (20161225.0304)
 -->
<!-- Title: dependencies Pages: 1 -->
<svg width="504pt" height="396pt"
 viewBox="0.00 0.00 504.00 395.59" xmlns="http://www.w3.org/2000/svg" xmlns:xlink="http://www.w3.org/1999/xlink">
<g id="graph0" class="graph" transform="scale(1 1) rotate(0) translate(4 391.5901)">
<title>dependencies</title>
<polygon fill="#ffffff" stroke="transparent" points="-4,4 -4,-391.5901 500,-391.5901 500,4 -4,4"/>
<text text-anchor="start" x="227.0091" y="-42.4" font-family="sans-serif" font-weight="bold" font-size="14.00" fill="#000000">Legend</text>
<polygon fill="#ffffb3" stroke="transparent" points="14,-10 14,-30 34,-30 34,-10 14,-10"/>
<text text-anchor="start" x="37.629" y="-15.4" font-family="sans-serif" font-size="14.00" fill="#000000"> &#160;Declarations</text>
<polygon fill="#8dd3c7" stroke="transparent" points="127,-10 127,-30 147,-30 147,-10 127,-10"/>
<text text-anchor="start" x="150.7251" y="-15.4" font-family="sans-serif" font-size="14.00" fill="#000000"> &#160;Module</text>
<polygon fill="#80b1d3" stroke="transparent" points="213,-10 213,-30 233,-30 233,-10 213,-10"/>
<text text-anchor="start" x="236.7812" y="-15.4" font-family="sans-serif" font-size="14.00" fill="#000000"> &#160;Bootstrap</text>
<polygon fill="#fdb462" stroke="transparent" points="310,-10 310,-30 330,-30 330,-10 310,-10"/>
<text text-anchor="start" x="333.6732" y="-15.4" font-family="sans-serif" font-size="14.00" fill="#000000"> &#160;Providers</text>
<polygon fill="#fb8072" stroke="transparent" points="406,-10 406,-30 426,-30 426,-10 406,-10"/>
<text text-anchor="start" x="429.7258" y="-15.4" font-family="sans-serif" font-size="14.00" fill="#000000"> &#160;Exports</text>
<g id="clust1" class="cluster">
<title>cluster_DatePickerModule</title>
<polygon fill="none" stroke="#000000" stroke-dasharray="1,5" points="65,-70 65,-379.5901 431,-379.5901 431,-70 65,-70"/>
</g>
<g id="clust2" class="cluster">
<title>cluster_DatePickerModule_declarations</title>
<polygon fill="none" stroke="#000000" points="76,-189.5901 76,-241.5901 420,-241.5901 420,-189.5901 76,-189.5901"/>
</g>
<g id="clust3" class="cluster">
<title>cluster_DatePickerModule_DatePickerDirective_providers</title>
<polygon fill="none" stroke="#000000" points="151,-78 151,-176.5901 349,-176.5901 349,-78 151,-78"/>
</g>
<g id="clust6" class="cluster">
<title>cluster_DatePickerModule_exports</title>
<polygon fill="none" stroke="#000000" points="73,-319.5901 73,-371.5901 423,-371.5901 423,-319.5901 73,-319.5901"/>
</g>
<!-- DatePickerDirective -->
<g id="node1" class="node">
<title>DatePickerDirective</title>
<polygon fill="#ffffb3" stroke="#000000" points="412.2725,-233.5901 281.7275,-233.5901 281.7275,-197.5901 412.2725,-197.5901 412.2725,-233.5901"/>
<text text-anchor="middle" x="347" y="-211.3901" font-family="Times,serif" font-size="14.00" fill="#000000">DatePickerDirective</text>
</g>
<!-- DatePickerModule -->
<g id="node3" class="node">
<title>DatePickerModule</title>
<polygon fill="#8dd3c7" stroke="#000000" points="234.7395,-298.5901 231.7395,-302.5901 210.7395,-302.5901 207.7395,-298.5901 113.2605,-298.5901 113.2605,-262.5901 234.7395,-262.5901 234.7395,-298.5901"/>
<text text-anchor="middle" x="174" y="-276.3901" font-family="Times,serif" font-size="14.00" fill="#000000">DatePickerModule</text>
</g>
<!-- DatePickerDirective&#45;&gt;DatePickerModule -->
<g id="edge1" class="edge">
<title>DatePickerDirective&#45;&gt;DatePickerModule</title>
<path fill="none" stroke="#000000" d="M368.712,-233.6126C368.712,-250.9634 368.712,-274.5901 368.712,-274.5901 368.712,-274.5901 244.8072,-274.5901 244.8072,-274.5901"/>
<polygon fill="#000000" stroke="#000000" points="244.8072,-271.0902 234.8072,-274.5901 244.8071,-278.0902 244.8072,-271.0902"/>
</g>
<!-- DatePickerPopupComponent -->
<g id="node2" class="node">
<title>DatePickerPopupComponent</title>
<polygon fill="#ffffb3" stroke="#000000" points="263.8047,-233.5901 84.1953,-233.5901 84.1953,-197.5901 263.8047,-197.5901 263.8047,-233.5901"/>
<text text-anchor="middle" x="174" y="-211.3901" font-family="Times,serif" font-size="14.00" fill="#000000">DatePickerPopupComponent</text>
</g>
<!-- DatePickerPopupComponent&#45;&gt;DatePickerModule -->
<g id="edge3" class="edge">
<title>DatePickerPopupComponent&#45;&gt;DatePickerModule</title>
<path fill="none" stroke="#000000" d="M174,-233.6962C174,-233.6962 174,-252.581 174,-252.581"/>
<polygon fill="#000000" stroke="#000000" points="170.5001,-252.581 174,-262.581 177.5001,-252.5811 170.5001,-252.581"/>
</g>
<!-- DatePickerDirective  -->
<g id="node5" class="node">
<title>DatePickerDirective </title>
<polygon fill="#fb8072" stroke="#000000" points="414.7724,-363.5901 281.2276,-363.5901 281.2276,-327.5901 414.7724,-327.5901 414.7724,-363.5901"/>
<text text-anchor="middle" x="348" y="-341.3901" font-family="Times,serif" font-size="14.00" fill="#000000">DatePickerDirective </text>
</g>
<!-- DatePickerModule&#45;&gt;DatePickerDirective  -->
<g id="edge5" class="edge">
<title>DatePickerModule&#45;&gt;DatePickerDirective </title>
<path fill="none" stroke="#000000" stroke-dasharray="5,2" d="M235.0985,-286.5901C277.0865,-286.5901 325.288,-286.5901 325.288,-286.5901 325.288,-286.5901 325.288,-317.5675 325.288,-317.5675"/>
<polygon fill="#000000" stroke="#000000" points="321.7881,-317.5675 325.288,-327.5675 328.7881,-317.5676 321.7881,-317.5675"/>
</g>
<!-- DatePickerPopupComponent  -->
<g id="node6" class="node">
<title>DatePickerPopupComponent </title>
<polygon fill="#fb8072" stroke="#000000" points="263.3045,-363.5901 80.6955,-363.5901 80.6955,-327.5901 263.3045,-327.5901 263.3045,-363.5901"/>
<text text-anchor="middle" x="172" y="-341.3901" font-family="Times,serif" font-size="14.00" fill="#000000">DatePickerPopupComponent </text>
</g>
<!-- DatePickerModule&#45;&gt;DatePickerPopupComponent  -->
<g id="edge6" class="edge">
<title>DatePickerModule&#45;&gt;DatePickerPopupComponent </title>
<path fill="none" stroke="#000000" stroke-dasharray="5,2" d="M174,-298.6962C174,-298.6962 174,-317.581 174,-317.581"/>
<polygon fill="#000000" stroke="#000000" points="170.5001,-317.581 174,-327.581 177.5001,-317.5811 170.5001,-317.581"/>
</g>
<!-- {
 &#160;&#160;&#160;: , : (() =&gt; ), : true
} -->
<g id="node4" class="node">
<title>{
 &#160;&#160;&#160;: , : (() =&gt; ), : true
}</title>
<ellipse fill="#fdb462" stroke="#000000" cx="250" cy="-127.295" rx="91.4557" ry="41.0911"/>
<text text-anchor="middle" x="250" y="-139.895" font-family="Times,serif" font-size="14.00" fill="#000000">{</text>
<text text-anchor="middle" x="250" y="-123.095" font-family="Times,serif" font-size="14.00" fill="#000000"> &#160;&#160;&#160;: , : (() =&gt; ), : true</text>
<text text-anchor="middle" x="250" y="-106.295" font-family="Times,serif" font-size="14.00" fill="#000000">}</text>
</g>
<!-- {
 &#160;&#160;&#160;: , : (() =&gt; ), : true
}&#45;&gt;DatePickerDirective -->
<g id="edge2" class="edge">
<title>{
 &#160;&#160;&#160;: , : (() =&gt; ), : true
}&#45;&gt;DatePickerDirective</title>
<path fill="none" stroke="#000000" d="M311.6709,-158.1764C311.6709,-158.1764 311.6709,-187.4691 311.6709,-187.4691"/>
<polygon fill="#000000" stroke="#000000" points="308.171,-187.4691 311.6709,-197.4691 315.171,-187.4692 308.171,-187.4691"/>
</g>
<!-- {
 &#160;&#160;&#160;: , : (() =&gt; ), : true
}&#45;&gt;DatePickerPopupComponent -->
<g id="edge4" class="edge">
<title>{
 &#160;&#160;&#160;: , : (() =&gt; ), : true
}&#45;&gt;DatePickerPopupComponent</title>
<path fill="none" stroke="#000000" d="M211.0872,-164.7401C211.0872,-164.7401 211.0872,-187.3355 211.0872,-187.3355"/>
<polygon fill="#000000" stroke="#000000" points="207.5873,-187.3354 211.0872,-197.3355 214.5873,-187.3355 207.5873,-187.3354"/>
</g>
</g>
</svg>
