<?xml version="1.0" encoding="UTF-8" standalone="no"?>
<!DOCTYPE svg PUBLIC "-//W3C//DTD SVG 1.1//EN"
 "http://www.w3.org/Graphics/SVG/1.1/DTD/svg11.dtd">
<!-- Generated by graphviz version 2.40.1 (20161225.0304)
 -->
<!-- Title: dependencies Pages: 1 -->
<svg width="3827pt" height="284pt"
 viewBox="0.00 0.00 3827.00 284.00" xmlns="http://www.w3.org/2000/svg" xmlns:xlink="http://www.w3.org/1999/xlink">
<g id="graph0" class="graph" transform="scale(1 1) rotate(0) translate(4 280)">
<title>dependencies</title>
<polygon fill="#ffffff" stroke="transparent" points="-4,4 -4,-280 3823,-280 3823,4 -4,4"/>
<text text-anchor="start" x="1888.5091" y="-42.4" font-family="sans-serif" font-weight="bold" font-size="14.00" fill="#000000">Legend</text>
<polygon fill="#ffffb3" stroke="transparent" points="1675.5,-10 1675.5,-30 1695.5,-30 1695.5,-10 1675.5,-10"/>
<text text-anchor="start" x="1699.129" y="-15.4" font-family="sans-serif" font-size="14.00" fill="#000000"> &#160;Declarations</text>
<polygon fill="#8dd3c7" stroke="transparent" points="1788.5,-10 1788.5,-30 1808.5,-30 1808.5,-10 1788.5,-10"/>
<text text-anchor="start" x="1812.2251" y="-15.4" font-family="sans-serif" font-size="14.00" fill="#000000"> &#160;Module</text>
<polygon fill="#80b1d3" stroke="transparent" points="1874.5,-10 1874.5,-30 1894.5,-30 1894.5,-10 1874.5,-10"/>
<text text-anchor="start" x="1898.2812" y="-15.4" font-family="sans-serif" font-size="14.00" fill="#000000"> &#160;Bootstrap</text>
<polygon fill="#fdb462" stroke="transparent" points="1971.5,-10 1971.5,-30 1991.5,-30 1991.5,-10 1971.5,-10"/>
<text text-anchor="start" x="1995.1732" y="-15.4" font-family="sans-serif" font-size="14.00" fill="#000000"> &#160;Providers</text>
<polygon fill="#fb8072" stroke="transparent" points="2067.5,-10 2067.5,-30 2087.5,-30 2087.5,-10 2067.5,-10"/>
<text text-anchor="start" x="2091.2258" y="-15.4" font-family="sans-serif" font-size="14.00" fill="#000000"> &#160;Exports</text>
<g id="clust1" class="cluster">
<title>cluster_RebirthNGModule</title>
<polygon fill="none" stroke="#000000" stroke-dasharray="1,5" points="8,-70 8,-268 3811,-268 3811,-70 8,-70"/>
</g>
<g id="clust3" class="cluster">
<title>cluster_RebirthNGModule_imports</title>
<polygon fill="none" stroke="#000000" points="134,-78 134,-130 3689,-130 3689,-78 134,-78"/>
</g>
<g id="clust4" class="cluster">
<title>cluster_RebirthNGModule_exports</title>
<polygon fill="none" stroke="#000000" points="16,-208 16,-260 3803,-260 3803,-208 16,-208"/>
</g>
<!-- RebirthCommonModule -->
<g id="node1" class="node">
<title>RebirthCommonModule</title>
<polygon fill="#8dd3c7" stroke="#000000" points="3680.661,-122 3677.661,-126 3656.661,-126 3653.661,-122 3527.339,-122 3527.339,-86 3680.661,-86 3680.661,-122"/>
<text text-anchor="middle" x="3604" y="-99.8" font-family="Times,serif" font-size="14.00" fill="#000000">RebirthCommonModule</text>
</g>
<!-- RebirthNGModule -->
<g id="node28" class="node">
<title>RebirthNGModule</title>
<polygon fill="#8dd3c7" stroke="#000000" points="2059.7562,-187 2056.7562,-191 2035.7562,-191 2032.7562,-187 1938.2438,-187 1938.2438,-151 2059.7562,-151 2059.7562,-187"/>
<text text-anchor="middle" x="1999" y="-164.8" font-family="Times,serif" font-size="14.00" fill="#000000">RebirthNGModule</text>
</g>
<!-- RebirthCommonModule&#45;&gt;RebirthNGModule -->
<g id="edge1" class="edge">
<title>RebirthCommonModule&#45;&gt;RebirthNGModule</title>
<path fill="none" stroke="#000000" d="M3558.0464,-122.1686C3558.0464,-141.0898 3558.0464,-168 3558.0464,-168 3558.0464,-168 2070.1165,-168 2070.1165,-168"/>
<polygon fill="#000000" stroke="#000000" points="2070.1165,-164.5001 2060.1165,-168 2070.1164,-171.5001 2070.1165,-164.5001"/>
</g>
<!-- ModalModule -->
<g id="node2" class="node">
<title>ModalModule</title>
<polygon fill="#8dd3c7" stroke="#000000" points="3509.0997,-122 3506.0997,-126 3485.0997,-126 3482.0997,-122 3412.9003,-122 3412.9003,-86 3509.0997,-86 3509.0997,-122"/>
<text text-anchor="middle" x="3461" y="-99.8" font-family="Times,serif" font-size="14.00" fill="#000000">ModalModule</text>
</g>
<!-- ModalModule&#45;&gt;RebirthNGModule -->
<g id="edge2" class="edge">
<title>ModalModule&#45;&gt;RebirthNGModule</title>
<path fill="none" stroke="#000000" d="M3457.7632,-122.2222C3457.7632,-140.8285 3457.7632,-167 3457.7632,-167 3457.7632,-167 2069.824,-167 2069.824,-167"/>
<polygon fill="#000000" stroke="#000000" points="2069.8241,-163.5001 2059.824,-167 2069.824,-170.5001 2069.8241,-163.5001"/>
</g>
<!-- DialogModule -->
<g id="node3" class="node">
<title>DialogModule</title>
<polygon fill="#8dd3c7" stroke="#000000" points="3394.6528,-122 3391.6528,-126 3370.6528,-126 3367.6528,-122 3297.3472,-122 3297.3472,-86 3394.6528,-86 3394.6528,-122"/>
<text text-anchor="middle" x="3346" y="-99.8" font-family="Times,serif" font-size="14.00" fill="#000000">DialogModule</text>
</g>
<!-- DialogModule&#45;&gt;RebirthNGModule -->
<g id="edge3" class="edge">
<title>DialogModule&#45;&gt;RebirthNGModule</title>
<path fill="none" stroke="#000000" d="M3340.3175,-122.302C3340.3175,-140.2699 3340.3175,-165 3340.3175,-165 3340.3175,-165 2070.1191,-165 2070.1191,-165"/>
<polygon fill="#000000" stroke="#000000" points="2070.1191,-161.5001 2060.1191,-165 2070.119,-168.5001 2070.1191,-161.5001"/>
</g>
<!-- PagerModule -->
<g id="node4" class="node">
<title>PagerModule</title>
<polygon fill="#8dd3c7" stroke="#000000" points="3278.9232,-122 3275.9232,-126 3254.9232,-126 3251.9232,-122 3187.0768,-122 3187.0768,-86 3278.9232,-86 3278.9232,-122"/>
<text text-anchor="middle" x="3233" y="-99.8" font-family="Times,serif" font-size="14.00" fill="#000000">PagerModule</text>
</g>
<!-- PagerModule&#45;&gt;RebirthNGModule -->
<g id="edge4" class="edge">
<title>PagerModule&#45;&gt;RebirthNGModule</title>
<path fill="none" stroke="#000000" d="M3228.8778,-122.002C3228.8778,-139.6754 3228.8778,-164 3228.8778,-164 3228.8778,-164 2069.9898,-164 2069.9898,-164"/>
<polygon fill="#000000" stroke="#000000" points="2069.9899,-160.5001 2059.9898,-164 2069.9898,-167.5001 2069.9899,-160.5001"/>
</g>
<!-- PaginationModule -->
<g id="node5" class="node">
<title>PaginationModule</title>
<polygon fill="#8dd3c7" stroke="#000000" points="3169.9342,-122 3166.9342,-126 3145.9342,-126 3142.9342,-122 3050.0658,-122 3050.0658,-86 3169.9342,-86 3169.9342,-122"/>
<text text-anchor="middle" x="3110" y="-99.8" font-family="Times,serif" font-size="14.00" fill="#000000">PaginationModule</text>
</g>
<!-- PaginationModule&#45;&gt;RebirthNGModule -->
<g id="edge5" class="edge">
<title>PaginationModule&#45;&gt;RebirthNGModule</title>
<path fill="none" stroke="#000000" d="M3089.929,-122.0225C3089.929,-139.3734 3089.929,-163 3089.929,-163 3089.929,-163 2069.9907,-163 2069.9907,-163"/>
<polygon fill="#000000" stroke="#000000" points="2069.9907,-159.5001 2059.9907,-163 2069.9907,-166.5001 2069.9907,-159.5001"/>
</g>
<!-- AlertBoxModule -->
<g id="node6" class="node">
<title>AlertBoxModule</title>
<polygon fill="#8dd3c7" stroke="#000000" points="3031.6499,-122 3028.6499,-126 3007.6499,-126 3004.6499,-122 2920.3501,-122 2920.3501,-86 3031.6499,-86 3031.6499,-122"/>
<text text-anchor="middle" x="2976" y="-99.8" font-family="Times,serif" font-size="14.00" fill="#000000">AlertBoxModule</text>
</g>
<!-- AlertBoxModule&#45;&gt;RebirthNGModule -->
<g id="edge6" class="edge">
<title>AlertBoxModule&#45;&gt;RebirthNGModule</title>
<path fill="none" stroke="#000000" d="M2958.2916,-122.0352C2958.2916,-138.7344 2958.2916,-161 2958.2916,-161 2958.2916,-161 2070.101,-161 2070.101,-161"/>
<polygon fill="#000000" stroke="#000000" points="2070.1011,-157.5001 2060.101,-161 2070.101,-164.5001 2070.1011,-157.5001"/>
</g>
<!-- BadgeModule -->
<g id="node7" class="node">
<title>BadgeModule</title>
<polygon fill="#8dd3c7" stroke="#000000" points="2902.8161,-122 2899.8161,-126 2878.8161,-126 2875.8161,-122 2807.1839,-122 2807.1839,-86 2902.8161,-86 2902.8161,-122"/>
<text text-anchor="middle" x="2855" y="-99.8" font-family="Times,serif" font-size="14.00" fill="#000000">BadgeModule</text>
</g>
<!-- BadgeModule&#45;&gt;RebirthNGModule -->
<g id="edge7" class="edge">
<title>BadgeModule&#45;&gt;RebirthNGModule</title>
<path fill="none" stroke="#000000" d="M2843.7092,-122.027C2843.7092,-138.3976 2843.7092,-160 2843.7092,-160 2843.7092,-160 2070.0892,-160 2070.0892,-160"/>
<polygon fill="#000000" stroke="#000000" points="2070.0892,-156.5001 2060.0892,-160 2070.0892,-163.5001 2070.0892,-156.5001"/>
</g>
<!-- PanelModule -->
<g id="node8" class="node">
<title>PanelModule</title>
<polygon fill="#8dd3c7" stroke="#000000" points="2789.1529,-122 2786.1529,-126 2765.1529,-126 2762.1529,-122 2698.8471,-122 2698.8471,-86 2789.1529,-86 2789.1529,-122"/>
<text text-anchor="middle" x="2744" y="-99.8" font-family="Times,serif" font-size="14.00" fill="#000000">PanelModule</text>
</g>
<!-- PanelModule&#45;&gt;RebirthNGModule -->
<g id="edge8" class="edge">
<title>PanelModule&#45;&gt;RebirthNGModule</title>
<path fill="none" stroke="#000000" d="M2733.3712,-122.2819C2733.3712,-137.9478 2733.3712,-158 2733.3712,-158 2733.3712,-158 2070.0349,-158 2070.0349,-158"/>
<polygon fill="#000000" stroke="#000000" points="2070.0349,-154.5001 2060.0349,-158 2070.0348,-161.5001 2070.0349,-154.5001"/>
</g>
<!-- AccordionModule -->
<g id="node9" class="node">
<title>AccordionModule</title>
<polygon fill="#8dd3c7" stroke="#000000" points="2680.1374,-122 2677.1374,-126 2656.1374,-126 2653.1374,-122 2561.8626,-122 2561.8626,-86 2680.1374,-86 2680.1374,-122"/>
<text text-anchor="middle" x="2621" y="-99.8" font-family="Times,serif" font-size="14.00" fill="#000000">AccordionModule</text>
</g>
<!-- AccordionModule&#45;&gt;RebirthNGModule -->
<g id="edge9" class="edge">
<title>AccordionModule&#45;&gt;RebirthNGModule</title>
<path fill="none" stroke="#000000" d="M2594.6583,-122.2396C2594.6583,-137.5706 2594.6583,-157 2594.6583,-157 2594.6583,-157 2069.9466,-157 2069.9466,-157"/>
<polygon fill="#000000" stroke="#000000" points="2069.9466,-153.5001 2059.9466,-157 2069.9466,-160.5001 2069.9466,-153.5001"/>
</g>
<!-- ActionButtonModule -->
<g id="node10" class="node">
<title>ActionButtonModule</title>
<polygon fill="#8dd3c7" stroke="#000000" points="2543.7702,-122 2540.7702,-126 2519.7702,-126 2516.7702,-122 2408.2298,-122 2408.2298,-86 2543.7702,-86 2543.7702,-122"/>
<text text-anchor="middle" x="2476" y="-99.8" font-family="Times,serif" font-size="14.00" fill="#000000">ActionButtonModule</text>
</g>
<!-- ActionButtonModule&#45;&gt;RebirthNGModule -->
<g id="edge10" class="edge">
<title>ActionButtonModule&#45;&gt;RebirthNGModule</title>
<path fill="none" stroke="#000000" d="M2439.1531,-122.1871C2439.1531,-137.1824 2439.1531,-156 2439.1531,-156 2439.1531,-156 2070.2014,-156 2070.2014,-156"/>
<polygon fill="#000000" stroke="#000000" points="2070.2014,-152.5001 2060.2014,-156 2070.2014,-159.5001 2070.2014,-152.5001"/>
</g>
<!-- RatingModule -->
<g id="node11" class="node">
<title>RatingModule</title>
<polygon fill="#8dd3c7" stroke="#000000" points="2390.3823,-122 2387.3823,-126 2366.3823,-126 2363.3823,-122 2293.6177,-122 2293.6177,-86 2390.3823,-86 2390.3823,-122"/>
<text text-anchor="middle" x="2342" y="-99.8" font-family="Times,serif" font-size="14.00" fill="#000000">RatingModule</text>
</g>
<!-- RatingModule&#45;&gt;RebirthNGModule -->
<g id="edge11" class="edge">
<title>RatingModule&#45;&gt;RebirthNGModule</title>
<path fill="none" stroke="#000000" d="M2322.8449,-122.0511C2322.8449,-136.373 2322.8449,-154 2322.8449,-154 2322.8449,-154 2069.9127,-154 2069.9127,-154"/>
<polygon fill="#000000" stroke="#000000" points="2069.9128,-150.5001 2059.9127,-154 2069.9127,-157.5001 2069.9128,-150.5001"/>
</g>
<!-- TabsModule -->
<g id="node12" class="node">
<title>TabsModule</title>
<polygon fill="#8dd3c7" stroke="#000000" points="2275.2619,-122 2272.2619,-126 2251.2619,-126 2248.2619,-122 2188.7381,-122 2188.7381,-86 2275.2619,-86 2275.2619,-122"/>
<text text-anchor="middle" x="2232" y="-99.8" font-family="Times,serif" font-size="14.00" fill="#000000">TabsModule</text>
</g>
<!-- TabsModule&#45;&gt;RebirthNGModule -->
<g id="edge12" class="edge">
<title>TabsModule&#45;&gt;RebirthNGModule</title>
<path fill="none" stroke="#000000" d="M2216.3782,-122.2458C2216.3782,-136.1772 2216.3782,-153 2216.3782,-153 2216.3782,-153 2069.841,-153 2069.841,-153"/>
<polygon fill="#000000" stroke="#000000" points="2069.841,-149.5001 2059.841,-153 2069.841,-156.5001 2069.841,-149.5001"/>
</g>
<!-- TooltipModule -->
<g id="node13" class="node">
<title>TooltipModule</title>
<polygon fill="#8dd3c7" stroke="#000000" points="2170.2745,-122 2167.2745,-126 2146.2745,-126 2143.2745,-122 2069.7255,-122 2069.7255,-86 2170.2745,-86 2170.2745,-122"/>
<text text-anchor="middle" x="2120" y="-99.8" font-family="Times,serif" font-size="14.00" fill="#000000">TooltipModule</text>
</g>
<!-- TooltipModule&#45;&gt;RebirthNGModule -->
<g id="edge13" class="edge">
<title>TooltipModule&#45;&gt;RebirthNGModule</title>
<path fill="none" stroke="#000000" d="M2069.5656,-104C2061.6323,-104 2055.9909,-104 2055.9909,-104 2055.9909,-104 2055.9909,-140.8939 2055.9909,-140.8939"/>
<polygon fill="#000000" stroke="#000000" points="2052.491,-140.8938 2055.9909,-150.8939 2059.491,-140.8939 2052.491,-140.8938"/>
</g>
<!-- PopoverModule -->
<g id="node14" class="node">
<title>PopoverModule</title>
<polygon fill="#8dd3c7" stroke="#000000" points="2052.2078,-122 2049.2078,-126 2028.2078,-126 2025.2078,-122 1945.7922,-122 1945.7922,-86 2052.2078,-86 2052.2078,-122"/>
<text text-anchor="middle" x="1999" y="-99.8" font-family="Times,serif" font-size="14.00" fill="#000000">PopoverModule</text>
</g>
<!-- PopoverModule&#45;&gt;RebirthNGModule -->
<g id="edge14" class="edge">
<title>PopoverModule&#45;&gt;RebirthNGModule</title>
<path fill="none" stroke="#000000" d="M1999,-122.1061C1999,-122.1061 1999,-140.991 1999,-140.991"/>
<polygon fill="#000000" stroke="#000000" points="1995.5001,-140.9909 1999,-150.991 2002.5001,-140.991 1995.5001,-140.9909"/>
</g>
<!-- DatePickerModule -->
<g id="node15" class="node">
<title>DatePickerModule</title>
<polygon fill="#8dd3c7" stroke="#000000" points="1927.7395,-122 1924.7395,-126 1903.7395,-126 1900.7395,-122 1806.2605,-122 1806.2605,-86 1927.7395,-86 1927.7395,-122"/>
<text text-anchor="middle" x="1867" y="-99.8" font-family="Times,serif" font-size="14.00" fill="#000000">DatePickerModule</text>
</g>
<!-- DatePickerModule&#45;&gt;RebirthNGModule -->
<g id="edge15" class="edge">
<title>DatePickerModule&#45;&gt;RebirthNGModule</title>
<path fill="none" stroke="#000000" d="M1927.9005,-104C1936.2394,-104 1942.0091,-104 1942.0091,-104 1942.0091,-104 1942.0091,-140.8939 1942.0091,-140.8939"/>
<polygon fill="#000000" stroke="#000000" points="1938.5092,-140.8938 1942.0091,-150.8939 1945.5092,-140.8939 1938.5092,-140.8938"/>
</g>
<!-- BreadcrumbsModule -->
<g id="node16" class="node">
<title>BreadcrumbsModule</title>
<polygon fill="#8dd3c7" stroke="#000000" points="1788.1867,-122 1785.1867,-126 1764.1867,-126 1761.1867,-122 1653.8133,-122 1653.8133,-86 1788.1867,-86 1788.1867,-122"/>
<text text-anchor="middle" x="1721" y="-99.8" font-family="Times,serif" font-size="14.00" fill="#000000">BreadcrumbsModule</text>
</g>
<!-- BreadcrumbsModule&#45;&gt;RebirthNGModule -->
<g id="edge16" class="edge">
<title>BreadcrumbsModule&#45;&gt;RebirthNGModule</title>
<path fill="none" stroke="#000000" d="M1751.125,-122.2458C1751.125,-136.1772 1751.125,-153 1751.125,-153 1751.125,-153 1928.0455,-153 1928.0455,-153"/>
<polygon fill="#000000" stroke="#000000" points="1928.0455,-156.5001 1938.0455,-153 1928.0454,-149.5001 1928.0455,-156.5001"/>
</g>
<!-- ProgressBarModule -->
<g id="node17" class="node">
<title>ProgressBarModule</title>
<polygon fill="#8dd3c7" stroke="#000000" points="1635.9692,-122 1632.9692,-126 1611.9692,-126 1608.9692,-122 1508.0308,-122 1508.0308,-86 1635.9692,-86 1635.9692,-122"/>
<text text-anchor="middle" x="1572" y="-99.8" font-family="Times,serif" font-size="14.00" fill="#000000">ProgressBarModule</text>
</g>
<!-- ProgressBarModule&#45;&gt;RebirthNGModule -->
<g id="edge17" class="edge">
<title>ProgressBarModule&#45;&gt;RebirthNGModule</title>
<path fill="none" stroke="#000000" d="M1600.125,-122.0511C1600.125,-136.373 1600.125,-154 1600.125,-154 1600.125,-154 1927.9853,-154 1927.9853,-154"/>
<polygon fill="#000000" stroke="#000000" points="1927.9853,-157.5001 1937.9853,-154 1927.9852,-150.5001 1927.9853,-157.5001"/>
</g>
<!-- SelectButtonModule -->
<g id="node18" class="node">
<title>SelectButtonModule</title>
<polygon fill="#8dd3c7" stroke="#000000" points="1489.8753,-122 1486.8753,-126 1465.8753,-126 1462.8753,-122 1358.1247,-122 1358.1247,-86 1489.8753,-86 1489.8753,-122"/>
<text text-anchor="middle" x="1424" y="-99.8" font-family="Times,serif" font-size="14.00" fill="#000000">SelectButtonModule</text>
</g>
<!-- SelectButtonModule&#45;&gt;RebirthNGModule -->
<g id="edge18" class="edge">
<title>SelectButtonModule&#45;&gt;RebirthNGModule</title>
<path fill="none" stroke="#000000" d="M1450.625,-122.1871C1450.625,-137.1824 1450.625,-156 1450.625,-156 1450.625,-156 1928.2191,-156 1928.2191,-156"/>
<polygon fill="#000000" stroke="#000000" points="1928.2191,-159.5001 1938.2191,-156 1928.219,-152.5001 1928.2191,-159.5001"/>
</g>
<!-- OverlayModule -->
<g id="node19" class="node">
<title>OverlayModule</title>
<polygon fill="#8dd3c7" stroke="#000000" points="1340.1374,-122 1337.1374,-126 1316.1374,-126 1313.1374,-122 1235.8626,-122 1235.8626,-86 1340.1374,-86 1340.1374,-122"/>
<text text-anchor="middle" x="1288" y="-99.8" font-family="Times,serif" font-size="14.00" fill="#000000">OverlayModule</text>
</g>
<!-- OverlayModule&#45;&gt;RebirthNGModule -->
<g id="edge19" class="edge">
<title>OverlayModule&#45;&gt;RebirthNGModule</title>
<path fill="none" stroke="#000000" d="M1312.625,-122.2396C1312.625,-137.5706 1312.625,-157 1312.625,-157 1312.625,-157 1928.0888,-157 1928.0888,-157"/>
<polygon fill="#000000" stroke="#000000" points="1928.0888,-160.5001 1938.0888,-157 1928.0888,-153.5001 1928.0888,-160.5001"/>
</g>
<!-- CarouselModule -->
<g id="node20" class="node">
<title>CarouselModule</title>
<polygon fill="#8dd3c7" stroke="#000000" points="1217.8118,-122 1214.8118,-126 1193.8118,-126 1190.8118,-122 1108.1882,-122 1108.1882,-86 1217.8118,-86 1217.8118,-122"/>
<text text-anchor="middle" x="1163" y="-99.8" font-family="Times,serif" font-size="14.00" fill="#000000">CarouselModule</text>
</g>
<!-- CarouselModule&#45;&gt;RebirthNGModule -->
<g id="edge20" class="edge">
<title>CarouselModule&#45;&gt;RebirthNGModule</title>
<path fill="none" stroke="#000000" d="M1186.125,-122.2819C1186.125,-137.9478 1186.125,-158 1186.125,-158 1186.125,-158 1928.2347,-158 1928.2347,-158"/>
<polygon fill="#000000" stroke="#000000" points="1928.2347,-161.5001 1938.2347,-158 1928.2347,-154.5001 1928.2347,-161.5001"/>
</g>
<!-- SwitchModule -->
<g id="node21" class="node">
<title>SwitchModule</title>
<polygon fill="#8dd3c7" stroke="#000000" points="1090.4358,-122 1087.4358,-126 1066.4358,-126 1063.4358,-122 991.5642,-122 991.5642,-86 1090.4358,-86 1090.4358,-122"/>
<text text-anchor="middle" x="1041" y="-99.8" font-family="Times,serif" font-size="14.00" fill="#000000">SwitchModule</text>
</g>
<!-- SwitchModule&#45;&gt;RebirthNGModule -->
<g id="edge21" class="edge">
<title>SwitchModule&#45;&gt;RebirthNGModule</title>
<path fill="none" stroke="#000000" d="M1062.625,-122.027C1062.625,-138.3976 1062.625,-160 1062.625,-160 1062.625,-160 1927.923,-160 1927.923,-160"/>
<polygon fill="#000000" stroke="#000000" points="1927.9231,-163.5001 1937.923,-160 1927.923,-156.5001 1927.9231,-163.5001"/>
</g>
<!-- MenuBarModule -->
<g id="node22" class="node">
<title>MenuBarModule</title>
<polygon fill="#8dd3c7" stroke="#000000" points="974.4216,-122 971.4216,-126 950.4216,-126 947.4216,-122 861.5784,-122 861.5784,-86 974.4216,-86 974.4216,-122"/>
<text text-anchor="middle" x="918" y="-99.8" font-family="Times,serif" font-size="14.00" fill="#000000">MenuBarModule</text>
</g>
<!-- MenuBarModule&#45;&gt;RebirthNGModule -->
<g id="edge22" class="edge">
<title>MenuBarModule&#45;&gt;RebirthNGModule</title>
<path fill="none" stroke="#000000" d="M937.625,-122.0352C937.625,-138.7344 937.625,-161 937.625,-161 937.625,-161 1928.1237,-161 1928.1237,-161"/>
<polygon fill="#000000" stroke="#000000" points="1928.1238,-164.5001 1938.1237,-161 1928.1237,-157.5001 1928.1238,-164.5001"/>
</g>
<!-- AutoCompleteModule -->
<g id="node23" class="node">
<title>AutoCompleteModule</title>
<polygon fill="#8dd3c7" stroke="#000000" points="843.9846,-122 840.9846,-126 819.9846,-126 816.9846,-122 702.0154,-122 702.0154,-86 843.9846,-86 843.9846,-122"/>
<text text-anchor="middle" x="773" y="-99.8" font-family="Times,serif" font-size="14.00" fill="#000000">AutoCompleteModule</text>
</g>
<!-- AutoCompleteModule&#45;&gt;RebirthNGModule -->
<g id="edge23" class="edge">
<title>AutoCompleteModule&#45;&gt;RebirthNGModule</title>
<path fill="none" stroke="#000000" d="M790.625,-122.0225C790.625,-139.3734 790.625,-163 790.625,-163 790.625,-163 1927.8324,-163 1927.8324,-163"/>
<polygon fill="#000000" stroke="#000000" points="1927.8325,-166.5001 1937.8324,-163 1927.8324,-159.5001 1927.8325,-166.5001"/>
</g>
<!-- FlowStepModule -->
<g id="node24" class="node">
<title>FlowStepModule</title>
<polygon fill="#8dd3c7" stroke="#000000" points="683.7176,-122 680.7176,-126 659.7176,-126 656.7176,-122 570.2824,-122 570.2824,-86 683.7176,-86 683.7176,-122"/>
<text text-anchor="middle" x="627" y="-99.8" font-family="Times,serif" font-size="14.00" fill="#000000">FlowStepModule</text>
</g>
<!-- FlowStepModule&#45;&gt;RebirthNGModule -->
<g id="edge24" class="edge">
<title>FlowStepModule&#45;&gt;RebirthNGModule</title>
<path fill="none" stroke="#000000" d="M643.125,-122.002C643.125,-139.6754 643.125,-164 643.125,-164 643.125,-164 1928.1068,-164 1928.1068,-164"/>
<polygon fill="#000000" stroke="#000000" points="1928.1068,-167.5001 1938.1068,-164 1928.1068,-160.5001 1928.1068,-167.5001"/>
</g>
<!-- InfiniteScrollModule -->
<g id="node25" class="node">
<title>InfiniteScrollModule</title>
<polygon fill="#8dd3c7" stroke="#000000" points="552.1965,-122 549.1965,-126 528.1965,-126 525.1965,-122 417.8035,-122 417.8035,-86 552.1965,-86 552.1965,-122"/>
<text text-anchor="middle" x="485" y="-99.8" font-family="Times,serif" font-size="14.00" fill="#000000">InfiniteScrollModule</text>
</g>
<!-- InfiniteScrollModule&#45;&gt;RebirthNGModule -->
<g id="edge25" class="edge">
<title>InfiniteScrollModule&#45;&gt;RebirthNGModule</title>
<path fill="none" stroke="#000000" d="M499.625,-122.302C499.625,-140.2699 499.625,-165 499.625,-165 499.625,-165 1927.8974,-165 1927.8974,-165"/>
<polygon fill="#000000" stroke="#000000" points="1927.8974,-168.5001 1937.8974,-165 1927.8973,-161.5001 1927.8974,-168.5001"/>
</g>
<!-- DataTableModule -->
<g id="node26" class="node">
<title>DataTableModule</title>
<polygon fill="#8dd3c7" stroke="#000000" points="399.8487,-122 396.8487,-126 375.8487,-126 372.8487,-122 282.1513,-122 282.1513,-86 399.8487,-86 399.8487,-122"/>
<text text-anchor="middle" x="341" y="-99.8" font-family="Times,serif" font-size="14.00" fill="#000000">DataTableModule</text>
</g>
<!-- DataTableModule&#45;&gt;RebirthNGModule -->
<g id="edge26" class="edge">
<title>DataTableModule&#45;&gt;RebirthNGModule</title>
<path fill="none" stroke="#000000" d="M353.625,-122.2222C353.625,-140.8285 353.625,-167 353.625,-167 353.625,-167 1927.9965,-167 1927.9965,-167"/>
<polygon fill="#000000" stroke="#000000" points="1927.9965,-170.5001 1937.9965,-167 1927.9965,-163.5001 1927.9965,-170.5001"/>
</g>
<!-- FileUploadModule -->
<g id="node27" class="node">
<title>FileUploadModule</title>
<polygon fill="#8dd3c7" stroke="#000000" points="264.0409,-122 261.0409,-126 240.0409,-126 237.0409,-122 141.9591,-122 141.9591,-86 264.0409,-86 264.0409,-122"/>
<text text-anchor="middle" x="203" y="-99.8" font-family="Times,serif" font-size="14.00" fill="#000000">FileUploadModule</text>
</g>
<!-- FileUploadModule&#45;&gt;RebirthNGModule -->
<g id="edge27" class="edge">
<title>FileUploadModule&#45;&gt;RebirthNGModule</title>
<path fill="none" stroke="#000000" d="M216.2972,-122.1686C216.2972,-141.0898 216.2972,-168 216.2971,-168 216.2971,-168 1928.1511,-168 1928.1511,-168"/>
<polygon fill="#000000" stroke="#000000" points="1928.1511,-171.5001 1938.1511,-168 1928.151,-164.5001 1928.1511,-171.5001"/>
</g>
<!-- RebirthCommonModule  -->
<g id="node29" class="node">
<title>RebirthCommonModule </title>
<polygon fill="#fb8072" stroke="#000000" points="3794.6607,-252 3637.3393,-252 3637.3393,-216 3794.6607,-216 3794.6607,-252"/>
<text text-anchor="middle" x="3716" y="-229.8" font-family="Times,serif" font-size="14.00" fill="#000000">RebirthCommonModule </text>
</g>
<!-- RebirthNGModule&#45;&gt;RebirthCommonModule  -->
<g id="edge28" class="edge">
<title>RebirthNGModule&#45;&gt;RebirthCommonModule </title>
<path fill="none" stroke="#000000" stroke-dasharray="5,2" d="M2060.0536,-169C2359.5622,-169 3659.125,-169 3659.125,-169 3659.125,-169 3659.125,-205.8939 3659.125,-205.8939"/>
<polygon fill="#000000" stroke="#000000" points="3655.6251,-205.8938 3659.125,-215.8939 3662.6251,-205.8939 3655.6251,-205.8938"/>
</g>
<!-- ModalModule  -->
<g id="node30" class="node">
<title>ModalModule </title>
<polygon fill="#fb8072" stroke="#000000" points="3619.6004,-252 3520.3996,-252 3520.3996,-216 3619.6004,-216 3619.6004,-252"/>
<text text-anchor="middle" x="3570" y="-229.8" font-family="Times,serif" font-size="14.00" fill="#000000">ModalModule </text>
</g>
<!-- RebirthNGModule&#45;&gt;ModalModule  -->
<g id="edge29" class="edge">
<title>RebirthNGModule&#45;&gt;ModalModule </title>
<path fill="none" stroke="#000000" stroke-dasharray="5,2" d="M2059.8682,-171C2351.1743,-171 3588.9231,-171 3588.9231,-171 3588.9231,-171 3588.9231,-205.7778 3588.9231,-205.7778"/>
<polygon fill="#000000" stroke="#000000" points="3585.4232,-205.7778 3588.9231,-215.7778 3592.4232,-205.7778 3585.4232,-205.7778"/>
</g>
<!-- DialogModule  -->
<g id="node31" class="node">
<title>DialogModule </title>
<polygon fill="#fb8072" stroke="#000000" points="3502.6523,-252 3401.3477,-252 3401.3477,-216 3502.6523,-216 3502.6523,-252"/>
<text text-anchor="middle" x="3452" y="-229.8" font-family="Times,serif" font-size="14.00" fill="#000000">DialogModule </text>
</g>
<!-- RebirthNGModule&#45;&gt;DialogModule  -->
<g id="edge30" class="edge">
<title>RebirthNGModule&#45;&gt;DialogModule </title>
<path fill="none" stroke="#000000" stroke-dasharray="5,2" d="M2059.96,-172C2330.2468,-172 3407.1871,-172 3407.1871,-172 3407.1871,-172 3407.1871,-205.7333 3407.1871,-205.7333"/>
<polygon fill="#000000" stroke="#000000" points="3403.6871,-205.7333 3407.1871,-215.7333 3410.6871,-205.7333 3403.6871,-205.7333"/>
</g>
<!-- PagerModule  -->
<g id="node32" class="node">
<title>PagerModule </title>
<polygon fill="#fb8072" stroke="#000000" points="3383.4222,-252 3288.5778,-252 3288.5778,-216 3383.4222,-216 3383.4222,-252"/>
<text text-anchor="middle" x="3336" y="-229.8" font-family="Times,serif" font-size="14.00" fill="#000000">PagerModule </text>
</g>
<!-- RebirthNGModule&#45;&gt;PagerModule  -->
<g id="edge31" class="edge">
<title>RebirthNGModule&#45;&gt;PagerModule </title>
<path fill="none" stroke="#000000" stroke-dasharray="5,2" d="M2060.1018,-174C2316.5681,-174 3292.8564,-174 3292.8564,-174 3292.8564,-174 3292.8564,-205.998 3292.8564,-205.998"/>
<polygon fill="#000000" stroke="#000000" points="3289.3565,-205.998 3292.8564,-215.998 3296.3565,-205.9981 3289.3565,-205.998"/>
</g>
<!-- PaginationModule  -->
<g id="node33" class="node">
<title>PaginationModule </title>
<polygon fill="#fb8072" stroke="#000000" points="3270.4334,-252 3147.5666,-252 3147.5666,-216 3270.4334,-216 3270.4334,-252"/>
<text text-anchor="middle" x="3209" y="-229.8" font-family="Times,serif" font-size="14.00" fill="#000000">PaginationModule </text>
</g>
<!-- RebirthNGModule&#45;&gt;PaginationModule  -->
<g id="edge32" class="edge">
<title>RebirthNGModule&#45;&gt;PaginationModule </title>
<path fill="none" stroke="#000000" stroke-dasharray="5,2" d="M2060.1201,-175C2299.2904,-175 3158.625,-175 3158.625,-175 3158.625,-175 3158.625,-205.9775 3158.625,-205.9775"/>
<polygon fill="#000000" stroke="#000000" points="3155.1251,-205.9774 3158.625,-215.9775 3162.1251,-205.9775 3155.1251,-205.9774"/>
</g>
<!-- AlertBoxModule  -->
<g id="node34" class="node">
<title>AlertBoxModule </title>
<polygon fill="#fb8072" stroke="#000000" points="3129.6495,-252 3014.3505,-252 3014.3505,-216 3129.6495,-216 3129.6495,-252"/>
<text text-anchor="middle" x="3072" y="-229.8" font-family="Times,serif" font-size="14.00" fill="#000000">AlertBoxModule </text>
</g>
<!-- RebirthNGModule&#45;&gt;AlertBoxModule  -->
<g id="edge33" class="edge">
<title>RebirthNGModule&#45;&gt;AlertBoxModule </title>
<path fill="none" stroke="#000000" stroke-dasharray="5,2" d="M2059.9967,-176C2280.4719,-176 3023.125,-176 3023.125,-176 3023.125,-176 3023.125,-205.9664 3023.125,-205.9664"/>
<polygon fill="#000000" stroke="#000000" points="3019.6251,-205.9663 3023.125,-215.9664 3026.6251,-205.9664 3019.6251,-205.9663"/>
</g>
<!-- BadgeModule  -->
<g id="node35" class="node">
<title>BadgeModule </title>
<polygon fill="#fb8072" stroke="#000000" points="2996.3158,-252 2897.6842,-252 2897.6842,-216 2996.3158,-216 2996.3158,-252"/>
<text text-anchor="middle" x="2947" y="-229.8" font-family="Times,serif" font-size="14.00" fill="#000000">BadgeModule </text>
</g>
<!-- RebirthNGModule&#45;&gt;BadgeModule  -->
<g id="edge34" class="edge">
<title>RebirthNGModule&#45;&gt;BadgeModule </title>
<path fill="none" stroke="#000000" stroke-dasharray="5,2" d="M2059.9275,-178C2264.1078,-178 2911.4166,-178 2911.4166,-178 2911.4166,-178 2911.4166,-205.973 2911.4166,-205.973"/>
<polygon fill="#000000" stroke="#000000" points="2907.9166,-205.973 2911.4166,-215.973 2914.9166,-205.973 2907.9166,-205.973"/>
</g>
<!-- PanelModule  -->
<g id="node36" class="node">
<title>PanelModule </title>
<polygon fill="#fb8072" stroke="#000000" points="2880.1523,-252 2785.8477,-252 2785.8477,-216 2880.1523,-216 2880.1523,-252"/>
<text text-anchor="middle" x="2833" y="-229.8" font-family="Times,serif" font-size="14.00" fill="#000000">PanelModule </text>
</g>
<!-- RebirthNGModule&#45;&gt;PanelModule  -->
<g id="edge35" class="edge">
<title>RebirthNGModule&#45;&gt;PanelModule </title>
<path fill="none" stroke="#000000" stroke-dasharray="5,2" d="M2060.0652,-179C2246.921,-179 2798.3342,-179 2798.3342,-179 2798.3342,-179 2798.3342,-205.9909 2798.3342,-205.9909"/>
<polygon fill="#000000" stroke="#000000" points="2794.8342,-205.9909 2798.3342,-215.9909 2801.8342,-205.991 2794.8342,-205.9909"/>
</g>
<!-- AccordionModule  -->
<g id="node37" class="node">
<title>AccordionModule </title>
<polygon fill="#fb8072" stroke="#000000" points="2768.1369,-252 2645.8631,-252 2645.8631,-216 2768.1369,-216 2768.1369,-252"/>
<text text-anchor="middle" x="2707" y="-229.8" font-family="Times,serif" font-size="14.00" fill="#000000">AccordionModule </text>
</g>
<!-- RebirthNGModule&#45;&gt;AccordionModule  -->
<g id="edge36" class="edge">
<title>RebirthNGModule&#45;&gt;AccordionModule </title>
<path fill="none" stroke="#000000" stroke-dasharray="5,2" d="M2059.9928,-181C2224.1716,-181 2663.125,-181 2663.125,-181 2663.125,-181 2663.125,-205.7604 2663.125,-205.7604"/>
<polygon fill="#000000" stroke="#000000" points="2659.6251,-205.7604 2663.125,-215.7604 2666.6251,-205.7604 2659.6251,-205.7604"/>
</g>
<!-- ActionButtonModule  -->
<g id="node38" class="node">
<title>ActionButtonModule </title>
<polygon fill="#fb8072" stroke="#000000" points="2627.7703,-252 2488.2297,-252 2488.2297,-216 2627.7703,-216 2627.7703,-252"/>
<text text-anchor="middle" x="2558" y="-229.8" font-family="Times,serif" font-size="14.00" fill="#000000">ActionButtonModule </text>
</g>
<!-- RebirthNGModule&#45;&gt;ActionButtonModule  -->
<g id="edge37" class="edge">
<title>RebirthNGModule&#45;&gt;ActionButtonModule </title>
<path fill="none" stroke="#000000" stroke-dasharray="5,2" d="M2059.8415,-182C2196.5393,-182 2516.125,-182 2516.125,-182 2516.125,-182 2516.125,-205.8129 2516.125,-205.8129"/>
<polygon fill="#000000" stroke="#000000" points="2512.6251,-205.8129 2516.125,-215.8129 2519.6251,-205.813 2512.6251,-205.8129"/>
</g>
<!-- RatingModule  -->
<g id="node39" class="node">
<title>RatingModule </title>
<polygon fill="#fb8072" stroke="#000000" points="2470.3829,-252 2369.6171,-252 2369.6171,-216 2470.3829,-216 2470.3829,-252"/>
<text text-anchor="middle" x="2420" y="-229.8" font-family="Times,serif" font-size="14.00" fill="#000000">RatingModule </text>
</g>
<!-- RebirthNGModule&#45;&gt;RatingModule  -->
<g id="edge38" class="edge">
<title>RebirthNGModule&#45;&gt;RatingModule </title>
<path fill="none" stroke="#000000" stroke-dasharray="5,2" d="M2059.8118,-183C2167.4138,-183 2380.125,-183 2380.125,-183 2380.125,-183 2380.125,-205.8757 2380.125,-205.8757"/>
<polygon fill="#000000" stroke="#000000" points="2376.6251,-205.8757 2380.125,-215.8757 2383.6251,-205.8757 2376.6251,-205.8757"/>
</g>
<!-- TabsModule  -->
<g id="node40" class="node">
<title>TabsModule </title>
<polygon fill="#fb8072" stroke="#000000" points="2352.262,-252 2261.738,-252 2261.738,-216 2352.262,-216 2352.262,-252"/>
<text text-anchor="middle" x="2307" y="-229.8" font-family="Times,serif" font-size="14.00" fill="#000000">TabsModule </text>
</g>
<!-- RebirthNGModule&#45;&gt;TabsModule  -->
<g id="edge39" class="edge">
<title>RebirthNGModule&#45;&gt;TabsModule </title>
<path fill="none" stroke="#000000" stroke-dasharray="5,2" d="M2059.8453,-185C2139.3684,-185 2268.625,-185 2268.625,-185 2268.625,-185 2268.625,-205.7542 2268.625,-205.7542"/>
<polygon fill="#000000" stroke="#000000" points="2265.1251,-205.7542 2268.625,-215.7542 2272.1251,-205.7542 2265.1251,-205.7542"/>
</g>
<!-- TooltipModule  -->
<g id="node41" class="node">
<title>TooltipModule </title>
<polygon fill="#fb8072" stroke="#000000" points="2244.2746,-252 2139.7254,-252 2139.7254,-216 2244.2746,-216 2244.2746,-252"/>
<text text-anchor="middle" x="2192" y="-229.8" font-family="Times,serif" font-size="14.00" fill="#000000">TooltipModule </text>
</g>
<!-- RebirthNGModule&#45;&gt;TooltipModule  -->
<g id="edge40" class="edge">
<title>RebirthNGModule&#45;&gt;TooltipModule </title>
<path fill="none" stroke="#000000" stroke-dasharray="5,2" d="M2059.8091,-186C2103.6463,-186 2155.125,-186 2155.125,-186 2155.125,-186 2155.125,-205.8533 2155.125,-205.8533"/>
<polygon fill="#000000" stroke="#000000" points="2151.6251,-205.8532 2155.125,-215.8533 2158.6251,-205.8533 2151.6251,-205.8532"/>
</g>
<!-- PopoverModule  -->
<g id="node42" class="node">
<title>PopoverModule </title>
<polygon fill="#fb8072" stroke="#000000" points="2121.708,-252 2012.292,-252 2012.292,-216 2121.708,-216 2121.708,-252"/>
<text text-anchor="middle" x="2067" y="-229.8" font-family="Times,serif" font-size="14.00" fill="#000000">PopoverModule </text>
</g>
<!-- RebirthNGModule&#45;&gt;PopoverModule  -->
<g id="edge41" class="edge">
<title>RebirthNGModule&#45;&gt;PopoverModule </title>
<path fill="none" stroke="#000000" stroke-dasharray="5,2" d="M2036.0121,-187.1061C2036.0121,-187.1061 2036.0121,-205.991 2036.0121,-205.991"/>
<polygon fill="#000000" stroke="#000000" points="2032.5122,-205.9909 2036.0121,-215.991 2039.5122,-205.991 2032.5122,-205.9909"/>
</g>
<!-- DatePickerModule  -->
<g id="node43" class="node">
<title>DatePickerModule </title>
<polygon fill="#fb8072" stroke="#000000" points="1994.7394,-252 1869.2606,-252 1869.2606,-216 1994.7394,-216 1994.7394,-252"/>
<text text-anchor="middle" x="1932" y="-229.8" font-family="Times,serif" font-size="14.00" fill="#000000">DatePickerModule </text>
</g>
<!-- RebirthNGModule&#45;&gt;DatePickerModule  -->
<g id="edge42" class="edge">
<title>RebirthNGModule&#45;&gt;DatePickerModule </title>
<path fill="none" stroke="#000000" stroke-dasharray="5,2" d="M1966.3708,-187.1061C1966.3708,-187.1061 1966.3708,-205.991 1966.3708,-205.991"/>
<polygon fill="#000000" stroke="#000000" points="1962.8709,-205.9909 1966.3708,-215.991 1969.8709,-205.991 1962.8709,-205.9909"/>
</g>
<!-- BreadcrumbsModule  -->
<g id="node44" class="node">
<title>BreadcrumbsModule </title>
<polygon fill="#fb8072" stroke="#000000" points="1851.687,-252 1714.313,-252 1714.313,-216 1851.687,-216 1851.687,-252"/>
<text text-anchor="middle" x="1783" y="-229.8" font-family="Times,serif" font-size="14.00" fill="#000000">BreadcrumbsModule </text>
</g>
<!-- RebirthNGModule&#45;&gt;BreadcrumbsModule  -->
<g id="edge43" class="edge">
<title>RebirthNGModule&#45;&gt;BreadcrumbsModule </title>
<path fill="none" stroke="#000000" stroke-dasharray="5,2" d="M1938.1016,-186C1889.3181,-186 1828.9869,-186 1828.9869,-186 1828.9869,-186 1828.9869,-205.8533 1828.9869,-205.8533"/>
<polygon fill="#000000" stroke="#000000" points="1825.4869,-205.8532 1828.9869,-215.8533 1832.4869,-205.8533 1825.4869,-205.8532"/>
</g>
<!-- ProgressBarModule  -->
<g id="node45" class="node">
<title>ProgressBarModule </title>
<polygon fill="#fb8072" stroke="#000000" points="1695.97,-252 1564.03,-252 1564.03,-216 1695.97,-216 1695.97,-252"/>
<text text-anchor="middle" x="1630" y="-229.8" font-family="Times,serif" font-size="14.00" fill="#000000">ProgressBarModule </text>
</g>
<!-- RebirthNGModule&#45;&gt;ProgressBarModule  -->
<g id="edge44" class="edge">
<title>RebirthNGModule&#45;&gt;ProgressBarModule </title>
<path fill="none" stroke="#000000" stroke-dasharray="5,2" d="M1938.0243,-185C1844.1175,-185 1674.8207,-185 1674.8207,-185 1674.8207,-185 1674.8207,-205.7542 1674.8207,-205.7542"/>
<polygon fill="#000000" stroke="#000000" points="1671.3207,-205.7542 1674.8207,-215.7542 1678.3207,-205.7542 1671.3207,-205.7542"/>
</g>
<!-- SelectButtonModule  -->
<g id="node46" class="node">
<title>SelectButtonModule </title>
<polygon fill="#fb8072" stroke="#000000" points="1546.8757,-252 1411.1243,-252 1411.1243,-216 1546.8757,-216 1546.8757,-252"/>
<text text-anchor="middle" x="1479" y="-229.8" font-family="Times,serif" font-size="14.00" fill="#000000">SelectButtonModule </text>
</g>
<!-- RebirthNGModule&#45;&gt;SelectButtonModule  -->
<g id="edge45" class="edge">
<title>RebirthNGModule&#45;&gt;SelectButtonModule </title>
<path fill="none" stroke="#000000" stroke-dasharray="5,2" d="M1937.8237,-183C1810.2072,-183 1527.3515,-183 1527.3515,-183 1527.3515,-183 1527.3515,-205.8757 1527.3515,-205.8757"/>
<polygon fill="#000000" stroke="#000000" points="1523.8516,-205.8757 1527.3515,-215.8757 1530.8516,-205.8757 1523.8516,-205.8757"/>
</g>
<!-- OverlayModule  -->
<g id="node47" class="node">
<title>OverlayModule </title>
<polygon fill="#fb8072" stroke="#000000" points="1393.1369,-252 1284.8631,-252 1284.8631,-216 1393.1369,-216 1393.1369,-252"/>
<text text-anchor="middle" x="1339" y="-229.8" font-family="Times,serif" font-size="14.00" fill="#000000">OverlayModule </text>
</g>
<!-- RebirthNGModule&#45;&gt;OverlayModule  -->
<g id="edge46" class="edge">
<title>RebirthNGModule&#45;&gt;OverlayModule </title>
<path fill="none" stroke="#000000" stroke-dasharray="5,2" d="M1938.0873,-182C1781.215,-182 1375.5654,-182 1375.5654,-182 1375.5654,-182 1375.5654,-205.8129 1375.5654,-205.8129"/>
<polygon fill="#000000" stroke="#000000" points="1372.0655,-205.8129 1375.5654,-215.8129 1379.0655,-205.813 1372.0655,-205.8129"/>
</g>
<!-- CarouselModule  -->
<g id="node48" class="node">
<title>CarouselModule </title>
<polygon fill="#fb8072" stroke="#000000" points="1267.3116,-252 1154.6884,-252 1154.6884,-216 1267.3116,-216 1267.3116,-252"/>
<text text-anchor="middle" x="1211" y="-229.8" font-family="Times,serif" font-size="14.00" fill="#000000">CarouselModule </text>
</g>
<!-- RebirthNGModule&#45;&gt;CarouselModule  -->
<g id="edge47" class="edge">
<title>RebirthNGModule&#45;&gt;CarouselModule </title>
<path fill="none" stroke="#000000" stroke-dasharray="5,2" d="M1938.1494,-181C1759.9199,-181 1251.5437,-181 1251.5437,-181 1251.5437,-181 1251.5437,-205.7604 1251.5437,-205.7604"/>
<polygon fill="#000000" stroke="#000000" points="1248.0437,-205.7604 1251.5437,-215.7604 1255.0437,-205.7604 1248.0437,-205.7604"/>
</g>
<!-- SwitchModule  -->
<g id="node49" class="node">
<title>SwitchModule </title>
<polygon fill="#fb8072" stroke="#000000" points="1136.9348,-252 1035.0652,-252 1035.0652,-216 1136.9348,-216 1136.9348,-252"/>
<text text-anchor="middle" x="1086" y="-229.8" font-family="Times,serif" font-size="14.00" fill="#000000">SwitchModule </text>
</g>
<!-- RebirthNGModule&#45;&gt;SwitchModule  -->
<g id="edge48" class="edge">
<title>RebirthNGModule&#45;&gt;SwitchModule </title>
<path fill="none" stroke="#000000" stroke-dasharray="5,2" d="M1938.0729,-179C1739.3376,-179 1122.6559,-179 1122.6559,-179 1122.6559,-179 1122.6559,-205.9909 1122.6559,-205.9909"/>
<polygon fill="#000000" stroke="#000000" points="1119.1559,-205.9909 1122.6559,-215.9909 1126.1559,-205.991 1119.1559,-205.9909"/>
</g>
<!-- MenuBarModule  -->
<g id="node50" class="node">
<title>MenuBarModule </title>
<polygon fill="#fb8072" stroke="#000000" points="1016.9208,-252 901.0792,-252 901.0792,-216 1016.9208,-216 1016.9208,-252"/>
<text text-anchor="middle" x="959" y="-229.8" font-family="Times,serif" font-size="14.00" fill="#000000">MenuBarModule </text>
</g>
<!-- RebirthNGModule&#45;&gt;MenuBarModule  -->
<g id="edge49" class="edge">
<title>RebirthNGModule&#45;&gt;MenuBarModule </title>
<path fill="none" stroke="#000000" stroke-dasharray="5,2" d="M1937.906,-178C1721.5052,-178 1004.3715,-178 1004.3715,-178 1004.3715,-178 1004.3715,-205.973 1004.3715,-205.973"/>
<polygon fill="#000000" stroke="#000000" points="1000.8716,-205.973 1004.3715,-215.973 1007.8716,-205.973 1000.8716,-205.973"/>
</g>
<!-- AutoCompleteModule  -->
<g id="node51" class="node">
<title>AutoCompleteModule </title>
<polygon fill="#fb8072" stroke="#000000" points="882.9854,-252 737.0146,-252 737.0146,-216 882.9854,-216 882.9854,-252"/>
<text text-anchor="middle" x="810" y="-229.8" font-family="Times,serif" font-size="14.00" fill="#000000">AutoCompleteModule </text>
</g>
<!-- RebirthNGModule&#45;&gt;AutoCompleteModule  -->
<g id="edge50" class="edge">
<title>RebirthNGModule&#45;&gt;AutoCompleteModule </title>
<path fill="none" stroke="#000000" stroke-dasharray="5,2" d="M1938.0224,-176C1703.4423,-176 872.266,-176 872.266,-176 872.266,-176 872.266,-205.9664 872.266,-205.9664"/>
<polygon fill="#000000" stroke="#000000" points="868.766,-205.9663 872.266,-215.9664 875.766,-205.9664 868.766,-205.9663"/>
</g>
<!-- FlowStepModule  -->
<g id="node52" class="node">
<title>FlowStepModule </title>
<polygon fill="#fb8072" stroke="#000000" points="719.2177,-252 602.7823,-252 602.7823,-216 719.2177,-216 719.2177,-252"/>
<text text-anchor="middle" x="661" y="-229.8" font-family="Times,serif" font-size="14.00" fill="#000000">FlowStepModule </text>
</g>
<!-- RebirthNGModule&#45;&gt;FlowStepModule  -->
<g id="edge51" class="edge">
<title>RebirthNGModule&#45;&gt;FlowStepModule </title>
<path fill="none" stroke="#000000" stroke-dasharray="5,2" d="M1938.1598,-175C1682.7915,-175 710.6832,-175 710.6832,-175 710.6832,-175 710.6832,-205.9775 710.6832,-205.9775"/>
<polygon fill="#000000" stroke="#000000" points="707.1833,-205.9774 710.6832,-215.9775 714.1833,-205.9775 707.1833,-205.9774"/>
</g>
<!-- InfiniteScrollModule  -->
<g id="node53" class="node">
<title>InfiniteScrollModule </title>
<polygon fill="#fb8072" stroke="#000000" points="584.6967,-252 447.3033,-252 447.3033,-216 584.6967,-216 584.6967,-252"/>
<text text-anchor="middle" x="516" y="-229.8" font-family="Times,serif" font-size="14.00" fill="#000000">InfiniteScrollModule </text>
</g>
<!-- RebirthNGModule&#45;&gt;InfiniteScrollModule  -->
<g id="edge52" class="edge">
<title>RebirthNGModule&#45;&gt;InfiniteScrollModule </title>
<path fill="none" stroke="#000000" stroke-dasharray="5,2" d="M1937.9251,-174C1665.864,-174 577.6198,-174 577.6198,-174 577.6198,-174 577.6198,-205.998 577.6198,-205.998"/>
<polygon fill="#000000" stroke="#000000" points="574.1198,-205.998 577.6198,-215.998 581.1198,-205.9981 574.1198,-205.998"/>
</g>
<!-- DataTableModule  -->
<g id="node54" class="node">
<title>DataTableModule </title>
<polygon fill="#fb8072" stroke="#000000" points="428.8491,-252 307.1509,-252 307.1509,-216 428.8491,-216 428.8491,-252"/>
<text text-anchor="middle" x="368" y="-229.8" font-family="Times,serif" font-size="14.00" fill="#000000">DataTableModule </text>
</g>
<!-- RebirthNGModule&#45;&gt;DataTableModule  -->
<g id="edge53" class="edge">
<title>RebirthNGModule&#45;&gt;DataTableModule </title>
<path fill="none" stroke="#000000" stroke-dasharray="5,2" d="M1938.1957,-172C1648.6162,-172 423.2881,-172 423.2881,-172 423.2881,-172 423.2881,-205.7333 423.2881,-205.7333"/>
<polygon fill="#000000" stroke="#000000" points="419.7881,-205.7333 423.2881,-215.7333 426.7881,-205.7333 419.7881,-205.7333"/>
</g>
<!-- DraggableModule  -->
<g id="node55" class="node">
<title>DraggableModule </title>
<polygon fill="#fb8072" stroke="#000000" points="289.8519,-252 168.1481,-252 168.1481,-216 289.8519,-216 289.8519,-252"/>
<text text-anchor="middle" x="229" y="-229.8" font-family="Times,serif" font-size="14.00" fill="#000000">DraggableModule </text>
</g>
<!-- RebirthNGModule&#45;&gt;DraggableModule  -->
<g id="edge54" class="edge">
<title>RebirthNGModule&#45;&gt;DraggableModule </title>
<path fill="none" stroke="#000000" stroke-dasharray="5,2" d="M1938.029,-171C1632.8542,-171 285.8757,-171 285.8757,-171 285.8757,-171 285.8757,-205.7778 285.8757,-205.7778"/>
<polygon fill="#000000" stroke="#000000" points="282.3758,-205.7778 285.8757,-215.7778 289.3758,-205.7778 282.3758,-205.7778"/>
</g>
<!-- FileUploadModule  -->
<g id="node56" class="node">
<title>FileUploadModule </title>
<polygon fill="#fb8072" stroke="#000000" points="150.04,-252 23.96,-252 23.96,-216 150.04,-216 150.04,-252"/>
<text text-anchor="middle" x="87" y="-229.8" font-family="Times,serif" font-size="14.00" fill="#000000">FileUploadModule </text>
</g>
<!-- RebirthNGModule&#45;&gt;FileUploadModule  -->
<g id="edge55" class="edge">
<title>RebirthNGModule&#45;&gt;FileUploadModule </title>
<path fill="none" stroke="#000000" stroke-dasharray="5,2" d="M1938.1342,-169C1618.2163,-169 145.875,-169 145.875,-169 145.875,-169 145.875,-205.8939 145.875,-205.8939"/>
<polygon fill="#000000" stroke="#000000" points="142.3751,-205.8938 145.875,-215.8939 149.3751,-205.8939 142.3751,-205.8938"/>
</g>
</g>
</svg>
