<?xml version="1.0" encoding="UTF-8" standalone="no"?>
<!DOCTYPE svg PUBLIC "-//W3C//DTD SVG 1.1//EN"
 "http://www.w3.org/Graphics/SVG/1.1/DTD/svg11.dtd">
<!-- Generated by graphviz version 2.40.1 (20161225.0304)
 -->
<!-- Title: dependencies Pages: 1 -->
<svg width="3973pt" height="284pt"
 viewBox="0.00 0.00 3973.00 284.00" xmlns="http://www.w3.org/2000/svg" xmlns:xlink="http://www.w3.org/1999/xlink">
<g id="graph0" class="graph" transform="scale(1 1) rotate(0) translate(4 280)">
<title>dependencies</title>
<polygon fill="#ffffff" stroke="transparent" points="-4,4 -4,-280 3969,-280 3969,4 -4,4"/>
<text text-anchor="start" x="1961.5091" y="-42.4" font-family="sans-serif" font-weight="bold" font-size="14.00" fill="#000000">Legend</text>
<polygon fill="#ffffb3" stroke="transparent" points="1748.5,-10 1748.5,-30 1768.5,-30 1768.5,-10 1748.5,-10"/>
<text text-anchor="start" x="1772.129" y="-15.4" font-family="sans-serif" font-size="14.00" fill="#000000"> &#160;Declarations</text>
<polygon fill="#8dd3c7" stroke="transparent" points="1861.5,-10 1861.5,-30 1881.5,-30 1881.5,-10 1861.5,-10"/>
<text text-anchor="start" x="1885.2251" y="-15.4" font-family="sans-serif" font-size="14.00" fill="#000000"> &#160;Module</text>
<polygon fill="#80b1d3" stroke="transparent" points="1947.5,-10 1947.5,-30 1967.5,-30 1967.5,-10 1947.5,-10"/>
<text text-anchor="start" x="1971.2812" y="-15.4" font-family="sans-serif" font-size="14.00" fill="#000000"> &#160;Bootstrap</text>
<polygon fill="#fdb462" stroke="transparent" points="2044.5,-10 2044.5,-30 2064.5,-30 2064.5,-10 2044.5,-10"/>
<text text-anchor="start" x="2068.1732" y="-15.4" font-family="sans-serif" font-size="14.00" fill="#000000"> &#160;Providers</text>
<polygon fill="#fb8072" stroke="transparent" points="2140.5,-10 2140.5,-30 2160.5,-30 2160.5,-10 2140.5,-10"/>
<text text-anchor="start" x="2164.2258" y="-15.4" font-family="sans-serif" font-size="14.00" fill="#000000"> &#160;Exports</text>
<g id="clust1" class="cluster">
<title>cluster_RebirthNGModule</title>
<polygon fill="none" stroke="#000000" stroke-dasharray="1,5" points="8,-70 8,-268 3957,-268 3957,-70 8,-70"/>
</g>
<g id="clust3" class="cluster">
<title>cluster_RebirthNGModule_imports</title>
<polygon fill="none" stroke="#000000" points="136,-78 136,-130 3834,-130 3834,-78 136,-78"/>
</g>
<g id="clust4" class="cluster">
<title>cluster_RebirthNGModule_exports</title>
<polygon fill="none" stroke="#000000" points="16,-208 16,-260 3949,-260 3949,-208 16,-208"/>
</g>
<!-- RebirthCommonModule -->
<g id="node1" class="node">
<title>RebirthCommonModule</title>
<polygon fill="#8dd3c7" stroke="#000000" points="3825.661,-122 3822.661,-126 3801.661,-126 3798.661,-122 3672.339,-122 3672.339,-86 3825.661,-86 3825.661,-122"/>
<text text-anchor="middle" x="3749" y="-99.8" font-family="Times,serif" font-size="14.00" fill="#000000">RebirthCommonModule</text>
</g>
<!-- RebirthNGModule -->
<g id="node29" class="node">
<title>RebirthNGModule</title>
<polygon fill="#8dd3c7" stroke="#000000" points="2138.7562,-187 2135.7562,-191 2114.7562,-191 2111.7562,-187 2017.2438,-187 2017.2438,-151 2138.7562,-151 2138.7562,-187"/>
<text text-anchor="middle" x="2078" y="-164.8" font-family="Times,serif" font-size="14.00" fill="#000000">RebirthNGModule</text>
</g>
<!-- RebirthCommonModule&#45;&gt;RebirthNGModule -->
<g id="edge1" class="edge">
<title>RebirthCommonModule&#45;&gt;RebirthNGModule</title>
<path fill="none" stroke="#000000" d="M3703.3797,-122.1686C3703.3797,-141.0898 3703.3797,-168 3703.3797,-168 3703.3797,-168 2149.2403,-168 2149.2403,-168"/>
<polygon fill="#000000" stroke="#000000" points="2149.2403,-164.5001 2139.2403,-168 2149.2403,-171.5001 2149.2403,-164.5001"/>
</g>
<!-- ModalModule -->
<g id="node2" class="node">
<title>ModalModule</title>
<polygon fill="#8dd3c7" stroke="#000000" points="3654.0997,-122 3651.0997,-126 3630.0997,-126 3627.0997,-122 3557.9003,-122 3557.9003,-86 3654.0997,-86 3654.0997,-122"/>
<text text-anchor="middle" x="3606" y="-99.8" font-family="Times,serif" font-size="14.00" fill="#000000">ModalModule</text>
</g>
<!-- ModalModule&#45;&gt;RebirthNGModule -->
<g id="edge2" class="edge">
<title>ModalModule&#45;&gt;RebirthNGModule</title>
<path fill="none" stroke="#000000" d="M3603.2632,-122.2222C3603.2632,-140.8285 3603.2632,-167 3603.2632,-167 3603.2632,-167 2149.2065,-167 2149.2065,-167"/>
<polygon fill="#000000" stroke="#000000" points="2149.2065,-163.5001 2139.2065,-167 2149.2064,-170.5001 2149.2065,-163.5001"/>
</g>
<!-- DialogModule -->
<g id="node3" class="node">
<title>DialogModule</title>
<polygon fill="#8dd3c7" stroke="#000000" points="3539.6528,-122 3536.6528,-126 3515.6528,-126 3512.6528,-122 3442.3472,-122 3442.3472,-86 3539.6528,-86 3539.6528,-122"/>
<text text-anchor="middle" x="3491" y="-99.8" font-family="Times,serif" font-size="14.00" fill="#000000">DialogModule</text>
</g>
<!-- DialogModule&#45;&gt;RebirthNGModule -->
<g id="edge3" class="edge">
<title>DialogModule&#45;&gt;RebirthNGModule</title>
<path fill="none" stroke="#000000" d="M3485.8175,-122.2667C3485.8175,-140.5552 3485.8175,-166 3485.8175,-166 3485.8175,-166 2148.944,-166 2148.944,-166"/>
<polygon fill="#000000" stroke="#000000" points="2148.9441,-162.5001 2138.944,-166 2148.944,-169.5001 2148.9441,-162.5001"/>
</g>
<!-- PagerModule -->
<g id="node4" class="node">
<title>PagerModule</title>
<polygon fill="#8dd3c7" stroke="#000000" points="3423.9232,-122 3420.9232,-126 3399.9232,-126 3396.9232,-122 3332.0768,-122 3332.0768,-86 3423.9232,-86 3423.9232,-122"/>
<text text-anchor="middle" x="3378" y="-99.8" font-family="Times,serif" font-size="14.00" fill="#000000">PagerModule</text>
</g>
<!-- PagerModule&#45;&gt;RebirthNGModule -->
<g id="edge4" class="edge">
<title>PagerModule&#45;&gt;RebirthNGModule</title>
<path fill="none" stroke="#000000" d="M3374.3778,-122.002C3374.3778,-139.6754 3374.3778,-164 3374.3778,-164 3374.3778,-164 2148.7882,-164 2148.7882,-164"/>
<polygon fill="#000000" stroke="#000000" points="2148.7882,-160.5001 2138.7882,-164 2148.7882,-167.5001 2148.7882,-160.5001"/>
</g>
<!-- PaginationModule -->
<g id="node5" class="node">
<title>PaginationModule</title>
<polygon fill="#8dd3c7" stroke="#000000" points="3314.9342,-122 3311.9342,-126 3290.9342,-126 3287.9342,-122 3195.0658,-122 3195.0658,-86 3314.9342,-86 3314.9342,-122"/>
<text text-anchor="middle" x="3255" y="-99.8" font-family="Times,serif" font-size="14.00" fill="#000000">PaginationModule</text>
</g>
<!-- PaginationModule&#45;&gt;RebirthNGModule -->
<g id="edge5" class="edge">
<title>PaginationModule&#45;&gt;RebirthNGModule</title>
<path fill="none" stroke="#000000" d="M3235.429,-122.0225C3235.429,-139.3734 3235.429,-163 3235.429,-163 3235.429,-163 2149.0044,-163 2149.0044,-163"/>
<polygon fill="#000000" stroke="#000000" points="2149.0044,-159.5001 2139.0044,-163 2149.0044,-166.5001 2149.0044,-159.5001"/>
</g>
<!-- AlertBoxModule -->
<g id="node6" class="node">
<title>AlertBoxModule</title>
<polygon fill="#8dd3c7" stroke="#000000" points="3176.6499,-122 3173.6499,-126 3152.6499,-126 3149.6499,-122 3065.3501,-122 3065.3501,-86 3176.6499,-86 3176.6499,-122"/>
<text text-anchor="middle" x="3121" y="-99.8" font-family="Times,serif" font-size="14.00" fill="#000000">AlertBoxModule</text>
</g>
<!-- AlertBoxModule&#45;&gt;RebirthNGModule -->
<g id="edge6" class="edge">
<title>AlertBoxModule&#45;&gt;RebirthNGModule</title>
<path fill="none" stroke="#000000" d="M3103.7916,-122.0336C3103.7916,-139.0597 3103.7916,-162 3103.7916,-162 3103.7916,-162 2149.096,-162 2149.096,-162"/>
<polygon fill="#000000" stroke="#000000" points="2149.096,-158.5001 2139.096,-162 2149.0959,-165.5001 2149.096,-158.5001"/>
</g>
<!-- BadgeModule -->
<g id="node7" class="node">
<title>BadgeModule</title>
<polygon fill="#8dd3c7" stroke="#000000" points="3047.8161,-122 3044.8161,-126 3023.8161,-126 3020.8161,-122 2952.1839,-122 2952.1839,-86 3047.8161,-86 3047.8161,-122"/>
<text text-anchor="middle" x="3000" y="-99.8" font-family="Times,serif" font-size="14.00" fill="#000000">BadgeModule</text>
</g>
<!-- BadgeModule&#45;&gt;RebirthNGModule -->
<g id="edge7" class="edge">
<title>BadgeModule&#45;&gt;RebirthNGModule</title>
<path fill="none" stroke="#000000" d="M2989.2092,-122.027C2989.2092,-138.3976 2989.2092,-160 2989.2092,-160 2989.2092,-160 2148.8468,-160 2148.8468,-160"/>
<polygon fill="#000000" stroke="#000000" points="2148.8469,-156.5001 2138.8468,-160 2148.8468,-163.5001 2148.8469,-156.5001"/>
</g>
<!-- PanelModule -->
<g id="node8" class="node">
<title>PanelModule</title>
<polygon fill="#8dd3c7" stroke="#000000" points="2934.1529,-122 2931.1529,-126 2910.1529,-126 2907.1529,-122 2843.8471,-122 2843.8471,-86 2934.1529,-86 2934.1529,-122"/>
<text text-anchor="middle" x="2889" y="-99.8" font-family="Times,serif" font-size="14.00" fill="#000000">PanelModule</text>
</g>
<!-- PanelModule&#45;&gt;RebirthNGModule -->
<g id="edge8" class="edge">
<title>PanelModule&#45;&gt;RebirthNGModule</title>
<path fill="none" stroke="#000000" d="M2878.8712,-122.0091C2878.8712,-138.0494 2878.8712,-159 2878.8712,-159 2878.8712,-159 2148.8528,-159 2148.8528,-159"/>
<polygon fill="#000000" stroke="#000000" points="2148.8529,-155.5001 2138.8528,-159 2148.8528,-162.5001 2148.8529,-155.5001"/>
</g>
<!-- AccordionModule -->
<g id="node9" class="node">
<title>AccordionModule</title>
<polygon fill="#8dd3c7" stroke="#000000" points="2825.1374,-122 2822.1374,-126 2801.1374,-126 2798.1374,-122 2706.8626,-122 2706.8626,-86 2825.1374,-86 2825.1374,-122"/>
<text text-anchor="middle" x="2766" y="-99.8" font-family="Times,serif" font-size="14.00" fill="#000000">AccordionModule</text>
</g>
<!-- AccordionModule&#45;&gt;RebirthNGModule -->
<g id="edge9" class="edge">
<title>AccordionModule&#45;&gt;RebirthNGModule</title>
<path fill="none" stroke="#000000" d="M2740.1583,-122.2819C2740.1583,-137.9478 2740.1583,-158 2740.1583,-158 2740.1583,-158 2148.8121,-158 2148.8121,-158"/>
<polygon fill="#000000" stroke="#000000" points="2148.8122,-154.5001 2138.8121,-158 2148.8121,-161.5001 2148.8122,-154.5001"/>
</g>
<!-- ActionButtonModule -->
<g id="node10" class="node">
<title>ActionButtonModule</title>
<polygon fill="#8dd3c7" stroke="#000000" points="2688.7702,-122 2685.7702,-126 2664.7702,-126 2661.7702,-122 2553.2298,-122 2553.2298,-86 2688.7702,-86 2688.7702,-122"/>
<text text-anchor="middle" x="2621" y="-99.8" font-family="Times,serif" font-size="14.00" fill="#000000">ActionButtonModule</text>
</g>
<!-- ActionButtonModule&#45;&gt;RebirthNGModule -->
<g id="edge10" class="edge">
<title>ActionButtonModule&#45;&gt;RebirthNGModule</title>
<path fill="none" stroke="#000000" d="M2584.6531,-122.2396C2584.6531,-137.5706 2584.6531,-157 2584.6531,-157 2584.6531,-157 2148.8624,-157 2148.8624,-157"/>
<polygon fill="#000000" stroke="#000000" points="2148.8624,-153.5001 2138.8624,-157 2148.8623,-160.5001 2148.8624,-153.5001"/>
</g>
<!-- RatingModule -->
<g id="node11" class="node">
<title>RatingModule</title>
<polygon fill="#8dd3c7" stroke="#000000" points="2535.3823,-122 2532.3823,-126 2511.3823,-126 2508.3823,-122 2438.6177,-122 2438.6177,-86 2535.3823,-86 2535.3823,-122"/>
<text text-anchor="middle" x="2487" y="-99.8" font-family="Times,serif" font-size="14.00" fill="#000000">RatingModule</text>
</g>
<!-- RatingModule&#45;&gt;RebirthNGModule -->
<g id="edge11" class="edge">
<title>RatingModule&#45;&gt;RebirthNGModule</title>
<path fill="none" stroke="#000000" d="M2468.3449,-122.1243C2468.3449,-136.7832 2468.3449,-155 2468.3449,-155 2468.3449,-155 2148.9914,-155 2148.9914,-155"/>
<polygon fill="#000000" stroke="#000000" points="2148.9914,-151.5001 2138.9914,-155 2148.9913,-158.5001 2148.9914,-151.5001"/>
</g>
<!-- TabsModule -->
<g id="node12" class="node">
<title>TabsModule</title>
<polygon fill="#8dd3c7" stroke="#000000" points="2420.2619,-122 2417.2619,-126 2396.2619,-126 2393.2619,-122 2333.7381,-122 2333.7381,-86 2420.2619,-86 2420.2619,-122"/>
<text text-anchor="middle" x="2377" y="-99.8" font-family="Times,serif" font-size="14.00" fill="#000000">TabsModule</text>
</g>
<!-- TabsModule&#45;&gt;RebirthNGModule -->
<g id="edge12" class="edge">
<title>TabsModule&#45;&gt;RebirthNGModule</title>
<path fill="none" stroke="#000000" d="M2361.8782,-122.0511C2361.8782,-136.373 2361.8782,-154 2361.8782,-154 2361.8782,-154 2148.899,-154 2148.899,-154"/>
<polygon fill="#000000" stroke="#000000" points="2148.899,-150.5001 2138.899,-154 2148.899,-157.5001 2148.899,-150.5001"/>
</g>
<!-- TooltipModule -->
<g id="node13" class="node">
<title>TooltipModule</title>
<polygon fill="#8dd3c7" stroke="#000000" points="2315.2745,-122 2312.2745,-126 2291.2745,-126 2288.2745,-122 2214.7255,-122 2214.7255,-86 2315.2745,-86 2315.2745,-122"/>
<text text-anchor="middle" x="2265" y="-99.8" font-family="Times,serif" font-size="14.00" fill="#000000">TooltipModule</text>
</g>
<!-- TooltipModule&#45;&gt;RebirthNGModule -->
<g id="edge13" class="edge">
<title>TooltipModule&#45;&gt;RebirthNGModule</title>
<path fill="none" stroke="#000000" d="M2241.2334,-122.2458C2241.2334,-136.1772 2241.2334,-153 2241.2334,-153 2241.2334,-153 2148.7821,-153 2148.7821,-153"/>
<polygon fill="#000000" stroke="#000000" points="2148.7821,-149.5001 2138.7821,-153 2148.782,-156.5001 2148.7821,-149.5001"/>
</g>
<!-- PopoverModule -->
<g id="node14" class="node">
<title>PopoverModule</title>
<polygon fill="#8dd3c7" stroke="#000000" points="2197.2078,-122 2194.2078,-126 2173.2078,-126 2170.2078,-122 2090.7922,-122 2090.7922,-86 2197.2078,-86 2197.2078,-122"/>
<text text-anchor="middle" x="2144" y="-99.8" font-family="Times,serif" font-size="14.00" fill="#000000">PopoverModule</text>
</g>
<!-- PopoverModule&#45;&gt;RebirthNGModule -->
<g id="edge14" class="edge">
<title>PopoverModule&#45;&gt;RebirthNGModule</title>
<path fill="none" stroke="#000000" d="M2114.8871,-122.1061C2114.8871,-122.1061 2114.8871,-140.991 2114.8871,-140.991"/>
<polygon fill="#000000" stroke="#000000" points="2111.3872,-140.9909 2114.8871,-150.991 2118.3872,-140.991 2111.3872,-140.9909"/>
</g>
<!-- DatePickerModule -->
<g id="node15" class="node">
<title>DatePickerModule</title>
<polygon fill="#8dd3c7" stroke="#000000" points="2072.7395,-122 2069.7395,-126 2048.7395,-126 2045.7395,-122 1951.2605,-122 1951.2605,-86 2072.7395,-86 2072.7395,-122"/>
<text text-anchor="middle" x="2012" y="-99.8" font-family="Times,serif" font-size="14.00" fill="#000000">DatePickerModule</text>
</g>
<!-- DatePickerModule&#45;&gt;RebirthNGModule -->
<g id="edge15" class="edge">
<title>DatePickerModule&#45;&gt;RebirthNGModule</title>
<path fill="none" stroke="#000000" d="M2044.9958,-122.1061C2044.9958,-122.1061 2044.9958,-140.991 2044.9958,-140.991"/>
<polygon fill="#000000" stroke="#000000" points="2041.4959,-140.9909 2044.9958,-150.991 2048.4959,-140.991 2041.4959,-140.9909"/>
</g>
<!-- BreadcrumbsModule -->
<g id="node16" class="node">
<title>BreadcrumbsModule</title>
<polygon fill="#8dd3c7" stroke="#000000" points="1933.1867,-122 1930.1867,-126 1909.1867,-126 1906.1867,-122 1798.8133,-122 1798.8133,-86 1933.1867,-86 1933.1867,-122"/>
<text text-anchor="middle" x="1866" y="-99.8" font-family="Times,serif" font-size="14.00" fill="#000000">BreadcrumbsModule</text>
</g>
<!-- BreadcrumbsModule&#45;&gt;RebirthNGModule -->
<g id="edge16" class="edge">
<title>BreadcrumbsModule&#45;&gt;RebirthNGModule</title>
<path fill="none" stroke="#000000" d="M1896.625,-122.2458C1896.625,-136.1772 1896.625,-153 1896.625,-153 1896.625,-153 2007.1002,-153 2007.1002,-153"/>
<polygon fill="#000000" stroke="#000000" points="2007.1002,-156.5001 2017.1002,-153 2007.1002,-149.5001 2007.1002,-156.5001"/>
</g>
<!-- ProgressBarModule -->
<g id="node17" class="node">
<title>ProgressBarModule</title>
<polygon fill="#8dd3c7" stroke="#000000" points="1780.9692,-122 1777.9692,-126 1756.9692,-126 1753.9692,-122 1653.0308,-122 1653.0308,-86 1780.9692,-86 1780.9692,-122"/>
<text text-anchor="middle" x="1717" y="-99.8" font-family="Times,serif" font-size="14.00" fill="#000000">ProgressBarModule</text>
</g>
<!-- ProgressBarModule&#45;&gt;RebirthNGModule -->
<g id="edge17" class="edge">
<title>ProgressBarModule&#45;&gt;RebirthNGModule</title>
<path fill="none" stroke="#000000" d="M1745.625,-122.0511C1745.625,-136.373 1745.625,-154 1745.625,-154 1745.625,-154 2007.0373,-154 2007.0373,-154"/>
<polygon fill="#000000" stroke="#000000" points="2007.0373,-157.5001 2017.0373,-154 2007.0373,-150.5001 2007.0373,-157.5001"/>
</g>
<!-- SelectButtonModule -->
<g id="node18" class="node">
<title>SelectButtonModule</title>
<polygon fill="#8dd3c7" stroke="#000000" points="1634.8753,-122 1631.8753,-126 1610.8753,-126 1607.8753,-122 1503.1247,-122 1503.1247,-86 1634.8753,-86 1634.8753,-122"/>
<text text-anchor="middle" x="1569" y="-99.8" font-family="Times,serif" font-size="14.00" fill="#000000">SelectButtonModule</text>
</g>
<!-- SelectButtonModule&#45;&gt;RebirthNGModule -->
<g id="edge18" class="edge">
<title>SelectButtonModule&#45;&gt;RebirthNGModule</title>
<path fill="none" stroke="#000000" d="M1596.125,-122.1243C1596.125,-136.7832 1596.125,-155 1596.125,-155 1596.125,-155 2006.9702,-155 2006.9702,-155"/>
<polygon fill="#000000" stroke="#000000" points="2006.9702,-158.5001 2016.9702,-155 2006.9702,-151.5001 2006.9702,-158.5001"/>
</g>
<!-- OverlayModule -->
<g id="node19" class="node">
<title>OverlayModule</title>
<polygon fill="#8dd3c7" stroke="#000000" points="1485.1374,-122 1482.1374,-126 1461.1374,-126 1458.1374,-122 1380.8626,-122 1380.8626,-86 1485.1374,-86 1485.1374,-122"/>
<text text-anchor="middle" x="1433" y="-99.8" font-family="Times,serif" font-size="14.00" fill="#000000">OverlayModule</text>
</g>
<!-- OverlayModule&#45;&gt;RebirthNGModule -->
<g id="edge19" class="edge">
<title>OverlayModule&#45;&gt;RebirthNGModule</title>
<path fill="none" stroke="#000000" d="M1458.125,-122.2396C1458.125,-137.5706 1458.125,-157 1458.125,-157 1458.125,-157 2007.1516,-157 2007.1516,-157"/>
<polygon fill="#000000" stroke="#000000" points="2007.1516,-160.5001 2017.1516,-157 2007.1516,-153.5001 2007.1516,-160.5001"/>
</g>
<!-- CarouselModule -->
<g id="node20" class="node">
<title>CarouselModule</title>
<polygon fill="#8dd3c7" stroke="#000000" points="1362.8118,-122 1359.8118,-126 1338.8118,-126 1335.8118,-122 1253.1882,-122 1253.1882,-86 1362.8118,-86 1362.8118,-122"/>
<text text-anchor="middle" x="1308" y="-99.8" font-family="Times,serif" font-size="14.00" fill="#000000">CarouselModule</text>
</g>
<!-- CarouselModule&#45;&gt;RebirthNGModule -->
<g id="edge20" class="edge">
<title>CarouselModule&#45;&gt;RebirthNGModule</title>
<path fill="none" stroke="#000000" d="M1331.625,-122.2819C1331.625,-137.9478 1331.625,-158 1331.625,-158 1331.625,-158 2007.2375,-158 2007.2375,-158"/>
<polygon fill="#000000" stroke="#000000" points="2007.2375,-161.5001 2017.2375,-158 2007.2374,-154.5001 2007.2375,-161.5001"/>
</g>
<!-- SwitchModule -->
<g id="node21" class="node">
<title>SwitchModule</title>
<polygon fill="#8dd3c7" stroke="#000000" points="1235.4358,-122 1232.4358,-126 1211.4358,-126 1208.4358,-122 1136.5642,-122 1136.5642,-86 1235.4358,-86 1235.4358,-122"/>
<text text-anchor="middle" x="1186" y="-99.8" font-family="Times,serif" font-size="14.00" fill="#000000">SwitchModule</text>
</g>
<!-- SwitchModule&#45;&gt;RebirthNGModule -->
<g id="edge21" class="edge">
<title>SwitchModule&#45;&gt;RebirthNGModule</title>
<path fill="none" stroke="#000000" d="M1208.125,-122.0091C1208.125,-138.0494 1208.125,-159 1208.125,-159 1208.125,-159 2007.1778,-159 2007.1778,-159"/>
<polygon fill="#000000" stroke="#000000" points="2007.1779,-162.5001 2017.1778,-159 2007.1778,-155.5001 2007.1779,-162.5001"/>
</g>
<!-- MenuBarModule -->
<g id="node22" class="node">
<title>MenuBarModule</title>
<polygon fill="#8dd3c7" stroke="#000000" points="1119.4216,-122 1116.4216,-126 1095.4216,-126 1092.4216,-122 1006.5784,-122 1006.5784,-86 1119.4216,-86 1119.4216,-122"/>
<text text-anchor="middle" x="1063" y="-99.8" font-family="Times,serif" font-size="14.00" fill="#000000">MenuBarModule</text>
</g>
<!-- MenuBarModule&#45;&gt;RebirthNGModule -->
<g id="edge22" class="edge">
<title>MenuBarModule&#45;&gt;RebirthNGModule</title>
<path fill="none" stroke="#000000" d="M1083.125,-122.027C1083.125,-138.3976 1083.125,-160 1083.125,-160 1083.125,-160 2006.8908,-160 2006.8908,-160"/>
<polygon fill="#000000" stroke="#000000" points="2006.8908,-163.5001 2016.8908,-160 2006.8908,-156.5001 2006.8908,-163.5001"/>
</g>
<!-- AutoCompleteModule -->
<g id="node23" class="node">
<title>AutoCompleteModule</title>
<polygon fill="#8dd3c7" stroke="#000000" points="988.9846,-122 985.9846,-126 964.9846,-126 961.9846,-122 847.0154,-122 847.0154,-86 988.9846,-86 988.9846,-122"/>
<text text-anchor="middle" x="918" y="-99.8" font-family="Times,serif" font-size="14.00" fill="#000000">AutoCompleteModule</text>
</g>
<!-- AutoCompleteModule&#45;&gt;RebirthNGModule -->
<g id="edge23" class="edge">
<title>AutoCompleteModule&#45;&gt;RebirthNGModule</title>
<path fill="none" stroke="#000000" d="M936.125,-122.0336C936.125,-139.0597 936.125,-162 936.125,-162 936.125,-162 2007.0115,-162 2007.0115,-162"/>
<polygon fill="#000000" stroke="#000000" points="2007.0116,-165.5001 2017.0115,-162 2007.0115,-158.5001 2007.0116,-165.5001"/>
</g>
<!-- FlowStepModule -->
<g id="node24" class="node">
<title>FlowStepModule</title>
<polygon fill="#8dd3c7" stroke="#000000" points="828.7176,-122 825.7176,-126 804.7176,-126 801.7176,-122 715.2824,-122 715.2824,-86 828.7176,-86 828.7176,-122"/>
<text text-anchor="middle" x="772" y="-99.8" font-family="Times,serif" font-size="14.00" fill="#000000">FlowStepModule</text>
</g>
<!-- FlowStepModule&#45;&gt;RebirthNGModule -->
<g id="edge24" class="edge">
<title>FlowStepModule&#45;&gt;RebirthNGModule</title>
<path fill="none" stroke="#000000" d="M788.625,-122.0225C788.625,-139.3734 788.625,-163 788.625,-163 788.625,-163 2007.1099,-163 2007.1099,-163"/>
<polygon fill="#000000" stroke="#000000" points="2007.1099,-166.5001 2017.1099,-163 2007.1098,-159.5001 2007.1099,-166.5001"/>
</g>
<!-- InfiniteScrollModule -->
<g id="node25" class="node">
<title>InfiniteScrollModule</title>
<polygon fill="#8dd3c7" stroke="#000000" points="697.1965,-122 694.1965,-126 673.1965,-126 670.1965,-122 562.8035,-122 562.8035,-86 697.1965,-86 697.1965,-122"/>
<text text-anchor="middle" x="630" y="-99.8" font-family="Times,serif" font-size="14.00" fill="#000000">InfiniteScrollModule</text>
</g>
<!-- InfiniteScrollModule&#45;&gt;RebirthNGModule -->
<g id="edge25" class="edge">
<title>InfiniteScrollModule&#45;&gt;RebirthNGModule</title>
<path fill="none" stroke="#000000" d="M645.125,-122.002C645.125,-139.6754 645.125,-164 645.125,-164 645.125,-164 2006.8895,-164 2006.8895,-164"/>
<polygon fill="#000000" stroke="#000000" points="2006.8896,-167.5001 2016.8895,-164 2006.8895,-160.5001 2006.8896,-167.5001"/>
</g>
<!-- DataTableModule -->
<g id="node26" class="node">
<title>DataTableModule</title>
<polygon fill="#8dd3c7" stroke="#000000" points="544.8487,-122 541.8487,-126 520.8487,-126 517.8487,-122 427.1513,-122 427.1513,-86 544.8487,-86 544.8487,-122"/>
<text text-anchor="middle" x="486" y="-99.8" font-family="Times,serif" font-size="14.00" fill="#000000">DataTableModule</text>
</g>
<!-- DataTableModule&#45;&gt;RebirthNGModule -->
<g id="edge26" class="edge">
<title>DataTableModule&#45;&gt;RebirthNGModule</title>
<path fill="none" stroke="#000000" d="M499.125,-122.2667C499.125,-140.5552 499.125,-166 499.125,-166 499.125,-166 2007.0737,-166 2007.0737,-166"/>
<polygon fill="#000000" stroke="#000000" points="2007.0737,-169.5001 2017.0737,-166 2007.0736,-162.5001 2007.0737,-169.5001"/>
</g>
<!-- FileUploadModule -->
<g id="node27" class="node">
<title>FileUploadModule</title>
<polygon fill="#8dd3c7" stroke="#000000" points="409.0409,-122 406.0409,-126 385.0409,-126 382.0409,-122 286.9591,-122 286.9591,-86 409.0409,-86 409.0409,-122"/>
<text text-anchor="middle" x="348" y="-99.8" font-family="Times,serif" font-size="14.00" fill="#000000">FileUploadModule</text>
</g>
<!-- FileUploadModule&#45;&gt;RebirthNGModule -->
<g id="edge27" class="edge">
<title>FileUploadModule&#45;&gt;RebirthNGModule</title>
<path fill="none" stroke="#000000" d="M361.7972,-122.2222C361.7972,-140.8285 361.7972,-167 361.7971,-167 361.7971,-167 2007.1717,-167 2007.1717,-167"/>
<polygon fill="#000000" stroke="#000000" points="2007.1718,-170.5001 2017.1717,-167 2007.1717,-163.5001 2007.1718,-170.5001"/>
</g>
<!-- TimePickerModule -->
<g id="node28" class="node">
<title>TimePickerModule</title>
<polygon fill="#8dd3c7" stroke="#000000" points="268.3613,-122 265.3613,-126 244.3613,-126 241.3613,-122 143.6387,-122 143.6387,-86 268.3613,-86 268.3613,-122"/>
<text text-anchor="middle" x="206" y="-99.8" font-family="Times,serif" font-size="14.00" fill="#000000">TimePickerModule</text>
</g>
<!-- TimePickerModule&#45;&gt;RebirthNGModule -->
<g id="edge28" class="edge">
<title>TimePickerModule&#45;&gt;RebirthNGModule</title>
<path fill="none" stroke="#000000" d="M219.2053,-122.1686C219.2053,-141.0898 219.2053,-168 219.2053,-168 219.2053,-168 2007.2114,-168 2007.2114,-168"/>
<polygon fill="#000000" stroke="#000000" points="2007.2114,-171.5001 2017.2114,-168 2007.2113,-164.5001 2007.2114,-171.5001"/>
</g>
<!-- RebirthCommonModule  -->
<g id="node30" class="node">
<title>RebirthCommonModule </title>
<polygon fill="#fb8072" stroke="#000000" points="3940.6607,-252 3783.3393,-252 3783.3393,-216 3940.6607,-216 3940.6607,-252"/>
<text text-anchor="middle" x="3862" y="-229.8" font-family="Times,serif" font-size="14.00" fill="#000000">RebirthCommonModule </text>
</g>
<!-- RebirthNGModule&#45;&gt;RebirthCommonModule  -->
<g id="edge29" class="edge">
<title>RebirthNGModule&#45;&gt;RebirthCommonModule </title>
<path fill="none" stroke="#000000" stroke-dasharray="5,2" d="M2138.9443,-169C2445.5358,-169 3804.625,-169 3804.625,-169 3804.625,-169 3804.625,-205.8939 3804.625,-205.8939"/>
<polygon fill="#000000" stroke="#000000" points="3801.1251,-205.8938 3804.625,-215.8939 3808.1251,-205.8939 3801.1251,-205.8938"/>
</g>
<!-- ModalModule  -->
<g id="node31" class="node">
<title>ModalModule </title>
<polygon fill="#fb8072" stroke="#000000" points="3765.6004,-252 3666.3996,-252 3666.3996,-216 3765.6004,-216 3765.6004,-252"/>
<text text-anchor="middle" x="3716" y="-229.8" font-family="Times,serif" font-size="14.00" fill="#000000">ModalModule </text>
</g>
<!-- RebirthNGModule&#45;&gt;ModalModule  -->
<g id="edge30" class="edge">
<title>RebirthNGModule&#45;&gt;ModalModule </title>
<path fill="none" stroke="#000000" stroke-dasharray="5,2" d="M2138.9236,-171C2437.7944,-171 3734.5898,-171 3734.5898,-171 3734.5898,-171 3734.5898,-205.7778 3734.5898,-205.7778"/>
<polygon fill="#000000" stroke="#000000" points="3731.0899,-205.7778 3734.5898,-215.7778 3738.0899,-205.7778 3731.0899,-205.7778"/>
</g>
<!-- DialogModule  -->
<g id="node32" class="node">
<title>DialogModule </title>
<polygon fill="#fb8072" stroke="#000000" points="3648.6523,-252 3547.3477,-252 3547.3477,-216 3648.6523,-216 3648.6523,-252"/>
<text text-anchor="middle" x="3598" y="-229.8" font-family="Times,serif" font-size="14.00" fill="#000000">DialogModule </text>
</g>
<!-- RebirthNGModule&#45;&gt;DialogModule  -->
<g id="edge31" class="edge">
<title>RebirthNGModule&#45;&gt;DialogModule </title>
<path fill="none" stroke="#000000" stroke-dasharray="5,2" d="M2139.0226,-172C2417.3204,-172 3552.6871,-172 3552.6871,-172 3552.6871,-172 3552.6871,-205.7333 3552.6871,-205.7333"/>
<polygon fill="#000000" stroke="#000000" points="3549.1871,-205.7333 3552.6871,-215.7333 3556.1871,-205.7333 3549.1871,-205.7333"/>
</g>
<!-- PagerModule  -->
<g id="node33" class="node">
<title>PagerModule </title>
<polygon fill="#fb8072" stroke="#000000" points="3529.4222,-252 3434.5778,-252 3434.5778,-216 3529.4222,-216 3529.4222,-252"/>
<text text-anchor="middle" x="3482" y="-229.8" font-family="Times,serif" font-size="14.00" fill="#000000">PagerModule </text>
</g>
<!-- RebirthNGModule&#45;&gt;PagerModule  -->
<g id="edge32" class="edge">
<title>RebirthNGModule&#45;&gt;PagerModule </title>
<path fill="none" stroke="#000000" stroke-dasharray="5,2" d="M2139.0944,-173C2403.7963,-173 3438.3564,-173 3438.3564,-173 3438.3564,-173 3438.3564,-205.698 3438.3564,-205.698"/>
<polygon fill="#000000" stroke="#000000" points="3434.8565,-205.698 3438.3564,-215.698 3441.8565,-205.698 3434.8565,-205.698"/>
</g>
<!-- PaginationModule  -->
<g id="node34" class="node">
<title>PaginationModule </title>
<polygon fill="#fb8072" stroke="#000000" points="3416.4334,-252 3293.5666,-252 3293.5666,-216 3416.4334,-216 3416.4334,-252"/>
<text text-anchor="middle" x="3355" y="-229.8" font-family="Times,serif" font-size="14.00" fill="#000000">PaginationModule </text>
</g>
<!-- RebirthNGModule&#45;&gt;PaginationModule  -->
<g id="edge33" class="edge">
<title>RebirthNGModule&#45;&gt;PaginationModule </title>
<path fill="none" stroke="#000000" stroke-dasharray="5,2" d="M2138.8037,-175C2386.2104,-175 3304.125,-175 3304.125,-175 3304.125,-175 3304.125,-205.9775 3304.125,-205.9775"/>
<polygon fill="#000000" stroke="#000000" points="3300.6251,-205.9774 3304.125,-215.9775 3307.6251,-205.9775 3300.6251,-205.9774"/>
</g>
<!-- AlertBoxModule  -->
<g id="node35" class="node">
<title>AlertBoxModule </title>
<polygon fill="#fb8072" stroke="#000000" points="3275.6495,-252 3160.3505,-252 3160.3505,-216 3275.6495,-216 3275.6495,-252"/>
<text text-anchor="middle" x="3218" y="-229.8" font-family="Times,serif" font-size="14.00" fill="#000000">AlertBoxModule </text>
</g>
<!-- RebirthNGModule&#45;&gt;AlertBoxModule  -->
<g id="edge34" class="edge">
<title>RebirthNGModule&#45;&gt;AlertBoxModule </title>
<path fill="none" stroke="#000000" stroke-dasharray="5,2" d="M2138.9737,-176C2368.6531,-176 3168.625,-176 3168.625,-176 3168.625,-176 3168.625,-205.9664 3168.625,-205.9664"/>
<polygon fill="#000000" stroke="#000000" points="3165.1251,-205.9663 3168.625,-215.9664 3172.1251,-205.9664 3165.1251,-205.9663"/>
</g>
<!-- BadgeModule  -->
<g id="node36" class="node">
<title>BadgeModule </title>
<polygon fill="#fb8072" stroke="#000000" points="3142.3158,-252 3043.6842,-252 3043.6842,-216 3142.3158,-216 3142.3158,-252"/>
<text text-anchor="middle" x="3093" y="-229.8" font-family="Times,serif" font-size="14.00" fill="#000000">BadgeModule </text>
</g>
<!-- RebirthNGModule&#45;&gt;BadgeModule  -->
<g id="edge35" class="edge">
<title>RebirthNGModule&#45;&gt;BadgeModule </title>
<path fill="none" stroke="#000000" stroke-dasharray="5,2" d="M2138.8347,-177C2352.5934,-177 3056.4166,-177 3056.4166,-177 3056.4166,-177 3056.4166,-205.9648 3056.4166,-205.9648"/>
<polygon fill="#000000" stroke="#000000" points="3052.9166,-205.9648 3056.4166,-215.9648 3059.9166,-205.9649 3052.9166,-205.9648"/>
</g>
<!-- PanelModule  -->
<g id="node37" class="node">
<title>PanelModule </title>
<polygon fill="#fb8072" stroke="#000000" points="3026.1523,-252 2931.8477,-252 2931.8477,-216 3026.1523,-216 3026.1523,-252"/>
<text text-anchor="middle" x="2979" y="-229.8" font-family="Times,serif" font-size="14.00" fill="#000000">PanelModule </text>
</g>
<!-- RebirthNGModule&#45;&gt;PanelModule  -->
<g id="edge36" class="edge">
<title>RebirthNGModule&#45;&gt;PanelModule </title>
<path fill="none" stroke="#000000" stroke-dasharray="5,2" d="M2138.8486,-178C2335.8171,-178 2943.3342,-178 2943.3342,-178 2943.3342,-178 2943.3342,-205.973 2943.3342,-205.973"/>
<polygon fill="#000000" stroke="#000000" points="2939.8342,-205.973 2943.3342,-215.973 2946.8342,-205.973 2939.8342,-205.973"/>
</g>
<!-- AccordionModule  -->
<g id="node38" class="node">
<title>AccordionModule </title>
<polygon fill="#fb8072" stroke="#000000" points="2914.1369,-252 2791.8631,-252 2791.8631,-216 2914.1369,-216 2914.1369,-252"/>
<text text-anchor="middle" x="2853" y="-229.8" font-family="Times,serif" font-size="14.00" fill="#000000">AccordionModule </text>
</g>
<!-- RebirthNGModule&#45;&gt;AccordionModule  -->
<g id="edge37" class="edge">
<title>RebirthNGModule&#45;&gt;AccordionModule </title>
<path fill="none" stroke="#000000" stroke-dasharray="5,2" d="M2139.036,-180C2314.6343,-180 2808.625,-180 2808.625,-180 2808.625,-180 2808.625,-205.7181 2808.625,-205.7181"/>
<polygon fill="#000000" stroke="#000000" points="2805.1251,-205.718 2808.625,-215.7181 2812.1251,-205.7181 2805.1251,-205.718"/>
</g>
<!-- ActionButtonModule  -->
<g id="node39" class="node">
<title>ActionButtonModule </title>
<polygon fill="#fb8072" stroke="#000000" points="2773.7703,-252 2634.2297,-252 2634.2297,-216 2773.7703,-216 2773.7703,-252"/>
<text text-anchor="middle" x="2704" y="-229.8" font-family="Times,serif" font-size="14.00" fill="#000000">ActionButtonModule </text>
</g>
<!-- RebirthNGModule&#45;&gt;ActionButtonModule  -->
<g id="edge38" class="edge">
<title>RebirthNGModule&#45;&gt;ActionButtonModule </title>
<path fill="none" stroke="#000000" stroke-dasharray="5,2" d="M2138.8065,-181C2288.2874,-181 2661.625,-181 2661.625,-181 2661.625,-181 2661.625,-205.7604 2661.625,-205.7604"/>
<polygon fill="#000000" stroke="#000000" points="2658.1251,-205.7604 2661.625,-215.7604 2665.1251,-205.7604 2658.1251,-205.7604"/>
</g>
<!-- RatingModule  -->
<g id="node40" class="node">
<title>RatingModule </title>
<polygon fill="#fb8072" stroke="#000000" points="2616.3829,-252 2515.6171,-252 2515.6171,-216 2616.3829,-216 2616.3829,-252"/>
<text text-anchor="middle" x="2566" y="-229.8" font-family="Times,serif" font-size="14.00" fill="#000000">RatingModule </text>
</g>
<!-- RebirthNGModule&#45;&gt;RatingModule  -->
<g id="edge39" class="edge">
<title>RebirthNGModule&#45;&gt;RatingModule </title>
<path fill="none" stroke="#000000" stroke-dasharray="5,2" d="M2138.8346,-182C2261.2235,-182 2525.625,-182 2525.625,-182 2525.625,-182 2525.625,-205.8129 2525.625,-205.8129"/>
<polygon fill="#000000" stroke="#000000" points="2522.1251,-205.8129 2525.625,-215.8129 2529.1251,-205.813 2522.1251,-205.8129"/>
</g>
<!-- TabsModule  -->
<g id="node41" class="node">
<title>TabsModule </title>
<polygon fill="#fb8072" stroke="#000000" points="2498.262,-252 2407.738,-252 2407.738,-216 2498.262,-216 2498.262,-252"/>
<text text-anchor="middle" x="2453" y="-229.8" font-family="Times,serif" font-size="14.00" fill="#000000">TabsModule </text>
</g>
<!-- RebirthNGModule&#45;&gt;TabsModule  -->
<g id="edge40" class="edge">
<title>RebirthNGModule&#45;&gt;TabsModule </title>
<path fill="none" stroke="#000000" stroke-dasharray="5,2" d="M2138.8697,-184C2235.7317,-184 2414.125,-184 2414.125,-184 2414.125,-184 2414.125,-205.9489 2414.125,-205.9489"/>
<polygon fill="#000000" stroke="#000000" points="2410.6251,-205.9488 2414.125,-215.9489 2417.6251,-205.9489 2410.6251,-205.9488"/>
</g>
<!-- TooltipModule  -->
<g id="node42" class="node">
<title>TooltipModule </title>
<polygon fill="#fb8072" stroke="#000000" points="2390.2746,-252 2285.7254,-252 2285.7254,-216 2390.2746,-216 2390.2746,-252"/>
<text text-anchor="middle" x="2338" y="-229.8" font-family="Times,serif" font-size="14.00" fill="#000000">TooltipModule </text>
</g>
<!-- RebirthNGModule&#45;&gt;TooltipModule  -->
<g id="edge41" class="edge">
<title>RebirthNGModule&#45;&gt;TooltipModule </title>
<path fill="none" stroke="#000000" stroke-dasharray="5,2" d="M2138.8333,-185C2204.7484,-185 2300.625,-185 2300.625,-185 2300.625,-185 2300.625,-205.7542 2300.625,-205.7542"/>
<polygon fill="#000000" stroke="#000000" points="2297.1251,-205.7542 2300.625,-215.7542 2304.1251,-205.7542 2297.1251,-205.7542"/>
</g>
<!-- PopoverModule  -->
<g id="node43" class="node">
<title>PopoverModule </title>
<polygon fill="#fb8072" stroke="#000000" points="2267.708,-252 2158.292,-252 2158.292,-216 2267.708,-216 2267.708,-252"/>
<text text-anchor="middle" x="2213" y="-229.8" font-family="Times,serif" font-size="14.00" fill="#000000">PopoverModule </text>
</g>
<!-- RebirthNGModule&#45;&gt;PopoverModule  -->
<g id="edge42" class="edge">
<title>RebirthNGModule&#45;&gt;PopoverModule </title>
<path fill="none" stroke="#000000" stroke-dasharray="5,2" d="M2138.8221,-186C2159.564,-186 2177.625,-186 2177.625,-186 2177.625,-186 2177.625,-205.8533 2177.625,-205.8533"/>
<polygon fill="#000000" stroke="#000000" points="2174.1251,-205.8532 2177.625,-215.8533 2181.1251,-205.8533 2174.1251,-205.8532"/>
</g>
<!-- DatePickerModule  -->
<g id="node44" class="node">
<title>DatePickerModule </title>
<polygon fill="#fb8072" stroke="#000000" points="2140.7394,-252 2015.2606,-252 2015.2606,-216 2140.7394,-216 2140.7394,-252"/>
<text text-anchor="middle" x="2078" y="-229.8" font-family="Times,serif" font-size="14.00" fill="#000000">DatePickerModule </text>
</g>
<!-- RebirthNGModule&#45;&gt;DatePickerModule  -->
<g id="edge43" class="edge">
<title>RebirthNGModule&#45;&gt;DatePickerModule </title>
<path fill="none" stroke="#000000" stroke-dasharray="5,2" d="M2078,-187.1061C2078,-187.1061 2078,-205.991 2078,-205.991"/>
<polygon fill="#000000" stroke="#000000" points="2074.5001,-205.9909 2078,-215.991 2081.5001,-205.991 2074.5001,-205.9909"/>
</g>
<!-- BreadcrumbsModule  -->
<g id="node45" class="node">
<title>BreadcrumbsModule </title>
<polygon fill="#fb8072" stroke="#000000" points="1997.687,-252 1860.313,-252 1860.313,-216 1997.687,-216 1997.687,-252"/>
<text text-anchor="middle" x="1929" y="-229.8" font-family="Times,serif" font-size="14.00" fill="#000000">BreadcrumbsModule </text>
</g>
<!-- RebirthNGModule&#45;&gt;BreadcrumbsModule  -->
<g id="edge44" class="edge">
<title>RebirthNGModule&#45;&gt;BreadcrumbsModule </title>
<path fill="none" stroke="#000000" stroke-dasharray="5,2" d="M2017.1872,-186C1994.6553,-186 1974.4869,-186 1974.4869,-186 1974.4869,-186 1974.4869,-205.8533 1974.4869,-205.8533"/>
<polygon fill="#000000" stroke="#000000" points="1970.9869,-205.8532 1974.4869,-215.8533 1977.9869,-205.8533 1970.9869,-205.8532"/>
</g>
<!-- ProgressBarModule  -->
<g id="node46" class="node">
<title>ProgressBarModule </title>
<polygon fill="#fb8072" stroke="#000000" points="1841.97,-252 1710.03,-252 1710.03,-216 1841.97,-216 1841.97,-252"/>
<text text-anchor="middle" x="1776" y="-229.8" font-family="Times,serif" font-size="14.00" fill="#000000">ProgressBarModule </text>
</g>
<!-- RebirthNGModule&#45;&gt;ProgressBarModule  -->
<g id="edge45" class="edge">
<title>RebirthNGModule&#45;&gt;ProgressBarModule </title>
<path fill="none" stroke="#000000" stroke-dasharray="5,2" d="M2016.9336,-185C1940.7343,-185 1820.3207,-185 1820.3207,-185 1820.3207,-185 1820.3207,-205.7542 1820.3207,-205.7542"/>
<polygon fill="#000000" stroke="#000000" points="1816.8207,-205.7542 1820.3207,-215.7542 1823.8207,-205.7542 1816.8207,-205.7542"/>
</g>
<!-- SelectButtonModule  -->
<g id="node47" class="node">
<title>SelectButtonModule </title>
<polygon fill="#fb8072" stroke="#000000" points="1692.8757,-252 1557.1243,-252 1557.1243,-216 1692.8757,-216 1692.8757,-252"/>
<text text-anchor="middle" x="1625" y="-229.8" font-family="Times,serif" font-size="14.00" fill="#000000">SelectButtonModule </text>
</g>
<!-- RebirthNGModule&#45;&gt;SelectButtonModule  -->
<g id="edge46" class="edge">
<title>RebirthNGModule&#45;&gt;SelectButtonModule </title>
<path fill="none" stroke="#000000" stroke-dasharray="5,2" d="M2016.9065,-184C1903.7246,-184 1672.8515,-184 1672.8515,-184 1672.8515,-184 1672.8515,-205.9489 1672.8515,-205.9489"/>
<polygon fill="#000000" stroke="#000000" points="1669.3516,-205.9488 1672.8515,-215.9489 1676.3516,-205.9489 1669.3516,-205.9488"/>
</g>
<!-- OverlayModule  -->
<g id="node48" class="node">
<title>OverlayModule </title>
<polygon fill="#fb8072" stroke="#000000" points="1539.1369,-252 1430.8631,-252 1430.8631,-216 1539.1369,-216 1539.1369,-252"/>
<text text-anchor="middle" x="1485" y="-229.8" font-family="Times,serif" font-size="14.00" fill="#000000">OverlayModule </text>
</g>
<!-- RebirthNGModule&#45;&gt;OverlayModule  -->
<g id="edge47" class="edge">
<title>RebirthNGModule&#45;&gt;OverlayModule </title>
<path fill="none" stroke="#000000" stroke-dasharray="5,2" d="M2017.0718,-182C1872.5606,-182 1521.0654,-182 1521.0654,-182 1521.0654,-182 1521.0654,-205.8129 1521.0654,-205.8129"/>
<polygon fill="#000000" stroke="#000000" points="1517.5655,-205.8129 1521.0654,-215.8129 1524.5655,-205.813 1517.5655,-205.8129"/>
</g>
<!-- CarouselModule  -->
<g id="node49" class="node">
<title>CarouselModule </title>
<polygon fill="#fb8072" stroke="#000000" points="1413.3116,-252 1300.6884,-252 1300.6884,-216 1413.3116,-216 1413.3116,-252"/>
<text text-anchor="middle" x="1357" y="-229.8" font-family="Times,serif" font-size="14.00" fill="#000000">CarouselModule </text>
</g>
<!-- RebirthNGModule&#45;&gt;CarouselModule  -->
<g id="edge48" class="edge">
<title>RebirthNGModule&#45;&gt;CarouselModule </title>
<path fill="none" stroke="#000000" stroke-dasharray="5,2" d="M2016.9704,-181C1849.8289,-181 1397.0437,-181 1397.0437,-181 1397.0437,-181 1397.0437,-205.7604 1397.0437,-205.7604"/>
<polygon fill="#000000" stroke="#000000" points="1393.5437,-205.7604 1397.0437,-215.7604 1400.5437,-205.7604 1393.5437,-205.7604"/>
</g>
<!-- SwitchModule  -->
<g id="node50" class="node">
<title>SwitchModule </title>
<polygon fill="#fb8072" stroke="#000000" points="1282.9348,-252 1181.0652,-252 1181.0652,-216 1282.9348,-216 1282.9348,-252"/>
<text text-anchor="middle" x="1232" y="-229.8" font-family="Times,serif" font-size="14.00" fill="#000000">SwitchModule </text>
</g>
<!-- RebirthNGModule&#45;&gt;SwitchModule  -->
<g id="edge49" class="edge">
<title>RebirthNGModule&#45;&gt;SwitchModule </title>
<path fill="none" stroke="#000000" stroke-dasharray="5,2" d="M2017.1301,-180C1828.7915,-180 1268.1559,-180 1268.1559,-180 1268.1559,-180 1268.1559,-205.7181 1268.1559,-205.7181"/>
<polygon fill="#000000" stroke="#000000" points="1264.6559,-205.718 1268.1559,-215.7181 1271.6559,-205.7181 1264.6559,-205.718"/>
</g>
<!-- MenuBarModule  -->
<g id="node51" class="node">
<title>MenuBarModule </title>
<polygon fill="#fb8072" stroke="#000000" points="1162.9208,-252 1047.0792,-252 1047.0792,-216 1162.9208,-216 1162.9208,-252"/>
<text text-anchor="middle" x="1105" y="-229.8" font-family="Times,serif" font-size="14.00" fill="#000000">MenuBarModule </text>
</g>
<!-- RebirthNGModule&#45;&gt;MenuBarModule  -->
<g id="edge50" class="edge">
<title>RebirthNGModule&#45;&gt;MenuBarModule </title>
<path fill="none" stroke="#000000" stroke-dasharray="5,2" d="M2017.1029,-178C1810.6192,-178 1149.8715,-178 1149.8715,-178 1149.8715,-178 1149.8715,-205.973 1149.8715,-205.973"/>
<polygon fill="#000000" stroke="#000000" points="1146.3716,-205.973 1149.8715,-215.973 1153.3716,-205.973 1146.3716,-205.973"/>
</g>
<!-- AutoCompleteModule  -->
<g id="node52" class="node">
<title>AutoCompleteModule </title>
<polygon fill="#fb8072" stroke="#000000" points="1028.9854,-252 883.0146,-252 883.0146,-216 1028.9854,-216 1028.9854,-252"/>
<text text-anchor="middle" x="956" y="-229.8" font-family="Times,serif" font-size="14.00" fill="#000000">AutoCompleteModule </text>
</g>
<!-- RebirthNGModule&#45;&gt;AutoCompleteModule  -->
<g id="edge51" class="edge">
<title>RebirthNGModule&#45;&gt;AutoCompleteModule </title>
<path fill="none" stroke="#000000" stroke-dasharray="5,2" d="M2017.1892,-177C1791.9032,-177 1017.766,-177 1017.766,-177 1017.766,-177 1017.766,-205.9648 1017.766,-205.9648"/>
<polygon fill="#000000" stroke="#000000" points="1014.266,-205.9648 1017.766,-215.9648 1021.266,-205.9649 1014.266,-205.9648"/>
</g>
<!-- FlowStepModule  -->
<g id="node53" class="node">
<title>FlowStepModule </title>
<polygon fill="#fb8072" stroke="#000000" points="865.2177,-252 748.7823,-252 748.7823,-216 865.2177,-216 865.2177,-252"/>
<text text-anchor="middle" x="807" y="-229.8" font-family="Times,serif" font-size="14.00" fill="#000000">FlowStepModule </text>
</g>
<!-- RebirthNGModule&#45;&gt;FlowStepModule  -->
<g id="edge52" class="edge">
<title>RebirthNGModule&#45;&gt;FlowStepModule </title>
<path fill="none" stroke="#000000" stroke-dasharray="5,2" d="M2016.9919,-176C1769.8405,-176 856.1832,-176 856.1832,-176 856.1832,-176 856.1832,-205.9664 856.1832,-205.9664"/>
<polygon fill="#000000" stroke="#000000" points="852.6833,-205.9663 856.1832,-215.9664 859.6833,-205.9664 852.6833,-205.9663"/>
</g>
<!-- InfiniteScrollModule  -->
<g id="node54" class="node">
<title>InfiniteScrollModule </title>
<polygon fill="#fb8072" stroke="#000000" points="730.6967,-252 593.3033,-252 593.3033,-216 730.6967,-216 730.6967,-252"/>
<text text-anchor="middle" x="662" y="-229.8" font-family="Times,serif" font-size="14.00" fill="#000000">InfiniteScrollModule </text>
</g>
<!-- RebirthNGModule&#45;&gt;InfiniteScrollModule  -->
<g id="edge53" class="edge">
<title>RebirthNGModule&#45;&gt;InfiniteScrollModule </title>
<path fill="none" stroke="#000000" stroke-dasharray="5,2" d="M2017.1515,-175C1753.5152,-175 723.1198,-175 723.1198,-175 723.1198,-175 723.1198,-205.9775 723.1198,-205.9775"/>
<polygon fill="#000000" stroke="#000000" points="719.6198,-205.9774 723.1198,-215.9775 726.6198,-205.9775 719.6198,-205.9774"/>
</g>
<!-- DataTableModule  -->
<g id="node55" class="node">
<title>DataTableModule </title>
<polygon fill="#fb8072" stroke="#000000" points="574.8491,-252 453.1509,-252 453.1509,-216 574.8491,-216 574.8491,-252"/>
<text text-anchor="middle" x="514" y="-229.8" font-family="Times,serif" font-size="14.00" fill="#000000">DataTableModule </text>
</g>
<!-- RebirthNGModule&#45;&gt;DataTableModule  -->
<g id="edge54" class="edge">
<title>RebirthNGModule&#45;&gt;DataTableModule </title>
<path fill="none" stroke="#000000" stroke-dasharray="5,2" d="M2016.9679,-173C1734.6184,-173 568.7881,-173 568.7881,-173 568.7881,-173 568.7881,-205.698 568.7881,-205.698"/>
<polygon fill="#000000" stroke="#000000" points="565.2881,-205.698 568.7881,-215.698 572.2881,-205.698 565.2881,-205.698"/>
</g>
<!-- DraggableModule  -->
<g id="node56" class="node">
<title>DraggableModule </title>
<polygon fill="#fb8072" stroke="#000000" points="435.8519,-252 314.1481,-252 314.1481,-216 435.8519,-216 435.8519,-252"/>
<text text-anchor="middle" x="375" y="-229.8" font-family="Times,serif" font-size="14.00" fill="#000000">DraggableModule </text>
</g>
<!-- RebirthNGModule&#45;&gt;DraggableModule  -->
<g id="edge55" class="edge">
<title>RebirthNGModule&#45;&gt;DraggableModule </title>
<path fill="none" stroke="#000000" stroke-dasharray="5,2" d="M2016.9502,-172C1718.9477,-172 431.3757,-172 431.3757,-172 431.3757,-172 431.3757,-205.7333 431.3757,-205.7333"/>
<polygon fill="#000000" stroke="#000000" points="427.8758,-205.7333 431.3757,-215.7333 434.8758,-205.7333 427.8758,-205.7333"/>
</g>
<!-- FileUploadModule  -->
<g id="node57" class="node">
<title>FileUploadModule </title>
<polygon fill="#fb8072" stroke="#000000" points="296.04,-252 169.96,-252 169.96,-216 296.04,-216 296.04,-252"/>
<text text-anchor="middle" x="233" y="-229.8" font-family="Times,serif" font-size="14.00" fill="#000000">FileUploadModule </text>
</g>
<!-- RebirthNGModule&#45;&gt;FileUploadModule  -->
<g id="edge56" class="edge">
<title>RebirthNGModule&#45;&gt;FileUploadModule </title>
<path fill="none" stroke="#000000" stroke-dasharray="5,2" d="M2017.0172,-171C1703.8911,-171 291.375,-171 291.375,-171 291.375,-171 291.375,-205.7778 291.375,-205.7778"/>
<polygon fill="#000000" stroke="#000000" points="287.8751,-205.7778 291.375,-215.7778 294.8751,-205.7778 287.8751,-205.7778"/>
</g>
<!-- TimePickerModule  -->
<g id="node58" class="node">
<title>TimePickerModule </title>
<polygon fill="#fb8072" stroke="#000000" points="152.3617,-252 23.6383,-252 23.6383,-216 152.3617,-216 152.3617,-252"/>
<text text-anchor="middle" x="88" y="-229.8" font-family="Times,serif" font-size="14.00" fill="#000000">TimePickerModule </text>
</g>
<!-- RebirthNGModule&#45;&gt;TimePickerModule  -->
<g id="edge57" class="edge">
<title>RebirthNGModule&#45;&gt;TimePickerModule </title>
<path fill="none" stroke="#000000" stroke-dasharray="5,2" d="M2017.0474,-169C1688.964,-169 147.875,-169 147.875,-169 147.875,-169 147.875,-205.8939 147.875,-205.8939"/>
<polygon fill="#000000" stroke="#000000" points="144.3751,-205.8938 147.875,-215.8939 151.3751,-205.8939 144.3751,-205.8938"/>
</g>
</g>
</svg>
