<?xml version="1.0" encoding="UTF-8" standalone="no"?>
<!DOCTYPE svg PUBLIC "-//W3C//DTD SVG 1.1//EN"
 "http://www.w3.org/Graphics/SVG/1.1/DTD/svg11.dtd">
<!-- Generated by graphviz version 2.38.0 (20140413.2041)
 -->
<!-- Title: dependencies Pages: 1 -->
<svg width="3827pt" height="284pt"
 viewBox="0.00 0.00 3827.00 284.00" xmlns="http://www.w3.org/2000/svg" xmlns:xlink="http://www.w3.org/1999/xlink">
<g id="graph0" class="graph" transform="scale(1 1) rotate(0) translate(4 280)">
<title>dependencies</title>
<polygon fill="white" stroke="none" points="-4,4 -4,-280 3823,-280 3823,4 -4,4"/>
<text text-anchor="start" x="1888.51" y="-42.4" font-family="sans-serif" font-weight="bold" font-size="14.00">Legend</text>
<polygon fill="#ffffb3" stroke="none" points="1675.5,-10 1675.5,-30 1695.5,-30 1695.5,-10 1675.5,-10"/>
<text text-anchor="start" x="1699.13" y="-15.4" font-family="sans-serif" font-size="14.00"> &#160;Declarations</text>
<polygon fill="#8dd3c7" stroke="none" points="1788.5,-10 1788.5,-30 1808.5,-30 1808.5,-10 1788.5,-10"/>
<text text-anchor="start" x="1812.23" y="-15.4" font-family="sans-serif" font-size="14.00"> &#160;Module</text>
<polygon fill="#80b1d3" stroke="none" points="1874.5,-10 1874.5,-30 1894.5,-30 1894.5,-10 1874.5,-10"/>
<text text-anchor="start" x="1898.28" y="-15.4" font-family="sans-serif" font-size="14.00"> &#160;Bootstrap</text>
<polygon fill="#fdb462" stroke="none" points="1971.5,-10 1971.5,-30 1991.5,-30 1991.5,-10 1971.5,-10"/>
<text text-anchor="start" x="1995.17" y="-15.4" font-family="sans-serif" font-size="14.00"> &#160;Providers</text>
<polygon fill="#fb8072" stroke="none" points="2067.5,-10 2067.5,-30 2087.5,-30 2087.5,-10 2067.5,-10"/>
<text text-anchor="start" x="2091.23" y="-15.4" font-family="sans-serif" font-size="14.00"> &#160;Exports</text>
<g id="clust1" class="cluster"><title>cluster_RebirthNGModule</title>
<polygon fill="none" stroke="black" stroke-dasharray="1,5" points="8,-70 8,-268 3811,-268 3811,-70 8,-70"/>
</g>
<g id="clust3" class="cluster"><title>cluster_RebirthNGModule_imports</title>
<polygon fill="none" stroke="black" points="134,-78 134,-130 3689,-130 3689,-78 134,-78"/>
</g>
<g id="clust4" class="cluster"><title>cluster_RebirthNGModule_exports</title>
<polygon fill="none" stroke="black" points="16,-208 16,-260 3803,-260 3803,-208 16,-208"/>
</g>
<!-- RebirthCommonModule -->
<g id="node1" class="node"><title>RebirthCommonModule</title>
<polygon fill="#8dd3c7" stroke="black" points="3680.66,-122 3677.66,-126 3656.66,-126 3653.66,-122 3527.34,-122 3527.34,-86 3680.66,-86 3680.66,-122"/>
<text text-anchor="middle" x="3604" y="-99.8" font-family="Times,serif" font-size="14.00">RebirthCommonModule</text>
</g>
<!-- RebirthNGModule -->
<g id="node28" class="node"><title>RebirthNGModule</title>
<polygon fill="#8dd3c7" stroke="black" points="2059.76,-187 2056.76,-191 2035.76,-191 2032.76,-187 1938.24,-187 1938.24,-151 2059.76,-151 2059.76,-187"/>
<text text-anchor="middle" x="1999" y="-164.8" font-family="Times,serif" font-size="14.00">RebirthNGModule</text>
</g>
<!-- RebirthCommonModule&#45;&gt;RebirthNGModule -->
<g id="edge1" class="edge"><title>RebirthCommonModule&#45;&gt;RebirthNGModule</title>
<path fill="none" stroke="black" d="M3558.05,-122.169C3558.05,-141.09 3558.05,-168 3558.05,-168 3558.05,-168 2070.12,-168 2070.12,-168"/>
<polygon fill="black" stroke="black" points="2070.12,-164.5 2060.12,-168 2070.12,-171.5 2070.12,-164.5"/>
</g>
<!-- ModalModule -->
<g id="node2" class="node"><title>ModalModule</title>
<polygon fill="#8dd3c7" stroke="black" points="3509.1,-122 3506.1,-126 3485.1,-126 3482.1,-122 3412.9,-122 3412.9,-86 3509.1,-86 3509.1,-122"/>
<text text-anchor="middle" x="3461" y="-99.8" font-family="Times,serif" font-size="14.00">ModalModule</text>
</g>
<!-- ModalModule&#45;&gt;RebirthNGModule -->
<g id="edge2" class="edge"><title>ModalModule&#45;&gt;RebirthNGModule</title>
<path fill="none" stroke="black" d="M3457.76,-122.222C3457.76,-140.829 3457.76,-167 3457.76,-167 3457.76,-167 2069.82,-167 2069.82,-167"/>
<polygon fill="black" stroke="black" points="2069.82,-163.5 2059.82,-167 2069.82,-170.5 2069.82,-163.5"/>
</g>
<!-- DialogModule -->
<g id="node3" class="node"><title>DialogModule</title>
<polygon fill="#8dd3c7" stroke="black" points="3394.65,-122 3391.65,-126 3370.65,-126 3367.65,-122 3297.35,-122 3297.35,-86 3394.65,-86 3394.65,-122"/>
<text text-anchor="middle" x="3346" y="-99.8" font-family="Times,serif" font-size="14.00">DialogModule</text>
</g>
<!-- DialogModule&#45;&gt;RebirthNGModule -->
<g id="edge3" class="edge"><title>DialogModule&#45;&gt;RebirthNGModule</title>
<path fill="none" stroke="black" d="M3340.32,-122.302C3340.32,-140.27 3340.32,-165 3340.32,-165 3340.32,-165 2070.12,-165 2070.12,-165"/>
<polygon fill="black" stroke="black" points="2070.12,-161.5 2060.12,-165 2070.12,-168.5 2070.12,-161.5"/>
</g>
<!-- PagerModule -->
<g id="node4" class="node"><title>PagerModule</title>
<polygon fill="#8dd3c7" stroke="black" points="3278.92,-122 3275.92,-126 3254.92,-126 3251.92,-122 3187.08,-122 3187.08,-86 3278.92,-86 3278.92,-122"/>
<text text-anchor="middle" x="3233" y="-99.8" font-family="Times,serif" font-size="14.00">PagerModule</text>
</g>
<!-- PagerModule&#45;&gt;RebirthNGModule -->
<g id="edge4" class="edge"><title>PagerModule&#45;&gt;RebirthNGModule</title>
<path fill="none" stroke="black" d="M3228.88,-122.002C3228.88,-139.675 3228.88,-164 3228.88,-164 3228.88,-164 2069.99,-164 2069.99,-164"/>
<polygon fill="black" stroke="black" points="2069.99,-160.5 2059.99,-164 2069.99,-167.5 2069.99,-160.5"/>
</g>
<!-- PaginationModule -->
<g id="node5" class="node"><title>PaginationModule</title>
<polygon fill="#8dd3c7" stroke="black" points="3169.93,-122 3166.93,-126 3145.93,-126 3142.93,-122 3050.07,-122 3050.07,-86 3169.93,-86 3169.93,-122"/>
<text text-anchor="middle" x="3110" y="-99.8" font-family="Times,serif" font-size="14.00">PaginationModule</text>
</g>
<!-- PaginationModule&#45;&gt;RebirthNGModule -->
<g id="edge5" class="edge"><title>PaginationModule&#45;&gt;RebirthNGModule</title>
<path fill="none" stroke="black" d="M3089.93,-122.023C3089.93,-139.373 3089.93,-163 3089.93,-163 3089.93,-163 2069.99,-163 2069.99,-163"/>
<polygon fill="black" stroke="black" points="2069.99,-159.5 2059.99,-163 2069.99,-166.5 2069.99,-159.5"/>
</g>
<!-- AlertBoxModule -->
<g id="node6" class="node"><title>AlertBoxModule</title>
<polygon fill="#8dd3c7" stroke="black" points="3031.65,-122 3028.65,-126 3007.65,-126 3004.65,-122 2920.35,-122 2920.35,-86 3031.65,-86 3031.65,-122"/>
<text text-anchor="middle" x="2976" y="-99.8" font-family="Times,serif" font-size="14.00">AlertBoxModule</text>
</g>
<!-- AlertBoxModule&#45;&gt;RebirthNGModule -->
<g id="edge6" class="edge"><title>AlertBoxModule&#45;&gt;RebirthNGModule</title>
<path fill="none" stroke="black" d="M2958.29,-122.035C2958.29,-138.734 2958.29,-161 2958.29,-161 2958.29,-161 2070.1,-161 2070.1,-161"/>
<polygon fill="black" stroke="black" points="2070.1,-157.5 2060.1,-161 2070.1,-164.5 2070.1,-157.5"/>
</g>
<!-- BadgeModule -->
<g id="node7" class="node"><title>BadgeModule</title>
<polygon fill="#8dd3c7" stroke="black" points="2902.82,-122 2899.82,-126 2878.82,-126 2875.82,-122 2807.18,-122 2807.18,-86 2902.82,-86 2902.82,-122"/>
<text text-anchor="middle" x="2855" y="-99.8" font-family="Times,serif" font-size="14.00">BadgeModule</text>
</g>
<!-- BadgeModule&#45;&gt;RebirthNGModule -->
<g id="edge7" class="edge"><title>BadgeModule&#45;&gt;RebirthNGModule</title>
<path fill="none" stroke="black" d="M2843.71,-122.027C2843.71,-138.398 2843.71,-160 2843.71,-160 2843.71,-160 2070.09,-160 2070.09,-160"/>
<polygon fill="black" stroke="black" points="2070.09,-156.5 2060.09,-160 2070.09,-163.5 2070.09,-156.5"/>
</g>
<!-- PanelModule -->
<g id="node8" class="node"><title>PanelModule</title>
<polygon fill="#8dd3c7" stroke="black" points="2789.15,-122 2786.15,-126 2765.15,-126 2762.15,-122 2698.85,-122 2698.85,-86 2789.15,-86 2789.15,-122"/>
<text text-anchor="middle" x="2744" y="-99.8" font-family="Times,serif" font-size="14.00">PanelModule</text>
</g>
<!-- PanelModule&#45;&gt;RebirthNGModule -->
<g id="edge8" class="edge"><title>PanelModule&#45;&gt;RebirthNGModule</title>
<path fill="none" stroke="black" d="M2733.37,-122.282C2733.37,-137.948 2733.37,-158 2733.37,-158 2733.37,-158 2070.03,-158 2070.03,-158"/>
<polygon fill="black" stroke="black" points="2070.03,-154.5 2060.03,-158 2070.03,-161.5 2070.03,-154.5"/>
</g>
<!-- AccordionModule -->
<g id="node9" class="node"><title>AccordionModule</title>
<polygon fill="#8dd3c7" stroke="black" points="2680.14,-122 2677.14,-126 2656.14,-126 2653.14,-122 2561.86,-122 2561.86,-86 2680.14,-86 2680.14,-122"/>
<text text-anchor="middle" x="2621" y="-99.8" font-family="Times,serif" font-size="14.00">AccordionModule</text>
</g>
<!-- AccordionModule&#45;&gt;RebirthNGModule -->
<g id="edge9" class="edge"><title>AccordionModule&#45;&gt;RebirthNGModule</title>
<path fill="none" stroke="black" d="M2594.66,-122.24C2594.66,-137.571 2594.66,-157 2594.66,-157 2594.66,-157 2069.95,-157 2069.95,-157"/>
<polygon fill="black" stroke="black" points="2069.95,-153.5 2059.95,-157 2069.95,-160.5 2069.95,-153.5"/>
</g>
<!-- ActionButtonModule -->
<g id="node10" class="node"><title>ActionButtonModule</title>
<polygon fill="#8dd3c7" stroke="black" points="2543.77,-122 2540.77,-126 2519.77,-126 2516.77,-122 2408.23,-122 2408.23,-86 2543.77,-86 2543.77,-122"/>
<text text-anchor="middle" x="2476" y="-99.8" font-family="Times,serif" font-size="14.00">ActionButtonModule</text>
</g>
<!-- ActionButtonModule&#45;&gt;RebirthNGModule -->
<g id="edge10" class="edge"><title>ActionButtonModule&#45;&gt;RebirthNGModule</title>
<path fill="none" stroke="black" d="M2439.15,-122.187C2439.15,-137.182 2439.15,-156 2439.15,-156 2439.15,-156 2070.2,-156 2070.2,-156"/>
<polygon fill="black" stroke="black" points="2070.2,-152.5 2060.2,-156 2070.2,-159.5 2070.2,-152.5"/>
</g>
<!-- RatingModule -->
<g id="node11" class="node"><title>RatingModule</title>
<polygon fill="#8dd3c7" stroke="black" points="2390.38,-122 2387.38,-126 2366.38,-126 2363.38,-122 2293.62,-122 2293.62,-86 2390.38,-86 2390.38,-122"/>
<text text-anchor="middle" x="2342" y="-99.8" font-family="Times,serif" font-size="14.00">RatingModule</text>
</g>
<!-- RatingModule&#45;&gt;RebirthNGModule -->
<g id="edge11" class="edge"><title>RatingModule&#45;&gt;RebirthNGModule</title>
<path fill="none" stroke="black" d="M2322.84,-122.051C2322.84,-136.373 2322.84,-154 2322.84,-154 2322.84,-154 2069.91,-154 2069.91,-154"/>
<polygon fill="black" stroke="black" points="2069.91,-150.5 2059.91,-154 2069.91,-157.5 2069.91,-150.5"/>
</g>
<!-- TabsModule -->
<g id="node12" class="node"><title>TabsModule</title>
<polygon fill="#8dd3c7" stroke="black" points="2275.26,-122 2272.26,-126 2251.26,-126 2248.26,-122 2188.74,-122 2188.74,-86 2275.26,-86 2275.26,-122"/>
<text text-anchor="middle" x="2232" y="-99.8" font-family="Times,serif" font-size="14.00">TabsModule</text>
</g>
<!-- TabsModule&#45;&gt;RebirthNGModule -->
<g id="edge12" class="edge"><title>TabsModule&#45;&gt;RebirthNGModule</title>
<path fill="none" stroke="black" d="M2216.38,-122.246C2216.38,-136.177 2216.38,-153 2216.38,-153 2216.38,-153 2069.84,-153 2069.84,-153"/>
<polygon fill="black" stroke="black" points="2069.84,-149.5 2059.84,-153 2069.84,-156.5 2069.84,-149.5"/>
</g>
<!-- TooltipModule -->
<g id="node13" class="node"><title>TooltipModule</title>
<polygon fill="#8dd3c7" stroke="black" points="2170.27,-122 2167.27,-126 2146.27,-126 2143.27,-122 2069.73,-122 2069.73,-86 2170.27,-86 2170.27,-122"/>
<text text-anchor="middle" x="2120" y="-99.8" font-family="Times,serif" font-size="14.00">TooltipModule</text>
</g>
<!-- TooltipModule&#45;&gt;RebirthNGModule -->
<g id="edge13" class="edge"><title>TooltipModule&#45;&gt;RebirthNGModule</title>
<path fill="none" stroke="black" d="M2069.57,-104C2061.63,-104 2055.99,-104 2055.99,-104 2055.99,-104 2055.99,-140.894 2055.99,-140.894"/>
<polygon fill="black" stroke="black" points="2052.49,-140.894 2055.99,-150.894 2059.49,-140.894 2052.49,-140.894"/>
</g>
<!-- PopoverModule -->
<g id="node14" class="node"><title>PopoverModule</title>
<polygon fill="#8dd3c7" stroke="black" points="2052.21,-122 2049.21,-126 2028.21,-126 2025.21,-122 1945.79,-122 1945.79,-86 2052.21,-86 2052.21,-122"/>
<text text-anchor="middle" x="1999" y="-99.8" font-family="Times,serif" font-size="14.00">PopoverModule</text>
</g>
<!-- PopoverModule&#45;&gt;RebirthNGModule -->
<g id="edge14" class="edge"><title>PopoverModule&#45;&gt;RebirthNGModule</title>
<path fill="none" stroke="black" d="M1999,-122.106C1999,-122.106 1999,-140.991 1999,-140.991"/>
<polygon fill="black" stroke="black" points="1995.5,-140.991 1999,-150.991 2002.5,-140.991 1995.5,-140.991"/>
</g>
<!-- DatePickerModule -->
<g id="node15" class="node"><title>DatePickerModule</title>
<polygon fill="#8dd3c7" stroke="black" points="1927.74,-122 1924.74,-126 1903.74,-126 1900.74,-122 1806.26,-122 1806.26,-86 1927.74,-86 1927.74,-122"/>
<text text-anchor="middle" x="1867" y="-99.8" font-family="Times,serif" font-size="14.00">DatePickerModule</text>
</g>
<!-- DatePickerModule&#45;&gt;RebirthNGModule -->
<g id="edge15" class="edge"><title>DatePickerModule&#45;&gt;RebirthNGModule</title>
<path fill="none" stroke="black" d="M1927.9,-104C1936.24,-104 1942.01,-104 1942.01,-104 1942.01,-104 1942.01,-140.894 1942.01,-140.894"/>
<polygon fill="black" stroke="black" points="1938.51,-140.894 1942.01,-150.894 1945.51,-140.894 1938.51,-140.894"/>
</g>
<!-- BreadcrumbsModule -->
<g id="node16" class="node"><title>BreadcrumbsModule</title>
<polygon fill="#8dd3c7" stroke="black" points="1788.19,-122 1785.19,-126 1764.19,-126 1761.19,-122 1653.81,-122 1653.81,-86 1788.19,-86 1788.19,-122"/>
<text text-anchor="middle" x="1721" y="-99.8" font-family="Times,serif" font-size="14.00">BreadcrumbsModule</text>
</g>
<!-- BreadcrumbsModule&#45;&gt;RebirthNGModule -->
<g id="edge16" class="edge"><title>BreadcrumbsModule&#45;&gt;RebirthNGModule</title>
<path fill="none" stroke="black" d="M1751.12,-122.246C1751.12,-136.177 1751.12,-153 1751.12,-153 1751.12,-153 1928.05,-153 1928.05,-153"/>
<polygon fill="black" stroke="black" points="1928.05,-156.5 1938.05,-153 1928.05,-149.5 1928.05,-156.5"/>
</g>
<!-- ProgressBarModule -->
<g id="node17" class="node"><title>ProgressBarModule</title>
<polygon fill="#8dd3c7" stroke="black" points="1635.97,-122 1632.97,-126 1611.97,-126 1608.97,-122 1508.03,-122 1508.03,-86 1635.97,-86 1635.97,-122"/>
<text text-anchor="middle" x="1572" y="-99.8" font-family="Times,serif" font-size="14.00">ProgressBarModule</text>
</g>
<!-- ProgressBarModule&#45;&gt;RebirthNGModule -->
<g id="edge17" class="edge"><title>ProgressBarModule&#45;&gt;RebirthNGModule</title>
<path fill="none" stroke="black" d="M1600.12,-122.051C1600.12,-136.373 1600.12,-154 1600.12,-154 1600.12,-154 1927.99,-154 1927.99,-154"/>
<polygon fill="black" stroke="black" points="1927.99,-157.5 1937.99,-154 1927.99,-150.5 1927.99,-157.5"/>
</g>
<!-- SelectButtonModule -->
<g id="node18" class="node"><title>SelectButtonModule</title>
<polygon fill="#8dd3c7" stroke="black" points="1489.88,-122 1486.88,-126 1465.88,-126 1462.88,-122 1358.12,-122 1358.12,-86 1489.88,-86 1489.88,-122"/>
<text text-anchor="middle" x="1424" y="-99.8" font-family="Times,serif" font-size="14.00">SelectButtonModule</text>
</g>
<!-- SelectButtonModule&#45;&gt;RebirthNGModule -->
<g id="edge18" class="edge"><title>SelectButtonModule&#45;&gt;RebirthNGModule</title>
<path fill="none" stroke="black" d="M1450.62,-122.187C1450.62,-137.182 1450.62,-156 1450.62,-156 1450.62,-156 1928.22,-156 1928.22,-156"/>
<polygon fill="black" stroke="black" points="1928.22,-159.5 1938.22,-156 1928.22,-152.5 1928.22,-159.5"/>
</g>
<!-- OverlayModule -->
<g id="node19" class="node"><title>OverlayModule</title>
<polygon fill="#8dd3c7" stroke="black" points="1340.14,-122 1337.14,-126 1316.14,-126 1313.14,-122 1235.86,-122 1235.86,-86 1340.14,-86 1340.14,-122"/>
<text text-anchor="middle" x="1288" y="-99.8" font-family="Times,serif" font-size="14.00">OverlayModule</text>
</g>
<!-- OverlayModule&#45;&gt;RebirthNGModule -->
<g id="edge19" class="edge"><title>OverlayModule&#45;&gt;RebirthNGModule</title>
<path fill="none" stroke="black" d="M1312.62,-122.24C1312.62,-137.571 1312.62,-157 1312.62,-157 1312.62,-157 1928.09,-157 1928.09,-157"/>
<polygon fill="black" stroke="black" points="1928.09,-160.5 1938.09,-157 1928.09,-153.5 1928.09,-160.5"/>
</g>
<!-- CarouselModule -->
<g id="node20" class="node"><title>CarouselModule</title>
<polygon fill="#8dd3c7" stroke="black" points="1217.81,-122 1214.81,-126 1193.81,-126 1190.81,-122 1108.19,-122 1108.19,-86 1217.81,-86 1217.81,-122"/>
<text text-anchor="middle" x="1163" y="-99.8" font-family="Times,serif" font-size="14.00">CarouselModule</text>
</g>
<!-- CarouselModule&#45;&gt;RebirthNGModule -->
<g id="edge20" class="edge"><title>CarouselModule&#45;&gt;RebirthNGModule</title>
<path fill="none" stroke="black" d="M1186.12,-122.282C1186.12,-137.948 1186.12,-158 1186.12,-158 1186.12,-158 1928.23,-158 1928.23,-158"/>
<polygon fill="black" stroke="black" points="1928.23,-161.5 1938.23,-158 1928.23,-154.5 1928.23,-161.5"/>
</g>
<!-- SwitchModule -->
<g id="node21" class="node"><title>SwitchModule</title>
<polygon fill="#8dd3c7" stroke="black" points="1090.44,-122 1087.44,-126 1066.44,-126 1063.44,-122 991.564,-122 991.564,-86 1090.44,-86 1090.44,-122"/>
<text text-anchor="middle" x="1041" y="-99.8" font-family="Times,serif" font-size="14.00">SwitchModule</text>
</g>
<!-- SwitchModule&#45;&gt;RebirthNGModule -->
<g id="edge21" class="edge"><title>SwitchModule&#45;&gt;RebirthNGModule</title>
<path fill="none" stroke="black" d="M1062.62,-122.027C1062.62,-138.398 1062.62,-160 1062.62,-160 1062.62,-160 1927.92,-160 1927.92,-160"/>
<polygon fill="black" stroke="black" points="1927.92,-163.5 1937.92,-160 1927.92,-156.5 1927.92,-163.5"/>
</g>
<!-- MenuBarModule -->
<g id="node22" class="node"><title>MenuBarModule</title>
<polygon fill="#8dd3c7" stroke="black" points="974.422,-122 971.422,-126 950.422,-126 947.422,-122 861.578,-122 861.578,-86 974.422,-86 974.422,-122"/>
<text text-anchor="middle" x="918" y="-99.8" font-family="Times,serif" font-size="14.00">MenuBarModule</text>
</g>
<!-- MenuBarModule&#45;&gt;RebirthNGModule -->
<g id="edge22" class="edge"><title>MenuBarModule&#45;&gt;RebirthNGModule</title>
<path fill="none" stroke="black" d="M937.625,-122.035C937.625,-138.734 937.625,-161 937.625,-161 937.625,-161 1928.12,-161 1928.12,-161"/>
<polygon fill="black" stroke="black" points="1928.12,-164.5 1938.12,-161 1928.12,-157.5 1928.12,-164.5"/>
</g>
<!-- AutoCompleteModule -->
<g id="node23" class="node"><title>AutoCompleteModule</title>
<polygon fill="#8dd3c7" stroke="black" points="843.985,-122 840.985,-126 819.985,-126 816.985,-122 702.015,-122 702.015,-86 843.985,-86 843.985,-122"/>
<text text-anchor="middle" x="773" y="-99.8" font-family="Times,serif" font-size="14.00">AutoCompleteModule</text>
</g>
<!-- AutoCompleteModule&#45;&gt;RebirthNGModule -->
<g id="edge23" class="edge"><title>AutoCompleteModule&#45;&gt;RebirthNGModule</title>
<path fill="none" stroke="black" d="M790.625,-122.023C790.625,-139.373 790.625,-163 790.625,-163 790.625,-163 1927.83,-163 1927.83,-163"/>
<polygon fill="black" stroke="black" points="1927.83,-166.5 1937.83,-163 1927.83,-159.5 1927.83,-166.5"/>
</g>
<!-- FlowStepModule -->
<g id="node24" class="node"><title>FlowStepModule</title>
<polygon fill="#8dd3c7" stroke="black" points="683.718,-122 680.718,-126 659.718,-126 656.718,-122 570.282,-122 570.282,-86 683.718,-86 683.718,-122"/>
<text text-anchor="middle" x="627" y="-99.8" font-family="Times,serif" font-size="14.00">FlowStepModule</text>
</g>
<!-- FlowStepModule&#45;&gt;RebirthNGModule -->
<g id="edge24" class="edge"><title>FlowStepModule&#45;&gt;RebirthNGModule</title>
<path fill="none" stroke="black" d="M643.125,-122.002C643.125,-139.675 643.125,-164 643.125,-164 643.125,-164 1928.11,-164 1928.11,-164"/>
<polygon fill="black" stroke="black" points="1928.11,-167.5 1938.11,-164 1928.11,-160.5 1928.11,-167.5"/>
</g>
<!-- InfiniteScrollModule -->
<g id="node25" class="node"><title>InfiniteScrollModule</title>
<polygon fill="#8dd3c7" stroke="black" points="552.197,-122 549.197,-126 528.197,-126 525.197,-122 417.803,-122 417.803,-86 552.197,-86 552.197,-122"/>
<text text-anchor="middle" x="485" y="-99.8" font-family="Times,serif" font-size="14.00">InfiniteScrollModule</text>
</g>
<!-- InfiniteScrollModule&#45;&gt;RebirthNGModule -->
<g id="edge25" class="edge"><title>InfiniteScrollModule&#45;&gt;RebirthNGModule</title>
<path fill="none" stroke="black" d="M499.625,-122.302C499.625,-140.27 499.625,-165 499.625,-165 499.625,-165 1927.9,-165 1927.9,-165"/>
<polygon fill="black" stroke="black" points="1927.9,-168.5 1937.9,-165 1927.9,-161.5 1927.9,-168.5"/>
</g>
<!-- DataTableModule -->
<g id="node26" class="node"><title>DataTableModule</title>
<polygon fill="#8dd3c7" stroke="black" points="399.849,-122 396.849,-126 375.849,-126 372.849,-122 282.151,-122 282.151,-86 399.849,-86 399.849,-122"/>
<text text-anchor="middle" x="341" y="-99.8" font-family="Times,serif" font-size="14.00">DataTableModule</text>
</g>
<!-- DataTableModule&#45;&gt;RebirthNGModule -->
<g id="edge26" class="edge"><title>DataTableModule&#45;&gt;RebirthNGModule</title>
<path fill="none" stroke="black" d="M353.625,-122.222C353.625,-140.829 353.625,-167 353.625,-167 353.625,-167 1928,-167 1928,-167"/>
<polygon fill="black" stroke="black" points="1928,-170.5 1938,-167 1928,-163.5 1928,-170.5"/>
</g>
<!-- FileUploadModule -->
<g id="node27" class="node"><title>FileUploadModule</title>
<polygon fill="#8dd3c7" stroke="black" points="264.041,-122 261.041,-126 240.041,-126 237.041,-122 141.959,-122 141.959,-86 264.041,-86 264.041,-122"/>
<text text-anchor="middle" x="203" y="-99.8" font-family="Times,serif" font-size="14.00">FileUploadModule</text>
</g>
<!-- FileUploadModule&#45;&gt;RebirthNGModule -->
<g id="edge27" class="edge"><title>FileUploadModule&#45;&gt;RebirthNGModule</title>
<path fill="none" stroke="black" d="M216.297,-122.169C216.297,-141.09 216.297,-168 216.297,-168 216.297,-168 1928.15,-168 1928.15,-168"/>
<polygon fill="black" stroke="black" points="1928.15,-171.5 1938.15,-168 1928.15,-164.5 1928.15,-171.5"/>
</g>
<!-- RebirthCommonModule  -->
<g id="node29" class="node"><title>RebirthCommonModule </title>
<polygon fill="#fb8072" stroke="black" points="3794.66,-252 3637.34,-252 3637.34,-216 3794.66,-216 3794.66,-252"/>
<text text-anchor="middle" x="3716" y="-229.8" font-family="Times,serif" font-size="14.00">RebirthCommonModule </text>
</g>
<!-- RebirthNGModule&#45;&gt;RebirthCommonModule  -->
<g id="edge28" class="edge"><title>RebirthNGModule&#45;&gt;RebirthCommonModule </title>
<path fill="none" stroke="black" stroke-dasharray="5,2" d="M2060.05,-169C2359.56,-169 3659.12,-169 3659.12,-169 3659.12,-169 3659.12,-205.894 3659.12,-205.894"/>
<polygon fill="black" stroke="black" points="3655.63,-205.894 3659.12,-215.894 3662.63,-205.894 3655.63,-205.894"/>
</g>
<!-- ModalModule  -->
<g id="node30" class="node"><title>ModalModule </title>
<polygon fill="#fb8072" stroke="black" points="3619.6,-252 3520.4,-252 3520.4,-216 3619.6,-216 3619.6,-252"/>
<text text-anchor="middle" x="3570" y="-229.8" font-family="Times,serif" font-size="14.00">ModalModule </text>
</g>
<!-- RebirthNGModule&#45;&gt;ModalModule  -->
<g id="edge29" class="edge"><title>RebirthNGModule&#45;&gt;ModalModule </title>
<path fill="none" stroke="black" stroke-dasharray="5,2" d="M2059.87,-171C2351.17,-171 3588.92,-171 3588.92,-171 3588.92,-171 3588.92,-205.778 3588.92,-205.778"/>
<polygon fill="black" stroke="black" points="3585.42,-205.778 3588.92,-215.778 3592.42,-205.778 3585.42,-205.778"/>
</g>
<!-- DialogModule  -->
<g id="node31" class="node"><title>DialogModule </title>
<polygon fill="#fb8072" stroke="black" points="3502.65,-252 3401.35,-252 3401.35,-216 3502.65,-216 3502.65,-252"/>
<text text-anchor="middle" x="3452" y="-229.8" font-family="Times,serif" font-size="14.00">DialogModule </text>
</g>
<!-- RebirthNGModule&#45;&gt;DialogModule  -->
<g id="edge30" class="edge"><title>RebirthNGModule&#45;&gt;DialogModule </title>
<path fill="none" stroke="black" stroke-dasharray="5,2" d="M2059.96,-172C2330.25,-172 3407.19,-172 3407.19,-172 3407.19,-172 3407.19,-205.733 3407.19,-205.733"/>
<polygon fill="black" stroke="black" points="3403.69,-205.733 3407.19,-215.733 3410.69,-205.733 3403.69,-205.733"/>
</g>
<!-- PagerModule  -->
<g id="node32" class="node"><title>PagerModule </title>
<polygon fill="#fb8072" stroke="black" points="3383.42,-252 3288.58,-252 3288.58,-216 3383.42,-216 3383.42,-252"/>
<text text-anchor="middle" x="3336" y="-229.8" font-family="Times,serif" font-size="14.00">PagerModule </text>
</g>
<!-- RebirthNGModule&#45;&gt;PagerModule  -->
<g id="edge31" class="edge"><title>RebirthNGModule&#45;&gt;PagerModule </title>
<path fill="none" stroke="black" stroke-dasharray="5,2" d="M2060.1,-174C2316.57,-174 3292.86,-174 3292.86,-174 3292.86,-174 3292.86,-205.998 3292.86,-205.998"/>
<polygon fill="black" stroke="black" points="3289.36,-205.998 3292.86,-215.998 3296.36,-205.998 3289.36,-205.998"/>
</g>
<!-- PaginationModule  -->
<g id="node33" class="node"><title>PaginationModule </title>
<polygon fill="#fb8072" stroke="black" points="3270.43,-252 3147.57,-252 3147.57,-216 3270.43,-216 3270.43,-252"/>
<text text-anchor="middle" x="3209" y="-229.8" font-family="Times,serif" font-size="14.00">PaginationModule </text>
</g>
<!-- RebirthNGModule&#45;&gt;PaginationModule  -->
<g id="edge32" class="edge"><title>RebirthNGModule&#45;&gt;PaginationModule </title>
<path fill="none" stroke="black" stroke-dasharray="5,2" d="M2060.12,-175C2299.29,-175 3158.62,-175 3158.62,-175 3158.62,-175 3158.62,-205.977 3158.62,-205.977"/>
<polygon fill="black" stroke="black" points="3155.13,-205.977 3158.62,-215.977 3162.13,-205.978 3155.13,-205.977"/>
</g>
<!-- AlertBoxModule  -->
<g id="node34" class="node"><title>AlertBoxModule </title>
<polygon fill="#fb8072" stroke="black" points="3129.65,-252 3014.35,-252 3014.35,-216 3129.65,-216 3129.65,-252"/>
<text text-anchor="middle" x="3072" y="-229.8" font-family="Times,serif" font-size="14.00">AlertBoxModule </text>
</g>
<!-- RebirthNGModule&#45;&gt;AlertBoxModule  -->
<g id="edge33" class="edge"><title>RebirthNGModule&#45;&gt;AlertBoxModule </title>
<path fill="none" stroke="black" stroke-dasharray="5,2" d="M2060,-176C2280.47,-176 3023.12,-176 3023.12,-176 3023.12,-176 3023.12,-205.966 3023.12,-205.966"/>
<polygon fill="black" stroke="black" points="3019.63,-205.966 3023.12,-215.966 3026.63,-205.966 3019.63,-205.966"/>
</g>
<!-- BadgeModule  -->
<g id="node35" class="node"><title>BadgeModule </title>
<polygon fill="#fb8072" stroke="black" points="2996.32,-252 2897.68,-252 2897.68,-216 2996.32,-216 2996.32,-252"/>
<text text-anchor="middle" x="2947" y="-229.8" font-family="Times,serif" font-size="14.00">BadgeModule </text>
</g>
<!-- RebirthNGModule&#45;&gt;BadgeModule  -->
<g id="edge34" class="edge"><title>RebirthNGModule&#45;&gt;BadgeModule </title>
<path fill="none" stroke="black" stroke-dasharray="5,2" d="M2059.93,-178C2264.11,-178 2911.42,-178 2911.42,-178 2911.42,-178 2911.42,-205.973 2911.42,-205.973"/>
<polygon fill="black" stroke="black" points="2907.92,-205.973 2911.42,-215.973 2914.92,-205.973 2907.92,-205.973"/>
</g>
<!-- PanelModule  -->
<g id="node36" class="node"><title>PanelModule </title>
<polygon fill="#fb8072" stroke="black" points="2880.15,-252 2785.85,-252 2785.85,-216 2880.15,-216 2880.15,-252"/>
<text text-anchor="middle" x="2833" y="-229.8" font-family="Times,serif" font-size="14.00">PanelModule </text>
</g>
<!-- RebirthNGModule&#45;&gt;PanelModule  -->
<g id="edge35" class="edge"><title>RebirthNGModule&#45;&gt;PanelModule </title>
<path fill="none" stroke="black" stroke-dasharray="5,2" d="M2060.07,-179C2246.92,-179 2798.33,-179 2798.33,-179 2798.33,-179 2798.33,-205.991 2798.33,-205.991"/>
<polygon fill="black" stroke="black" points="2794.83,-205.991 2798.33,-215.991 2801.83,-205.991 2794.83,-205.991"/>
</g>
<!-- AccordionModule  -->
<g id="node37" class="node"><title>AccordionModule </title>
<polygon fill="#fb8072" stroke="black" points="2768.14,-252 2645.86,-252 2645.86,-216 2768.14,-216 2768.14,-252"/>
<text text-anchor="middle" x="2707" y="-229.8" font-family="Times,serif" font-size="14.00">AccordionModule </text>
</g>
<!-- RebirthNGModule&#45;&gt;AccordionModule  -->
<g id="edge36" class="edge"><title>RebirthNGModule&#45;&gt;AccordionModule </title>
<path fill="none" stroke="black" stroke-dasharray="5,2" d="M2059.99,-181C2224.17,-181 2663.12,-181 2663.12,-181 2663.12,-181 2663.12,-205.76 2663.12,-205.76"/>
<polygon fill="black" stroke="black" points="2659.63,-205.76 2663.12,-215.76 2666.63,-205.76 2659.63,-205.76"/>
</g>
<!-- ActionButtonModule  -->
<g id="node38" class="node"><title>ActionButtonModule </title>
<polygon fill="#fb8072" stroke="black" points="2627.77,-252 2488.23,-252 2488.23,-216 2627.77,-216 2627.77,-252"/>
<text text-anchor="middle" x="2558" y="-229.8" font-family="Times,serif" font-size="14.00">ActionButtonModule </text>
</g>
<!-- RebirthNGModule&#45;&gt;ActionButtonModule  -->
<g id="edge37" class="edge"><title>RebirthNGModule&#45;&gt;ActionButtonModule </title>
<path fill="none" stroke="black" stroke-dasharray="5,2" d="M2059.84,-182C2196.54,-182 2516.12,-182 2516.12,-182 2516.12,-182 2516.12,-205.813 2516.12,-205.813"/>
<polygon fill="black" stroke="black" points="2512.63,-205.813 2516.12,-215.813 2519.63,-205.813 2512.63,-205.813"/>
</g>
<!-- RatingModule  -->
<g id="node39" class="node"><title>RatingModule </title>
<polygon fill="#fb8072" stroke="black" points="2470.38,-252 2369.62,-252 2369.62,-216 2470.38,-216 2470.38,-252"/>
<text text-anchor="middle" x="2420" y="-229.8" font-family="Times,serif" font-size="14.00">RatingModule </text>
</g>
<!-- RebirthNGModule&#45;&gt;RatingModule  -->
<g id="edge38" class="edge"><title>RebirthNGModule&#45;&gt;RatingModule </title>
<path fill="none" stroke="black" stroke-dasharray="5,2" d="M2059.81,-183C2167.41,-183 2380.12,-183 2380.12,-183 2380.12,-183 2380.12,-205.876 2380.12,-205.876"/>
<polygon fill="black" stroke="black" points="2376.63,-205.876 2380.12,-215.876 2383.63,-205.876 2376.63,-205.876"/>
</g>
<!-- TabsModule  -->
<g id="node40" class="node"><title>TabsModule </title>
<polygon fill="#fb8072" stroke="black" points="2352.26,-252 2261.74,-252 2261.74,-216 2352.26,-216 2352.26,-252"/>
<text text-anchor="middle" x="2307" y="-229.8" font-family="Times,serif" font-size="14.00">TabsModule </text>
</g>
<!-- RebirthNGModule&#45;&gt;TabsModule  -->
<g id="edge39" class="edge"><title>RebirthNGModule&#45;&gt;TabsModule </title>
<path fill="none" stroke="black" stroke-dasharray="5,2" d="M2059.85,-185C2139.37,-185 2268.62,-185 2268.62,-185 2268.62,-185 2268.62,-205.754 2268.62,-205.754"/>
<polygon fill="black" stroke="black" points="2265.13,-205.754 2268.62,-215.754 2272.13,-205.754 2265.13,-205.754"/>
</g>
<!-- TooltipModule  -->
<g id="node41" class="node"><title>TooltipModule </title>
<polygon fill="#fb8072" stroke="black" points="2244.27,-252 2139.73,-252 2139.73,-216 2244.27,-216 2244.27,-252"/>
<text text-anchor="middle" x="2192" y="-229.8" font-family="Times,serif" font-size="14.00">TooltipModule </text>
</g>
<!-- RebirthNGModule&#45;&gt;TooltipModule  -->
<g id="edge40" class="edge"><title>RebirthNGModule&#45;&gt;TooltipModule </title>
<path fill="none" stroke="black" stroke-dasharray="5,2" d="M2059.81,-186C2103.65,-186 2155.12,-186 2155.12,-186 2155.12,-186 2155.12,-205.853 2155.12,-205.853"/>
<polygon fill="black" stroke="black" points="2151.63,-205.853 2155.12,-215.853 2158.63,-205.853 2151.63,-205.853"/>
</g>
<!-- PopoverModule  -->
<g id="node42" class="node"><title>PopoverModule </title>
<polygon fill="#fb8072" stroke="black" points="2121.71,-252 2012.29,-252 2012.29,-216 2121.71,-216 2121.71,-252"/>
<text text-anchor="middle" x="2067" y="-229.8" font-family="Times,serif" font-size="14.00">PopoverModule </text>
</g>
<!-- RebirthNGModule&#45;&gt;PopoverModule  -->
<g id="edge41" class="edge"><title>RebirthNGModule&#45;&gt;PopoverModule </title>
<path fill="none" stroke="black" stroke-dasharray="5,2" d="M2036.01,-187.106C2036.01,-187.106 2036.01,-205.991 2036.01,-205.991"/>
<polygon fill="black" stroke="black" points="2032.51,-205.991 2036.01,-215.991 2039.51,-205.991 2032.51,-205.991"/>
</g>
<!-- DatePickerModule  -->
<g id="node43" class="node"><title>DatePickerModule </title>
<polygon fill="#fb8072" stroke="black" points="1994.74,-252 1869.26,-252 1869.26,-216 1994.74,-216 1994.74,-252"/>
<text text-anchor="middle" x="1932" y="-229.8" font-family="Times,serif" font-size="14.00">DatePickerModule </text>
</g>
<!-- RebirthNGModule&#45;&gt;DatePickerModule  -->
<g id="edge42" class="edge"><title>RebirthNGModule&#45;&gt;DatePickerModule </title>
<path fill="none" stroke="black" stroke-dasharray="5,2" d="M1966.37,-187.106C1966.37,-187.106 1966.37,-205.991 1966.37,-205.991"/>
<polygon fill="black" stroke="black" points="1962.87,-205.991 1966.37,-215.991 1969.87,-205.991 1962.87,-205.991"/>
</g>
<!-- BreadcrumbsModule  -->
<g id="node44" class="node"><title>BreadcrumbsModule </title>
<polygon fill="#fb8072" stroke="black" points="1851.69,-252 1714.31,-252 1714.31,-216 1851.69,-216 1851.69,-252"/>
<text text-anchor="middle" x="1783" y="-229.8" font-family="Times,serif" font-size="14.00">BreadcrumbsModule </text>
</g>
<!-- RebirthNGModule&#45;&gt;BreadcrumbsModule  -->
<g id="edge43" class="edge"><title>RebirthNGModule&#45;&gt;BreadcrumbsModule </title>
<path fill="none" stroke="black" stroke-dasharray="5,2" d="M1938.1,-186C1889.32,-186 1828.99,-186 1828.99,-186 1828.99,-186 1828.99,-205.853 1828.99,-205.853"/>
<polygon fill="black" stroke="black" points="1825.49,-205.853 1828.99,-215.853 1832.49,-205.853 1825.49,-205.853"/>
</g>
<!-- ProgressBarModule  -->
<g id="node45" class="node"><title>ProgressBarModule </title>
<polygon fill="#fb8072" stroke="black" points="1695.97,-252 1564.03,-252 1564.03,-216 1695.97,-216 1695.97,-252"/>
<text text-anchor="middle" x="1630" y="-229.8" font-family="Times,serif" font-size="14.00">ProgressBarModule </text>
</g>
<!-- RebirthNGModule&#45;&gt;ProgressBarModule  -->
<g id="edge44" class="edge"><title>RebirthNGModule&#45;&gt;ProgressBarModule </title>
<path fill="none" stroke="black" stroke-dasharray="5,2" d="M1938.02,-185C1844.12,-185 1674.82,-185 1674.82,-185 1674.82,-185 1674.82,-205.754 1674.82,-205.754"/>
<polygon fill="black" stroke="black" points="1671.32,-205.754 1674.82,-215.754 1678.32,-205.754 1671.32,-205.754"/>
</g>
<!-- SelectButtonModule  -->
<g id="node46" class="node"><title>SelectButtonModule </title>
<polygon fill="#fb8072" stroke="black" points="1546.88,-252 1411.12,-252 1411.12,-216 1546.88,-216 1546.88,-252"/>
<text text-anchor="middle" x="1479" y="-229.8" font-family="Times,serif" font-size="14.00">SelectButtonModule </text>
</g>
<!-- RebirthNGModule&#45;&gt;SelectButtonModule  -->
<g id="edge45" class="edge"><title>RebirthNGModule&#45;&gt;SelectButtonModule </title>
<path fill="none" stroke="black" stroke-dasharray="5,2" d="M1937.82,-183C1810.21,-183 1527.35,-183 1527.35,-183 1527.35,-183 1527.35,-205.876 1527.35,-205.876"/>
<polygon fill="black" stroke="black" points="1523.85,-205.876 1527.35,-215.876 1530.85,-205.876 1523.85,-205.876"/>
</g>
<!-- OverlayModule  -->
<g id="node47" class="node"><title>OverlayModule </title>
<polygon fill="#fb8072" stroke="black" points="1393.14,-252 1284.86,-252 1284.86,-216 1393.14,-216 1393.14,-252"/>
<text text-anchor="middle" x="1339" y="-229.8" font-family="Times,serif" font-size="14.00">OverlayModule </text>
</g>
<!-- RebirthNGModule&#45;&gt;OverlayModule  -->
<g id="edge46" class="edge"><title>RebirthNGModule&#45;&gt;OverlayModule </title>
<path fill="none" stroke="black" stroke-dasharray="5,2" d="M1938.09,-182C1781.22,-182 1375.57,-182 1375.57,-182 1375.57,-182 1375.57,-205.813 1375.57,-205.813"/>
<polygon fill="black" stroke="black" points="1372.07,-205.813 1375.57,-215.813 1379.07,-205.813 1372.07,-205.813"/>
</g>
<!-- CarouselModule  -->
<g id="node48" class="node"><title>CarouselModule </title>
<polygon fill="#fb8072" stroke="black" points="1267.31,-252 1154.69,-252 1154.69,-216 1267.31,-216 1267.31,-252"/>
<text text-anchor="middle" x="1211" y="-229.8" font-family="Times,serif" font-size="14.00">CarouselModule </text>
</g>
<!-- RebirthNGModule&#45;&gt;CarouselModule  -->
<g id="edge47" class="edge"><title>RebirthNGModule&#45;&gt;CarouselModule </title>
<path fill="none" stroke="black" stroke-dasharray="5,2" d="M1938.15,-181C1759.92,-181 1251.54,-181 1251.54,-181 1251.54,-181 1251.54,-205.76 1251.54,-205.76"/>
<polygon fill="black" stroke="black" points="1248.04,-205.76 1251.54,-215.76 1255.04,-205.76 1248.04,-205.76"/>
</g>
<!-- SwitchModule  -->
<g id="node49" class="node"><title>SwitchModule </title>
<polygon fill="#fb8072" stroke="black" points="1136.93,-252 1035.07,-252 1035.07,-216 1136.93,-216 1136.93,-252"/>
<text text-anchor="middle" x="1086" y="-229.8" font-family="Times,serif" font-size="14.00">SwitchModule </text>
</g>
<!-- RebirthNGModule&#45;&gt;SwitchModule  -->
<g id="edge48" class="edge"><title>RebirthNGModule&#45;&gt;SwitchModule </title>
<path fill="none" stroke="black" stroke-dasharray="5,2" d="M1938.07,-179C1739.34,-179 1122.66,-179 1122.66,-179 1122.66,-179 1122.66,-205.991 1122.66,-205.991"/>
<polygon fill="black" stroke="black" points="1119.16,-205.991 1122.66,-215.991 1126.16,-205.991 1119.16,-205.991"/>
</g>
<!-- MenuBarModule  -->
<g id="node50" class="node"><title>MenuBarModule </title>
<polygon fill="#fb8072" stroke="black" points="1016.92,-252 901.079,-252 901.079,-216 1016.92,-216 1016.92,-252"/>
<text text-anchor="middle" x="959" y="-229.8" font-family="Times,serif" font-size="14.00">MenuBarModule </text>
</g>
<!-- RebirthNGModule&#45;&gt;MenuBarModule  -->
<g id="edge49" class="edge"><title>RebirthNGModule&#45;&gt;MenuBarModule </title>
<path fill="none" stroke="black" stroke-dasharray="5,2" d="M1937.91,-178C1721.51,-178 1004.37,-178 1004.37,-178 1004.37,-178 1004.37,-205.973 1004.37,-205.973"/>
<polygon fill="black" stroke="black" points="1000.87,-205.973 1004.37,-215.973 1007.87,-205.973 1000.87,-205.973"/>
</g>
<!-- AutoCompleteModule  -->
<g id="node51" class="node"><title>AutoCompleteModule </title>
<polygon fill="#fb8072" stroke="black" points="882.985,-252 737.015,-252 737.015,-216 882.985,-216 882.985,-252"/>
<text text-anchor="middle" x="810" y="-229.8" font-family="Times,serif" font-size="14.00">AutoCompleteModule </text>
</g>
<!-- RebirthNGModule&#45;&gt;AutoCompleteModule  -->
<g id="edge50" class="edge"><title>RebirthNGModule&#45;&gt;AutoCompleteModule </title>
<path fill="none" stroke="black" stroke-dasharray="5,2" d="M1938.02,-176C1703.44,-176 872.266,-176 872.266,-176 872.266,-176 872.266,-205.966 872.266,-205.966"/>
<polygon fill="black" stroke="black" points="868.766,-205.966 872.266,-215.966 875.766,-205.966 868.766,-205.966"/>
</g>
<!-- FlowStepModule  -->
<g id="node52" class="node"><title>FlowStepModule </title>
<polygon fill="#fb8072" stroke="black" points="719.218,-252 602.782,-252 602.782,-216 719.218,-216 719.218,-252"/>
<text text-anchor="middle" x="661" y="-229.8" font-family="Times,serif" font-size="14.00">FlowStepModule </text>
</g>
<!-- RebirthNGModule&#45;&gt;FlowStepModule  -->
<g id="edge51" class="edge"><title>RebirthNGModule&#45;&gt;FlowStepModule </title>
<path fill="none" stroke="black" stroke-dasharray="5,2" d="M1938.16,-175C1682.79,-175 710.683,-175 710.683,-175 710.683,-175 710.683,-205.977 710.683,-205.977"/>
<polygon fill="black" stroke="black" points="707.183,-205.977 710.683,-215.977 714.183,-205.978 707.183,-205.977"/>
</g>
<!-- InfiniteScrollModule  -->
<g id="node53" class="node"><title>InfiniteScrollModule </title>
<polygon fill="#fb8072" stroke="black" points="584.697,-252 447.303,-252 447.303,-216 584.697,-216 584.697,-252"/>
<text text-anchor="middle" x="516" y="-229.8" font-family="Times,serif" font-size="14.00">InfiniteScrollModule </text>
</g>
<!-- RebirthNGModule&#45;&gt;InfiniteScrollModule  -->
<g id="edge52" class="edge"><title>RebirthNGModule&#45;&gt;InfiniteScrollModule </title>
<path fill="none" stroke="black" stroke-dasharray="5,2" d="M1937.93,-174C1665.86,-174 577.62,-174 577.62,-174 577.62,-174 577.62,-205.998 577.62,-205.998"/>
<polygon fill="black" stroke="black" points="574.12,-205.998 577.62,-215.998 581.12,-205.998 574.12,-205.998"/>
</g>
<!-- DataTableModule  -->
<g id="node54" class="node"><title>DataTableModule </title>
<polygon fill="#fb8072" stroke="black" points="428.849,-252 307.151,-252 307.151,-216 428.849,-216 428.849,-252"/>
<text text-anchor="middle" x="368" y="-229.8" font-family="Times,serif" font-size="14.00">DataTableModule </text>
</g>
<!-- RebirthNGModule&#45;&gt;DataTableModule  -->
<g id="edge53" class="edge"><title>RebirthNGModule&#45;&gt;DataTableModule </title>
<path fill="none" stroke="black" stroke-dasharray="5,2" d="M1938.2,-172C1648.62,-172 423.288,-172 423.288,-172 423.288,-172 423.288,-205.733 423.288,-205.733"/>
<polygon fill="black" stroke="black" points="419.788,-205.733 423.288,-215.733 426.788,-205.733 419.788,-205.733"/>
</g>
<!-- DraggableModule  -->
<g id="node55" class="node"><title>DraggableModule </title>
<polygon fill="#fb8072" stroke="black" points="289.852,-252 168.148,-252 168.148,-216 289.852,-216 289.852,-252"/>
<text text-anchor="middle" x="229" y="-229.8" font-family="Times,serif" font-size="14.00">DraggableModule </text>
</g>
<!-- RebirthNGModule&#45;&gt;DraggableModule  -->
<g id="edge54" class="edge"><title>RebirthNGModule&#45;&gt;DraggableModule </title>
<path fill="none" stroke="black" stroke-dasharray="5,2" d="M1938.03,-171C1632.85,-171 285.876,-171 285.876,-171 285.876,-171 285.876,-205.778 285.876,-205.778"/>
<polygon fill="black" stroke="black" points="282.376,-205.778 285.876,-215.778 289.376,-205.778 282.376,-205.778"/>
</g>
<!-- FileUploadModule  -->
<g id="node56" class="node"><title>FileUploadModule </title>
<polygon fill="#fb8072" stroke="black" points="150.04,-252 23.96,-252 23.96,-216 150.04,-216 150.04,-252"/>
<text text-anchor="middle" x="87" y="-229.8" font-family="Times,serif" font-size="14.00">FileUploadModule </text>
</g>
<!-- RebirthNGModule&#45;&gt;FileUploadModule  -->
<g id="edge55" class="edge"><title>RebirthNGModule&#45;&gt;FileUploadModule </title>
<path fill="none" stroke="black" stroke-dasharray="5,2" d="M1938.13,-169C1618.22,-169 145.875,-169 145.875,-169 145.875,-169 145.875,-205.894 145.875,-205.894"/>
<polygon fill="black" stroke="black" points="142.375,-205.894 145.875,-215.894 149.375,-205.894 142.375,-205.894"/>
</g>
</g>
</svg>
