<?xml version="1.0" encoding="UTF-8" standalone="no"?>
<!DOCTYPE svg PUBLIC "-//W3C//DTD SVG 1.1//EN"
 "http://www.w3.org/Graphics/SVG/1.1/DTD/svg11.dtd">
<!-- Generated by graphviz version 2.40.1 (20161225.0304)
 -->
<!-- Title: dependencies Pages: 1 -->
<svg width="504pt" height="349pt"
 viewBox="0.00 0.00 504.00 349.00" xmlns="http://www.w3.org/2000/svg" xmlns:xlink="http://www.w3.org/1999/xlink">
<g id="graph0" class="graph" transform="scale(1 1) rotate(0) translate(4 345)">
<title>dependencies</title>
<polygon fill="#ffffff" stroke="transparent" points="-4,4 -4,-345 500,-345 500,4 -4,4"/>
<text text-anchor="start" x="227.0091" y="-42.4" font-family="sans-serif" font-weight="bold" font-size="14.00" fill="#000000">Legend</text>
<polygon fill="#ffffb3" stroke="transparent" points="14,-10 14,-30 34,-30 34,-10 14,-10"/>
<text text-anchor="start" x="37.629" y="-15.4" font-family="sans-serif" font-size="14.00" fill="#000000"> &#160;Declarations</text>
<polygon fill="#8dd3c7" stroke="transparent" points="127,-10 127,-30 147,-30 147,-10 127,-10"/>
<text text-anchor="start" x="150.7251" y="-15.4" font-family="sans-serif" font-size="14.00" fill="#000000"> &#160;Module</text>
<polygon fill="#80b1d3" stroke="transparent" points="213,-10 213,-30 233,-30 233,-10 213,-10"/>
<text text-anchor="start" x="236.7812" y="-15.4" font-family="sans-serif" font-size="14.00" fill="#000000"> &#160;Bootstrap</text>
<polygon fill="#fdb462" stroke="transparent" points="310,-10 310,-30 330,-30 330,-10 310,-10"/>
<text text-anchor="start" x="333.6732" y="-15.4" font-family="sans-serif" font-size="14.00" fill="#000000"> &#160;Providers</text>
<polygon fill="#fb8072" stroke="transparent" points="406,-10 406,-30 426,-30 426,-10 406,-10"/>
<text text-anchor="start" x="429.7258" y="-15.4" font-family="sans-serif" font-size="14.00" fill="#000000"> &#160;Exports</text>
<g id="clust1" class="cluster">
<title>cluster_AccordionModule</title>
<polygon fill="none" stroke="#000000" stroke-dasharray="1,5" points="71,-70 71,-333 425,-333 425,-70 71,-70"/>
</g>
<g id="clust2" class="cluster">
<title>cluster_AccordionModule_declarations</title>
<polygon fill="none" stroke="#000000" points="215,-143 215,-195 371,-195 371,-143 215,-143"/>
</g>
<g id="clust3" class="cluster">
<title>cluster_AccordionModule_AccordionComponent_providers</title>
<polygon fill="none" stroke="#000000" points="79,-78 79,-130 417,-130 417,-78 79,-78"/>
</g>
<g id="clust4" class="cluster">
<title>cluster_AccordionModule_imports</title>
<polygon fill="none" stroke="#000000" points="79,-143 79,-195 207,-195 207,-143 79,-143"/>
</g>
<g id="clust5" class="cluster">
<title>cluster_AccordionModule_exports</title>
<polygon fill="none" stroke="#000000" points="146,-273 146,-325 306,-325 306,-273 146,-273"/>
</g>
<!-- AccordionComponent -->
<g id="node1" class="node">
<title>AccordionComponent</title>
<polygon fill="#ffffb3" stroke="#000000" points="363.42,-187 222.58,-187 222.58,-151 363.42,-151 363.42,-187"/>
<text text-anchor="middle" x="293" y="-164.8" font-family="Times,serif" font-size="14.00" fill="#000000">AccordionComponent</text>
</g>
<!-- AccordionModule -->
<g id="node2" class="node">
<title>AccordionModule</title>
<polygon fill="#8dd3c7" stroke="#000000" points="285.1374,-252 282.1374,-256 261.1374,-256 258.1374,-252 166.8626,-252 166.8626,-216 285.1374,-216 285.1374,-252"/>
<text text-anchor="middle" x="226" y="-229.8" font-family="Times,serif" font-size="14.00" fill="#000000">AccordionModule</text>
</g>
<!-- AccordionComponent&#45;&gt;AccordionModule -->
<g id="edge1" class="edge">
<title>AccordionComponent&#45;&gt;AccordionModule</title>
<path fill="none" stroke="#000000" d="M254.0544,-187.1061C254.0544,-187.1061 254.0544,-205.991 254.0544,-205.991"/>
<polygon fill="#000000" stroke="#000000" points="250.5544,-205.9909 254.0544,-215.991 257.5544,-205.991 250.5544,-205.9909"/>
</g>
<!-- AccordionComponent  -->
<g id="node5" class="node">
<title>AccordionComponent </title>
<polygon fill="#fb8072" stroke="#000000" points="297.9194,-317 154.0806,-317 154.0806,-281 297.9194,-281 297.9194,-317"/>
<text text-anchor="middle" x="226" y="-294.8" font-family="Times,serif" font-size="14.00" fill="#000000">AccordionComponent </text>
</g>
<!-- AccordionModule&#45;&gt;AccordionComponent  -->
<g id="edge4" class="edge">
<title>AccordionModule&#45;&gt;AccordionComponent </title>
<path fill="none" stroke="#000000" stroke-dasharray="5,2" d="M226,-252.1061C226,-252.1061 226,-270.991 226,-270.991"/>
<polygon fill="#000000" stroke="#000000" points="222.5001,-270.9909 226,-280.991 229.5001,-270.991 222.5001,-270.9909"/>
</g>
<!-- { provide: PanelGroup, useExisting: &#160;} -->
<g id="node3" class="node">
<title>{ provide: PanelGroup, useExisting: &#160;}</title>
<ellipse fill="#fdb462" stroke="#000000" cx="248" cy="-104" rx="160.6895" ry="18"/>
<text text-anchor="middle" x="248" y="-99.8" font-family="Times,serif" font-size="14.00" fill="#000000">{ provide: PanelGroup, useExisting: &#160;}</text>
</g>
<!-- { provide: PanelGroup, useExisting: &#160;}&#45;&gt;AccordionComponent -->
<g id="edge2" class="edge">
<title>{ provide: PanelGroup, useExisting: &#160;}&#45;&gt;AccordionComponent</title>
<path fill="none" stroke="#000000" d="M293,-121.4188C293,-121.4188 293,-140.6234 293,-140.6234"/>
<polygon fill="#000000" stroke="#000000" points="289.5001,-140.6234 293,-150.6234 296.5001,-140.6234 289.5001,-140.6234"/>
</g>
<!-- CommonModule -->
<g id="node4" class="node">
<title>CommonModule</title>
<polygon fill="#8dd3c7" stroke="#000000" points="198.6681,-187 195.6681,-191 174.6681,-191 171.6681,-187 87.3319,-187 87.3319,-151 198.6681,-151 198.6681,-187"/>
<text text-anchor="middle" x="143" y="-164.8" font-family="Times,serif" font-size="14.00" fill="#000000">CommonModule</text>
</g>
<!-- CommonModule&#45;&gt;AccordionModule -->
<g id="edge3" class="edge">
<title>CommonModule&#45;&gt;AccordionModule</title>
<path fill="none" stroke="#000000" d="M182.7577,-187.1061C182.7577,-187.1061 182.7577,-205.991 182.7577,-205.991"/>
<polygon fill="#000000" stroke="#000000" points="179.2578,-205.9909 182.7577,-215.991 186.2578,-205.991 179.2578,-205.9909"/>
</g>
</g>
</svg>
