<?xml version="1.0" encoding="UTF-8" standalone="no"?>
<!DOCTYPE svg PUBLIC "-//W3C//DTD SVG 1.1//EN"
 "http://www.w3.org/Graphics/SVG/1.1/DTD/svg11.dtd">
<!-- Generated by graphviz version 2.40.1 (20161225.0304)
 -->
<!-- Title: dependencies Pages: 1 -->
<svg width="687pt" height="349pt"
 viewBox="0.00 0.00 687.00 349.00" xmlns="http://www.w3.org/2000/svg" xmlns:xlink="http://www.w3.org/1999/xlink">
<g id="graph0" class="graph" transform="scale(1 1) rotate(0) translate(4 345)">
<title>dependencies</title>
<polygon fill="#ffffff" stroke="transparent" points="-4,4 -4,-345 683,-345 683,4 -4,4"/>
<text text-anchor="start" x="318.5091" y="-42.4" font-family="sans-serif" font-weight="bold" font-size="14.00" fill="#000000">Legend</text>
<polygon fill="#ffffb3" stroke="transparent" points="105.5,-10 105.5,-30 125.5,-30 125.5,-10 105.5,-10"/>
<text text-anchor="start" x="129.129" y="-15.4" font-family="sans-serif" font-size="14.00" fill="#000000"> &#160;Declarations</text>
<polygon fill="#8dd3c7" stroke="transparent" points="218.5,-10 218.5,-30 238.5,-30 238.5,-10 218.5,-10"/>
<text text-anchor="start" x="242.2251" y="-15.4" font-family="sans-serif" font-size="14.00" fill="#000000"> &#160;Module</text>
<polygon fill="#80b1d3" stroke="transparent" points="304.5,-10 304.5,-30 324.5,-30 324.5,-10 304.5,-10"/>
<text text-anchor="start" x="328.2812" y="-15.4" font-family="sans-serif" font-size="14.00" fill="#000000"> &#160;Bootstrap</text>
<polygon fill="#fdb462" stroke="transparent" points="401.5,-10 401.5,-30 421.5,-30 421.5,-10 401.5,-10"/>
<text text-anchor="start" x="425.1732" y="-15.4" font-family="sans-serif" font-size="14.00" fill="#000000"> &#160;Providers</text>
<polygon fill="#fb8072" stroke="transparent" points="497.5,-10 497.5,-30 517.5,-30 517.5,-10 497.5,-10"/>
<text text-anchor="start" x="521.2258" y="-15.4" font-family="sans-serif" font-size="14.00" fill="#000000"> &#160;Exports</text>
<g id="clust1" class="cluster">
<title>cluster_ImageUploadModule</title>
<polygon fill="none" stroke="#000000" stroke-dasharray="1,5" points="8,-70 8,-333 671,-333 671,-70 8,-70"/>
</g>
<g id="clust2" class="cluster">
<title>cluster_ImageUploadModule_declarations</title>
<polygon fill="none" stroke="#000000" points="288,-143 288,-195 663,-195 663,-143 288,-143"/>
</g>
<g id="clust3" class="cluster">
<title>cluster_ImageUploadModule_ImageUploadComponent_providers</title>
<polygon fill="none" stroke="#000000" points="145,-78 145,-130 663,-130 663,-78 145,-78"/>
</g>
<g id="clust5" class="cluster">
<title>cluster_ImageUploadModule_imports</title>
<polygon fill="none" stroke="#000000" points="16,-143 16,-195 280,-195 280,-143 16,-143"/>
</g>
<g id="clust6" class="cluster">
<title>cluster_ImageUploadModule_exports</title>
<polygon fill="none" stroke="#000000" points="107,-273 107,-325 489,-325 489,-273 107,-273"/>
</g>
<!-- ImageUploadComponent -->
<g id="node1" class="node">
<title>ImageUploadComponent</title>
<polygon fill="#ffffb3" stroke="#000000" points="654.5253,-187 497.4747,-187 497.4747,-151 654.5253,-151 654.5253,-187"/>
<text text-anchor="middle" x="576" y="-164.8" font-family="Times,serif" font-size="14.00" fill="#000000">ImageUploadComponent</text>
</g>
<!-- ImageUploadModule -->
<g id="node3" class="node">
<title>ImageUploadModule</title>
<polygon fill="#8dd3c7" stroke="#000000" points="366.7422,-252 363.7422,-256 342.7422,-256 339.7422,-252 231.2578,-252 231.2578,-216 366.7422,-216 366.7422,-252"/>
<text text-anchor="middle" x="299" y="-229.8" font-family="Times,serif" font-size="14.00" fill="#000000">ImageUploadModule</text>
</g>
<!-- ImageUploadComponent&#45;&gt;ImageUploadModule -->
<g id="edge1" class="edge">
<title>ImageUploadComponent&#45;&gt;ImageUploadModule</title>
<path fill="none" stroke="#000000" d="M576,-187.1061C576,-206.3391 576,-234 576,-234 576,-234 376.7618,-234 376.7618,-234"/>
<polygon fill="#000000" stroke="#000000" points="376.7619,-230.5001 366.7618,-234 376.7618,-237.5001 376.7619,-230.5001"/>
</g>
<!-- ViewImageModalComponent -->
<g id="node2" class="node">
<title>ViewImageModalComponent</title>
<polygon fill="#ffffb3" stroke="#000000" points="479.6811,-187 296.3189,-187 296.3189,-151 479.6811,-151 479.6811,-187"/>
<text text-anchor="middle" x="388" y="-164.8" font-family="Times,serif" font-size="14.00" fill="#000000">ViewImageModalComponent</text>
</g>
<!-- ViewImageModalComponent&#45;&gt;ImageUploadModule -->
<g id="edge3" class="edge">
<title>ViewImageModalComponent&#45;&gt;ImageUploadModule</title>
<path fill="none" stroke="#000000" d="M331.6403,-187.1061C331.6403,-187.1061 331.6403,-205.991 331.6403,-205.991"/>
<polygon fill="#000000" stroke="#000000" points="328.1403,-205.9909 331.6403,-215.991 335.1403,-205.991 328.1403,-205.9909"/>
</g>
<!-- ImageUploadComponent  -->
<g id="node7" class="node">
<title>ImageUploadComponent </title>
<polygon fill="#fb8072" stroke="#000000" points="480.5246,-317 319.4754,-317 319.4754,-281 480.5246,-281 480.5246,-317"/>
<text text-anchor="middle" x="400" y="-294.8" font-family="Times,serif" font-size="14.00" fill="#000000">ImageUploadComponent </text>
</g>
<!-- ImageUploadModule&#45;&gt;ImageUploadComponent  -->
<g id="edge6" class="edge">
<title>ImageUploadModule&#45;&gt;ImageUploadComponent </title>
<path fill="none" stroke="#000000" stroke-dasharray="5,2" d="M343.1794,-252.1061C343.1794,-252.1061 343.1794,-270.991 343.1794,-270.991"/>
<polygon fill="#000000" stroke="#000000" points="339.6794,-270.9909 343.1794,-280.991 346.6794,-270.991 339.6794,-270.9909"/>
</g>
<!-- ViewImageModalComponent  -->
<g id="node8" class="node">
<title>ViewImageModalComponent </title>
<polygon fill="#fb8072" stroke="#000000" points="301.1813,-317 114.8187,-317 114.8187,-281 301.1813,-281 301.1813,-317"/>
<text text-anchor="middle" x="208" y="-294.8" font-family="Times,serif" font-size="14.00" fill="#000000">ViewImageModalComponent </text>
</g>
<!-- ImageUploadModule&#45;&gt;ViewImageModalComponent  -->
<g id="edge7" class="edge">
<title>ImageUploadModule&#45;&gt;ViewImageModalComponent </title>
<path fill="none" stroke="#000000" stroke-dasharray="5,2" d="M266.2348,-252.1061C266.2348,-252.1061 266.2348,-270.991 266.2348,-270.991"/>
<polygon fill="#000000" stroke="#000000" points="262.7348,-270.9909 266.2348,-280.991 269.7348,-270.991 262.7348,-270.9909"/>
</g>
<!-- { provide: NG_VALUE_ACCESSOR, useExisting: , multi: &#160;} -->
<g id="node4" class="node">
<title>{ provide: NG_VALUE_ACCESSOR, useExisting: , multi: &#160;}</title>
<ellipse fill="#fdb462" stroke="#000000" cx="404" cy="-104" rx="251.4985" ry="18"/>
<text text-anchor="middle" x="404" y="-99.8" font-family="Times,serif" font-size="14.00" fill="#000000">{ provide: NG_VALUE_ACCESSOR, useExisting: , multi: &#160;}</text>
</g>
<!-- { provide: NG_VALUE_ACCESSOR, useExisting: , multi: &#160;}&#45;&gt;ImageUploadComponent -->
<g id="edge2" class="edge">
<title>{ provide: NG_VALUE_ACCESSOR, useExisting: , multi: &#160;}&#45;&gt;ImageUploadComponent</title>
<path fill="none" stroke="#000000" d="M576,-117.1537C576,-117.1537 576,-140.6938 576,-140.6938"/>
<polygon fill="#000000" stroke="#000000" points="572.5001,-140.6938 576,-150.6938 579.5001,-140.6939 572.5001,-140.6938"/>
</g>
<!-- AlertBoxModule -->
<g id="node5" class="node">
<title>AlertBoxModule</title>
<polygon fill="#8dd3c7" stroke="#000000" points="271.6499,-187 268.6499,-191 247.6499,-191 244.6499,-187 160.3501,-187 160.3501,-151 271.6499,-151 271.6499,-187"/>
<text text-anchor="middle" x="216" y="-164.8" font-family="Times,serif" font-size="14.00" fill="#000000">AlertBoxModule</text>
</g>
<!-- AlertBoxModule&#45;&gt;ImageUploadModule -->
<g id="edge4" class="edge">
<title>AlertBoxModule&#45;&gt;ImageUploadModule</title>
<path fill="none" stroke="#000000" d="M251.4769,-187.1061C251.4769,-187.1061 251.4769,-205.991 251.4769,-205.991"/>
<polygon fill="#000000" stroke="#000000" points="247.9769,-205.9909 251.4769,-215.991 254.9769,-205.991 247.9769,-205.9909"/>
</g>
<!-- DraggableModule -->
<g id="node6" class="node">
<title>DraggableModule</title>
<polygon fill="#8dd3c7" stroke="#000000" points="141.8515,-187 138.8515,-191 117.8515,-191 114.8515,-187 24.1485,-187 24.1485,-151 141.8515,-151 141.8515,-187"/>
<text text-anchor="middle" x="83" y="-164.8" font-family="Times,serif" font-size="14.00" fill="#000000">DraggableModule</text>
</g>
<!-- DraggableModule&#45;&gt;ImageUploadModule -->
<g id="edge5" class="edge">
<title>DraggableModule&#45;&gt;ImageUploadModule</title>
<path fill="none" stroke="#000000" d="M128.2926,-187.1061C128.2926,-206.3391 128.2926,-234 128.2926,-234 128.2926,-234 221.0414,-234 221.0414,-234"/>
<polygon fill="#000000" stroke="#000000" points="221.0414,-237.5001 231.0414,-234 221.0414,-230.5001 221.0414,-237.5001"/>
</g>
</g>
</svg>
