<?xml version="1.0" encoding="UTF-8" standalone="no"?>
<!DOCTYPE svg PUBLIC "-//W3C//DTD SVG 1.1//EN"
 "http://www.w3.org/Graphics/SVG/1.1/DTD/svg11.dtd">
<!-- Generated by graphviz version 2.40.1 (20161225.0304)
 -->
<!-- Title: dependencies Pages: 1 -->
<svg width="687pt" height="284pt"
 viewBox="0.00 0.00 687.00 284.00" xmlns="http://www.w3.org/2000/svg" xmlns:xlink="http://www.w3.org/1999/xlink">
<g id="graph0" class="graph" transform="scale(1 1) rotate(0) translate(4 280)">
<title>dependencies</title>
<polygon fill="#ffffff" stroke="transparent" points="-4,4 -4,-280 683,-280 683,4 -4,4"/>
<text text-anchor="start" x="318.5091" y="-42.4" font-family="sans-serif" font-weight="bold" font-size="14.00" fill="#000000">Legend</text>
<polygon fill="#ffffb3" stroke="transparent" points="105.5,-10 105.5,-30 125.5,-30 125.5,-10 105.5,-10"/>
<text text-anchor="start" x="129.129" y="-15.4" font-family="sans-serif" font-size="14.00" fill="#000000"> &#160;Declarations</text>
<polygon fill="#8dd3c7" stroke="transparent" points="218.5,-10 218.5,-30 238.5,-30 238.5,-10 218.5,-10"/>
<text text-anchor="start" x="242.2251" y="-15.4" font-family="sans-serif" font-size="14.00" fill="#000000"> &#160;Module</text>
<polygon fill="#80b1d3" stroke="transparent" points="304.5,-10 304.5,-30 324.5,-30 324.5,-10 304.5,-10"/>
<text text-anchor="start" x="328.2812" y="-15.4" font-family="sans-serif" font-size="14.00" fill="#000000"> &#160;Bootstrap</text>
<polygon fill="#fdb462" stroke="transparent" points="401.5,-10 401.5,-30 421.5,-30 421.5,-10 401.5,-10"/>
<text text-anchor="start" x="425.1732" y="-15.4" font-family="sans-serif" font-size="14.00" fill="#000000"> &#160;Providers</text>
<polygon fill="#fb8072" stroke="transparent" points="497.5,-10 497.5,-30 517.5,-30 517.5,-10 497.5,-10"/>
<text text-anchor="start" x="521.2258" y="-15.4" font-family="sans-serif" font-size="14.00" fill="#000000"> &#160;Exports</text>
<g id="clust1" class="cluster">
<title>cluster_ImageUploadModule</title>
<polygon fill="none" stroke="#000000" stroke-dasharray="1,5" points="8,-70 8,-268 671,-268 671,-70 8,-70"/>
</g>
<g id="clust2" class="cluster">
<title>cluster_ImageUploadModule_declarations</title>
<polygon fill="none" stroke="#000000" points="288,-78 288,-130 663,-130 663,-78 288,-78"/>
</g>
<g id="clust5" class="cluster">
<title>cluster_ImageUploadModule_imports</title>
<polygon fill="none" stroke="#000000" points="16,-78 16,-130 280,-130 280,-78 16,-78"/>
</g>
<g id="clust6" class="cluster">
<title>cluster_ImageUploadModule_exports</title>
<polygon fill="none" stroke="#000000" points="107,-208 107,-260 489,-260 489,-208 107,-208"/>
</g>
<!-- ImageUploadComponent -->
<g id="node1" class="node">
<title>ImageUploadComponent</title>
<polygon fill="#ffffb3" stroke="#000000" points="654.5253,-122 497.4747,-122 497.4747,-86 654.5253,-86 654.5253,-122"/>
<text text-anchor="middle" x="576" y="-99.8" font-family="Times,serif" font-size="14.00" fill="#000000">ImageUploadComponent</text>
</g>
<!-- ImageUploadModule -->
<g id="node3" class="node">
<title>ImageUploadModule</title>
<polygon fill="#8dd3c7" stroke="#000000" points="366.7422,-187 363.7422,-191 342.7422,-191 339.7422,-187 231.2578,-187 231.2578,-151 366.7422,-151 366.7422,-187"/>
<text text-anchor="middle" x="299" y="-164.8" font-family="Times,serif" font-size="14.00" fill="#000000">ImageUploadModule</text>
</g>
<!-- ImageUploadComponent&#45;&gt;ImageUploadModule -->
<g id="edge1" class="edge">
<title>ImageUploadComponent&#45;&gt;ImageUploadModule</title>
<path fill="none" stroke="#000000" d="M576,-122.1061C576,-141.3391 576,-169 576,-169 576,-169 376.7618,-169 376.7618,-169"/>
<polygon fill="#000000" stroke="#000000" points="376.7619,-165.5001 366.7618,-169 376.7618,-172.5001 376.7619,-165.5001"/>
</g>
<!-- ViewImageModalComponent -->
<g id="node2" class="node">
<title>ViewImageModalComponent</title>
<polygon fill="#ffffb3" stroke="#000000" points="479.6811,-122 296.3189,-122 296.3189,-86 479.6811,-86 479.6811,-122"/>
<text text-anchor="middle" x="388" y="-99.8" font-family="Times,serif" font-size="14.00" fill="#000000">ViewImageModalComponent</text>
</g>
<!-- ViewImageModalComponent&#45;&gt;ImageUploadModule -->
<g id="edge2" class="edge">
<title>ViewImageModalComponent&#45;&gt;ImageUploadModule</title>
<path fill="none" stroke="#000000" d="M331.6403,-122.1061C331.6403,-122.1061 331.6403,-140.991 331.6403,-140.991"/>
<polygon fill="#000000" stroke="#000000" points="328.1403,-140.9909 331.6403,-150.991 335.1403,-140.991 328.1403,-140.9909"/>
</g>
<!-- ImageUploadComponent  -->
<g id="node6" class="node">
<title>ImageUploadComponent </title>
<polygon fill="#fb8072" stroke="#000000" points="480.5246,-252 319.4754,-252 319.4754,-216 480.5246,-216 480.5246,-252"/>
<text text-anchor="middle" x="400" y="-229.8" font-family="Times,serif" font-size="14.00" fill="#000000">ImageUploadComponent </text>
</g>
<!-- ImageUploadModule&#45;&gt;ImageUploadComponent  -->
<g id="edge5" class="edge">
<title>ImageUploadModule&#45;&gt;ImageUploadComponent </title>
<path fill="none" stroke="#000000" stroke-dasharray="5,2" d="M343.1794,-187.1061C343.1794,-187.1061 343.1794,-205.991 343.1794,-205.991"/>
<polygon fill="#000000" stroke="#000000" points="339.6794,-205.9909 343.1794,-215.991 346.6794,-205.991 339.6794,-205.9909"/>
</g>
<!-- ViewImageModalComponent  -->
<g id="node7" class="node">
<title>ViewImageModalComponent </title>
<polygon fill="#fb8072" stroke="#000000" points="301.1813,-252 114.8187,-252 114.8187,-216 301.1813,-216 301.1813,-252"/>
<text text-anchor="middle" x="208" y="-229.8" font-family="Times,serif" font-size="14.00" fill="#000000">ViewImageModalComponent </text>
</g>
<!-- ImageUploadModule&#45;&gt;ViewImageModalComponent  -->
<g id="edge6" class="edge">
<title>ImageUploadModule&#45;&gt;ViewImageModalComponent </title>
<path fill="none" stroke="#000000" stroke-dasharray="5,2" d="M266.2348,-187.1061C266.2348,-187.1061 266.2348,-205.991 266.2348,-205.991"/>
<polygon fill="#000000" stroke="#000000" points="262.7348,-205.9909 266.2348,-215.991 269.7348,-205.991 262.7348,-205.9909"/>
</g>
<!-- AlertBoxModule -->
<g id="node4" class="node">
<title>AlertBoxModule</title>
<polygon fill="#8dd3c7" stroke="#000000" points="271.6499,-122 268.6499,-126 247.6499,-126 244.6499,-122 160.3501,-122 160.3501,-86 271.6499,-86 271.6499,-122"/>
<text text-anchor="middle" x="216" y="-99.8" font-family="Times,serif" font-size="14.00" fill="#000000">AlertBoxModule</text>
</g>
<!-- AlertBoxModule&#45;&gt;ImageUploadModule -->
<g id="edge3" class="edge">
<title>AlertBoxModule&#45;&gt;ImageUploadModule</title>
<path fill="none" stroke="#000000" d="M251.4769,-122.1061C251.4769,-122.1061 251.4769,-140.991 251.4769,-140.991"/>
<polygon fill="#000000" stroke="#000000" points="247.9769,-140.9909 251.4769,-150.991 254.9769,-140.991 247.9769,-140.9909"/>
</g>
<!-- DraggableModule -->
<g id="node5" class="node">
<title>DraggableModule</title>
<polygon fill="#8dd3c7" stroke="#000000" points="141.8515,-122 138.8515,-126 117.8515,-126 114.8515,-122 24.1485,-122 24.1485,-86 141.8515,-86 141.8515,-122"/>
<text text-anchor="middle" x="83" y="-99.8" font-family="Times,serif" font-size="14.00" fill="#000000">DraggableModule</text>
</g>
<!-- DraggableModule&#45;&gt;ImageUploadModule -->
<g id="edge4" class="edge">
<title>DraggableModule&#45;&gt;ImageUploadModule</title>
<path fill="none" stroke="#000000" d="M128.2926,-122.1061C128.2926,-141.3391 128.2926,-169 128.2926,-169 128.2926,-169 221.0414,-169 221.0414,-169"/>
<polygon fill="#000000" stroke="#000000" points="221.0414,-172.5001 231.0414,-169 221.0414,-165.5001 221.0414,-172.5001"/>
</g>
</g>
</svg>
