<?xml version="1.0" encoding="UTF-8" standalone="no"?>
<!DOCTYPE svg PUBLIC "-//W3C//DTD SVG 1.1//EN"
 "http://www.w3.org/Graphics/SVG/1.1/DTD/svg11.dtd">
<!-- Generated by graphviz version 2.40.1 (20161225.0304)
 -->
<!-- Title: dependencies Pages: 1 -->
<svg width="687pt" height="396pt"
 viewBox="0.00 0.00 687.00 395.59" xmlns="http://www.w3.org/2000/svg" xmlns:xlink="http://www.w3.org/1999/xlink">
<g id="graph0" class="graph" transform="scale(1 1) rotate(0) translate(4 391.5901)">
<title>dependencies</title>
<polygon fill="#ffffff" stroke="transparent" points="-4,4 -4,-391.5901 683,-391.5901 683,4 -4,4"/>
<text text-anchor="start" x="318.5091" y="-42.4" font-family="sans-serif" font-weight="bold" font-size="14.00" fill="#000000">Legend</text>
<polygon fill="#ffffb3" stroke="transparent" points="105.5,-10 105.5,-30 125.5,-30 125.5,-10 105.5,-10"/>
<text text-anchor="start" x="129.129" y="-15.4" font-family="sans-serif" font-size="14.00" fill="#000000"> &#160;Declarations</text>
<polygon fill="#8dd3c7" stroke="transparent" points="218.5,-10 218.5,-30 238.5,-30 238.5,-10 218.5,-10"/>
<text text-anchor="start" x="242.2251" y="-15.4" font-family="sans-serif" font-size="14.00" fill="#000000"> &#160;Module</text>
<polygon fill="#80b1d3" stroke="transparent" points="304.5,-10 304.5,-30 324.5,-30 324.5,-10 304.5,-10"/>
<text text-anchor="start" x="328.2812" y="-15.4" font-family="sans-serif" font-size="14.00" fill="#000000"> &#160;Bootstrap</text>
<polygon fill="#fdb462" stroke="transparent" points="401.5,-10 401.5,-30 421.5,-30 421.5,-10 401.5,-10"/>
<text text-anchor="start" x="425.1732" y="-15.4" font-family="sans-serif" font-size="14.00" fill="#000000"> &#160;Providers</text>
<polygon fill="#fb8072" stroke="transparent" points="497.5,-10 497.5,-30 517.5,-30 517.5,-10 497.5,-10"/>
<text text-anchor="start" x="521.2258" y="-15.4" font-family="sans-serif" font-size="14.00" fill="#000000"> &#160;Exports</text>
<g id="clust1" class="cluster">
<title>cluster_ImageUploadModule</title>
<polygon fill="none" stroke="#000000" stroke-dasharray="1,5" points="8,-70 8,-379.5901 671,-379.5901 671,-70 8,-70"/>
</g>
<g id="clust2" class="cluster">
<title>cluster_ImageUploadModule_declarations</title>
<polygon fill="none" stroke="#000000" points="288,-189.5901 288,-241.5901 663,-241.5901 663,-189.5901 288,-189.5901"/>
</g>
<g id="clust3" class="cluster">
<title>cluster_ImageUploadModule_ImageUploadComponent_providers</title>
<polygon fill="none" stroke="#000000" points="465,-78 465,-176.5901 663,-176.5901 663,-78 465,-78"/>
</g>
<g id="clust5" class="cluster">
<title>cluster_ImageUploadModule_imports</title>
<polygon fill="none" stroke="#000000" points="16,-189.5901 16,-241.5901 280,-241.5901 280,-189.5901 16,-189.5901"/>
</g>
<g id="clust6" class="cluster">
<title>cluster_ImageUploadModule_exports</title>
<polygon fill="none" stroke="#000000" points="107,-319.5901 107,-371.5901 489,-371.5901 489,-319.5901 107,-319.5901"/>
</g>
<!-- ImageUploadComponent -->
<g id="node1" class="node">
<title>ImageUploadComponent</title>
<polygon fill="#ffffb3" stroke="#000000" points="654.5253,-233.5901 497.4747,-233.5901 497.4747,-197.5901 654.5253,-197.5901 654.5253,-233.5901"/>
<text text-anchor="middle" x="576" y="-211.3901" font-family="Times,serif" font-size="14.00" fill="#000000">ImageUploadComponent</text>
</g>
<!-- ImageUploadModule -->
<g id="node3" class="node">
<title>ImageUploadModule</title>
<polygon fill="#8dd3c7" stroke="#000000" points="366.7422,-298.5901 363.7422,-302.5901 342.7422,-302.5901 339.7422,-298.5901 231.2578,-298.5901 231.2578,-262.5901 366.7422,-262.5901 366.7422,-298.5901"/>
<text text-anchor="middle" x="299" y="-276.3901" font-family="Times,serif" font-size="14.00" fill="#000000">ImageUploadModule</text>
</g>
<!-- ImageUploadComponent&#45;&gt;ImageUploadModule -->
<g id="edge1" class="edge">
<title>ImageUploadComponent&#45;&gt;ImageUploadModule</title>
<path fill="none" stroke="#000000" d="M576,-233.6962C576,-252.9292 576,-280.5901 576,-280.5901 576,-280.5901 376.7618,-280.5901 376.7618,-280.5901"/>
<polygon fill="#000000" stroke="#000000" points="376.7619,-277.0902 366.7618,-280.5901 376.7618,-284.0902 376.7619,-277.0902"/>
</g>
<!-- ViewImageModalComponent -->
<g id="node2" class="node">
<title>ViewImageModalComponent</title>
<polygon fill="#ffffb3" stroke="#000000" points="479.6811,-233.5901 296.3189,-233.5901 296.3189,-197.5901 479.6811,-197.5901 479.6811,-233.5901"/>
<text text-anchor="middle" x="388" y="-211.3901" font-family="Times,serif" font-size="14.00" fill="#000000">ViewImageModalComponent</text>
</g>
<!-- ViewImageModalComponent&#45;&gt;ImageUploadModule -->
<g id="edge3" class="edge">
<title>ViewImageModalComponent&#45;&gt;ImageUploadModule</title>
<path fill="none" stroke="#000000" d="M331.6403,-233.6962C331.6403,-233.6962 331.6403,-252.581 331.6403,-252.581"/>
<polygon fill="#000000" stroke="#000000" points="328.1403,-252.581 331.6403,-262.581 335.1403,-252.5811 328.1403,-252.581"/>
</g>
<!-- ImageUploadComponent  -->
<g id="node7" class="node">
<title>ImageUploadComponent </title>
<polygon fill="#fb8072" stroke="#000000" points="480.5246,-363.5901 319.4754,-363.5901 319.4754,-327.5901 480.5246,-327.5901 480.5246,-363.5901"/>
<text text-anchor="middle" x="400" y="-341.3901" font-family="Times,serif" font-size="14.00" fill="#000000">ImageUploadComponent </text>
</g>
<!-- ImageUploadModule&#45;&gt;ImageUploadComponent  -->
<g id="edge6" class="edge">
<title>ImageUploadModule&#45;&gt;ImageUploadComponent </title>
<path fill="none" stroke="#000000" stroke-dasharray="5,2" d="M343.1794,-298.6962C343.1794,-298.6962 343.1794,-317.581 343.1794,-317.581"/>
<polygon fill="#000000" stroke="#000000" points="339.6794,-317.581 343.1794,-327.581 346.6794,-317.5811 339.6794,-317.581"/>
</g>
<!-- ViewImageModalComponent  -->
<g id="node8" class="node">
<title>ViewImageModalComponent </title>
<polygon fill="#fb8072" stroke="#000000" points="301.1813,-363.5901 114.8187,-363.5901 114.8187,-327.5901 301.1813,-327.5901 301.1813,-363.5901"/>
<text text-anchor="middle" x="208" y="-341.3901" font-family="Times,serif" font-size="14.00" fill="#000000">ViewImageModalComponent </text>
</g>
<!-- ImageUploadModule&#45;&gt;ViewImageModalComponent  -->
<g id="edge7" class="edge">
<title>ImageUploadModule&#45;&gt;ViewImageModalComponent </title>
<path fill="none" stroke="#000000" stroke-dasharray="5,2" d="M266.2348,-298.6962C266.2348,-298.6962 266.2348,-317.581 266.2348,-317.581"/>
<polygon fill="#000000" stroke="#000000" points="262.7348,-317.581 266.2348,-327.581 269.7348,-317.5811 262.7348,-317.581"/>
</g>
<!-- {
 &#160;&#160;&#160;: , : (() =&gt; ), : true
} -->
<g id="node4" class="node">
<title>{
 &#160;&#160;&#160;: , : (() =&gt; ), : true
}</title>
<ellipse fill="#fdb462" stroke="#000000" cx="564" cy="-127.295" rx="91.4557" ry="41.0911"/>
<text text-anchor="middle" x="564" y="-139.895" font-family="Times,serif" font-size="14.00" fill="#000000">{</text>
<text text-anchor="middle" x="564" y="-123.095" font-family="Times,serif" font-size="14.00" fill="#000000"> &#160;&#160;&#160;: , : (() =&gt; ), : true</text>
<text text-anchor="middle" x="564" y="-106.295" font-family="Times,serif" font-size="14.00" fill="#000000">}</text>
</g>
<!-- {
 &#160;&#160;&#160;: , : (() =&gt; ), : true
}&#45;&gt;ImageUploadComponent -->
<g id="edge2" class="edge">
<title>{
 &#160;&#160;&#160;: , : (() =&gt; ), : true
}&#45;&gt;ImageUploadComponent</title>
<path fill="none" stroke="#000000" d="M576,-168.3407C576,-168.3407 576,-187.5825 576,-187.5825"/>
<polygon fill="#000000" stroke="#000000" points="572.5001,-187.5825 576,-197.5825 579.5001,-187.5826 572.5001,-187.5825"/>
</g>
<!-- AlertBoxModule -->
<g id="node5" class="node">
<title>AlertBoxModule</title>
<polygon fill="#8dd3c7" stroke="#000000" points="271.6499,-233.5901 268.6499,-237.5901 247.6499,-237.5901 244.6499,-233.5901 160.3501,-233.5901 160.3501,-197.5901 271.6499,-197.5901 271.6499,-233.5901"/>
<text text-anchor="middle" x="216" y="-211.3901" font-family="Times,serif" font-size="14.00" fill="#000000">AlertBoxModule</text>
</g>
<!-- AlertBoxModule&#45;&gt;ImageUploadModule -->
<g id="edge4" class="edge">
<title>AlertBoxModule&#45;&gt;ImageUploadModule</title>
<path fill="none" stroke="#000000" d="M251.4769,-233.6962C251.4769,-233.6962 251.4769,-252.581 251.4769,-252.581"/>
<polygon fill="#000000" stroke="#000000" points="247.9769,-252.581 251.4769,-262.581 254.9769,-252.5811 247.9769,-252.581"/>
</g>
<!-- DraggableModule -->
<g id="node6" class="node">
<title>DraggableModule</title>
<polygon fill="#8dd3c7" stroke="#000000" points="141.8515,-233.5901 138.8515,-237.5901 117.8515,-237.5901 114.8515,-233.5901 24.1485,-233.5901 24.1485,-197.5901 141.8515,-197.5901 141.8515,-233.5901"/>
<text text-anchor="middle" x="83" y="-211.3901" font-family="Times,serif" font-size="14.00" fill="#000000">DraggableModule</text>
</g>
<!-- DraggableModule&#45;&gt;ImageUploadModule -->
<g id="edge5" class="edge">
<title>DraggableModule&#45;&gt;ImageUploadModule</title>
<path fill="none" stroke="#000000" d="M128.2926,-233.6962C128.2926,-252.9292 128.2926,-280.5901 128.2926,-280.5901 128.2926,-280.5901 221.0414,-280.5901 221.0414,-280.5901"/>
<polygon fill="#000000" stroke="#000000" points="221.0414,-284.0902 231.0414,-280.5901 221.0414,-277.0902 221.0414,-284.0902"/>
</g>
</g>
</svg>
