<?xml version="1.0" encoding="UTF-8" standalone="no"?>
<!DOCTYPE svg PUBLIC "-//W3C//DTD SVG 1.1//EN"
 "http://www.w3.org/Graphics/SVG/1.1/DTD/svg11.dtd">
<!-- Generated by graphviz version 2.38.0 (20140413.2041)
 -->
<!-- Title: dependencies Pages: 1 -->
<svg width="522pt" height="284pt"
 viewBox="0.00 0.00 522.00 284.00" xmlns="http://www.w3.org/2000/svg" xmlns:xlink="http://www.w3.org/1999/xlink">
<g id="graph0" class="graph" transform="scale(1 1) rotate(0) translate(4 280)">
<title>dependencies</title>
<polygon fill="white" stroke="none" points="-4,4 -4,-280 518,-280 518,4 -4,4"/>
<text text-anchor="start" x="236.009" y="-42.4" font-family="sans-serif" font-weight="bold" font-size="14.00">Legend</text>
<polygon fill="#ffffb3" stroke="none" points="23,-10 23,-30 43,-30 43,-10 23,-10"/>
<text text-anchor="start" x="46.629" y="-15.4" font-family="sans-serif" font-size="14.00"> &#160;Declarations</text>
<polygon fill="#8dd3c7" stroke="none" points="136,-10 136,-30 156,-30 156,-10 136,-10"/>
<text text-anchor="start" x="159.725" y="-15.4" font-family="sans-serif" font-size="14.00"> &#160;Module</text>
<polygon fill="#80b1d3" stroke="none" points="222,-10 222,-30 242,-30 242,-10 222,-10"/>
<text text-anchor="start" x="245.781" y="-15.4" font-family="sans-serif" font-size="14.00"> &#160;Bootstrap</text>
<polygon fill="#fdb462" stroke="none" points="319,-10 319,-30 339,-30 339,-10 319,-10"/>
<text text-anchor="start" x="342.673" y="-15.4" font-family="sans-serif" font-size="14.00"> &#160;Providers</text>
<polygon fill="#fb8072" stroke="none" points="415,-10 415,-30 435,-30 435,-10 415,-10"/>
<text text-anchor="start" x="438.726" y="-15.4" font-family="sans-serif" font-size="14.00"> &#160;Exports</text>
<g id="clust1" class="cluster"><title>cluster_DraggableModule</title>
<polygon fill="none" stroke="black" stroke-dasharray="1,5" points="8,-70 8,-268 506,-268 506,-70 8,-70"/>
</g>
<g id="clust2" class="cluster"><title>cluster_DraggableModule_declarations</title>
<polygon fill="none" stroke="black" points="20,-78 20,-130 493,-130 493,-78 20,-78"/>
</g>
<g id="clust7" class="cluster"><title>cluster_DraggableModule_exports</title>
<polygon fill="none" stroke="black" points="16,-208 16,-260 498,-260 498,-208 16,-208"/>
</g>
<!-- DraggableDirective -->
<g id="node1" class="node"><title>DraggableDirective</title>
<polygon fill="#ffffb3" stroke="black" points="485.385,-122 358.615,-122 358.615,-86 485.385,-86 485.385,-122"/>
<text text-anchor="middle" x="422" y="-99.8" font-family="Times,serif" font-size="14.00">DraggableDirective</text>
</g>
<!-- DraggableModule -->
<g id="node4" class="node"><title>DraggableModule</title>
<polygon fill="#8dd3c7" stroke="black" points="315.851,-187 312.851,-191 291.851,-191 288.851,-187 198.149,-187 198.149,-151 315.851,-151 315.851,-187"/>
<text text-anchor="middle" x="257" y="-164.8" font-family="Times,serif" font-size="14.00">DraggableModule</text>
</g>
<!-- DraggableDirective&#45;&gt;DraggableModule -->
<g id="edge1" class="edge"><title>DraggableDirective&#45;&gt;DraggableModule</title>
<path fill="none" stroke="black" d="M443.481,-122.023C443.481,-139.373 443.481,-163 443.481,-163 443.481,-163 326.004,-163 326.004,-163"/>
<polygon fill="black" stroke="black" points="326.004,-159.5 316.004,-163 326.004,-166.5 326.004,-159.5"/>
</g>
<!-- DraggableHandleDirective -->
<g id="node2" class="node"><title>DraggableHandleDirective</title>
<polygon fill="#ffffb3" stroke="black" points="340.311,-122 173.689,-122 173.689,-86 340.311,-86 340.311,-122"/>
<text text-anchor="middle" x="257" y="-99.8" font-family="Times,serif" font-size="14.00">DraggableHandleDirective</text>
</g>
<!-- DraggableHandleDirective&#45;&gt;DraggableModule -->
<g id="edge2" class="edge"><title>DraggableHandleDirective&#45;&gt;DraggableModule</title>
<path fill="none" stroke="black" d="M257,-122.106C257,-122.106 257,-140.991 257,-140.991"/>
<polygon fill="black" stroke="black" points="253.5,-140.991 257,-150.991 260.5,-140.991 253.5,-140.991"/>
</g>
<!-- DroppableDirective -->
<g id="node3" class="node"><title>DroppableDirective</title>
<polygon fill="#ffffb3" stroke="black" points="155.67,-122 28.3301,-122 28.3301,-86 155.67,-86 155.67,-122"/>
<text text-anchor="middle" x="92" y="-99.8" font-family="Times,serif" font-size="14.00">DroppableDirective</text>
</g>
<!-- DroppableDirective&#45;&gt;DraggableModule -->
<g id="edge3" class="edge"><title>DroppableDirective&#45;&gt;DraggableModule</title>
<path fill="none" stroke="black" d="M112.362,-122.023C112.362,-139.373 112.362,-163 112.362,-163 112.362,-163 187.753,-163 187.753,-163"/>
<polygon fill="black" stroke="black" points="187.753,-166.5 197.753,-163 187.753,-159.5 187.753,-166.5"/>
</g>
<!-- DraggableDirective  -->
<g id="node5" class="node"><title>DraggableDirective </title>
<polygon fill="#fb8072" stroke="black" points="489.884,-252 360.116,-252 360.116,-216 489.884,-216 489.884,-252"/>
<text text-anchor="middle" x="425" y="-229.8" font-family="Times,serif" font-size="14.00">DraggableDirective </text>
</g>
<!-- DraggableModule&#45;&gt;DraggableDirective  -->
<g id="edge4" class="edge"><title>DraggableModule&#45;&gt;DraggableDirective </title>
<path fill="none" stroke="black" stroke-dasharray="5,2" d="M315.883,-175C355.963,-175 401.769,-175 401.769,-175 401.769,-175 401.769,-205.977 401.769,-205.977"/>
<polygon fill="black" stroke="black" points="398.269,-205.977 401.769,-215.977 405.269,-205.978 398.269,-205.977"/>
</g>
<!-- DraggableHandleDirective  -->
<g id="node6" class="node"><title>DraggableHandleDirective </title>
<polygon fill="#fb8072" stroke="black" points="342.311,-252 171.689,-252 171.689,-216 342.311,-216 342.311,-252"/>
<text text-anchor="middle" x="257" y="-229.8" font-family="Times,serif" font-size="14.00">DraggableHandleDirective </text>
</g>
<!-- DraggableModule&#45;&gt;DraggableHandleDirective  -->
<g id="edge5" class="edge"><title>DraggableModule&#45;&gt;DraggableHandleDirective </title>
<path fill="none" stroke="black" stroke-dasharray="5,2" d="M257,-187.106C257,-187.106 257,-205.991 257,-205.991"/>
<polygon fill="black" stroke="black" points="253.5,-205.991 257,-215.991 260.5,-205.991 253.5,-205.991"/>
</g>
<!-- DroppableDirective  -->
<g id="node7" class="node"><title>DroppableDirective </title>
<polygon fill="#fb8072" stroke="black" points="154.17,-252 23.8298,-252 23.8298,-216 154.17,-216 154.17,-252"/>
<text text-anchor="middle" x="89" y="-229.8" font-family="Times,serif" font-size="14.00">DroppableDirective </text>
</g>
<!-- DraggableModule&#45;&gt;DroppableDirective  -->
<g id="edge6" class="edge"><title>DraggableModule&#45;&gt;DroppableDirective </title>
<path fill="none" stroke="black" stroke-dasharray="5,2" d="M197.955,-175C143.284,-175 70.3884,-175 70.3884,-175 70.3884,-175 70.3884,-205.977 70.3884,-205.977"/>
<polygon fill="black" stroke="black" points="66.8885,-205.977 70.3884,-215.977 73.8885,-205.978 66.8885,-205.977"/>
</g>
</g>
</svg>
