<?xml version="1.0" encoding="UTF-8" standalone="no"?>
<!DOCTYPE svg PUBLIC "-//W3C//DTD SVG 1.1//EN"
 "http://www.w3.org/Graphics/SVG/1.1/DTD/svg11.dtd">
<!-- Generated by graphviz version 2.40.1 (20161225.0304)
 -->
<!-- Title: dependencies Pages: 1 -->
<svg width="522pt" height="211pt"
 viewBox="0.00 0.00 522.00 211.00" xmlns="http://www.w3.org/2000/svg" xmlns:xlink="http://www.w3.org/1999/xlink">
<g id="graph0" class="graph" transform="scale(1 1) rotate(0) translate(4 207)">
<title>dependencies</title>
<polygon fill="#ffffff" stroke="transparent" points="-4,4 -4,-207 518,-207 518,4 -4,4"/>
<text text-anchor="start" x="236.0091" y="-42.4" font-family="sans-serif" font-weight="bold" font-size="14.00" fill="#000000">Legend</text>
<polygon fill="#ffffb3" stroke="transparent" points="23,-10 23,-30 43,-30 43,-10 23,-10"/>
<text text-anchor="start" x="46.629" y="-15.4" font-family="sans-serif" font-size="14.00" fill="#000000"> &#160;Declarations</text>
<polygon fill="#8dd3c7" stroke="transparent" points="136,-10 136,-30 156,-30 156,-10 136,-10"/>
<text text-anchor="start" x="159.7251" y="-15.4" font-family="sans-serif" font-size="14.00" fill="#000000"> &#160;Module</text>
<polygon fill="#80b1d3" stroke="transparent" points="222,-10 222,-30 242,-30 242,-10 222,-10"/>
<text text-anchor="start" x="245.7812" y="-15.4" font-family="sans-serif" font-size="14.00" fill="#000000"> &#160;Bootstrap</text>
<polygon fill="#fdb462" stroke="transparent" points="319,-10 319,-30 339,-30 339,-10 319,-10"/>
<text text-anchor="start" x="342.6732" y="-15.4" font-family="sans-serif" font-size="14.00" fill="#000000"> &#160;Providers</text>
<polygon fill="#fb8072" stroke="transparent" points="415,-10 415,-30 435,-30 435,-10 415,-10"/>
<text text-anchor="start" x="438.7258" y="-15.4" font-family="sans-serif" font-size="14.00" fill="#000000"> &#160;Exports</text>
<g id="clust1" class="cluster">
<title>cluster_DraggableModule</title>
<polygon fill="none" stroke="#000000" stroke-dasharray="1,5" points="8,-70 8,-195 506,-195 506,-70 8,-70"/>
</g>
<g id="clust4" class="cluster">
<title>cluster_DraggableModule_exports</title>
<polygon fill="none" stroke="#000000" points="16,-135 16,-187 498,-187 498,-135 16,-135"/>
</g>
<!-- DraggableDirective  -->
<g id="node1" class="node">
<title>DraggableDirective </title>
<polygon fill="#fb8072" stroke="#000000" points="489.8845,-179 360.1155,-179 360.1155,-143 489.8845,-143 489.8845,-179"/>
<text text-anchor="middle" x="425" y="-156.8" font-family="Times,serif" font-size="14.00" fill="#000000">DraggableDirective </text>
</g>
<!-- DraggableHandleDirective  -->
<g id="node2" class="node">
<title>DraggableHandleDirective </title>
<polygon fill="#fb8072" stroke="#000000" points="342.3111,-179 171.6889,-179 171.6889,-143 342.3111,-143 342.3111,-179"/>
<text text-anchor="middle" x="257" y="-156.8" font-family="Times,serif" font-size="14.00" fill="#000000">DraggableHandleDirective </text>
</g>
<!-- DroppableDirective  -->
<g id="node3" class="node">
<title>DroppableDirective </title>
<polygon fill="#fb8072" stroke="#000000" points="154.1702,-179 23.8298,-179 23.8298,-143 154.1702,-143 154.1702,-179"/>
<text text-anchor="middle" x="89" y="-156.8" font-family="Times,serif" font-size="14.00" fill="#000000">DroppableDirective </text>
</g>
<!-- DraggableModule -->
<g id="node4" class="node">
<title>DraggableModule</title>
<polygon fill="#8dd3c7" stroke="#000000" points="315.8515,-114 312.8515,-118 291.8515,-118 288.8515,-114 198.1485,-114 198.1485,-78 315.8515,-78 315.8515,-114"/>
<text text-anchor="middle" x="257" y="-91.8" font-family="Times,serif" font-size="14.00" fill="#000000">DraggableModule</text>
</g>
<!-- DraggableModule&#45;&gt;DraggableDirective  -->
<g id="edge1" class="edge">
<title>DraggableModule&#45;&gt;DraggableDirective </title>
<path fill="none" stroke="#000000" stroke-dasharray="5,2" d="M316.2305,-96C364.5987,-96 425,-96 425,-96 425,-96 425,-132.8939 425,-132.8939"/>
<polygon fill="#000000" stroke="#000000" points="421.5001,-132.8938 425,-142.8939 428.5001,-132.8939 421.5001,-132.8938"/>
</g>
<!-- DraggableModule&#45;&gt;DraggableHandleDirective  -->
<g id="edge2" class="edge">
<title>DraggableModule&#45;&gt;DraggableHandleDirective </title>
<path fill="none" stroke="#000000" stroke-dasharray="5,2" d="M257,-114.1061C257,-114.1061 257,-132.991 257,-132.991"/>
<polygon fill="#000000" stroke="#000000" points="253.5001,-132.9909 257,-142.991 260.5001,-132.991 253.5001,-132.9909"/>
</g>
<!-- DraggableModule&#45;&gt;DroppableDirective  -->
<g id="edge3" class="edge">
<title>DraggableModule&#45;&gt;DroppableDirective </title>
<path fill="none" stroke="#000000" stroke-dasharray="5,2" d="M197.7695,-96C149.4013,-96 89,-96 89,-96 89,-96 89,-132.8939 89,-132.8939"/>
<polygon fill="#000000" stroke="#000000" points="85.5001,-132.8938 89,-142.8939 92.5001,-132.8939 85.5001,-132.8938"/>
</g>
</g>
</svg>
