<?xml version="1.0" encoding="UTF-8" standalone="no"?>
<!DOCTYPE svg PUBLIC "-//W3C//DTD SVG 1.1//EN"
 "http://www.w3.org/Graphics/SVG/1.1/DTD/svg11.dtd">
<!-- Generated by graphviz version 2.40.1 (20161225.0304)
 -->
<!-- Title: dependencies Pages: 1 -->
<svg width="522pt" height="284pt"
 viewBox="0.00 0.00 522.00 284.00" xmlns="http://www.w3.org/2000/svg" xmlns:xlink="http://www.w3.org/1999/xlink">
<g id="graph0" class="graph" transform="scale(1 1) rotate(0) translate(4 280)">
<title>dependencies</title>
<polygon fill="#ffffff" stroke="transparent" points="-4,4 -4,-280 518,-280 518,4 -4,4"/>
<text text-anchor="start" x="236.0091" y="-42.4" font-family="sans-serif" font-weight="bold" font-size="14.00" fill="#000000">Legend</text>
<polygon fill="#ffffb3" stroke="transparent" points="23,-10 23,-30 43,-30 43,-10 23,-10"/>
<text text-anchor="start" x="46.629" y="-15.4" font-family="sans-serif" font-size="14.00" fill="#000000"> &#160;Declarations</text>
<polygon fill="#8dd3c7" stroke="transparent" points="136,-10 136,-30 156,-30 156,-10 136,-10"/>
<text text-anchor="start" x="159.7251" y="-15.4" font-family="sans-serif" font-size="14.00" fill="#000000"> &#160;Module</text>
<polygon fill="#80b1d3" stroke="transparent" points="222,-10 222,-30 242,-30 242,-10 222,-10"/>
<text text-anchor="start" x="245.7812" y="-15.4" font-family="sans-serif" font-size="14.00" fill="#000000"> &#160;Bootstrap</text>
<polygon fill="#fdb462" stroke="transparent" points="319,-10 319,-30 339,-30 339,-10 319,-10"/>
<text text-anchor="start" x="342.6732" y="-15.4" font-family="sans-serif" font-size="14.00" fill="#000000"> &#160;Providers</text>
<polygon fill="#fb8072" stroke="transparent" points="415,-10 415,-30 435,-30 435,-10 415,-10"/>
<text text-anchor="start" x="438.7258" y="-15.4" font-family="sans-serif" font-size="14.00" fill="#000000"> &#160;Exports</text>
<g id="clust1" class="cluster">
<title>cluster_DraggableModule</title>
<polygon fill="none" stroke="#000000" stroke-dasharray="1,5" points="8,-70 8,-268 506,-268 506,-70 8,-70"/>
</g>
<g id="clust2" class="cluster">
<title>cluster_DraggableModule_declarations</title>
<polygon fill="none" stroke="#000000" points="20,-78 20,-130 493,-130 493,-78 20,-78"/>
</g>
<g id="clust7" class="cluster">
<title>cluster_DraggableModule_exports</title>
<polygon fill="none" stroke="#000000" points="16,-208 16,-260 498,-260 498,-208 16,-208"/>
</g>
<!-- DraggableDirective -->
<g id="node1" class="node">
<title>DraggableDirective</title>
<polygon fill="#ffffb3" stroke="#000000" points="485.385,-122 358.615,-122 358.615,-86 485.385,-86 485.385,-122"/>
<text text-anchor="middle" x="422" y="-99.8" font-family="Times,serif" font-size="14.00" fill="#000000">DraggableDirective</text>
</g>
<!-- DraggableModule -->
<g id="node4" class="node">
<title>DraggableModule</title>
<polygon fill="#8dd3c7" stroke="#000000" points="315.8515,-187 312.8515,-191 291.8515,-191 288.8515,-187 198.1485,-187 198.1485,-151 315.8515,-151 315.8515,-187"/>
<text text-anchor="middle" x="257" y="-164.8" font-family="Times,serif" font-size="14.00" fill="#000000">DraggableModule</text>
</g>
<!-- DraggableDirective&#45;&gt;DraggableModule -->
<g id="edge1" class="edge">
<title>DraggableDirective&#45;&gt;DraggableModule</title>
<path fill="none" stroke="#000000" d="M443.4807,-122.0225C443.4807,-139.3734 443.4807,-163 443.4807,-163 443.4807,-163 326.0037,-163 326.0037,-163"/>
<polygon fill="#000000" stroke="#000000" points="326.0037,-159.5001 316.0037,-163 326.0036,-166.5001 326.0037,-159.5001"/>
</g>
<!-- DraggableHandleDirective -->
<g id="node2" class="node">
<title>DraggableHandleDirective</title>
<polygon fill="#ffffb3" stroke="#000000" points="340.3109,-122 173.6891,-122 173.6891,-86 340.3109,-86 340.3109,-122"/>
<text text-anchor="middle" x="257" y="-99.8" font-family="Times,serif" font-size="14.00" fill="#000000">DraggableHandleDirective</text>
</g>
<!-- DraggableHandleDirective&#45;&gt;DraggableModule -->
<g id="edge2" class="edge">
<title>DraggableHandleDirective&#45;&gt;DraggableModule</title>
<path fill="none" stroke="#000000" d="M257,-122.1061C257,-122.1061 257,-140.991 257,-140.991"/>
<polygon fill="#000000" stroke="#000000" points="253.5001,-140.9909 257,-150.991 260.5001,-140.991 253.5001,-140.9909"/>
</g>
<!-- DroppableDirective -->
<g id="node3" class="node">
<title>DroppableDirective</title>
<polygon fill="#ffffb3" stroke="#000000" points="155.6699,-122 28.3301,-122 28.3301,-86 155.6699,-86 155.6699,-122"/>
<text text-anchor="middle" x="92" y="-99.8" font-family="Times,serif" font-size="14.00" fill="#000000">DroppableDirective</text>
</g>
<!-- DroppableDirective&#45;&gt;DraggableModule -->
<g id="edge3" class="edge">
<title>DroppableDirective&#45;&gt;DraggableModule</title>
<path fill="none" stroke="#000000" d="M112.3616,-122.0225C112.3616,-139.3734 112.3616,-163 112.3616,-163 112.3616,-163 187.7527,-163 187.7527,-163"/>
<polygon fill="#000000" stroke="#000000" points="187.7527,-166.5001 197.7527,-163 187.7527,-159.5001 187.7527,-166.5001"/>
</g>
<!-- DraggableDirective  -->
<g id="node5" class="node">
<title>DraggableDirective </title>
<polygon fill="#fb8072" stroke="#000000" points="489.8845,-252 360.1155,-252 360.1155,-216 489.8845,-216 489.8845,-252"/>
<text text-anchor="middle" x="425" y="-229.8" font-family="Times,serif" font-size="14.00" fill="#000000">DraggableDirective </text>
</g>
<!-- DraggableModule&#45;&gt;DraggableDirective  -->
<g id="edge4" class="edge">
<title>DraggableModule&#45;&gt;DraggableDirective </title>
<path fill="none" stroke="#000000" stroke-dasharray="5,2" d="M315.8832,-175C355.9634,-175 401.7693,-175 401.7693,-175 401.7693,-175 401.7693,-205.9775 401.7693,-205.9775"/>
<polygon fill="#000000" stroke="#000000" points="398.2694,-205.9774 401.7693,-215.9775 405.2694,-205.9775 398.2694,-205.9774"/>
</g>
<!-- DraggableHandleDirective  -->
<g id="node6" class="node">
<title>DraggableHandleDirective </title>
<polygon fill="#fb8072" stroke="#000000" points="342.3111,-252 171.6889,-252 171.6889,-216 342.3111,-216 342.3111,-252"/>
<text text-anchor="middle" x="257" y="-229.8" font-family="Times,serif" font-size="14.00" fill="#000000">DraggableHandleDirective </text>
</g>
<!-- DraggableModule&#45;&gt;DraggableHandleDirective  -->
<g id="edge5" class="edge">
<title>DraggableModule&#45;&gt;DraggableHandleDirective </title>
<path fill="none" stroke="#000000" stroke-dasharray="5,2" d="M257,-187.1061C257,-187.1061 257,-205.991 257,-205.991"/>
<polygon fill="#000000" stroke="#000000" points="253.5001,-205.9909 257,-215.991 260.5001,-205.991 253.5001,-205.9909"/>
</g>
<!-- DroppableDirective  -->
<g id="node7" class="node">
<title>DroppableDirective </title>
<polygon fill="#fb8072" stroke="#000000" points="154.1702,-252 23.8298,-252 23.8298,-216 154.1702,-216 154.1702,-252"/>
<text text-anchor="middle" x="89" y="-229.8" font-family="Times,serif" font-size="14.00" fill="#000000">DroppableDirective </text>
</g>
<!-- DraggableModule&#45;&gt;DroppableDirective  -->
<g id="edge6" class="edge">
<title>DraggableModule&#45;&gt;DroppableDirective </title>
<path fill="none" stroke="#000000" stroke-dasharray="5,2" d="M197.9549,-175C143.2835,-175 70.3884,-175 70.3884,-175 70.3884,-175 70.3884,-205.9775 70.3884,-205.9775"/>
<polygon fill="#000000" stroke="#000000" points="66.8885,-205.9774 70.3884,-215.9775 73.8885,-205.9775 66.8885,-205.9774"/>
</g>
</g>
</svg>
