<?xml version="1.0" encoding="UTF-8" standalone="no"?>
<!DOCTYPE svg PUBLIC "-//W3C//DTD SVG 1.1//EN"
 "http://www.w3.org/Graphics/SVG/1.1/DTD/svg11.dtd">
<!-- Generated by graphviz version 2.40.1 (20161225.0304)
 -->
<!-- Title: dependencies Pages: 1 -->
<svg width="2350pt" height="284pt"
 viewBox="0.00 0.00 2350.00 284.00" xmlns="http://www.w3.org/2000/svg" xmlns:xlink="http://www.w3.org/1999/xlink">
<g id="graph0" class="graph" transform="scale(1 1) rotate(0) translate(4 280)">
<title>dependencies</title>
<polygon fill="#ffffff" stroke="transparent" points="-4,4 -4,-280 2346,-280 2346,4 -4,4"/>
<text text-anchor="start" x="1150.0091" y="-42.4" font-family="sans-serif" font-weight="bold" font-size="14.00" fill="#000000">Legend</text>
<polygon fill="#ffffb3" stroke="transparent" points="937,-10 937,-30 957,-30 957,-10 937,-10"/>
<text text-anchor="start" x="960.629" y="-15.4" font-family="sans-serif" font-size="14.00" fill="#000000"> &#160;Declarations</text>
<polygon fill="#8dd3c7" stroke="transparent" points="1050,-10 1050,-30 1070,-30 1070,-10 1050,-10"/>
<text text-anchor="start" x="1073.7251" y="-15.4" font-family="sans-serif" font-size="14.00" fill="#000000"> &#160;Module</text>
<polygon fill="#80b1d3" stroke="transparent" points="1136,-10 1136,-30 1156,-30 1156,-10 1136,-10"/>
<text text-anchor="start" x="1159.7812" y="-15.4" font-family="sans-serif" font-size="14.00" fill="#000000"> &#160;Bootstrap</text>
<polygon fill="#fdb462" stroke="transparent" points="1233,-10 1233,-30 1253,-30 1253,-10 1233,-10"/>
<text text-anchor="start" x="1256.6732" y="-15.4" font-family="sans-serif" font-size="14.00" fill="#000000"> &#160;Providers</text>
<polygon fill="#fb8072" stroke="transparent" points="1329,-10 1329,-30 1349,-30 1349,-10 1329,-10"/>
<text text-anchor="start" x="1352.7258" y="-15.4" font-family="sans-serif" font-size="14.00" fill="#000000"> &#160;Exports</text>
<g id="clust1" class="cluster">
<title>cluster_RebirthValidatorsModule</title>
<polygon fill="none" stroke="#000000" stroke-dasharray="1,5" points="8,-70 8,-268 2334,-268 2334,-70 8,-70"/>
</g>
<g id="clust3" class="cluster">
<title>cluster_RebirthValidatorsModule_imports</title>
<polygon fill="none" stroke="#000000" points="1130,-78 1130,-130 1258,-130 1258,-78 1130,-78"/>
</g>
<g id="clust4" class="cluster">
<title>cluster_RebirthValidatorsModule_exports</title>
<polygon fill="none" stroke="#000000" points="16,-208 16,-260 2326,-260 2326,-208 16,-208"/>
</g>
<!-- CommonModule -->
<g id="node1" class="node">
<title>CommonModule</title>
<polygon fill="#8dd3c7" stroke="#000000" points="1249.6681,-122 1246.6681,-126 1225.6681,-126 1222.6681,-122 1138.3319,-122 1138.3319,-86 1249.6681,-86 1249.6681,-122"/>
<text text-anchor="middle" x="1194" y="-99.8" font-family="Times,serif" font-size="14.00" fill="#000000">CommonModule</text>
</g>
<!-- RebirthValidatorsModule -->
<g id="node2" class="node">
<title>RebirthValidatorsModule</title>
<polygon fill="#8dd3c7" stroke="#000000" points="1273.8557,-187 1270.8557,-191 1249.8557,-191 1246.8557,-187 1114.1443,-187 1114.1443,-151 1273.8557,-151 1273.8557,-187"/>
<text text-anchor="middle" x="1194" y="-164.8" font-family="Times,serif" font-size="14.00" fill="#000000">RebirthValidatorsModule</text>
</g>
<!-- CommonModule&#45;&gt;RebirthValidatorsModule -->
<g id="edge1" class="edge">
<title>CommonModule&#45;&gt;RebirthValidatorsModule</title>
<path fill="none" stroke="#000000" d="M1194,-122.1061C1194,-122.1061 1194,-140.991 1194,-140.991"/>
<polygon fill="#000000" stroke="#000000" points="1190.5001,-140.9909 1194,-150.991 1197.5001,-140.991 1190.5001,-140.9909"/>
</g>
<!-- RangeLengthDirective  -->
<g id="node3" class="node">
<title>RangeLengthDirective </title>
<polygon fill="#fb8072" stroke="#000000" points="2317.5064,-252 2170.4936,-252 2170.4936,-216 2317.5064,-216 2317.5064,-252"/>
<text text-anchor="middle" x="2244" y="-229.8" font-family="Times,serif" font-size="14.00" fill="#000000">RangeLengthDirective </text>
</g>
<!-- RebirthValidatorsModule&#45;&gt;RangeLengthDirective  -->
<g id="edge2" class="edge">
<title>RebirthValidatorsModule&#45;&gt;RangeLengthDirective </title>
<path fill="none" stroke="#000000" stroke-dasharray="5,2" d="M1274.2149,-155C1519.6674,-155 2244,-155 2244,-155 2244,-155 2244,-205.6772 2244,-205.6772"/>
<polygon fill="#000000" stroke="#000000" points="2240.5001,-205.6772 2244,-215.6772 2247.5001,-205.6773 2240.5001,-205.6772"/>
</g>
<!-- MinDirective  -->
<g id="node4" class="node">
<title>MinDirective </title>
<polygon fill="#fb8072" stroke="#000000" points="2152.418,-252 2057.582,-252 2057.582,-216 2152.418,-216 2152.418,-252"/>
<text text-anchor="middle" x="2105" y="-229.8" font-family="Times,serif" font-size="14.00" fill="#000000">MinDirective </text>
</g>
<!-- RebirthValidatorsModule&#45;&gt;MinDirective  -->
<g id="edge3" class="edge">
<title>RebirthValidatorsModule&#45;&gt;MinDirective </title>
<path fill="none" stroke="#000000" stroke-dasharray="5,2" d="M1274.0467,-159C1496.3475,-159 2105,-159 2105,-159 2105,-159 2105,-205.8446 2105,-205.8446"/>
<polygon fill="#000000" stroke="#000000" points="2101.5001,-205.8446 2105,-215.8446 2108.5001,-205.8446 2101.5001,-205.8446"/>
</g>
<!-- RangeDirective  -->
<g id="node5" class="node">
<title>RangeDirective </title>
<polygon fill="#fb8072" stroke="#000000" points="2039.8492,-252 1932.1508,-252 1932.1508,-216 2039.8492,-216 2039.8492,-252"/>
<text text-anchor="middle" x="1986" y="-229.8" font-family="Times,serif" font-size="14.00" fill="#000000">RangeDirective </text>
</g>
<!-- RebirthValidatorsModule&#45;&gt;RangeDirective  -->
<g id="edge4" class="edge">
<title>RebirthValidatorsModule&#45;&gt;RangeDirective </title>
<path fill="none" stroke="#000000" stroke-dasharray="5,2" d="M1273.9326,-163C1475.028,-163 1986,-163 1986,-163 1986,-163 1986,-205.7157 1986,-205.7157"/>
<polygon fill="#000000" stroke="#000000" points="1982.5001,-205.7157 1986,-215.7157 1989.5001,-205.7158 1982.5001,-205.7157"/>
</g>
<!-- MaxDirective  -->
<g id="node6" class="node">
<title>MaxDirective </title>
<polygon fill="#fb8072" stroke="#000000" points="1914.7423,-252 1817.2577,-252 1817.2577,-216 1914.7423,-216 1914.7423,-252"/>
<text text-anchor="middle" x="1866" y="-229.8" font-family="Times,serif" font-size="14.00" fill="#000000">MaxDirective </text>
</g>
<!-- RebirthValidatorsModule&#45;&gt;MaxDirective  -->
<g id="edge5" class="edge">
<title>RebirthValidatorsModule&#45;&gt;MaxDirective </title>
<path fill="none" stroke="#000000" stroke-dasharray="5,2" d="M1274.0585,-167C1452.247,-167 1866,-167 1866,-167 1866,-167 1866,-205.692 1866,-205.692"/>
<polygon fill="#000000" stroke="#000000" points="1862.5001,-205.6919 1866,-215.692 1869.5001,-205.692 1862.5001,-205.6919"/>
</g>
<!-- DigitsDirective  -->
<g id="node7" class="node">
<title>DigitsDirective </title>
<polygon fill="#fb8072" stroke="#000000" points="1798.806,-252 1693.194,-252 1693.194,-216 1798.806,-216 1798.806,-252"/>
<text text-anchor="middle" x="1746" y="-229.8" font-family="Times,serif" font-size="14.00" fill="#000000">DigitsDirective </text>
</g>
<!-- RebirthValidatorsModule&#45;&gt;DigitsDirective  -->
<g id="edge6" class="edge">
<title>RebirthValidatorsModule&#45;&gt;DigitsDirective </title>
<path fill="none" stroke="#000000" stroke-dasharray="5,2" d="M1273.9706,-171C1426.9517,-171 1746,-171 1746,-171 1746,-171 1746,-205.7778 1746,-205.7778"/>
<polygon fill="#000000" stroke="#000000" points="1742.5001,-205.7778 1746,-215.7778 1749.5001,-205.7778 1742.5001,-205.7778"/>
</g>
<!-- NumberDirective  -->
<g id="node8" class="node">
<title>NumberDirective </title>
<polygon fill="#fb8072" stroke="#000000" points="1674.9561,-252 1557.0439,-252 1557.0439,-216 1674.9561,-216 1674.9561,-252"/>
<text text-anchor="middle" x="1616" y="-229.8" font-family="Times,serif" font-size="14.00" fill="#000000">NumberDirective </text>
</g>
<!-- RebirthValidatorsModule&#45;&gt;NumberDirective  -->
<g id="edge7" class="edge">
<title>RebirthValidatorsModule&#45;&gt;NumberDirective </title>
<path fill="none" stroke="#000000" stroke-dasharray="5,2" d="M1273.8711,-175C1396.2133,-175 1616,-175 1616,-175 1616,-175 1616,-205.9775 1616,-205.9775"/>
<polygon fill="#000000" stroke="#000000" points="1612.5001,-205.9774 1616,-215.9775 1619.5001,-205.9775 1612.5001,-205.9774"/>
</g>
<!-- UrlDirective  -->
<g id="node9" class="node">
<title>UrlDirective </title>
<polygon fill="#fb8072" stroke="#000000" points="1539.2409,-252 1448.7591,-252 1448.7591,-216 1539.2409,-216 1539.2409,-252"/>
<text text-anchor="middle" x="1494" y="-229.8" font-family="Times,serif" font-size="14.00" fill="#000000">UrlDirective </text>
</g>
<!-- RebirthValidatorsModule&#45;&gt;UrlDirective  -->
<g id="edge8" class="edge">
<title>RebirthValidatorsModule&#45;&gt;UrlDirective </title>
<path fill="none" stroke="#000000" stroke-dasharray="5,2" d="M1274.0004,-179C1362.871,-179 1494,-179 1494,-179 1494,-179 1494,-205.9909 1494,-205.9909"/>
<polygon fill="#000000" stroke="#000000" points="1490.5001,-205.9909 1494,-215.9909 1497.5001,-205.991 1490.5001,-205.9909"/>
</g>
<!-- EmailDirective  -->
<g id="node10" class="node">
<title>EmailDirective </title>
<polygon fill="#fb8072" stroke="#000000" points="1430.5218,-252 1325.4782,-252 1325.4782,-216 1430.5218,-216 1430.5218,-252"/>
<text text-anchor="middle" x="1378" y="-229.8" font-family="Times,serif" font-size="14.00" fill="#000000">EmailDirective </text>
</g>
<!-- RebirthValidatorsModule&#45;&gt;EmailDirective  -->
<g id="edge9" class="edge">
<title>RebirthValidatorsModule&#45;&gt;EmailDirective </title>
<path fill="none" stroke="#000000" stroke-dasharray="5,2" d="M1273.9023,-183C1323.5587,-183 1378,-183 1378,-183 1378,-183 1378,-205.8757 1378,-205.8757"/>
<polygon fill="#000000" stroke="#000000" points="1374.5001,-205.8757 1378,-215.8757 1381.5001,-205.8757 1374.5001,-205.8757"/>
</g>
<!-- DateDirective  -->
<g id="node11" class="node">
<title>DateDirective </title>
<polygon fill="#fb8072" stroke="#000000" points="1307.0092,-252 1208.9908,-252 1208.9908,-216 1307.0092,-216 1307.0092,-252"/>
<text text-anchor="middle" x="1258" y="-229.8" font-family="Times,serif" font-size="14.00" fill="#000000">DateDirective </text>
</g>
<!-- RebirthValidatorsModule&#45;&gt;DateDirective  -->
<g id="edge10" class="edge">
<title>RebirthValidatorsModule&#45;&gt;DateDirective </title>
<path fill="none" stroke="#000000" stroke-dasharray="5,2" d="M1241.4616,-187.1061C1241.4616,-187.1061 1241.4616,-205.991 1241.4616,-205.991"/>
<polygon fill="#000000" stroke="#000000" points="1237.9617,-205.9909 1241.4616,-215.991 1244.9617,-205.991 1237.9617,-205.9909"/>
</g>
<!-- DateISODirective  -->
<g id="node12" class="node">
<title>DateISODirective </title>
<polygon fill="#fb8072" stroke="#000000" points="1191.0598,-252 1070.9402,-252 1070.9402,-216 1191.0598,-216 1191.0598,-252"/>
<text text-anchor="middle" x="1131" y="-229.8" font-family="Times,serif" font-size="14.00" fill="#000000">DateISODirective </text>
</g>
<!-- RebirthValidatorsModule&#45;&gt;DateISODirective  -->
<g id="edge11" class="edge">
<title>RebirthValidatorsModule&#45;&gt;DateISODirective </title>
<path fill="none" stroke="#000000" stroke-dasharray="5,2" d="M1152.6759,-187.1061C1152.6759,-187.1061 1152.6759,-205.991 1152.6759,-205.991"/>
<polygon fill="#000000" stroke="#000000" points="1149.1759,-205.9909 1152.6759,-215.991 1156.1759,-205.991 1149.1759,-205.9909"/>
</g>
<!-- JsonDirective  -->
<g id="node13" class="node">
<title>JsonDirective </title>
<polygon fill="#fb8072" stroke="#000000" points="1052.4732,-252 955.5268,-252 955.5268,-216 1052.4732,-216 1052.4732,-252"/>
<text text-anchor="middle" x="1004" y="-229.8" font-family="Times,serif" font-size="14.00" fill="#000000">JsonDirective </text>
</g>
<!-- RebirthValidatorsModule&#45;&gt;JsonDirective  -->
<g id="edge12" class="edge">
<title>RebirthValidatorsModule&#45;&gt;JsonDirective </title>
<path fill="none" stroke="#000000" stroke-dasharray="5,2" d="M1113.9736,-183C1062.0479,-183 1004,-183 1004,-183 1004,-183 1004,-205.8757 1004,-205.8757"/>
<polygon fill="#000000" stroke="#000000" points="1000.5001,-205.8757 1004,-215.8757 1007.5001,-205.8757 1000.5001,-205.8757"/>
</g>
<!-- Base64Directive  -->
<g id="node14" class="node">
<title>Base64Directive </title>
<polygon fill="#fb8072" stroke="#000000" points="937.2934,-252 824.7066,-252 824.7066,-216 937.2934,-216 937.2934,-252"/>
<text text-anchor="middle" x="881" y="-229.8" font-family="Times,serif" font-size="14.00" fill="#000000">Base64Directive </text>
</g>
<!-- RebirthValidatorsModule&#45;&gt;Base64Directive  -->
<g id="edge13" class="edge">
<title>RebirthValidatorsModule&#45;&gt;Base64Directive </title>
<path fill="none" stroke="#000000" stroke-dasharray="5,2" d="M1113.8012,-179C1021.0637,-179 881,-179 881,-179 881,-179 881,-205.9909 881,-205.9909"/>
<polygon fill="#000000" stroke="#000000" points="877.5001,-205.9909 881,-215.9909 884.5001,-205.991 877.5001,-205.9909"/>
</g>
<!-- PhoneDirective  -->
<g id="node15" class="node">
<title>PhoneDirective </title>
<polygon fill="#fb8072" stroke="#000000" points="806.0808,-252 699.9192,-252 699.9192,-216 806.0808,-216 806.0808,-252"/>
<text text-anchor="middle" x="753" y="-229.8" font-family="Times,serif" font-size="14.00" fill="#000000">PhoneDirective </text>
</g>
<!-- RebirthValidatorsModule&#45;&gt;PhoneDirective  -->
<g id="edge14" class="edge">
<title>RebirthValidatorsModule&#45;&gt;PhoneDirective </title>
<path fill="none" stroke="#000000" stroke-dasharray="5,2" d="M1114.1382,-175C987.0541,-175 753,-175 753,-175 753,-175 753,-205.9775 753,-205.9775"/>
<polygon fill="#000000" stroke="#000000" points="749.5001,-205.9774 753,-215.9775 756.5001,-205.9775 749.5001,-205.9774"/>
</g>
<!-- UUIDDirective  -->
<g id="node16" class="node">
<title>UUIDDirective </title>
<polygon fill="#fb8072" stroke="#000000" points="681.0641,-252 574.9359,-252 574.9359,-216 681.0641,-216 681.0641,-252"/>
<text text-anchor="middle" x="628" y="-229.8" font-family="Times,serif" font-size="14.00" fill="#000000">UUIDDirective </text>
</g>
<!-- RebirthValidatorsModule&#45;&gt;UUIDDirective  -->
<g id="edge15" class="edge">
<title>RebirthValidatorsModule&#45;&gt;UUIDDirective </title>
<path fill="none" stroke="#000000" stroke-dasharray="5,2" d="M1114.1065,-171C958.0882,-171 628,-171 628,-171 628,-171 628,-205.7778 628,-205.7778"/>
<polygon fill="#000000" stroke="#000000" points="624.5001,-205.7778 628,-215.7778 631.5001,-205.7778 624.5001,-205.7778"/>
</g>
<!-- EqualDirective  -->
<g id="node17" class="node">
<title>EqualDirective </title>
<polygon fill="#fb8072" stroke="#000000" points="557.2409,-252 452.7591,-252 452.7591,-216 557.2409,-216 557.2409,-252"/>
<text text-anchor="middle" x="505" y="-229.8" font-family="Times,serif" font-size="14.00" fill="#000000">EqualDirective </text>
</g>
<!-- RebirthValidatorsModule&#45;&gt;EqualDirective  -->
<g id="edge16" class="edge">
<title>RebirthValidatorsModule&#45;&gt;EqualDirective </title>
<path fill="none" stroke="#000000" stroke-dasharray="5,2" d="M1113.9525,-167C932.3936,-167 505,-167 505,-167 505,-167 505,-205.692 505,-205.692"/>
<polygon fill="#000000" stroke="#000000" points="501.5001,-205.6919 505,-215.692 508.5001,-205.692 501.5001,-205.6919"/>
</g>
<!-- IncludesDirective  -->
<g id="node18" class="node">
<title>IncludesDirective </title>
<polygon fill="#fb8072" stroke="#000000" points="434.5078,-252 315.4922,-252 315.4922,-216 434.5078,-216 434.5078,-252"/>
<text text-anchor="middle" x="375" y="-229.8" font-family="Times,serif" font-size="14.00" fill="#000000">IncludesDirective </text>
</g>
<!-- RebirthValidatorsModule&#45;&gt;IncludesDirective  -->
<g id="edge17" class="edge">
<title>RebirthValidatorsModule&#45;&gt;IncludesDirective </title>
<path fill="none" stroke="#000000" stroke-dasharray="5,2" d="M1113.9796,-163C907.898,-163 375,-163 375,-163 375,-163 375,-205.7157 375,-205.7157"/>
<polygon fill="#000000" stroke="#000000" points="371.5001,-205.7157 375,-215.7157 378.5001,-205.7158 371.5001,-205.7157"/>
</g>
<!-- EqualToDirective  -->
<g id="node19" class="node">
<title>EqualToDirective </title>
<polygon fill="#fb8072" stroke="#000000" points="297.7934,-252 178.2066,-252 178.2066,-216 297.7934,-216 297.7934,-252"/>
<text text-anchor="middle" x="238" y="-229.8" font-family="Times,serif" font-size="14.00" fill="#000000">EqualToDirective </text>
</g>
<!-- RebirthValidatorsModule&#45;&gt;EqualToDirective  -->
<g id="edge18" class="edge">
<title>RebirthValidatorsModule&#45;&gt;EqualToDirective </title>
<path fill="none" stroke="#000000" stroke-dasharray="5,2" d="M1114.1363,-159C884.3714,-159 238,-159 238,-159 238,-159 238,-205.8446 238,-205.8446"/>
<polygon fill="#000000" stroke="#000000" points="234.5001,-205.8446 238,-215.8446 241.5001,-205.8446 234.5001,-205.8446"/>
</g>
<!-- BeforeDateDirective  -->
<g id="node20" class="node">
<title>BeforeDateDirective </title>
<polygon fill="#fb8072" stroke="#000000" points="160.0962,-252 23.9038,-252 23.9038,-216 160.0962,-216 160.0962,-252"/>
<text text-anchor="middle" x="92" y="-229.8" font-family="Times,serif" font-size="14.00" fill="#000000">BeforeDateDirective </text>
</g>
<!-- RebirthValidatorsModule&#45;&gt;BeforeDateDirective  -->
<g id="edge19" class="edge">
<title>RebirthValidatorsModule&#45;&gt;BeforeDateDirective </title>
<path fill="none" stroke="#000000" stroke-dasharray="5,2" d="M1113.8592,-155C860.2701,-155 92,-155 92,-155 92,-155 92,-205.6772 92,-205.6772"/>
<polygon fill="#000000" stroke="#000000" points="88.5001,-205.6772 92,-215.6772 95.5001,-205.6773 88.5001,-205.6772"/>
</g>
</g>
</svg>
