<?xml version="1.0" encoding="UTF-8" standalone="no"?>
<!DOCTYPE svg PUBLIC "-//W3C//DTD SVG 1.1//EN"
 "http://www.w3.org/Graphics/SVG/1.1/DTD/svg11.dtd">
<!-- Generated by graphviz version 2.40.1 (20161225.0304)
 -->
<!-- Title: dependencies Pages: 1 -->
<svg width="2692pt" height="349pt"
 viewBox="0.00 0.00 2692.00 349.00" xmlns="http://www.w3.org/2000/svg" xmlns:xlink="http://www.w3.org/1999/xlink">
<g id="graph0" class="graph" transform="scale(1 1) rotate(0) translate(4 345)">
<title>dependencies</title>
<polygon fill="#ffffff" stroke="transparent" points="-4,4 -4,-345 2688,-345 2688,4 -4,4"/>
<text text-anchor="start" x="1321.0091" y="-42.4" font-family="sans-serif" font-weight="bold" font-size="14.00" fill="#000000">Legend</text>
<polygon fill="#ffffb3" stroke="transparent" points="1108,-10 1108,-30 1128,-30 1128,-10 1108,-10"/>
<text text-anchor="start" x="1131.629" y="-15.4" font-family="sans-serif" font-size="14.00" fill="#000000"> &#160;Declarations</text>
<polygon fill="#8dd3c7" stroke="transparent" points="1221,-10 1221,-30 1241,-30 1241,-10 1221,-10"/>
<text text-anchor="start" x="1244.7251" y="-15.4" font-family="sans-serif" font-size="14.00" fill="#000000"> &#160;Module</text>
<polygon fill="#80b1d3" stroke="transparent" points="1307,-10 1307,-30 1327,-30 1327,-10 1307,-10"/>
<text text-anchor="start" x="1330.7812" y="-15.4" font-family="sans-serif" font-size="14.00" fill="#000000"> &#160;Bootstrap</text>
<polygon fill="#fdb462" stroke="transparent" points="1404,-10 1404,-30 1424,-30 1424,-10 1404,-10"/>
<text text-anchor="start" x="1427.6732" y="-15.4" font-family="sans-serif" font-size="14.00" fill="#000000"> &#160;Providers</text>
<polygon fill="#fb8072" stroke="transparent" points="1500,-10 1500,-30 1520,-30 1520,-10 1500,-10"/>
<text text-anchor="start" x="1523.7258" y="-15.4" font-family="sans-serif" font-size="14.00" fill="#000000"> &#160;Exports</text>
<g id="clust1" class="cluster">
<title>cluster_RebirthValidatorsModule</title>
<polygon fill="none" stroke="#000000" stroke-dasharray="1,5" points="8,-70 8,-333 2676,-333 2676,-70 8,-70"/>
</g>
<g id="clust2" class="cluster">
<title>cluster_RebirthValidatorsModule_declarations</title>
<polygon fill="none" stroke="#000000" points="62,-143 62,-195 2640,-195 2640,-143 62,-143"/>
</g>
<g id="clust3" class="cluster">
<title>cluster_RebirthValidatorsModule_RequiredWithTrimDirective_providers</title>
<polygon fill="none" stroke="#000000" points="1276,-78 1276,-130 1422,-130 1422,-78 1276,-78"/>
</g>
<g id="clust24" class="cluster">
<title>cluster_RebirthValidatorsModule_exports</title>
<polygon fill="none" stroke="#000000" points="16,-273 16,-325 2668,-325 2668,-273 16,-273"/>
</g>
<!-- RequiredWithTrimDirective -->
<g id="node1" class="node">
<title>RequiredWithTrimDirective</title>
<polygon fill="#ffffb3" stroke="#000000" points="2631.8904,-187 2456.1096,-187 2456.1096,-151 2631.8904,-151 2631.8904,-187"/>
<text text-anchor="middle" x="2544" y="-164.8" font-family="Times,serif" font-size="14.00" fill="#000000">RequiredWithTrimDirective</text>
</g>
<!-- RebirthValidatorsModule -->
<g id="node21" class="node">
<title>RebirthValidatorsModule</title>
<polygon fill="#8dd3c7" stroke="#000000" points="1384.8557,-252 1381.8557,-256 1360.8557,-256 1357.8557,-252 1225.1443,-252 1225.1443,-216 1384.8557,-216 1384.8557,-252"/>
<text text-anchor="middle" x="1305" y="-229.8" font-family="Times,serif" font-size="14.00" fill="#000000">RebirthValidatorsModule</text>
</g>
<!-- RequiredWithTrimDirective&#45;&gt;RebirthValidatorsModule -->
<g id="edge1" class="edge">
<title>RequiredWithTrimDirective&#45;&gt;RebirthValidatorsModule</title>
<path fill="none" stroke="#000000" d="M2459.9041,-187.1061C2459.9041,-206.3391 2459.9041,-234 2459.9041,-234 2459.9041,-234 1395.2937,-234 1395.2937,-234"/>
<polygon fill="#000000" stroke="#000000" points="1395.2937,-230.5001 1385.2937,-234 1395.2937,-237.5001 1395.2937,-230.5001"/>
</g>
<!-- RangeLengthDirective -->
<g id="node2" class="node">
<title>RangeLengthDirective</title>
<polygon fill="#ffffb3" stroke="#000000" points="2438.5072,-187 2295.4928,-187 2295.4928,-151 2438.5072,-151 2438.5072,-187"/>
<text text-anchor="middle" x="2367" y="-164.8" font-family="Times,serif" font-size="14.00" fill="#000000">RangeLengthDirective</text>
</g>
<!-- RangeLengthDirective&#45;&gt;RebirthValidatorsModule -->
<g id="edge3" class="edge">
<title>RangeLengthDirective&#45;&gt;RebirthValidatorsModule</title>
<path fill="none" stroke="#000000" d="M2307.4779,-187.2222C2307.4779,-205.8285 2307.4779,-232 2307.4779,-232 2307.4779,-232 1394.9211,-232 1394.9211,-232"/>
<polygon fill="#000000" stroke="#000000" points="1394.9211,-228.5001 1384.9211,-232 1394.921,-235.5001 1394.9211,-228.5001"/>
</g>
<!-- MinDirective -->
<g id="node3" class="node">
<title>MinDirective</title>
<polygon fill="#ffffb3" stroke="#000000" points="2277.919,-187 2186.081,-187 2186.081,-151 2277.919,-151 2277.919,-187"/>
<text text-anchor="middle" x="2232" y="-164.8" font-family="Times,serif" font-size="14.00" fill="#000000">MinDirective</text>
</g>
<!-- MinDirective&#45;&gt;RebirthValidatorsModule -->
<g id="edge5" class="edge">
<title>MinDirective&#45;&gt;RebirthValidatorsModule</title>
<path fill="none" stroke="#000000" d="M2194.916,-187.302C2194.916,-205.2699 2194.916,-230 2194.916,-230 2194.916,-230 1395.1501,-230 1395.1501,-230"/>
<polygon fill="#000000" stroke="#000000" points="1395.1501,-226.5001 1385.1501,-230 1395.15,-233.5001 1395.1501,-226.5001"/>
</g>
<!-- RangeDirective -->
<g id="node4" class="node">
<title>RangeDirective</title>
<polygon fill="#ffffb3" stroke="#000000" points="2167.8487,-187 2064.1513,-187 2064.1513,-151 2167.8487,-151 2167.8487,-187"/>
<text text-anchor="middle" x="2116" y="-164.8" font-family="Times,serif" font-size="14.00" fill="#000000">RangeDirective</text>
</g>
<!-- RangeDirective&#45;&gt;RebirthValidatorsModule -->
<g id="edge7" class="edge">
<title>RangeDirective&#45;&gt;RebirthValidatorsModule</title>
<path fill="none" stroke="#000000" d="M2071.2007,-187.0225C2071.2007,-204.3734 2071.2007,-228 2071.2007,-228 2071.2007,-228 1395.1883,-228 1395.1883,-228"/>
<polygon fill="#000000" stroke="#000000" points="1395.1884,-224.5001 1385.1883,-228 1395.1883,-231.5001 1395.1884,-224.5001"/>
</g>
<!-- MaxDirective -->
<g id="node5" class="node">
<title>MaxDirective</title>
<polygon fill="#ffffb3" stroke="#000000" points="2045.7424,-187 1952.2576,-187 1952.2576,-151 2045.7424,-151 2045.7424,-187"/>
<text text-anchor="middle" x="1999" y="-164.8" font-family="Times,serif" font-size="14.00" fill="#000000">MaxDirective</text>
</g>
<!-- MaxDirective&#45;&gt;RebirthValidatorsModule -->
<g id="edge9" class="edge">
<title>MaxDirective&#45;&gt;RebirthValidatorsModule</title>
<path fill="none" stroke="#000000" d="M1957.754,-187.0352C1957.754,-203.7344 1957.754,-226 1957.754,-226 1957.754,-226 1395.0405,-226 1395.0405,-226"/>
<polygon fill="#000000" stroke="#000000" points="1395.0405,-222.5001 1385.0405,-226 1395.0404,-229.5001 1395.0405,-222.5001"/>
</g>
<!-- DigitsDirective -->
<g id="node6" class="node">
<title>DigitsDirective</title>
<polygon fill="#ffffb3" stroke="#000000" points="1934.3063,-187 1831.6937,-187 1831.6937,-151 1934.3063,-151 1934.3063,-187"/>
<text text-anchor="middle" x="1883" y="-164.8" font-family="Times,serif" font-size="14.00" fill="#000000">DigitsDirective</text>
</g>
<!-- DigitsDirective&#45;&gt;RebirthValidatorsModule -->
<g id="edge11" class="edge">
<title>DigitsDirective&#45;&gt;RebirthValidatorsModule</title>
<path fill="none" stroke="#000000" d="M1835.4721,-187.0091C1835.4721,-203.0494 1835.4721,-224 1835.4721,-224 1835.4721,-224 1394.9914,-224 1394.9914,-224"/>
<polygon fill="#000000" stroke="#000000" points="1394.9914,-220.5001 1384.9914,-224 1394.9914,-227.5001 1394.9914,-220.5001"/>
</g>
<!-- NumberDirective -->
<g id="node7" class="node">
<title>NumberDirective</title>
<polygon fill="#ffffb3" stroke="#000000" points="1813.9552,-187 1700.0448,-187 1700.0448,-151 1813.9552,-151 1813.9552,-187"/>
<text text-anchor="middle" x="1757" y="-164.8" font-family="Times,serif" font-size="14.00" fill="#000000">NumberDirective</text>
</g>
<!-- NumberDirective&#45;&gt;RebirthValidatorsModule -->
<g id="edge13" class="edge">
<title>NumberDirective&#45;&gt;RebirthValidatorsModule</title>
<path fill="none" stroke="#000000" d="M1777.0759,-187.2396C1777.0759,-202.5706 1777.0759,-222 1777.0759,-222 1777.0759,-222 1395.0812,-222 1395.0812,-222"/>
<polygon fill="#000000" stroke="#000000" points="1395.0813,-218.5001 1385.0812,-222 1395.0812,-225.5001 1395.0813,-218.5001"/>
</g>
<!-- UrlDirective -->
<g id="node8" class="node">
<title>UrlDirective</title>
<polygon fill="#ffffb3" stroke="#000000" points="1682.241,-187 1595.759,-187 1595.759,-151 1682.241,-151 1682.241,-187"/>
<text text-anchor="middle" x="1639" y="-164.8" font-family="Times,serif" font-size="14.00" fill="#000000">UrlDirective</text>
</g>
<!-- UrlDirective&#45;&gt;RebirthValidatorsModule -->
<g id="edge15" class="edge">
<title>UrlDirective&#45;&gt;RebirthValidatorsModule</title>
<path fill="none" stroke="#000000" d="M1653.4568,-187.1243C1653.4568,-201.7832 1653.4568,-220 1653.4568,-220 1653.4568,-220 1394.943,-220 1394.943,-220"/>
<polygon fill="#000000" stroke="#000000" points="1394.9431,-216.5001 1384.943,-220 1394.943,-223.5001 1394.9431,-216.5001"/>
</g>
<!-- EmailDirective -->
<g id="node9" class="node">
<title>EmailDirective</title>
<polygon fill="#ffffb3" stroke="#000000" points="1577.5229,-187 1476.4771,-187 1476.4771,-151 1577.5229,-151 1577.5229,-187"/>
<text text-anchor="middle" x="1527" y="-164.8" font-family="Times,serif" font-size="14.00" fill="#000000">EmailDirective</text>
</g>
<!-- EmailDirective&#45;&gt;RebirthValidatorsModule -->
<g id="edge17" class="edge">
<title>EmailDirective&#45;&gt;RebirthValidatorsModule</title>
<path fill="none" stroke="#000000" d="M1509.663,-187.2458C1509.663,-201.1772 1509.663,-218 1509.663,-218 1509.663,-218 1395.0074,-218 1395.0074,-218"/>
<polygon fill="#000000" stroke="#000000" points="1395.0074,-214.5001 1385.0074,-218 1395.0074,-221.5001 1395.0074,-214.5001"/>
</g>
<!-- DateDirective -->
<g id="node10" class="node">
<title>DateDirective</title>
<polygon fill="#ffffb3" stroke="#000000" points="1458.0105,-187 1363.9895,-187 1363.9895,-151 1458.0105,-151 1458.0105,-187"/>
<text text-anchor="middle" x="1411" y="-164.8" font-family="Times,serif" font-size="14.00" fill="#000000">DateDirective</text>
</g>
<!-- DateDirective&#45;&gt;RebirthValidatorsModule -->
<g id="edge19" class="edge">
<title>DateDirective&#45;&gt;RebirthValidatorsModule</title>
<path fill="none" stroke="#000000" d="M1374.3366,-187.1061C1374.3366,-187.1061 1374.3366,-205.991 1374.3366,-205.991"/>
<polygon fill="#000000" stroke="#000000" points="1370.8367,-205.9909 1374.3366,-215.991 1377.8367,-205.991 1370.8367,-205.9909"/>
</g>
<!-- DateISODirective -->
<g id="node11" class="node">
<title>DateISODirective</title>
<polygon fill="#ffffb3" stroke="#000000" points="1345.559,-187 1228.441,-187 1228.441,-151 1345.559,-151 1345.559,-187"/>
<text text-anchor="middle" x="1287" y="-164.8" font-family="Times,serif" font-size="14.00" fill="#000000">DateISODirective</text>
</g>
<!-- DateISODirective&#45;&gt;RebirthValidatorsModule -->
<g id="edge21" class="edge">
<title>DateISODirective&#45;&gt;RebirthValidatorsModule</title>
<path fill="none" stroke="#000000" d="M1287,-187.1061C1287,-187.1061 1287,-205.991 1287,-205.991"/>
<polygon fill="#000000" stroke="#000000" points="1283.5001,-205.9909 1287,-215.991 1290.5001,-205.991 1283.5001,-205.9909"/>
</g>
<!-- JsonDirective -->
<g id="node12" class="node">
<title>JsonDirective</title>
<polygon fill="#ffffb3" stroke="#000000" points="1210.472,-187 1117.528,-187 1117.528,-151 1210.472,-151 1210.472,-187"/>
<text text-anchor="middle" x="1164" y="-164.8" font-family="Times,serif" font-size="14.00" fill="#000000">JsonDirective</text>
</g>
<!-- JsonDirective&#45;&gt;RebirthValidatorsModule -->
<g id="edge23" class="edge">
<title>JsonDirective&#45;&gt;RebirthValidatorsModule</title>
<path fill="none" stroke="#000000" d="M1204.361,-187.2458C1204.361,-201.1772 1204.361,-218 1204.361,-218 1204.361,-218 1214.7268,-218 1214.7268,-218"/>
<polygon fill="#000000" stroke="#000000" points="1214.7268,-221.5001 1224.7268,-218 1214.7268,-214.5001 1214.7268,-221.5001"/>
</g>
<!-- Base64Directive -->
<g id="node13" class="node">
<title>Base64Directive</title>
<polygon fill="#ffffb3" stroke="#000000" points="1099.7936,-187 990.2064,-187 990.2064,-151 1099.7936,-151 1099.7936,-187"/>
<text text-anchor="middle" x="1045" y="-164.8" font-family="Times,serif" font-size="14.00" fill="#000000">Base64Directive</text>
</g>
<!-- Base64Directive&#45;&gt;RebirthValidatorsModule -->
<g id="edge25" class="edge">
<title>Base64Directive&#45;&gt;RebirthValidatorsModule</title>
<path fill="none" stroke="#000000" d="M1091.5216,-187.1243C1091.5216,-201.7832 1091.5216,-220 1091.5216,-220 1091.5216,-220 1214.9012,-220 1214.9012,-220"/>
<polygon fill="#000000" stroke="#000000" points="1214.9012,-223.5001 1224.9012,-220 1214.9011,-216.5001 1214.9012,-223.5001"/>
</g>
<!-- PhoneDirective -->
<g id="node14" class="node">
<title>PhoneDirective</title>
<polygon fill="#ffffb3" stroke="#000000" points="972.58,-187 869.42,-187 869.42,-151 972.58,-151 972.58,-187"/>
<text text-anchor="middle" x="921" y="-164.8" font-family="Times,serif" font-size="14.00" fill="#000000">PhoneDirective</text>
</g>
<!-- PhoneDirective&#45;&gt;RebirthValidatorsModule -->
<g id="edge27" class="edge">
<title>PhoneDirective&#45;&gt;RebirthValidatorsModule</title>
<path fill="none" stroke="#000000" d="M961.4467,-187.2396C961.4467,-202.5706 961.4467,-222 961.4467,-222 961.4467,-222 1214.8856,-222 1214.8856,-222"/>
<polygon fill="#000000" stroke="#000000" points="1214.8856,-225.5001 1224.8856,-222 1214.8856,-218.5001 1214.8856,-225.5001"/>
</g>
<!-- UUIDDirective -->
<g id="node15" class="node">
<title>UUIDDirective</title>
<polygon fill="#ffffb3" stroke="#000000" points="851.5632,-187 748.4368,-187 748.4368,-151 851.5632,-151 851.5632,-187"/>
<text text-anchor="middle" x="800" y="-164.8" font-family="Times,serif" font-size="14.00" fill="#000000">UUIDDirective</text>
</g>
<!-- UUIDDirective&#45;&gt;RebirthValidatorsModule -->
<g id="edge29" class="edge">
<title>UUIDDirective&#45;&gt;RebirthValidatorsModule</title>
<path fill="none" stroke="#000000" d="M836.4958,-187.0091C836.4958,-203.0494 836.4958,-224 836.4958,-224 836.4958,-224 1214.9936,-224 1214.9936,-224"/>
<polygon fill="#000000" stroke="#000000" points="1214.9936,-227.5001 1224.9936,-224 1214.9936,-220.5001 1214.9936,-227.5001"/>
</g>
<!-- EqualDirective -->
<g id="node16" class="node">
<title>EqualDirective</title>
<polygon fill="#ffffb3" stroke="#000000" points="730.2409,-187 629.7591,-187 629.7591,-151 730.2409,-151 730.2409,-187"/>
<text text-anchor="middle" x="680" y="-164.8" font-family="Times,serif" font-size="14.00" fill="#000000">EqualDirective</text>
</g>
<!-- EqualDirective&#45;&gt;RebirthValidatorsModule -->
<g id="edge31" class="edge">
<title>EqualDirective&#45;&gt;RebirthValidatorsModule</title>
<path fill="none" stroke="#000000" d="M725.5444,-187.0352C725.5444,-203.7344 725.5444,-226 725.5444,-226 725.5444,-226 1215.0375,-226 1215.0375,-226"/>
<polygon fill="#000000" stroke="#000000" points="1215.0376,-229.5001 1225.0375,-226 1215.0375,-222.5001 1215.0376,-229.5001"/>
</g>
<!-- IncludesDirective -->
<g id="node17" class="node">
<title>IncludesDirective</title>
<polygon fill="#ffffb3" stroke="#000000" points="611.5088,-187 496.4912,-187 496.4912,-151 611.5088,-151 611.5088,-187"/>
<text text-anchor="middle" x="554" y="-164.8" font-family="Times,serif" font-size="14.00" fill="#000000">IncludesDirective</text>
</g>
<!-- IncludesDirective&#45;&gt;RebirthValidatorsModule -->
<g id="edge33" class="edge">
<title>IncludesDirective&#45;&gt;RebirthValidatorsModule</title>
<path fill="none" stroke="#000000" d="M605.3168,-187.0225C605.3168,-204.3734 605.3168,-228 605.3168,-228 605.3168,-228 1215.0783,-228 1215.0783,-228"/>
<polygon fill="#000000" stroke="#000000" points="1215.0784,-231.5001 1225.0783,-228 1215.0783,-224.5001 1215.0784,-231.5001"/>
</g>
<!-- EqualToDirective -->
<g id="node18" class="node">
<title>EqualToDirective</title>
<polygon fill="#ffffb3" stroke="#000000" points="478.2936,-187 361.7064,-187 361.7064,-151 478.2936,-151 478.2936,-187"/>
<text text-anchor="middle" x="420" y="-164.8" font-family="Times,serif" font-size="14.00" fill="#000000">EqualToDirective</text>
</g>
<!-- EqualToDirective&#45;&gt;RebirthValidatorsModule -->
<g id="edge35" class="edge">
<title>EqualToDirective&#45;&gt;RebirthValidatorsModule</title>
<path fill="none" stroke="#000000" d="M469.8214,-187.302C469.8214,-205.2699 469.8214,-230 469.8213,-230 469.8213,-230 1214.9196,-230 1214.9196,-230"/>
<polygon fill="#000000" stroke="#000000" points="1214.9196,-233.5001 1224.9196,-230 1214.9195,-226.5001 1214.9196,-233.5001"/>
</g>
<!-- BeforeDateDirective -->
<g id="node19" class="node">
<title>BeforeDateDirective</title>
<polygon fill="#ffffb3" stroke="#000000" points="344.0968,-187 211.9032,-187 211.9032,-151 344.0968,-151 344.0968,-187"/>
<text text-anchor="middle" x="278" y="-164.8" font-family="Times,serif" font-size="14.00" fill="#000000">BeforeDateDirective</text>
</g>
<!-- BeforeDateDirective&#45;&gt;RebirthValidatorsModule -->
<g id="edge37" class="edge">
<title>BeforeDateDirective&#45;&gt;RebirthValidatorsModule</title>
<path fill="none" stroke="#000000" d="M334.2007,-187.2222C334.2007,-205.8285 334.2007,-232 334.2007,-232 334.2007,-232 1215.1429,-232 1215.1429,-232"/>
<polygon fill="#000000" stroke="#000000" points="1215.1429,-235.5001 1225.1429,-232 1215.1429,-228.5001 1215.1429,-235.5001"/>
</g>
<!-- AfterDateDirective -->
<g id="node20" class="node">
<title>AfterDateDirective</title>
<polygon fill="#ffffb3" stroke="#000000" points="194.0422,-187 69.9578,-187 69.9578,-151 194.0422,-151 194.0422,-187"/>
<text text-anchor="middle" x="132" y="-164.8" font-family="Times,serif" font-size="14.00" fill="#000000">AfterDateDirective</text>
</g>
<!-- AfterDateDirective&#45;&gt;RebirthValidatorsModule -->
<g id="edge39" class="edge">
<title>AfterDateDirective&#45;&gt;RebirthValidatorsModule</title>
<path fill="none" stroke="#000000" d="M181.9865,-187.1061C181.9865,-206.3391 181.9865,-234 181.9865,-234 181.9865,-234 1215.1359,-234 1215.1359,-234"/>
<polygon fill="#000000" stroke="#000000" points="1215.136,-237.5001 1225.1359,-234 1215.1359,-230.5001 1215.136,-237.5001"/>
</g>
<!-- RequiredWithTrimDirective  -->
<g id="node23" class="node">
<title>RequiredWithTrimDirective </title>
<polygon fill="#fb8072" stroke="#000000" points="2660.39,-317 2481.61,-317 2481.61,-281 2660.39,-281 2660.39,-317"/>
<text text-anchor="middle" x="2571" y="-294.8" font-family="Times,serif" font-size="14.00" fill="#000000">RequiredWithTrimDirective </text>
</g>
<!-- RebirthValidatorsModule&#45;&gt;RequiredWithTrimDirective  -->
<g id="edge41" class="edge">
<title>RebirthValidatorsModule&#45;&gt;RequiredWithTrimDirective </title>
<path fill="none" stroke="#000000" stroke-dasharray="5,2" d="M1385.1988,-235C1661.4456,-235 2556.625,-235 2556.625,-235 2556.625,-235 2556.625,-270.8314 2556.625,-270.8314"/>
<polygon fill="#000000" stroke="#000000" points="2553.1251,-270.8313 2556.625,-280.8314 2560.1251,-270.8314 2553.1251,-270.8313"/>
</g>
<!-- RangeLengthDirective  -->
<g id="node24" class="node">
<title>RangeLengthDirective </title>
<polygon fill="#fb8072" stroke="#000000" points="2463.5064,-317 2316.4936,-317 2316.4936,-281 2463.5064,-281 2463.5064,-317"/>
<text text-anchor="middle" x="2390" y="-294.8" font-family="Times,serif" font-size="14.00" fill="#000000">RangeLengthDirective </text>
</g>
<!-- RebirthValidatorsModule&#45;&gt;RangeLengthDirective  -->
<g id="edge42" class="edge">
<title>RebirthValidatorsModule&#45;&gt;RangeLengthDirective </title>
<path fill="none" stroke="#000000" stroke-dasharray="5,2" d="M1385.1825,-237C1634.2007,-237 2377.625,-237 2377.625,-237 2377.625,-237 2377.625,-270.7333 2377.625,-270.7333"/>
<polygon fill="#000000" stroke="#000000" points="2374.1251,-270.7333 2377.625,-280.7333 2381.1251,-270.7333 2374.1251,-270.7333"/>
</g>
<!-- MinDirective  -->
<g id="node25" class="node">
<title>MinDirective </title>
<polygon fill="#fb8072" stroke="#000000" points="2298.418,-317 2203.582,-317 2203.582,-281 2298.418,-281 2298.418,-317"/>
<text text-anchor="middle" x="2251" y="-294.8" font-family="Times,serif" font-size="14.00" fill="#000000">MinDirective </text>
</g>
<!-- RebirthValidatorsModule&#45;&gt;MinDirective  -->
<g id="edge43" class="edge">
<title>RebirthValidatorsModule&#45;&gt;MinDirective </title>
<path fill="none" stroke="#000000" stroke-dasharray="5,2" d="M1385.1753,-239C1611.7804,-239 2240.625,-239 2240.625,-239 2240.625,-239 2240.625,-270.998 2240.625,-270.998"/>
<polygon fill="#000000" stroke="#000000" points="2237.1251,-270.998 2240.625,-280.998 2244.1251,-270.9981 2237.1251,-270.998"/>
</g>
<!-- RangeDirective  -->
<g id="node26" class="node">
<title>RangeDirective </title>
<polygon fill="#fb8072" stroke="#000000" points="2185.8492,-317 2078.1508,-317 2078.1508,-281 2185.8492,-281 2185.8492,-317"/>
<text text-anchor="middle" x="2132" y="-294.8" font-family="Times,serif" font-size="14.00" fill="#000000">RangeDirective </text>
</g>
<!-- RebirthValidatorsModule&#45;&gt;RangeDirective  -->
<g id="edge44" class="edge">
<title>RebirthValidatorsModule&#45;&gt;RangeDirective </title>
<path fill="none" stroke="#000000" stroke-dasharray="5,2" d="M1384.9349,-241C1590.7963,-241 2123.125,-241 2123.125,-241 2123.125,-241 2123.125,-270.9664 2123.125,-270.9664"/>
<polygon fill="#000000" stroke="#000000" points="2119.6251,-270.9663 2123.125,-280.9664 2126.6251,-270.9664 2119.6251,-270.9663"/>
</g>
<!-- MaxDirective  -->
<g id="node27" class="node">
<title>MaxDirective </title>
<polygon fill="#fb8072" stroke="#000000" points="2060.7423,-317 1963.2577,-317 1963.2577,-281 2060.7423,-281 2060.7423,-317"/>
<text text-anchor="middle" x="2012" y="-294.8" font-family="Times,serif" font-size="14.00" fill="#000000">MaxDirective </text>
</g>
<!-- RebirthValidatorsModule&#45;&gt;MaxDirective  -->
<g id="edge45" class="edge">
<title>RebirthValidatorsModule&#45;&gt;MaxDirective </title>
<path fill="none" stroke="#000000" stroke-dasharray="5,2" d="M1384.915,-243C1568.4855,-243 2004.625,-243 2004.625,-243 2004.625,-243 2004.625,-270.973 2004.625,-270.973"/>
<polygon fill="#000000" stroke="#000000" points="2001.1251,-270.973 2004.625,-280.973 2008.1251,-270.973 2001.1251,-270.973"/>
</g>
<!-- DigitsDirective  -->
<g id="node28" class="node">
<title>DigitsDirective </title>
<polygon fill="#fb8072" stroke="#000000" points="1944.806,-317 1839.194,-317 1839.194,-281 1944.806,-281 1944.806,-317"/>
<text text-anchor="middle" x="1892" y="-294.8" font-family="Times,serif" font-size="14.00" fill="#000000">DigitsDirective </text>
</g>
<!-- RebirthValidatorsModule&#45;&gt;DigitsDirective  -->
<g id="edge46" class="edge">
<title>RebirthValidatorsModule&#45;&gt;DigitsDirective </title>
<path fill="none" stroke="#000000" stroke-dasharray="5,2" d="M1384.9572,-245C1544.3812,-245 1886.625,-245 1886.625,-245 1886.625,-245 1886.625,-270.7181 1886.625,-270.7181"/>
<polygon fill="#000000" stroke="#000000" points="1883.1251,-270.718 1886.625,-280.7181 1890.1251,-270.7181 1883.1251,-270.718"/>
</g>
<!-- NumberDirective  -->
<g id="node29" class="node">
<title>NumberDirective </title>
<polygon fill="#fb8072" stroke="#000000" points="1820.9561,-317 1703.0439,-317 1703.0439,-281 1820.9561,-281 1820.9561,-317"/>
<text text-anchor="middle" x="1762" y="-294.8" font-family="Times,serif" font-size="14.00" fill="#000000">NumberDirective </text>
</g>
<!-- RebirthValidatorsModule&#45;&gt;NumberDirective  -->
<g id="edge47" class="edge">
<title>RebirthValidatorsModule&#45;&gt;NumberDirective </title>
<path fill="none" stroke="#000000" stroke-dasharray="5,2" d="M1385.0711,-247C1510.7574,-247 1740.1741,-247 1740.1741,-247 1740.1741,-247 1740.1741,-270.8129 1740.1741,-270.8129"/>
<polygon fill="#000000" stroke="#000000" points="1736.6742,-270.8129 1740.1741,-280.8129 1743.6742,-270.813 1736.6742,-270.8129"/>
</g>
<!-- UrlDirective  -->
<g id="node30" class="node">
<title>UrlDirective </title>
<polygon fill="#fb8072" stroke="#000000" points="1685.2409,-317 1594.7591,-317 1594.7591,-281 1685.2409,-281 1685.2409,-317"/>
<text text-anchor="middle" x="1640" y="-294.8" font-family="Times,serif" font-size="14.00" fill="#000000">UrlDirective </text>
</g>
<!-- RebirthValidatorsModule&#45;&gt;UrlDirective  -->
<g id="edge48" class="edge">
<title>RebirthValidatorsModule&#45;&gt;UrlDirective </title>
<path fill="none" stroke="#000000" stroke-dasharray="5,2" d="M1385.2218,-249C1479.8767,-249 1624.5432,-249 1624.5432,-249 1624.5432,-249 1624.5432,-270.9489 1624.5432,-270.9489"/>
<polygon fill="#000000" stroke="#000000" points="1621.0433,-270.9488 1624.5432,-280.9489 1628.0433,-270.9489 1621.0433,-270.9488"/>
</g>
<!-- EmailDirective  -->
<g id="node31" class="node">
<title>EmailDirective </title>
<polygon fill="#fb8072" stroke="#000000" points="1576.5218,-317 1471.4782,-317 1471.4782,-281 1576.5218,-281 1576.5218,-317"/>
<text text-anchor="middle" x="1524" y="-294.8" font-family="Times,serif" font-size="14.00" fill="#000000">EmailDirective </text>
</g>
<!-- RebirthValidatorsModule&#45;&gt;EmailDirective  -->
<g id="edge49" class="edge">
<title>RebirthValidatorsModule&#45;&gt;EmailDirective </title>
<path fill="none" stroke="#000000" stroke-dasharray="5,2" d="M1384.9418,-251C1454.1086,-251 1543.087,-251 1543.087,-251 1543.087,-251 1543.087,-270.8533 1543.087,-270.8533"/>
<polygon fill="#000000" stroke="#000000" points="1539.5871,-270.8532 1543.087,-280.8533 1546.5871,-270.8533 1539.5871,-270.8532"/>
</g>
<!-- DateDirective  -->
<g id="node32" class="node">
<title>DateDirective </title>
<polygon fill="#fb8072" stroke="#000000" points="1453.0092,-317 1354.9908,-317 1354.9908,-281 1453.0092,-281 1453.0092,-317"/>
<text text-anchor="middle" x="1404" y="-294.8" font-family="Times,serif" font-size="14.00" fill="#000000">DateDirective </text>
</g>
<!-- RebirthValidatorsModule&#45;&gt;DateDirective  -->
<g id="edge50" class="edge">
<title>RebirthValidatorsModule&#45;&gt;DateDirective </title>
<path fill="none" stroke="#000000" stroke-dasharray="5,2" d="M1369.9616,-252.1061C1369.9616,-252.1061 1369.9616,-270.991 1369.9616,-270.991"/>
<polygon fill="#000000" stroke="#000000" points="1366.4617,-270.9909 1369.9616,-280.991 1373.4617,-270.991 1366.4617,-270.9909"/>
</g>
<!-- DateISODirective  -->
<g id="node33" class="node">
<title>DateISODirective </title>
<polygon fill="#fb8072" stroke="#000000" points="1337.0598,-317 1216.9402,-317 1216.9402,-281 1337.0598,-281 1337.0598,-317"/>
<text text-anchor="middle" x="1277" y="-294.8" font-family="Times,serif" font-size="14.00" fill="#000000">DateISODirective </text>
</g>
<!-- RebirthValidatorsModule&#45;&gt;DateISODirective  -->
<g id="edge51" class="edge">
<title>RebirthValidatorsModule&#45;&gt;DateISODirective </title>
<path fill="none" stroke="#000000" stroke-dasharray="5,2" d="M1281.1759,-252.1061C1281.1759,-252.1061 1281.1759,-270.991 1281.1759,-270.991"/>
<polygon fill="#000000" stroke="#000000" points="1277.6759,-270.9909 1281.1759,-280.991 1284.6759,-270.991 1277.6759,-270.9909"/>
</g>
<!-- JsonDirective  -->
<g id="node34" class="node">
<title>JsonDirective </title>
<polygon fill="#fb8072" stroke="#000000" points="1198.4732,-317 1101.5268,-317 1101.5268,-281 1198.4732,-281 1198.4732,-317"/>
<text text-anchor="middle" x="1150" y="-294.8" font-family="Times,serif" font-size="14.00" fill="#000000">JsonDirective </text>
</g>
<!-- RebirthValidatorsModule&#45;&gt;JsonDirective  -->
<g id="edge52" class="edge">
<title>RebirthValidatorsModule&#45;&gt;JsonDirective </title>
<path fill="none" stroke="#000000" stroke-dasharray="5,2" d="M1224.9794,-251C1190.4722,-251 1157.875,-251 1157.875,-251 1157.875,-251 1157.875,-270.8533 1157.875,-270.8533"/>
<polygon fill="#000000" stroke="#000000" points="1154.3751,-270.8532 1157.875,-280.8533 1161.3751,-270.8533 1154.3751,-270.8532"/>
</g>
<!-- Base64Directive  -->
<g id="node35" class="node">
<title>Base64Directive </title>
<polygon fill="#fb8072" stroke="#000000" points="1083.2934,-317 970.7066,-317 970.7066,-281 1083.2934,-281 1083.2934,-317"/>
<text text-anchor="middle" x="1027" y="-294.8" font-family="Times,serif" font-size="14.00" fill="#000000">Base64Directive </text>
</g>
<!-- RebirthValidatorsModule&#45;&gt;Base64Directive  -->
<g id="edge53" class="edge">
<title>RebirthValidatorsModule&#45;&gt;Base64Directive </title>
<path fill="none" stroke="#000000" stroke-dasharray="5,2" d="M1224.9168,-249C1145.9095,-249 1036.875,-249 1036.875,-249 1036.875,-249 1036.875,-270.9489 1036.875,-270.9489"/>
<polygon fill="#000000" stroke="#000000" points="1033.3751,-270.9488 1036.875,-280.9489 1040.3751,-270.9489 1033.3751,-270.9488"/>
</g>
<!-- PhoneDirective  -->
<g id="node36" class="node">
<title>PhoneDirective </title>
<polygon fill="#fb8072" stroke="#000000" points="952.0808,-317 845.9192,-317 845.9192,-281 952.0808,-281 952.0808,-317"/>
<text text-anchor="middle" x="899" y="-294.8" font-family="Times,serif" font-size="14.00" fill="#000000">PhoneDirective </text>
</g>
<!-- RebirthValidatorsModule&#45;&gt;PhoneDirective  -->
<g id="edge54" class="edge">
<title>RebirthValidatorsModule&#45;&gt;PhoneDirective </title>
<path fill="none" stroke="#000000" stroke-dasharray="5,2" d="M1224.7679,-247C1109.5316,-247 910.875,-247 910.875,-247 910.875,-247 910.875,-270.8129 910.875,-270.8129"/>
<polygon fill="#000000" stroke="#000000" points="907.3751,-270.8129 910.875,-280.8129 914.3751,-270.813 907.3751,-270.8129"/>
</g>
<!-- UUIDDirective  -->
<g id="node37" class="node">
<title>UUIDDirective </title>
<polygon fill="#fb8072" stroke="#000000" points="827.0641,-317 720.9359,-317 720.9359,-281 827.0641,-281 827.0641,-317"/>
<text text-anchor="middle" x="774" y="-294.8" font-family="Times,serif" font-size="14.00" fill="#000000">UUIDDirective </text>
</g>
<!-- RebirthValidatorsModule&#45;&gt;UUIDDirective  -->
<g id="edge55" class="edge">
<title>RebirthValidatorsModule&#45;&gt;UUIDDirective </title>
<path fill="none" stroke="#000000" stroke-dasharray="5,2" d="M1225.0497,-245C1079.8952,-245 787.875,-245 787.875,-245 787.875,-245 787.875,-270.7181 787.875,-270.7181"/>
<polygon fill="#000000" stroke="#000000" points="784.3751,-270.718 787.875,-280.7181 791.3751,-270.7181 784.3751,-270.718"/>
</g>
<!-- EqualDirective  -->
<g id="node38" class="node">
<title>EqualDirective </title>
<polygon fill="#fb8072" stroke="#000000" points="703.2409,-317 598.7591,-317 598.7591,-281 703.2409,-281 703.2409,-317"/>
<text text-anchor="middle" x="651" y="-294.8" font-family="Times,serif" font-size="14.00" fill="#000000">EqualDirective </text>
</g>
<!-- RebirthValidatorsModule&#45;&gt;EqualDirective  -->
<g id="edge56" class="edge">
<title>RebirthValidatorsModule&#45;&gt;EqualDirective </title>
<path fill="none" stroke="#000000" stroke-dasharray="5,2" d="M1225.0869,-243C1053.7284,-243 666.375,-243 666.375,-243 666.375,-243 666.375,-270.973 666.375,-270.973"/>
<polygon fill="#000000" stroke="#000000" points="662.8751,-270.973 666.375,-280.973 669.8751,-270.973 662.8751,-270.973"/>
</g>
<!-- IncludesDirective  -->
<g id="node39" class="node">
<title>IncludesDirective </title>
<polygon fill="#fb8072" stroke="#000000" points="580.5078,-317 461.4922,-317 461.4922,-281 580.5078,-281 580.5078,-317"/>
<text text-anchor="middle" x="521" y="-294.8" font-family="Times,serif" font-size="14.00" fill="#000000">IncludesDirective </text>
</g>
<!-- RebirthValidatorsModule&#45;&gt;IncludesDirective  -->
<g id="edge57" class="edge">
<title>RebirthValidatorsModule&#45;&gt;IncludesDirective </title>
<path fill="none" stroke="#000000" stroke-dasharray="5,2" d="M1225.1272,-241C1028.7755,-241 538.375,-241 538.375,-241 538.375,-241 538.375,-270.9664 538.375,-270.9664"/>
<polygon fill="#000000" stroke="#000000" points="534.8751,-270.9663 538.375,-280.9664 541.8751,-270.9664 534.8751,-270.9663"/>
</g>
<!-- EqualToDirective  -->
<g id="node40" class="node">
<title>EqualToDirective </title>
<polygon fill="#fb8072" stroke="#000000" points="443.7934,-317 324.2066,-317 324.2066,-281 443.7934,-281 443.7934,-317"/>
<text text-anchor="middle" x="384" y="-294.8" font-family="Times,serif" font-size="14.00" fill="#000000">EqualToDirective </text>
</g>
<!-- RebirthValidatorsModule&#45;&gt;EqualToDirective  -->
<g id="edge58" class="edge">
<title>RebirthValidatorsModule&#45;&gt;EqualToDirective </title>
<path fill="none" stroke="#000000" stroke-dasharray="5,2" d="M1224.9424,-239C1004.1586,-239 402.875,-239 402.875,-239 402.875,-239 402.875,-270.998 402.875,-270.998"/>
<polygon fill="#000000" stroke="#000000" points="399.3751,-270.998 402.875,-280.998 406.3751,-270.9981 399.3751,-270.998"/>
</g>
<!-- BeforeDateDirective  -->
<g id="node41" class="node">
<title>BeforeDateDirective </title>
<polygon fill="#fb8072" stroke="#000000" points="306.0962,-317 169.9038,-317 169.9038,-281 306.0962,-281 306.0962,-317"/>
<text text-anchor="middle" x="238" y="-294.8" font-family="Times,serif" font-size="14.00" fill="#000000">BeforeDateDirective </text>
</g>
<!-- RebirthValidatorsModule&#45;&gt;BeforeDateDirective  -->
<g id="edge59" class="edge">
<title>RebirthValidatorsModule&#45;&gt;BeforeDateDirective </title>
<path fill="none" stroke="#000000" stroke-dasharray="5,2" d="M1225.0812,-237C980.5345,-237 258.875,-237 258.875,-237 258.875,-237 258.875,-270.7333 258.875,-270.7333"/>
<polygon fill="#000000" stroke="#000000" points="255.3751,-270.7333 258.875,-280.7333 262.3751,-270.7333 255.3751,-270.7333"/>
</g>
<!-- AfterDateDirective  -->
<g id="node42" class="node">
<title>AfterDateDirective </title>
<polygon fill="#fb8072" stroke="#000000" points="151.543,-317 24.457,-317 24.457,-281 151.543,-281 151.543,-317"/>
<text text-anchor="middle" x="88" y="-294.8" font-family="Times,serif" font-size="14.00" fill="#000000">AfterDateDirective </text>
</g>
<!-- RebirthValidatorsModule&#45;&gt;AfterDateDirective  -->
<g id="edge60" class="edge">
<title>RebirthValidatorsModule&#45;&gt;AfterDateDirective </title>
<path fill="none" stroke="#000000" stroke-dasharray="5,2" d="M1224.7959,-235C957.0582,-235 110.875,-235 110.875,-235 110.875,-235 110.875,-270.8314 110.875,-270.8314"/>
<polygon fill="#000000" stroke="#000000" points="107.3751,-270.8313 110.875,-280.8314 114.3751,-270.8314 107.3751,-270.8313"/>
</g>
<!-- { : , : , : true } -->
<g id="node22" class="node">
<title>{ : , : , : true }</title>
<ellipse fill="#fdb462" stroke="#000000" cx="1349" cy="-104" rx="65.1962" ry="18"/>
<text text-anchor="middle" x="1349" y="-99.8" font-family="Times,serif" font-size="14.00" fill="#000000">{ : , : , : true }</text>
</g>
<!-- { : , : , : true }&#45;&gt;RequiredWithTrimDirective -->
<g id="edge2" class="edge">
<title>{ : , : , : true }&#45;&gt;RequiredWithTrimDirective</title>
<path fill="none" stroke="#000000" d="M1390.1346,-90C1600.2634,-90 2544,-90 2544,-90 2544,-90 2544,-140.6772 2544,-140.6772"/>
<polygon fill="#000000" stroke="#000000" points="2540.5001,-140.6772 2544,-150.6772 2547.5001,-140.6773 2540.5001,-140.6772"/>
</g>
<!-- { : , : , : true }&#45;&gt;RangeLengthDirective -->
<g id="edge4" class="edge">
<title>{ : , : , : true }&#45;&gt;RangeLengthDirective</title>
<path fill="none" stroke="#000000" d="M1403.3722,-94C1614.3266,-94 2367,-94 2367,-94 2367,-94 2367,-140.8446 2367,-140.8446"/>
<polygon fill="#000000" stroke="#000000" points="2363.5001,-140.8446 2367,-150.8446 2370.5001,-140.8446 2363.5001,-140.8446"/>
</g>
<!-- { : , : , : true }&#45;&gt;MinDirective -->
<g id="edge6" class="edge">
<title>{ : , : , : true }&#45;&gt;MinDirective</title>
<path fill="none" stroke="#000000" d="M1408.998,-97C1607.7377,-97 2232,-97 2232,-97 2232,-97 2232,-140.8314 2232,-140.8314"/>
<polygon fill="#000000" stroke="#000000" points="2228.5001,-140.8313 2232,-150.8314 2235.5001,-140.8314 2228.5001,-140.8313"/>
</g>
<!-- { : , : , : true }&#45;&gt;RangeDirective -->
<g id="edge8" class="edge">
<title>{ : , : , : true }&#45;&gt;RangeDirective</title>
<path fill="none" stroke="#000000" d="M1413.4035,-101C1598.0311,-101 2116,-101 2116,-101 2116,-101 2116,-140.7772 2116,-140.7772"/>
<polygon fill="#000000" stroke="#000000" points="2112.5001,-140.7772 2116,-150.7772 2119.5001,-140.7773 2112.5001,-140.7772"/>
</g>
<!-- { : , : , : true }&#45;&gt;MaxDirective -->
<g id="edge10" class="edge">
<title>{ : , : , : true }&#45;&gt;MaxDirective</title>
<path fill="none" stroke="#000000" d="M1414.3006,-104C1579.1317,-104 1999,-104 1999,-104 1999,-104 1999,-140.8939 1999,-140.8939"/>
<polygon fill="#000000" stroke="#000000" points="1995.5001,-140.8938 1999,-150.8939 2002.5001,-140.8939 1995.5001,-140.8938"/>
</g>
<!-- { : , : , : true }&#45;&gt;DigitsDirective -->
<g id="edge12" class="edge">
<title>{ : , : , : true }&#45;&gt;DigitsDirective</title>
<path fill="none" stroke="#000000" d="M1412.6179,-108C1554.2142,-108 1883,-108 1883,-108 1883,-108 1883,-140.698 1883,-140.698"/>
<polygon fill="#000000" stroke="#000000" points="1879.5001,-140.698 1883,-150.698 1886.5001,-140.698 1879.5001,-140.698"/>
</g>
<!-- { : , : , : true }&#45;&gt;NumberDirective -->
<g id="edge14" class="edge">
<title>{ : , : , : true }&#45;&gt;NumberDirective</title>
<path fill="none" stroke="#000000" d="M1407.4565,-112C1520.2721,-112 1757,-112 1757,-112 1757,-112 1757,-140.9648 1757,-140.9648"/>
<polygon fill="#000000" stroke="#000000" points="1753.5001,-140.9648 1757,-150.9648 1760.5001,-140.9649 1753.5001,-140.9648"/>
</g>
<!-- { : , : , : true }&#45;&gt;UrlDirective -->
<g id="edge16" class="edge">
<title>{ : , : , : true }&#45;&gt;UrlDirective</title>
<path fill="none" stroke="#000000" d="M1400.8462,-115C1484.2605,-115 1639,-115 1639,-115 1639,-115 1639,-140.7181 1639,-140.7181"/>
<polygon fill="#000000" stroke="#000000" points="1635.5001,-140.718 1639,-150.7181 1642.5001,-140.7181 1635.5001,-140.718"/>
</g>
<!-- { : , : , : true }&#45;&gt;EmailDirective -->
<g id="edge18" class="edge">
<title>{ : , : , : true }&#45;&gt;EmailDirective</title>
<path fill="none" stroke="#000000" d="M1385.021,-119C1437.0331,-119 1527,-119 1527,-119 1527,-119 1527,-140.9489 1527,-140.9489"/>
<polygon fill="#000000" stroke="#000000" points="1523.5001,-140.9488 1527,-150.9489 1530.5001,-140.9489 1523.5001,-140.9488"/>
</g>
<!-- { : , : , : true }&#45;&gt;DateDirective -->
<g id="edge20" class="edge">
<title>{ : , : , : true }&#45;&gt;DateDirective</title>
<path fill="none" stroke="#000000" d="M1388.9217,-118.4256C1388.9217,-118.4256 1388.9217,-140.8939 1388.9217,-140.8939"/>
<polygon fill="#000000" stroke="#000000" points="1385.4218,-140.8938 1388.9217,-150.8939 1392.4218,-140.8939 1385.4218,-140.8938"/>
</g>
<!-- { : , : , : true }&#45;&gt;DateISODirective -->
<g id="edge22" class="edge">
<title>{ : , : , : true }&#45;&gt;DateISODirective</title>
<path fill="none" stroke="#000000" d="M1314.7157,-119.4041C1314.7157,-119.4041 1314.7157,-140.9397 1314.7157,-140.9397"/>
<polygon fill="#000000" stroke="#000000" points="1311.2158,-140.9397 1314.7157,-150.9397 1318.2158,-140.9398 1311.2158,-140.9397"/>
</g>
<!-- { : , : , : true }&#45;&gt;JsonDirective -->
<g id="edge24" class="edge">
<title>{ : , : , : true }&#45;&gt;JsonDirective</title>
<path fill="none" stroke="#000000" d="M1312.891,-119C1259.0526,-119 1164,-119 1164,-119 1164,-119 1164,-140.9489 1164,-140.9489"/>
<polygon fill="#000000" stroke="#000000" points="1160.5001,-140.9488 1164,-150.9489 1167.5001,-140.9489 1160.5001,-140.9488"/>
</g>
<!-- { : , : , : true }&#45;&gt;Base64Directive -->
<g id="edge26" class="edge">
<title>{ : , : , : true }&#45;&gt;Base64Directive</title>
<path fill="none" stroke="#000000" d="M1297.4305,-115C1210.698,-115 1045,-115 1045,-115 1045,-115 1045,-140.7181 1045,-140.7181"/>
<polygon fill="#000000" stroke="#000000" points="1041.5001,-140.718 1045,-150.7181 1048.5001,-140.7181 1041.5001,-140.718"/>
</g>
<!-- { : , : , : true }&#45;&gt;PhoneDirective -->
<g id="edge28" class="edge">
<title>{ : , : , : true }&#45;&gt;PhoneDirective</title>
<path fill="none" stroke="#000000" d="M1290.3858,-112C1173.1674,-112 921,-112 921,-112 921,-112 921,-140.9648 921,-140.9648"/>
<polygon fill="#000000" stroke="#000000" points="917.5001,-140.9648 921,-150.9648 924.5001,-140.9649 917.5001,-140.9648"/>
</g>
<!-- { : , : , : true }&#45;&gt;UUIDDirective -->
<g id="edge30" class="edge">
<title>{ : , : , : true }&#45;&gt;UUIDDirective</title>
<path fill="none" stroke="#000000" d="M1285.4864,-108C1140.9726,-108 800,-108 800,-108 800,-108 800,-140.698 800,-140.698"/>
<polygon fill="#000000" stroke="#000000" points="796.5001,-140.698 800,-150.698 803.5001,-140.698 796.5001,-140.698"/>
</g>
<!-- { : , : , : true }&#45;&gt;EqualDirective -->
<g id="edge32" class="edge">
<title>{ : , : , : true }&#45;&gt;EqualDirective</title>
<path fill="none" stroke="#000000" d="M1283.6354,-104C1115.2976,-104 680,-104 680,-104 680,-104 680,-140.8939 680,-140.8939"/>
<polygon fill="#000000" stroke="#000000" points="676.5001,-140.8938 680,-150.8939 683.5001,-140.8939 676.5001,-140.8938"/>
</g>
<!-- { : , : , : true }&#45;&gt;IncludesDirective -->
<g id="edge34" class="edge">
<title>{ : , : , : true }&#45;&gt;IncludesDirective</title>
<path fill="none" stroke="#000000" d="M1284.6152,-101C1095.3531,-101 554,-101 554,-101 554,-101 554,-140.7772 554,-140.7772"/>
<polygon fill="#000000" stroke="#000000" points="550.5001,-140.7772 554,-150.7772 557.5001,-140.7773 550.5001,-140.7772"/>
</g>
<!-- { : , : , : true }&#45;&gt;EqualToDirective -->
<g id="edge36" class="edge">
<title>{ : , : , : true }&#45;&gt;EqualToDirective</title>
<path fill="none" stroke="#000000" d="M1288.7615,-97C1082.9,-97 420,-97 420,-97 420,-97 420,-140.8314 420,-140.8314"/>
<polygon fill="#000000" stroke="#000000" points="416.5001,-140.8313 420,-150.8314 423.5001,-140.8314 416.5001,-140.8313"/>
</g>
<!-- { : , : , : true }&#45;&gt;BeforeDateDirective -->
<g id="edge38" class="edge">
<title>{ : , : , : true }&#45;&gt;BeforeDateDirective</title>
<path fill="none" stroke="#000000" d="M1294.7863,-94C1077.0707,-94 278,-94 278,-94 278,-94 278,-140.8446 278,-140.8446"/>
<polygon fill="#000000" stroke="#000000" points="274.5001,-140.8446 278,-150.8446 281.5001,-140.8446 274.5001,-140.8446"/>
</g>
<!-- { : , : , : true }&#45;&gt;AfterDateDirective -->
<g id="edge40" class="edge">
<title>{ : , : , : true }&#45;&gt;AfterDateDirective</title>
<path fill="none" stroke="#000000" d="M1307.8109,-90C1095.2243,-90 132,-90 132,-90 132,-90 132,-140.6772 132,-140.6772"/>
<polygon fill="#000000" stroke="#000000" points="128.5001,-140.6772 132,-150.6772 135.5001,-140.6773 128.5001,-140.6772"/>
</g>
</g>
</svg>
