<?xml version="1.0" encoding="UTF-8" standalone="no"?>
<!DOCTYPE svg PUBLIC "-//W3C//DTD SVG 1.1//EN"
 "http://www.w3.org/Graphics/SVG/1.1/DTD/svg11.dtd">
<!-- Generated by graphviz version 2.40.1 (20161225.0304)
 -->
<!-- Title: dependencies Pages: 1 -->
<svg width="2196pt" height="284pt"
 viewBox="0.00 0.00 2196.00 284.00" xmlns="http://www.w3.org/2000/svg" xmlns:xlink="http://www.w3.org/1999/xlink">
<g id="graph0" class="graph" transform="scale(1 1) rotate(0) translate(4 280)">
<title>dependencies</title>
<polygon fill="#ffffff" stroke="transparent" points="-4,4 -4,-280 2192,-280 2192,4 -4,4"/>
<text text-anchor="start" x="1073.0091" y="-42.4" font-family="sans-serif" font-weight="bold" font-size="14.00" fill="#000000">Legend</text>
<polygon fill="#ffffb3" stroke="transparent" points="860,-10 860,-30 880,-30 880,-10 860,-10"/>
<text text-anchor="start" x="883.629" y="-15.4" font-family="sans-serif" font-size="14.00" fill="#000000"> &#160;Declarations</text>
<polygon fill="#8dd3c7" stroke="transparent" points="973,-10 973,-30 993,-30 993,-10 973,-10"/>
<text text-anchor="start" x="996.7251" y="-15.4" font-family="sans-serif" font-size="14.00" fill="#000000"> &#160;Module</text>
<polygon fill="#80b1d3" stroke="transparent" points="1059,-10 1059,-30 1079,-30 1079,-10 1059,-10"/>
<text text-anchor="start" x="1082.7812" y="-15.4" font-family="sans-serif" font-size="14.00" fill="#000000"> &#160;Bootstrap</text>
<polygon fill="#fdb462" stroke="transparent" points="1156,-10 1156,-30 1176,-30 1176,-10 1156,-10"/>
<text text-anchor="start" x="1179.6732" y="-15.4" font-family="sans-serif" font-size="14.00" fill="#000000"> &#160;Providers</text>
<polygon fill="#fb8072" stroke="transparent" points="1252,-10 1252,-30 1272,-30 1272,-10 1252,-10"/>
<text text-anchor="start" x="1275.7258" y="-15.4" font-family="sans-serif" font-size="14.00" fill="#000000"> &#160;Exports</text>
<g id="clust1" class="cluster">
<title>cluster_RebirthValidatorsModule</title>
<polygon fill="none" stroke="#000000" stroke-dasharray="1,5" points="8,-70 8,-268 2180,-268 2180,-70 8,-70"/>
</g>
<g id="clust3" class="cluster">
<title>cluster_RebirthValidatorsModule_imports</title>
<polygon fill="none" stroke="#000000" points="1040,-78 1040,-130 1168,-130 1168,-78 1040,-78"/>
</g>
<g id="clust4" class="cluster">
<title>cluster_RebirthValidatorsModule_exports</title>
<polygon fill="none" stroke="#000000" points="16,-208 16,-260 2172,-260 2172,-208 16,-208"/>
</g>
<!-- CommonModule -->
<g id="node1" class="node">
<title>CommonModule</title>
<polygon fill="#8dd3c7" stroke="#000000" points="1159.6681,-122 1156.6681,-126 1135.6681,-126 1132.6681,-122 1048.3319,-122 1048.3319,-86 1159.6681,-86 1159.6681,-122"/>
<text text-anchor="middle" x="1104" y="-99.8" font-family="Times,serif" font-size="14.00" fill="#000000">CommonModule</text>
</g>
<!-- RebirthValidatorsModule -->
<g id="node2" class="node">
<title>RebirthValidatorsModule</title>
<polygon fill="#8dd3c7" stroke="#000000" points="1183.8557,-187 1180.8557,-191 1159.8557,-191 1156.8557,-187 1024.1443,-187 1024.1443,-151 1183.8557,-151 1183.8557,-187"/>
<text text-anchor="middle" x="1104" y="-164.8" font-family="Times,serif" font-size="14.00" fill="#000000">RebirthValidatorsModule</text>
</g>
<!-- CommonModule&#45;&gt;RebirthValidatorsModule -->
<g id="edge1" class="edge">
<title>CommonModule&#45;&gt;RebirthValidatorsModule</title>
<path fill="none" stroke="#000000" d="M1104,-122.1061C1104,-122.1061 1104,-140.991 1104,-140.991"/>
<polygon fill="#000000" stroke="#000000" points="1100.5001,-140.9909 1104,-150.991 1107.5001,-140.991 1100.5001,-140.9909"/>
</g>
<!-- RangeLengthDirective  -->
<g id="node3" class="node">
<title>RangeLengthDirective </title>
<polygon fill="#fb8072" stroke="#000000" points="2163.5064,-252 2016.4936,-252 2016.4936,-216 2163.5064,-216 2163.5064,-252"/>
<text text-anchor="middle" x="2090" y="-229.8" font-family="Times,serif" font-size="14.00" fill="#000000">RangeLengthDirective </text>
</g>
<!-- RebirthValidatorsModule&#45;&gt;RangeLengthDirective  -->
<g id="edge2" class="edge">
<title>RebirthValidatorsModule&#45;&gt;RangeLengthDirective </title>
<path fill="none" stroke="#000000" stroke-dasharray="5,2" d="M1184.2705,-156C1419.3803,-156 2090,-156 2090,-156 2090,-156 2090,-205.9092 2090,-205.9092"/>
<polygon fill="#000000" stroke="#000000" points="2086.5001,-205.9091 2090,-215.9092 2093.5001,-205.9092 2086.5001,-205.9091"/>
</g>
<!-- MinDirective  -->
<g id="node4" class="node">
<title>MinDirective </title>
<polygon fill="#fb8072" stroke="#000000" points="1998.418,-252 1903.582,-252 1903.582,-216 1998.418,-216 1998.418,-252"/>
<text text-anchor="middle" x="1951" y="-229.8" font-family="Times,serif" font-size="14.00" fill="#000000">MinDirective </text>
</g>
<!-- RebirthValidatorsModule&#45;&gt;MinDirective  -->
<g id="edge3" class="edge">
<title>RebirthValidatorsModule&#45;&gt;MinDirective </title>
<path fill="none" stroke="#000000" stroke-dasharray="5,2" d="M1184.0651,-160C1395.2029,-160 1951,-160 1951,-160 1951,-160 1951,-205.7079 1951,-205.7079"/>
<polygon fill="#000000" stroke="#000000" points="1947.5001,-205.7078 1951,-215.7079 1954.5001,-205.7079 1947.5001,-205.7078"/>
</g>
<!-- RangeDirective  -->
<g id="node5" class="node">
<title>RangeDirective </title>
<polygon fill="#fb8072" stroke="#000000" points="1885.8492,-252 1778.1508,-252 1778.1508,-216 1885.8492,-216 1885.8492,-252"/>
<text text-anchor="middle" x="1832" y="-229.8" font-family="Times,serif" font-size="14.00" fill="#000000">RangeDirective </text>
</g>
<!-- RebirthValidatorsModule&#45;&gt;RangeDirective  -->
<g id="edge4" class="edge">
<title>RebirthValidatorsModule&#45;&gt;RangeDirective </title>
<path fill="none" stroke="#000000" stroke-dasharray="5,2" d="M1183.9912,-165C1373.1058,-165 1832,-165 1832,-165 1832,-165 1832,-205.8711 1832,-205.8711"/>
<polygon fill="#000000" stroke="#000000" points="1828.5001,-205.871 1832,-215.8711 1835.5001,-205.8711 1828.5001,-205.871"/>
</g>
<!-- MaxDirective  -->
<g id="node6" class="node">
<title>MaxDirective </title>
<polygon fill="#fb8072" stroke="#000000" points="1760.7423,-252 1663.2577,-252 1663.2577,-216 1760.7423,-216 1760.7423,-252"/>
<text text-anchor="middle" x="1712" y="-229.8" font-family="Times,serif" font-size="14.00" fill="#000000">MaxDirective </text>
</g>
<!-- RebirthValidatorsModule&#45;&gt;MaxDirective  -->
<g id="edge5" class="edge">
<title>RebirthValidatorsModule&#45;&gt;MaxDirective </title>
<path fill="none" stroke="#000000" stroke-dasharray="5,2" d="M1184.1106,-169C1349.2089,-169 1712,-169 1712,-169 1712,-169 1712,-205.8939 1712,-205.8939"/>
<polygon fill="#000000" stroke="#000000" points="1708.5001,-205.8938 1712,-215.8939 1715.5001,-205.8939 1708.5001,-205.8938"/>
</g>
<!-- DigitsDirective  -->
<g id="node7" class="node">
<title>DigitsDirective </title>
<polygon fill="#fb8072" stroke="#000000" points="1644.806,-252 1539.194,-252 1539.194,-216 1644.806,-216 1644.806,-252"/>
<text text-anchor="middle" x="1592" y="-229.8" font-family="Times,serif" font-size="14.00" fill="#000000">DigitsDirective </text>
</g>
<!-- RebirthValidatorsModule&#45;&gt;DigitsDirective  -->
<g id="edge6" class="edge">
<title>RebirthValidatorsModule&#45;&gt;DigitsDirective </title>
<path fill="none" stroke="#000000" stroke-dasharray="5,2" d="M1184.0368,-174C1322.4811,-174 1592,-174 1592,-174 1592,-174 1592,-205.998 1592,-205.998"/>
<polygon fill="#000000" stroke="#000000" points="1588.5001,-205.998 1592,-215.998 1595.5001,-205.9981 1588.5001,-205.998"/>
</g>
<!-- NumberDirective  -->
<g id="node8" class="node">
<title>NumberDirective </title>
<polygon fill="#fb8072" stroke="#000000" points="1520.9561,-252 1403.0439,-252 1403.0439,-216 1520.9561,-216 1520.9561,-252"/>
<text text-anchor="middle" x="1462" y="-229.8" font-family="Times,serif" font-size="14.00" fill="#000000">NumberDirective </text>
</g>
<!-- RebirthValidatorsModule&#45;&gt;NumberDirective  -->
<g id="edge7" class="edge">
<title>RebirthValidatorsModule&#45;&gt;NumberDirective </title>
<path fill="none" stroke="#000000" stroke-dasharray="5,2" d="M1183.8966,-178C1289.4073,-178 1462,-178 1462,-178 1462,-178 1462,-205.973 1462,-205.973"/>
<polygon fill="#000000" stroke="#000000" points="1458.5001,-205.973 1462,-215.973 1465.5001,-205.973 1458.5001,-205.973"/>
</g>
<!-- UrlDirective  -->
<g id="node9" class="node">
<title>UrlDirective </title>
<polygon fill="#fb8072" stroke="#000000" points="1385.2409,-252 1294.7591,-252 1294.7591,-216 1385.2409,-216 1385.2409,-252"/>
<text text-anchor="middle" x="1340" y="-229.8" font-family="Times,serif" font-size="14.00" fill="#000000">UrlDirective </text>
</g>
<!-- RebirthValidatorsModule&#45;&gt;UrlDirective  -->
<g id="edge8" class="edge">
<title>RebirthValidatorsModule&#45;&gt;UrlDirective </title>
<path fill="none" stroke="#000000" stroke-dasharray="5,2" d="M1183.8988,-183C1252.3643,-183 1340,-183 1340,-183 1340,-183 1340,-205.8757 1340,-205.8757"/>
<polygon fill="#000000" stroke="#000000" points="1336.5001,-205.8757 1340,-215.8757 1343.5001,-205.8757 1336.5001,-205.8757"/>
</g>
<!-- EmailDirective  -->
<g id="node10" class="node">
<title>EmailDirective </title>
<polygon fill="#fb8072" stroke="#000000" points="1276.5218,-252 1171.4782,-252 1171.4782,-216 1276.5218,-216 1276.5218,-252"/>
<text text-anchor="middle" x="1224" y="-229.8" font-family="Times,serif" font-size="14.00" fill="#000000">EmailDirective </text>
</g>
<!-- RebirthValidatorsModule&#45;&gt;EmailDirective  -->
<g id="edge9" class="edge">
<title>RebirthValidatorsModule&#45;&gt;EmailDirective </title>
<path fill="none" stroke="#000000" stroke-dasharray="5,2" d="M1177.7085,-187.1061C1177.7085,-187.1061 1177.7085,-205.991 1177.7085,-205.991"/>
<polygon fill="#000000" stroke="#000000" points="1174.2085,-205.9909 1177.7085,-215.991 1181.2085,-205.991 1174.2085,-205.9909"/>
</g>
<!-- DateDirective  -->
<g id="node11" class="node">
<title>DateDirective </title>
<polygon fill="#fb8072" stroke="#000000" points="1153.0092,-252 1054.9908,-252 1054.9908,-216 1153.0092,-216 1153.0092,-252"/>
<text text-anchor="middle" x="1104" y="-229.8" font-family="Times,serif" font-size="14.00" fill="#000000">DateDirective </text>
</g>
<!-- RebirthValidatorsModule&#45;&gt;DateDirective  -->
<g id="edge10" class="edge">
<title>RebirthValidatorsModule&#45;&gt;DateDirective </title>
<path fill="none" stroke="#000000" stroke-dasharray="5,2" d="M1104,-187.1061C1104,-187.1061 1104,-205.991 1104,-205.991"/>
<polygon fill="#000000" stroke="#000000" points="1100.5001,-205.9909 1104,-215.991 1107.5001,-205.991 1100.5001,-205.9909"/>
</g>
<!-- DateISODirective  -->
<g id="node12" class="node">
<title>DateISODirective </title>
<polygon fill="#fb8072" stroke="#000000" points="1037.0598,-252 916.9402,-252 916.9402,-216 1037.0598,-216 1037.0598,-252"/>
<text text-anchor="middle" x="977" y="-229.8" font-family="Times,serif" font-size="14.00" fill="#000000">DateISODirective </text>
</g>
<!-- RebirthValidatorsModule&#45;&gt;DateISODirective  -->
<g id="edge11" class="edge">
<title>RebirthValidatorsModule&#45;&gt;DateISODirective </title>
<path fill="none" stroke="#000000" stroke-dasharray="5,2" d="M1030.6759,-187.1061C1030.6759,-187.1061 1030.6759,-205.991 1030.6759,-205.991"/>
<polygon fill="#000000" stroke="#000000" points="1027.1759,-205.9909 1030.6759,-215.991 1034.1759,-205.991 1027.1759,-205.9909"/>
</g>
<!-- JsonDirective  -->
<g id="node13" class="node">
<title>JsonDirective </title>
<polygon fill="#fb8072" stroke="#000000" points="898.4732,-252 801.5268,-252 801.5268,-216 898.4732,-216 898.4732,-252"/>
<text text-anchor="middle" x="850" y="-229.8" font-family="Times,serif" font-size="14.00" fill="#000000">JsonDirective </text>
</g>
<!-- RebirthValidatorsModule&#45;&gt;JsonDirective  -->
<g id="edge12" class="edge">
<title>RebirthValidatorsModule&#45;&gt;JsonDirective </title>
<path fill="none" stroke="#000000" stroke-dasharray="5,2" d="M1023.9814,-183C949.5291,-183 850,-183 850,-183 850,-183 850,-205.8757 850,-205.8757"/>
<polygon fill="#000000" stroke="#000000" points="846.5001,-205.8757 850,-215.8757 853.5001,-205.8757 846.5001,-205.8757"/>
</g>
<!-- Base64Directive  -->
<g id="node14" class="node">
<title>Base64Directive </title>
<polygon fill="#fb8072" stroke="#000000" points="783.2934,-252 670.7066,-252 670.7066,-216 783.2934,-216 783.2934,-252"/>
<text text-anchor="middle" x="727" y="-229.8" font-family="Times,serif" font-size="14.00" fill="#000000">Base64Directive </text>
</g>
<!-- RebirthValidatorsModule&#45;&gt;Base64Directive  -->
<g id="edge13" class="edge">
<title>RebirthValidatorsModule&#45;&gt;Base64Directive </title>
<path fill="none" stroke="#000000" stroke-dasharray="5,2" d="M1024.048,-178C913.3831,-178 727,-178 727,-178 727,-178 727,-205.973 727,-205.973"/>
<polygon fill="#000000" stroke="#000000" points="723.5001,-205.973 727,-215.973 730.5001,-205.973 723.5001,-205.973"/>
</g>
<!-- PhoneDirective  -->
<g id="node15" class="node">
<title>PhoneDirective </title>
<polygon fill="#fb8072" stroke="#000000" points="652.0808,-252 545.9192,-252 545.9192,-216 652.0808,-216 652.0808,-252"/>
<text text-anchor="middle" x="599" y="-229.8" font-family="Times,serif" font-size="14.00" fill="#000000">PhoneDirective </text>
</g>
<!-- RebirthValidatorsModule&#45;&gt;PhoneDirective  -->
<g id="edge14" class="edge">
<title>RebirthValidatorsModule&#45;&gt;PhoneDirective </title>
<path fill="none" stroke="#000000" stroke-dasharray="5,2" d="M1023.9812,-174C881.5849,-174 599,-174 599,-174 599,-174 599,-205.998 599,-205.998"/>
<polygon fill="#000000" stroke="#000000" points="595.5001,-205.998 599,-215.998 602.5001,-205.9981 595.5001,-205.998"/>
</g>
<!-- UUIDDirective  -->
<g id="node16" class="node">
<title>UUIDDirective </title>
<polygon fill="#fb8072" stroke="#000000" points="527.0641,-252 420.9359,-252 420.9359,-216 527.0641,-216 527.0641,-252"/>
<text text-anchor="middle" x="474" y="-229.8" font-family="Times,serif" font-size="14.00" fill="#000000">UUIDDirective </text>
</g>
<!-- RebirthValidatorsModule&#45;&gt;UUIDDirective  -->
<g id="edge15" class="edge">
<title>RebirthValidatorsModule&#45;&gt;UUIDDirective </title>
<path fill="none" stroke="#000000" stroke-dasharray="5,2" d="M1023.8904,-169C854.2078,-169 474,-169 474,-169 474,-169 474,-205.8939 474,-205.8939"/>
<polygon fill="#000000" stroke="#000000" points="470.5001,-205.8938 474,-215.8939 477.5001,-205.8939 470.5001,-205.8938"/>
</g>
<!-- EqualDirective  -->
<g id="node17" class="node">
<title>EqualDirective </title>
<polygon fill="#fb8072" stroke="#000000" points="403.2409,-252 298.7591,-252 298.7591,-216 403.2409,-216 403.2409,-252"/>
<text text-anchor="middle" x="351" y="-229.8" font-family="Times,serif" font-size="14.00" fill="#000000">EqualDirective </text>
</g>
<!-- RebirthValidatorsModule&#45;&gt;EqualDirective  -->
<g id="edge16" class="edge">
<title>RebirthValidatorsModule&#45;&gt;EqualDirective </title>
<path fill="none" stroke="#000000" stroke-dasharray="5,2" d="M1024.1287,-165C830.335,-165 351,-165 351,-165 351,-165 351,-205.8711 351,-205.8711"/>
<polygon fill="#000000" stroke="#000000" points="347.5001,-205.871 351,-215.8711 354.5001,-205.8711 347.5001,-205.871"/>
</g>
<!-- IncludesDirective  -->
<g id="node18" class="node">
<title>IncludesDirective </title>
<polygon fill="#fb8072" stroke="#000000" points="280.5078,-252 161.4922,-252 161.4922,-216 280.5078,-216 280.5078,-252"/>
<text text-anchor="middle" x="221" y="-229.8" font-family="Times,serif" font-size="14.00" fill="#000000">IncludesDirective </text>
</g>
<!-- RebirthValidatorsModule&#45;&gt;IncludesDirective  -->
<g id="edge17" class="edge">
<title>RebirthValidatorsModule&#45;&gt;IncludesDirective </title>
<path fill="none" stroke="#000000" stroke-dasharray="5,2" d="M1024.0823,-160C806.7238,-160 221,-160 221,-160 221,-160 221,-205.7079 221,-205.7079"/>
<polygon fill="#000000" stroke="#000000" points="217.5001,-205.7078 221,-215.7079 224.5001,-205.7079 217.5001,-205.7078"/>
</g>
<!-- EqualToDirective  -->
<g id="node19" class="node">
<title>EqualToDirective </title>
<polygon fill="#fb8072" stroke="#000000" points="143.7934,-252 24.2066,-252 24.2066,-216 143.7934,-216 143.7934,-252"/>
<text text-anchor="middle" x="84" y="-229.8" font-family="Times,serif" font-size="14.00" fill="#000000">EqualToDirective </text>
</g>
<!-- RebirthValidatorsModule&#45;&gt;EqualToDirective  -->
<g id="edge18" class="edge">
<title>RebirthValidatorsModule&#45;&gt;EqualToDirective </title>
<path fill="none" stroke="#000000" stroke-dasharray="5,2" d="M1023.9623,-156C783.5068,-156 84,-156 84,-156 84,-156 84,-205.9092 84,-205.9092"/>
<polygon fill="#000000" stroke="#000000" points="80.5001,-205.9091 84,-215.9092 87.5001,-205.9092 80.5001,-205.9091"/>
</g>
</g>
</svg>
