<?xml version="1.0" encoding="UTF-8" standalone="no"?>
<!DOCTYPE svg PUBLIC "-//W3C//DTD SVG 1.1//EN"
 "http://www.w3.org/Graphics/SVG/1.1/DTD/svg11.dtd">
<!-- Generated by graphviz version 2.40.1 (20161225.0304)
 -->
<!-- Title: dependencies Pages: 1 -->
<svg width="2496pt" height="284pt"
 viewBox="0.00 0.00 2496.00 284.00" xmlns="http://www.w3.org/2000/svg" xmlns:xlink="http://www.w3.org/1999/xlink">
<g id="graph0" class="graph" transform="scale(1 1) rotate(0) translate(4 280)">
<title>dependencies</title>
<polygon fill="#ffffff" stroke="transparent" points="-4,4 -4,-280 2492,-280 2492,4 -4,4"/>
<text text-anchor="start" x="1223.0091" y="-42.4" font-family="sans-serif" font-weight="bold" font-size="14.00" fill="#000000">Legend</text>
<polygon fill="#ffffb3" stroke="transparent" points="1010,-10 1010,-30 1030,-30 1030,-10 1010,-10"/>
<text text-anchor="start" x="1033.629" y="-15.4" font-family="sans-serif" font-size="14.00" fill="#000000"> &#160;Declarations</text>
<polygon fill="#8dd3c7" stroke="transparent" points="1123,-10 1123,-30 1143,-30 1143,-10 1123,-10"/>
<text text-anchor="start" x="1146.7251" y="-15.4" font-family="sans-serif" font-size="14.00" fill="#000000"> &#160;Module</text>
<polygon fill="#80b1d3" stroke="transparent" points="1209,-10 1209,-30 1229,-30 1229,-10 1209,-10"/>
<text text-anchor="start" x="1232.7812" y="-15.4" font-family="sans-serif" font-size="14.00" fill="#000000"> &#160;Bootstrap</text>
<polygon fill="#fdb462" stroke="transparent" points="1306,-10 1306,-30 1326,-30 1326,-10 1306,-10"/>
<text text-anchor="start" x="1329.6732" y="-15.4" font-family="sans-serif" font-size="14.00" fill="#000000"> &#160;Providers</text>
<polygon fill="#fb8072" stroke="transparent" points="1402,-10 1402,-30 1422,-30 1422,-10 1402,-10"/>
<text text-anchor="start" x="1425.7258" y="-15.4" font-family="sans-serif" font-size="14.00" fill="#000000"> &#160;Exports</text>
<g id="clust1" class="cluster">
<title>cluster_RebirthValidatorsModule</title>
<polygon fill="none" stroke="#000000" stroke-dasharray="1,5" points="8,-70 8,-268 2480,-268 2480,-70 8,-70"/>
</g>
<g id="clust3" class="cluster">
<title>cluster_RebirthValidatorsModule_imports</title>
<polygon fill="none" stroke="#000000" points="1213,-78 1213,-130 1341,-130 1341,-78 1213,-78"/>
</g>
<g id="clust4" class="cluster">
<title>cluster_RebirthValidatorsModule_exports</title>
<polygon fill="none" stroke="#000000" points="16,-208 16,-260 2472,-260 2472,-208 16,-208"/>
</g>
<!-- CommonModule -->
<g id="node1" class="node">
<title>CommonModule</title>
<polygon fill="#8dd3c7" stroke="#000000" points="1332.6681,-122 1329.6681,-126 1308.6681,-126 1305.6681,-122 1221.3319,-122 1221.3319,-86 1332.6681,-86 1332.6681,-122"/>
<text text-anchor="middle" x="1277" y="-99.8" font-family="Times,serif" font-size="14.00" fill="#000000">CommonModule</text>
</g>
<!-- RebirthValidatorsModule -->
<g id="node2" class="node">
<title>RebirthValidatorsModule</title>
<polygon fill="#8dd3c7" stroke="#000000" points="1356.8557,-187 1353.8557,-191 1332.8557,-191 1329.8557,-187 1197.1443,-187 1197.1443,-151 1356.8557,-151 1356.8557,-187"/>
<text text-anchor="middle" x="1277" y="-164.8" font-family="Times,serif" font-size="14.00" fill="#000000">RebirthValidatorsModule</text>
</g>
<!-- CommonModule&#45;&gt;RebirthValidatorsModule -->
<g id="edge1" class="edge">
<title>CommonModule&#45;&gt;RebirthValidatorsModule</title>
<path fill="none" stroke="#000000" d="M1277,-122.1061C1277,-122.1061 1277,-140.991 1277,-140.991"/>
<polygon fill="#000000" stroke="#000000" points="1273.5001,-140.9909 1277,-150.991 1280.5001,-140.991 1273.5001,-140.9909"/>
</g>
<!-- RangeLengthDirective  -->
<g id="node3" class="node">
<title>RangeLengthDirective </title>
<polygon fill="#fb8072" stroke="#000000" points="2463.5064,-252 2316.4936,-252 2316.4936,-216 2463.5064,-216 2463.5064,-252"/>
<text text-anchor="middle" x="2390" y="-229.8" font-family="Times,serif" font-size="14.00" fill="#000000">RangeLengthDirective </text>
</g>
<!-- RebirthValidatorsModule&#45;&gt;RangeLengthDirective  -->
<g id="edge2" class="edge">
<title>RebirthValidatorsModule&#45;&gt;RangeLengthDirective </title>
<path fill="none" stroke="#000000" stroke-dasharray="5,2" d="M1357.0442,-155C1612.2451,-155 2390,-155 2390,-155 2390,-155 2390,-205.6772 2390,-205.6772"/>
<polygon fill="#000000" stroke="#000000" points="2386.5001,-205.6772 2390,-215.6772 2393.5001,-205.6773 2386.5001,-205.6772"/>
</g>
<!-- MinDirective  -->
<g id="node4" class="node">
<title>MinDirective </title>
<polygon fill="#fb8072" stroke="#000000" points="2298.418,-252 2203.582,-252 2203.582,-216 2298.418,-216 2298.418,-252"/>
<text text-anchor="middle" x="2251" y="-229.8" font-family="Times,serif" font-size="14.00" fill="#000000">MinDirective </text>
</g>
<!-- RebirthValidatorsModule&#45;&gt;MinDirective  -->
<g id="edge3" class="edge">
<title>RebirthValidatorsModule&#45;&gt;MinDirective </title>
<path fill="none" stroke="#000000" stroke-dasharray="5,2" d="M1357.1204,-159C1590.1099,-159 2251,-159 2251,-159 2251,-159 2251,-205.8446 2251,-205.8446"/>
<polygon fill="#000000" stroke="#000000" points="2247.5001,-205.8446 2251,-215.8446 2254.5001,-205.8446 2247.5001,-205.8446"/>
</g>
<!-- RangeDirective  -->
<g id="node5" class="node">
<title>RangeDirective </title>
<polygon fill="#fb8072" stroke="#000000" points="2185.8492,-252 2078.1508,-252 2078.1508,-216 2185.8492,-216 2185.8492,-252"/>
<text text-anchor="middle" x="2132" y="-229.8" font-family="Times,serif" font-size="14.00" fill="#000000">RangeDirective </text>
</g>
<!-- RebirthValidatorsModule&#45;&gt;RangeDirective  -->
<g id="edge4" class="edge">
<title>RebirthValidatorsModule&#45;&gt;RangeDirective </title>
<path fill="none" stroke="#000000" stroke-dasharray="5,2" d="M1357.0521,-163C1569.5998,-163 2132,-163 2132,-163 2132,-163 2132,-205.7157 2132,-205.7157"/>
<polygon fill="#000000" stroke="#000000" points="2128.5001,-205.7157 2132,-215.7157 2135.5001,-205.7158 2128.5001,-205.7157"/>
</g>
<!-- MaxDirective  -->
<g id="node6" class="node">
<title>MaxDirective </title>
<polygon fill="#fb8072" stroke="#000000" points="2060.7423,-252 1963.2577,-252 1963.2577,-216 2060.7423,-216 2060.7423,-252"/>
<text text-anchor="middle" x="2012" y="-229.8" font-family="Times,serif" font-size="14.00" fill="#000000">MaxDirective </text>
</g>
<!-- RebirthValidatorsModule&#45;&gt;MaxDirective  -->
<g id="edge5" class="edge">
<title>RebirthValidatorsModule&#45;&gt;MaxDirective </title>
<path fill="none" stroke="#000000" stroke-dasharray="5,2" d="M1357.057,-167C1547.5529,-167 2012,-167 2012,-167 2012,-167 2012,-205.692 2012,-205.692"/>
<polygon fill="#000000" stroke="#000000" points="2008.5001,-205.6919 2012,-215.692 2015.5001,-205.692 2008.5001,-205.6919"/>
</g>
<!-- DigitsDirective  -->
<g id="node7" class="node">
<title>DigitsDirective </title>
<polygon fill="#fb8072" stroke="#000000" points="1944.806,-252 1839.194,-252 1839.194,-216 1944.806,-216 1944.806,-252"/>
<text text-anchor="middle" x="1892" y="-229.8" font-family="Times,serif" font-size="14.00" fill="#000000">DigitsDirective </text>
</g>
<!-- RebirthValidatorsModule&#45;&gt;DigitsDirective  -->
<g id="edge6" class="edge">
<title>RebirthValidatorsModule&#45;&gt;DigitsDirective </title>
<path fill="none" stroke="#000000" stroke-dasharray="5,2" d="M1357.085,-171C1523.6389,-171 1892,-171 1892,-171 1892,-171 1892,-205.7778 1892,-205.7778"/>
<polygon fill="#000000" stroke="#000000" points="1888.5001,-205.7778 1892,-215.7778 1895.5001,-205.7778 1888.5001,-205.7778"/>
</g>
<!-- NumberDirective  -->
<g id="node8" class="node">
<title>NumberDirective </title>
<polygon fill="#fb8072" stroke="#000000" points="1820.9561,-252 1703.0439,-252 1703.0439,-216 1820.9561,-216 1820.9561,-252"/>
<text text-anchor="middle" x="1762" y="-229.8" font-family="Times,serif" font-size="14.00" fill="#000000">NumberDirective </text>
</g>
<!-- RebirthValidatorsModule&#45;&gt;NumberDirective  -->
<g id="edge7" class="edge">
<title>RebirthValidatorsModule&#45;&gt;NumberDirective </title>
<path fill="none" stroke="#000000" stroke-dasharray="5,2" d="M1357.0879,-175C1494.8415,-175 1762,-175 1762,-175 1762,-175 1762,-205.9775 1762,-205.9775"/>
<polygon fill="#000000" stroke="#000000" points="1758.5001,-205.9774 1762,-215.9775 1765.5001,-205.9775 1758.5001,-205.9774"/>
</g>
<!-- UrlDirective  -->
<g id="node9" class="node">
<title>UrlDirective </title>
<polygon fill="#fb8072" stroke="#000000" points="1685.2409,-252 1594.7591,-252 1594.7591,-216 1685.2409,-216 1685.2409,-252"/>
<text text-anchor="middle" x="1640" y="-229.8" font-family="Times,serif" font-size="14.00" fill="#000000">UrlDirective </text>
</g>
<!-- RebirthValidatorsModule&#45;&gt;UrlDirective  -->
<g id="edge8" class="edge">
<title>RebirthValidatorsModule&#45;&gt;UrlDirective </title>
<path fill="none" stroke="#000000" stroke-dasharray="5,2" d="M1357.1113,-179C1464.0109,-179 1640,-179 1640,-179 1640,-179 1640,-205.9909 1640,-205.9909"/>
<polygon fill="#000000" stroke="#000000" points="1636.5001,-205.9909 1640,-215.9909 1643.5001,-205.991 1636.5001,-205.9909"/>
</g>
<!-- EmailDirective  -->
<g id="node10" class="node">
<title>EmailDirective </title>
<polygon fill="#fb8072" stroke="#000000" points="1576.5218,-252 1471.4782,-252 1471.4782,-216 1576.5218,-216 1576.5218,-252"/>
<text text-anchor="middle" x="1524" y="-229.8" font-family="Times,serif" font-size="14.00" fill="#000000">EmailDirective </text>
</g>
<!-- RebirthValidatorsModule&#45;&gt;EmailDirective  -->
<g id="edge9" class="edge">
<title>RebirthValidatorsModule&#45;&gt;EmailDirective </title>
<path fill="none" stroke="#000000" stroke-dasharray="5,2" d="M1357.1938,-183C1429.3162,-183 1524,-183 1524,-183 1524,-183 1524,-205.8757 1524,-205.8757"/>
<polygon fill="#000000" stroke="#000000" points="1520.5001,-205.8757 1524,-215.8757 1527.5001,-205.8757 1520.5001,-205.8757"/>
</g>
<!-- DateDirective  -->
<g id="node11" class="node">
<title>DateDirective </title>
<polygon fill="#fb8072" stroke="#000000" points="1453.0092,-252 1354.9908,-252 1354.9908,-216 1453.0092,-216 1453.0092,-252"/>
<text text-anchor="middle" x="1404" y="-229.8" font-family="Times,serif" font-size="14.00" fill="#000000">DateDirective </text>
</g>
<!-- RebirthValidatorsModule&#45;&gt;DateDirective  -->
<g id="edge10" class="edge">
<title>RebirthValidatorsModule&#45;&gt;DateDirective </title>
<path fill="none" stroke="#000000" stroke-dasharray="5,2" d="M1346.1375,-187.1061C1346.1375,-206.3391 1346.1375,-234 1346.1375,-234 1346.1375,-234 1346.9912,-234 1346.9912,-234"/>
<polygon fill="#000000" stroke="#000000" points="1344.6753,-237.5001 1354.6753,-234 1344.6752,-230.5001 1344.6753,-237.5001"/>
</g>
<!-- DateISODirective  -->
<g id="node12" class="node">
<title>DateISODirective </title>
<polygon fill="#fb8072" stroke="#000000" points="1337.0598,-252 1216.9402,-252 1216.9402,-216 1337.0598,-216 1337.0598,-252"/>
<text text-anchor="middle" x="1277" y="-229.8" font-family="Times,serif" font-size="14.00" fill="#000000">DateISODirective </text>
</g>
<!-- RebirthValidatorsModule&#45;&gt;DateISODirective  -->
<g id="edge11" class="edge">
<title>RebirthValidatorsModule&#45;&gt;DateISODirective </title>
<path fill="none" stroke="#000000" stroke-dasharray="5,2" d="M1277,-187.1061C1277,-187.1061 1277,-205.991 1277,-205.991"/>
<polygon fill="#000000" stroke="#000000" points="1273.5001,-205.9909 1277,-215.991 1280.5001,-205.991 1273.5001,-205.9909"/>
</g>
<!-- JsonDirective  -->
<g id="node13" class="node">
<title>JsonDirective </title>
<polygon fill="#fb8072" stroke="#000000" points="1198.4732,-252 1101.5268,-252 1101.5268,-216 1198.4732,-216 1198.4732,-252"/>
<text text-anchor="middle" x="1150" y="-229.8" font-family="Times,serif" font-size="14.00" fill="#000000">JsonDirective </text>
</g>
<!-- RebirthValidatorsModule&#45;&gt;JsonDirective  -->
<g id="edge12" class="edge">
<title>RebirthValidatorsModule&#45;&gt;JsonDirective </title>
<path fill="none" stroke="#000000" stroke-dasharray="5,2" d="M1207.4783,-187.1061C1207.4783,-206.3391 1207.4783,-234 1207.4783,-234 1207.4783,-234 1206.5548,-234 1206.5548,-234"/>
<polygon fill="#000000" stroke="#000000" points="1208.2434,-230.5001 1198.2434,-234 1208.2433,-237.5001 1208.2434,-230.5001"/>
</g>
<!-- Base64Directive  -->
<g id="node14" class="node">
<title>Base64Directive </title>
<polygon fill="#fb8072" stroke="#000000" points="1083.2934,-252 970.7066,-252 970.7066,-216 1083.2934,-216 1083.2934,-252"/>
<text text-anchor="middle" x="1027" y="-229.8" font-family="Times,serif" font-size="14.00" fill="#000000">Base64Directive </text>
</g>
<!-- RebirthValidatorsModule&#45;&gt;Base64Directive  -->
<g id="edge13" class="edge">
<title>RebirthValidatorsModule&#45;&gt;Base64Directive </title>
<path fill="none" stroke="#000000" stroke-dasharray="5,2" d="M1196.8669,-183C1123.7429,-183 1027,-183 1027,-183 1027,-183 1027,-205.8757 1027,-205.8757"/>
<polygon fill="#000000" stroke="#000000" points="1023.5001,-205.8757 1027,-215.8757 1030.5001,-205.8757 1023.5001,-205.8757"/>
</g>
<!-- PhoneDirective  -->
<g id="node15" class="node">
<title>PhoneDirective </title>
<polygon fill="#fb8072" stroke="#000000" points="952.0808,-252 845.9192,-252 845.9192,-216 952.0808,-216 952.0808,-252"/>
<text text-anchor="middle" x="899" y="-229.8" font-family="Times,serif" font-size="14.00" fill="#000000">PhoneDirective </text>
</g>
<!-- RebirthValidatorsModule&#45;&gt;PhoneDirective  -->
<g id="edge14" class="edge">
<title>RebirthValidatorsModule&#45;&gt;PhoneDirective </title>
<path fill="none" stroke="#000000" stroke-dasharray="5,2" d="M1196.8359,-179C1085.8774,-179 899,-179 899,-179 899,-179 899,-205.9909 899,-205.9909"/>
<polygon fill="#000000" stroke="#000000" points="895.5001,-205.9909 899,-215.9909 902.5001,-205.991 895.5001,-205.9909"/>
</g>
<!-- UUIDDirective  -->
<g id="node16" class="node">
<title>UUIDDirective </title>
<polygon fill="#fb8072" stroke="#000000" points="827.0641,-252 720.9359,-252 720.9359,-216 827.0641,-216 827.0641,-252"/>
<text text-anchor="middle" x="774" y="-229.8" font-family="Times,serif" font-size="14.00" fill="#000000">UUIDDirective </text>
</g>
<!-- RebirthValidatorsModule&#45;&gt;UUIDDirective  -->
<g id="edge15" class="edge">
<title>RebirthValidatorsModule&#45;&gt;UUIDDirective </title>
<path fill="none" stroke="#000000" stroke-dasharray="5,2" d="M1197.0202,-175C1055.0985,-175 774,-175 774,-175 774,-175 774,-205.9775 774,-205.9775"/>
<polygon fill="#000000" stroke="#000000" points="770.5001,-205.9774 774,-215.9775 777.5001,-205.9775 770.5001,-205.9774"/>
</g>
<!-- EqualDirective  -->
<g id="node17" class="node">
<title>EqualDirective </title>
<polygon fill="#fb8072" stroke="#000000" points="703.2409,-252 598.7591,-252 598.7591,-216 703.2409,-216 703.2409,-252"/>
<text text-anchor="middle" x="651" y="-229.8" font-family="Times,serif" font-size="14.00" fill="#000000">EqualDirective </text>
</g>
<!-- RebirthValidatorsModule&#45;&gt;EqualDirective  -->
<g id="edge16" class="edge">
<title>RebirthValidatorsModule&#45;&gt;EqualDirective </title>
<path fill="none" stroke="#000000" stroke-dasharray="5,2" d="M1197.0808,-171C1028.319,-171 651,-171 651,-171 651,-171 651,-205.7778 651,-205.7778"/>
<polygon fill="#000000" stroke="#000000" points="647.5001,-205.7778 651,-215.7778 654.5001,-205.7778 647.5001,-205.7778"/>
</g>
<!-- IncludesDirective  -->
<g id="node18" class="node">
<title>IncludesDirective </title>
<polygon fill="#fb8072" stroke="#000000" points="580.5078,-252 461.4922,-252 461.4922,-216 580.5078,-216 580.5078,-252"/>
<text text-anchor="middle" x="521" y="-229.8" font-family="Times,serif" font-size="14.00" fill="#000000">IncludesDirective </text>
</g>
<!-- RebirthValidatorsModule&#45;&gt;IncludesDirective  -->
<g id="edge17" class="edge">
<title>RebirthValidatorsModule&#45;&gt;IncludesDirective </title>
<path fill="none" stroke="#000000" stroke-dasharray="5,2" d="M1196.8105,-167C1002.2447,-167 521,-167 521,-167 521,-167 521,-205.692 521,-205.692"/>
<polygon fill="#000000" stroke="#000000" points="517.5001,-205.6919 521,-215.692 524.5001,-205.692 517.5001,-205.6919"/>
</g>
<!-- EqualToDirective  -->
<g id="node19" class="node">
<title>EqualToDirective </title>
<polygon fill="#fb8072" stroke="#000000" points="443.7934,-252 324.2066,-252 324.2066,-216 443.7934,-216 443.7934,-252"/>
<text text-anchor="middle" x="384" y="-229.8" font-family="Times,serif" font-size="14.00" fill="#000000">EqualToDirective </text>
</g>
<!-- RebirthValidatorsModule&#45;&gt;EqualToDirective  -->
<g id="edge18" class="edge">
<title>RebirthValidatorsModule&#45;&gt;EqualToDirective </title>
<path fill="none" stroke="#000000" stroke-dasharray="5,2" d="M1196.9663,-163C977.7785,-163 384,-163 384,-163 384,-163 384,-205.7157 384,-205.7157"/>
<polygon fill="#000000" stroke="#000000" points="380.5001,-205.7157 384,-215.7157 387.5001,-205.7158 380.5001,-205.7157"/>
</g>
<!-- BeforeDateDirective  -->
<g id="node20" class="node">
<title>BeforeDateDirective </title>
<polygon fill="#fb8072" stroke="#000000" points="306.0962,-252 169.9038,-252 169.9038,-216 306.0962,-216 306.0962,-252"/>
<text text-anchor="middle" x="238" y="-229.8" font-family="Times,serif" font-size="14.00" fill="#000000">BeforeDateDirective </text>
</g>
<!-- RebirthValidatorsModule&#45;&gt;BeforeDateDirective  -->
<g id="edge19" class="edge">
<title>RebirthValidatorsModule&#45;&gt;BeforeDateDirective </title>
<path fill="none" stroke="#000000" stroke-dasharray="5,2" d="M1196.7668,-159C953.0599,-159 238,-159 238,-159 238,-159 238,-205.8446 238,-205.8446"/>
<polygon fill="#000000" stroke="#000000" points="234.5001,-205.8446 238,-215.8446 241.5001,-205.8446 234.5001,-205.8446"/>
</g>
<!-- AfterDateDirective  -->
<g id="node21" class="node">
<title>AfterDateDirective </title>
<polygon fill="#fb8072" stroke="#000000" points="151.543,-252 24.457,-252 24.457,-216 151.543,-216 151.543,-252"/>
<text text-anchor="middle" x="88" y="-229.8" font-family="Times,serif" font-size="14.00" fill="#000000">AfterDateDirective </text>
</g>
<!-- RebirthValidatorsModule&#45;&gt;AfterDateDirective  -->
<g id="edge20" class="edge">
<title>RebirthValidatorsModule&#45;&gt;AfterDateDirective </title>
<path fill="none" stroke="#000000" stroke-dasharray="5,2" d="M1197.1401,-155C930.5515,-155 88,-155 88,-155 88,-155 88,-205.6772 88,-205.6772"/>
<polygon fill="#000000" stroke="#000000" points="84.5001,-205.6772 88,-215.6772 91.5001,-205.6773 84.5001,-205.6772"/>
</g>
</g>
</svg>
