<?xml version="1.0" encoding="UTF-8" standalone="no"?>
<!DOCTYPE svg PUBLIC "-//W3C//DTD SVG 1.1//EN"
 "http://www.w3.org/Graphics/SVG/1.1/DTD/svg11.dtd">
<!-- Generated by graphviz version 2.40.1 (20161225.0304)
 -->
<!-- Title: dependencies Pages: 1 -->
<svg width="2688pt" height="349pt"
 viewBox="0.00 0.00 2688.00 349.00" xmlns="http://www.w3.org/2000/svg" xmlns:xlink="http://www.w3.org/1999/xlink">
<g id="graph0" class="graph" transform="scale(1 1) rotate(0) translate(4 345)">
<title>dependencies</title>
<polygon fill="#ffffff" stroke="transparent" points="-4,4 -4,-345 2684,-345 2684,4 -4,4"/>
<text text-anchor="start" x="1319.0091" y="-42.4" font-family="sans-serif" font-weight="bold" font-size="14.00" fill="#000000">Legend</text>
<polygon fill="#ffffb3" stroke="transparent" points="1106,-10 1106,-30 1126,-30 1126,-10 1106,-10"/>
<text text-anchor="start" x="1129.629" y="-15.4" font-family="sans-serif" font-size="14.00" fill="#000000"> &#160;Declarations</text>
<polygon fill="#8dd3c7" stroke="transparent" points="1219,-10 1219,-30 1239,-30 1239,-10 1219,-10"/>
<text text-anchor="start" x="1242.7251" y="-15.4" font-family="sans-serif" font-size="14.00" fill="#000000"> &#160;Module</text>
<polygon fill="#80b1d3" stroke="transparent" points="1305,-10 1305,-30 1325,-30 1325,-10 1305,-10"/>
<text text-anchor="start" x="1328.7812" y="-15.4" font-family="sans-serif" font-size="14.00" fill="#000000"> &#160;Bootstrap</text>
<polygon fill="#fdb462" stroke="transparent" points="1402,-10 1402,-30 1422,-30 1422,-10 1402,-10"/>
<text text-anchor="start" x="1425.6732" y="-15.4" font-family="sans-serif" font-size="14.00" fill="#000000"> &#160;Providers</text>
<polygon fill="#fb8072" stroke="transparent" points="1498,-10 1498,-30 1518,-30 1518,-10 1498,-10"/>
<text text-anchor="start" x="1521.7258" y="-15.4" font-family="sans-serif" font-size="14.00" fill="#000000"> &#160;Exports</text>
<g id="clust1" class="cluster">
<title>cluster_RebirthValidatorsModule</title>
<polygon fill="none" stroke="#000000" stroke-dasharray="1,5" points="8,-70 8,-333 2672,-333 2672,-70 8,-70"/>
</g>
<g id="clust2" class="cluster">
<title>cluster_RebirthValidatorsModule_declarations</title>
<polygon fill="none" stroke="#000000" points="58,-143 58,-195 2639,-195 2639,-143 58,-143"/>
</g>
<g id="clust3" class="cluster">
<title>cluster_RebirthValidatorsModule_AfterDateDirective_providers</title>
<polygon fill="none" stroke="#000000" points="1277,-78 1277,-130 1423,-130 1423,-78 1277,-78"/>
</g>
<g id="clust24" class="cluster">
<title>cluster_RebirthValidatorsModule_exports</title>
<polygon fill="none" stroke="#000000" points="16,-273 16,-325 2664,-325 2664,-273 16,-273"/>
</g>
<!-- AfterDateDirective -->
<g id="node1" class="node">
<title>AfterDateDirective</title>
<polygon fill="#ffffb3" stroke="#000000" points="2631.0422,-187 2506.9578,-187 2506.9578,-151 2631.0422,-151 2631.0422,-187"/>
<text text-anchor="middle" x="2569" y="-164.8" font-family="Times,serif" font-size="14.00" fill="#000000">AfterDateDirective</text>
</g>
<!-- RebirthValidatorsModule -->
<g id="node21" class="node">
<title>RebirthValidatorsModule</title>
<polygon fill="#8dd3c7" stroke="#000000" points="1384.8557,-252 1381.8557,-256 1360.8557,-256 1357.8557,-252 1225.1443,-252 1225.1443,-216 1384.8557,-216 1384.8557,-252"/>
<text text-anchor="middle" x="1305" y="-229.8" font-family="Times,serif" font-size="14.00" fill="#000000">RebirthValidatorsModule</text>
</g>
<!-- AfterDateDirective&#45;&gt;RebirthValidatorsModule -->
<g id="edge1" class="edge">
<title>AfterDateDirective&#45;&gt;RebirthValidatorsModule</title>
<path fill="none" stroke="#000000" d="M2519.3128,-187.1061C2519.3128,-206.3391 2519.3128,-234 2519.3128,-234 2519.3128,-234 1395.1441,-234 1395.1441,-234"/>
<polygon fill="#000000" stroke="#000000" points="1395.1441,-230.5001 1385.1441,-234 1395.144,-237.5001 1395.1441,-230.5001"/>
</g>
<!-- Base64Directive -->
<g id="node2" class="node">
<title>Base64Directive</title>
<polygon fill="#ffffb3" stroke="#000000" points="2488.7936,-187 2379.2064,-187 2379.2064,-151 2488.7936,-151 2488.7936,-187"/>
<text text-anchor="middle" x="2434" y="-164.8" font-family="Times,serif" font-size="14.00" fill="#000000">Base64Directive</text>
</g>
<!-- Base64Directive&#45;&gt;RebirthValidatorsModule -->
<g id="edge3" class="edge">
<title>Base64Directive&#45;&gt;RebirthValidatorsModule</title>
<path fill="none" stroke="#000000" d="M2388.8258,-187.2222C2388.8258,-205.8285 2388.8258,-232 2388.8258,-232 2388.8258,-232 1395.1364,-232 1395.1364,-232"/>
<polygon fill="#000000" stroke="#000000" points="1395.1365,-228.5001 1385.1364,-232 1395.1364,-235.5001 1395.1365,-228.5001"/>
</g>
<!-- BeforeDateDirective -->
<g id="node3" class="node">
<title>BeforeDateDirective</title>
<polygon fill="#ffffb3" stroke="#000000" points="2361.0968,-187 2228.9032,-187 2228.9032,-151 2361.0968,-151 2361.0968,-187"/>
<text text-anchor="middle" x="2295" y="-164.8" font-family="Times,serif" font-size="14.00" fill="#000000">BeforeDateDirective</text>
</g>
<!-- BeforeDateDirective&#45;&gt;RebirthValidatorsModule -->
<g id="edge5" class="edge">
<title>BeforeDateDirective&#45;&gt;RebirthValidatorsModule</title>
<path fill="none" stroke="#000000" d="M2236.3269,-187.302C2236.3269,-205.2699 2236.3269,-230 2236.3269,-230 2236.3269,-230 1395.2105,-230 1395.2105,-230"/>
<polygon fill="#000000" stroke="#000000" points="1395.2105,-226.5001 1385.2105,-230 1395.2104,-233.5001 1395.2105,-226.5001"/>
</g>
<!-- DateDirective -->
<g id="node4" class="node">
<title>DateDirective</title>
<polygon fill="#ffffb3" stroke="#000000" points="2210.0105,-187 2115.9895,-187 2115.9895,-151 2210.0105,-151 2210.0105,-187"/>
<text text-anchor="middle" x="2163" y="-164.8" font-family="Times,serif" font-size="14.00" fill="#000000">DateDirective</text>
</g>
<!-- DateDirective&#45;&gt;RebirthValidatorsModule -->
<g id="edge7" class="edge">
<title>DateDirective&#45;&gt;RebirthValidatorsModule</title>
<path fill="none" stroke="#000000" d="M2121.8704,-187.0225C2121.8704,-204.3734 2121.8704,-228 2121.8704,-228 2121.8704,-228 1395.1859,-228 1395.1859,-228"/>
<polygon fill="#000000" stroke="#000000" points="1395.186,-224.5001 1385.1859,-228 1395.1859,-231.5001 1395.186,-224.5001"/>
</g>
<!-- DateISODirective -->
<g id="node5" class="node">
<title>DateISODirective</title>
<polygon fill="#ffffb3" stroke="#000000" points="2097.559,-187 1980.441,-187 1980.441,-151 2097.559,-151 2097.559,-187"/>
<text text-anchor="middle" x="2039" y="-164.8" font-family="Times,serif" font-size="14.00" fill="#000000">DateISODirective</text>
</g>
<!-- DateISODirective&#45;&gt;RebirthValidatorsModule -->
<g id="edge9" class="edge">
<title>DateISODirective&#45;&gt;RebirthValidatorsModule</title>
<path fill="none" stroke="#000000" d="M1985.0955,-187.0352C1985.0955,-203.7344 1985.0955,-226 1985.0955,-226 1985.0955,-226 1395.0155,-226 1395.0155,-226"/>
<polygon fill="#000000" stroke="#000000" points="1395.0155,-222.5001 1385.0155,-226 1395.0154,-229.5001 1395.0155,-222.5001"/>
</g>
<!-- DigitsDirective -->
<g id="node6" class="node">
<title>DigitsDirective</title>
<polygon fill="#ffffb3" stroke="#000000" points="1962.3063,-187 1859.6937,-187 1859.6937,-151 1962.3063,-151 1962.3063,-187"/>
<text text-anchor="middle" x="1911" y="-164.8" font-family="Times,serif" font-size="14.00" fill="#000000">DigitsDirective</text>
</g>
<!-- DigitsDirective&#45;&gt;RebirthValidatorsModule -->
<g id="edge11" class="edge">
<title>DigitsDirective&#45;&gt;RebirthValidatorsModule</title>
<path fill="none" stroke="#000000" d="M1930.1343,-187.0091C1930.1343,-203.0494 1930.1343,-224 1930.1343,-224 1930.1343,-224 1395.1269,-224 1395.1269,-224"/>
<polygon fill="#000000" stroke="#000000" points="1395.1269,-220.5001 1385.1269,-224 1395.1268,-227.5001 1395.1269,-220.5001"/>
</g>
<!-- EmailDirective -->
<g id="node7" class="node">
<title>EmailDirective</title>
<polygon fill="#ffffb3" stroke="#000000" points="1841.5229,-187 1740.4771,-187 1740.4771,-151 1841.5229,-151 1841.5229,-187"/>
<text text-anchor="middle" x="1791" y="-164.8" font-family="Times,serif" font-size="14.00" fill="#000000">EmailDirective</text>
</g>
<!-- EmailDirective&#45;&gt;RebirthValidatorsModule -->
<g id="edge13" class="edge">
<title>EmailDirective&#45;&gt;RebirthValidatorsModule</title>
<path fill="none" stroke="#000000" d="M1809.0036,-187.2396C1809.0036,-202.5706 1809.0036,-222 1809.0036,-222 1809.0036,-222 1394.8609,-222 1394.8609,-222"/>
<polygon fill="#000000" stroke="#000000" points="1394.8609,-218.5001 1384.8609,-222 1394.8608,-225.5001 1394.8609,-218.5001"/>
</g>
<!-- EqualDirective -->
<g id="node8" class="node">
<title>EqualDirective</title>
<polygon fill="#ffffb3" stroke="#000000" points="1722.2409,-187 1621.7591,-187 1621.7591,-151 1722.2409,-151 1722.2409,-187"/>
<text text-anchor="middle" x="1672" y="-164.8" font-family="Times,serif" font-size="14.00" fill="#000000">EqualDirective</text>
</g>
<!-- EqualDirective&#45;&gt;RebirthValidatorsModule -->
<g id="edge15" class="edge">
<title>EqualDirective&#45;&gt;RebirthValidatorsModule</title>
<path fill="none" stroke="#000000" d="M1688.7901,-187.1243C1688.7901,-201.7832 1688.7901,-220 1688.7901,-220 1688.7901,-220 1394.9878,-220 1394.9878,-220"/>
<polygon fill="#000000" stroke="#000000" points="1394.9879,-216.5001 1384.9878,-220 1394.9878,-223.5001 1394.9879,-216.5001"/>
</g>
<!-- EqualToDirective -->
<g id="node9" class="node">
<title>EqualToDirective</title>
<polygon fill="#ffffb3" stroke="#000000" points="1603.2936,-187 1486.7064,-187 1486.7064,-151 1603.2936,-151 1603.2936,-187"/>
<text text-anchor="middle" x="1545" y="-164.8" font-family="Times,serif" font-size="14.00" fill="#000000">EqualToDirective</text>
</g>
<!-- EqualToDirective&#45;&gt;RebirthValidatorsModule -->
<g id="edge17" class="edge">
<title>EqualToDirective&#45;&gt;RebirthValidatorsModule</title>
<path fill="none" stroke="#000000" d="M1525.5345,-187.2458C1525.5345,-201.1772 1525.5345,-218 1525.5345,-218 1525.5345,-218 1394.9298,-218 1394.9298,-218"/>
<polygon fill="#000000" stroke="#000000" points="1394.9298,-214.5001 1384.9298,-218 1394.9298,-221.5001 1394.9298,-214.5001"/>
</g>
<!-- IncludesDirective -->
<g id="node10" class="node">
<title>IncludesDirective</title>
<polygon fill="#ffffb3" stroke="#000000" points="1468.5088,-187 1353.4912,-187 1353.4912,-151 1468.5088,-151 1468.5088,-187"/>
<text text-anchor="middle" x="1411" y="-164.8" font-family="Times,serif" font-size="14.00" fill="#000000">IncludesDirective</text>
</g>
<!-- IncludesDirective&#45;&gt;RebirthValidatorsModule -->
<g id="edge19" class="edge">
<title>IncludesDirective&#45;&gt;RebirthValidatorsModule</title>
<path fill="none" stroke="#000000" d="M1369.0869,-187.1061C1369.0869,-187.1061 1369.0869,-205.991 1369.0869,-205.991"/>
<polygon fill="#000000" stroke="#000000" points="1365.587,-205.9909 1369.0869,-215.991 1372.587,-205.991 1365.587,-205.9909"/>
</g>
<!-- JsonDirective -->
<g id="node11" class="node">
<title>JsonDirective</title>
<polygon fill="#ffffb3" stroke="#000000" points="1335.472,-187 1242.528,-187 1242.528,-151 1335.472,-151 1335.472,-187"/>
<text text-anchor="middle" x="1289" y="-164.8" font-family="Times,serif" font-size="14.00" fill="#000000">JsonDirective</text>
</g>
<!-- JsonDirective&#45;&gt;RebirthValidatorsModule -->
<g id="edge21" class="edge">
<title>JsonDirective&#45;&gt;RebirthValidatorsModule</title>
<path fill="none" stroke="#000000" d="M1289,-187.1061C1289,-187.1061 1289,-205.991 1289,-205.991"/>
<polygon fill="#000000" stroke="#000000" points="1285.5001,-205.9909 1289,-215.991 1292.5001,-205.991 1285.5001,-205.9909"/>
</g>
<!-- MaxDirective -->
<g id="node12" class="node">
<title>MaxDirective</title>
<polygon fill="#ffffb3" stroke="#000000" points="1224.7424,-187 1131.2576,-187 1131.2576,-151 1224.7424,-151 1224.7424,-187"/>
<text text-anchor="middle" x="1178" y="-164.8" font-family="Times,serif" font-size="14.00" fill="#000000">MaxDirective</text>
</g>
<!-- MaxDirective&#45;&gt;RebirthValidatorsModule -->
<g id="edge23" class="edge">
<title>MaxDirective&#45;&gt;RebirthValidatorsModule</title>
<path fill="none" stroke="#000000" d="M1219.246,-187.2458C1219.246,-201.1772 1219.246,-218 1219.246,-218 1219.246,-218 1219.8354,-218 1219.8354,-218"/>
<polygon fill="#000000" stroke="#000000" points="1215.1403,-221.5002 1225.1402,-218 1215.1402,-214.5002 1215.1403,-221.5002"/>
</g>
<!-- MinDirective -->
<g id="node13" class="node">
<title>MinDirective</title>
<polygon fill="#ffffb3" stroke="#000000" points="1112.919,-187 1021.081,-187 1021.081,-151 1112.919,-151 1112.919,-187"/>
<text text-anchor="middle" x="1067" y="-164.8" font-family="Times,serif" font-size="14.00" fill="#000000">MinDirective</text>
</g>
<!-- MinDirective&#45;&gt;RebirthValidatorsModule -->
<g id="edge25" class="edge">
<title>MinDirective&#45;&gt;RebirthValidatorsModule</title>
<path fill="none" stroke="#000000" d="M1105.584,-187.1243C1105.584,-201.7832 1105.584,-220 1105.584,-220 1105.584,-220 1215.0389,-220 1215.0389,-220"/>
<polygon fill="#000000" stroke="#000000" points="1215.0389,-223.5001 1225.0389,-220 1215.0389,-216.5001 1215.0389,-223.5001"/>
</g>
<!-- NumberDirective -->
<g id="node14" class="node">
<title>NumberDirective</title>
<polygon fill="#ffffb3" stroke="#000000" points="1002.9552,-187 889.0448,-187 889.0448,-151 1002.9552,-151 1002.9552,-187"/>
<text text-anchor="middle" x="946" y="-164.8" font-family="Times,serif" font-size="14.00" fill="#000000">NumberDirective</text>
</g>
<!-- NumberDirective&#45;&gt;RebirthValidatorsModule -->
<g id="edge27" class="edge">
<title>NumberDirective&#45;&gt;RebirthValidatorsModule</title>
<path fill="none" stroke="#000000" d="M994.3526,-187.2396C994.3526,-202.5706 994.3526,-222 994.3526,-222 994.3526,-222 1215.0006,-222 1215.0006,-222"/>
<polygon fill="#000000" stroke="#000000" points="1215.0006,-225.5001 1225.0006,-222 1215.0005,-218.5001 1215.0006,-225.5001"/>
</g>
<!-- PhoneDirective -->
<g id="node15" class="node">
<title>PhoneDirective</title>
<polygon fill="#ffffb3" stroke="#000000" points="870.58,-187 767.42,-187 767.42,-151 870.58,-151 870.58,-187"/>
<text text-anchor="middle" x="819" y="-164.8" font-family="Times,serif" font-size="14.00" fill="#000000">PhoneDirective</text>
</g>
<!-- PhoneDirective&#45;&gt;RebirthValidatorsModule -->
<g id="edge29" class="edge">
<title>PhoneDirective&#45;&gt;RebirthValidatorsModule</title>
<path fill="none" stroke="#000000" d="M859.2812,-187.0091C859.2812,-203.0494 859.2812,-224 859.2812,-224 859.2812,-224 1215.0572,-224 1215.0572,-224"/>
<polygon fill="#000000" stroke="#000000" points="1215.0572,-227.5001 1225.0572,-224 1215.0571,-220.5001 1215.0572,-227.5001"/>
</g>
<!-- RangeDirective -->
<g id="node16" class="node">
<title>RangeDirective</title>
<polygon fill="#ffffb3" stroke="#000000" points="749.8487,-187 646.1513,-187 646.1513,-151 749.8487,-151 749.8487,-187"/>
<text text-anchor="middle" x="698" y="-164.8" font-family="Times,serif" font-size="14.00" fill="#000000">RangeDirective</text>
</g>
<!-- RangeDirective&#45;&gt;RebirthValidatorsModule -->
<g id="edge31" class="edge">
<title>RangeDirective&#45;&gt;RebirthValidatorsModule</title>
<path fill="none" stroke="#000000" d="M734.6922,-187.0352C734.6922,-203.7344 734.6922,-226 734.6922,-226 734.6922,-226 1215.1006,-226 1215.1006,-226"/>
<polygon fill="#000000" stroke="#000000" points="1215.1007,-229.5001 1225.1006,-226 1215.1006,-222.5001 1215.1007,-229.5001"/>
</g>
<!-- RangeLengthDirective -->
<g id="node17" class="node">
<title>RangeLengthDirective</title>
<polygon fill="#ffffb3" stroke="#000000" points="627.5072,-187 484.4928,-187 484.4928,-151 627.5072,-151 627.5072,-187"/>
<text text-anchor="middle" x="556" y="-164.8" font-family="Times,serif" font-size="14.00" fill="#000000">RangeLengthDirective</text>
</g>
<!-- RangeLengthDirective&#45;&gt;RebirthValidatorsModule -->
<g id="edge33" class="edge">
<title>RangeLengthDirective&#45;&gt;RebirthValidatorsModule</title>
<path fill="none" stroke="#000000" d="M623.0395,-187.0225C623.0395,-204.3734 623.0395,-228 623.0395,-228 623.0395,-228 1215.1007,-228 1215.1007,-228"/>
<polygon fill="#000000" stroke="#000000" points="1215.1008,-231.5001 1225.1007,-228 1215.1007,-224.5001 1215.1008,-231.5001"/>
</g>
<!-- RequiredWithTrimDirective -->
<g id="node18" class="node">
<title>RequiredWithTrimDirective</title>
<polygon fill="#ffffb3" stroke="#000000" points="466.8904,-187 291.1096,-187 291.1096,-151 466.8904,-151 466.8904,-187"/>
<text text-anchor="middle" x="379" y="-164.8" font-family="Times,serif" font-size="14.00" fill="#000000">RequiredWithTrimDirective</text>
</g>
<!-- RequiredWithTrimDirective&#45;&gt;RebirthValidatorsModule -->
<g id="edge35" class="edge">
<title>RequiredWithTrimDirective&#45;&gt;RebirthValidatorsModule</title>
<path fill="none" stroke="#000000" d="M460.0959,-187.302C460.0959,-205.2699 460.0959,-230 460.0959,-230 460.0959,-230 1215.133,-230 1215.133,-230"/>
<polygon fill="#000000" stroke="#000000" points="1215.133,-233.5001 1225.133,-230 1215.133,-226.5001 1215.133,-233.5001"/>
</g>
<!-- UUIDDirective -->
<g id="node19" class="node">
<title>UUIDDirective</title>
<polygon fill="#ffffb3" stroke="#000000" points="273.5632,-187 170.4368,-187 170.4368,-151 273.5632,-151 273.5632,-187"/>
<text text-anchor="middle" x="222" y="-164.8" font-family="Times,serif" font-size="14.00" fill="#000000">UUIDDirective</text>
</g>
<!-- UUIDDirective&#45;&gt;RebirthValidatorsModule -->
<g id="edge37" class="edge">
<title>UUIDDirective&#45;&gt;RebirthValidatorsModule</title>
<path fill="none" stroke="#000000" d="M265.0433,-187.2222C265.0433,-205.8285 265.0433,-232 265.0433,-232 265.0433,-232 1215.1231,-232 1215.1231,-232"/>
<polygon fill="#000000" stroke="#000000" points="1215.1232,-235.5001 1225.1231,-232 1215.1231,-228.5001 1215.1232,-235.5001"/>
</g>
<!-- UrlDirective -->
<g id="node20" class="node">
<title>UrlDirective</title>
<polygon fill="#ffffb3" stroke="#000000" points="152.241,-187 65.759,-187 65.759,-151 152.241,-151 152.241,-187"/>
<text text-anchor="middle" x="109" y="-164.8" font-family="Times,serif" font-size="14.00" fill="#000000">UrlDirective</text>
</g>
<!-- UrlDirective&#45;&gt;RebirthValidatorsModule -->
<g id="edge39" class="edge">
<title>UrlDirective&#45;&gt;RebirthValidatorsModule</title>
<path fill="none" stroke="#000000" d="M142.0444,-187.1061C142.0444,-206.3391 142.0444,-234 142.0444,-234 142.0444,-234 1215.0653,-234 1215.0653,-234"/>
<polygon fill="#000000" stroke="#000000" points="1215.0654,-237.5001 1225.0653,-234 1215.0653,-230.5001 1215.0654,-237.5001"/>
</g>
<!-- AfterDateDirective  -->
<g id="node23" class="node">
<title>AfterDateDirective </title>
<polygon fill="#fb8072" stroke="#000000" points="2655.543,-317 2528.457,-317 2528.457,-281 2655.543,-281 2655.543,-317"/>
<text text-anchor="middle" x="2592" y="-294.8" font-family="Times,serif" font-size="14.00" fill="#000000">AfterDateDirective </text>
</g>
<!-- RebirthValidatorsModule&#45;&gt;AfterDateDirective  -->
<g id="edge41" class="edge">
<title>RebirthValidatorsModule&#45;&gt;AfterDateDirective </title>
<path fill="none" stroke="#000000" stroke-dasharray="5,2" d="M1385.2164,-235C1664.8348,-235 2579.625,-235 2579.625,-235 2579.625,-235 2579.625,-270.8314 2579.625,-270.8314"/>
<polygon fill="#000000" stroke="#000000" points="2576.1251,-270.8313 2579.625,-280.8314 2583.1251,-270.8314 2576.1251,-270.8313"/>
</g>
<!-- Base64Directive  -->
<g id="node24" class="node">
<title>Base64Directive </title>
<polygon fill="#fb8072" stroke="#000000" points="2510.2934,-317 2397.7066,-317 2397.7066,-281 2510.2934,-281 2510.2934,-317"/>
<text text-anchor="middle" x="2454" y="-294.8" font-family="Times,serif" font-size="14.00" fill="#000000">Base64Directive </text>
</g>
<!-- RebirthValidatorsModule&#45;&gt;Base64Directive  -->
<g id="edge42" class="edge">
<title>RebirthValidatorsModule&#45;&gt;Base64Directive </title>
<path fill="none" stroke="#000000" stroke-dasharray="5,2" d="M1385.0307,-237C1644.0922,-237 2443.125,-237 2443.125,-237 2443.125,-237 2443.125,-270.7333 2443.125,-270.7333"/>
<polygon fill="#000000" stroke="#000000" points="2439.6251,-270.7333 2443.125,-280.7333 2446.6251,-270.7333 2439.6251,-270.7333"/>
</g>
<!-- BeforeDateDirective  -->
<g id="node25" class="node">
<title>BeforeDateDirective </title>
<polygon fill="#fb8072" stroke="#000000" points="2380.0962,-317 2243.9038,-317 2243.9038,-281 2380.0962,-281 2380.0962,-317"/>
<text text-anchor="middle" x="2312" y="-294.8" font-family="Times,serif" font-size="14.00" fill="#000000">BeforeDateDirective </text>
</g>
<!-- RebirthValidatorsModule&#45;&gt;BeforeDateDirective  -->
<g id="edge43" class="edge">
<title>RebirthValidatorsModule&#45;&gt;BeforeDateDirective </title>
<path fill="none" stroke="#000000" stroke-dasharray="5,2" d="M1384.9535,-239C1621.6861,-239 2302.625,-239 2302.625,-239 2302.625,-239 2302.625,-270.998 2302.625,-270.998"/>
<polygon fill="#000000" stroke="#000000" points="2299.1251,-270.998 2302.625,-280.998 2306.1251,-270.9981 2299.1251,-270.998"/>
</g>
<!-- DateDirective  -->
<g id="node26" class="node">
<title>DateDirective </title>
<polygon fill="#fb8072" stroke="#000000" points="2226.0092,-317 2127.9908,-317 2127.9908,-281 2226.0092,-281 2226.0092,-317"/>
<text text-anchor="middle" x="2177" y="-294.8" font-family="Times,serif" font-size="14.00" fill="#000000">DateDirective </text>
</g>
<!-- RebirthValidatorsModule&#45;&gt;DateDirective  -->
<g id="edge44" class="edge">
<title>RebirthValidatorsModule&#45;&gt;DateDirective </title>
<path fill="none" stroke="#000000" stroke-dasharray="5,2" d="M1385.132,-241C1599.3529,-241 2169.125,-241 2169.125,-241 2169.125,-241 2169.125,-270.9664 2169.125,-270.9664"/>
<polygon fill="#000000" stroke="#000000" points="2165.6251,-270.9663 2169.125,-280.9664 2172.6251,-270.9664 2165.6251,-270.9663"/>
</g>
<!-- DateISODirective  -->
<g id="node27" class="node">
<title>DateISODirective </title>
<polygon fill="#fb8072" stroke="#000000" points="2110.0598,-317 1989.9402,-317 1989.9402,-281 2110.0598,-281 2110.0598,-317"/>
<text text-anchor="middle" x="2050" y="-294.8" font-family="Times,serif" font-size="14.00" fill="#000000">DateISODirective </text>
</g>
<!-- RebirthValidatorsModule&#45;&gt;DateISODirective  -->
<g id="edge45" class="edge">
<title>RebirthValidatorsModule&#45;&gt;DateISODirective </title>
<path fill="none" stroke="#000000" stroke-dasharray="5,2" d="M1385.0994,-243C1576.3137,-243 2043.625,-243 2043.625,-243 2043.625,-243 2043.625,-270.973 2043.625,-270.973"/>
<polygon fill="#000000" stroke="#000000" points="2040.1251,-270.973 2043.625,-280.973 2047.1251,-270.973 2040.1251,-270.973"/>
</g>
<!-- DigitsDirective  -->
<g id="node28" class="node">
<title>DigitsDirective </title>
<polygon fill="#fb8072" stroke="#000000" points="1971.806,-317 1866.194,-317 1866.194,-281 1971.806,-281 1971.806,-317"/>
<text text-anchor="middle" x="1919" y="-294.8" font-family="Times,serif" font-size="14.00" fill="#000000">DigitsDirective </text>
</g>
<!-- RebirthValidatorsModule&#45;&gt;DigitsDirective  -->
<g id="edge46" class="edge">
<title>RebirthValidatorsModule&#45;&gt;DigitsDirective </title>
<path fill="none" stroke="#000000" stroke-dasharray="5,2" d="M1384.9902,-245C1546.8854,-245 1898.1157,-245 1898.1157,-245 1898.1157,-245 1898.1157,-270.7181 1898.1157,-270.7181"/>
<polygon fill="#000000" stroke="#000000" points="1894.6158,-270.718 1898.1157,-280.7181 1901.6158,-270.7181 1894.6158,-270.718"/>
</g>
<!-- EmailDirective  -->
<g id="node29" class="node">
<title>EmailDirective </title>
<polygon fill="#fb8072" stroke="#000000" points="1848.5218,-317 1743.4782,-317 1743.4782,-281 1848.5218,-281 1848.5218,-317"/>
<text text-anchor="middle" x="1796" y="-294.8" font-family="Times,serif" font-size="14.00" fill="#000000">EmailDirective </text>
</g>
<!-- RebirthValidatorsModule&#45;&gt;EmailDirective  -->
<g id="edge47" class="edge">
<title>RebirthValidatorsModule&#45;&gt;EmailDirective </title>
<path fill="none" stroke="#000000" stroke-dasharray="5,2" d="M1384.9405,-247C1519.3892,-247 1776.2464,-247 1776.2464,-247 1776.2464,-247 1776.2464,-270.8129 1776.2464,-270.8129"/>
<polygon fill="#000000" stroke="#000000" points="1772.7465,-270.8129 1776.2464,-280.8129 1779.7465,-270.813 1772.7465,-270.8129"/>
</g>
<!-- EqualDirective  -->
<g id="node30" class="node">
<title>EqualDirective </title>
<polygon fill="#fb8072" stroke="#000000" points="1725.2409,-317 1620.7591,-317 1620.7591,-281 1725.2409,-281 1725.2409,-317"/>
<text text-anchor="middle" x="1673" y="-294.8" font-family="Times,serif" font-size="14.00" fill="#000000">EqualDirective </text>
</g>
<!-- RebirthValidatorsModule&#45;&gt;EqualDirective  -->
<g id="edge48" class="edge">
<title>RebirthValidatorsModule&#45;&gt;EqualDirective </title>
<path fill="none" stroke="#000000" stroke-dasharray="5,2" d="M1384.9063,-249C1488.2672,-249 1655.2099,-249 1655.2099,-249 1655.2099,-249 1655.2099,-270.9489 1655.2099,-270.9489"/>
<polygon fill="#000000" stroke="#000000" points="1651.71,-270.9488 1655.2099,-280.9489 1658.71,-270.9489 1651.71,-270.9488"/>
</g>
<!-- EqualToDirective  -->
<g id="node31" class="node">
<title>EqualToDirective </title>
<polygon fill="#fb8072" stroke="#000000" points="1602.7934,-317 1483.2066,-317 1483.2066,-281 1602.7934,-281 1602.7934,-317"/>
<text text-anchor="middle" x="1543" y="-294.8" font-family="Times,serif" font-size="14.00" fill="#000000">EqualToDirective </text>
</g>
<!-- RebirthValidatorsModule&#45;&gt;EqualToDirective  -->
<g id="edge49" class="edge">
<title>RebirthValidatorsModule&#45;&gt;EqualToDirective </title>
<path fill="none" stroke="#000000" stroke-dasharray="5,2" d="M1384.8883,-251C1461.052,-251 1564.2155,-251 1564.2155,-251 1564.2155,-251 1564.2155,-270.8533 1564.2155,-270.8533"/>
<polygon fill="#000000" stroke="#000000" points="1560.7156,-270.8532 1564.2155,-280.8533 1567.7156,-270.8533 1560.7156,-270.8532"/>
</g>
<!-- IncludesDirective  -->
<g id="node32" class="node">
<title>IncludesDirective </title>
<polygon fill="#fb8072" stroke="#000000" points="1465.5078,-317 1346.4922,-317 1346.4922,-281 1465.5078,-281 1465.5078,-317"/>
<text text-anchor="middle" x="1406" y="-294.8" font-family="Times,serif" font-size="14.00" fill="#000000">IncludesDirective </text>
</g>
<!-- RebirthValidatorsModule&#45;&gt;IncludesDirective  -->
<g id="edge50" class="edge">
<title>RebirthValidatorsModule&#45;&gt;IncludesDirective </title>
<path fill="none" stroke="#000000" stroke-dasharray="5,2" d="M1365.7119,-252.1061C1365.7119,-252.1061 1365.7119,-270.991 1365.7119,-270.991"/>
<polygon fill="#000000" stroke="#000000" points="1362.212,-270.9909 1365.7119,-280.991 1369.212,-270.991 1362.212,-270.9909"/>
</g>
<!-- JsonDirective  -->
<g id="node33" class="node">
<title>JsonDirective </title>
<polygon fill="#fb8072" stroke="#000000" points="1328.4732,-317 1231.5268,-317 1231.5268,-281 1328.4732,-281 1328.4732,-317"/>
<text text-anchor="middle" x="1280" y="-294.8" font-family="Times,serif" font-size="14.00" fill="#000000">JsonDirective </text>
</g>
<!-- RebirthValidatorsModule&#45;&gt;JsonDirective  -->
<g id="edge51" class="edge">
<title>RebirthValidatorsModule&#45;&gt;JsonDirective </title>
<path fill="none" stroke="#000000" stroke-dasharray="5,2" d="M1280,-252.1061C1280,-252.1061 1280,-270.991 1280,-270.991"/>
<polygon fill="#000000" stroke="#000000" points="1276.5001,-270.9909 1280,-280.991 1283.5001,-270.991 1276.5001,-270.9909"/>
</g>
<!-- MaxDirective  -->
<g id="node34" class="node">
<title>MaxDirective </title>
<polygon fill="#fb8072" stroke="#000000" points="1213.7423,-317 1116.2577,-317 1116.2577,-281 1213.7423,-281 1213.7423,-317"/>
<text text-anchor="middle" x="1165" y="-294.8" font-family="Times,serif" font-size="14.00" fill="#000000">MaxDirective </text>
</g>
<!-- RebirthValidatorsModule&#45;&gt;MaxDirective  -->
<g id="edge52" class="edge">
<title>RebirthValidatorsModule&#45;&gt;MaxDirective </title>
<path fill="none" stroke="#000000" stroke-dasharray="5,2" d="M1224.7919,-251C1196.8617,-251 1172.375,-251 1172.375,-251 1172.375,-251 1172.375,-270.8533 1172.375,-270.8533"/>
<polygon fill="#000000" stroke="#000000" points="1168.8751,-270.8532 1172.375,-280.8533 1175.8751,-270.8533 1168.8751,-270.8532"/>
</g>
<!-- MinDirective  -->
<g id="node35" class="node">
<title>MinDirective </title>
<polygon fill="#fb8072" stroke="#000000" points="1098.418,-317 1003.582,-317 1003.582,-281 1098.418,-281 1098.418,-317"/>
<text text-anchor="middle" x="1051" y="-294.8" font-family="Times,serif" font-size="14.00" fill="#000000">MinDirective </text>
</g>
<!-- RebirthValidatorsModule&#45;&gt;MinDirective  -->
<g id="edge53" class="edge">
<title>RebirthValidatorsModule&#45;&gt;MinDirective </title>
<path fill="none" stroke="#000000" stroke-dasharray="5,2" d="M1225.0761,-249C1153.5438,-249 1059.875,-249 1059.875,-249 1059.875,-249 1059.875,-270.9489 1059.875,-270.9489"/>
<polygon fill="#000000" stroke="#000000" points="1056.3751,-270.9488 1059.875,-280.9489 1063.3751,-270.9489 1056.3751,-270.9488"/>
</g>
<!-- NumberDirective  -->
<g id="node36" class="node">
<title>NumberDirective </title>
<polygon fill="#fb8072" stroke="#000000" points="985.9561,-317 868.0439,-317 868.0439,-281 985.9561,-281 985.9561,-317"/>
<text text-anchor="middle" x="927" y="-294.8" font-family="Times,serif" font-size="14.00" fill="#000000">NumberDirective </text>
</g>
<!-- RebirthValidatorsModule&#45;&gt;NumberDirective  -->
<g id="edge54" class="edge">
<title>RebirthValidatorsModule&#45;&gt;NumberDirective </title>
<path fill="none" stroke="#000000" stroke-dasharray="5,2" d="M1224.7774,-247C1116.6077,-247 937.375,-247 937.375,-247 937.375,-247 937.375,-270.8129 937.375,-270.8129"/>
<polygon fill="#000000" stroke="#000000" points="933.8751,-270.8129 937.375,-280.8129 940.8751,-270.813 933.8751,-270.8129"/>
</g>
<!-- PhoneDirective  -->
<g id="node37" class="node">
<title>PhoneDirective </title>
<polygon fill="#fb8072" stroke="#000000" points="850.0808,-317 743.9192,-317 743.9192,-281 850.0808,-281 850.0808,-317"/>
<text text-anchor="middle" x="797" y="-294.8" font-family="Times,serif" font-size="14.00" fill="#000000">PhoneDirective </text>
</g>
<!-- RebirthValidatorsModule&#45;&gt;PhoneDirective  -->
<g id="edge55" class="edge">
<title>RebirthValidatorsModule&#45;&gt;PhoneDirective </title>
<path fill="none" stroke="#000000" stroke-dasharray="5,2" d="M1225.0134,-245C1084.6845,-245 808.875,-245 808.875,-245 808.875,-245 808.875,-270.7181 808.875,-270.7181"/>
<polygon fill="#000000" stroke="#000000" points="805.3751,-270.718 808.875,-280.7181 812.3751,-270.7181 805.3751,-270.718"/>
</g>
<!-- RangeDirective  -->
<g id="node38" class="node">
<title>RangeDirective </title>
<polygon fill="#fb8072" stroke="#000000" points="725.8492,-317 618.1508,-317 618.1508,-281 725.8492,-281 725.8492,-317"/>
<text text-anchor="middle" x="672" y="-294.8" font-family="Times,serif" font-size="14.00" fill="#000000">RangeDirective </text>
</g>
<!-- RebirthValidatorsModule&#45;&gt;RangeDirective  -->
<g id="edge56" class="edge">
<title>RebirthValidatorsModule&#45;&gt;RangeDirective </title>
<path fill="none" stroke="#000000" stroke-dasharray="5,2" d="M1225.0116,-243C1057.6432,-243 685.875,-243 685.875,-243 685.875,-243 685.875,-270.973 685.875,-270.973"/>
<polygon fill="#000000" stroke="#000000" points="682.3751,-270.973 685.875,-280.973 689.3751,-270.973 682.3751,-270.973"/>
</g>
<!-- RangeLengthDirective  -->
<g id="node39" class="node">
<title>RangeLengthDirective </title>
<polygon fill="#fb8072" stroke="#000000" points="600.5064,-317 453.4936,-317 453.4936,-281 600.5064,-281 600.5064,-317"/>
<text text-anchor="middle" x="527" y="-294.8" font-family="Times,serif" font-size="14.00" fill="#000000">RangeLengthDirective </text>
</g>
<!-- RebirthValidatorsModule&#45;&gt;RangeLengthDirective  -->
<g id="edge57" class="edge">
<title>RebirthValidatorsModule&#45;&gt;RangeLengthDirective </title>
<path fill="none" stroke="#000000" stroke-dasharray="5,2" d="M1224.8272,-241C1029.0261,-241 542.375,-241 542.375,-241 542.375,-241 542.375,-270.9664 542.375,-270.9664"/>
<polygon fill="#000000" stroke="#000000" points="538.8751,-270.9663 542.375,-280.9664 545.8751,-270.9664 538.8751,-270.9663"/>
</g>
<!-- RequiredWithTrimDirective  -->
<g id="node40" class="node">
<title>RequiredWithTrimDirective </title>
<polygon fill="#fb8072" stroke="#000000" points="435.39,-317 256.61,-317 256.61,-281 435.39,-281 435.39,-317"/>
<text text-anchor="middle" x="346" y="-294.8" font-family="Times,serif" font-size="14.00" fill="#000000">RequiredWithTrimDirective </text>
</g>
<!-- RebirthValidatorsModule&#45;&gt;RequiredWithTrimDirective  -->
<g id="edge58" class="edge">
<title>RebirthValidatorsModule&#45;&gt;RequiredWithTrimDirective </title>
<path fill="none" stroke="#000000" stroke-dasharray="5,2" d="M1225.1238,-239C997.7609,-239 363.375,-239 363.375,-239 363.375,-239 363.375,-270.998 363.375,-270.998"/>
<polygon fill="#000000" stroke="#000000" points="359.8751,-270.998 363.375,-280.998 366.8751,-270.9981 359.8751,-270.998"/>
</g>
<!-- UUIDDirective  -->
<g id="node41" class="node">
<title>UUIDDirective </title>
<polygon fill="#fb8072" stroke="#000000" points="238.0641,-317 131.9359,-317 131.9359,-281 238.0641,-281 238.0641,-317"/>
<text text-anchor="middle" x="185" y="-294.8" font-family="Times,serif" font-size="14.00" fill="#000000">UUIDDirective </text>
</g>
<!-- RebirthValidatorsModule&#45;&gt;UUIDDirective  -->
<g id="edge59" class="edge">
<title>RebirthValidatorsModule&#45;&gt;UUIDDirective </title>
<path fill="none" stroke="#000000" stroke-dasharray="5,2" d="M1224.9592,-237C971.6865,-237 204.375,-237 204.375,-237 204.375,-237 204.375,-270.7333 204.375,-270.7333"/>
<polygon fill="#000000" stroke="#000000" points="200.8751,-270.7333 204.375,-280.7333 207.8751,-270.7333 200.8751,-270.7333"/>
</g>
<!-- UrlDirective  -->
<g id="node42" class="node">
<title>UrlDirective </title>
<polygon fill="#fb8072" stroke="#000000" points="114.2409,-317 23.7591,-317 23.7591,-281 114.2409,-281 114.2409,-317"/>
<text text-anchor="middle" x="69" y="-294.8" font-family="Times,serif" font-size="14.00" fill="#000000">UrlDirective </text>
</g>
<!-- RebirthValidatorsModule&#45;&gt;UrlDirective  -->
<g id="edge60" class="edge">
<title>RebirthValidatorsModule&#45;&gt;UrlDirective </title>
<path fill="none" stroke="#000000" stroke-dasharray="5,2" d="M1224.8023,-235C953.9386,-235 89.875,-235 89.875,-235 89.875,-235 89.875,-270.8314 89.875,-270.8314"/>
<polygon fill="#000000" stroke="#000000" points="86.3751,-270.8313 89.875,-280.8314 93.3751,-270.8314 86.3751,-270.8313"/>
</g>
<!-- { : , : , : true } -->
<g id="node22" class="node">
<title>{ : , : , : true }</title>
<ellipse fill="#fdb462" stroke="#000000" cx="1350" cy="-104" rx="65.1962" ry="18"/>
<text text-anchor="middle" x="1350" y="-99.8" font-family="Times,serif" font-size="14.00" fill="#000000">{ : , : , : true }</text>
</g>
<!-- { : , : , : true }&#45;&gt;AfterDateDirective -->
<g id="edge2" class="edge">
<title>{ : , : , : true }&#45;&gt;AfterDateDirective</title>
<path fill="none" stroke="#000000" d="M1391.2568,-90C1604.1928,-90 2569,-90 2569,-90 2569,-90 2569,-140.6772 2569,-140.6772"/>
<polygon fill="#000000" stroke="#000000" points="2565.5001,-140.6772 2569,-150.6772 2572.5001,-140.6773 2565.5001,-140.6772"/>
</g>
<!-- { : , : , : true }&#45;&gt;Base64Directive -->
<g id="edge4" class="edge">
<title>{ : , : , : true }&#45;&gt;Base64Directive</title>
<path fill="none" stroke="#000000" d="M1404.4986,-94C1624.3153,-94 2434,-94 2434,-94 2434,-94 2434,-140.8446 2434,-140.8446"/>
<polygon fill="#000000" stroke="#000000" points="2430.5001,-140.8446 2434,-150.8446 2437.5001,-140.8446 2430.5001,-140.8446"/>
</g>
<!-- { : , : , : true }&#45;&gt;BeforeDateDirective -->
<g id="edge6" class="edge">
<title>{ : , : , : true }&#45;&gt;BeforeDateDirective</title>
<path fill="none" stroke="#000000" d="M1410.1908,-97C1618.3423,-97 2295,-97 2295,-97 2295,-97 2295,-140.8314 2295,-140.8314"/>
<polygon fill="#000000" stroke="#000000" points="2291.5001,-140.8313 2295,-150.8314 2298.5001,-140.8314 2291.5001,-140.8313"/>
</g>
<!-- { : , : , : true }&#45;&gt;DateDirective -->
<g id="edge8" class="edge">
<title>{ : , : , : true }&#45;&gt;DateDirective</title>
<path fill="none" stroke="#000000" d="M1414.4743,-101C1606.7661,-101 2163,-101 2163,-101 2163,-101 2163,-140.7772 2163,-140.7772"/>
<polygon fill="#000000" stroke="#000000" points="2159.5001,-140.7772 2163,-150.7772 2166.5001,-140.7773 2159.5001,-140.7772"/>
</g>
<!-- { : , : , : true }&#45;&gt;DateISODirective -->
<g id="edge10" class="edge">
<title>{ : , : , : true }&#45;&gt;DateISODirective</title>
<path fill="none" stroke="#000000" d="M1415.1297,-104C1586.8817,-104 2039,-104 2039,-104 2039,-104 2039,-140.8939 2039,-140.8939"/>
<polygon fill="#000000" stroke="#000000" points="2035.5001,-140.8938 2039,-150.8939 2042.5001,-140.8939 2035.5001,-140.8938"/>
</g>
<!-- { : , : , : true }&#45;&gt;DigitsDirective -->
<g id="edge12" class="edge">
<title>{ : , : , : true }&#45;&gt;DigitsDirective</title>
<path fill="none" stroke="#000000" d="M1413.5353,-108C1560.4123,-108 1911,-108 1911,-108 1911,-108 1911,-140.698 1911,-140.698"/>
<polygon fill="#000000" stroke="#000000" points="1907.5001,-140.698 1911,-150.698 1914.5001,-140.698 1907.5001,-140.698"/>
</g>
<!-- { : , : , : true }&#45;&gt;EmailDirective -->
<g id="edge14" class="edge">
<title>{ : , : , : true }&#45;&gt;EmailDirective</title>
<path fill="none" stroke="#000000" d="M1408.5614,-112C1528.522,-112 1791,-112 1791,-112 1791,-112 1791,-140.9648 1791,-140.9648"/>
<polygon fill="#000000" stroke="#000000" points="1787.5001,-140.9648 1791,-150.9648 1794.5001,-140.9649 1787.5001,-140.9648"/>
</g>
<!-- { : , : , : true }&#45;&gt;EqualDirective -->
<g id="edge16" class="edge">
<title>{ : , : , : true }&#45;&gt;EqualDirective</title>
<path fill="none" stroke="#000000" d="M1401.7349,-115C1492.7568,-115 1672,-115 1672,-115 1672,-115 1672,-140.7181 1672,-140.7181"/>
<polygon fill="#000000" stroke="#000000" points="1668.5001,-140.718 1672,-150.7181 1675.5001,-140.7181 1668.5001,-140.718"/>
</g>
<!-- { : , : , : true }&#45;&gt;EqualToDirective -->
<g id="edge18" class="edge">
<title>{ : , : , : true }&#45;&gt;EqualToDirective</title>
<path fill="none" stroke="#000000" d="M1386.221,-119C1442.6135,-119 1545,-119 1545,-119 1545,-119 1545,-140.9489 1545,-140.9489"/>
<polygon fill="#000000" stroke="#000000" points="1541.5001,-140.9488 1545,-150.9489 1548.5001,-140.9489 1541.5001,-140.9488"/>
</g>
<!-- { : , : , : true }&#45;&gt;IncludesDirective -->
<g id="edge20" class="edge">
<title>{ : , : , : true }&#45;&gt;IncludesDirective</title>
<path fill="none" stroke="#000000" d="M1384.1721,-119.4041C1384.1721,-119.4041 1384.1721,-140.9397 1384.1721,-140.9397"/>
<polygon fill="#000000" stroke="#000000" points="1380.6722,-140.9397 1384.1721,-150.9397 1387.6722,-140.9398 1380.6722,-140.9397"/>
</g>
<!-- { : , : , : true }&#45;&gt;JsonDirective -->
<g id="edge22" class="edge">
<title>{ : , : , : true }&#45;&gt;JsonDirective</title>
<path fill="none" stroke="#000000" d="M1310.194,-118.4256C1310.194,-118.4256 1310.194,-140.8939 1310.194,-140.8939"/>
<polygon fill="#000000" stroke="#000000" points="1306.6941,-140.8938 1310.194,-150.8939 1313.6941,-140.8939 1306.6941,-140.8938"/>
</g>
<!-- { : , : , : true }&#45;&gt;MaxDirective -->
<g id="edge24" class="edge">
<title>{ : , : , : true }&#45;&gt;MaxDirective</title>
<path fill="none" stroke="#000000" d="M1313.9432,-119C1263.5072,-119 1178,-119 1178,-119 1178,-119 1178,-140.9489 1178,-140.9489"/>
<polygon fill="#000000" stroke="#000000" points="1174.5001,-140.9488 1178,-150.9489 1181.5001,-140.9489 1174.5001,-140.9488"/>
</g>
<!-- { : , : , : true }&#45;&gt;MinDirective -->
<g id="edge26" class="edge">
<title>{ : , : , : true }&#45;&gt;MinDirective</title>
<path fill="none" stroke="#000000" d="M1298.4225,-115C1216.7956,-115 1067,-115 1067,-115 1067,-115 1067,-140.7181 1067,-140.7181"/>
<polygon fill="#000000" stroke="#000000" points="1063.5001,-140.718 1067,-150.7181 1070.5001,-140.7181 1063.5001,-140.718"/>
</g>
<!-- { : , : , : true }&#45;&gt;NumberDirective -->
<g id="edge28" class="edge">
<title>{ : , : , : true }&#45;&gt;NumberDirective</title>
<path fill="none" stroke="#000000" d="M1291.2549,-112C1179.2065,-112 946,-112 946,-112 946,-112 946,-140.9648 946,-140.9648"/>
<polygon fill="#000000" stroke="#000000" points="942.5001,-140.9648 946,-150.9648 949.5001,-140.9649 942.5001,-140.9648"/>
</g>
<!-- { : , : , : true }&#45;&gt;PhoneDirective -->
<g id="edge30" class="edge">
<title>{ : , : , : true }&#45;&gt;PhoneDirective</title>
<path fill="none" stroke="#000000" d="M1286.4764,-108C1145.532,-108 819,-108 819,-108 819,-108 819,-140.698 819,-140.698"/>
<polygon fill="#000000" stroke="#000000" points="815.5001,-140.698 819,-150.698 822.5001,-140.698 815.5001,-140.698"/>
</g>
<!-- { : , : , : true }&#45;&gt;RangeDirective -->
<g id="edge32" class="edge">
<title>{ : , : , : true }&#45;&gt;RangeDirective</title>
<path fill="none" stroke="#000000" d="M1284.7996,-104C1119.6721,-104 698,-104 698,-104 698,-104 698,-140.8939 698,-140.8939"/>
<polygon fill="#000000" stroke="#000000" points="694.5001,-140.8938 698,-150.8939 701.5001,-140.8939 694.5001,-140.8938"/>
</g>
<!-- { : , : , : true }&#45;&gt;RangeLengthDirective -->
<g id="edge34" class="edge">
<title>{ : , : , : true }&#45;&gt;RangeLengthDirective</title>
<path fill="none" stroke="#000000" d="M1285.6962,-101C1096.6722,-101 556,-101 556,-101 556,-101 556,-140.7772 556,-140.7772"/>
<polygon fill="#000000" stroke="#000000" points="552.5001,-140.7772 556,-150.7772 559.5001,-140.7773 552.5001,-140.7772"/>
</g>
<!-- { : , : , : true }&#45;&gt;RequiredWithTrimDirective -->
<g id="edge36" class="edge">
<title>{ : , : , : true }&#45;&gt;RequiredWithTrimDirective</title>
<path fill="none" stroke="#000000" d="M1289.9924,-97C1078.2925,-97 379,-97 379,-97 379,-97 379,-140.8314 379,-140.8314"/>
<polygon fill="#000000" stroke="#000000" points="375.5001,-140.8313 379,-150.8314 382.5001,-140.8314 375.5001,-140.8313"/>
</g>
<!-- { : , : , : true }&#45;&gt;UUIDDirective -->
<g id="edge38" class="edge">
<title>{ : , : , : true }&#45;&gt;UUIDDirective</title>
<path fill="none" stroke="#000000" d="M1295.5942,-94C1070.272,-94 222,-94 222,-94 222,-94 222,-140.8446 222,-140.8446"/>
<polygon fill="#000000" stroke="#000000" points="218.5001,-140.8446 222,-150.8446 225.5001,-140.8446 218.5001,-140.8446"/>
</g>
<!-- { : , : , : true }&#45;&gt;UrlDirective -->
<g id="edge40" class="edge">
<title>{ : , : , : true }&#45;&gt;UrlDirective</title>
<path fill="none" stroke="#000000" d="M1309.0632,-90C1094.4569,-90 109,-90 109,-90 109,-90 109,-140.6772 109,-140.6772"/>
<polygon fill="#000000" stroke="#000000" points="105.5001,-140.6772 109,-150.6772 112.5001,-140.6773 105.5001,-140.6772"/>
</g>
</g>
</svg>
