<?xml version="1.0" encoding="UTF-8" standalone="no"?>
<!DOCTYPE svg PUBLIC "-//W3C//DTD SVG 1.1//EN"
 "http://www.w3.org/Graphics/SVG/1.1/DTD/svg11.dtd">
<!-- Generated by graphviz version 2.40.1 (20161225.0304)
 -->
<!-- Title: dependencies Pages: 1 -->
<svg width="504pt" height="396pt"
 viewBox="0.00 0.00 504.00 395.59" xmlns="http://www.w3.org/2000/svg" xmlns:xlink="http://www.w3.org/1999/xlink">
<g id="graph0" class="graph" transform="scale(1 1) rotate(0) translate(4 391.5901)">
<title>dependencies</title>
<polygon fill="#ffffff" stroke="transparent" points="-4,4 -4,-391.5901 500,-391.5901 500,4 -4,4"/>
<text text-anchor="start" x="227.0091" y="-42.4" font-family="sans-serif" font-weight="bold" font-size="14.00" fill="#000000">Legend</text>
<polygon fill="#ffffb3" stroke="transparent" points="14,-10 14,-30 34,-30 34,-10 14,-10"/>
<text text-anchor="start" x="37.629" y="-15.4" font-family="sans-serif" font-size="14.00" fill="#000000"> &#160;Declarations</text>
<polygon fill="#8dd3c7" stroke="transparent" points="127,-10 127,-30 147,-30 147,-10 127,-10"/>
<text text-anchor="start" x="150.7251" y="-15.4" font-family="sans-serif" font-size="14.00" fill="#000000"> &#160;Module</text>
<polygon fill="#80b1d3" stroke="transparent" points="213,-10 213,-30 233,-30 233,-10 213,-10"/>
<text text-anchor="start" x="236.7812" y="-15.4" font-family="sans-serif" font-size="14.00" fill="#000000"> &#160;Bootstrap</text>
<polygon fill="#fdb462" stroke="transparent" points="310,-10 310,-30 330,-30 330,-10 310,-10"/>
<text text-anchor="start" x="333.6732" y="-15.4" font-family="sans-serif" font-size="14.00" fill="#000000"> &#160;Providers</text>
<polygon fill="#fb8072" stroke="transparent" points="406,-10 406,-30 426,-30 426,-10 406,-10"/>
<text text-anchor="start" x="429.7258" y="-15.4" font-family="sans-serif" font-size="14.00" fill="#000000"> &#160;Exports</text>
<g id="clust1" class="cluster">
<title>cluster_TagsModule</title>
<polygon fill="none" stroke="#000000" stroke-dasharray="1,5" points="89,-70 89,-379.5901 407,-379.5901 407,-70 89,-70"/>
</g>
<g id="clust2" class="cluster">
<title>cluster_TagsModule_declarations</title>
<polygon fill="none" stroke="#000000" points="275,-189.5901 275,-241.5901 399,-241.5901 399,-189.5901 275,-189.5901"/>
</g>
<g id="clust3" class="cluster">
<title>cluster_TagsModule_TagsComponent_providers</title>
<polygon fill="none" stroke="#000000" points="201,-78 201,-176.5901 399,-176.5901 399,-78 201,-78"/>
</g>
<g id="clust4" class="cluster">
<title>cluster_TagsModule_imports</title>
<polygon fill="none" stroke="#000000" points="97,-189.5901 97,-241.5901 267,-241.5901 267,-189.5901 97,-189.5901"/>
</g>
<g id="clust5" class="cluster">
<title>cluster_TagsModule_exports</title>
<polygon fill="none" stroke="#000000" points="194,-319.5901 194,-371.5901 322,-371.5901 322,-319.5901 194,-319.5901"/>
</g>
<!-- TagsComponent -->
<g id="node1" class="node">
<title>TagsComponent</title>
<polygon fill="#ffffb3" stroke="#000000" points="391.0452,-233.5901 282.9548,-233.5901 282.9548,-197.5901 391.0452,-197.5901 391.0452,-233.5901"/>
<text text-anchor="middle" x="337" y="-211.3901" font-family="Times,serif" font-size="14.00" fill="#000000">TagsComponent</text>
</g>
<!-- TagsModule -->
<g id="node2" class="node">
<title>TagsModule</title>
<polygon fill="#8dd3c7" stroke="#000000" points="301.2619,-298.5901 298.2619,-302.5901 277.2619,-302.5901 274.2619,-298.5901 214.7381,-298.5901 214.7381,-262.5901 301.2619,-262.5901 301.2619,-298.5901"/>
<text text-anchor="middle" x="258" y="-276.3901" font-family="Times,serif" font-size="14.00" fill="#000000">TagsModule</text>
</g>
<!-- TagsComponent&#45;&gt;TagsModule -->
<g id="edge1" class="edge">
<title>TagsComponent&#45;&gt;TagsModule</title>
<path fill="none" stroke="#000000" d="M292.0544,-233.6962C292.0544,-233.6962 292.0544,-252.581 292.0544,-252.581"/>
<polygon fill="#000000" stroke="#000000" points="288.5544,-252.581 292.0544,-262.581 295.5544,-252.5811 288.5544,-252.581"/>
</g>
<!-- TagsComponent  -->
<g id="node5" class="node">
<title>TagsComponent </title>
<polygon fill="#fb8072" stroke="#000000" points="314.0442,-363.5901 201.9558,-363.5901 201.9558,-327.5901 314.0442,-327.5901 314.0442,-363.5901"/>
<text text-anchor="middle" x="258" y="-341.3901" font-family="Times,serif" font-size="14.00" fill="#000000">TagsComponent </text>
</g>
<!-- TagsModule&#45;&gt;TagsComponent  -->
<g id="edge4" class="edge">
<title>TagsModule&#45;&gt;TagsComponent </title>
<path fill="none" stroke="#000000" stroke-dasharray="5,2" d="M258,-298.6962C258,-298.6962 258,-317.581 258,-317.581"/>
<polygon fill="#000000" stroke="#000000" points="254.5001,-317.581 258,-327.581 261.5001,-317.5811 254.5001,-317.581"/>
</g>
<!-- {
 &#160;&#160;&#160;: , : (() =&gt; ), : true
} -->
<g id="node3" class="node">
<title>{
 &#160;&#160;&#160;: , : (() =&gt; ), : true
}</title>
<ellipse fill="#fdb462" stroke="#000000" cx="300" cy="-127.295" rx="91.4557" ry="41.0911"/>
<text text-anchor="middle" x="300" y="-139.895" font-family="Times,serif" font-size="14.00" fill="#000000">{</text>
<text text-anchor="middle" x="300" y="-123.095" font-family="Times,serif" font-size="14.00" fill="#000000"> &#160;&#160;&#160;: , : (() =&gt; ), : true</text>
<text text-anchor="middle" x="300" y="-106.295" font-family="Times,serif" font-size="14.00" fill="#000000">}</text>
</g>
<!-- {
 &#160;&#160;&#160;: , : (() =&gt; ), : true
}&#45;&gt;TagsComponent -->
<g id="edge2" class="edge">
<title>{
 &#160;&#160;&#160;: , : (() =&gt; ), : true
}&#45;&gt;TagsComponent</title>
<path fill="none" stroke="#000000" d="M337,-165.2525C337,-165.2525 337,-187.5625 337,-187.5625"/>
<polygon fill="#000000" stroke="#000000" points="333.5001,-187.5625 337,-197.5625 340.5001,-187.5626 333.5001,-187.5625"/>
</g>
<!-- RebirthCommonModule -->
<g id="node4" class="node">
<title>RebirthCommonModule</title>
<polygon fill="#8dd3c7" stroke="#000000" points="258.661,-233.5901 255.661,-237.5901 234.661,-237.5901 231.661,-233.5901 105.339,-233.5901 105.339,-197.5901 258.661,-197.5901 258.661,-233.5901"/>
<text text-anchor="middle" x="182" y="-211.3901" font-family="Times,serif" font-size="14.00" fill="#000000">RebirthCommonModule</text>
</g>
<!-- RebirthCommonModule&#45;&gt;TagsModule -->
<g id="edge3" class="edge">
<title>RebirthCommonModule&#45;&gt;TagsModule</title>
<path fill="none" stroke="#000000" d="M236.7248,-233.6962C236.7248,-233.6962 236.7248,-252.581 236.7248,-252.581"/>
<polygon fill="#000000" stroke="#000000" points="233.2248,-252.581 236.7248,-262.581 240.2248,-252.5811 233.2248,-252.581"/>
</g>
</g>
</svg>
