<?xml version="1.0" encoding="UTF-8" standalone="no"?>
<!DOCTYPE svg PUBLIC "-//W3C//DTD SVG 1.1//EN"
 "http://www.w3.org/Graphics/SVG/1.1/DTD/svg11.dtd">
<!-- Generated by graphviz version 2.38.0 (20140413.2041)
 -->
<!-- Title: dependencies Pages: 1 -->
<svg width="504pt" height="284pt"
 viewBox="0.00 0.00 504.00 284.00" xmlns="http://www.w3.org/2000/svg" xmlns:xlink="http://www.w3.org/1999/xlink">
<g id="graph0" class="graph" transform="scale(1 1) rotate(0) translate(4 280)">
<title>dependencies</title>
<polygon fill="white" stroke="none" points="-4,4 -4,-280 500,-280 500,4 -4,4"/>
<text text-anchor="start" x="227.009" y="-42.4" font-family="sans-serif" font-weight="bold" font-size="14.00">Legend</text>
<polygon fill="#ffffb3" stroke="none" points="14,-10 14,-30 34,-30 34,-10 14,-10"/>
<text text-anchor="start" x="37.629" y="-15.4" font-family="sans-serif" font-size="14.00"> &#160;Declarations</text>
<polygon fill="#8dd3c7" stroke="none" points="127,-10 127,-30 147,-30 147,-10 127,-10"/>
<text text-anchor="start" x="150.725" y="-15.4" font-family="sans-serif" font-size="14.00"> &#160;Module</text>
<polygon fill="#80b1d3" stroke="none" points="213,-10 213,-30 233,-30 233,-10 213,-10"/>
<text text-anchor="start" x="236.781" y="-15.4" font-family="sans-serif" font-size="14.00"> &#160;Bootstrap</text>
<polygon fill="#fdb462" stroke="none" points="310,-10 310,-30 330,-30 330,-10 310,-10"/>
<text text-anchor="start" x="333.673" y="-15.4" font-family="sans-serif" font-size="14.00"> &#160;Providers</text>
<polygon fill="#fb8072" stroke="none" points="406,-10 406,-30 426,-30 426,-10 406,-10"/>
<text text-anchor="start" x="429.726" y="-15.4" font-family="sans-serif" font-size="14.00"> &#160;Exports</text>
<g id="clust1" class="cluster"><title>cluster_FlowStepModule</title>
<polygon fill="none" stroke="black" stroke-dasharray="1,5" points="96,-70 96,-268 400,-268 400,-70 96,-70"/>
</g>
<g id="clust2" class="cluster"><title>cluster_FlowStepModule_declarations</title>
<polygon fill="none" stroke="black" points="240,-78 240,-130 392,-130 392,-78 240,-78"/>
</g>
<g id="clust4" class="cluster"><title>cluster_FlowStepModule_imports</title>
<polygon fill="none" stroke="black" points="104,-78 104,-130 232,-130 232,-78 104,-78"/>
</g>
<g id="clust5" class="cluster"><title>cluster_FlowStepModule_exports</title>
<polygon fill="none" stroke="black" points="171,-208 171,-260 325,-260 325,-208 171,-208"/>
</g>
<!-- FlowStepComponent -->
<g id="node1" class="node"><title>FlowStepComponent</title>
<polygon fill="#ffffb3" stroke="black" points="383.5,-122 248.5,-122 248.5,-86 383.5,-86 383.5,-122"/>
<text text-anchor="middle" x="316" y="-99.8" font-family="Times,serif" font-size="14.00">FlowStepComponent</text>
</g>
<!-- FlowStepModule -->
<g id="node2" class="node"><title>FlowStepModule</title>
<polygon fill="#8dd3c7" stroke="black" points="304.718,-187 301.718,-191 280.718,-191 277.718,-187 191.282,-187 191.282,-151 304.718,-151 304.718,-187"/>
<text text-anchor="middle" x="248" y="-164.8" font-family="Times,serif" font-size="14.00">FlowStepModule</text>
</g>
<!-- FlowStepComponent&#45;&gt;FlowStepModule -->
<g id="edge1" class="edge"><title>FlowStepComponent&#45;&gt;FlowStepModule</title>
<path fill="none" stroke="black" d="M276.554,-122.106C276.554,-122.106 276.554,-140.991 276.554,-140.991"/>
<polygon fill="black" stroke="black" points="273.054,-140.991 276.554,-150.991 280.054,-140.991 273.054,-140.991"/>
</g>
<!-- FlowStepComponent  -->
<g id="node4" class="node"><title>FlowStepComponent </title>
<polygon fill="#fb8072" stroke="black" points="317.001,-252 178.999,-252 178.999,-216 317.001,-216 317.001,-252"/>
<text text-anchor="middle" x="248" y="-229.8" font-family="Times,serif" font-size="14.00">FlowStepComponent </text>
</g>
<!-- FlowStepModule&#45;&gt;FlowStepComponent  -->
<g id="edge3" class="edge"><title>FlowStepModule&#45;&gt;FlowStepComponent </title>
<path fill="none" stroke="black" stroke-dasharray="5,2" d="M248,-187.106C248,-187.106 248,-205.991 248,-205.991"/>
<polygon fill="black" stroke="black" points="244.5,-205.991 248,-215.991 251.5,-205.991 244.5,-205.991"/>
</g>
<!-- CommonModule -->
<g id="node3" class="node"><title>CommonModule</title>
<polygon fill="#8dd3c7" stroke="black" points="223.668,-122 220.668,-126 199.668,-126 196.668,-122 112.332,-122 112.332,-86 223.668,-86 223.668,-122"/>
<text text-anchor="middle" x="168" y="-99.8" font-family="Times,serif" font-size="14.00">CommonModule</text>
</g>
<!-- CommonModule&#45;&gt;FlowStepModule -->
<g id="edge2" class="edge"><title>CommonModule&#45;&gt;FlowStepModule</title>
<path fill="none" stroke="black" d="M207.613,-122.106C207.613,-122.106 207.613,-140.991 207.613,-140.991"/>
<polygon fill="black" stroke="black" points="204.113,-140.991 207.613,-150.991 211.113,-140.991 204.113,-140.991"/>
</g>
</g>
</svg>
