<?xml version="1.0" encoding="UTF-8" standalone="no"?>
<!DOCTYPE svg PUBLIC "-//W3C//DTD SVG 1.1//EN"
 "http://www.w3.org/Graphics/SVG/1.1/DTD/svg11.dtd">
<!-- Generated by graphviz version 2.40.1 (20161225.0304)
 -->
<!-- Title: dependencies Pages: 1 -->
<svg width="504pt" height="284pt"
 viewBox="0.00 0.00 504.00 284.00" xmlns="http://www.w3.org/2000/svg" xmlns:xlink="http://www.w3.org/1999/xlink">
<g id="graph0" class="graph" transform="scale(1 1) rotate(0) translate(4 280)">
<title>dependencies</title>
<polygon fill="#ffffff" stroke="transparent" points="-4,4 -4,-280 500,-280 500,4 -4,4"/>
<text text-anchor="start" x="227.0091" y="-42.4" font-family="sans-serif" font-weight="bold" font-size="14.00" fill="#000000">Legend</text>
<polygon fill="#ffffb3" stroke="transparent" points="14,-10 14,-30 34,-30 34,-10 14,-10"/>
<text text-anchor="start" x="37.629" y="-15.4" font-family="sans-serif" font-size="14.00" fill="#000000"> &#160;Declarations</text>
<polygon fill="#8dd3c7" stroke="transparent" points="127,-10 127,-30 147,-30 147,-10 127,-10"/>
<text text-anchor="start" x="150.7251" y="-15.4" font-family="sans-serif" font-size="14.00" fill="#000000"> &#160;Module</text>
<polygon fill="#80b1d3" stroke="transparent" points="213,-10 213,-30 233,-30 233,-10 213,-10"/>
<text text-anchor="start" x="236.7812" y="-15.4" font-family="sans-serif" font-size="14.00" fill="#000000"> &#160;Bootstrap</text>
<polygon fill="#fdb462" stroke="transparent" points="310,-10 310,-30 330,-30 330,-10 310,-10"/>
<text text-anchor="start" x="333.6732" y="-15.4" font-family="sans-serif" font-size="14.00" fill="#000000"> &#160;Providers</text>
<polygon fill="#fb8072" stroke="transparent" points="406,-10 406,-30 426,-30 426,-10 406,-10"/>
<text text-anchor="start" x="429.7258" y="-15.4" font-family="sans-serif" font-size="14.00" fill="#000000"> &#160;Exports</text>
<g id="clust1" class="cluster">
<title>cluster_BreadcrumbsModule</title>
<polygon fill="none" stroke="#000000" stroke-dasharray="1,5" points="118,-70 118,-268 378,-268 378,-70 118,-70"/>
</g>
<g id="clust3" class="cluster">
<title>cluster_BreadcrumbsModule_imports</title>
<polygon fill="none" stroke="#000000" points="126,-78 126,-130 370,-130 370,-78 126,-78"/>
</g>
<g id="clust4" class="cluster">
<title>cluster_BreadcrumbsModule_exports</title>
<polygon fill="none" stroke="#000000" points="160,-208 160,-260 336,-260 336,-208 160,-208"/>
</g>
<!-- CommonModule -->
<g id="node1" class="node">
<title>CommonModule</title>
<polygon fill="#8dd3c7" stroke="#000000" points="361.6681,-122 358.6681,-126 337.6681,-126 334.6681,-122 250.3319,-122 250.3319,-86 361.6681,-86 361.6681,-122"/>
<text text-anchor="middle" x="306" y="-99.8" font-family="Times,serif" font-size="14.00" fill="#000000">CommonModule</text>
</g>
<!-- BreadcrumbsModule -->
<g id="node3" class="node">
<title>BreadcrumbsModule</title>
<polygon fill="#8dd3c7" stroke="#000000" points="315.1867,-187 312.1867,-191 291.1867,-191 288.1867,-187 180.8133,-187 180.8133,-151 315.1867,-151 315.1867,-187"/>
<text text-anchor="middle" x="248" y="-164.8" font-family="Times,serif" font-size="14.00" fill="#000000">BreadcrumbsModule</text>
</g>
<!-- CommonModule&#45;&gt;BreadcrumbsModule -->
<g id="edge1" class="edge">
<title>CommonModule&#45;&gt;BreadcrumbsModule</title>
<path fill="none" stroke="#000000" d="M282.6298,-122.1061C282.6298,-122.1061 282.6298,-140.991 282.6298,-140.991"/>
<polygon fill="#000000" stroke="#000000" points="279.1298,-140.9909 282.6298,-150.991 286.1298,-140.991 279.1298,-140.9909"/>
</g>
<!-- RouterModule -->
<g id="node2" class="node">
<title>RouterModule</title>
<polygon fill="#8dd3c7" stroke="#000000" points="231.6528,-122 228.6528,-126 207.6528,-126 204.6528,-122 134.3472,-122 134.3472,-86 231.6528,-86 231.6528,-122"/>
<text text-anchor="middle" x="183" y="-99.8" font-family="Times,serif" font-size="14.00" fill="#000000">RouterModule</text>
</g>
<!-- RouterModule&#45;&gt;BreadcrumbsModule -->
<g id="edge2" class="edge">
<title>RouterModule&#45;&gt;BreadcrumbsModule</title>
<path fill="none" stroke="#000000" d="M206.3664,-122.1061C206.3664,-122.1061 206.3664,-140.991 206.3664,-140.991"/>
<polygon fill="#000000" stroke="#000000" points="202.8665,-140.9909 206.3664,-150.991 209.8665,-140.991 202.8665,-140.9909"/>
</g>
<!-- BreadcrumbsComponent  -->
<g id="node4" class="node">
<title>BreadcrumbsComponent </title>
<polygon fill="#fb8072" stroke="#000000" points="327.9699,-252 168.0301,-252 168.0301,-216 327.9699,-216 327.9699,-252"/>
<text text-anchor="middle" x="248" y="-229.8" font-family="Times,serif" font-size="14.00" fill="#000000">BreadcrumbsComponent </text>
</g>
<!-- BreadcrumbsModule&#45;&gt;BreadcrumbsComponent  -->
<g id="edge3" class="edge">
<title>BreadcrumbsModule&#45;&gt;BreadcrumbsComponent </title>
<path fill="none" stroke="#000000" stroke-dasharray="5,2" d="M248,-187.1061C248,-187.1061 248,-205.991 248,-205.991"/>
<polygon fill="#000000" stroke="#000000" points="244.5001,-205.9909 248,-215.991 251.5001,-205.991 244.5001,-205.9909"/>
</g>
</g>
</svg>
