<?xml version="1.0" encoding="UTF-8" standalone="no"?>
<!DOCTYPE svg PUBLIC "-//W3C//DTD SVG 1.1//EN"
 "http://www.w3.org/Graphics/SVG/1.1/DTD/svg11.dtd">
<!-- Generated by graphviz version 2.38.0 (20140413.2041)
 -->
<!-- Title: dependencies Pages: 1 -->
<svg width="504pt" height="284pt"
 viewBox="0.00 0.00 504.00 284.00" xmlns="http://www.w3.org/2000/svg" xmlns:xlink="http://www.w3.org/1999/xlink">
<g id="graph0" class="graph" transform="scale(1 1) rotate(0) translate(4 280)">
<title>dependencies</title>
<polygon fill="white" stroke="none" points="-4,4 -4,-280 500,-280 500,4 -4,4"/>
<text text-anchor="start" x="227.009" y="-42.4" font-family="sans-serif" font-weight="bold" font-size="14.00">Legend</text>
<polygon fill="#ffffb3" stroke="none" points="14,-10 14,-30 34,-30 34,-10 14,-10"/>
<text text-anchor="start" x="37.629" y="-15.4" font-family="sans-serif" font-size="14.00"> &#160;Declarations</text>
<polygon fill="#8dd3c7" stroke="none" points="127,-10 127,-30 147,-30 147,-10 127,-10"/>
<text text-anchor="start" x="150.725" y="-15.4" font-family="sans-serif" font-size="14.00"> &#160;Module</text>
<polygon fill="#80b1d3" stroke="none" points="213,-10 213,-30 233,-30 233,-10 213,-10"/>
<text text-anchor="start" x="236.781" y="-15.4" font-family="sans-serif" font-size="14.00"> &#160;Bootstrap</text>
<polygon fill="#fdb462" stroke="none" points="310,-10 310,-30 330,-30 330,-10 310,-10"/>
<text text-anchor="start" x="333.673" y="-15.4" font-family="sans-serif" font-size="14.00"> &#160;Providers</text>
<polygon fill="#fb8072" stroke="none" points="406,-10 406,-30 426,-30 426,-10 406,-10"/>
<text text-anchor="start" x="429.726" y="-15.4" font-family="sans-serif" font-size="14.00"> &#160;Exports</text>
<g id="clust1" class="cluster"><title>cluster_BreadcrumbsModule</title>
<polygon fill="none" stroke="black" stroke-dasharray="1,5" points="86,-70 86,-268 410,-268 410,-70 86,-70"/>
</g>
<g id="clust2" class="cluster"><title>cluster_BreadcrumbsModule_declarations</title>
<polygon fill="none" stroke="black" points="230,-78 230,-130 402,-130 402,-78 230,-78"/>
</g>
<g id="clust4" class="cluster"><title>cluster_BreadcrumbsModule_imports</title>
<polygon fill="none" stroke="black" points="94,-78 94,-130 222,-130 222,-78 94,-78"/>
</g>
<g id="clust5" class="cluster"><title>cluster_BreadcrumbsModule_exports</title>
<polygon fill="none" stroke="black" points="160,-208 160,-260 336,-260 336,-208 160,-208"/>
</g>
<!-- BreadcrumbsComponent -->
<g id="node1" class="node"><title>BreadcrumbsComponent</title>
<polygon fill="#ffffb3" stroke="black" points="393.969,-122 238.031,-122 238.031,-86 393.969,-86 393.969,-122"/>
<text text-anchor="middle" x="316" y="-99.8" font-family="Times,serif" font-size="14.00">BreadcrumbsComponent</text>
</g>
<!-- BreadcrumbsModule -->
<g id="node2" class="node"><title>BreadcrumbsModule</title>
<polygon fill="#8dd3c7" stroke="black" points="315.187,-187 312.187,-191 291.187,-191 288.187,-187 180.813,-187 180.813,-151 315.187,-151 315.187,-187"/>
<text text-anchor="middle" x="248" y="-164.8" font-family="Times,serif" font-size="14.00">BreadcrumbsModule</text>
</g>
<!-- BreadcrumbsComponent&#45;&gt;BreadcrumbsModule -->
<g id="edge1" class="edge"><title>BreadcrumbsComponent&#45;&gt;BreadcrumbsModule</title>
<path fill="none" stroke="black" d="M276.554,-122.106C276.554,-122.106 276.554,-140.991 276.554,-140.991"/>
<polygon fill="black" stroke="black" points="273.054,-140.991 276.554,-150.991 280.054,-140.991 273.054,-140.991"/>
</g>
<!-- BreadcrumbsComponent  -->
<g id="node4" class="node"><title>BreadcrumbsComponent </title>
<polygon fill="#fb8072" stroke="black" points="327.97,-252 168.03,-252 168.03,-216 327.97,-216 327.97,-252"/>
<text text-anchor="middle" x="248" y="-229.8" font-family="Times,serif" font-size="14.00">BreadcrumbsComponent </text>
</g>
<!-- BreadcrumbsModule&#45;&gt;BreadcrumbsComponent  -->
<g id="edge3" class="edge"><title>BreadcrumbsModule&#45;&gt;BreadcrumbsComponent </title>
<path fill="none" stroke="black" stroke-dasharray="5,2" d="M248,-187.106C248,-187.106 248,-205.991 248,-205.991"/>
<polygon fill="black" stroke="black" points="244.5,-205.991 248,-215.991 251.5,-205.991 244.5,-205.991"/>
</g>
<!-- CommonModule -->
<g id="node3" class="node"><title>CommonModule</title>
<polygon fill="#8dd3c7" stroke="black" points="213.668,-122 210.668,-126 189.668,-126 186.668,-122 102.332,-122 102.332,-86 213.668,-86 213.668,-122"/>
<text text-anchor="middle" x="158" y="-99.8" font-family="Times,serif" font-size="14.00">CommonModule</text>
</g>
<!-- CommonModule&#45;&gt;BreadcrumbsModule -->
<g id="edge2" class="edge"><title>CommonModule&#45;&gt;BreadcrumbsModule</title>
<path fill="none" stroke="black" d="M197.37,-122.106C197.37,-122.106 197.37,-140.991 197.37,-140.991"/>
<polygon fill="black" stroke="black" points="193.87,-140.991 197.37,-150.991 200.87,-140.991 193.87,-140.991"/>
</g>
</g>
</svg>
