<?xml version="1.0" encoding="UTF-8" standalone="no"?>
<!DOCTYPE svg PUBLIC "-//W3C//DTD SVG 1.1//EN"
 "http://www.w3.org/Graphics/SVG/1.1/DTD/svg11.dtd">
<!-- Generated by graphviz version 2.40.1 (20161225.0304)
 -->
<!-- Title: dependencies Pages: 1 -->
<svg width="621pt" height="284pt"
 viewBox="0.00 0.00 621.00 284.00" xmlns="http://www.w3.org/2000/svg" xmlns:xlink="http://www.w3.org/1999/xlink">
<g id="graph0" class="graph" transform="scale(1 1) rotate(0) translate(4 280)">
<title>dependencies</title>
<polygon fill="#ffffff" stroke="transparent" points="-4,4 -4,-280 617,-280 617,4 -4,4"/>
<text text-anchor="start" x="285.5091" y="-42.4" font-family="sans-serif" font-weight="bold" font-size="14.00" fill="#000000">Legend</text>
<polygon fill="#ffffb3" stroke="transparent" points="72.5,-10 72.5,-30 92.5,-30 92.5,-10 72.5,-10"/>
<text text-anchor="start" x="96.129" y="-15.4" font-family="sans-serif" font-size="14.00" fill="#000000"> &#160;Declarations</text>
<polygon fill="#8dd3c7" stroke="transparent" points="185.5,-10 185.5,-30 205.5,-30 205.5,-10 185.5,-10"/>
<text text-anchor="start" x="209.2251" y="-15.4" font-family="sans-serif" font-size="14.00" fill="#000000"> &#160;Module</text>
<polygon fill="#80b1d3" stroke="transparent" points="271.5,-10 271.5,-30 291.5,-30 291.5,-10 271.5,-10"/>
<text text-anchor="start" x="295.2812" y="-15.4" font-family="sans-serif" font-size="14.00" fill="#000000"> &#160;Bootstrap</text>
<polygon fill="#fdb462" stroke="transparent" points="368.5,-10 368.5,-30 388.5,-30 388.5,-10 368.5,-10"/>
<text text-anchor="start" x="392.1732" y="-15.4" font-family="sans-serif" font-size="14.00" fill="#000000"> &#160;Providers</text>
<polygon fill="#fb8072" stroke="transparent" points="464.5,-10 464.5,-30 484.5,-30 484.5,-10 464.5,-10"/>
<text text-anchor="start" x="488.2258" y="-15.4" font-family="sans-serif" font-size="14.00" fill="#000000"> &#160;Exports</text>
<g id="clust1" class="cluster">
<title>cluster_OverlayModule</title>
<polygon fill="none" stroke="#000000" stroke-dasharray="1,5" points="8,-70 8,-268 605,-268 605,-70 8,-70"/>
</g>
<g id="clust2" class="cluster">
<title>cluster_OverlayModule_declarations</title>
<polygon fill="none" stroke="#000000" points="266,-78 266,-130 597,-130 597,-78 266,-78"/>
</g>
<g id="clust5" class="cluster">
<title>cluster_OverlayModule_imports</title>
<polygon fill="none" stroke="#000000" points="16,-78 16,-130 258,-130 258,-78 16,-78"/>
</g>
<g id="clust6" class="cluster">
<title>cluster_OverlayModule_exports</title>
<polygon fill="none" stroke="#000000" points="203,-208 203,-260 349,-260 349,-208 203,-208"/>
</g>
<!-- OverlayComponent -->
<g id="node1" class="node">
<title>OverlayComponent</title>
<polygon fill="#ffffb3" stroke="#000000" points="589.4201,-122 462.5799,-122 462.5799,-86 589.4201,-86 589.4201,-122"/>
<text text-anchor="middle" x="526" y="-99.8" font-family="Times,serif" font-size="14.00" fill="#000000">OverlayComponent</text>
</g>
<!-- OverlayModule -->
<g id="node3" class="node">
<title>OverlayModule</title>
<polygon fill="#8dd3c7" stroke="#000000" points="328.1374,-187 325.1374,-191 304.1374,-191 301.1374,-187 223.8626,-187 223.8626,-151 328.1374,-151 328.1374,-187"/>
<text text-anchor="middle" x="276" y="-164.8" font-family="Times,serif" font-size="14.00" fill="#000000">OverlayModule</text>
</g>
<!-- OverlayComponent&#45;&gt;OverlayModule -->
<g id="edge1" class="edge">
<title>OverlayComponent&#45;&gt;OverlayModule</title>
<path fill="none" stroke="#000000" d="M526,-122.1061C526,-141.3391 526,-169 526,-169 526,-169 338.4082,-169 338.4082,-169"/>
<polygon fill="#000000" stroke="#000000" points="338.4082,-165.5001 328.4082,-169 338.4082,-172.5001 338.4082,-165.5001"/>
</g>
<!-- OverlayContentComponent -->
<g id="node2" class="node">
<title>OverlayContentComponent</title>
<polygon fill="#ffffb3" stroke="#000000" points="444.252,-122 273.748,-122 273.748,-86 444.252,-86 444.252,-122"/>
<text text-anchor="middle" x="359" y="-99.8" font-family="Times,serif" font-size="14.00" fill="#000000">OverlayContentComponent</text>
</g>
<!-- OverlayContentComponent&#45;&gt;OverlayModule -->
<g id="edge2" class="edge">
<title>OverlayContentComponent&#45;&gt;OverlayModule</title>
<path fill="none" stroke="#000000" d="M300.9713,-122.1061C300.9713,-122.1061 300.9713,-140.991 300.9713,-140.991"/>
<polygon fill="#000000" stroke="#000000" points="297.4713,-140.9909 300.9713,-150.991 304.4713,-140.991 297.4713,-140.9909"/>
</g>
<!-- OverlayComponent  -->
<g id="node6" class="node">
<title>OverlayComponent </title>
<polygon fill="#fb8072" stroke="#000000" points="340.9194,-252 211.0806,-252 211.0806,-216 340.9194,-216 340.9194,-252"/>
<text text-anchor="middle" x="276" y="-229.8" font-family="Times,serif" font-size="14.00" fill="#000000">OverlayComponent </text>
</g>
<!-- OverlayModule&#45;&gt;OverlayComponent  -->
<g id="edge5" class="edge">
<title>OverlayModule&#45;&gt;OverlayComponent </title>
<path fill="none" stroke="#000000" stroke-dasharray="5,2" d="M276,-187.1061C276,-187.1061 276,-205.991 276,-205.991"/>
<polygon fill="#000000" stroke="#000000" points="272.5001,-205.9909 276,-215.991 279.5001,-205.991 272.5001,-205.9909"/>
</g>
<!-- CommonModule -->
<g id="node4" class="node">
<title>CommonModule</title>
<polygon fill="#8dd3c7" stroke="#000000" points="249.6681,-122 246.6681,-126 225.6681,-126 222.6681,-122 138.3319,-122 138.3319,-86 249.6681,-86 249.6681,-122"/>
<text text-anchor="middle" x="194" y="-99.8" font-family="Times,serif" font-size="14.00" fill="#000000">CommonModule</text>
</g>
<!-- CommonModule&#45;&gt;OverlayModule -->
<g id="edge3" class="edge">
<title>CommonModule&#45;&gt;OverlayModule</title>
<path fill="none" stroke="#000000" d="M236.7577,-122.1061C236.7577,-122.1061 236.7577,-140.991 236.7577,-140.991"/>
<polygon fill="#000000" stroke="#000000" points="233.2578,-140.9909 236.7577,-150.991 240.2578,-140.991 233.2578,-140.9909"/>
</g>
<!-- ModalModule -->
<g id="node5" class="node">
<title>ModalModule</title>
<polygon fill="#8dd3c7" stroke="#000000" points="120.0997,-122 117.0997,-126 96.0997,-126 93.0997,-122 23.9003,-122 23.9003,-86 120.0997,-86 120.0997,-122"/>
<text text-anchor="middle" x="72" y="-99.8" font-family="Times,serif" font-size="14.00" fill="#000000">ModalModule</text>
</g>
<!-- ModalModule&#45;&gt;OverlayModule -->
<g id="edge4" class="edge">
<title>ModalModule&#45;&gt;OverlayModule</title>
<path fill="none" stroke="#000000" d="M72,-122.1061C72,-141.3391 72,-169 72,-169 72,-169 213.7298,-169 213.7298,-169"/>
<polygon fill="#000000" stroke="#000000" points="213.7299,-172.5001 223.7298,-169 213.7298,-165.5001 213.7299,-172.5001"/>
</g>
</g>
</svg>
