<?xml version="1.0" encoding="UTF-8" standalone="no"?>
<!DOCTYPE svg PUBLIC "-//W3C//DTD SVG 1.1//EN"
 "http://www.w3.org/Graphics/SVG/1.1/DTD/svg11.dtd">
<!-- Generated by graphviz version 2.40.1 (20161225.0304)
 -->
<!-- Title: dependencies Pages: 1 -->
<svg width="504pt" height="284pt"
 viewBox="0.00 0.00 504.00 284.00" xmlns="http://www.w3.org/2000/svg" xmlns:xlink="http://www.w3.org/1999/xlink">
<g id="graph0" class="graph" transform="scale(1 1) rotate(0) translate(4 280)">
<title>dependencies</title>
<polygon fill="#ffffff" stroke="transparent" points="-4,4 -4,-280 500,-280 500,4 -4,4"/>
<text text-anchor="start" x="227.0091" y="-42.4" font-family="sans-serif" font-weight="bold" font-size="14.00" fill="#000000">Legend</text>
<polygon fill="#ffffb3" stroke="transparent" points="14,-10 14,-30 34,-30 34,-10 14,-10"/>
<text text-anchor="start" x="37.629" y="-15.4" font-family="sans-serif" font-size="14.00" fill="#000000"> &#160;Declarations</text>
<polygon fill="#8dd3c7" stroke="transparent" points="127,-10 127,-30 147,-30 147,-10 127,-10"/>
<text text-anchor="start" x="150.7251" y="-15.4" font-family="sans-serif" font-size="14.00" fill="#000000"> &#160;Module</text>
<polygon fill="#80b1d3" stroke="transparent" points="213,-10 213,-30 233,-30 233,-10 213,-10"/>
<text text-anchor="start" x="236.7812" y="-15.4" font-family="sans-serif" font-size="14.00" fill="#000000"> &#160;Bootstrap</text>
<polygon fill="#fdb462" stroke="transparent" points="310,-10 310,-30 330,-30 330,-10 310,-10"/>
<text text-anchor="start" x="333.6732" y="-15.4" font-family="sans-serif" font-size="14.00" fill="#000000"> &#160;Providers</text>
<polygon fill="#fb8072" stroke="transparent" points="406,-10 406,-30 426,-30 426,-10 406,-10"/>
<text text-anchor="start" x="429.7258" y="-15.4" font-family="sans-serif" font-size="14.00" fill="#000000"> &#160;Exports</text>
<g id="clust1" class="cluster">
<title>cluster_OverlayModule</title>
<polygon fill="none" stroke="#000000" stroke-dasharray="1,5" points="14.5,-70 14.5,-268 481.5,-268 481.5,-70 14.5,-70"/>
</g>
<g id="clust2" class="cluster">
<title>cluster_OverlayModule_declarations</title>
<polygon fill="none" stroke="#000000" points="142.5,-78 142.5,-130 473.5,-130 473.5,-78 142.5,-78"/>
</g>
<g id="clust5" class="cluster">
<title>cluster_OverlayModule_imports</title>
<polygon fill="none" stroke="#000000" points="22.5,-78 22.5,-130 134.5,-130 134.5,-78 22.5,-78"/>
</g>
<g id="clust6" class="cluster">
<title>cluster_OverlayModule_exports</title>
<polygon fill="none" stroke="#000000" points="162.5,-208 162.5,-260 308.5,-260 308.5,-208 162.5,-208"/>
</g>
<!-- OverlayComponent -->
<g id="node1" class="node">
<title>OverlayComponent</title>
<polygon fill="#ffffb3" stroke="#000000" points="465.9201,-122 339.0799,-122 339.0799,-86 465.9201,-86 465.9201,-122"/>
<text text-anchor="middle" x="402.5" y="-99.8" font-family="Times,serif" font-size="14.00" fill="#000000">OverlayComponent</text>
</g>
<!-- OverlayModule -->
<g id="node3" class="node">
<title>OverlayModule</title>
<polygon fill="#8dd3c7" stroke="#000000" points="287.6374,-187 284.6374,-191 263.6374,-191 260.6374,-187 183.3626,-187 183.3626,-151 287.6374,-151 287.6374,-187"/>
<text text-anchor="middle" x="235.5" y="-164.8" font-family="Times,serif" font-size="14.00" fill="#000000">OverlayModule</text>
</g>
<!-- OverlayComponent&#45;&gt;OverlayModule -->
<g id="edge1" class="edge">
<title>OverlayComponent&#45;&gt;OverlayModule</title>
<path fill="none" stroke="#000000" d="M402.5,-122.1061C402.5,-141.3391 402.5,-169 402.5,-169 402.5,-169 297.8816,-169 297.8816,-169"/>
<polygon fill="#000000" stroke="#000000" points="297.8817,-165.5001 287.8816,-169 297.8816,-172.5001 297.8817,-165.5001"/>
</g>
<!-- OverlayContentComponent -->
<g id="node2" class="node">
<title>OverlayContentComponent</title>
<polygon fill="#ffffb3" stroke="#000000" points="320.752,-122 150.248,-122 150.248,-86 320.752,-86 320.752,-122"/>
<text text-anchor="middle" x="235.5" y="-99.8" font-family="Times,serif" font-size="14.00" fill="#000000">OverlayContentComponent</text>
</g>
<!-- OverlayContentComponent&#45;&gt;OverlayModule -->
<g id="edge2" class="edge">
<title>OverlayContentComponent&#45;&gt;OverlayModule</title>
<path fill="none" stroke="#000000" d="M235.5,-122.1061C235.5,-122.1061 235.5,-140.991 235.5,-140.991"/>
<polygon fill="#000000" stroke="#000000" points="232.0001,-140.9909 235.5,-150.991 239.0001,-140.991 232.0001,-140.9909"/>
</g>
<!-- OverlayComponent  -->
<g id="node5" class="node">
<title>OverlayComponent </title>
<polygon fill="#fb8072" stroke="#000000" points="300.4194,-252 170.5806,-252 170.5806,-216 300.4194,-216 300.4194,-252"/>
<text text-anchor="middle" x="235.5" y="-229.8" font-family="Times,serif" font-size="14.00" fill="#000000">OverlayComponent </text>
</g>
<!-- OverlayModule&#45;&gt;OverlayComponent  -->
<g id="edge4" class="edge">
<title>OverlayModule&#45;&gt;OverlayComponent </title>
<path fill="none" stroke="#000000" stroke-dasharray="5,2" d="M235.5,-187.1061C235.5,-187.1061 235.5,-205.991 235.5,-205.991"/>
<polygon fill="#000000" stroke="#000000" points="232.0001,-205.9909 235.5,-215.991 239.0001,-205.991 232.0001,-205.9909"/>
</g>
<!-- ModalModule -->
<g id="node4" class="node">
<title>ModalModule</title>
<polygon fill="#8dd3c7" stroke="#000000" points="126.5997,-122 123.5997,-126 102.5997,-126 99.5997,-122 30.4003,-122 30.4003,-86 126.5997,-86 126.5997,-122"/>
<text text-anchor="middle" x="78.5" y="-99.8" font-family="Times,serif" font-size="14.00" fill="#000000">ModalModule</text>
</g>
<!-- ModalModule&#45;&gt;OverlayModule -->
<g id="edge3" class="edge">
<title>ModalModule&#45;&gt;OverlayModule</title>
<path fill="none" stroke="#000000" d="M78.5,-122.1061C78.5,-141.3391 78.5,-169 78.5,-169 78.5,-169 173.2213,-169 173.2213,-169"/>
<polygon fill="#000000" stroke="#000000" points="173.2213,-172.5001 183.2213,-169 173.2212,-165.5001 173.2213,-172.5001"/>
</g>
</g>
</svg>
