<?xml version="1.0" encoding="UTF-8" standalone="no"?>
<!DOCTYPE svg PUBLIC "-//W3C//DTD SVG 1.1//EN"
 "http://www.w3.org/Graphics/SVG/1.1/DTD/svg11.dtd">
<!-- Generated by graphviz version 2.38.0 (20140413.2041)
 -->
<!-- Title: dependencies Pages: 1 -->
<svg width="621pt" height="284pt"
 viewBox="0.00 0.00 621.00 284.00" xmlns="http://www.w3.org/2000/svg" xmlns:xlink="http://www.w3.org/1999/xlink">
<g id="graph0" class="graph" transform="scale(1 1) rotate(0) translate(4 280)">
<title>dependencies</title>
<polygon fill="white" stroke="none" points="-4,4 -4,-280 617,-280 617,4 -4,4"/>
<text text-anchor="start" x="285.509" y="-42.4" font-family="sans-serif" font-weight="bold" font-size="14.00">Legend</text>
<polygon fill="#ffffb3" stroke="none" points="72.5,-10 72.5,-30 92.5,-30 92.5,-10 72.5,-10"/>
<text text-anchor="start" x="96.129" y="-15.4" font-family="sans-serif" font-size="14.00"> &#160;Declarations</text>
<polygon fill="#8dd3c7" stroke="none" points="185.5,-10 185.5,-30 205.5,-30 205.5,-10 185.5,-10"/>
<text text-anchor="start" x="209.225" y="-15.4" font-family="sans-serif" font-size="14.00"> &#160;Module</text>
<polygon fill="#80b1d3" stroke="none" points="271.5,-10 271.5,-30 291.5,-30 291.5,-10 271.5,-10"/>
<text text-anchor="start" x="295.281" y="-15.4" font-family="sans-serif" font-size="14.00"> &#160;Bootstrap</text>
<polygon fill="#fdb462" stroke="none" points="368.5,-10 368.5,-30 388.5,-30 388.5,-10 368.5,-10"/>
<text text-anchor="start" x="392.173" y="-15.4" font-family="sans-serif" font-size="14.00"> &#160;Providers</text>
<polygon fill="#fb8072" stroke="none" points="464.5,-10 464.5,-30 484.5,-30 484.5,-10 464.5,-10"/>
<text text-anchor="start" x="488.226" y="-15.4" font-family="sans-serif" font-size="14.00"> &#160;Exports</text>
<g id="clust1" class="cluster"><title>cluster_OverlayModule</title>
<polygon fill="none" stroke="black" stroke-dasharray="1,5" points="8,-70 8,-268 605,-268 605,-70 8,-70"/>
</g>
<g id="clust2" class="cluster"><title>cluster_OverlayModule_declarations</title>
<polygon fill="none" stroke="black" points="266,-78 266,-130 597,-130 597,-78 266,-78"/>
</g>
<g id="clust5" class="cluster"><title>cluster_OverlayModule_imports</title>
<polygon fill="none" stroke="black" points="16,-78 16,-130 258,-130 258,-78 16,-78"/>
</g>
<g id="clust6" class="cluster"><title>cluster_OverlayModule_exports</title>
<polygon fill="none" stroke="black" points="203,-208 203,-260 349,-260 349,-208 203,-208"/>
</g>
<!-- OverlayComponent -->
<g id="node1" class="node"><title>OverlayComponent</title>
<polygon fill="#ffffb3" stroke="black" points="589.42,-122 462.58,-122 462.58,-86 589.42,-86 589.42,-122"/>
<text text-anchor="middle" x="526" y="-99.8" font-family="Times,serif" font-size="14.00">OverlayComponent</text>
</g>
<!-- OverlayModule -->
<g id="node3" class="node"><title>OverlayModule</title>
<polygon fill="#8dd3c7" stroke="black" points="328.137,-187 325.137,-191 304.137,-191 301.137,-187 223.863,-187 223.863,-151 328.137,-151 328.137,-187"/>
<text text-anchor="middle" x="276" y="-164.8" font-family="Times,serif" font-size="14.00">OverlayModule</text>
</g>
<!-- OverlayComponent&#45;&gt;OverlayModule -->
<g id="edge1" class="edge"><title>OverlayComponent&#45;&gt;OverlayModule</title>
<path fill="none" stroke="black" d="M526,-122.106C526,-141.339 526,-169 526,-169 526,-169 338.408,-169 338.408,-169"/>
<polygon fill="black" stroke="black" points="338.408,-165.5 328.408,-169 338.408,-172.5 338.408,-165.5"/>
</g>
<!-- OverlayContentComponent -->
<g id="node2" class="node"><title>OverlayContentComponent</title>
<polygon fill="#ffffb3" stroke="black" points="444.252,-122 273.748,-122 273.748,-86 444.252,-86 444.252,-122"/>
<text text-anchor="middle" x="359" y="-99.8" font-family="Times,serif" font-size="14.00">OverlayContentComponent</text>
</g>
<!-- OverlayContentComponent&#45;&gt;OverlayModule -->
<g id="edge2" class="edge"><title>OverlayContentComponent&#45;&gt;OverlayModule</title>
<path fill="none" stroke="black" d="M300.971,-122.106C300.971,-122.106 300.971,-140.991 300.971,-140.991"/>
<polygon fill="black" stroke="black" points="297.471,-140.991 300.971,-150.991 304.471,-140.991 297.471,-140.991"/>
</g>
<!-- OverlayComponent  -->
<g id="node6" class="node"><title>OverlayComponent </title>
<polygon fill="#fb8072" stroke="black" points="340.919,-252 211.081,-252 211.081,-216 340.919,-216 340.919,-252"/>
<text text-anchor="middle" x="276" y="-229.8" font-family="Times,serif" font-size="14.00">OverlayComponent </text>
</g>
<!-- OverlayModule&#45;&gt;OverlayComponent  -->
<g id="edge5" class="edge"><title>OverlayModule&#45;&gt;OverlayComponent </title>
<path fill="none" stroke="black" stroke-dasharray="5,2" d="M276,-187.106C276,-187.106 276,-205.991 276,-205.991"/>
<polygon fill="black" stroke="black" points="272.5,-205.991 276,-215.991 279.5,-205.991 272.5,-205.991"/>
</g>
<!-- CommonModule -->
<g id="node4" class="node"><title>CommonModule</title>
<polygon fill="#8dd3c7" stroke="black" points="249.668,-122 246.668,-126 225.668,-126 222.668,-122 138.332,-122 138.332,-86 249.668,-86 249.668,-122"/>
<text text-anchor="middle" x="194" y="-99.8" font-family="Times,serif" font-size="14.00">CommonModule</text>
</g>
<!-- CommonModule&#45;&gt;OverlayModule -->
<g id="edge3" class="edge"><title>CommonModule&#45;&gt;OverlayModule</title>
<path fill="none" stroke="black" d="M236.758,-122.106C236.758,-122.106 236.758,-140.991 236.758,-140.991"/>
<polygon fill="black" stroke="black" points="233.258,-140.991 236.758,-150.991 240.258,-140.991 233.258,-140.991"/>
</g>
<!-- ModalModule -->
<g id="node5" class="node"><title>ModalModule</title>
<polygon fill="#8dd3c7" stroke="black" points="120.1,-122 117.1,-126 96.0997,-126 93.0997,-122 23.9003,-122 23.9003,-86 120.1,-86 120.1,-122"/>
<text text-anchor="middle" x="72" y="-99.8" font-family="Times,serif" font-size="14.00">ModalModule</text>
</g>
<!-- ModalModule&#45;&gt;OverlayModule -->
<g id="edge4" class="edge"><title>ModalModule&#45;&gt;OverlayModule</title>
<path fill="none" stroke="black" d="M72,-122.106C72,-141.339 72,-169 72,-169 72,-169 213.73,-169 213.73,-169"/>
<polygon fill="black" stroke="black" points="213.73,-172.5 223.73,-169 213.73,-165.5 213.73,-172.5"/>
</g>
</g>
</svg>
