<?xml version="1.0" encoding="UTF-8" standalone="no"?>
<!DOCTYPE svg PUBLIC "-//W3C//DTD SVG 1.1//EN"
 "http://www.w3.org/Graphics/SVG/1.1/DTD/svg11.dtd">
<!-- Generated by graphviz version 2.40.1 (20161225.0304)
 -->
<!-- Title: dependencies Pages: 1 -->
<svg width="504pt" height="284pt"
 viewBox="0.00 0.00 504.00 284.00" xmlns="http://www.w3.org/2000/svg" xmlns:xlink="http://www.w3.org/1999/xlink">
<g id="graph0" class="graph" transform="scale(1 1) rotate(0) translate(4 280)">
<title>dependencies</title>
<polygon fill="#ffffff" stroke="transparent" points="-4,4 -4,-280 500,-280 500,4 -4,4"/>
<text text-anchor="start" x="227.0091" y="-42.4" font-family="sans-serif" font-weight="bold" font-size="14.00" fill="#000000">Legend</text>
<polygon fill="#ffffb3" stroke="transparent" points="14,-10 14,-30 34,-30 34,-10 14,-10"/>
<text text-anchor="start" x="37.629" y="-15.4" font-family="sans-serif" font-size="14.00" fill="#000000"> &#160;Declarations</text>
<polygon fill="#8dd3c7" stroke="transparent" points="127,-10 127,-30 147,-30 147,-10 127,-10"/>
<text text-anchor="start" x="150.7251" y="-15.4" font-family="sans-serif" font-size="14.00" fill="#000000"> &#160;Module</text>
<polygon fill="#80b1d3" stroke="transparent" points="213,-10 213,-30 233,-30 233,-10 213,-10"/>
<text text-anchor="start" x="236.7812" y="-15.4" font-family="sans-serif" font-size="14.00" fill="#000000"> &#160;Bootstrap</text>
<polygon fill="#fdb462" stroke="transparent" points="310,-10 310,-30 330,-30 330,-10 310,-10"/>
<text text-anchor="start" x="333.6732" y="-15.4" font-family="sans-serif" font-size="14.00" fill="#000000"> &#160;Providers</text>
<polygon fill="#fb8072" stroke="transparent" points="406,-10 406,-30 426,-30 426,-10 406,-10"/>
<text text-anchor="start" x="429.7258" y="-15.4" font-family="sans-serif" font-size="14.00" fill="#000000"> &#160;Exports</text>
<g id="clust1" class="cluster">
<title>cluster_OverlayModule</title>
<polygon fill="none" stroke="#000000" stroke-dasharray="1,5" points="119,-70 119,-268 377,-268 377,-70 119,-70"/>
</g>
<g id="clust3" class="cluster">
<title>cluster_OverlayModule_imports</title>
<polygon fill="none" stroke="#000000" points="127,-78 127,-130 369,-130 369,-78 127,-78"/>
</g>
<g id="clust4" class="cluster">
<title>cluster_OverlayModule_exports</title>
<polygon fill="none" stroke="#000000" points="175,-208 175,-260 321,-260 321,-208 175,-208"/>
</g>
<!-- CommonModule -->
<g id="node1" class="node">
<title>CommonModule</title>
<polygon fill="#8dd3c7" stroke="#000000" points="360.6681,-122 357.6681,-126 336.6681,-126 333.6681,-122 249.3319,-122 249.3319,-86 360.6681,-86 360.6681,-122"/>
<text text-anchor="middle" x="305" y="-99.8" font-family="Times,serif" font-size="14.00" fill="#000000">CommonModule</text>
</g>
<!-- OverlayModule -->
<g id="node3" class="node">
<title>OverlayModule</title>
<polygon fill="#8dd3c7" stroke="#000000" points="300.1374,-187 297.1374,-191 276.1374,-191 273.1374,-187 195.8626,-187 195.8626,-151 300.1374,-151 300.1374,-187"/>
<text text-anchor="middle" x="248" y="-164.8" font-family="Times,serif" font-size="14.00" fill="#000000">OverlayModule</text>
</g>
<!-- CommonModule&#45;&gt;OverlayModule -->
<g id="edge1" class="edge">
<title>CommonModule&#45;&gt;OverlayModule</title>
<path fill="none" stroke="#000000" d="M274.7423,-122.1061C274.7423,-122.1061 274.7423,-140.991 274.7423,-140.991"/>
<polygon fill="#000000" stroke="#000000" points="271.2424,-140.9909 274.7423,-150.991 278.2424,-140.991 271.2424,-140.9909"/>
</g>
<!-- ModalModule -->
<g id="node2" class="node">
<title>ModalModule</title>
<polygon fill="#8dd3c7" stroke="#000000" points="231.0997,-122 228.0997,-126 207.0997,-126 204.0997,-122 134.9003,-122 134.9003,-86 231.0997,-86 231.0997,-122"/>
<text text-anchor="middle" x="183" y="-99.8" font-family="Times,serif" font-size="14.00" fill="#000000">ModalModule</text>
</g>
<!-- ModalModule&#45;&gt;OverlayModule -->
<g id="edge2" class="edge">
<title>ModalModule&#45;&gt;OverlayModule</title>
<path fill="none" stroke="#000000" d="M213.3657,-122.1061C213.3657,-122.1061 213.3657,-140.991 213.3657,-140.991"/>
<polygon fill="#000000" stroke="#000000" points="209.8658,-140.9909 213.3657,-150.991 216.8658,-140.991 209.8658,-140.9909"/>
</g>
<!-- OverlayComponent  -->
<g id="node4" class="node">
<title>OverlayComponent </title>
<polygon fill="#fb8072" stroke="#000000" points="312.9194,-252 183.0806,-252 183.0806,-216 312.9194,-216 312.9194,-252"/>
<text text-anchor="middle" x="248" y="-229.8" font-family="Times,serif" font-size="14.00" fill="#000000">OverlayComponent </text>
</g>
<!-- OverlayModule&#45;&gt;OverlayComponent  -->
<g id="edge3" class="edge">
<title>OverlayModule&#45;&gt;OverlayComponent </title>
<path fill="none" stroke="#000000" stroke-dasharray="5,2" d="M248,-187.1061C248,-187.1061 248,-205.991 248,-205.991"/>
<polygon fill="#000000" stroke="#000000" points="244.5001,-205.9909 248,-215.991 251.5001,-205.991 244.5001,-205.9909"/>
</g>
</g>
</svg>
