<?xml version="1.0" encoding="UTF-8" standalone="no"?>
<!DOCTYPE svg PUBLIC "-//W3C//DTD SVG 1.1//EN"
 "http://www.w3.org/Graphics/SVG/1.1/DTD/svg11.dtd">
<!-- Generated by graphviz version 2.38.0 (20140413.2041)
 -->
<!-- Title: dependencies Pages: 1 -->
<svg width="2939pt" height="284pt"
 viewBox="0.00 0.00 2939.00 284.00" xmlns="http://www.w3.org/2000/svg" xmlns:xlink="http://www.w3.org/1999/xlink">
<g id="graph0" class="graph" transform="scale(1 1) rotate(0) translate(4 280)">
<title>dependencies</title>
<polygon fill="white" stroke="none" points="-4,4 -4,-280 2935,-280 2935,4 -4,4"/>
<text text-anchor="start" x="1444.51" y="-42.4" font-family="sans-serif" font-weight="bold" font-size="14.00">Legend</text>
<polygon fill="#ffffb3" stroke="none" points="1231.5,-10 1231.5,-30 1251.5,-30 1251.5,-10 1231.5,-10"/>
<text text-anchor="start" x="1255.13" y="-15.4" font-family="sans-serif" font-size="14.00"> &#160;Declarations</text>
<polygon fill="#8dd3c7" stroke="none" points="1344.5,-10 1344.5,-30 1364.5,-30 1364.5,-10 1344.5,-10"/>
<text text-anchor="start" x="1368.23" y="-15.4" font-family="sans-serif" font-size="14.00"> &#160;Module</text>
<polygon fill="#80b1d3" stroke="none" points="1430.5,-10 1430.5,-30 1450.5,-30 1450.5,-10 1430.5,-10"/>
<text text-anchor="start" x="1454.28" y="-15.4" font-family="sans-serif" font-size="14.00"> &#160;Bootstrap</text>
<polygon fill="#fdb462" stroke="none" points="1527.5,-10 1527.5,-30 1547.5,-30 1547.5,-10 1527.5,-10"/>
<text text-anchor="start" x="1551.17" y="-15.4" font-family="sans-serif" font-size="14.00"> &#160;Providers</text>
<polygon fill="#fb8072" stroke="none" points="1623.5,-10 1623.5,-30 1643.5,-30 1643.5,-10 1623.5,-10"/>
<text text-anchor="start" x="1647.23" y="-15.4" font-family="sans-serif" font-size="14.00"> &#160;Exports</text>
<g id="clust1" class="cluster"><title>cluster_RebirthUIModule</title>
<polygon fill="none" stroke="black" stroke-dasharray="1,5" points="8,-70 8,-268 2923,-268 2923,-70 8,-70"/>
</g>
<g id="clust3" class="cluster"><title>cluster_RebirthUIModule_imports</title>
<polygon fill="none" stroke="black" points="53,-78 53,-130 2876,-130 2876,-78 53,-78"/>
</g>
<g id="clust4" class="cluster"><title>cluster_RebirthUIModule_exports</title>
<polygon fill="none" stroke="black" points="16,-208 16,-260 2915,-260 2915,-208 16,-208"/>
</g>
<!-- ModalModule -->
<g id="node1" class="node"><title>ModalModule</title>
<polygon fill="#8dd3c7" stroke="black" points="2868.1,-122 2865.1,-126 2844.1,-126 2841.1,-122 2771.9,-122 2771.9,-86 2868.1,-86 2868.1,-122"/>
<text text-anchor="middle" x="2820" y="-99.8" font-family="Times,serif" font-size="14.00">ModalModule</text>
</g>
<!-- RebirthUIModule -->
<g id="node23" class="node"><title>RebirthUIModule</title>
<polygon fill="#8dd3c7" stroke="black" points="1574.31,-187 1571.31,-191 1550.31,-191 1547.31,-187 1457.69,-187 1457.69,-151 1574.31,-151 1574.31,-187"/>
<text text-anchor="middle" x="1516" y="-164.8" font-family="Times,serif" font-size="14.00">RebirthUIModule</text>
</g>
<!-- ModalModule&#45;&gt;RebirthUIModule -->
<g id="edge1" class="edge"><title>ModalModule&#45;&gt;RebirthUIModule</title>
<path fill="none" stroke="black" d="M2780.76,-122.106C2780.76,-141.339 2780.76,-169 2780.76,-169 2780.76,-169 1584.47,-169 1584.47,-169"/>
<polygon fill="black" stroke="black" points="1584.47,-165.5 1574.47,-169 1584.47,-172.5 1584.47,-165.5"/>
</g>
<!-- DialogModule -->
<g id="node2" class="node"><title>DialogModule</title>
<polygon fill="#8dd3c7" stroke="black" points="2753.65,-122 2750.65,-126 2729.65,-126 2726.65,-122 2656.35,-122 2656.35,-86 2753.65,-86 2753.65,-122"/>
<text text-anchor="middle" x="2705" y="-99.8" font-family="Times,serif" font-size="14.00">DialogModule</text>
</g>
<!-- DialogModule&#45;&gt;RebirthUIModule -->
<g id="edge2" class="edge"><title>DialogModule&#45;&gt;RebirthUIModule</title>
<path fill="none" stroke="black" d="M2663.32,-122.222C2663.32,-140.829 2663.32,-167 2663.32,-167 2663.32,-167 1584.47,-167 1584.47,-167"/>
<polygon fill="black" stroke="black" points="1584.47,-163.5 1574.47,-167 1584.47,-170.5 1584.47,-163.5"/>
</g>
<!-- PagerModule -->
<g id="node3" class="node"><title>PagerModule</title>
<polygon fill="#8dd3c7" stroke="black" points="2637.92,-122 2634.92,-126 2613.92,-126 2610.92,-122 2546.08,-122 2546.08,-86 2637.92,-86 2637.92,-122"/>
<text text-anchor="middle" x="2592" y="-99.8" font-family="Times,serif" font-size="14.00">PagerModule</text>
</g>
<!-- PagerModule&#45;&gt;RebirthUIModule -->
<g id="edge3" class="edge"><title>PagerModule&#45;&gt;RebirthUIModule</title>
<path fill="none" stroke="black" d="M2551.88,-122.302C2551.88,-140.27 2551.88,-165 2551.88,-165 2551.88,-165 1584.29,-165 1584.29,-165"/>
<polygon fill="black" stroke="black" points="1584.29,-161.5 1574.29,-165 1584.29,-168.5 1584.29,-161.5"/>
</g>
<!-- PaginationModule -->
<g id="node4" class="node"><title>PaginationModule</title>
<polygon fill="#8dd3c7" stroke="black" points="2528.93,-122 2525.93,-126 2504.93,-126 2501.93,-122 2409.07,-122 2409.07,-86 2528.93,-86 2528.93,-122"/>
<text text-anchor="middle" x="2469" y="-99.8" font-family="Times,serif" font-size="14.00">PaginationModule</text>
</g>
<!-- PaginationModule&#45;&gt;RebirthUIModule -->
<g id="edge4" class="edge"><title>PaginationModule&#45;&gt;RebirthUIModule</title>
<path fill="none" stroke="black" d="M2412.93,-122.023C2412.93,-139.373 2412.93,-163 2412.93,-163 2412.93,-163 1584.16,-163 1584.16,-163"/>
<polygon fill="black" stroke="black" points="1584.16,-159.5 1574.16,-163 1584.16,-166.5 1584.16,-159.5"/>
</g>
<!-- AlertBoxModule -->
<g id="node5" class="node"><title>AlertBoxModule</title>
<polygon fill="#8dd3c7" stroke="black" points="2390.65,-122 2387.65,-126 2366.65,-126 2363.65,-122 2279.35,-122 2279.35,-86 2390.65,-86 2390.65,-122"/>
<text text-anchor="middle" x="2335" y="-99.8" font-family="Times,serif" font-size="14.00">AlertBoxModule</text>
</g>
<!-- AlertBoxModule&#45;&gt;RebirthUIModule -->
<g id="edge5" class="edge"><title>AlertBoxModule&#45;&gt;RebirthUIModule</title>
<path fill="none" stroke="black" d="M2292.42,-122.034C2292.42,-139.06 2292.42,-162 2292.42,-162 2292.42,-162 1584.36,-162 1584.36,-162"/>
<polygon fill="black" stroke="black" points="1584.36,-158.5 1574.36,-162 1584.36,-165.5 1584.36,-158.5"/>
</g>
<!-- BadgeModule -->
<g id="node6" class="node"><title>BadgeModule</title>
<polygon fill="#8dd3c7" stroke="black" points="2261.82,-122 2258.82,-126 2237.82,-126 2234.82,-122 2166.18,-122 2166.18,-86 2261.82,-86 2261.82,-122"/>
<text text-anchor="middle" x="2214" y="-99.8" font-family="Times,serif" font-size="14.00">BadgeModule</text>
</g>
<!-- BadgeModule&#45;&gt;RebirthUIModule -->
<g id="edge6" class="edge"><title>BadgeModule&#45;&gt;RebirthUIModule</title>
<path fill="none" stroke="black" d="M2175.83,-122.027C2175.83,-138.398 2175.83,-160 2175.83,-160 2175.83,-160 1584.27,-160 1584.27,-160"/>
<polygon fill="black" stroke="black" points="1584.27,-156.5 1574.27,-160 1584.27,-163.5 1584.27,-156.5"/>
</g>
<!-- PanelModule -->
<g id="node7" class="node"><title>PanelModule</title>
<polygon fill="#8dd3c7" stroke="black" points="2148.15,-122 2145.15,-126 2124.15,-126 2121.15,-122 2057.85,-122 2057.85,-86 2148.15,-86 2148.15,-122"/>
<text text-anchor="middle" x="2103" y="-99.8" font-family="Times,serif" font-size="14.00">PanelModule</text>
</g>
<!-- PanelModule&#45;&gt;RebirthUIModule -->
<g id="edge7" class="edge"><title>PanelModule&#45;&gt;RebirthUIModule</title>
<path fill="none" stroke="black" d="M2065.3,-122.282C2065.3,-137.948 2065.3,-158 2065.3,-158 2065.3,-158 1584.26,-158 1584.26,-158"/>
<polygon fill="black" stroke="black" points="1584.26,-154.5 1574.26,-158 1584.26,-161.5 1584.26,-154.5"/>
</g>
<!-- AccordionModule -->
<g id="node8" class="node"><title>AccordionModule</title>
<polygon fill="#8dd3c7" stroke="black" points="2039.14,-122 2036.14,-126 2015.14,-126 2012.14,-122 1920.86,-122 1920.86,-86 2039.14,-86 2039.14,-122"/>
<text text-anchor="middle" x="1980" y="-99.8" font-family="Times,serif" font-size="14.00">AccordionModule</text>
</g>
<!-- AccordionModule&#45;&gt;RebirthUIModule -->
<g id="edge8" class="edge"><title>AccordionModule&#45;&gt;RebirthUIModule</title>
<path fill="none" stroke="black" d="M1926.81,-122.24C1926.81,-137.571 1926.81,-157 1926.81,-157 1926.81,-157 1584.42,-157 1584.42,-157"/>
<polygon fill="black" stroke="black" points="1584.42,-153.5 1574.42,-157 1584.42,-160.5 1584.42,-153.5"/>
</g>
<!-- ActionButtonModule -->
<g id="node9" class="node"><title>ActionButtonModule</title>
<polygon fill="#8dd3c7" stroke="black" points="1902.77,-122 1899.77,-126 1878.77,-126 1875.77,-122 1767.23,-122 1767.23,-86 1902.77,-86 1902.77,-122"/>
<text text-anchor="middle" x="1835" y="-99.8" font-family="Times,serif" font-size="14.00">ActionButtonModule</text>
</g>
<!-- ActionButtonModule&#45;&gt;RebirthUIModule -->
<g id="edge9" class="edge"><title>ActionButtonModule&#45;&gt;RebirthUIModule</title>
<path fill="none" stroke="black" d="M1771.24,-122.124C1771.24,-136.783 1771.24,-155 1771.24,-155 1771.24,-155 1584.24,-155 1584.24,-155"/>
<polygon fill="black" stroke="black" points="1584.24,-151.5 1574.24,-155 1584.24,-158.5 1584.24,-151.5"/>
</g>
<!-- RatingModule -->
<g id="node10" class="node"><title>RatingModule</title>
<polygon fill="#8dd3c7" stroke="black" points="1749.38,-122 1746.38,-126 1725.38,-126 1722.38,-122 1652.62,-122 1652.62,-86 1749.38,-86 1749.38,-122"/>
<text text-anchor="middle" x="1701" y="-99.8" font-family="Times,serif" font-size="14.00">RatingModule</text>
</g>
<!-- RatingModule&#45;&gt;RebirthUIModule -->
<g id="edge10" class="edge"><title>RatingModule&#45;&gt;RebirthUIModule</title>
<path fill="none" stroke="black" d="M1718.56,-122.246C1718.56,-136.177 1718.56,-153 1718.56,-153 1718.56,-153 1584.32,-153 1584.32,-153"/>
<polygon fill="black" stroke="black" points="1584.32,-149.5 1574.32,-153 1584.32,-156.5 1584.32,-149.5"/>
</g>
<!-- TabsModule -->
<g id="node11" class="node"><title>TabsModule</title>
<polygon fill="#8dd3c7" stroke="black" points="1634.26,-122 1631.26,-126 1610.26,-126 1607.26,-122 1547.74,-122 1547.74,-86 1634.26,-86 1634.26,-122"/>
<text text-anchor="middle" x="1591" y="-99.8" font-family="Times,serif" font-size="14.00">TabsModule</text>
</g>
<!-- TabsModule&#45;&gt;RebirthUIModule -->
<g id="edge11" class="edge"><title>TabsModule&#45;&gt;RebirthUIModule</title>
<path fill="none" stroke="black" d="M1560.89,-122.106C1560.89,-122.106 1560.89,-140.991 1560.89,-140.991"/>
<polygon fill="black" stroke="black" points="1557.39,-140.991 1560.89,-150.991 1564.39,-140.991 1557.39,-140.991"/>
</g>
<!-- TooltipModule -->
<g id="node12" class="node"><title>TooltipModule</title>
<polygon fill="#8dd3c7" stroke="black" points="1529.27,-122 1526.27,-126 1505.27,-126 1502.27,-122 1428.73,-122 1428.73,-86 1529.27,-86 1529.27,-122"/>
<text text-anchor="middle" x="1479" y="-99.8" font-family="Times,serif" font-size="14.00">TooltipModule</text>
</g>
<!-- TooltipModule&#45;&gt;RebirthUIModule -->
<g id="edge12" class="edge"><title>TooltipModule&#45;&gt;RebirthUIModule</title>
<path fill="none" stroke="black" d="M1493.62,-122.106C1493.62,-122.106 1493.62,-140.991 1493.62,-140.991"/>
<polygon fill="black" stroke="black" points="1490.12,-140.991 1493.62,-150.991 1497.12,-140.991 1490.12,-140.991"/>
</g>
<!-- PopoverModule -->
<g id="node13" class="node"><title>PopoverModule</title>
<polygon fill="#8dd3c7" stroke="black" points="1411.21,-122 1408.21,-126 1387.21,-126 1384.21,-122 1304.79,-122 1304.79,-86 1411.21,-86 1411.21,-122"/>
<text text-anchor="middle" x="1358" y="-99.8" font-family="Times,serif" font-size="14.00">PopoverModule</text>
</g>
<!-- PopoverModule&#45;&gt;RebirthUIModule -->
<g id="edge13" class="edge"><title>PopoverModule&#45;&gt;RebirthUIModule</title>
<path fill="none" stroke="black" d="M1374.2,-122.246C1374.2,-136.177 1374.2,-153 1374.2,-153 1374.2,-153 1447.51,-153 1447.51,-153"/>
<polygon fill="black" stroke="black" points="1447.51,-156.5 1457.51,-153 1447.51,-149.5 1447.51,-156.5"/>
</g>
<!-- DatePickerModule -->
<g id="node14" class="node"><title>DatePickerModule</title>
<polygon fill="#8dd3c7" stroke="black" points="1286.74,-122 1283.74,-126 1262.74,-126 1259.74,-122 1165.26,-122 1165.26,-86 1286.74,-86 1286.74,-122"/>
<text text-anchor="middle" x="1226" y="-99.8" font-family="Times,serif" font-size="14.00">DatePickerModule</text>
</g>
<!-- DatePickerModule&#45;&gt;RebirthUIModule -->
<g id="edge14" class="edge"><title>DatePickerModule&#45;&gt;RebirthUIModule</title>
<path fill="none" stroke="black" d="M1242.79,-122.124C1242.79,-136.783 1242.79,-155 1242.79,-155 1242.79,-155 1447.72,-155 1447.72,-155"/>
<polygon fill="black" stroke="black" points="1447.72,-158.5 1457.72,-155 1447.72,-151.5 1447.72,-158.5"/>
</g>
<!-- BreadcrumbsModule -->
<g id="node15" class="node"><title>BreadcrumbsModule</title>
<polygon fill="#8dd3c7" stroke="black" points="1147.19,-122 1144.19,-126 1123.19,-126 1120.19,-122 1012.81,-122 1012.81,-86 1147.19,-86 1147.19,-122"/>
<text text-anchor="middle" x="1080" y="-99.8" font-family="Times,serif" font-size="14.00">BreadcrumbsModule</text>
</g>
<!-- BreadcrumbsModule&#45;&gt;RebirthUIModule -->
<g id="edge15" class="edge"><title>BreadcrumbsModule&#45;&gt;RebirthUIModule</title>
<path fill="none" stroke="black" d="M1142.97,-122.24C1142.97,-137.571 1142.97,-157 1142.97,-157 1142.97,-157 1447.71,-157 1447.71,-157"/>
<polygon fill="black" stroke="black" points="1447.71,-160.5 1457.71,-157 1447.71,-153.5 1447.71,-160.5"/>
</g>
<!-- ProgressBarModule -->
<g id="node16" class="node"><title>ProgressBarModule</title>
<polygon fill="#8dd3c7" stroke="black" points="994.969,-122 991.969,-126 970.969,-126 967.969,-122 867.031,-122 867.031,-86 994.969,-86 994.969,-122"/>
<text text-anchor="middle" x="931" y="-99.8" font-family="Times,serif" font-size="14.00">ProgressBarModule</text>
</g>
<!-- ProgressBarModule&#45;&gt;RebirthUIModule -->
<g id="edge16" class="edge"><title>ProgressBarModule&#45;&gt;RebirthUIModule</title>
<path fill="none" stroke="black" d="M988.86,-122.282C988.86,-137.948 988.86,-158 988.86,-158 988.86,-158 1447.83,-158 1447.83,-158"/>
<polygon fill="black" stroke="black" points="1447.83,-161.5 1457.83,-158 1447.83,-154.5 1447.83,-161.5"/>
</g>
<!-- SelectButtonModule -->
<g id="node17" class="node"><title>SelectButtonModule</title>
<polygon fill="#8dd3c7" stroke="black" points="848.875,-122 845.875,-126 824.875,-126 821.875,-122 717.125,-122 717.125,-86 848.875,-86 848.875,-122"/>
<text text-anchor="middle" x="783" y="-99.8" font-family="Times,serif" font-size="14.00">SelectButtonModule</text>
</g>
<!-- SelectButtonModule&#45;&gt;RebirthUIModule -->
<g id="edge17" class="edge"><title>SelectButtonModule&#45;&gt;RebirthUIModule</title>
<path fill="none" stroke="black" d="M841.313,-122.027C841.313,-138.398 841.313,-160 841.313,-160 841.313,-160 1447.6,-160 1447.6,-160"/>
<polygon fill="black" stroke="black" points="1447.6,-163.5 1457.6,-160 1447.6,-156.5 1447.6,-163.5"/>
</g>
<!-- OverlayModule -->
<g id="node18" class="node"><title>OverlayModule</title>
<polygon fill="#8dd3c7" stroke="black" points="699.137,-122 696.137,-126 675.137,-126 672.137,-122 594.863,-122 594.863,-86 699.137,-86 699.137,-122"/>
<text text-anchor="middle" x="647" y="-99.8" font-family="Times,serif" font-size="14.00">OverlayModule</text>
</g>
<!-- OverlayModule&#45;&gt;RebirthUIModule -->
<g id="edge18" class="edge"><title>OverlayModule&#45;&gt;RebirthUIModule</title>
<path fill="none" stroke="black" d="M689.19,-122.034C689.19,-139.06 689.19,-162 689.19,-162 689.19,-162 1447.53,-162 1447.53,-162"/>
<polygon fill="black" stroke="black" points="1447.53,-165.5 1457.53,-162 1447.53,-158.5 1447.53,-165.5"/>
</g>
<!-- CarouselModule -->
<g id="node19" class="node"><title>CarouselModule</title>
<polygon fill="#8dd3c7" stroke="black" points="576.812,-122 573.812,-126 552.812,-126 549.812,-122 467.188,-122 467.188,-86 576.812,-86 576.812,-122"/>
<text text-anchor="middle" x="522" y="-99.8" font-family="Times,serif" font-size="14.00">CarouselModule</text>
</g>
<!-- CarouselModule&#45;&gt;RebirthUIModule -->
<g id="edge19" class="edge"><title>CarouselModule&#45;&gt;RebirthUIModule</title>
<path fill="none" stroke="black" d="M563.169,-122.023C563.169,-139.373 563.169,-163 563.169,-163 563.169,-163 1447.83,-163 1447.83,-163"/>
<polygon fill="black" stroke="black" points="1447.83,-166.5 1457.83,-163 1447.83,-159.5 1447.83,-166.5"/>
</g>
<!-- SwitchModule -->
<g id="node20" class="node"><title>SwitchModule</title>
<polygon fill="#8dd3c7" stroke="black" points="449.436,-122 446.436,-126 425.436,-126 422.436,-122 350.564,-122 350.564,-86 449.436,-86 449.436,-122"/>
<text text-anchor="middle" x="400" y="-99.8" font-family="Times,serif" font-size="14.00">SwitchModule</text>
</g>
<!-- SwitchModule&#45;&gt;RebirthUIModule -->
<g id="edge20" class="edge"><title>SwitchModule&#45;&gt;RebirthUIModule</title>
<path fill="none" stroke="black" d="M445.406,-122.302C445.406,-140.27 445.406,-165 445.406,-165 445.406,-165 1447.68,-165 1447.68,-165"/>
<polygon fill="black" stroke="black" points="1447.68,-168.5 1457.68,-165 1447.68,-161.5 1447.68,-168.5"/>
</g>
<!-- MenuBarModule -->
<g id="node21" class="node"><title>MenuBarModule</title>
<polygon fill="#8dd3c7" stroke="black" points="333.422,-122 330.422,-126 309.422,-126 306.422,-122 220.578,-122 220.578,-86 333.422,-86 333.422,-122"/>
<text text-anchor="middle" x="277" y="-99.8" font-family="Times,serif" font-size="14.00">MenuBarModule</text>
</g>
<!-- MenuBarModule&#45;&gt;RebirthUIModule -->
<g id="edge21" class="edge"><title>MenuBarModule&#45;&gt;RebirthUIModule</title>
<path fill="none" stroke="black" d="M327.621,-122.222C327.621,-140.829 327.621,-167 327.621,-167 327.621,-167 1447.47,-167 1447.47,-167"/>
<polygon fill="black" stroke="black" points="1447.47,-170.5 1457.47,-167 1447.47,-163.5 1447.47,-170.5"/>
</g>
<!-- AutoCompleteModule -->
<g id="node22" class="node"><title>AutoCompleteModule</title>
<polygon fill="#8dd3c7" stroke="black" points="202.985,-122 199.985,-126 178.985,-126 175.985,-122 61.0154,-122 61.0154,-86 202.985,-86 202.985,-122"/>
<text text-anchor="middle" x="132" y="-99.8" font-family="Times,serif" font-size="14.00">AutoCompleteModule</text>
</g>
<!-- AutoCompleteModule&#45;&gt;RebirthUIModule -->
<g id="edge22" class="edge"><title>AutoCompleteModule&#45;&gt;RebirthUIModule</title>
<path fill="none" stroke="black" d="M195.516,-122.106C195.516,-141.339 195.516,-169 195.516,-169 195.516,-169 1447.56,-169 1447.56,-169"/>
<polygon fill="black" stroke="black" points="1447.56,-172.5 1457.56,-169 1447.56,-165.5 1447.56,-172.5"/>
</g>
<!-- ModalModule  -->
<g id="node24" class="node"><title>ModalModule </title>
<polygon fill="#fb8072" stroke="black" points="2906.6,-252 2807.4,-252 2807.4,-216 2906.6,-216 2906.6,-252"/>
<text text-anchor="middle" x="2857" y="-229.8" font-family="Times,serif" font-size="14.00">ModalModule </text>
</g>
<!-- RebirthUIModule&#45;&gt;ModalModule  -->
<g id="edge23" class="edge"><title>RebirthUIModule&#45;&gt;ModalModule </title>
<path fill="none" stroke="black" stroke-dasharray="5,2" d="M1574.49,-170C1830.27,-170 2837.62,-170 2837.62,-170 2837.62,-170 2837.62,-205.831 2837.62,-205.831"/>
<polygon fill="black" stroke="black" points="2834.13,-205.831 2837.62,-215.831 2841.13,-205.831 2834.13,-205.831"/>
</g>
<!-- DialogModule  -->
<g id="node25" class="node"><title>DialogModule </title>
<polygon fill="#fb8072" stroke="black" points="2789.65,-252 2688.35,-252 2688.35,-216 2789.65,-216 2789.65,-252"/>
<text text-anchor="middle" x="2739" y="-229.8" font-family="Times,serif" font-size="14.00">DialogModule </text>
</g>
<!-- RebirthUIModule&#45;&gt;DialogModule  -->
<g id="edge24" class="edge"><title>RebirthUIModule&#45;&gt;DialogModule </title>
<path fill="none" stroke="black" stroke-dasharray="5,2" d="M1574.53,-172C1815.87,-172 2721.12,-172 2721.12,-172 2721.12,-172 2721.12,-205.733 2721.12,-205.733"/>
<polygon fill="black" stroke="black" points="2717.63,-205.733 2721.12,-215.733 2724.63,-205.733 2717.63,-205.733"/>
</g>
<!-- PagerModule  -->
<g id="node26" class="node"><title>PagerModule </title>
<polygon fill="#fb8072" stroke="black" points="2670.42,-252 2575.58,-252 2575.58,-216 2670.42,-216 2670.42,-252"/>
<text text-anchor="middle" x="2623" y="-229.8" font-family="Times,serif" font-size="14.00">PagerModule </text>
</g>
<!-- RebirthUIModule&#45;&gt;PagerModule  -->
<g id="edge25" class="edge"><title>RebirthUIModule&#45;&gt;PagerModule </title>
<path fill="none" stroke="black" stroke-dasharray="5,2" d="M1574.25,-174C1800.26,-174 2606.62,-174 2606.62,-174 2606.62,-174 2606.62,-205.998 2606.62,-205.998"/>
<polygon fill="black" stroke="black" points="2603.13,-205.998 2606.62,-215.998 2610.13,-205.998 2603.13,-205.998"/>
</g>
<!-- PaginationModule  -->
<g id="node27" class="node"><title>PaginationModule </title>
<polygon fill="#fb8072" stroke="black" points="2557.43,-252 2434.57,-252 2434.57,-216 2557.43,-216 2557.43,-252"/>
<text text-anchor="middle" x="2496" y="-229.8" font-family="Times,serif" font-size="14.00">PaginationModule </text>
</g>
<!-- RebirthUIModule&#45;&gt;PaginationModule  -->
<g id="edge26" class="edge"><title>RebirthUIModule&#45;&gt;PaginationModule </title>
<path fill="none" stroke="black" stroke-dasharray="5,2" d="M1574.23,-175C1783,-175 2481.62,-175 2481.62,-175 2481.62,-175 2481.62,-205.977 2481.62,-205.977"/>
<polygon fill="black" stroke="black" points="2478.13,-205.977 2481.62,-215.977 2485.13,-205.978 2478.13,-205.977"/>
</g>
<!-- AlertBoxModule  -->
<g id="node28" class="node"><title>AlertBoxModule </title>
<polygon fill="#fb8072" stroke="black" points="2416.65,-252 2301.35,-252 2301.35,-216 2416.65,-216 2416.65,-252"/>
<text text-anchor="middle" x="2359" y="-229.8" font-family="Times,serif" font-size="14.00">AlertBoxModule </text>
</g>
<!-- RebirthUIModule&#45;&gt;AlertBoxModule  -->
<g id="edge27" class="edge"><title>RebirthUIModule&#45;&gt;AlertBoxModule </title>
<path fill="none" stroke="black" stroke-dasharray="5,2" d="M1574.37,-177C1763.33,-177 2346.12,-177 2346.12,-177 2346.12,-177 2346.12,-205.965 2346.12,-205.965"/>
<polygon fill="black" stroke="black" points="2342.63,-205.965 2346.12,-215.965 2349.63,-205.965 2342.63,-205.965"/>
</g>
<!-- BadgeModule  -->
<g id="node29" class="node"><title>BadgeModule </title>
<polygon fill="#fb8072" stroke="black" points="2283.32,-252 2184.68,-252 2184.68,-216 2283.32,-216 2283.32,-252"/>
<text text-anchor="middle" x="2234" y="-229.8" font-family="Times,serif" font-size="14.00">BadgeModule </text>
</g>
<!-- RebirthUIModule&#45;&gt;BadgeModule  -->
<g id="edge28" class="edge"><title>RebirthUIModule&#45;&gt;BadgeModule </title>
<path fill="none" stroke="black" stroke-dasharray="5,2" d="M1574.17,-179C1743.32,-179 2223.12,-179 2223.12,-179 2223.12,-179 2223.12,-205.991 2223.12,-205.991"/>
<polygon fill="black" stroke="black" points="2219.63,-205.991 2223.12,-215.991 2226.63,-205.991 2219.63,-205.991"/>
</g>
<!-- PanelModule  -->
<g id="node30" class="node"><title>PanelModule </title>
<polygon fill="#fb8072" stroke="black" points="2167.15,-252 2072.85,-252 2072.85,-216 2167.15,-216 2167.15,-252"/>
<text text-anchor="middle" x="2120" y="-229.8" font-family="Times,serif" font-size="14.00">PanelModule </text>
</g>
<!-- RebirthUIModule&#45;&gt;PanelModule  -->
<g id="edge29" class="edge"><title>RebirthUIModule&#45;&gt;PanelModule </title>
<path fill="none" stroke="black" stroke-dasharray="5,2" d="M1574.37,-181C1724.19,-181 2110.62,-181 2110.62,-181 2110.62,-181 2110.62,-205.76 2110.62,-205.76"/>
<polygon fill="black" stroke="black" points="2107.13,-205.76 2110.62,-215.76 2114.13,-205.76 2107.13,-205.76"/>
</g>
<!-- AccordionModule  -->
<g id="node31" class="node"><title>AccordionModule </title>
<polygon fill="#fb8072" stroke="black" points="2055.14,-252 1932.86,-252 1932.86,-216 2055.14,-216 2055.14,-252"/>
<text text-anchor="middle" x="1994" y="-229.8" font-family="Times,serif" font-size="14.00">AccordionModule </text>
</g>
<!-- RebirthUIModule&#45;&gt;AccordionModule  -->
<g id="edge30" class="edge"><title>RebirthUIModule&#45;&gt;AccordionModule </title>
<path fill="none" stroke="black" stroke-dasharray="5,2" d="M1574.59,-182C1700.62,-182 1986.12,-182 1986.12,-182 1986.12,-182 1986.12,-205.813 1986.12,-205.813"/>
<polygon fill="black" stroke="black" points="1982.63,-205.813 1986.12,-215.813 1989.63,-205.813 1982.63,-205.813"/>
</g>
<!-- ActionButtonModule  -->
<g id="node32" class="node"><title>ActionButtonModule </title>
<polygon fill="#fb8072" stroke="black" points="1914.77,-252 1775.23,-252 1775.23,-216 1914.77,-216 1914.77,-252"/>
<text text-anchor="middle" x="1845" y="-229.8" font-family="Times,serif" font-size="14.00">ActionButtonModule </text>
</g>
<!-- RebirthUIModule&#45;&gt;ActionButtonModule  -->
<g id="edge31" class="edge"><title>RebirthUIModule&#45;&gt;ActionButtonModule </title>
<path fill="none" stroke="black" stroke-dasharray="5,2" d="M1574.52,-184C1667.63,-184 1839.12,-184 1839.12,-184 1839.12,-184 1839.12,-205.949 1839.12,-205.949"/>
<polygon fill="black" stroke="black" points="1835.63,-205.949 1839.12,-215.949 1842.63,-205.949 1835.63,-205.949"/>
</g>
<!-- RatingModule  -->
<g id="node33" class="node"><title>RatingModule </title>
<polygon fill="#fb8072" stroke="black" points="1757.38,-252 1656.62,-252 1656.62,-216 1757.38,-216 1757.38,-252"/>
<text text-anchor="middle" x="1707" y="-229.8" font-family="Times,serif" font-size="14.00">RatingModule </text>
</g>
<!-- RebirthUIModule&#45;&gt;RatingModule  -->
<g id="edge32" class="edge"><title>RebirthUIModule&#45;&gt;RatingModule </title>
<path fill="none" stroke="black" stroke-dasharray="5,2" d="M1574.6,-186C1624.34,-186 1687.69,-186 1687.69,-186 1687.69,-186 1687.69,-205.853 1687.69,-205.853"/>
<polygon fill="black" stroke="black" points="1684.19,-205.853 1687.69,-215.853 1691.19,-205.853 1684.19,-205.853"/>
</g>
<!-- TabsModule  -->
<g id="node34" class="node"><title>TabsModule </title>
<polygon fill="#fb8072" stroke="black" points="1639.26,-252 1548.74,-252 1548.74,-216 1639.26,-216 1639.26,-252"/>
<text text-anchor="middle" x="1594" y="-229.8" font-family="Times,serif" font-size="14.00">TabsModule </text>
</g>
<!-- RebirthUIModule&#45;&gt;TabsModule  -->
<g id="edge33" class="edge"><title>RebirthUIModule&#45;&gt;TabsModule </title>
<path fill="none" stroke="black" stroke-dasharray="5,2" d="M1561.51,-187.106C1561.51,-187.106 1561.51,-205.991 1561.51,-205.991"/>
<polygon fill="black" stroke="black" points="1558.01,-205.991 1561.51,-215.991 1565.01,-205.991 1558.01,-205.991"/>
</g>
<!-- TooltipModule  -->
<g id="node35" class="node"><title>TooltipModule </title>
<polygon fill="#fb8072" stroke="black" points="1531.27,-252 1426.73,-252 1426.73,-216 1531.27,-216 1531.27,-252"/>
<text text-anchor="middle" x="1479" y="-229.8" font-family="Times,serif" font-size="14.00">TooltipModule </text>
</g>
<!-- RebirthUIModule&#45;&gt;TooltipModule  -->
<g id="edge34" class="edge"><title>RebirthUIModule&#45;&gt;TooltipModule </title>
<path fill="none" stroke="black" stroke-dasharray="5,2" d="M1494.49,-187.106C1494.49,-187.106 1494.49,-205.991 1494.49,-205.991"/>
<polygon fill="black" stroke="black" points="1490.99,-205.991 1494.49,-215.991 1497.99,-205.991 1490.99,-205.991"/>
</g>
<!-- PopoverModule  -->
<g id="node36" class="node"><title>PopoverModule </title>
<polygon fill="#fb8072" stroke="black" points="1408.71,-252 1299.29,-252 1299.29,-216 1408.71,-216 1408.71,-252"/>
<text text-anchor="middle" x="1354" y="-229.8" font-family="Times,serif" font-size="14.00">PopoverModule </text>
</g>
<!-- RebirthUIModule&#45;&gt;PopoverModule  -->
<g id="edge35" class="edge"><title>RebirthUIModule&#45;&gt;PopoverModule </title>
<path fill="none" stroke="black" stroke-dasharray="5,2" d="M1457.73,-186C1406.34,-186 1339.55,-186 1339.55,-186 1339.55,-186 1339.55,-205.853 1339.55,-205.853"/>
<polygon fill="black" stroke="black" points="1336.05,-205.853 1339.55,-215.853 1343.05,-205.853 1336.05,-205.853"/>
</g>
<!-- DatePickerModule  -->
<g id="node37" class="node"><title>DatePickerModule </title>
<polygon fill="#fb8072" stroke="black" points="1281.74,-252 1156.26,-252 1156.26,-216 1281.74,-216 1281.74,-252"/>
<text text-anchor="middle" x="1219" y="-229.8" font-family="Times,serif" font-size="14.00">DatePickerModule </text>
</g>
<!-- RebirthUIModule&#45;&gt;DatePickerModule  -->
<g id="edge36" class="edge"><title>RebirthUIModule&#45;&gt;DatePickerModule </title>
<path fill="none" stroke="black" stroke-dasharray="5,2" d="M1457.67,-184C1367.36,-184 1203.96,-184 1203.96,-184 1203.96,-184 1203.96,-205.949 1203.96,-205.949"/>
<polygon fill="black" stroke="black" points="1200.46,-205.949 1203.96,-215.949 1207.46,-205.949 1200.46,-205.949"/>
</g>
<!-- BreadcrumbsModule  -->
<g id="node38" class="node"><title>BreadcrumbsModule </title>
<polygon fill="#fb8072" stroke="black" points="1138.69,-252 1001.31,-252 1001.31,-216 1138.69,-216 1138.69,-252"/>
<text text-anchor="middle" x="1070" y="-229.8" font-family="Times,serif" font-size="14.00">BreadcrumbsModule </text>
</g>
<!-- RebirthUIModule&#45;&gt;BreadcrumbsModule  -->
<g id="edge37" class="edge"><title>RebirthUIModule&#45;&gt;BreadcrumbsModule </title>
<path fill="none" stroke="black" stroke-dasharray="5,2" d="M1457.55,-182C1337.83,-182 1075.88,-182 1075.88,-182 1075.88,-182 1075.88,-205.813 1075.88,-205.813"/>
<polygon fill="black" stroke="black" points="1072.38,-205.813 1075.88,-215.813 1079.38,-205.813 1072.38,-205.813"/>
</g>
<!-- ProgressBarModule  -->
<g id="node39" class="node"><title>ProgressBarModule </title>
<polygon fill="#fb8072" stroke="black" points="982.97,-252 851.03,-252 851.03,-216 982.97,-216 982.97,-252"/>
<text text-anchor="middle" x="917" y="-229.8" font-family="Times,serif" font-size="14.00">ProgressBarModule </text>
</g>
<!-- RebirthUIModule&#45;&gt;ProgressBarModule  -->
<g id="edge38" class="edge"><title>RebirthUIModule&#45;&gt;ProgressBarModule </title>
<path fill="none" stroke="black" stroke-dasharray="5,2" d="M1457.7,-181C1308.57,-181 924.875,-181 924.875,-181 924.875,-181 924.875,-205.76 924.875,-205.76"/>
<polygon fill="black" stroke="black" points="921.375,-205.76 924.875,-215.76 928.375,-205.76 921.375,-205.76"/>
</g>
<!-- SelectButtonModule  -->
<g id="node40" class="node"><title>SelectButtonModule </title>
<polygon fill="#fb8072" stroke="black" points="833.876,-252 698.124,-252 698.124,-216 833.876,-216 833.876,-252"/>
<text text-anchor="middle" x="766" y="-229.8" font-family="Times,serif" font-size="14.00">SelectButtonModule </text>
</g>
<!-- RebirthUIModule&#45;&gt;SelectButtonModule  -->
<g id="edge39" class="edge"><title>RebirthUIModule&#45;&gt;SelectButtonModule </title>
<path fill="none" stroke="black" stroke-dasharray="5,2" d="M1457.58,-179C1282.69,-179 775.375,-179 775.375,-179 775.375,-179 775.375,-205.991 775.375,-205.991"/>
<polygon fill="black" stroke="black" points="771.875,-205.991 775.375,-215.991 778.875,-205.991 771.875,-205.991"/>
</g>
<!-- OverlayModule  -->
<g id="node41" class="node"><title>OverlayModule </title>
<polygon fill="#fb8072" stroke="black" points="680.137,-252 571.863,-252 571.863,-216 680.137,-216 680.137,-252"/>
<text text-anchor="middle" x="626" y="-229.8" font-family="Times,serif" font-size="14.00">OverlayModule </text>
</g>
<!-- RebirthUIModule&#45;&gt;OverlayModule  -->
<g id="edge40" class="edge"><title>RebirthUIModule&#45;&gt;OverlayModule </title>
<path fill="none" stroke="black" stroke-dasharray="5,2" d="M1457.67,-177C1261.43,-177 637.375,-177 637.375,-177 637.375,-177 637.375,-205.965 637.375,-205.965"/>
<polygon fill="black" stroke="black" points="633.875,-205.965 637.375,-215.965 640.875,-205.965 633.875,-205.965"/>
</g>
<!-- CarouselModule  -->
<g id="node42" class="node"><title>CarouselModule </title>
<polygon fill="#fb8072" stroke="black" points="554.312,-252 441.688,-252 441.688,-216 554.312,-216 554.312,-252"/>
<text text-anchor="middle" x="498" y="-229.8" font-family="Times,serif" font-size="14.00">CarouselModule </text>
</g>
<!-- RebirthUIModule&#45;&gt;CarouselModule  -->
<g id="edge41" class="edge"><title>RebirthUIModule&#45;&gt;CarouselModule </title>
<path fill="none" stroke="black" stroke-dasharray="5,2" d="M1457.62,-175C1243.1,-175 510.875,-175 510.875,-175 510.875,-175 510.875,-205.977 510.875,-205.977"/>
<polygon fill="black" stroke="black" points="507.375,-205.977 510.875,-215.977 514.375,-205.978 507.375,-205.977"/>
</g>
<!-- SwitchModule  -->
<g id="node43" class="node"><title>SwitchModule </title>
<polygon fill="#fb8072" stroke="black" points="423.935,-252 322.065,-252 322.065,-216 423.935,-216 423.935,-252"/>
<text text-anchor="middle" x="373" y="-229.8" font-family="Times,serif" font-size="14.00">SwitchModule </text>
</g>
<!-- RebirthUIModule&#45;&gt;SwitchModule  -->
<g id="edge42" class="edge"><title>RebirthUIModule&#45;&gt;SwitchModule </title>
<path fill="none" stroke="black" stroke-dasharray="5,2" d="M1457.7,-174C1226.59,-174 387.375,-174 387.375,-174 387.375,-174 387.375,-205.998 387.375,-205.998"/>
<polygon fill="black" stroke="black" points="383.875,-205.998 387.375,-215.998 390.875,-205.998 383.875,-205.998"/>
</g>
<!-- MenuBarModule  -->
<g id="node44" class="node"><title>MenuBarModule </title>
<polygon fill="#fb8072" stroke="black" points="303.921,-252 188.079,-252 188.079,-216 303.921,-216 303.921,-252"/>
<text text-anchor="middle" x="246" y="-229.8" font-family="Times,serif" font-size="14.00">MenuBarModule </text>
</g>
<!-- RebirthUIModule&#45;&gt;MenuBarModule  -->
<g id="edge43" class="edge"><title>RebirthUIModule&#45;&gt;MenuBarModule </title>
<path fill="none" stroke="black" stroke-dasharray="5,2" d="M1457.63,-172C1210.43,-172 262.375,-172 262.375,-172 262.375,-172 262.375,-205.733 262.375,-205.733"/>
<polygon fill="black" stroke="black" points="258.875,-205.733 262.375,-215.733 265.875,-205.733 258.875,-205.733"/>
</g>
<!-- AutoCompleteModule  -->
<g id="node45" class="node"><title>AutoCompleteModule </title>
<polygon fill="#fb8072" stroke="black" points="169.985,-252 24.0146,-252 24.0146,-216 169.985,-216 169.985,-252"/>
<text text-anchor="middle" x="97" y="-229.8" font-family="Times,serif" font-size="14.00">AutoCompleteModule </text>
</g>
<!-- RebirthUIModule&#45;&gt;AutoCompleteModule  -->
<g id="edge44" class="edge"><title>RebirthUIModule&#45;&gt;AutoCompleteModule </title>
<path fill="none" stroke="black" stroke-dasharray="5,2" d="M1457.6,-170C1192.52,-170 115.375,-170 115.375,-170 115.375,-170 115.375,-205.831 115.375,-205.831"/>
<polygon fill="black" stroke="black" points="111.875,-205.831 115.375,-215.831 118.875,-205.831 111.875,-205.831"/>
</g>
</g>
</svg>
