<?xml version="1.0" encoding="UTF-8" standalone="no"?>
<!DOCTYPE svg PUBLIC "-//W3C//DTD SVG 1.1//EN"
 "http://www.w3.org/Graphics/SVG/1.1/DTD/svg11.dtd">
<!-- Generated by graphviz version 2.38.0 (20140413.2041)
 -->
<!-- Title: dependencies Pages: 1 -->
<svg width="3544pt" height="284pt"
 viewBox="0.00 0.00 3544.00 284.00" xmlns="http://www.w3.org/2000/svg" xmlns:xlink="http://www.w3.org/1999/xlink">
<g id="graph0" class="graph" transform="scale(1 1) rotate(0) translate(4 280)">
<title>dependencies</title>
<polygon fill="white" stroke="none" points="-4,4 -4,-280 3540,-280 3540,4 -4,4"/>
<text text-anchor="start" x="1747.01" y="-42.4" font-family="sans-serif" font-weight="bold" font-size="14.00">Legend</text>
<polygon fill="#ffffb3" stroke="none" points="1534,-10 1534,-30 1554,-30 1554,-10 1534,-10"/>
<text text-anchor="start" x="1557.63" y="-15.4" font-family="sans-serif" font-size="14.00"> &#160;Declarations</text>
<polygon fill="#8dd3c7" stroke="none" points="1647,-10 1647,-30 1667,-30 1667,-10 1647,-10"/>
<text text-anchor="start" x="1670.73" y="-15.4" font-family="sans-serif" font-size="14.00"> &#160;Module</text>
<polygon fill="#80b1d3" stroke="none" points="1733,-10 1733,-30 1753,-30 1753,-10 1733,-10"/>
<text text-anchor="start" x="1756.78" y="-15.4" font-family="sans-serif" font-size="14.00"> &#160;Bootstrap</text>
<polygon fill="#fdb462" stroke="none" points="1830,-10 1830,-30 1850,-30 1850,-10 1830,-10"/>
<text text-anchor="start" x="1853.67" y="-15.4" font-family="sans-serif" font-size="14.00"> &#160;Providers</text>
<polygon fill="#fb8072" stroke="none" points="1926,-10 1926,-30 1946,-30 1946,-10 1926,-10"/>
<text text-anchor="start" x="1949.73" y="-15.4" font-family="sans-serif" font-size="14.00"> &#160;Exports</text>
<g id="clust1" class="cluster"><title>cluster_RebirthUIModule</title>
<polygon fill="none" stroke="black" stroke-dasharray="1,5" points="8,-70 8,-268 3528,-268 3528,-70 8,-70"/>
</g>
<g id="clust3" class="cluster"><title>cluster_RebirthUIModule_imports</title>
<polygon fill="none" stroke="black" points="57,-78 57,-130 3472,-130 3472,-78 57,-78"/>
</g>
<g id="clust4" class="cluster"><title>cluster_RebirthUIModule_exports</title>
<polygon fill="none" stroke="black" points="16,-208 16,-260 3520,-260 3520,-208 16,-208"/>
</g>
<!-- RebirthCommonModule -->
<g id="node1" class="node"><title>RebirthCommonModule</title>
<polygon fill="#8dd3c7" stroke="black" points="3463.66,-122 3460.66,-126 3439.66,-126 3436.66,-122 3310.34,-122 3310.34,-86 3463.66,-86 3463.66,-122"/>
<text text-anchor="middle" x="3387" y="-99.8" font-family="Times,serif" font-size="14.00">RebirthCommonModule</text>
</g>
<!-- RebirthUIModule -->
<g id="node27" class="node"><title>RebirthUIModule</title>
<polygon fill="#8dd3c7" stroke="black" points="1881.31,-187 1878.31,-191 1857.31,-191 1854.31,-187 1764.69,-187 1764.69,-151 1881.31,-151 1881.31,-187"/>
<text text-anchor="middle" x="1823" y="-164.8" font-family="Times,serif" font-size="14.00">RebirthUIModule</text>
</g>
<!-- RebirthCommonModule&#45;&gt;RebirthUIModule -->
<g id="edge1" class="edge"><title>RebirthCommonModule&#45;&gt;RebirthUIModule</title>
<path fill="none" stroke="black" d="M3323.48,-122.106C3323.48,-141.339 3323.48,-169 3323.48,-169 3323.48,-169 1891.36,-169 1891.36,-169"/>
<polygon fill="black" stroke="black" points="1891.36,-165.5 1881.36,-169 1891.36,-172.5 1891.36,-165.5"/>
</g>
<!-- ModalModule -->
<g id="node2" class="node"><title>ModalModule</title>
<polygon fill="#8dd3c7" stroke="black" points="3292.1,-122 3289.1,-126 3268.1,-126 3265.1,-122 3195.9,-122 3195.9,-86 3292.1,-86 3292.1,-122"/>
<text text-anchor="middle" x="3244" y="-99.8" font-family="Times,serif" font-size="14.00">ModalModule</text>
</g>
<!-- ModalModule&#45;&gt;RebirthUIModule -->
<g id="edge2" class="edge"><title>ModalModule&#45;&gt;RebirthUIModule</title>
<path fill="none" stroke="black" d="M3207.76,-122.222C3207.76,-140.829 3207.76,-167 3207.76,-167 3207.76,-167 1891.18,-167 1891.18,-167"/>
<polygon fill="black" stroke="black" points="1891.18,-163.5 1881.18,-167 1891.18,-170.5 1891.18,-163.5"/>
</g>
<!-- DialogModule -->
<g id="node3" class="node"><title>DialogModule</title>
<polygon fill="#8dd3c7" stroke="black" points="3177.65,-122 3174.65,-126 3153.65,-126 3150.65,-122 3080.35,-122 3080.35,-86 3177.65,-86 3177.65,-122"/>
<text text-anchor="middle" x="3129" y="-99.8" font-family="Times,serif" font-size="14.00">DialogModule</text>
</g>
<!-- DialogModule&#45;&gt;RebirthUIModule -->
<g id="edge3" class="edge"><title>DialogModule&#45;&gt;RebirthUIModule</title>
<path fill="none" stroke="black" d="M3090.32,-122.267C3090.32,-140.555 3090.32,-166 3090.32,-166 3090.32,-166 1891.16,-166 1891.16,-166"/>
<polygon fill="black" stroke="black" points="1891.16,-162.5 1881.16,-166 1891.16,-169.5 1891.16,-162.5"/>
</g>
<!-- PagerModule -->
<g id="node4" class="node"><title>PagerModule</title>
<polygon fill="#8dd3c7" stroke="black" points="3061.92,-122 3058.92,-126 3037.92,-126 3034.92,-122 2970.08,-122 2970.08,-86 3061.92,-86 3061.92,-122"/>
<text text-anchor="middle" x="3016" y="-99.8" font-family="Times,serif" font-size="14.00">PagerModule</text>
</g>
<!-- PagerModule&#45;&gt;RebirthUIModule -->
<g id="edge4" class="edge"><title>PagerModule&#45;&gt;RebirthUIModule</title>
<path fill="none" stroke="black" d="M2978.88,-122.002C2978.88,-139.675 2978.88,-164 2978.88,-164 2978.88,-164 1891.51,-164 1891.51,-164"/>
<polygon fill="black" stroke="black" points="1891.51,-160.5 1881.51,-164 1891.51,-167.5 1891.51,-160.5"/>
</g>
<!-- PaginationModule -->
<g id="node5" class="node"><title>PaginationModule</title>
<polygon fill="#8dd3c7" stroke="black" points="2952.93,-122 2949.93,-126 2928.93,-126 2925.93,-122 2833.07,-122 2833.07,-86 2952.93,-86 2952.93,-122"/>
<text text-anchor="middle" x="2893" y="-99.8" font-family="Times,serif" font-size="14.00">PaginationModule</text>
</g>
<!-- PaginationModule&#45;&gt;RebirthUIModule -->
<g id="edge5" class="edge"><title>PaginationModule&#45;&gt;RebirthUIModule</title>
<path fill="none" stroke="black" d="M2839.93,-122.023C2839.93,-139.373 2839.93,-163 2839.93,-163 2839.93,-163 1891.33,-163 1891.33,-163"/>
<polygon fill="black" stroke="black" points="1891.33,-159.5 1881.33,-163 1891.33,-166.5 1891.33,-159.5"/>
</g>
<!-- AlertBoxModule -->
<g id="node6" class="node"><title>AlertBoxModule</title>
<polygon fill="#8dd3c7" stroke="black" points="2814.65,-122 2811.65,-126 2790.65,-126 2787.65,-122 2703.35,-122 2703.35,-86 2814.65,-86 2814.65,-122"/>
<text text-anchor="middle" x="2759" y="-99.8" font-family="Times,serif" font-size="14.00">AlertBoxModule</text>
</g>
<!-- AlertBoxModule&#45;&gt;RebirthUIModule -->
<g id="edge6" class="edge"><title>AlertBoxModule&#45;&gt;RebirthUIModule</title>
<path fill="none" stroke="black" d="M2708.29,-122.034C2708.29,-139.06 2708.29,-162 2708.29,-162 2708.29,-162 1891.43,-162 1891.43,-162"/>
<polygon fill="black" stroke="black" points="1891.43,-158.5 1881.43,-162 1891.43,-165.5 1891.43,-158.5"/>
</g>
<!-- BadgeModule -->
<g id="node7" class="node"><title>BadgeModule</title>
<polygon fill="#8dd3c7" stroke="black" points="2685.82,-122 2682.82,-126 2661.82,-126 2658.82,-122 2590.18,-122 2590.18,-86 2685.82,-86 2685.82,-122"/>
<text text-anchor="middle" x="2638" y="-99.8" font-family="Times,serif" font-size="14.00">BadgeModule</text>
</g>
<!-- BadgeModule&#45;&gt;RebirthUIModule -->
<g id="edge7" class="edge"><title>BadgeModule&#45;&gt;RebirthUIModule</title>
<path fill="none" stroke="black" d="M2605.83,-122.027C2605.83,-138.398 2605.83,-160 2605.83,-160 2605.83,-160 1891.2,-160 1891.2,-160"/>
<polygon fill="black" stroke="black" points="1891.2,-156.5 1881.2,-160 1891.2,-163.5 1891.2,-156.5"/>
</g>
<!-- PanelModule -->
<g id="node8" class="node"><title>PanelModule</title>
<polygon fill="#8dd3c7" stroke="black" points="2572.15,-122 2569.15,-126 2548.15,-126 2545.15,-122 2481.85,-122 2481.85,-86 2572.15,-86 2572.15,-122"/>
<text text-anchor="middle" x="2527" y="-99.8" font-family="Times,serif" font-size="14.00">PanelModule</text>
</g>
<!-- PanelModule&#45;&gt;RebirthUIModule -->
<g id="edge8" class="edge"><title>PanelModule&#45;&gt;RebirthUIModule</title>
<path fill="none" stroke="black" d="M2494,-122.009C2494,-138.049 2494,-159 2494,-159 2494,-159 1891.37,-159 1891.37,-159"/>
<polygon fill="black" stroke="black" points="1891.37,-155.5 1881.37,-159 1891.37,-162.5 1891.37,-155.5"/>
</g>
<!-- AccordionModule -->
<g id="node9" class="node"><title>AccordionModule</title>
<polygon fill="#8dd3c7" stroke="black" points="2463.14,-122 2460.14,-126 2439.14,-126 2436.14,-122 2344.86,-122 2344.86,-86 2463.14,-86 2463.14,-122"/>
<text text-anchor="middle" x="2404" y="-99.8" font-family="Times,serif" font-size="14.00">AccordionModule</text>
</g>
<!-- AccordionModule&#45;&gt;RebirthUIModule -->
<g id="edge9" class="edge"><title>AccordionModule&#45;&gt;RebirthUIModule</title>
<path fill="none" stroke="black" d="M2353.81,-122.24C2353.81,-137.571 2353.81,-157 2353.81,-157 2353.81,-157 1891.32,-157 1891.32,-157"/>
<polygon fill="black" stroke="black" points="1891.32,-153.5 1881.32,-157 1891.32,-160.5 1891.32,-153.5"/>
</g>
<!-- ActionButtonModule -->
<g id="node10" class="node"><title>ActionButtonModule</title>
<polygon fill="#8dd3c7" stroke="black" points="2326.77,-122 2323.77,-126 2302.77,-126 2299.77,-122 2191.23,-122 2191.23,-86 2326.77,-86 2326.77,-122"/>
<text text-anchor="middle" x="2259" y="-99.8" font-family="Times,serif" font-size="14.00">ActionButtonModule</text>
</g>
<!-- ActionButtonModule&#45;&gt;RebirthUIModule -->
<g id="edge10" class="edge"><title>ActionButtonModule&#45;&gt;RebirthUIModule</title>
<path fill="none" stroke="black" d="M2198.24,-122.187C2198.24,-137.182 2198.24,-156 2198.24,-156 2198.24,-156 1891.22,-156 1891.22,-156"/>
<polygon fill="black" stroke="black" points="1891.22,-152.5 1881.22,-156 1891.22,-159.5 1891.22,-152.5"/>
</g>
<!-- RatingModule -->
<g id="node11" class="node"><title>RatingModule</title>
<polygon fill="#8dd3c7" stroke="black" points="2173.38,-122 2170.38,-126 2149.38,-126 2146.38,-122 2076.62,-122 2076.62,-86 2173.38,-86 2173.38,-122"/>
<text text-anchor="middle" x="2125" y="-99.8" font-family="Times,serif" font-size="14.00">RatingModule</text>
</g>
<!-- RatingModule&#45;&gt;RebirthUIModule -->
<g id="edge11" class="edge"><title>RatingModule&#45;&gt;RebirthUIModule</title>
<path fill="none" stroke="black" d="M2081.68,-122.051C2081.68,-136.373 2081.68,-154 2081.68,-154 2081.68,-154 1891.38,-154 1891.38,-154"/>
<polygon fill="black" stroke="black" points="1891.38,-150.5 1881.38,-154 1891.38,-157.5 1891.38,-150.5"/>
</g>
<!-- TabsModule -->
<g id="node12" class="node"><title>TabsModule</title>
<polygon fill="#8dd3c7" stroke="black" points="2058.26,-122 2055.26,-126 2034.26,-126 2031.26,-122 1971.74,-122 1971.74,-86 2058.26,-86 2058.26,-122"/>
<text text-anchor="middle" x="2015" y="-99.8" font-family="Times,serif" font-size="14.00">TabsModule</text>
</g>
<!-- TabsModule&#45;&gt;RebirthUIModule -->
<g id="edge12" class="edge"><title>TabsModule&#45;&gt;RebirthUIModule</title>
<path fill="none" stroke="black" d="M1975.24,-122.246C1975.24,-136.177 1975.24,-153 1975.24,-153 1975.24,-153 1891.43,-153 1891.43,-153"/>
<polygon fill="black" stroke="black" points="1891.43,-149.5 1881.43,-153 1891.43,-156.5 1891.43,-149.5"/>
</g>
<!-- TooltipModule -->
<g id="node13" class="node"><title>TooltipModule</title>
<polygon fill="#8dd3c7" stroke="black" points="1953.27,-122 1950.27,-126 1929.27,-126 1926.27,-122 1852.73,-122 1852.73,-86 1953.27,-86 1953.27,-122"/>
<text text-anchor="middle" x="1903" y="-99.8" font-family="Times,serif" font-size="14.00">TooltipModule</text>
</g>
<!-- TooltipModule&#45;&gt;RebirthUIModule -->
<g id="edge13" class="edge"><title>TooltipModule&#45;&gt;RebirthUIModule</title>
<path fill="none" stroke="black" d="M1866.88,-122.106C1866.88,-122.106 1866.88,-140.991 1866.88,-140.991"/>
<polygon fill="black" stroke="black" points="1863.38,-140.991 1866.88,-150.991 1870.38,-140.991 1863.38,-140.991"/>
</g>
<!-- PopoverModule -->
<g id="node14" class="node"><title>PopoverModule</title>
<polygon fill="#8dd3c7" stroke="black" points="1835.21,-122 1832.21,-126 1811.21,-126 1808.21,-122 1728.79,-122 1728.79,-86 1835.21,-86 1835.21,-122"/>
<text text-anchor="middle" x="1782" y="-99.8" font-family="Times,serif" font-size="14.00">PopoverModule</text>
</g>
<!-- PopoverModule&#45;&gt;RebirthUIModule -->
<g id="edge14" class="edge"><title>PopoverModule&#45;&gt;RebirthUIModule</title>
<path fill="none" stroke="black" d="M1799.97,-122.106C1799.97,-122.106 1799.97,-140.991 1799.97,-140.991"/>
<polygon fill="black" stroke="black" points="1796.47,-140.991 1799.97,-150.991 1803.47,-140.991 1796.47,-140.991"/>
</g>
<!-- DatePickerModule -->
<g id="node15" class="node"><title>DatePickerModule</title>
<polygon fill="#8dd3c7" stroke="black" points="1710.74,-122 1707.74,-126 1686.74,-126 1683.74,-122 1589.26,-122 1589.26,-86 1710.74,-86 1710.74,-122"/>
<text text-anchor="middle" x="1650" y="-99.8" font-family="Times,serif" font-size="14.00">DatePickerModule</text>
</g>
<!-- DatePickerModule&#45;&gt;RebirthUIModule -->
<g id="edge15" class="edge"><title>DatePickerModule&#45;&gt;RebirthUIModule</title>
<path fill="none" stroke="black" d="M1670.29,-122.246C1670.29,-136.177 1670.29,-153 1670.29,-153 1670.29,-153 1754.83,-153 1754.83,-153"/>
<polygon fill="black" stroke="black" points="1754.83,-156.5 1764.83,-153 1754.83,-149.5 1754.83,-156.5"/>
</g>
<!-- BreadcrumbsModule -->
<g id="node16" class="node"><title>BreadcrumbsModule</title>
<polygon fill="#8dd3c7" stroke="black" points="1571.19,-122 1568.19,-126 1547.19,-126 1544.19,-122 1436.81,-122 1436.81,-86 1571.19,-86 1571.19,-122"/>
<text text-anchor="middle" x="1504" y="-99.8" font-family="Times,serif" font-size="14.00">BreadcrumbsModule</text>
</g>
<!-- BreadcrumbsModule&#45;&gt;RebirthUIModule -->
<g id="edge16" class="edge"><title>BreadcrumbsModule&#45;&gt;RebirthUIModule</title>
<path fill="none" stroke="black" d="M1524.86,-122.051C1524.86,-136.373 1524.86,-154 1524.86,-154 1524.86,-154 1754.81,-154 1754.81,-154"/>
<polygon fill="black" stroke="black" points="1754.81,-157.5 1764.81,-154 1754.81,-150.5 1754.81,-157.5"/>
</g>
<!-- ProgressBarModule -->
<g id="node17" class="node"><title>ProgressBarModule</title>
<polygon fill="#8dd3c7" stroke="black" points="1418.97,-122 1415.97,-126 1394.97,-126 1391.97,-122 1291.03,-122 1291.03,-86 1418.97,-86 1418.97,-122"/>
<text text-anchor="middle" x="1355" y="-99.8" font-family="Times,serif" font-size="14.00">ProgressBarModule</text>
</g>
<!-- ProgressBarModule&#45;&gt;RebirthUIModule -->
<g id="edge17" class="edge"><title>ProgressBarModule&#45;&gt;RebirthUIModule</title>
<path fill="none" stroke="black" d="M1372.16,-122.187C1372.16,-137.182 1372.16,-156 1372.16,-156 1372.16,-156 1754.52,-156 1754.52,-156"/>
<polygon fill="black" stroke="black" points="1754.52,-159.5 1764.52,-156 1754.52,-152.5 1754.52,-159.5"/>
</g>
<!-- SelectButtonModule -->
<g id="node18" class="node"><title>SelectButtonModule</title>
<polygon fill="#8dd3c7" stroke="black" points="1272.88,-122 1269.88,-126 1248.88,-126 1245.88,-122 1141.12,-122 1141.12,-86 1272.88,-86 1272.88,-122"/>
<text text-anchor="middle" x="1207" y="-99.8" font-family="Times,serif" font-size="14.00">SelectButtonModule</text>
</g>
<!-- SelectButtonModule&#45;&gt;RebirthUIModule -->
<g id="edge18" class="edge"><title>SelectButtonModule&#45;&gt;RebirthUIModule</title>
<path fill="none" stroke="black" d="M1268.31,-122.24C1268.31,-137.571 1268.31,-157 1268.31,-157 1268.31,-157 1754.69,-157 1754.69,-157"/>
<polygon fill="black" stroke="black" points="1754.69,-160.5 1764.69,-157 1754.69,-153.5 1754.69,-160.5"/>
</g>
<!-- OverlayModule -->
<g id="node19" class="node"><title>OverlayModule</title>
<polygon fill="#8dd3c7" stroke="black" points="1123.14,-122 1120.14,-126 1099.14,-126 1096.14,-122 1018.86,-122 1018.86,-86 1123.14,-86 1123.14,-122"/>
<text text-anchor="middle" x="1071" y="-99.8" font-family="Times,serif" font-size="14.00">OverlayModule</text>
</g>
<!-- OverlayModule&#45;&gt;RebirthUIModule -->
<g id="edge19" class="edge"><title>OverlayModule&#45;&gt;RebirthUIModule</title>
<path fill="none" stroke="black" d="M1116.69,-122.009C1116.69,-138.049 1116.69,-159 1116.69,-159 1116.69,-159 1754.6,-159 1754.6,-159"/>
<polygon fill="black" stroke="black" points="1754.6,-162.5 1764.6,-159 1754.6,-155.5 1754.6,-162.5"/>
</g>
<!-- CarouselModule -->
<g id="node20" class="node"><title>CarouselModule</title>
<polygon fill="#8dd3c7" stroke="black" points="1000.81,-122 997.812,-126 976.812,-126 973.812,-122 891.188,-122 891.188,-86 1000.81,-86 1000.81,-122"/>
<text text-anchor="middle" x="946" y="-99.8" font-family="Times,serif" font-size="14.00">CarouselModule</text>
</g>
<!-- CarouselModule&#45;&gt;RebirthUIModule -->
<g id="edge20" class="edge"><title>CarouselModule&#45;&gt;RebirthUIModule</title>
<path fill="none" stroke="black" d="M992.531,-122.027C992.531,-138.398 992.531,-160 992.531,-160 992.531,-160 1754.6,-160 1754.6,-160"/>
<polygon fill="black" stroke="black" points="1754.6,-163.5 1764.6,-160 1754.6,-156.5 1754.6,-163.5"/>
</g>
<!-- SwitchModule -->
<g id="node21" class="node"><title>SwitchModule</title>
<polygon fill="#8dd3c7" stroke="black" points="873.436,-122 870.436,-126 849.436,-126 846.436,-122 774.564,-122 774.564,-86 873.436,-86 873.436,-122"/>
<text text-anchor="middle" x="824" y="-99.8" font-family="Times,serif" font-size="14.00">SwitchModule</text>
</g>
<!-- SwitchModule&#45;&gt;RebirthUIModule -->
<g id="edge21" class="edge"><title>SwitchModule&#45;&gt;RebirthUIModule</title>
<path fill="none" stroke="black" d="M862.781,-122.034C862.781,-139.06 862.781,-162 862.781,-162 862.781,-162 1754.74,-162 1754.74,-162"/>
<polygon fill="black" stroke="black" points="1754.74,-165.5 1764.74,-162 1754.74,-158.5 1754.74,-165.5"/>
</g>
<!-- MenuBarModule -->
<g id="node22" class="node"><title>MenuBarModule</title>
<polygon fill="#8dd3c7" stroke="black" points="757.422,-122 754.422,-126 733.422,-126 730.422,-122 644.578,-122 644.578,-86 757.422,-86 757.422,-122"/>
<text text-anchor="middle" x="701" y="-99.8" font-family="Times,serif" font-size="14.00">MenuBarModule</text>
</g>
<!-- MenuBarModule&#45;&gt;RebirthUIModule -->
<g id="edge22" class="edge"><title>MenuBarModule&#45;&gt;RebirthUIModule</title>
<path fill="none" stroke="black" d="M742.996,-122.023C742.996,-139.373 742.996,-163 742.996,-163 742.996,-163 1754.55,-163 1754.55,-163"/>
<polygon fill="black" stroke="black" points="1754.55,-166.5 1764.55,-163 1754.55,-159.5 1754.55,-166.5"/>
</g>
<!-- AutoCompleteModule -->
<g id="node23" class="node"><title>AutoCompleteModule</title>
<polygon fill="#8dd3c7" stroke="black" points="626.985,-122 623.985,-126 602.985,-126 599.985,-122 485.015,-122 485.015,-86 626.985,-86 626.985,-122"/>
<text text-anchor="middle" x="556" y="-99.8" font-family="Times,serif" font-size="14.00">AutoCompleteModule</text>
</g>
<!-- AutoCompleteModule&#45;&gt;RebirthUIModule -->
<g id="edge23" class="edge"><title>AutoCompleteModule&#45;&gt;RebirthUIModule</title>
<path fill="none" stroke="black" d="M622.516,-122.002C622.516,-139.675 622.516,-164 622.516,-164 622.516,-164 1754.69,-164 1754.69,-164"/>
<polygon fill="black" stroke="black" points="1754.69,-167.5 1764.69,-164 1754.69,-160.5 1754.69,-167.5"/>
</g>
<!-- FlowStepModule -->
<g id="node24" class="node"><title>FlowStepModule</title>
<polygon fill="#8dd3c7" stroke="black" points="466.718,-122 463.718,-126 442.718,-126 439.718,-122 353.282,-122 353.282,-86 466.718,-86 466.718,-122"/>
<text text-anchor="middle" x="410" y="-99.8" font-family="Times,serif" font-size="14.00">FlowStepModule</text>
</g>
<!-- FlowStepModule&#45;&gt;RebirthUIModule -->
<g id="edge24" class="edge"><title>FlowStepModule&#45;&gt;RebirthUIModule</title>
<path fill="none" stroke="black" d="M460.433,-122.267C460.433,-140.555 460.433,-166 460.433,-166 460.433,-166 1754.45,-166 1754.45,-166"/>
<polygon fill="black" stroke="black" points="1754.45,-169.5 1764.45,-166 1754.45,-162.5 1754.45,-169.5"/>
</g>
<!-- InfiniteScrollModule -->
<g id="node25" class="node"><title>InfiniteScrollModule</title>
<polygon fill="#8dd3c7" stroke="black" points="335.197,-122 332.197,-126 311.197,-126 308.197,-122 200.803,-122 200.803,-86 335.197,-86 335.197,-122"/>
<text text-anchor="middle" x="268" y="-99.8" font-family="Times,serif" font-size="14.00">InfiniteScrollModule</text>
</g>
<!-- InfiniteScrollModule&#45;&gt;RebirthUIModule -->
<g id="edge25" class="edge"><title>InfiniteScrollModule&#45;&gt;RebirthUIModule</title>
<path fill="none" stroke="black" d="M327.37,-122.222C327.37,-140.829 327.37,-167 327.37,-167 327.37,-167 1754.83,-167 1754.83,-167"/>
<polygon fill="black" stroke="black" points="1754.83,-170.5 1764.83,-167 1754.83,-163.5 1754.83,-170.5"/>
</g>
<!-- DataTableModule -->
<g id="node26" class="node"><title>DataTableModule</title>
<polygon fill="#8dd3c7" stroke="black" points="182.849,-122 179.849,-126 158.849,-126 155.849,-122 65.1513,-122 65.1513,-86 182.849,-86 182.849,-122"/>
<text text-anchor="middle" x="124" y="-99.8" font-family="Times,serif" font-size="14.00">DataTableModule</text>
</g>
<!-- DataTableModule&#45;&gt;RebirthUIModule -->
<g id="edge26" class="edge"><title>DataTableModule&#45;&gt;RebirthUIModule</title>
<path fill="none" stroke="black" d="M173.538,-122.106C173.538,-141.339 173.538,-169 173.538,-169 173.538,-169 1754.78,-169 1754.78,-169"/>
<polygon fill="black" stroke="black" points="1754.78,-172.5 1764.78,-169 1754.78,-165.5 1754.78,-172.5"/>
</g>
<!-- RebirthCommonModule  -->
<g id="node28" class="node"><title>RebirthCommonModule </title>
<polygon fill="#fb8072" stroke="black" points="3511.66,-252 3354.34,-252 3354.34,-216 3511.66,-216 3511.66,-252"/>
<text text-anchor="middle" x="3433" y="-229.8" font-family="Times,serif" font-size="14.00">RebirthCommonModule </text>
</g>
<!-- RebirthUIModule&#45;&gt;RebirthCommonModule  -->
<g id="edge27" class="edge"><title>RebirthUIModule&#45;&gt;RebirthCommonModule </title>
<path fill="none" stroke="black" stroke-dasharray="5,2" d="M1881.33,-170C2167.49,-170 3409.12,-170 3409.12,-170 3409.12,-170 3409.12,-205.831 3409.12,-205.831"/>
<polygon fill="black" stroke="black" points="3405.63,-205.831 3409.12,-215.831 3412.63,-205.831 3405.63,-205.831"/>
</g>
<!-- ModalModule  -->
<g id="node29" class="node"><title>ModalModule </title>
<polygon fill="#fb8072" stroke="black" points="3336.6,-252 3237.4,-252 3237.4,-216 3336.6,-216 3336.6,-252"/>
<text text-anchor="middle" x="3287" y="-229.8" font-family="Times,serif" font-size="14.00">ModalModule </text>
</g>
<!-- RebirthUIModule&#45;&gt;ModalModule  -->
<g id="edge28" class="edge"><title>RebirthUIModule&#45;&gt;ModalModule </title>
<path fill="none" stroke="black" stroke-dasharray="5,2" d="M1881.3,-172C2151,-172 3264.62,-172 3264.62,-172 3264.62,-172 3264.62,-205.733 3264.62,-205.733"/>
<polygon fill="black" stroke="black" points="3261.13,-205.733 3264.62,-215.733 3268.13,-205.733 3261.13,-205.733"/>
</g>
<!-- DialogModule  -->
<g id="node30" class="node"><title>DialogModule </title>
<polygon fill="#fb8072" stroke="black" points="3219.65,-252 3118.35,-252 3118.35,-216 3219.65,-216 3219.65,-252"/>
<text text-anchor="middle" x="3169" y="-229.8" font-family="Times,serif" font-size="14.00">DialogModule </text>
</g>
<!-- RebirthUIModule&#45;&gt;DialogModule  -->
<g id="edge29" class="edge"><title>RebirthUIModule&#45;&gt;DialogModule </title>
<path fill="none" stroke="black" stroke-dasharray="5,2" d="M1881.22,-173C2136.97,-173 3148.12,-173 3148.12,-173 3148.12,-173 3148.12,-205.698 3148.12,-205.698"/>
<polygon fill="black" stroke="black" points="3144.63,-205.698 3148.12,-215.698 3151.63,-205.698 3144.63,-205.698"/>
</g>
<!-- PagerModule  -->
<g id="node31" class="node"><title>PagerModule </title>
<polygon fill="#fb8072" stroke="black" points="3100.42,-252 3005.58,-252 3005.58,-216 3100.42,-216 3100.42,-252"/>
<text text-anchor="middle" x="3053" y="-229.8" font-family="Times,serif" font-size="14.00">PagerModule </text>
</g>
<!-- RebirthUIModule&#45;&gt;PagerModule  -->
<g id="edge30" class="edge"><title>RebirthUIModule&#45;&gt;PagerModule </title>
<path fill="none" stroke="black" stroke-dasharray="5,2" d="M1881.39,-175C2123.22,-175 3033.62,-175 3033.62,-175 3033.62,-175 3033.62,-205.977 3033.62,-205.977"/>
<polygon fill="black" stroke="black" points="3030.13,-205.977 3033.62,-215.977 3037.13,-205.978 3030.13,-205.977"/>
</g>
<!-- PaginationModule  -->
<g id="node32" class="node"><title>PaginationModule </title>
<polygon fill="#fb8072" stroke="black" points="2987.43,-252 2864.57,-252 2864.57,-216 2987.43,-216 2987.43,-252"/>
<text text-anchor="middle" x="2926" y="-229.8" font-family="Times,serif" font-size="14.00">PaginationModule </text>
</g>
<!-- RebirthUIModule&#45;&gt;PaginationModule  -->
<g id="edge31" class="edge"><title>RebirthUIModule&#45;&gt;PaginationModule </title>
<path fill="none" stroke="black" stroke-dasharray="5,2" d="M1881.37,-176C2106.86,-176 2908.62,-176 2908.62,-176 2908.62,-176 2908.62,-205.966 2908.62,-205.966"/>
<polygon fill="black" stroke="black" points="2905.13,-205.966 2908.62,-215.966 2912.13,-205.966 2905.13,-205.966"/>
</g>
<!-- AlertBoxModule  -->
<g id="node33" class="node"><title>AlertBoxModule </title>
<polygon fill="#fb8072" stroke="black" points="2846.65,-252 2731.35,-252 2731.35,-216 2846.65,-216 2846.65,-252"/>
<text text-anchor="middle" x="2789" y="-229.8" font-family="Times,serif" font-size="14.00">AlertBoxModule </text>
</g>
<!-- RebirthUIModule&#45;&gt;AlertBoxModule  -->
<g id="edge32" class="edge"><title>RebirthUIModule&#45;&gt;AlertBoxModule </title>
<path fill="none" stroke="black" stroke-dasharray="5,2" d="M1881.36,-177C2088.08,-177 2773.12,-177 2773.12,-177 2773.12,-177 2773.12,-205.965 2773.12,-205.965"/>
<polygon fill="black" stroke="black" points="2769.63,-205.965 2773.12,-215.965 2776.63,-205.965 2769.63,-205.965"/>
</g>
<!-- BadgeModule  -->
<g id="node34" class="node"><title>BadgeModule </title>
<polygon fill="#fb8072" stroke="black" points="2713.32,-252 2614.68,-252 2614.68,-216 2713.32,-216 2713.32,-252"/>
<text text-anchor="middle" x="2664" y="-229.8" font-family="Times,serif" font-size="14.00">BadgeModule </text>
</g>
<!-- RebirthUIModule&#45;&gt;BadgeModule  -->
<g id="edge33" class="edge"><title>RebirthUIModule&#45;&gt;BadgeModule </title>
<path fill="none" stroke="black" stroke-dasharray="5,2" d="M1881.16,-179C2069.43,-179 2650.12,-179 2650.12,-179 2650.12,-179 2650.12,-205.991 2650.12,-205.991"/>
<polygon fill="black" stroke="black" points="2646.63,-205.991 2650.12,-215.991 2653.63,-205.991 2646.63,-205.991"/>
</g>
<!-- PanelModule  -->
<g id="node35" class="node"><title>PanelModule </title>
<polygon fill="#fb8072" stroke="black" points="2597.15,-252 2502.85,-252 2502.85,-216 2597.15,-216 2597.15,-252"/>
<text text-anchor="middle" x="2550" y="-229.8" font-family="Times,serif" font-size="14.00">PanelModule </text>
</g>
<!-- RebirthUIModule&#45;&gt;PanelModule  -->
<g id="edge34" class="edge"><title>RebirthUIModule&#45;&gt;PanelModule </title>
<path fill="none" stroke="black" stroke-dasharray="5,2" d="M1881.18,-180C2051.58,-180 2537.62,-180 2537.62,-180 2537.62,-180 2537.62,-205.718 2537.62,-205.718"/>
<polygon fill="black" stroke="black" points="2534.13,-205.718 2537.62,-215.718 2541.13,-205.718 2534.13,-205.718"/>
</g>
<!-- AccordionModule  -->
<g id="node36" class="node"><title>AccordionModule </title>
<polygon fill="#fb8072" stroke="black" points="2485.14,-252 2362.86,-252 2362.86,-216 2485.14,-216 2485.14,-252"/>
<text text-anchor="middle" x="2424" y="-229.8" font-family="Times,serif" font-size="14.00">AccordionModule </text>
</g>
<!-- RebirthUIModule&#45;&gt;AccordionModule  -->
<g id="edge35" class="edge"><title>RebirthUIModule&#45;&gt;AccordionModule </title>
<path fill="none" stroke="black" stroke-dasharray="5,2" d="M1881.2,-182C2030.08,-182 2413.12,-182 2413.12,-182 2413.12,-182 2413.12,-205.813 2413.12,-205.813"/>
<polygon fill="black" stroke="black" points="2409.63,-205.813 2413.12,-215.813 2416.63,-205.813 2409.63,-205.813"/>
</g>
<!-- ActionButtonModule  -->
<g id="node37" class="node"><title>ActionButtonModule </title>
<polygon fill="#fb8072" stroke="black" points="2344.77,-252 2205.23,-252 2205.23,-216 2344.77,-216 2344.77,-252"/>
<text text-anchor="middle" x="2275" y="-229.8" font-family="Times,serif" font-size="14.00">ActionButtonModule </text>
</g>
<!-- RebirthUIModule&#45;&gt;ActionButtonModule  -->
<g id="edge36" class="edge"><title>RebirthUIModule&#45;&gt;ActionButtonModule </title>
<path fill="none" stroke="black" stroke-dasharray="5,2" d="M1881.39,-183C2001.71,-183 2266.12,-183 2266.12,-183 2266.12,-183 2266.12,-205.876 2266.12,-205.876"/>
<polygon fill="black" stroke="black" points="2262.63,-205.876 2266.12,-215.876 2269.63,-205.876 2262.63,-205.876"/>
</g>
<!-- RatingModule  -->
<g id="node38" class="node"><title>RatingModule </title>
<polygon fill="#fb8072" stroke="black" points="2187.38,-252 2086.62,-252 2086.62,-216 2187.38,-216 2187.38,-252"/>
<text text-anchor="middle" x="2137" y="-229.8" font-family="Times,serif" font-size="14.00">RatingModule </text>
</g>
<!-- RebirthUIModule&#45;&gt;RatingModule  -->
<g id="edge37" class="edge"><title>RebirthUIModule&#45;&gt;RatingModule </title>
<path fill="none" stroke="black" stroke-dasharray="5,2" d="M1881.49,-185C1970.6,-185 2130.12,-185 2130.12,-185 2130.12,-185 2130.12,-205.754 2130.12,-205.754"/>
<polygon fill="black" stroke="black" points="2126.63,-205.754 2130.12,-215.754 2133.63,-205.754 2126.63,-205.754"/>
</g>
<!-- TabsModule  -->
<g id="node39" class="node"><title>TabsModule </title>
<polygon fill="#fb8072" stroke="black" points="2069.26,-252 1978.74,-252 1978.74,-216 2069.26,-216 2069.26,-252"/>
<text text-anchor="middle" x="2024" y="-229.8" font-family="Times,serif" font-size="14.00">TabsModule </text>
</g>
<!-- RebirthUIModule&#45;&gt;TabsModule  -->
<g id="edge38" class="edge"><title>RebirthUIModule&#45;&gt;TabsModule </title>
<path fill="none" stroke="black" stroke-dasharray="5,2" d="M1881.16,-186C1938.83,-186 2018.62,-186 2018.62,-186 2018.62,-186 2018.62,-205.853 2018.62,-205.853"/>
<polygon fill="black" stroke="black" points="2015.13,-205.853 2018.62,-215.853 2022.13,-205.853 2015.13,-205.853"/>
</g>
<!-- TooltipModule  -->
<g id="node40" class="node"><title>TooltipModule </title>
<polygon fill="#fb8072" stroke="black" points="1961.27,-252 1856.73,-252 1856.73,-216 1961.27,-216 1961.27,-252"/>
<text text-anchor="middle" x="1909" y="-229.8" font-family="Times,serif" font-size="14.00">TooltipModule </text>
</g>
<!-- RebirthUIModule&#45;&gt;TooltipModule  -->
<g id="edge39" class="edge"><title>RebirthUIModule&#45;&gt;TooltipModule </title>
<path fill="none" stroke="black" stroke-dasharray="5,2" d="M1869.01,-187.106C1869.01,-187.106 1869.01,-205.991 1869.01,-205.991"/>
<polygon fill="black" stroke="black" points="1865.51,-205.991 1869.01,-215.991 1872.51,-205.991 1865.51,-205.991"/>
</g>
<!-- PopoverModule  -->
<g id="node41" class="node"><title>PopoverModule </title>
<polygon fill="#fb8072" stroke="black" points="1838.71,-252 1729.29,-252 1729.29,-216 1838.71,-216 1838.71,-252"/>
<text text-anchor="middle" x="1784" y="-229.8" font-family="Times,serif" font-size="14.00">PopoverModule </text>
</g>
<!-- RebirthUIModule&#45;&gt;PopoverModule  -->
<g id="edge40" class="edge"><title>RebirthUIModule&#45;&gt;PopoverModule </title>
<path fill="none" stroke="black" stroke-dasharray="5,2" d="M1801.85,-187.106C1801.85,-187.106 1801.85,-205.991 1801.85,-205.991"/>
<polygon fill="black" stroke="black" points="1798.35,-205.991 1801.85,-215.991 1805.35,-205.991 1798.35,-205.991"/>
</g>
<!-- DatePickerModule  -->
<g id="node42" class="node"><title>DatePickerModule </title>
<polygon fill="#fb8072" stroke="black" points="1711.74,-252 1586.26,-252 1586.26,-216 1711.74,-216 1711.74,-252"/>
<text text-anchor="middle" x="1649" y="-229.8" font-family="Times,serif" font-size="14.00">DatePickerModule </text>
</g>
<!-- RebirthUIModule&#45;&gt;DatePickerModule  -->
<g id="edge41" class="edge"><title>RebirthUIModule&#45;&gt;DatePickerModule </title>
<path fill="none" stroke="black" stroke-dasharray="5,2" d="M1764.74,-186C1707.83,-186 1629.71,-186 1629.71,-186 1629.71,-186 1629.71,-205.853 1629.71,-205.853"/>
<polygon fill="black" stroke="black" points="1626.21,-205.853 1629.71,-215.853 1633.21,-205.853 1626.21,-205.853"/>
</g>
<!-- BreadcrumbsModule  -->
<g id="node43" class="node"><title>BreadcrumbsModule </title>
<polygon fill="#fb8072" stroke="black" points="1568.69,-252 1431.31,-252 1431.31,-216 1568.69,-216 1568.69,-252"/>
<text text-anchor="middle" x="1500" y="-229.8" font-family="Times,serif" font-size="14.00">BreadcrumbsModule </text>
</g>
<!-- RebirthUIModule&#45;&gt;BreadcrumbsModule  -->
<g id="edge42" class="edge"><title>RebirthUIModule&#45;&gt;BreadcrumbsModule </title>
<path fill="none" stroke="black" stroke-dasharray="5,2" d="M1764.58,-185C1666.87,-185 1480.89,-185 1480.89,-185 1480.89,-185 1480.89,-205.754 1480.89,-205.754"/>
<polygon fill="black" stroke="black" points="1477.39,-205.754 1480.89,-215.754 1484.39,-205.754 1477.39,-205.754"/>
</g>
<!-- ProgressBarModule  -->
<g id="node44" class="node"><title>ProgressBarModule </title>
<polygon fill="#fb8072" stroke="black" points="1412.97,-252 1281.03,-252 1281.03,-216 1412.97,-216 1412.97,-252"/>
<text text-anchor="middle" x="1347" y="-229.8" font-family="Times,serif" font-size="14.00">ProgressBarModule </text>
</g>
<!-- RebirthUIModule&#45;&gt;ProgressBarModule  -->
<g id="edge43" class="edge"><title>RebirthUIModule&#45;&gt;ProgressBarModule </title>
<path fill="none" stroke="black" stroke-dasharray="5,2" d="M1764.7,-183C1634.53,-183 1331.59,-183 1331.59,-183 1331.59,-183 1331.59,-205.876 1331.59,-205.876"/>
<polygon fill="black" stroke="black" points="1328.09,-205.876 1331.59,-215.876 1335.09,-205.876 1328.09,-205.876"/>
</g>
<!-- SelectButtonModule  -->
<g id="node45" class="node"><title>SelectButtonModule </title>
<polygon fill="#fb8072" stroke="black" points="1263.88,-252 1128.12,-252 1128.12,-216 1263.88,-216 1263.88,-252"/>
<text text-anchor="middle" x="1196" y="-229.8" font-family="Times,serif" font-size="14.00">SelectButtonModule </text>
</g>
<!-- RebirthUIModule&#45;&gt;SelectButtonModule  -->
<g id="edge44" class="edge"><title>RebirthUIModule&#45;&gt;SelectButtonModule </title>
<path fill="none" stroke="black" stroke-dasharray="5,2" d="M1764.61,-182C1610.12,-182 1202.38,-182 1202.38,-182 1202.38,-182 1202.38,-205.813 1202.38,-205.813"/>
<polygon fill="black" stroke="black" points="1198.88,-205.813 1202.38,-215.813 1205.88,-205.813 1198.88,-205.813"/>
</g>
<!-- OverlayModule  -->
<g id="node46" class="node"><title>OverlayModule </title>
<polygon fill="#fb8072" stroke="black" points="1110.14,-252 1001.86,-252 1001.86,-216 1110.14,-216 1110.14,-252"/>
<text text-anchor="middle" x="1056" y="-229.8" font-family="Times,serif" font-size="14.00">OverlayModule </text>
</g>
<!-- RebirthUIModule&#45;&gt;OverlayModule  -->
<g id="edge45" class="edge"><title>RebirthUIModule&#45;&gt;OverlayModule </title>
<path fill="none" stroke="black" stroke-dasharray="5,2" d="M1764.73,-180C1587.09,-180 1064.38,-180 1064.38,-180 1064.38,-180 1064.38,-205.718 1064.38,-205.718"/>
<polygon fill="black" stroke="black" points="1060.88,-205.718 1064.38,-215.718 1067.88,-205.718 1060.88,-205.718"/>
</g>
<!-- CarouselModule  -->
<g id="node47" class="node"><title>CarouselModule </title>
<polygon fill="#fb8072" stroke="black" points="984.312,-252 871.688,-252 871.688,-216 984.312,-216 984.312,-252"/>
<text text-anchor="middle" x="928" y="-229.8" font-family="Times,serif" font-size="14.00">CarouselModule </text>
</g>
<!-- RebirthUIModule&#45;&gt;CarouselModule  -->
<g id="edge46" class="edge"><title>RebirthUIModule&#45;&gt;CarouselModule </title>
<path fill="none" stroke="black" stroke-dasharray="5,2" d="M1764.58,-179C1567.28,-179 937.875,-179 937.875,-179 937.875,-179 937.875,-205.991 937.875,-205.991"/>
<polygon fill="black" stroke="black" points="934.375,-205.991 937.875,-215.991 941.375,-205.991 934.375,-205.991"/>
</g>
<!-- SwitchModule  -->
<g id="node48" class="node"><title>SwitchModule </title>
<polygon fill="#fb8072" stroke="black" points="853.935,-252 752.065,-252 752.065,-216 853.935,-216 853.935,-252"/>
<text text-anchor="middle" x="803" y="-229.8" font-family="Times,serif" font-size="14.00">SwitchModule </text>
</g>
<!-- RebirthUIModule&#45;&gt;SwitchModule  -->
<g id="edge47" class="edge"><title>RebirthUIModule&#45;&gt;SwitchModule </title>
<path fill="none" stroke="black" stroke-dasharray="5,2" d="M1764.78,-177C1549.99,-177 814.375,-177 814.375,-177 814.375,-177 814.375,-205.965 814.375,-205.965"/>
<polygon fill="black" stroke="black" points="810.875,-205.965 814.375,-215.965 817.875,-205.965 810.875,-205.965"/>
</g>
<!-- MenuBarModule  -->
<g id="node49" class="node"><title>MenuBarModule </title>
<polygon fill="#fb8072" stroke="black" points="733.921,-252 618.079,-252 618.079,-216 733.921,-216 733.921,-252"/>
<text text-anchor="middle" x="676" y="-229.8" font-family="Times,serif" font-size="14.00">MenuBarModule </text>
</g>
<!-- RebirthUIModule&#45;&gt;MenuBarModule  -->
<g id="edge48" class="edge"><title>RebirthUIModule&#45;&gt;MenuBarModule </title>
<path fill="none" stroke="black" stroke-dasharray="5,2" d="M1764.83,-176C1533.26,-176 689.375,-176 689.375,-176 689.375,-176 689.375,-205.966 689.375,-205.966"/>
<polygon fill="black" stroke="black" points="685.875,-205.966 689.375,-215.966 692.875,-205.966 685.875,-205.966"/>
</g>
<!-- AutoCompleteModule  -->
<g id="node50" class="node"><title>AutoCompleteModule </title>
<polygon fill="#fb8072" stroke="black" points="599.985,-252 454.015,-252 454.015,-216 599.985,-216 599.985,-252"/>
<text text-anchor="middle" x="527" y="-229.8" font-family="Times,serif" font-size="14.00">AutoCompleteModule </text>
</g>
<!-- RebirthUIModule&#45;&gt;AutoCompleteModule  -->
<g id="edge49" class="edge"><title>RebirthUIModule&#45;&gt;AutoCompleteModule </title>
<path fill="none" stroke="black" stroke-dasharray="5,2" d="M1764.65,-175C1514.12,-175 542.375,-175 542.375,-175 542.375,-175 542.375,-205.977 542.375,-205.977"/>
<polygon fill="black" stroke="black" points="538.875,-205.977 542.375,-215.977 545.875,-205.978 538.875,-205.977"/>
</g>
<!-- FlowStepModule  -->
<g id="node51" class="node"><title>FlowStepModule </title>
<polygon fill="#fb8072" stroke="black" points="436.218,-252 319.782,-252 319.782,-216 436.218,-216 436.218,-252"/>
<text text-anchor="middle" x="378" y="-229.8" font-family="Times,serif" font-size="14.00">FlowStepModule </text>
</g>
<!-- RebirthUIModule&#45;&gt;FlowStepModule  -->
<g id="edge50" class="edge"><title>RebirthUIModule&#45;&gt;FlowStepModule </title>
<path fill="none" stroke="black" stroke-dasharray="5,2" d="M1764.8,-173C1496.84,-173 394.875,-173 394.875,-173 394.875,-173 394.875,-205.698 394.875,-205.698"/>
<polygon fill="black" stroke="black" points="391.375,-205.698 394.875,-215.698 398.375,-205.698 391.375,-205.698"/>
</g>
<!-- InfiniteScrollModule  -->
<g id="node52" class="node"><title>InfiniteScrollModule </title>
<polygon fill="#fb8072" stroke="black" points="301.697,-252 164.303,-252 164.303,-216 301.697,-216 301.697,-252"/>
<text text-anchor="middle" x="233" y="-229.8" font-family="Times,serif" font-size="14.00">InfiniteScrollModule </text>
</g>
<!-- RebirthUIModule&#45;&gt;InfiniteScrollModule  -->
<g id="edge51" class="edge"><title>RebirthUIModule&#45;&gt;InfiniteScrollModule </title>
<path fill="none" stroke="black" stroke-dasharray="5,2" d="M1764.73,-172C1480.3,-172 251.375,-172 251.375,-172 251.375,-172 251.375,-205.733 251.375,-205.733"/>
<polygon fill="black" stroke="black" points="247.875,-205.733 251.375,-215.733 254.875,-205.733 247.875,-205.733"/>
</g>
<!-- DataTableModule  -->
<g id="node53" class="node"><title>DataTableModule </title>
<polygon fill="#fb8072" stroke="black" points="145.849,-252 24.1509,-252 24.1509,-216 145.849,-216 145.849,-252"/>
<text text-anchor="middle" x="85" y="-229.8" font-family="Times,serif" font-size="14.00">DataTableModule </text>
</g>
<!-- RebirthUIModule&#45;&gt;DataTableModule  -->
<g id="edge52" class="edge"><title>RebirthUIModule&#45;&gt;DataTableModule </title>
<path fill="none" stroke="black" stroke-dasharray="5,2" d="M1764.37,-170C1463.34,-170 105.375,-170 105.375,-170 105.375,-170 105.375,-205.831 105.375,-205.831"/>
<polygon fill="black" stroke="black" points="101.875,-205.831 105.375,-215.831 108.875,-205.831 101.875,-205.831"/>
</g>
</g>
</svg>
