<?xml version="1.0" encoding="UTF-8" standalone="no"?>
<!DOCTYPE svg PUBLIC "-//W3C//DTD SVG 1.1//EN"
 "http://www.w3.org/Graphics/SVG/1.1/DTD/svg11.dtd">
<!-- Generated by graphviz version 2.38.0 (20140413.2041)
 -->
<!-- Title: dependencies Pages: 1 -->
<svg width="1807pt" height="284pt"
 viewBox="0.00 0.00 1807.00 284.00" xmlns="http://www.w3.org/2000/svg" xmlns:xlink="http://www.w3.org/1999/xlink">
<g id="graph0" class="graph" transform="scale(1 1) rotate(0) translate(4 280)">
<title>dependencies</title>
<polygon fill="white" stroke="none" points="-4,4 -4,-280 1803,-280 1803,4 -4,4"/>
<text text-anchor="start" x="878.509" y="-42.4" font-family="sans-serif" font-weight="bold" font-size="14.00">Legend</text>
<polygon fill="#ffffb3" stroke="none" points="665.5,-10 665.5,-30 685.5,-30 685.5,-10 665.5,-10"/>
<text text-anchor="start" x="689.129" y="-15.4" font-family="sans-serif" font-size="14.00"> &#160;Declarations</text>
<polygon fill="#8dd3c7" stroke="none" points="778.5,-10 778.5,-30 798.5,-30 798.5,-10 778.5,-10"/>
<text text-anchor="start" x="802.225" y="-15.4" font-family="sans-serif" font-size="14.00"> &#160;Module</text>
<polygon fill="#80b1d3" stroke="none" points="864.5,-10 864.5,-30 884.5,-30 884.5,-10 864.5,-10"/>
<text text-anchor="start" x="888.281" y="-15.4" font-family="sans-serif" font-size="14.00"> &#160;Bootstrap</text>
<polygon fill="#fdb462" stroke="none" points="961.5,-10 961.5,-30 981.5,-30 981.5,-10 961.5,-10"/>
<text text-anchor="start" x="985.173" y="-15.4" font-family="sans-serif" font-size="14.00"> &#160;Providers</text>
<polygon fill="#fb8072" stroke="none" points="1057.5,-10 1057.5,-30 1077.5,-30 1077.5,-10 1057.5,-10"/>
<text text-anchor="start" x="1081.23" y="-15.4" font-family="sans-serif" font-size="14.00"> &#160;Exports</text>
<g id="clust1" class="cluster"><title>cluster_RebirthUIModule</title>
<polygon fill="none" stroke="black" stroke-dasharray="1,5" points="8,-70 8,-268 1791,-268 1791,-70 8,-70"/>
</g>
<g id="clust3" class="cluster"><title>cluster_RebirthUIModule_imports</title>
<polygon fill="none" stroke="black" points="40,-78 40,-130 1759,-130 1759,-78 40,-78"/>
</g>
<g id="clust4" class="cluster"><title>cluster_RebirthUIModule_exports</title>
<polygon fill="none" stroke="black" points="16,-208 16,-260 1783,-260 1783,-208 16,-208"/>
</g>
<!-- ModalModule -->
<g id="node1" class="node"><title>ModalModule</title>
<polygon fill="#8dd3c7" stroke="black" points="1751.1,-122 1748.1,-126 1727.1,-126 1724.1,-122 1654.9,-122 1654.9,-86 1751.1,-86 1751.1,-122"/>
<text text-anchor="middle" x="1703" y="-99.8" font-family="Times,serif" font-size="14.00">ModalModule</text>
</g>
<!-- RebirthUIModule -->
<g id="node15" class="node"><title>RebirthUIModule</title>
<polygon fill="#8dd3c7" stroke="black" points="970.31,-187 967.31,-191 946.31,-191 943.31,-187 853.69,-187 853.69,-151 970.31,-151 970.31,-187"/>
<text text-anchor="middle" x="912" y="-164.8" font-family="Times,serif" font-size="14.00">RebirthUIModule</text>
</g>
<!-- ModalModule&#45;&gt;RebirthUIModule -->
<g id="edge1" class="edge"><title>ModalModule&#45;&gt;RebirthUIModule</title>
<path fill="none" stroke="black" d="M1666.39,-122.169C1666.39,-141.09 1666.39,-168 1666.39,-168 1666.39,-168 980.255,-168 980.255,-168"/>
<polygon fill="black" stroke="black" points="980.255,-164.5 970.255,-168 980.255,-171.5 980.255,-164.5"/>
</g>
<!-- DialogModule -->
<g id="node2" class="node"><title>DialogModule</title>
<polygon fill="#8dd3c7" stroke="black" points="1636.65,-122 1633.65,-126 1612.65,-126 1609.65,-122 1539.35,-122 1539.35,-86 1636.65,-86 1636.65,-122"/>
<text text-anchor="middle" x="1588" y="-99.8" font-family="Times,serif" font-size="14.00">DialogModule</text>
</g>
<!-- DialogModule&#45;&gt;RebirthUIModule -->
<g id="edge2" class="edge"><title>DialogModule&#45;&gt;RebirthUIModule</title>
<path fill="none" stroke="black" d="M1547.8,-122.302C1547.8,-140.27 1547.8,-165 1547.8,-165 1547.8,-165 980.391,-165 980.391,-165"/>
<polygon fill="black" stroke="black" points="980.391,-161.5 970.391,-165 980.391,-168.5 980.391,-161.5"/>
</g>
<!-- PagerModule -->
<g id="node3" class="node"><title>PagerModule</title>
<polygon fill="#8dd3c7" stroke="black" points="1520.92,-122 1517.92,-126 1496.92,-126 1493.92,-122 1429.08,-122 1429.08,-86 1520.92,-86 1520.92,-122"/>
<text text-anchor="middle" x="1475" y="-99.8" font-family="Times,serif" font-size="14.00">PagerModule</text>
</g>
<!-- PagerModule&#45;&gt;RebirthUIModule -->
<g id="edge3" class="edge"><title>PagerModule&#45;&gt;RebirthUIModule</title>
<path fill="none" stroke="black" d="M1436.41,-122.023C1436.41,-139.373 1436.41,-163 1436.41,-163 1436.41,-163 980.378,-163 980.378,-163"/>
<polygon fill="black" stroke="black" points="980.378,-159.5 970.378,-163 980.378,-166.5 980.378,-159.5"/>
</g>
<!-- PaginationModule -->
<g id="node4" class="node"><title>PaginationModule</title>
<polygon fill="#8dd3c7" stroke="black" points="1411.93,-122 1408.93,-126 1387.93,-126 1384.93,-122 1292.07,-122 1292.07,-86 1411.93,-86 1411.93,-122"/>
<text text-anchor="middle" x="1352" y="-99.8" font-family="Times,serif" font-size="14.00">PaginationModule</text>
</g>
<!-- PaginationModule&#45;&gt;RebirthUIModule -->
<g id="edge4" class="edge"><title>PaginationModule&#45;&gt;RebirthUIModule</title>
<path fill="none" stroke="black" d="M1297.41,-122.027C1297.41,-138.398 1297.41,-160 1297.41,-160 1297.41,-160 980.535,-160 980.535,-160"/>
<polygon fill="black" stroke="black" points="980.535,-156.5 970.535,-160 980.535,-163.5 980.535,-156.5"/>
</g>
<!-- AlertBoxModule -->
<g id="node5" class="node"><title>AlertBoxModule</title>
<polygon fill="#8dd3c7" stroke="black" points="1273.65,-122 1270.65,-126 1249.65,-126 1246.65,-122 1162.35,-122 1162.35,-86 1273.65,-86 1273.65,-122"/>
<text text-anchor="middle" x="1218" y="-99.8" font-family="Times,serif" font-size="14.00">AlertBoxModule</text>
</g>
<!-- AlertBoxModule&#45;&gt;RebirthUIModule -->
<g id="edge5" class="edge"><title>AlertBoxModule&#45;&gt;RebirthUIModule</title>
<path fill="none" stroke="black" d="M1165.8,-122.24C1165.8,-137.571 1165.8,-157 1165.8,-157 1165.8,-157 980.227,-157 980.227,-157"/>
<polygon fill="black" stroke="black" points="980.227,-153.5 970.227,-157 980.227,-160.5 980.227,-153.5"/>
</g>
<!-- BadgeModule -->
<g id="node6" class="node"><title>BadgeModule</title>
<polygon fill="#8dd3c7" stroke="black" points="1144.82,-122 1141.82,-126 1120.82,-126 1117.82,-122 1049.18,-122 1049.18,-86 1144.82,-86 1144.82,-122"/>
<text text-anchor="middle" x="1097" y="-99.8" font-family="Times,serif" font-size="14.00">BadgeModule</text>
</g>
<!-- BadgeModule&#45;&gt;RebirthUIModule -->
<g id="edge6" class="edge"><title>BadgeModule&#45;&gt;RebirthUIModule</title>
<path fill="none" stroke="black" d="M1113.97,-122.051C1113.97,-136.373 1113.97,-154 1113.97,-154 1113.97,-154 980.418,-154 980.418,-154"/>
<polygon fill="black" stroke="black" points="980.418,-150.5 970.418,-154 980.418,-157.5 980.418,-150.5"/>
</g>
<!-- PanelModule -->
<g id="node7" class="node"><title>PanelModule</title>
<polygon fill="#8dd3c7" stroke="black" points="1031.15,-122 1028.15,-126 1007.15,-126 1004.15,-122 940.847,-122 940.847,-86 1031.15,-86 1031.15,-122"/>
<text text-anchor="middle" x="986" y="-99.8" font-family="Times,serif" font-size="14.00">PanelModule</text>
</g>
<!-- PanelModule&#45;&gt;RebirthUIModule -->
<g id="edge7" class="edge"><title>PanelModule&#45;&gt;RebirthUIModule</title>
<path fill="none" stroke="black" d="M955.414,-122.106C955.414,-122.106 955.414,-140.991 955.414,-140.991"/>
<polygon fill="black" stroke="black" points="951.915,-140.991 955.414,-150.991 958.915,-140.991 951.915,-140.991"/>
</g>
<!-- AccordionModule -->
<g id="node8" class="node"><title>AccordionModule</title>
<polygon fill="#8dd3c7" stroke="black" points="922.137,-122 919.137,-126 898.137,-126 895.137,-122 803.863,-122 803.863,-86 922.137,-86 922.137,-122"/>
<text text-anchor="middle" x="863" y="-99.8" font-family="Times,serif" font-size="14.00">AccordionModule</text>
</g>
<!-- AccordionModule&#45;&gt;RebirthUIModule -->
<g id="edge8" class="edge"><title>AccordionModule&#45;&gt;RebirthUIModule</title>
<path fill="none" stroke="black" d="M888.082,-122.106C888.082,-122.106 888.082,-140.991 888.082,-140.991"/>
<polygon fill="black" stroke="black" points="884.582,-140.991 888.082,-150.991 891.582,-140.991 884.582,-140.991"/>
</g>
<!-- ActionButtonModule -->
<g id="node9" class="node"><title>ActionButtonModule</title>
<polygon fill="#8dd3c7" stroke="black" points="785.77,-122 782.77,-126 761.77,-126 758.77,-122 650.23,-122 650.23,-86 785.77,-86 785.77,-122"/>
<text text-anchor="middle" x="718" y="-99.8" font-family="Times,serif" font-size="14.00">ActionButtonModule</text>
</g>
<!-- ActionButtonModule&#45;&gt;RebirthUIModule -->
<g id="edge9" class="edge"><title>ActionButtonModule&#45;&gt;RebirthUIModule</title>
<path fill="none" stroke="black" d="M738.462,-122.051C738.462,-136.373 738.462,-154 738.462,-154 738.462,-154 843.731,-154 843.731,-154"/>
<polygon fill="black" stroke="black" points="843.732,-157.5 853.731,-154 843.731,-150.5 843.732,-157.5"/>
</g>
<!-- RatingModule -->
<g id="node10" class="node"><title>RatingModule</title>
<polygon fill="#8dd3c7" stroke="black" points="632.382,-122 629.382,-126 608.382,-126 605.382,-122 535.618,-122 535.618,-86 632.382,-86 632.382,-122"/>
<text text-anchor="middle" x="584" y="-99.8" font-family="Times,serif" font-size="14.00">RatingModule</text>
</g>
<!-- RatingModule&#45;&gt;RebirthUIModule -->
<g id="edge10" class="edge"><title>RatingModule&#45;&gt;RebirthUIModule</title>
<path fill="none" stroke="black" d="M628.816,-122.24C628.816,-137.571 628.816,-157 628.816,-157 628.816,-157 843.667,-157 843.667,-157"/>
<polygon fill="black" stroke="black" points="843.668,-160.5 853.667,-157 843.667,-153.5 843.668,-160.5"/>
</g>
<!-- TabsModule -->
<g id="node11" class="node"><title>TabsModule</title>
<polygon fill="#8dd3c7" stroke="black" points="517.262,-122 514.262,-126 493.262,-126 490.262,-122 430.738,-122 430.738,-86 517.262,-86 517.262,-122"/>
<text text-anchor="middle" x="474" y="-99.8" font-family="Times,serif" font-size="14.00">TabsModule</text>
</g>
<!-- TabsModule&#45;&gt;RebirthUIModule -->
<g id="edge11" class="edge"><title>TabsModule&#45;&gt;RebirthUIModule</title>
<path fill="none" stroke="black" d="M512.256,-122.027C512.256,-138.398 512.256,-160 512.256,-160 512.256,-160 843.446,-160 843.446,-160"/>
<polygon fill="black" stroke="black" points="843.446,-163.5 853.446,-160 843.446,-156.5 843.446,-163.5"/>
</g>
<!-- TooltipModule -->
<g id="node12" class="node"><title>TooltipModule</title>
<polygon fill="#8dd3c7" stroke="black" points="412.274,-122 409.274,-126 388.274,-126 385.274,-122 311.726,-122 311.726,-86 412.274,-86 412.274,-122"/>
<text text-anchor="middle" x="362" y="-99.8" font-family="Times,serif" font-size="14.00">TooltipModule</text>
</g>
<!-- TooltipModule&#45;&gt;RebirthUIModule -->
<g id="edge12" class="edge"><title>TooltipModule&#45;&gt;RebirthUIModule</title>
<path fill="none" stroke="black" d="M405.762,-122.023C405.762,-139.373 405.762,-163 405.762,-163 405.762,-163 843.434,-163 843.434,-163"/>
<polygon fill="black" stroke="black" points="843.434,-166.5 853.434,-163 843.433,-159.5 843.434,-166.5"/>
</g>
<!-- PopoverModule -->
<g id="node13" class="node"><title>PopoverModule</title>
<polygon fill="#8dd3c7" stroke="black" points="294.208,-122 291.208,-126 270.208,-126 267.208,-122 187.792,-122 187.792,-86 294.208,-86 294.208,-122"/>
<text text-anchor="middle" x="241" y="-99.8" font-family="Times,serif" font-size="14.00">PopoverModule</text>
</g>
<!-- PopoverModule&#45;&gt;RebirthUIModule -->
<g id="edge13" class="edge"><title>PopoverModule&#45;&gt;RebirthUIModule</title>
<path fill="none" stroke="black" d="M285.479,-122.302C285.479,-140.27 285.479,-165 285.479,-165 285.479,-165 843.621,-165 843.621,-165"/>
<polygon fill="black" stroke="black" points="843.621,-168.5 853.621,-165 843.621,-161.5 843.621,-168.5"/>
</g>
<!-- DatePickerModule -->
<g id="node14" class="node"><title>DatePickerModule</title>
<polygon fill="#8dd3c7" stroke="black" points="169.739,-122 166.739,-126 145.739,-126 142.739,-122 48.2605,-122 48.2605,-86 169.739,-86 169.739,-122"/>
<text text-anchor="middle" x="109" y="-99.8" font-family="Times,serif" font-size="14.00">DatePickerModule</text>
</g>
<!-- DatePickerModule&#45;&gt;RebirthUIModule -->
<g id="edge14" class="edge"><title>DatePickerModule&#45;&gt;RebirthUIModule</title>
<path fill="none" stroke="black" d="M158.383,-122.169C158.383,-141.09 158.383,-168 158.383,-168 158.383,-168 843.805,-168 843.805,-168"/>
<polygon fill="black" stroke="black" points="843.805,-171.5 853.805,-168 843.804,-164.5 843.805,-171.5"/>
</g>
<!-- ModalModule  -->
<g id="node16" class="node"><title>ModalModule </title>
<polygon fill="#fb8072" stroke="black" points="1774.6,-252 1675.4,-252 1675.4,-216 1774.6,-216 1774.6,-252"/>
<text text-anchor="middle" x="1725" y="-229.8" font-family="Times,serif" font-size="14.00">ModalModule </text>
</g>
<!-- RebirthUIModule&#45;&gt;ModalModule  -->
<g id="edge15" class="edge"><title>RebirthUIModule&#45;&gt;ModalModule </title>
<path fill="none" stroke="black" stroke-dasharray="5,2" d="M970.26,-171C1154.61,-171 1713.12,-171 1713.12,-171 1713.12,-171 1713.12,-205.778 1713.12,-205.778"/>
<polygon fill="black" stroke="black" points="1709.63,-205.778 1713.12,-215.778 1716.63,-205.778 1709.63,-205.778"/>
</g>
<!-- DialogModule  -->
<g id="node17" class="node"><title>DialogModule </title>
<polygon fill="#fb8072" stroke="black" points="1657.65,-252 1556.35,-252 1556.35,-216 1657.65,-216 1657.65,-252"/>
<text text-anchor="middle" x="1607" y="-229.8" font-family="Times,serif" font-size="14.00">DialogModule </text>
</g>
<!-- RebirthUIModule&#45;&gt;DialogModule  -->
<g id="edge16" class="edge"><title>RebirthUIModule&#45;&gt;DialogModule </title>
<path fill="none" stroke="black" stroke-dasharray="5,2" d="M970.371,-174C1135.93,-174 1596.62,-174 1596.62,-174 1596.62,-174 1596.62,-205.998 1596.62,-205.998"/>
<polygon fill="black" stroke="black" points="1593.13,-205.998 1596.62,-215.998 1600.13,-205.998 1593.13,-205.998"/>
</g>
<!-- PagerModule  -->
<g id="node18" class="node"><title>PagerModule </title>
<polygon fill="#fb8072" stroke="black" points="1538.42,-252 1443.58,-252 1443.58,-216 1538.42,-216 1538.42,-252"/>
<text text-anchor="middle" x="1491" y="-229.8" font-family="Times,serif" font-size="14.00">PagerModule </text>
</g>
<!-- RebirthUIModule&#45;&gt;PagerModule  -->
<g id="edge17" class="edge"><title>RebirthUIModule&#45;&gt;PagerModule </title>
<path fill="none" stroke="black" stroke-dasharray="5,2" d="M970.334,-176C1115.64,-176 1482.12,-176 1482.12,-176 1482.12,-176 1482.12,-205.966 1482.12,-205.966"/>
<polygon fill="black" stroke="black" points="1478.63,-205.966 1482.12,-215.966 1485.63,-205.966 1478.63,-205.966"/>
</g>
<!-- PaginationModule  -->
<g id="node19" class="node"><title>PaginationModule </title>
<polygon fill="#fb8072" stroke="black" points="1425.43,-252 1302.57,-252 1302.57,-216 1425.43,-216 1425.43,-252"/>
<text text-anchor="middle" x="1364" y="-229.8" font-family="Times,serif" font-size="14.00">PaginationModule </text>
</g>
<!-- RebirthUIModule&#45;&gt;PaginationModule  -->
<g id="edge18" class="edge"><title>RebirthUIModule&#45;&gt;PaginationModule </title>
<path fill="none" stroke="black" stroke-dasharray="5,2" d="M970.192,-179C1090.85,-179 1357.12,-179 1357.12,-179 1357.12,-179 1357.12,-205.991 1357.12,-205.991"/>
<polygon fill="black" stroke="black" points="1353.63,-205.991 1357.12,-215.991 1360.63,-205.991 1353.63,-205.991"/>
</g>
<!-- AlertBoxModule  -->
<g id="node20" class="node"><title>AlertBoxModule </title>
<polygon fill="#fb8072" stroke="black" points="1284.65,-252 1169.35,-252 1169.35,-216 1284.65,-216 1284.65,-252"/>
<text text-anchor="middle" x="1227" y="-229.8" font-family="Times,serif" font-size="14.00">AlertBoxModule </text>
</g>
<!-- RebirthUIModule&#45;&gt;AlertBoxModule  -->
<g id="edge19" class="edge"><title>RebirthUIModule&#45;&gt;AlertBoxModule </title>
<path fill="none" stroke="black" stroke-dasharray="5,2" d="M970.238,-182C1059.93,-182 1221.62,-182 1221.62,-182 1221.62,-182 1221.62,-205.813 1221.62,-205.813"/>
<polygon fill="black" stroke="black" points="1218.13,-205.813 1221.62,-215.813 1225.13,-205.813 1218.13,-205.813"/>
</g>
<!-- BadgeModule  -->
<g id="node21" class="node"><title>BadgeModule </title>
<polygon fill="#fb8072" stroke="black" points="1151.32,-252 1052.68,-252 1052.68,-216 1151.32,-216 1151.32,-252"/>
<text text-anchor="middle" x="1102" y="-229.8" font-family="Times,serif" font-size="14.00">BadgeModule </text>
</g>
<!-- RebirthUIModule&#45;&gt;BadgeModule  -->
<g id="edge20" class="edge"><title>RebirthUIModule&#45;&gt;BadgeModule </title>
<path fill="none" stroke="black" stroke-dasharray="5,2" d="M970.466,-185C1020.08,-185 1083.28,-185 1083.28,-185 1083.28,-185 1083.28,-205.754 1083.28,-205.754"/>
<polygon fill="black" stroke="black" points="1079.78,-205.754 1083.28,-215.754 1086.78,-205.754 1079.78,-205.754"/>
</g>
<!-- PanelModule  -->
<g id="node22" class="node"><title>PanelModule </title>
<polygon fill="#fb8072" stroke="black" points="1035.15,-252 940.848,-252 940.848,-216 1035.15,-216 1035.15,-252"/>
<text text-anchor="middle" x="988" y="-229.8" font-family="Times,serif" font-size="14.00">PanelModule </text>
</g>
<!-- RebirthUIModule&#45;&gt;PanelModule  -->
<g id="edge21" class="edge"><title>RebirthUIModule&#45;&gt;PanelModule </title>
<path fill="none" stroke="black" stroke-dasharray="5,2" d="M955.539,-187.106C955.539,-187.106 955.539,-205.991 955.539,-205.991"/>
<polygon fill="black" stroke="black" points="952.04,-205.991 955.539,-215.991 959.04,-205.991 952.04,-205.991"/>
</g>
<!-- AccordionModule  -->
<g id="node23" class="node"><title>AccordionModule </title>
<polygon fill="#fb8072" stroke="black" points="923.137,-252 800.863,-252 800.863,-216 923.137,-216 923.137,-252"/>
<text text-anchor="middle" x="862" y="-229.8" font-family="Times,serif" font-size="14.00">AccordionModule </text>
</g>
<!-- RebirthUIModule&#45;&gt;AccordionModule  -->
<g id="edge22" class="edge"><title>RebirthUIModule&#45;&gt;AccordionModule </title>
<path fill="none" stroke="black" stroke-dasharray="5,2" d="M888.457,-187.106C888.457,-187.106 888.457,-205.991 888.457,-205.991"/>
<polygon fill="black" stroke="black" points="884.957,-205.991 888.457,-215.991 891.957,-205.991 884.957,-205.991"/>
</g>
<!-- ActionButtonModule  -->
<g id="node24" class="node"><title>ActionButtonModule </title>
<polygon fill="#fb8072" stroke="black" points="782.77,-252 643.23,-252 643.23,-216 782.77,-216 782.77,-252"/>
<text text-anchor="middle" x="713" y="-229.8" font-family="Times,serif" font-size="14.00">ActionButtonModule </text>
</g>
<!-- RebirthUIModule&#45;&gt;ActionButtonModule  -->
<g id="edge23" class="edge"><title>RebirthUIModule&#45;&gt;ActionButtonModule </title>
<path fill="none" stroke="black" stroke-dasharray="5,2" d="M853.657,-185C789.168,-185 694.288,-185 694.288,-185 694.288,-185 694.288,-205.754 694.288,-205.754"/>
<polygon fill="black" stroke="black" points="690.788,-205.754 694.288,-215.754 697.788,-205.754 690.788,-205.754"/>
</g>
<!-- RatingModule  -->
<g id="node25" class="node"><title>RatingModule </title>
<polygon fill="#fb8072" stroke="black" points="625.383,-252 524.617,-252 524.617,-216 625.383,-216 625.383,-252"/>
<text text-anchor="middle" x="575" y="-229.8" font-family="Times,serif" font-size="14.00">RatingModule </text>
</g>
<!-- RebirthUIModule&#45;&gt;RatingModule  -->
<g id="edge24" class="edge"><title>RebirthUIModule&#45;&gt;RatingModule </title>
<path fill="none" stroke="black" stroke-dasharray="5,2" d="M853.475,-182C758.273,-182 580.375,-182 580.375,-182 580.375,-182 580.375,-205.813 580.375,-205.813"/>
<polygon fill="black" stroke="black" points="576.875,-205.813 580.375,-215.813 583.875,-205.813 576.875,-205.813"/>
</g>
<!-- TabsModule  -->
<g id="node26" class="node"><title>TabsModule </title>
<polygon fill="#fb8072" stroke="black" points="507.262,-252 416.738,-252 416.738,-216 507.262,-216 507.262,-252"/>
<text text-anchor="middle" x="462" y="-229.8" font-family="Times,serif" font-size="14.00">TabsModule </text>
</g>
<!-- RebirthUIModule&#45;&gt;TabsModule  -->
<g id="edge25" class="edge"><title>RebirthUIModule&#45;&gt;TabsModule </title>
<path fill="none" stroke="black" stroke-dasharray="5,2" d="M853.613,-179C733.286,-179 468.875,-179 468.875,-179 468.875,-179 468.875,-205.991 468.875,-205.991"/>
<polygon fill="black" stroke="black" points="465.375,-205.991 468.875,-215.991 472.375,-205.991 465.375,-205.991"/>
</g>
<!-- TooltipModule  -->
<g id="node27" class="node"><title>TooltipModule </title>
<polygon fill="#fb8072" stroke="black" points="399.275,-252 294.725,-252 294.725,-216 399.275,-216 399.275,-252"/>
<text text-anchor="middle" x="347" y="-229.8" font-family="Times,serif" font-size="14.00">TooltipModule </text>
</g>
<!-- RebirthUIModule&#45;&gt;TooltipModule  -->
<g id="edge26" class="edge"><title>RebirthUIModule&#45;&gt;TooltipModule </title>
<path fill="none" stroke="black" stroke-dasharray="5,2" d="M853.745,-176C711.006,-176 355.375,-176 355.375,-176 355.375,-176 355.375,-205.966 355.375,-205.966"/>
<polygon fill="black" stroke="black" points="351.875,-205.966 355.375,-215.966 358.875,-205.966 351.875,-205.966"/>
</g>
<!-- PopoverModule  -->
<g id="node28" class="node"><title>PopoverModule </title>
<polygon fill="#fb8072" stroke="black" points="276.708,-252 167.292,-252 167.292,-216 276.708,-216 276.708,-252"/>
<text text-anchor="middle" x="222" y="-229.8" font-family="Times,serif" font-size="14.00">PopoverModule </text>
</g>
<!-- RebirthUIModule&#45;&gt;PopoverModule  -->
<g id="edge27" class="edge"><title>RebirthUIModule&#45;&gt;PopoverModule </title>
<path fill="none" stroke="black" stroke-dasharray="5,2" d="M853.762,-174C689.159,-174 232.375,-174 232.375,-174 232.375,-174 232.375,-205.998 232.375,-205.998"/>
<polygon fill="black" stroke="black" points="228.875,-205.998 232.375,-215.998 235.875,-205.998 228.875,-205.998"/>
</g>
<!-- DatePickerModule  -->
<g id="node29" class="node"><title>DatePickerModule </title>
<polygon fill="#fb8072" stroke="black" points="149.739,-252 24.2606,-252 24.2606,-216 149.739,-216 149.739,-252"/>
<text text-anchor="middle" x="87" y="-229.8" font-family="Times,serif" font-size="14.00">DatePickerModule </text>
</g>
<!-- RebirthUIModule&#45;&gt;DatePickerModule  -->
<g id="edge28" class="edge"><title>RebirthUIModule&#45;&gt;DatePickerModule </title>
<path fill="none" stroke="black" stroke-dasharray="5,2" d="M853.522,-171C667.08,-171 98.875,-171 98.875,-171 98.875,-171 98.875,-205.778 98.875,-205.778"/>
<polygon fill="black" stroke="black" points="95.3751,-205.778 98.875,-215.778 102.375,-205.778 95.3751,-205.778"/>
</g>
</g>
</svg>
