<?xml version="1.0" encoding="UTF-8" standalone="no"?>
<!DOCTYPE svg PUBLIC "-//W3C//DTD SVG 1.1//EN"
 "http://www.w3.org/Graphics/SVG/1.1/DTD/svg11.dtd">
<!-- Generated by graphviz version 2.38.0 (20140413.2041)
 -->
<!-- Title: dependencies Pages: 1 -->
<svg width="2775pt" height="284pt"
 viewBox="0.00 0.00 2775.00 284.00" xmlns="http://www.w3.org/2000/svg" xmlns:xlink="http://www.w3.org/1999/xlink">
<g id="graph0" class="graph" transform="scale(1 1) rotate(0) translate(4 280)">
<title>dependencies</title>
<polygon fill="white" stroke="none" points="-4,4 -4,-280 2771,-280 2771,4 -4,4"/>
<text text-anchor="start" x="1362.51" y="-42.4" font-family="sans-serif" font-weight="bold" font-size="14.00">Legend</text>
<polygon fill="#ffffb3" stroke="none" points="1149.5,-10 1149.5,-30 1169.5,-30 1169.5,-10 1149.5,-10"/>
<text text-anchor="start" x="1173.13" y="-15.4" font-family="sans-serif" font-size="14.00"> &#160;Declarations</text>
<polygon fill="#8dd3c7" stroke="none" points="1262.5,-10 1262.5,-30 1282.5,-30 1282.5,-10 1262.5,-10"/>
<text text-anchor="start" x="1286.23" y="-15.4" font-family="sans-serif" font-size="14.00"> &#160;Module</text>
<polygon fill="#80b1d3" stroke="none" points="1348.5,-10 1348.5,-30 1368.5,-30 1368.5,-10 1348.5,-10"/>
<text text-anchor="start" x="1372.28" y="-15.4" font-family="sans-serif" font-size="14.00"> &#160;Bootstrap</text>
<polygon fill="#fdb462" stroke="none" points="1445.5,-10 1445.5,-30 1465.5,-30 1465.5,-10 1445.5,-10"/>
<text text-anchor="start" x="1469.17" y="-15.4" font-family="sans-serif" font-size="14.00"> &#160;Providers</text>
<polygon fill="#fb8072" stroke="none" points="1541.5,-10 1541.5,-30 1561.5,-30 1561.5,-10 1541.5,-10"/>
<text text-anchor="start" x="1565.23" y="-15.4" font-family="sans-serif" font-size="14.00"> &#160;Exports</text>
<g id="clust1" class="cluster"><title>cluster_RebirthUIModule</title>
<polygon fill="none" stroke="black" stroke-dasharray="1,5" points="8,-70 8,-268 2759,-268 2759,-70 8,-70"/>
</g>
<g id="clust3" class="cluster"><title>cluster_RebirthUIModule_imports</title>
<polygon fill="none" stroke="black" points="52,-78 52,-130 2715,-130 2715,-78 52,-78"/>
</g>
<g id="clust4" class="cluster"><title>cluster_RebirthUIModule_exports</title>
<polygon fill="none" stroke="black" points="16,-208 16,-260 2751,-260 2751,-208 16,-208"/>
</g>
<!-- ModalModule -->
<g id="node1" class="node"><title>ModalModule</title>
<polygon fill="#8dd3c7" stroke="black" points="2707.1,-122 2704.1,-126 2683.1,-126 2680.1,-122 2610.9,-122 2610.9,-86 2707.1,-86 2707.1,-122"/>
<text text-anchor="middle" x="2659" y="-99.8" font-family="Times,serif" font-size="14.00">ModalModule</text>
</g>
<!-- RebirthUIModule -->
<g id="node22" class="node"><title>RebirthUIModule</title>
<polygon fill="#8dd3c7" stroke="black" points="1488.31,-187 1485.31,-191 1464.31,-191 1461.31,-187 1371.69,-187 1371.69,-151 1488.31,-151 1488.31,-187"/>
<text text-anchor="middle" x="1430" y="-164.8" font-family="Times,serif" font-size="14.00">RebirthUIModule</text>
</g>
<!-- ModalModule&#45;&gt;RebirthUIModule -->
<g id="edge1" class="edge"><title>ModalModule&#45;&gt;RebirthUIModule</title>
<path fill="none" stroke="black" d="M2618.26,-122.106C2618.26,-141.339 2618.26,-169 2618.26,-169 2618.26,-169 1498.52,-169 1498.52,-169"/>
<polygon fill="black" stroke="black" points="1498.52,-165.5 1488.52,-169 1498.52,-172.5 1498.52,-165.5"/>
</g>
<!-- DialogModule -->
<g id="node2" class="node"><title>DialogModule</title>
<polygon fill="#8dd3c7" stroke="black" points="2592.65,-122 2589.65,-126 2568.65,-126 2565.65,-122 2495.35,-122 2495.35,-86 2592.65,-86 2592.65,-122"/>
<text text-anchor="middle" x="2544" y="-99.8" font-family="Times,serif" font-size="14.00">DialogModule</text>
</g>
<!-- DialogModule&#45;&gt;RebirthUIModule -->
<g id="edge2" class="edge"><title>DialogModule&#45;&gt;RebirthUIModule</title>
<path fill="none" stroke="black" d="M2500.82,-122.222C2500.82,-140.829 2500.82,-167 2500.82,-167 2500.82,-167 1498.33,-167 1498.33,-167"/>
<polygon fill="black" stroke="black" points="1498.33,-163.5 1488.33,-167 1498.33,-170.5 1498.33,-163.5"/>
</g>
<!-- PagerModule -->
<g id="node3" class="node"><title>PagerModule</title>
<polygon fill="#8dd3c7" stroke="black" points="2476.92,-122 2473.92,-126 2452.92,-126 2449.92,-122 2385.08,-122 2385.08,-86 2476.92,-86 2476.92,-122"/>
<text text-anchor="middle" x="2431" y="-99.8" font-family="Times,serif" font-size="14.00">PagerModule</text>
</g>
<!-- PagerModule&#45;&gt;RebirthUIModule -->
<g id="edge3" class="edge"><title>PagerModule&#45;&gt;RebirthUIModule</title>
<path fill="none" stroke="black" d="M2389.38,-122.302C2389.38,-140.27 2389.38,-165 2389.38,-165 2389.38,-165 1498.21,-165 1498.21,-165"/>
<polygon fill="black" stroke="black" points="1498.21,-161.5 1488.21,-165 1498.21,-168.5 1498.21,-161.5"/>
</g>
<!-- PaginationModule -->
<g id="node4" class="node"><title>PaginationModule</title>
<polygon fill="#8dd3c7" stroke="black" points="2367.93,-122 2364.93,-126 2343.93,-126 2340.93,-122 2248.07,-122 2248.07,-86 2367.93,-86 2367.93,-122"/>
<text text-anchor="middle" x="2308" y="-99.8" font-family="Times,serif" font-size="14.00">PaginationModule</text>
</g>
<!-- PaginationModule&#45;&gt;RebirthUIModule -->
<g id="edge4" class="edge"><title>PaginationModule&#45;&gt;RebirthUIModule</title>
<path fill="none" stroke="black" d="M2261.55,-122.023C2261.55,-139.373 2261.55,-163 2261.55,-163 2261.55,-163 1498.47,-163 1498.47,-163"/>
<polygon fill="black" stroke="black" points="1498.47,-159.5 1488.47,-163 1498.47,-166.5 1498.47,-159.5"/>
</g>
<!-- AlertBoxModule -->
<g id="node5" class="node"><title>AlertBoxModule</title>
<polygon fill="#8dd3c7" stroke="black" points="2229.65,-122 2226.65,-126 2205.65,-126 2202.65,-122 2118.35,-122 2118.35,-86 2229.65,-86 2229.65,-122"/>
<text text-anchor="middle" x="2174" y="-99.8" font-family="Times,serif" font-size="14.00">AlertBoxModule</text>
</g>
<!-- AlertBoxModule&#45;&gt;RebirthUIModule -->
<g id="edge5" class="edge"><title>AlertBoxModule&#45;&gt;RebirthUIModule</title>
<path fill="none" stroke="black" d="M2128.42,-122.035C2128.42,-138.734 2128.42,-161 2128.42,-161 2128.42,-161 1498.35,-161 1498.35,-161"/>
<polygon fill="black" stroke="black" points="1498.35,-157.5 1488.35,-161 1498.35,-164.5 1498.35,-157.5"/>
</g>
<!-- BadgeModule -->
<g id="node6" class="node"><title>BadgeModule</title>
<polygon fill="#8dd3c7" stroke="black" points="2100.82,-122 2097.82,-126 2076.82,-126 2073.82,-122 2005.18,-122 2005.18,-86 2100.82,-86 2100.82,-122"/>
<text text-anchor="middle" x="2053" y="-99.8" font-family="Times,serif" font-size="14.00">BadgeModule</text>
</g>
<!-- BadgeModule&#45;&gt;RebirthUIModule -->
<g id="edge6" class="edge"><title>BadgeModule&#45;&gt;RebirthUIModule</title>
<path fill="none" stroke="black" d="M2012.97,-122.009C2012.97,-138.049 2012.97,-159 2012.97,-159 2012.97,-159 1498.3,-159 1498.3,-159"/>
<polygon fill="black" stroke="black" points="1498.3,-155.5 1488.3,-159 1498.3,-162.5 1498.3,-155.5"/>
</g>
<!-- PanelModule -->
<g id="node7" class="node"><title>PanelModule</title>
<polygon fill="#8dd3c7" stroke="black" points="1987.15,-122 1984.15,-126 1963.15,-126 1960.15,-122 1896.85,-122 1896.85,-86 1987.15,-86 1987.15,-122"/>
<text text-anchor="middle" x="1942" y="-99.8" font-family="Times,serif" font-size="14.00">PanelModule</text>
</g>
<!-- PanelModule&#45;&gt;RebirthUIModule -->
<g id="edge7" class="edge"><title>PanelModule&#45;&gt;RebirthUIModule</title>
<path fill="none" stroke="black" d="M1902.8,-122.24C1902.8,-137.571 1902.8,-157 1902.8,-157 1902.8,-157 1498.45,-157 1498.45,-157"/>
<polygon fill="black" stroke="black" points="1498.45,-153.5 1488.45,-157 1498.45,-160.5 1498.45,-153.5"/>
</g>
<!-- AccordionModule -->
<g id="node8" class="node"><title>AccordionModule</title>
<polygon fill="#8dd3c7" stroke="black" points="1878.14,-122 1875.14,-126 1854.14,-126 1851.14,-122 1759.86,-122 1759.86,-86 1878.14,-86 1878.14,-122"/>
<text text-anchor="middle" x="1819" y="-99.8" font-family="Times,serif" font-size="14.00">AccordionModule</text>
</g>
<!-- AccordionModule&#45;&gt;RebirthUIModule -->
<g id="edge8" class="edge"><title>AccordionModule&#45;&gt;RebirthUIModule</title>
<path fill="none" stroke="black" d="M1764.31,-122.124C1764.31,-136.783 1764.31,-155 1764.31,-155 1764.31,-155 1498.23,-155 1498.23,-155"/>
<polygon fill="black" stroke="black" points="1498.23,-151.5 1488.23,-155 1498.23,-158.5 1498.23,-151.5"/>
</g>
<!-- ActionButtonModule -->
<g id="node9" class="node"><title>ActionButtonModule</title>
<polygon fill="#8dd3c7" stroke="black" points="1741.77,-122 1738.77,-126 1717.77,-126 1714.77,-122 1606.23,-122 1606.23,-86 1741.77,-86 1741.77,-122"/>
<text text-anchor="middle" x="1674" y="-99.8" font-family="Times,serif" font-size="14.00">ActionButtonModule</text>
</g>
<!-- ActionButtonModule&#45;&gt;RebirthUIModule -->
<g id="edge9" class="edge"><title>ActionButtonModule&#45;&gt;RebirthUIModule</title>
<path fill="none" stroke="black" d="M1698.38,-122.246C1698.38,-136.177 1698.38,-153 1698.38,-153 1698.38,-153 1498.23,-153 1498.23,-153"/>
<polygon fill="black" stroke="black" points="1498.23,-149.5 1488.23,-153 1498.23,-156.5 1498.23,-149.5"/>
</g>
<!-- RatingModule -->
<g id="node10" class="node"><title>RatingModule</title>
<polygon fill="#8dd3c7" stroke="black" points="1588.38,-122 1585.38,-126 1564.38,-126 1561.38,-122 1491.62,-122 1491.62,-86 1588.38,-86 1588.38,-122"/>
<text text-anchor="middle" x="1540" y="-99.8" font-family="Times,serif" font-size="14.00">RatingModule</text>
</g>
<!-- RatingModule&#45;&gt;RebirthUIModule -->
<g id="edge10" class="edge"><title>RatingModule&#45;&gt;RebirthUIModule</title>
<path fill="none" stroke="black" d="M1491.36,-104C1485.07,-104 1480.77,-104 1480.77,-104 1480.77,-104 1480.77,-140.894 1480.77,-140.894"/>
<polygon fill="black" stroke="black" points="1477.27,-140.894 1480.77,-150.894 1484.27,-140.894 1477.27,-140.894"/>
</g>
<!-- TabsModule -->
<g id="node11" class="node"><title>TabsModule</title>
<polygon fill="#8dd3c7" stroke="black" points="1473.26,-122 1470.26,-126 1449.26,-126 1446.26,-122 1386.74,-122 1386.74,-86 1473.26,-86 1473.26,-122"/>
<text text-anchor="middle" x="1430" y="-99.8" font-family="Times,serif" font-size="14.00">TabsModule</text>
</g>
<!-- TabsModule&#45;&gt;RebirthUIModule -->
<g id="edge11" class="edge"><title>TabsModule&#45;&gt;RebirthUIModule</title>
<path fill="none" stroke="black" d="M1430,-122.106C1430,-122.106 1430,-140.991 1430,-140.991"/>
<polygon fill="black" stroke="black" points="1426.5,-140.991 1430,-150.991 1433.5,-140.991 1426.5,-140.991"/>
</g>
<!-- TooltipModule -->
<g id="node12" class="node"><title>TooltipModule</title>
<polygon fill="#8dd3c7" stroke="black" points="1368.27,-122 1365.27,-126 1344.27,-126 1341.27,-122 1267.73,-122 1267.73,-86 1368.27,-86 1368.27,-122"/>
<text text-anchor="middle" x="1318" y="-99.8" font-family="Times,serif" font-size="14.00">TooltipModule</text>
</g>
<!-- TooltipModule&#45;&gt;RebirthUIModule -->
<g id="edge12" class="edge"><title>TooltipModule&#45;&gt;RebirthUIModule</title>
<path fill="none" stroke="black" d="M1368.29,-104C1374.78,-104 1379.23,-104 1379.23,-104 1379.23,-104 1379.23,-140.894 1379.23,-140.894"/>
<polygon fill="black" stroke="black" points="1375.73,-140.894 1379.23,-150.894 1382.73,-140.894 1375.73,-140.894"/>
</g>
<!-- PopoverModule -->
<g id="node13" class="node"><title>PopoverModule</title>
<polygon fill="#8dd3c7" stroke="black" points="1250.21,-122 1247.21,-126 1226.21,-126 1223.21,-122 1143.79,-122 1143.79,-86 1250.21,-86 1250.21,-122"/>
<text text-anchor="middle" x="1197" y="-99.8" font-family="Times,serif" font-size="14.00">PopoverModule</text>
</g>
<!-- PopoverModule&#45;&gt;RebirthUIModule -->
<g id="edge13" class="edge"><title>PopoverModule&#45;&gt;RebirthUIModule</title>
<path fill="none" stroke="black" d="M1211.2,-122.246C1211.2,-136.177 1211.2,-153 1211.2,-153 1211.2,-153 1361.65,-153 1361.65,-153"/>
<polygon fill="black" stroke="black" points="1361.65,-156.5 1371.65,-153 1361.65,-149.5 1361.65,-156.5"/>
</g>
<!-- DatePickerModule -->
<g id="node14" class="node"><title>DatePickerModule</title>
<polygon fill="#8dd3c7" stroke="black" points="1125.74,-122 1122.74,-126 1101.74,-126 1098.74,-122 1004.26,-122 1004.26,-86 1125.74,-86 1125.74,-122"/>
<text text-anchor="middle" x="1065" y="-99.8" font-family="Times,serif" font-size="14.00">DatePickerModule</text>
</g>
<!-- DatePickerModule&#45;&gt;RebirthUIModule -->
<g id="edge14" class="edge"><title>DatePickerModule&#45;&gt;RebirthUIModule</title>
<path fill="none" stroke="black" d="M1121.74,-122.124C1121.74,-136.783 1121.74,-155 1121.74,-155 1121.74,-155 1361.66,-155 1361.66,-155"/>
<polygon fill="black" stroke="black" points="1361.66,-158.5 1371.66,-155 1361.66,-151.5 1361.66,-158.5"/>
</g>
<!-- BreadcrumbsModule -->
<g id="node15" class="node"><title>BreadcrumbsModule</title>
<polygon fill="#8dd3c7" stroke="black" points="986.187,-122 983.187,-126 962.187,-126 959.187,-122 851.813,-122 851.813,-86 986.187,-86 986.187,-122"/>
<text text-anchor="middle" x="919" y="-99.8" font-family="Times,serif" font-size="14.00">BreadcrumbsModule</text>
</g>
<!-- BreadcrumbsModule&#45;&gt;RebirthUIModule -->
<g id="edge15" class="edge"><title>BreadcrumbsModule&#45;&gt;RebirthUIModule</title>
<path fill="none" stroke="black" d="M980.468,-122.24C980.468,-137.571 980.468,-157 980.468,-157 980.468,-157 1361.69,-157 1361.69,-157"/>
<polygon fill="black" stroke="black" points="1361.69,-160.5 1371.69,-157 1361.69,-153.5 1361.69,-160.5"/>
</g>
<!-- ProgressBarModule -->
<g id="node16" class="node"><title>ProgressBarModule</title>
<polygon fill="#8dd3c7" stroke="black" points="833.969,-122 830.969,-126 809.969,-126 806.969,-122 706.031,-122 706.031,-86 833.969,-86 833.969,-122"/>
<text text-anchor="middle" x="770" y="-99.8" font-family="Times,serif" font-size="14.00">ProgressBarModule</text>
</g>
<!-- ProgressBarModule&#45;&gt;RebirthUIModule -->
<g id="edge16" class="edge"><title>ProgressBarModule&#45;&gt;RebirthUIModule</title>
<path fill="none" stroke="black" d="M826.36,-122.009C826.36,-138.049 826.36,-159 826.36,-159 826.36,-159 1361.57,-159 1361.57,-159"/>
<polygon fill="black" stroke="black" points="1361.57,-162.5 1371.57,-159 1361.57,-155.5 1361.57,-162.5"/>
</g>
<!-- SelectButtonModule -->
<g id="node17" class="node"><title>SelectButtonModule</title>
<polygon fill="#8dd3c7" stroke="black" points="687.875,-122 684.875,-126 663.875,-126 660.875,-122 556.125,-122 556.125,-86 687.875,-86 687.875,-122"/>
<text text-anchor="middle" x="622" y="-99.8" font-family="Times,serif" font-size="14.00">SelectButtonModule</text>
</g>
<!-- SelectButtonModule&#45;&gt;RebirthUIModule -->
<g id="edge17" class="edge"><title>SelectButtonModule&#45;&gt;RebirthUIModule</title>
<path fill="none" stroke="black" d="M678.476,-122.035C678.476,-138.734 678.476,-161 678.476,-161 678.476,-161 1361.65,-161 1361.65,-161"/>
<polygon fill="black" stroke="black" points="1361.65,-164.5 1371.65,-161 1361.65,-157.5 1361.65,-164.5"/>
</g>
<!-- OverlayModule -->
<g id="node18" class="node"><title>OverlayModule</title>
<polygon fill="#8dd3c7" stroke="black" points="538.137,-122 535.137,-126 514.137,-126 511.137,-122 433.863,-122 433.863,-86 538.137,-86 538.137,-122"/>
<text text-anchor="middle" x="486" y="-99.8" font-family="Times,serif" font-size="14.00">OverlayModule</text>
</g>
<!-- OverlayModule&#45;&gt;RebirthUIModule -->
<g id="edge18" class="edge"><title>OverlayModule&#45;&gt;RebirthUIModule</title>
<path fill="none" stroke="black" d="M525.19,-122.023C525.19,-139.373 525.19,-163 525.19,-163 525.19,-163 1361.68,-163 1361.68,-163"/>
<polygon fill="black" stroke="black" points="1361.68,-166.5 1371.68,-163 1361.68,-159.5 1361.68,-166.5"/>
</g>
<!-- CarouselModule -->
<g id="node19" class="node"><title>CarouselModule</title>
<polygon fill="#8dd3c7" stroke="black" points="415.812,-122 412.812,-126 391.812,-126 388.812,-122 306.188,-122 306.188,-86 415.812,-86 415.812,-122"/>
<text text-anchor="middle" x="361" y="-99.8" font-family="Times,serif" font-size="14.00">CarouselModule</text>
</g>
<!-- CarouselModule&#45;&gt;RebirthUIModule -->
<g id="edge19" class="edge"><title>CarouselModule&#45;&gt;RebirthUIModule</title>
<path fill="none" stroke="black" d="M411.794,-122.302C411.794,-140.27 411.794,-165 411.794,-165 411.794,-165 1361.6,-165 1361.6,-165"/>
<polygon fill="black" stroke="black" points="1361.6,-168.5 1371.6,-165 1361.6,-161.5 1361.6,-168.5"/>
</g>
<!-- SwitchModule -->
<g id="node20" class="node"><title>SwitchModule</title>
<polygon fill="#8dd3c7" stroke="black" points="288.436,-122 285.436,-126 264.436,-126 261.436,-122 189.564,-122 189.564,-86 288.436,-86 288.436,-122"/>
<text text-anchor="middle" x="239" y="-99.8" font-family="Times,serif" font-size="14.00">SwitchModule</text>
</g>
<!-- SwitchModule&#45;&gt;RebirthUIModule -->
<g id="edge20" class="edge"><title>SwitchModule&#45;&gt;RebirthUIModule</title>
<path fill="none" stroke="black" d="M282.906,-122.222C282.906,-140.829 282.906,-167 282.906,-167 282.906,-167 1361.54,-167 1361.54,-167"/>
<polygon fill="black" stroke="black" points="1361.54,-170.5 1371.54,-167 1361.54,-163.5 1361.54,-170.5"/>
</g>
<!-- MenuBarModule -->
<g id="node21" class="node"><title>MenuBarModule</title>
<polygon fill="#8dd3c7" stroke="black" points="172.422,-122 169.422,-126 148.422,-126 145.422,-122 59.5784,-122 59.5784,-86 172.422,-86 172.422,-122"/>
<text text-anchor="middle" x="116" y="-99.8" font-family="Times,serif" font-size="14.00">MenuBarModule</text>
</g>
<!-- MenuBarModule&#45;&gt;RebirthUIModule -->
<g id="edge21" class="edge"><title>MenuBarModule&#45;&gt;RebirthUIModule</title>
<path fill="none" stroke="black" d="M165.121,-122.106C165.121,-141.339 165.121,-169 165.121,-169 165.121,-169 1361.53,-169 1361.53,-169"/>
<polygon fill="black" stroke="black" points="1361.53,-172.5 1371.53,-169 1361.53,-165.5 1361.53,-172.5"/>
</g>
<!-- ModalModule  -->
<g id="node23" class="node"><title>ModalModule </title>
<polygon fill="#fb8072" stroke="black" points="2742.6,-252 2643.4,-252 2643.4,-216 2742.6,-216 2742.6,-252"/>
<text text-anchor="middle" x="2693" y="-229.8" font-family="Times,serif" font-size="14.00">ModalModule </text>
</g>
<!-- RebirthUIModule&#45;&gt;ModalModule  -->
<g id="edge22" class="edge"><title>RebirthUIModule&#45;&gt;ModalModule </title>
<path fill="none" stroke="black" stroke-dasharray="5,2" d="M1488.38,-170C1734.55,-170 2675.12,-170 2675.12,-170 2675.12,-170 2675.12,-205.831 2675.12,-205.831"/>
<polygon fill="black" stroke="black" points="2671.63,-205.831 2675.12,-215.831 2678.63,-205.831 2671.63,-205.831"/>
</g>
<!-- DialogModule  -->
<g id="node24" class="node"><title>DialogModule </title>
<polygon fill="#fb8072" stroke="black" points="2625.65,-252 2524.35,-252 2524.35,-216 2625.65,-216 2625.65,-252"/>
<text text-anchor="middle" x="2575" y="-229.8" font-family="Times,serif" font-size="14.00">DialogModule </text>
</g>
<!-- RebirthUIModule&#45;&gt;DialogModule  -->
<g id="edge23" class="edge"><title>RebirthUIModule&#45;&gt;DialogModule </title>
<path fill="none" stroke="black" stroke-dasharray="5,2" d="M1488.3,-172C1719.41,-172 2558.62,-172 2558.62,-172 2558.62,-172 2558.62,-205.733 2558.62,-205.733"/>
<polygon fill="black" stroke="black" points="2555.13,-205.733 2558.62,-215.733 2562.13,-205.733 2555.13,-205.733"/>
</g>
<!-- PagerModule  -->
<g id="node25" class="node"><title>PagerModule </title>
<polygon fill="#fb8072" stroke="black" points="2506.42,-252 2411.58,-252 2411.58,-216 2506.42,-216 2506.42,-252"/>
<text text-anchor="middle" x="2459" y="-229.8" font-family="Times,serif" font-size="14.00">PagerModule </text>
</g>
<!-- RebirthUIModule&#45;&gt;PagerModule  -->
<g id="edge24" class="edge"><title>RebirthUIModule&#45;&gt;PagerModule </title>
<path fill="none" stroke="black" stroke-dasharray="5,2" d="M1488.17,-174C1703.65,-174 2444.12,-174 2444.12,-174 2444.12,-174 2444.12,-205.998 2444.12,-205.998"/>
<polygon fill="black" stroke="black" points="2440.63,-205.998 2444.12,-215.998 2447.63,-205.998 2440.63,-205.998"/>
</g>
<!-- PaginationModule  -->
<g id="node26" class="node"><title>PaginationModule </title>
<polygon fill="#fb8072" stroke="black" points="2393.43,-252 2270.57,-252 2270.57,-216 2393.43,-216 2393.43,-252"/>
<text text-anchor="middle" x="2332" y="-229.8" font-family="Times,serif" font-size="14.00">PaginationModule </text>
</g>
<!-- RebirthUIModule&#45;&gt;PaginationModule  -->
<g id="edge25" class="edge"><title>RebirthUIModule&#45;&gt;PaginationModule </title>
<path fill="none" stroke="black" stroke-dasharray="5,2" d="M1488.34,-176C1686.14,-176 2319.12,-176 2319.12,-176 2319.12,-176 2319.12,-205.966 2319.12,-205.966"/>
<polygon fill="black" stroke="black" points="2315.63,-205.966 2319.12,-215.966 2322.63,-205.966 2315.63,-205.966"/>
</g>
<!-- AlertBoxModule  -->
<g id="node27" class="node"><title>AlertBoxModule </title>
<polygon fill="#fb8072" stroke="black" points="2252.65,-252 2137.35,-252 2137.35,-216 2252.65,-216 2252.65,-252"/>
<text text-anchor="middle" x="2195" y="-229.8" font-family="Times,serif" font-size="14.00">AlertBoxModule </text>
</g>
<!-- RebirthUIModule&#45;&gt;AlertBoxModule  -->
<g id="edge26" class="edge"><title>RebirthUIModule&#45;&gt;AlertBoxModule </title>
<path fill="none" stroke="black" stroke-dasharray="5,2" d="M1488.2,-178C1664.97,-178 2183.62,-178 2183.62,-178 2183.62,-178 2183.62,-205.973 2183.62,-205.973"/>
<polygon fill="black" stroke="black" points="2180.13,-205.973 2183.62,-215.973 2187.13,-205.973 2180.13,-205.973"/>
</g>
<!-- BadgeModule  -->
<g id="node28" class="node"><title>BadgeModule </title>
<polygon fill="#fb8072" stroke="black" points="2119.32,-252 2020.68,-252 2020.68,-216 2119.32,-216 2119.32,-252"/>
<text text-anchor="middle" x="2070" y="-229.8" font-family="Times,serif" font-size="14.00">BadgeModule </text>
</g>
<!-- RebirthUIModule&#45;&gt;BadgeModule  -->
<g id="edge27" class="edge"><title>RebirthUIModule&#45;&gt;BadgeModule </title>
<path fill="none" stroke="black" stroke-dasharray="5,2" d="M1488.2,-180C1644.31,-180 2060.62,-180 2060.62,-180 2060.62,-180 2060.62,-205.718 2060.62,-205.718"/>
<polygon fill="black" stroke="black" points="2057.13,-205.718 2060.62,-215.718 2064.13,-205.718 2057.13,-205.718"/>
</g>
<!-- PanelModule  -->
<g id="node29" class="node"><title>PanelModule </title>
<polygon fill="#fb8072" stroke="black" points="2003.15,-252 1908.85,-252 1908.85,-216 2003.15,-216 2003.15,-252"/>
<text text-anchor="middle" x="1956" y="-229.8" font-family="Times,serif" font-size="14.00">PanelModule </text>
</g>
<!-- RebirthUIModule&#45;&gt;PanelModule  -->
<g id="edge28" class="edge"><title>RebirthUIModule&#45;&gt;PanelModule </title>
<path fill="none" stroke="black" stroke-dasharray="5,2" d="M1488.18,-182C1623.53,-182 1948.12,-182 1948.12,-182 1948.12,-182 1948.12,-205.813 1948.12,-205.813"/>
<polygon fill="black" stroke="black" points="1944.63,-205.813 1948.12,-215.813 1951.63,-205.813 1944.63,-205.813"/>
</g>
<!-- AccordionModule  -->
<g id="node30" class="node"><title>AccordionModule </title>
<polygon fill="#fb8072" stroke="black" points="1891.14,-252 1768.86,-252 1768.86,-216 1891.14,-216 1891.14,-252"/>
<text text-anchor="middle" x="1830" y="-229.8" font-family="Times,serif" font-size="14.00">AccordionModule </text>
</g>
<!-- RebirthUIModule&#45;&gt;AccordionModule  -->
<g id="edge29" class="edge"><title>RebirthUIModule&#45;&gt;AccordionModule </title>
<path fill="none" stroke="black" stroke-dasharray="5,2" d="M1488.5,-184C1598.16,-184 1823.62,-184 1823.62,-184 1823.62,-184 1823.62,-205.949 1823.62,-205.949"/>
<polygon fill="black" stroke="black" points="1820.13,-205.949 1823.62,-215.949 1827.13,-205.949 1820.13,-205.949"/>
</g>
<!-- ActionButtonModule  -->
<g id="node31" class="node"><title>ActionButtonModule </title>
<polygon fill="#fb8072" stroke="black" points="1750.77,-252 1611.23,-252 1611.23,-216 1750.77,-216 1750.77,-252"/>
<text text-anchor="middle" x="1681" y="-229.8" font-family="Times,serif" font-size="14.00">ActionButtonModule </text>
</g>
<!-- RebirthUIModule&#45;&gt;ActionButtonModule  -->
<g id="edge30" class="edge"><title>RebirthUIModule&#45;&gt;ActionButtonModule </title>
<path fill="none" stroke="black" stroke-dasharray="5,2" d="M1488.2,-186C1554.83,-186 1654.87,-186 1654.87,-186 1654.87,-186 1654.87,-205.853 1654.87,-205.853"/>
<polygon fill="black" stroke="black" points="1651.37,-205.853 1654.87,-215.853 1658.37,-205.853 1651.37,-205.853"/>
</g>
<!-- RatingModule  -->
<g id="node32" class="node"><title>RatingModule </title>
<polygon fill="#fb8072" stroke="black" points="1593.38,-252 1492.62,-252 1492.62,-216 1593.38,-216 1593.38,-252"/>
<text text-anchor="middle" x="1543" y="-229.8" font-family="Times,serif" font-size="14.00">RatingModule </text>
</g>
<!-- RebirthUIModule&#45;&gt;RatingModule  -->
<g id="edge31" class="edge"><title>RebirthUIModule&#45;&gt;RatingModule </title>
<path fill="none" stroke="black" stroke-dasharray="5,2" d="M1481.64,-187.106C1481.64,-206.339 1481.64,-234 1481.64,-234 1481.64,-234 1482.74,-234 1482.74,-234"/>
<polygon fill="black" stroke="black" points="1482.61,-237.5 1492.61,-234 1482.61,-230.5 1482.61,-237.5"/>
</g>
<!-- TabsModule  -->
<g id="node33" class="node"><title>TabsModule </title>
<polygon fill="#fb8072" stroke="black" points="1475.26,-252 1384.74,-252 1384.74,-216 1475.26,-216 1475.26,-252"/>
<text text-anchor="middle" x="1430" y="-229.8" font-family="Times,serif" font-size="14.00">TabsModule </text>
</g>
<!-- RebirthUIModule&#45;&gt;TabsModule  -->
<g id="edge32" class="edge"><title>RebirthUIModule&#45;&gt;TabsModule </title>
<path fill="none" stroke="black" stroke-dasharray="5,2" d="M1430,-187.106C1430,-187.106 1430,-205.991 1430,-205.991"/>
<polygon fill="black" stroke="black" points="1426.5,-205.991 1430,-215.991 1433.5,-205.991 1426.5,-205.991"/>
</g>
<!-- TooltipModule  -->
<g id="node34" class="node"><title>TooltipModule </title>
<polygon fill="#fb8072" stroke="black" points="1367.27,-252 1262.73,-252 1262.73,-216 1367.27,-216 1367.27,-252"/>
<text text-anchor="middle" x="1315" y="-229.8" font-family="Times,serif" font-size="14.00">TooltipModule </text>
</g>
<!-- RebirthUIModule&#45;&gt;TooltipModule  -->
<g id="edge33" class="edge"><title>RebirthUIModule&#45;&gt;TooltipModule </title>
<path fill="none" stroke="black" stroke-dasharray="5,2" d="M1378.36,-187.106C1378.36,-206.339 1378.36,-234 1378.36,-234 1378.36,-234 1377.25,-234 1377.25,-234"/>
<polygon fill="black" stroke="black" points="1377.32,-230.5 1367.32,-234 1377.32,-237.5 1377.32,-230.5"/>
</g>
<!-- PopoverModule  -->
<g id="node35" class="node"><title>PopoverModule </title>
<polygon fill="#fb8072" stroke="black" points="1244.71,-252 1135.29,-252 1135.29,-216 1244.71,-216 1244.71,-252"/>
<text text-anchor="middle" x="1190" y="-229.8" font-family="Times,serif" font-size="14.00">PopoverModule </text>
</g>
<!-- RebirthUIModule&#45;&gt;PopoverModule  -->
<g id="edge34" class="edge"><title>RebirthUIModule&#45;&gt;PopoverModule </title>
<path fill="none" stroke="black" stroke-dasharray="5,2" d="M1371.77,-186C1297.21,-186 1177.55,-186 1177.55,-186 1177.55,-186 1177.55,-205.853 1177.55,-205.853"/>
<polygon fill="black" stroke="black" points="1174.05,-205.853 1177.55,-215.853 1181.05,-205.853 1174.05,-205.853"/>
</g>
<!-- DatePickerModule  -->
<g id="node36" class="node"><title>DatePickerModule </title>
<polygon fill="#fb8072" stroke="black" points="1117.74,-252 992.261,-252 992.261,-216 1117.74,-216 1117.74,-252"/>
<text text-anchor="middle" x="1055" y="-229.8" font-family="Times,serif" font-size="14.00">DatePickerModule </text>
</g>
<!-- RebirthUIModule&#45;&gt;DatePickerModule  -->
<g id="edge35" class="edge"><title>RebirthUIModule&#45;&gt;DatePickerModule </title>
<path fill="none" stroke="black" stroke-dasharray="5,2" d="M1371.51,-184C1267.43,-184 1060.88,-184 1060.88,-184 1060.88,-184 1060.88,-205.949 1060.88,-205.949"/>
<polygon fill="black" stroke="black" points="1057.38,-205.949 1060.88,-215.949 1064.38,-205.949 1057.38,-205.949"/>
</g>
<!-- BreadcrumbsModule  -->
<g id="node37" class="node"><title>BreadcrumbsModule </title>
<polygon fill="#fb8072" stroke="black" points="974.687,-252 837.313,-252 837.313,-216 974.687,-216 974.687,-252"/>
<text text-anchor="middle" x="906" y="-229.8" font-family="Times,serif" font-size="14.00">BreadcrumbsModule </text>
</g>
<!-- RebirthUIModule&#45;&gt;BreadcrumbsModule  -->
<g id="edge36" class="edge"><title>RebirthUIModule&#45;&gt;BreadcrumbsModule </title>
<path fill="none" stroke="black" stroke-dasharray="5,2" d="M1371.74,-182C1236.63,-182 913.375,-182 913.375,-182 913.375,-182 913.375,-205.813 913.375,-205.813"/>
<polygon fill="black" stroke="black" points="909.875,-205.813 913.375,-215.813 916.875,-205.813 909.875,-205.813"/>
</g>
<!-- ProgressBarModule  -->
<g id="node38" class="node"><title>ProgressBarModule </title>
<polygon fill="#fb8072" stroke="black" points="818.97,-252 687.03,-252 687.03,-216 818.97,-216 818.97,-252"/>
<text text-anchor="middle" x="753" y="-229.8" font-family="Times,serif" font-size="14.00">ProgressBarModule </text>
</g>
<!-- RebirthUIModule&#45;&gt;ProgressBarModule  -->
<g id="edge37" class="edge"><title>RebirthUIModule&#45;&gt;ProgressBarModule </title>
<path fill="none" stroke="black" stroke-dasharray="5,2" d="M1371.63,-180C1208.96,-180 762.375,-180 762.375,-180 762.375,-180 762.375,-205.718 762.375,-205.718"/>
<polygon fill="black" stroke="black" points="758.875,-205.718 762.375,-215.718 765.875,-205.718 758.875,-205.718"/>
</g>
<!-- SelectButtonModule  -->
<g id="node39" class="node"><title>SelectButtonModule </title>
<polygon fill="#fb8072" stroke="black" points="669.876,-252 534.124,-252 534.124,-216 669.876,-216 669.876,-252"/>
<text text-anchor="middle" x="602" y="-229.8" font-family="Times,serif" font-size="14.00">SelectButtonModule </text>
</g>
<!-- RebirthUIModule&#45;&gt;SelectButtonModule  -->
<g id="edge38" class="edge"><title>RebirthUIModule&#45;&gt;SelectButtonModule </title>
<path fill="none" stroke="black" stroke-dasharray="5,2" d="M1371.56,-178C1184.54,-178 612.875,-178 612.875,-178 612.875,-178 612.875,-205.973 612.875,-205.973"/>
<polygon fill="black" stroke="black" points="609.375,-205.973 612.875,-215.973 616.375,-205.973 609.375,-205.973"/>
</g>
<!-- OverlayModule  -->
<g id="node40" class="node"><title>OverlayModule </title>
<polygon fill="#fb8072" stroke="black" points="516.137,-252 407.863,-252 407.863,-216 516.137,-216 516.137,-252"/>
<text text-anchor="middle" x="462" y="-229.8" font-family="Times,serif" font-size="14.00">OverlayModule </text>
</g>
<!-- RebirthUIModule&#45;&gt;OverlayModule  -->
<g id="edge39" class="edge"><title>RebirthUIModule&#45;&gt;OverlayModule </title>
<path fill="none" stroke="black" stroke-dasharray="5,2" d="M1371.69,-176C1164.32,-176 474.875,-176 474.875,-176 474.875,-176 474.875,-205.966 474.875,-205.966"/>
<polygon fill="black" stroke="black" points="471.375,-205.966 474.875,-215.966 478.375,-205.966 471.375,-205.966"/>
</g>
<!-- CarouselModule  -->
<g id="node41" class="node"><title>CarouselModule </title>
<polygon fill="#fb8072" stroke="black" points="390.312,-252 277.688,-252 277.688,-216 390.312,-216 390.312,-252"/>
<text text-anchor="middle" x="334" y="-229.8" font-family="Times,serif" font-size="14.00">CarouselModule </text>
</g>
<!-- RebirthUIModule&#45;&gt;CarouselModule  -->
<g id="edge40" class="edge"><title>RebirthUIModule&#45;&gt;CarouselModule </title>
<path fill="none" stroke="black" stroke-dasharray="5,2" d="M1371.46,-174C1146.28,-174 348.375,-174 348.375,-174 348.375,-174 348.375,-205.998 348.375,-205.998"/>
<polygon fill="black" stroke="black" points="344.875,-205.998 348.375,-215.998 351.875,-205.998 344.875,-205.998"/>
</g>
<!-- SwitchModule  -->
<g id="node42" class="node"><title>SwitchModule </title>
<polygon fill="#fb8072" stroke="black" points="259.935,-252 158.065,-252 158.065,-216 259.935,-216 259.935,-252"/>
<text text-anchor="middle" x="209" y="-229.8" font-family="Times,serif" font-size="14.00">SwitchModule </text>
</g>
<!-- RebirthUIModule&#45;&gt;SwitchModule  -->
<g id="edge41" class="edge"><title>RebirthUIModule&#45;&gt;SwitchModule </title>
<path fill="none" stroke="black" stroke-dasharray="5,2" d="M1371.47,-172C1130.13,-172 224.875,-172 224.875,-172 224.875,-172 224.875,-205.733 224.875,-205.733"/>
<polygon fill="black" stroke="black" points="221.375,-205.733 224.875,-215.733 228.375,-205.733 221.375,-205.733"/>
</g>
<!-- MenuBarModule  -->
<g id="node43" class="node"><title>MenuBarModule </title>
<polygon fill="#fb8072" stroke="black" points="139.921,-252 24.0792,-252 24.0792,-216 139.921,-216 139.921,-252"/>
<text text-anchor="middle" x="82" y="-229.8" font-family="Times,serif" font-size="14.00">MenuBarModule </text>
</g>
<!-- RebirthUIModule&#45;&gt;MenuBarModule  -->
<g id="edge42" class="edge"><title>RebirthUIModule&#45;&gt;MenuBarModule </title>
<path fill="none" stroke="black" stroke-dasharray="5,2" d="M1371.56,-170C1114.85,-170 99.875,-170 99.875,-170 99.875,-170 99.875,-205.831 99.875,-205.831"/>
<polygon fill="black" stroke="black" points="96.3751,-205.831 99.875,-215.831 103.375,-205.831 96.3751,-205.831"/>
</g>
</g>
</svg>
