<?xml version="1.0" encoding="UTF-8" standalone="no"?>
<!DOCTYPE svg PUBLIC "-//W3C//DTD SVG 1.1//EN"
 "http://www.w3.org/Graphics/SVG/1.1/DTD/svg11.dtd">
<!-- Generated by graphviz version 2.38.0 (20140413.2041)
 -->
<!-- Title: dependencies Pages: 1 -->
<svg width="2521pt" height="284pt"
 viewBox="0.00 0.00 2521.00 284.00" xmlns="http://www.w3.org/2000/svg" xmlns:xlink="http://www.w3.org/1999/xlink">
<g id="graph0" class="graph" transform="scale(1 1) rotate(0) translate(4 280)">
<title>dependencies</title>
<polygon fill="white" stroke="none" points="-4,4 -4,-280 2517,-280 2517,4 -4,4"/>
<text text-anchor="start" x="1235.51" y="-42.4" font-family="sans-serif" font-weight="bold" font-size="14.00">Legend</text>
<polygon fill="#ffffb3" stroke="none" points="1022.5,-10 1022.5,-30 1042.5,-30 1042.5,-10 1022.5,-10"/>
<text text-anchor="start" x="1046.13" y="-15.4" font-family="sans-serif" font-size="14.00"> &#160;Declarations</text>
<polygon fill="#8dd3c7" stroke="none" points="1135.5,-10 1135.5,-30 1155.5,-30 1155.5,-10 1135.5,-10"/>
<text text-anchor="start" x="1159.23" y="-15.4" font-family="sans-serif" font-size="14.00"> &#160;Module</text>
<polygon fill="#80b1d3" stroke="none" points="1221.5,-10 1221.5,-30 1241.5,-30 1241.5,-10 1221.5,-10"/>
<text text-anchor="start" x="1245.28" y="-15.4" font-family="sans-serif" font-size="14.00"> &#160;Bootstrap</text>
<polygon fill="#fdb462" stroke="none" points="1318.5,-10 1318.5,-30 1338.5,-30 1338.5,-10 1318.5,-10"/>
<text text-anchor="start" x="1342.17" y="-15.4" font-family="sans-serif" font-size="14.00"> &#160;Providers</text>
<polygon fill="#fb8072" stroke="none" points="1414.5,-10 1414.5,-30 1434.5,-30 1434.5,-10 1414.5,-10"/>
<text text-anchor="start" x="1438.23" y="-15.4" font-family="sans-serif" font-size="14.00"> &#160;Exports</text>
<g id="clust1" class="cluster"><title>cluster_RebirthUIModule</title>
<polygon fill="none" stroke="black" stroke-dasharray="1,5" points="8,-70 8,-268 2505,-268 2505,-70 8,-70"/>
</g>
<g id="clust3" class="cluster"><title>cluster_RebirthUIModule_imports</title>
<polygon fill="none" stroke="black" points="47,-78 47,-130 2464,-130 2464,-78 47,-78"/>
</g>
<g id="clust4" class="cluster"><title>cluster_RebirthUIModule_exports</title>
<polygon fill="none" stroke="black" points="16,-208 16,-260 2497,-260 2497,-208 16,-208"/>
</g>
<!-- ModalModule -->
<g id="node1" class="node"><title>ModalModule</title>
<polygon fill="#8dd3c7" stroke="black" points="2456.1,-122 2453.1,-126 2432.1,-126 2429.1,-122 2359.9,-122 2359.9,-86 2456.1,-86 2456.1,-122"/>
<text text-anchor="middle" x="2408" y="-99.8" font-family="Times,serif" font-size="14.00">ModalModule</text>
</g>
<!-- RebirthUIModule -->
<g id="node20" class="node"><title>RebirthUIModule</title>
<polygon fill="#8dd3c7" stroke="black" points="1347.31,-187 1344.31,-191 1323.31,-191 1320.31,-187 1230.69,-187 1230.69,-151 1347.31,-151 1347.31,-187"/>
<text text-anchor="middle" x="1289" y="-164.8" font-family="Times,serif" font-size="14.00">RebirthUIModule</text>
</g>
<!-- ModalModule&#45;&gt;RebirthUIModule -->
<g id="edge1" class="edge"><title>ModalModule&#45;&gt;RebirthUIModule</title>
<path fill="none" stroke="black" d="M2365.76,-122.169C2365.76,-141.09 2365.76,-168 2365.76,-168 2365.76,-168 1357.27,-168 1357.27,-168"/>
<polygon fill="black" stroke="black" points="1357.27,-164.5 1347.27,-168 1357.27,-171.5 1357.27,-164.5"/>
</g>
<!-- DialogModule -->
<g id="node2" class="node"><title>DialogModule</title>
<polygon fill="#8dd3c7" stroke="black" points="2341.65,-122 2338.65,-126 2317.65,-126 2314.65,-122 2244.35,-122 2244.35,-86 2341.65,-86 2341.65,-122"/>
<text text-anchor="middle" x="2293" y="-99.8" font-family="Times,serif" font-size="14.00">DialogModule</text>
</g>
<!-- DialogModule&#45;&gt;RebirthUIModule -->
<g id="edge2" class="edge"><title>DialogModule&#45;&gt;RebirthUIModule</title>
<path fill="none" stroke="black" d="M2248.32,-122.267C2248.32,-140.555 2248.32,-166 2248.32,-166 2248.32,-166 1357.21,-166 1357.21,-166"/>
<polygon fill="black" stroke="black" points="1357.21,-162.5 1347.21,-166 1357.21,-169.5 1357.21,-162.5"/>
</g>
<!-- PagerModule -->
<g id="node3" class="node"><title>PagerModule</title>
<polygon fill="#8dd3c7" stroke="black" points="2225.92,-122 2222.92,-126 2201.92,-126 2198.92,-122 2134.08,-122 2134.08,-86 2225.92,-86 2225.92,-122"/>
<text text-anchor="middle" x="2180" y="-99.8" font-family="Times,serif" font-size="14.00">PagerModule</text>
</g>
<!-- PagerModule&#45;&gt;RebirthUIModule -->
<g id="edge3" class="edge"><title>PagerModule&#45;&gt;RebirthUIModule</title>
<path fill="none" stroke="black" d="M2148.5,-122.002C2148.5,-139.675 2148.5,-164 2148.5,-164 2148.5,-164 1357.4,-164 1357.4,-164"/>
<polygon fill="black" stroke="black" points="1357.4,-160.5 1347.4,-164 1357.4,-167.5 1357.4,-160.5"/>
</g>
<!-- PaginationModule -->
<g id="node4" class="node"><title>PaginationModule</title>
<polygon fill="#8dd3c7" stroke="black" points="2116.93,-122 2113.93,-126 2092.93,-126 2089.93,-122 1997.07,-122 1997.07,-86 2116.93,-86 2116.93,-122"/>
<text text-anchor="middle" x="2057" y="-99.8" font-family="Times,serif" font-size="14.00">PaginationModule</text>
</g>
<!-- PaginationModule&#45;&gt;RebirthUIModule -->
<g id="edge4" class="edge"><title>PaginationModule&#45;&gt;RebirthUIModule</title>
<path fill="none" stroke="black" d="M2007.55,-122.034C2007.55,-139.06 2007.55,-162 2007.55,-162 2007.55,-162 1357.19,-162 1357.19,-162"/>
<polygon fill="black" stroke="black" points="1357.19,-158.5 1347.19,-162 1357.19,-165.5 1357.19,-158.5"/>
</g>
<!-- AlertBoxModule -->
<g id="node5" class="node"><title>AlertBoxModule</title>
<polygon fill="#8dd3c7" stroke="black" points="1978.65,-122 1975.65,-126 1954.65,-126 1951.65,-122 1867.35,-122 1867.35,-86 1978.65,-86 1978.65,-122"/>
<text text-anchor="middle" x="1923" y="-99.8" font-family="Times,serif" font-size="14.00">AlertBoxModule</text>
</g>
<!-- AlertBoxModule&#45;&gt;RebirthUIModule -->
<g id="edge5" class="edge"><title>AlertBoxModule&#45;&gt;RebirthUIModule</title>
<path fill="none" stroke="black" d="M1875.3,-122.027C1875.3,-138.398 1875.3,-160 1875.3,-160 1875.3,-160 1357.36,-160 1357.36,-160"/>
<polygon fill="black" stroke="black" points="1357.36,-156.5 1347.36,-160 1357.36,-163.5 1357.36,-156.5"/>
</g>
<!-- BadgeModule -->
<g id="node6" class="node"><title>BadgeModule</title>
<polygon fill="#8dd3c7" stroke="black" points="1849.82,-122 1846.82,-126 1825.82,-126 1822.82,-122 1754.18,-122 1754.18,-86 1849.82,-86 1849.82,-122"/>
<text text-anchor="middle" x="1802" y="-99.8" font-family="Times,serif" font-size="14.00">BadgeModule</text>
</g>
<!-- BadgeModule&#45;&gt;RebirthUIModule -->
<g id="edge6" class="edge"><title>BadgeModule&#45;&gt;RebirthUIModule</title>
<path fill="none" stroke="black" d="M1760.47,-122.282C1760.47,-137.948 1760.47,-158 1760.47,-158 1760.47,-158 1357.28,-158 1357.28,-158"/>
<polygon fill="black" stroke="black" points="1357.28,-154.5 1347.28,-158 1357.28,-161.5 1357.28,-154.5"/>
</g>
<!-- PanelModule -->
<g id="node7" class="node"><title>PanelModule</title>
<polygon fill="#8dd3c7" stroke="black" points="1736.15,-122 1733.15,-126 1712.15,-126 1709.15,-122 1645.85,-122 1645.85,-86 1736.15,-86 1736.15,-122"/>
<text text-anchor="middle" x="1691" y="-99.8" font-family="Times,serif" font-size="14.00">PanelModule</text>
</g>
<!-- PanelModule&#45;&gt;RebirthUIModule -->
<g id="edge7" class="edge"><title>PanelModule&#45;&gt;RebirthUIModule</title>
<path fill="none" stroke="black" d="M1650.3,-122.187C1650.3,-137.182 1650.3,-156 1650.3,-156 1650.3,-156 1357.45,-156 1357.45,-156"/>
<polygon fill="black" stroke="black" points="1357.45,-152.5 1347.45,-156 1357.45,-159.5 1357.45,-152.5"/>
</g>
<!-- AccordionModule -->
<g id="node8" class="node"><title>AccordionModule</title>
<polygon fill="#8dd3c7" stroke="black" points="1627.14,-122 1624.14,-126 1603.14,-126 1600.14,-122 1508.86,-122 1508.86,-86 1627.14,-86 1627.14,-122"/>
<text text-anchor="middle" x="1568" y="-99.8" font-family="Times,serif" font-size="14.00">AccordionModule</text>
</g>
<!-- AccordionModule&#45;&gt;RebirthUIModule -->
<g id="edge8" class="edge"><title>AccordionModule&#45;&gt;RebirthUIModule</title>
<path fill="none" stroke="black" d="M1589.86,-122.051C1589.86,-136.373 1589.86,-154 1589.86,-154 1589.86,-154 1357.36,-154 1357.36,-154"/>
<polygon fill="black" stroke="black" points="1357.36,-150.5 1347.36,-154 1357.36,-157.5 1357.36,-150.5"/>
</g>
<!-- ActionButtonModule -->
<g id="node9" class="node"><title>ActionButtonModule</title>
<polygon fill="#8dd3c7" stroke="black" points="1490.77,-122 1487.77,-126 1466.77,-126 1463.77,-122 1355.23,-122 1355.23,-86 1490.77,-86 1490.77,-122"/>
<text text-anchor="middle" x="1423" y="-99.8" font-family="Times,serif" font-size="14.00">ActionButtonModule</text>
</g>
<!-- ActionButtonModule&#45;&gt;RebirthUIModule -->
<g id="edge9" class="edge"><title>ActionButtonModule&#45;&gt;RebirthUIModule</title>
<path fill="none" stroke="black" d="M1354.91,-104C1347.34,-104 1342.3,-104 1342.3,-104 1342.3,-104 1342.3,-140.894 1342.3,-140.894"/>
<polygon fill="black" stroke="black" points="1338.8,-140.894 1342.3,-150.894 1345.8,-140.894 1338.8,-140.894"/>
</g>
<!-- RatingModule -->
<g id="node10" class="node"><title>RatingModule</title>
<polygon fill="#8dd3c7" stroke="black" points="1337.38,-122 1334.38,-126 1313.38,-126 1310.38,-122 1240.62,-122 1240.62,-86 1337.38,-86 1337.38,-122"/>
<text text-anchor="middle" x="1289" y="-99.8" font-family="Times,serif" font-size="14.00">RatingModule</text>
</g>
<!-- RatingModule&#45;&gt;RebirthUIModule -->
<g id="edge10" class="edge"><title>RatingModule&#45;&gt;RebirthUIModule</title>
<path fill="none" stroke="black" d="M1289,-122.106C1289,-122.106 1289,-140.991 1289,-140.991"/>
<polygon fill="black" stroke="black" points="1285.5,-140.991 1289,-150.991 1292.5,-140.991 1285.5,-140.991"/>
</g>
<!-- TabsModule -->
<g id="node11" class="node"><title>TabsModule</title>
<polygon fill="#8dd3c7" stroke="black" points="1222.26,-122 1219.26,-126 1198.26,-126 1195.26,-122 1135.74,-122 1135.74,-86 1222.26,-86 1222.26,-122"/>
<text text-anchor="middle" x="1179" y="-99.8" font-family="Times,serif" font-size="14.00">TabsModule</text>
</g>
<!-- TabsModule&#45;&gt;RebirthUIModule -->
<g id="edge11" class="edge"><title>TabsModule&#45;&gt;RebirthUIModule</title>
<path fill="none" stroke="black" d="M1222.26,-104C1230.03,-104 1235.7,-104 1235.7,-104 1235.7,-104 1235.7,-140.894 1235.7,-140.894"/>
<polygon fill="black" stroke="black" points="1232.2,-140.894 1235.7,-150.894 1239.2,-140.894 1232.2,-140.894"/>
</g>
<!-- TooltipModule -->
<g id="node12" class="node"><title>TooltipModule</title>
<polygon fill="#8dd3c7" stroke="black" points="1117.27,-122 1114.27,-126 1093.27,-126 1090.27,-122 1016.73,-122 1016.73,-86 1117.27,-86 1117.27,-122"/>
<text text-anchor="middle" x="1067" y="-99.8" font-family="Times,serif" font-size="14.00">TooltipModule</text>
</g>
<!-- TooltipModule&#45;&gt;RebirthUIModule -->
<g id="edge12" class="edge"><title>TooltipModule&#45;&gt;RebirthUIModule</title>
<path fill="none" stroke="black" d="M1080.96,-122.051C1080.96,-136.373 1080.96,-154 1080.96,-154 1080.96,-154 1220.77,-154 1220.77,-154"/>
<polygon fill="black" stroke="black" points="1220.77,-157.5 1230.77,-154 1220.77,-150.5 1220.77,-157.5"/>
</g>
<!-- PopoverModule -->
<g id="node13" class="node"><title>PopoverModule</title>
<polygon fill="#8dd3c7" stroke="black" points="999.208,-122 996.208,-126 975.208,-126 972.208,-122 892.792,-122 892.792,-86 999.208,-86 999.208,-122"/>
<text text-anchor="middle" x="946" y="-99.8" font-family="Times,serif" font-size="14.00">PopoverModule</text>
</g>
<!-- PopoverModule&#45;&gt;RebirthUIModule -->
<g id="edge13" class="edge"><title>PopoverModule&#45;&gt;RebirthUIModule</title>
<path fill="none" stroke="black" d="M994.979,-122.187C994.979,-137.182 994.979,-156 994.979,-156 994.979,-156 1220.56,-156 1220.56,-156"/>
<polygon fill="black" stroke="black" points="1220.56,-159.5 1230.56,-156 1220.56,-152.5 1220.56,-159.5"/>
</g>
<!-- DatePickerModule -->
<g id="node14" class="node"><title>DatePickerModule</title>
<polygon fill="#8dd3c7" stroke="black" points="874.739,-122 871.739,-126 850.739,-126 847.739,-122 753.261,-122 753.261,-86 874.739,-86 874.739,-122"/>
<text text-anchor="middle" x="814" y="-99.8" font-family="Times,serif" font-size="14.00">DatePickerModule</text>
</g>
<!-- DatePickerModule&#45;&gt;RebirthUIModule -->
<g id="edge14" class="edge"><title>DatePickerModule&#45;&gt;RebirthUIModule</title>
<path fill="none" stroke="black" d="M869.245,-122.282C869.245,-137.948 869.245,-158 869.245,-158 869.245,-158 1220.63,-158 1220.63,-158"/>
<polygon fill="black" stroke="black" points="1220.63,-161.5 1230.63,-158 1220.63,-154.5 1220.63,-161.5"/>
</g>
<!-- BreadcrumbsModule -->
<g id="node15" class="node"><title>BreadcrumbsModule</title>
<polygon fill="#8dd3c7" stroke="black" points="735.187,-122 732.187,-126 711.187,-126 708.187,-122 600.813,-122 600.813,-86 735.187,-86 735.187,-122"/>
<text text-anchor="middle" x="668" y="-99.8" font-family="Times,serif" font-size="14.00">BreadcrumbsModule</text>
</g>
<!-- BreadcrumbsModule&#45;&gt;RebirthUIModule -->
<g id="edge15" class="edge"><title>BreadcrumbsModule&#45;&gt;RebirthUIModule</title>
<path fill="none" stroke="black" d="M727.968,-122.027C727.968,-138.398 727.968,-160 727.968,-160 727.968,-160 1220.81,-160 1220.81,-160"/>
<polygon fill="black" stroke="black" points="1220.81,-163.5 1230.81,-160 1220.81,-156.5 1220.81,-163.5"/>
</g>
<!-- ProgressBarModule -->
<g id="node16" class="node"><title>ProgressBarModule</title>
<polygon fill="#8dd3c7" stroke="black" points="582.969,-122 579.969,-126 558.969,-126 555.969,-122 455.031,-122 455.031,-86 582.969,-86 582.969,-122"/>
<text text-anchor="middle" x="519" y="-99.8" font-family="Times,serif" font-size="14.00">ProgressBarModule</text>
</g>
<!-- ProgressBarModule&#45;&gt;RebirthUIModule -->
<g id="edge16" class="edge"><title>ProgressBarModule&#45;&gt;RebirthUIModule</title>
<path fill="none" stroke="black" d="M573.86,-122.034C573.86,-139.06 573.86,-162 573.86,-162 573.86,-162 1220.78,-162 1220.78,-162"/>
<polygon fill="black" stroke="black" points="1220.78,-165.5 1230.78,-162 1220.78,-158.5 1220.78,-165.5"/>
</g>
<!-- SelectButtonModule -->
<g id="node17" class="node"><title>SelectButtonModule</title>
<polygon fill="#8dd3c7" stroke="black" points="436.875,-122 433.875,-126 412.875,-126 409.875,-122 305.125,-122 305.125,-86 436.875,-86 436.875,-122"/>
<text text-anchor="middle" x="371" y="-99.8" font-family="Times,serif" font-size="14.00">SelectButtonModule</text>
</g>
<!-- SelectButtonModule&#45;&gt;RebirthUIModule -->
<g id="edge17" class="edge"><title>SelectButtonModule&#45;&gt;RebirthUIModule</title>
<path fill="none" stroke="black" d="M424.476,-122.002C424.476,-139.675 424.476,-164 424.476,-164 424.476,-164 1220.6,-164 1220.6,-164"/>
<polygon fill="black" stroke="black" points="1220.6,-167.5 1230.6,-164 1220.6,-160.5 1220.6,-167.5"/>
</g>
<!-- OverlayModule -->
<g id="node18" class="node"><title>OverlayModule</title>
<polygon fill="#8dd3c7" stroke="black" points="287.137,-122 284.137,-126 263.137,-126 260.137,-122 182.863,-122 182.863,-86 287.137,-86 287.137,-122"/>
<text text-anchor="middle" x="235" y="-99.8" font-family="Times,serif" font-size="14.00">OverlayModule</text>
</g>
<!-- OverlayModule&#45;&gt;RebirthUIModule -->
<g id="edge18" class="edge"><title>OverlayModule&#45;&gt;RebirthUIModule</title>
<path fill="none" stroke="black" d="M283.815,-122.267C283.815,-140.555 283.815,-166 283.815,-166 283.815,-166 1220.61,-166 1220.61,-166"/>
<polygon fill="black" stroke="black" points="1220.61,-169.5 1230.61,-166 1220.61,-162.5 1220.61,-169.5"/>
</g>
<!-- CarouselModule -->
<g id="node19" class="node"><title>CarouselModule</title>
<polygon fill="#8dd3c7" stroke="black" points="164.812,-122 161.812,-126 140.812,-126 137.812,-122 55.1882,-122 55.1882,-86 164.812,-86 164.812,-122"/>
<text text-anchor="middle" x="110" y="-99.8" font-family="Times,serif" font-size="14.00">CarouselModule</text>
</g>
<!-- CarouselModule&#45;&gt;RebirthUIModule -->
<g id="edge19" class="edge"><title>CarouselModule&#45;&gt;RebirthUIModule</title>
<path fill="none" stroke="black" d="M159.294,-122.169C159.294,-141.09 159.294,-168 159.294,-168 159.294,-168 1220.64,-168 1220.64,-168"/>
<polygon fill="black" stroke="black" points="1220.64,-171.5 1230.64,-168 1220.64,-164.5 1220.64,-171.5"/>
</g>
<!-- ModalModule  -->
<g id="node21" class="node"><title>ModalModule </title>
<polygon fill="#fb8072" stroke="black" points="2488.6,-252 2389.4,-252 2389.4,-216 2488.6,-216 2488.6,-252"/>
<text text-anchor="middle" x="2439" y="-229.8" font-family="Times,serif" font-size="14.00">ModalModule </text>
</g>
<!-- RebirthUIModule&#45;&gt;ModalModule  -->
<g id="edge20" class="edge"><title>RebirthUIModule&#45;&gt;ModalModule </title>
<path fill="none" stroke="black" stroke-dasharray="5,2" d="M1347.17,-171C1578.74,-171 2422.62,-171 2422.62,-171 2422.62,-171 2422.62,-205.778 2422.62,-205.778"/>
<polygon fill="black" stroke="black" points="2419.13,-205.778 2422.62,-215.778 2426.13,-205.778 2419.13,-205.778"/>
</g>
<!-- DialogModule  -->
<g id="node22" class="node"><title>DialogModule </title>
<polygon fill="#fb8072" stroke="black" points="2371.65,-252 2270.35,-252 2270.35,-216 2371.65,-216 2371.65,-252"/>
<text text-anchor="middle" x="2321" y="-229.8" font-family="Times,serif" font-size="14.00">DialogModule </text>
</g>
<!-- RebirthUIModule&#45;&gt;DialogModule  -->
<g id="edge21" class="edge"><title>RebirthUIModule&#45;&gt;DialogModule </title>
<path fill="none" stroke="black" stroke-dasharray="5,2" d="M1347.34,-173C1563.46,-173 2306.12,-173 2306.12,-173 2306.12,-173 2306.12,-205.698 2306.12,-205.698"/>
<polygon fill="black" stroke="black" points="2302.63,-205.698 2306.12,-215.698 2309.63,-205.698 2302.63,-205.698"/>
</g>
<!-- PagerModule  -->
<g id="node23" class="node"><title>PagerModule </title>
<polygon fill="#fb8072" stroke="black" points="2252.42,-252 2157.58,-252 2157.58,-216 2252.42,-216 2252.42,-252"/>
<text text-anchor="middle" x="2205" y="-229.8" font-family="Times,serif" font-size="14.00">PagerModule </text>
</g>
<!-- RebirthUIModule&#45;&gt;PagerModule  -->
<g id="edge22" class="edge"><title>RebirthUIModule&#45;&gt;PagerModule </title>
<path fill="none" stroke="black" stroke-dasharray="5,2" d="M1347.18,-175C1546.8,-175 2191.62,-175 2191.62,-175 2191.62,-175 2191.62,-205.977 2191.62,-205.977"/>
<polygon fill="black" stroke="black" points="2188.13,-205.977 2191.62,-215.977 2195.13,-205.978 2188.13,-205.977"/>
</g>
<!-- PaginationModule  -->
<g id="node24" class="node"><title>PaginationModule </title>
<polygon fill="#fb8072" stroke="black" points="2139.43,-252 2016.57,-252 2016.57,-216 2139.43,-216 2139.43,-252"/>
<text text-anchor="middle" x="2078" y="-229.8" font-family="Times,serif" font-size="14.00">PaginationModule </text>
</g>
<!-- RebirthUIModule&#45;&gt;PaginationModule  -->
<g id="edge23" class="edge"><title>RebirthUIModule&#45;&gt;PaginationModule </title>
<path fill="none" stroke="black" stroke-dasharray="5,2" d="M1347.45,-177C1528.29,-177 2066.62,-177 2066.62,-177 2066.62,-177 2066.62,-205.965 2066.62,-205.965"/>
<polygon fill="black" stroke="black" points="2063.13,-205.965 2066.62,-215.965 2070.13,-205.965 2063.13,-205.965"/>
</g>
<!-- AlertBoxModule  -->
<g id="node25" class="node"><title>AlertBoxModule </title>
<polygon fill="#fb8072" stroke="black" points="1998.65,-252 1883.35,-252 1883.35,-216 1998.65,-216 1998.65,-252"/>
<text text-anchor="middle" x="1941" y="-229.8" font-family="Times,serif" font-size="14.00">AlertBoxModule </text>
</g>
<!-- RebirthUIModule&#45;&gt;AlertBoxModule  -->
<g id="edge24" class="edge"><title>RebirthUIModule&#45;&gt;AlertBoxModule </title>
<path fill="none" stroke="black" stroke-dasharray="5,2" d="M1347.4,-179C1505.69,-179 1931.12,-179 1931.12,-179 1931.12,-179 1931.12,-205.991 1931.12,-205.991"/>
<polygon fill="black" stroke="black" points="1927.63,-205.991 1931.12,-215.991 1934.63,-205.991 1927.63,-205.991"/>
</g>
<!-- BadgeModule  -->
<g id="node26" class="node"><title>BadgeModule </title>
<polygon fill="#fb8072" stroke="black" points="1865.32,-252 1766.68,-252 1766.68,-216 1865.32,-216 1865.32,-252"/>
<text text-anchor="middle" x="1816" y="-229.8" font-family="Times,serif" font-size="14.00">BadgeModule </text>
</g>
<!-- RebirthUIModule&#45;&gt;BadgeModule  -->
<g id="edge25" class="edge"><title>RebirthUIModule&#45;&gt;BadgeModule </title>
<path fill="none" stroke="black" stroke-dasharray="5,2" d="M1347.29,-181C1482.9,-181 1808.12,-181 1808.12,-181 1808.12,-181 1808.12,-205.76 1808.12,-205.76"/>
<polygon fill="black" stroke="black" points="1804.63,-205.76 1808.12,-215.76 1811.63,-205.76 1804.63,-205.76"/>
</g>
<!-- PanelModule  -->
<g id="node27" class="node"><title>PanelModule </title>
<polygon fill="#fb8072" stroke="black" points="1749.15,-252 1654.85,-252 1654.85,-216 1749.15,-216 1749.15,-252"/>
<text text-anchor="middle" x="1702" y="-229.8" font-family="Times,serif" font-size="14.00">PanelModule </text>
</g>
<!-- RebirthUIModule&#45;&gt;PanelModule  -->
<g id="edge26" class="edge"><title>RebirthUIModule&#45;&gt;PanelModule </title>
<path fill="none" stroke="black" stroke-dasharray="5,2" d="M1347.26,-183C1459.69,-183 1695.62,-183 1695.62,-183 1695.62,-183 1695.62,-205.876 1695.62,-205.876"/>
<polygon fill="black" stroke="black" points="1692.13,-205.876 1695.62,-215.876 1699.13,-205.876 1692.13,-205.876"/>
</g>
<!-- AccordionModule  -->
<g id="node28" class="node"><title>AccordionModule </title>
<polygon fill="#fb8072" stroke="black" points="1637.14,-252 1514.86,-252 1514.86,-216 1637.14,-216 1637.14,-252"/>
<text text-anchor="middle" x="1576" y="-229.8" font-family="Times,serif" font-size="14.00">AccordionModule </text>
</g>
<!-- RebirthUIModule&#45;&gt;AccordionModule  -->
<g id="edge27" class="edge"><title>RebirthUIModule&#45;&gt;AccordionModule </title>
<path fill="none" stroke="black" stroke-dasharray="5,2" d="M1347.46,-185C1425.05,-185 1552.39,-185 1552.39,-185 1552.39,-185 1552.39,-205.754 1552.39,-205.754"/>
<polygon fill="black" stroke="black" points="1548.89,-205.754 1552.39,-215.754 1555.89,-205.754 1548.89,-205.754"/>
</g>
<!-- ActionButtonModule  -->
<g id="node29" class="node"><title>ActionButtonModule </title>
<polygon fill="#fb8072" stroke="black" points="1496.77,-252 1357.23,-252 1357.23,-216 1496.77,-216 1496.77,-252"/>
<text text-anchor="middle" x="1427" y="-229.8" font-family="Times,serif" font-size="14.00">ActionButtonModule </text>
</g>
<!-- RebirthUIModule&#45;&gt;ActionButtonModule  -->
<g id="edge28" class="edge"><title>RebirthUIModule&#45;&gt;ActionButtonModule </title>
<path fill="none" stroke="black" stroke-dasharray="5,2" d="M1343.17,-187.106C1343.17,-206.339 1343.17,-234 1343.17,-234 1343.17,-234 1347.02,-234 1347.02,-234"/>
<polygon fill="black" stroke="black" points="1347.02,-237.5 1357.02,-234 1347.02,-230.5 1347.02,-237.5"/>
</g>
<!-- RatingModule  -->
<g id="node30" class="node"><title>RatingModule </title>
<polygon fill="#fb8072" stroke="black" points="1339.38,-252 1238.62,-252 1238.62,-216 1339.38,-216 1339.38,-252"/>
<text text-anchor="middle" x="1289" y="-229.8" font-family="Times,serif" font-size="14.00">RatingModule </text>
</g>
<!-- RebirthUIModule&#45;&gt;RatingModule  -->
<g id="edge29" class="edge"><title>RebirthUIModule&#45;&gt;RatingModule </title>
<path fill="none" stroke="black" stroke-dasharray="5,2" d="M1289,-187.106C1289,-187.106 1289,-205.991 1289,-205.991"/>
<polygon fill="black" stroke="black" points="1285.5,-205.991 1289,-215.991 1292.5,-205.991 1285.5,-205.991"/>
</g>
<!-- TabsModule  -->
<g id="node31" class="node"><title>TabsModule </title>
<polygon fill="#fb8072" stroke="black" points="1221.26,-252 1130.74,-252 1130.74,-216 1221.26,-216 1221.26,-252"/>
<text text-anchor="middle" x="1176" y="-229.8" font-family="Times,serif" font-size="14.00">TabsModule </text>
</g>
<!-- RebirthUIModule&#45;&gt;TabsModule  -->
<g id="edge30" class="edge"><title>RebirthUIModule&#45;&gt;TabsModule </title>
<path fill="none" stroke="black" stroke-dasharray="5,2" d="M1234.83,-187.106C1234.83,-206.339 1234.83,-234 1234.83,-234 1234.83,-234 1231.18,-234 1231.18,-234"/>
<polygon fill="black" stroke="black" points="1231.18,-230.5 1221.18,-234 1231.18,-237.5 1231.18,-230.5"/>
</g>
<!-- TooltipModule  -->
<g id="node32" class="node"><title>TooltipModule </title>
<polygon fill="#fb8072" stroke="black" points="1113.27,-252 1008.73,-252 1008.73,-216 1113.27,-216 1113.27,-252"/>
<text text-anchor="middle" x="1061" y="-229.8" font-family="Times,serif" font-size="14.00">TooltipModule </text>
</g>
<!-- RebirthUIModule&#45;&gt;TooltipModule  -->
<g id="edge31" class="edge"><title>RebirthUIModule&#45;&gt;TooltipModule </title>
<path fill="none" stroke="black" stroke-dasharray="5,2" d="M1230.54,-185C1159.44,-185 1048.79,-185 1048.79,-185 1048.79,-185 1048.79,-205.754 1048.79,-205.754"/>
<polygon fill="black" stroke="black" points="1045.29,-205.754 1048.79,-215.754 1052.29,-205.754 1045.29,-205.754"/>
</g>
<!-- PopoverModule  -->
<g id="node33" class="node"><title>PopoverModule </title>
<polygon fill="#fb8072" stroke="black" points="990.708,-252 881.292,-252 881.292,-216 990.708,-216 990.708,-252"/>
<text text-anchor="middle" x="936" y="-229.8" font-family="Times,serif" font-size="14.00">PopoverModule </text>
</g>
<!-- RebirthUIModule&#45;&gt;PopoverModule  -->
<g id="edge32" class="edge"><title>RebirthUIModule&#45;&gt;PopoverModule </title>
<path fill="none" stroke="black" stroke-dasharray="5,2" d="M1230.51,-183C1131.58,-183 941.875,-183 941.875,-183 941.875,-183 941.875,-205.876 941.875,-205.876"/>
<polygon fill="black" stroke="black" points="938.375,-205.876 941.875,-215.876 945.375,-205.876 938.375,-205.876"/>
</g>
<!-- DatePickerModule  -->
<g id="node34" class="node"><title>DatePickerModule </title>
<polygon fill="#fb8072" stroke="black" points="863.739,-252 738.261,-252 738.261,-216 863.739,-216 863.739,-252"/>
<text text-anchor="middle" x="801" y="-229.8" font-family="Times,serif" font-size="14.00">DatePickerModule </text>
</g>
<!-- RebirthUIModule&#45;&gt;DatePickerModule  -->
<g id="edge33" class="edge"><title>RebirthUIModule&#45;&gt;DatePickerModule </title>
<path fill="none" stroke="black" stroke-dasharray="5,2" d="M1230.55,-181C1102.46,-181 808.375,-181 808.375,-181 808.375,-181 808.375,-205.76 808.375,-205.76"/>
<polygon fill="black" stroke="black" points="804.875,-205.76 808.375,-215.76 811.875,-205.76 804.875,-205.76"/>
</g>
<!-- BreadcrumbsModule  -->
<g id="node35" class="node"><title>BreadcrumbsModule </title>
<polygon fill="#fb8072" stroke="black" points="720.687,-252 583.313,-252 583.313,-216 720.687,-216 720.687,-252"/>
<text text-anchor="middle" x="652" y="-229.8" font-family="Times,serif" font-size="14.00">BreadcrumbsModule </text>
</g>
<!-- RebirthUIModule&#45;&gt;BreadcrumbsModule  -->
<g id="edge34" class="edge"><title>RebirthUIModule&#45;&gt;BreadcrumbsModule </title>
<path fill="none" stroke="black" stroke-dasharray="5,2" d="M1230.75,-179C1075.04,-179 660.875,-179 660.875,-179 660.875,-179 660.875,-205.991 660.875,-205.991"/>
<polygon fill="black" stroke="black" points="657.375,-205.991 660.875,-215.991 664.375,-205.991 657.375,-205.991"/>
</g>
<!-- ProgressBarModule  -->
<g id="node36" class="node"><title>ProgressBarModule </title>
<polygon fill="#fb8072" stroke="black" points="564.97,-252 433.03,-252 433.03,-216 564.97,-216 564.97,-252"/>
<text text-anchor="middle" x="499" y="-229.8" font-family="Times,serif" font-size="14.00">ProgressBarModule </text>
</g>
<!-- RebirthUIModule&#45;&gt;ProgressBarModule  -->
<g id="edge35" class="edge"><title>RebirthUIModule&#45;&gt;ProgressBarModule </title>
<path fill="none" stroke="black" stroke-dasharray="5,2" d="M1230.76,-177C1049.88,-177 509.875,-177 509.875,-177 509.875,-177 509.875,-205.965 509.875,-205.965"/>
<polygon fill="black" stroke="black" points="506.375,-205.965 509.875,-215.965 513.375,-205.965 506.375,-205.965"/>
</g>
<!-- SelectButtonModule  -->
<g id="node37" class="node"><title>SelectButtonModule </title>
<polygon fill="#fb8072" stroke="black" points="415.876,-252 280.124,-252 280.124,-216 415.876,-216 415.876,-252"/>
<text text-anchor="middle" x="348" y="-229.8" font-family="Times,serif" font-size="14.00">SelectButtonModule </text>
</g>
<!-- RebirthUIModule&#45;&gt;SelectButtonModule  -->
<g id="edge36" class="edge"><title>RebirthUIModule&#45;&gt;SelectButtonModule </title>
<path fill="none" stroke="black" stroke-dasharray="5,2" d="M1230.56,-175C1026.84,-175 360.375,-175 360.375,-175 360.375,-175 360.375,-205.977 360.375,-205.977"/>
<polygon fill="black" stroke="black" points="356.875,-205.977 360.375,-215.977 363.875,-205.978 356.875,-205.977"/>
</g>
<!-- OverlayModule  -->
<g id="node38" class="node"><title>OverlayModule </title>
<polygon fill="#fb8072" stroke="black" points="262.137,-252 153.863,-252 153.863,-216 262.137,-216 262.137,-252"/>
<text text-anchor="middle" x="208" y="-229.8" font-family="Times,serif" font-size="14.00">OverlayModule </text>
</g>
<!-- RebirthUIModule&#45;&gt;OverlayModule  -->
<g id="edge37" class="edge"><title>RebirthUIModule&#45;&gt;OverlayModule </title>
<path fill="none" stroke="black" stroke-dasharray="5,2" d="M1230.52,-173C1007.42,-173 222.375,-173 222.375,-173 222.375,-173 222.375,-205.698 222.375,-205.698"/>
<polygon fill="black" stroke="black" points="218.875,-205.698 222.375,-215.698 225.875,-205.698 218.875,-205.698"/>
</g>
<!-- CarouselModule  -->
<g id="node39" class="node"><title>CarouselModule </title>
<polygon fill="#fb8072" stroke="black" points="136.312,-252 23.6884,-252 23.6884,-216 136.312,-216 136.312,-252"/>
<text text-anchor="middle" x="80" y="-229.8" font-family="Times,serif" font-size="14.00">CarouselModule </text>
</g>
<!-- RebirthUIModule&#45;&gt;CarouselModule  -->
<g id="edge38" class="edge"><title>RebirthUIModule&#45;&gt;CarouselModule </title>
<path fill="none" stroke="black" stroke-dasharray="5,2" d="M1230.65,-171C991.102,-171 95.875,-171 95.875,-171 95.875,-171 95.875,-205.778 95.875,-205.778"/>
<polygon fill="black" stroke="black" points="92.3751,-205.778 95.875,-215.778 99.3751,-205.778 92.3751,-205.778"/>
</g>
</g>
</svg>
