<?xml version="1.0" encoding="UTF-8" standalone="no"?>
<!DOCTYPE svg PUBLIC "-//W3C//DTD SVG 1.1//EN"
 "http://www.w3.org/Graphics/SVG/1.1/DTD/svg11.dtd">
<!-- Generated by graphviz version 2.38.0 (20140413.2041)
 -->
<!-- Title: dependencies Pages: 1 -->
<svg width="2391pt" height="284pt"
 viewBox="0.00 0.00 2391.00 284.00" xmlns="http://www.w3.org/2000/svg" xmlns:xlink="http://www.w3.org/1999/xlink">
<g id="graph0" class="graph" transform="scale(1 1) rotate(0) translate(4 280)">
<title>dependencies</title>
<polygon fill="white" stroke="none" points="-4,4 -4,-280 2387,-280 2387,4 -4,4"/>
<text text-anchor="start" x="1170.51" y="-42.4" font-family="sans-serif" font-weight="bold" font-size="14.00">Legend</text>
<polygon fill="#ffffb3" stroke="none" points="957.5,-10 957.5,-30 977.5,-30 977.5,-10 957.5,-10"/>
<text text-anchor="start" x="981.129" y="-15.4" font-family="sans-serif" font-size="14.00"> &#160;Declarations</text>
<polygon fill="#8dd3c7" stroke="none" points="1070.5,-10 1070.5,-30 1090.5,-30 1090.5,-10 1070.5,-10"/>
<text text-anchor="start" x="1094.23" y="-15.4" font-family="sans-serif" font-size="14.00"> &#160;Module</text>
<polygon fill="#80b1d3" stroke="none" points="1156.5,-10 1156.5,-30 1176.5,-30 1176.5,-10 1156.5,-10"/>
<text text-anchor="start" x="1180.28" y="-15.4" font-family="sans-serif" font-size="14.00"> &#160;Bootstrap</text>
<polygon fill="#fdb462" stroke="none" points="1253.5,-10 1253.5,-30 1273.5,-30 1273.5,-10 1253.5,-10"/>
<text text-anchor="start" x="1277.17" y="-15.4" font-family="sans-serif" font-size="14.00"> &#160;Providers</text>
<polygon fill="#fb8072" stroke="none" points="1349.5,-10 1349.5,-30 1369.5,-30 1369.5,-10 1349.5,-10"/>
<text text-anchor="start" x="1373.23" y="-15.4" font-family="sans-serif" font-size="14.00"> &#160;Exports</text>
<g id="clust1" class="cluster"><title>cluster_RebirthUIModule</title>
<polygon fill="none" stroke="black" stroke-dasharray="1,5" points="8,-70 8,-268 2375,-268 2375,-70 8,-70"/>
</g>
<g id="clust3" class="cluster"><title>cluster_RebirthUIModule_imports</title>
<polygon fill="none" stroke="black" points="47,-78 47,-130 2336,-130 2336,-78 47,-78"/>
</g>
<g id="clust4" class="cluster"><title>cluster_RebirthUIModule_exports</title>
<polygon fill="none" stroke="black" points="16,-208 16,-260 2367,-260 2367,-208 16,-208"/>
</g>
<!-- ModalModule -->
<g id="node1" class="node"><title>ModalModule</title>
<polygon fill="#8dd3c7" stroke="black" points="2328.1,-122 2325.1,-126 2304.1,-126 2301.1,-122 2231.9,-122 2231.9,-86 2328.1,-86 2328.1,-122"/>
<text text-anchor="middle" x="2280" y="-99.8" font-family="Times,serif" font-size="14.00">ModalModule</text>
</g>
<!-- RebirthUIModule -->
<g id="node19" class="node"><title>RebirthUIModule</title>
<polygon fill="#8dd3c7" stroke="black" points="1269.31,-187 1266.31,-191 1245.31,-191 1242.31,-187 1152.69,-187 1152.69,-151 1269.31,-151 1269.31,-187"/>
<text text-anchor="middle" x="1211" y="-164.8" font-family="Times,serif" font-size="14.00">RebirthUIModule</text>
</g>
<!-- ModalModule&#45;&gt;RebirthUIModule -->
<g id="edge1" class="edge"><title>ModalModule&#45;&gt;RebirthUIModule</title>
<path fill="none" stroke="black" d="M2236.76,-122.169C2236.76,-141.09 2236.76,-168 2236.76,-168 2236.76,-168 1279.46,-168 1279.46,-168"/>
<polygon fill="black" stroke="black" points="1279.46,-164.5 1269.46,-168 1279.46,-171.5 1279.46,-164.5"/>
</g>
<!-- DialogModule -->
<g id="node2" class="node"><title>DialogModule</title>
<polygon fill="#8dd3c7" stroke="black" points="2213.65,-122 2210.65,-126 2189.65,-126 2186.65,-122 2116.35,-122 2116.35,-86 2213.65,-86 2213.65,-122"/>
<text text-anchor="middle" x="2165" y="-99.8" font-family="Times,serif" font-size="14.00">DialogModule</text>
</g>
<!-- DialogModule&#45;&gt;RebirthUIModule -->
<g id="edge2" class="edge"><title>DialogModule&#45;&gt;RebirthUIModule</title>
<path fill="none" stroke="black" d="M2131.44,-122.267C2131.44,-140.555 2131.44,-166 2131.44,-166 2131.44,-166 1279.28,-166 1279.28,-166"/>
<polygon fill="black" stroke="black" points="1279.28,-162.5 1269.28,-166 1279.28,-169.5 1279.28,-162.5"/>
</g>
<!-- PagerModule -->
<g id="node3" class="node"><title>PagerModule</title>
<polygon fill="#8dd3c7" stroke="black" points="2097.92,-122 2094.92,-126 2073.92,-126 2070.92,-122 2006.08,-122 2006.08,-86 2097.92,-86 2097.92,-122"/>
<text text-anchor="middle" x="2052" y="-99.8" font-family="Times,serif" font-size="14.00">PagerModule</text>
</g>
<!-- PagerModule&#45;&gt;RebirthUIModule -->
<g id="edge3" class="edge"><title>PagerModule&#45;&gt;RebirthUIModule</title>
<path fill="none" stroke="black" d="M2018.5,-122.002C2018.5,-139.675 2018.5,-164 2018.5,-164 2018.5,-164 1279.4,-164 1279.4,-164"/>
<polygon fill="black" stroke="black" points="1279.4,-160.5 1269.4,-164 1279.4,-167.5 1279.4,-160.5"/>
</g>
<!-- PaginationModule -->
<g id="node4" class="node"><title>PaginationModule</title>
<polygon fill="#8dd3c7" stroke="black" points="1988.93,-122 1985.93,-126 1964.93,-126 1961.93,-122 1869.07,-122 1869.07,-86 1988.93,-86 1988.93,-122"/>
<text text-anchor="middle" x="1929" y="-99.8" font-family="Times,serif" font-size="14.00">PaginationModule</text>
</g>
<!-- PaginationModule&#45;&gt;RebirthUIModule -->
<g id="edge4" class="edge"><title>PaginationModule&#45;&gt;RebirthUIModule</title>
<path fill="none" stroke="black" d="M1877.91,-122.034C1877.91,-139.06 1877.91,-162 1877.91,-162 1877.91,-162 1279.31,-162 1279.31,-162"/>
<polygon fill="black" stroke="black" points="1279.31,-158.5 1269.31,-162 1279.31,-165.5 1279.31,-158.5"/>
</g>
<!-- AlertBoxModule -->
<g id="node5" class="node"><title>AlertBoxModule</title>
<polygon fill="#8dd3c7" stroke="black" points="1850.65,-122 1847.65,-126 1826.65,-126 1823.65,-122 1739.35,-122 1739.35,-86 1850.65,-86 1850.65,-122"/>
<text text-anchor="middle" x="1795" y="-99.8" font-family="Times,serif" font-size="14.00">AlertBoxModule</text>
</g>
<!-- AlertBoxModule&#45;&gt;RebirthUIModule -->
<g id="edge5" class="edge"><title>AlertBoxModule&#45;&gt;RebirthUIModule</title>
<path fill="none" stroke="black" d="M1746.3,-122.027C1746.3,-138.398 1746.3,-160 1746.3,-160 1746.3,-160 1279.31,-160 1279.31,-160"/>
<polygon fill="black" stroke="black" points="1279.31,-156.5 1269.31,-160 1279.31,-163.5 1279.31,-156.5"/>
</g>
<!-- BadgeModule -->
<g id="node6" class="node"><title>BadgeModule</title>
<polygon fill="#8dd3c7" stroke="black" points="1721.82,-122 1718.82,-126 1697.82,-126 1694.82,-122 1626.18,-122 1626.18,-86 1721.82,-86 1721.82,-122"/>
<text text-anchor="middle" x="1674" y="-99.8" font-family="Times,serif" font-size="14.00">BadgeModule</text>
</g>
<!-- BadgeModule&#45;&gt;RebirthUIModule -->
<g id="edge6" class="edge"><title>BadgeModule&#45;&gt;RebirthUIModule</title>
<path fill="none" stroke="black" d="M1631.47,-122.282C1631.47,-137.948 1631.47,-158 1631.47,-158 1631.47,-158 1279.46,-158 1279.46,-158"/>
<polygon fill="black" stroke="black" points="1279.46,-154.5 1269.46,-158 1279.46,-161.5 1279.46,-154.5"/>
</g>
<!-- PanelModule -->
<g id="node7" class="node"><title>PanelModule</title>
<polygon fill="#8dd3c7" stroke="black" points="1608.15,-122 1605.15,-126 1584.15,-126 1581.15,-122 1517.85,-122 1517.85,-86 1608.15,-86 1608.15,-122"/>
<text text-anchor="middle" x="1563" y="-99.8" font-family="Times,serif" font-size="14.00">PanelModule</text>
</g>
<!-- PanelModule&#45;&gt;RebirthUIModule -->
<g id="edge7" class="edge"><title>PanelModule&#45;&gt;RebirthUIModule</title>
<path fill="none" stroke="black" d="M1521.3,-122.187C1521.3,-137.182 1521.3,-156 1521.3,-156 1521.3,-156 1279.36,-156 1279.36,-156"/>
<polygon fill="black" stroke="black" points="1279.36,-152.5 1269.36,-156 1279.36,-159.5 1279.36,-152.5"/>
</g>
<!-- AccordionModule -->
<g id="node8" class="node"><title>AccordionModule</title>
<polygon fill="#8dd3c7" stroke="black" points="1499.14,-122 1496.14,-126 1475.14,-126 1472.14,-122 1380.86,-122 1380.86,-86 1499.14,-86 1499.14,-122"/>
<text text-anchor="middle" x="1440" y="-99.8" font-family="Times,serif" font-size="14.00">AccordionModule</text>
</g>
<!-- AccordionModule&#45;&gt;RebirthUIModule -->
<g id="edge8" class="edge"><title>AccordionModule&#45;&gt;RebirthUIModule</title>
<path fill="none" stroke="black" d="M1461.19,-122.051C1461.19,-136.373 1461.19,-154 1461.19,-154 1461.19,-154 1279.34,-154 1279.34,-154"/>
<polygon fill="black" stroke="black" points="1279.34,-150.5 1269.34,-154 1279.34,-157.5 1279.34,-150.5"/>
</g>
<!-- ActionButtonModule -->
<g id="node9" class="node"><title>ActionButtonModule</title>
<polygon fill="#8dd3c7" stroke="black" points="1362.77,-122 1359.77,-126 1338.77,-126 1335.77,-122 1227.23,-122 1227.23,-86 1362.77,-86 1362.77,-122"/>
<text text-anchor="middle" x="1295" y="-99.8" font-family="Times,serif" font-size="14.00">ActionButtonModule</text>
</g>
<!-- ActionButtonModule&#45;&gt;RebirthUIModule -->
<g id="edge9" class="edge"><title>ActionButtonModule&#45;&gt;RebirthUIModule</title>
<path fill="none" stroke="black" d="M1248.13,-122.106C1248.13,-122.106 1248.13,-140.991 1248.13,-140.991"/>
<polygon fill="black" stroke="black" points="1244.64,-140.991 1248.13,-150.991 1251.64,-140.991 1244.64,-140.991"/>
</g>
<!-- RatingModule -->
<g id="node10" class="node"><title>RatingModule</title>
<polygon fill="#8dd3c7" stroke="black" points="1209.38,-122 1206.38,-126 1185.38,-126 1182.38,-122 1112.62,-122 1112.62,-86 1209.38,-86 1209.38,-122"/>
<text text-anchor="middle" x="1161" y="-99.8" font-family="Times,serif" font-size="14.00">RatingModule</text>
</g>
<!-- RatingModule&#45;&gt;RebirthUIModule -->
<g id="edge10" class="edge"><title>RatingModule&#45;&gt;RebirthUIModule</title>
<path fill="none" stroke="black" d="M1181.14,-122.106C1181.14,-122.106 1181.14,-140.991 1181.14,-140.991"/>
<polygon fill="black" stroke="black" points="1177.64,-140.991 1181.14,-150.991 1184.64,-140.991 1177.64,-140.991"/>
</g>
<!-- TabsModule -->
<g id="node11" class="node"><title>TabsModule</title>
<polygon fill="#8dd3c7" stroke="black" points="1094.26,-122 1091.26,-126 1070.26,-126 1067.26,-122 1007.74,-122 1007.74,-86 1094.26,-86 1094.26,-122"/>
<text text-anchor="middle" x="1051" y="-99.8" font-family="Times,serif" font-size="14.00">TabsModule</text>
</g>
<!-- TabsModule&#45;&gt;RebirthUIModule -->
<g id="edge11" class="edge"><title>TabsModule&#45;&gt;RebirthUIModule</title>
<path fill="none" stroke="black" d="M1063.29,-122.051C1063.29,-136.373 1063.29,-154 1063.29,-154 1063.29,-154 1142.62,-154 1142.62,-154"/>
<polygon fill="black" stroke="black" points="1142.62,-157.5 1152.62,-154 1142.62,-150.5 1142.62,-157.5"/>
</g>
<!-- TooltipModule -->
<g id="node12" class="node"><title>TooltipModule</title>
<polygon fill="#8dd3c7" stroke="black" points="989.274,-122 986.274,-126 965.274,-126 962.274,-122 888.726,-122 888.726,-86 989.274,-86 989.274,-122"/>
<text text-anchor="middle" x="939" y="-99.8" font-family="Times,serif" font-size="14.00">TooltipModule</text>
</g>
<!-- TooltipModule&#45;&gt;RebirthUIModule -->
<g id="edge12" class="edge"><title>TooltipModule&#45;&gt;RebirthUIModule</title>
<path fill="none" stroke="black" d="M951.629,-122.187C951.629,-137.182 951.629,-156 951.629,-156 951.629,-156 1142.79,-156 1142.79,-156"/>
<polygon fill="black" stroke="black" points="1142.79,-159.5 1152.79,-156 1142.79,-152.5 1142.79,-159.5"/>
</g>
<!-- PopoverModule -->
<g id="node13" class="node"><title>PopoverModule</title>
<polygon fill="#8dd3c7" stroke="black" points="871.208,-122 868.208,-126 847.208,-126 844.208,-122 764.792,-122 764.792,-86 871.208,-86 871.208,-122"/>
<text text-anchor="middle" x="818" y="-99.8" font-family="Times,serif" font-size="14.00">PopoverModule</text>
</g>
<!-- PopoverModule&#45;&gt;RebirthUIModule -->
<g id="edge13" class="edge"><title>PopoverModule&#45;&gt;RebirthUIModule</title>
<path fill="none" stroke="black" d="M865.979,-122.282C865.979,-137.948 865.979,-158 865.979,-158 865.979,-158 1142.47,-158 1142.47,-158"/>
<polygon fill="black" stroke="black" points="1142.47,-161.5 1152.47,-158 1142.47,-154.5 1142.47,-161.5"/>
</g>
<!-- DatePickerModule -->
<g id="node14" class="node"><title>DatePickerModule</title>
<polygon fill="#8dd3c7" stroke="black" points="746.739,-122 743.739,-126 722.739,-126 719.739,-122 625.261,-122 625.261,-86 746.739,-86 746.739,-122"/>
<text text-anchor="middle" x="686" y="-99.8" font-family="Times,serif" font-size="14.00">DatePickerModule</text>
</g>
<!-- DatePickerModule&#45;&gt;RebirthUIModule -->
<g id="edge14" class="edge"><title>DatePickerModule&#45;&gt;RebirthUIModule</title>
<path fill="none" stroke="black" d="M740.245,-122.027C740.245,-138.398 740.245,-160 740.245,-160 740.245,-160 1142.8,-160 1142.8,-160"/>
<polygon fill="black" stroke="black" points="1142.8,-163.5 1152.8,-160 1142.8,-156.5 1142.8,-163.5"/>
</g>
<!-- BreadcrumbsModule -->
<g id="node15" class="node"><title>BreadcrumbsModule</title>
<polygon fill="#8dd3c7" stroke="black" points="607.187,-122 604.187,-126 583.187,-126 580.187,-122 472.813,-122 472.813,-86 607.187,-86 607.187,-122"/>
<text text-anchor="middle" x="540" y="-99.8" font-family="Times,serif" font-size="14.00">BreadcrumbsModule</text>
</g>
<!-- BreadcrumbsModule&#45;&gt;RebirthUIModule -->
<g id="edge15" class="edge"><title>BreadcrumbsModule&#45;&gt;RebirthUIModule</title>
<path fill="none" stroke="black" d="M598.968,-122.034C598.968,-139.06 598.968,-162 598.968,-162 598.968,-162 1142.59,-162 1142.59,-162"/>
<polygon fill="black" stroke="black" points="1142.59,-165.5 1152.59,-162 1142.59,-158.5 1142.59,-165.5"/>
</g>
<!-- ProgressBarModule -->
<g id="node16" class="node"><title>ProgressBarModule</title>
<polygon fill="#8dd3c7" stroke="black" points="454.969,-122 451.969,-126 430.969,-126 427.969,-122 327.031,-122 327.031,-86 454.969,-86 454.969,-122"/>
<text text-anchor="middle" x="391" y="-99.8" font-family="Times,serif" font-size="14.00">ProgressBarModule</text>
</g>
<!-- ProgressBarModule&#45;&gt;RebirthUIModule -->
<g id="edge16" class="edge"><title>ProgressBarModule&#45;&gt;RebirthUIModule</title>
<path fill="none" stroke="black" d="M443.946,-122.002C443.946,-139.675 443.946,-164 443.946,-164 443.946,-164 1142.72,-164 1142.72,-164"/>
<polygon fill="black" stroke="black" points="1142.72,-167.5 1152.72,-164 1142.72,-160.5 1142.72,-167.5"/>
</g>
<!-- SelectButtonModule -->
<g id="node17" class="node"><title>SelectButtonModule</title>
<polygon fill="#8dd3c7" stroke="black" points="308.875,-122 305.875,-126 284.875,-126 281.875,-122 177.125,-122 177.125,-86 308.875,-86 308.875,-122"/>
<text text-anchor="middle" x="243" y="-99.8" font-family="Times,serif" font-size="14.00">SelectButtonModule</text>
</g>
<!-- SelectButtonModule&#45;&gt;RebirthUIModule -->
<g id="edge17" class="edge"><title>SelectButtonModule&#45;&gt;RebirthUIModule</title>
<path fill="none" stroke="black" d="M294.476,-122.267C294.476,-140.555 294.476,-166 294.476,-166 294.476,-166 1142.62,-166 1142.62,-166"/>
<polygon fill="black" stroke="black" points="1142.62,-169.5 1152.62,-166 1142.62,-162.5 1142.62,-169.5"/>
</g>
<!-- OverlayModule -->
<g id="node18" class="node"><title>OverlayModule</title>
<polygon fill="#8dd3c7" stroke="black" points="159.137,-122 156.137,-126 135.137,-126 132.137,-122 54.8626,-122 54.8626,-86 159.137,-86 159.137,-122"/>
<text text-anchor="middle" x="107" y="-99.8" font-family="Times,serif" font-size="14.00">OverlayModule</text>
</g>
<!-- OverlayModule&#45;&gt;RebirthUIModule -->
<g id="edge18" class="edge"><title>OverlayModule&#45;&gt;RebirthUIModule</title>
<path fill="none" stroke="black" d="M154.815,-122.169C154.815,-141.09 154.815,-168 154.815,-168 154.815,-168 1142.71,-168 1142.71,-168"/>
<polygon fill="black" stroke="black" points="1142.71,-171.5 1152.71,-168 1142.71,-164.5 1142.71,-171.5"/>
</g>
<!-- ModalModule  -->
<g id="node20" class="node"><title>ModalModule </title>
<polygon fill="#fb8072" stroke="black" points="2358.6,-252 2259.4,-252 2259.4,-216 2358.6,-216 2358.6,-252"/>
<text text-anchor="middle" x="2309" y="-229.8" font-family="Times,serif" font-size="14.00">ModalModule </text>
</g>
<!-- RebirthUIModule&#45;&gt;ModalModule  -->
<g id="edge19" class="edge"><title>RebirthUIModule&#45;&gt;ModalModule </title>
<path fill="none" stroke="black" stroke-dasharray="5,2" d="M1269.21,-171C1494.08,-171 2293.62,-171 2293.62,-171 2293.62,-171 2293.62,-205.778 2293.62,-205.778"/>
<polygon fill="black" stroke="black" points="2290.13,-205.778 2293.62,-215.778 2297.13,-205.778 2290.13,-205.778"/>
</g>
<!-- DialogModule  -->
<g id="node21" class="node"><title>DialogModule </title>
<polygon fill="#fb8072" stroke="black" points="2241.65,-252 2140.35,-252 2140.35,-216 2241.65,-216 2241.65,-252"/>
<text text-anchor="middle" x="2191" y="-229.8" font-family="Times,serif" font-size="14.00">DialogModule </text>
</g>
<!-- RebirthUIModule&#45;&gt;DialogModule  -->
<g id="edge20" class="edge"><title>RebirthUIModule&#45;&gt;DialogModule </title>
<path fill="none" stroke="black" stroke-dasharray="5,2" d="M1269.26,-173C1478.14,-173 2177.12,-173 2177.12,-173 2177.12,-173 2177.12,-205.698 2177.12,-205.698"/>
<polygon fill="black" stroke="black" points="2173.63,-205.698 2177.12,-215.698 2180.63,-205.698 2173.63,-205.698"/>
</g>
<!-- PagerModule  -->
<g id="node22" class="node"><title>PagerModule </title>
<polygon fill="#fb8072" stroke="black" points="2122.42,-252 2027.58,-252 2027.58,-216 2122.42,-216 2122.42,-252"/>
<text text-anchor="middle" x="2075" y="-229.8" font-family="Times,serif" font-size="14.00">PagerModule </text>
</g>
<!-- RebirthUIModule&#45;&gt;PagerModule  -->
<g id="edge21" class="edge"><title>RebirthUIModule&#45;&gt;PagerModule </title>
<path fill="none" stroke="black" stroke-dasharray="5,2" d="M1269.2,-175C1461.24,-175 2062.62,-175 2062.62,-175 2062.62,-175 2062.62,-205.977 2062.62,-205.977"/>
<polygon fill="black" stroke="black" points="2059.13,-205.977 2062.62,-215.977 2066.13,-205.978 2059.13,-205.977"/>
</g>
<!-- PaginationModule  -->
<g id="node23" class="node"><title>PaginationModule </title>
<polygon fill="#fb8072" stroke="black" points="2009.43,-252 1886.57,-252 1886.57,-216 2009.43,-216 2009.43,-252"/>
<text text-anchor="middle" x="1948" y="-229.8" font-family="Times,serif" font-size="14.00">PaginationModule </text>
</g>
<!-- RebirthUIModule&#45;&gt;PaginationModule  -->
<g id="edge22" class="edge"><title>RebirthUIModule&#45;&gt;PaginationModule </title>
<path fill="none" stroke="black" stroke-dasharray="5,2" d="M1269.23,-177C1441.66,-177 1937.62,-177 1937.62,-177 1937.62,-177 1937.62,-205.965 1937.62,-205.965"/>
<polygon fill="black" stroke="black" points="1934.13,-205.965 1937.62,-215.965 1941.13,-205.965 1934.13,-205.965"/>
</g>
<!-- AlertBoxModule  -->
<g id="node24" class="node"><title>AlertBoxModule </title>
<polygon fill="#fb8072" stroke="black" points="1868.65,-252 1753.35,-252 1753.35,-216 1868.65,-216 1868.65,-252"/>
<text text-anchor="middle" x="1811" y="-229.8" font-family="Times,serif" font-size="14.00">AlertBoxModule </text>
</g>
<!-- RebirthUIModule&#45;&gt;AlertBoxModule  -->
<g id="edge23" class="edge"><title>RebirthUIModule&#45;&gt;AlertBoxModule </title>
<path fill="none" stroke="black" stroke-dasharray="5,2" d="M1269.3,-179C1418.43,-179 1802.12,-179 1802.12,-179 1802.12,-179 1802.12,-205.991 1802.12,-205.991"/>
<polygon fill="black" stroke="black" points="1798.63,-205.991 1802.12,-215.991 1805.63,-205.991 1798.63,-205.991"/>
</g>
<!-- BadgeModule  -->
<g id="node25" class="node"><title>BadgeModule </title>
<polygon fill="#fb8072" stroke="black" points="1735.32,-252 1636.68,-252 1636.68,-216 1735.32,-216 1735.32,-252"/>
<text text-anchor="middle" x="1686" y="-229.8" font-family="Times,serif" font-size="14.00">BadgeModule </text>
</g>
<!-- RebirthUIModule&#45;&gt;BadgeModule  -->
<g id="edge24" class="edge"><title>RebirthUIModule&#45;&gt;BadgeModule </title>
<path fill="none" stroke="black" stroke-dasharray="5,2" d="M1269.34,-181C1394.83,-181 1679.12,-181 1679.12,-181 1679.12,-181 1679.12,-205.76 1679.12,-205.76"/>
<polygon fill="black" stroke="black" points="1675.63,-205.76 1679.12,-215.76 1682.63,-205.76 1675.63,-205.76"/>
</g>
<!-- PanelModule  -->
<g id="node26" class="node"><title>PanelModule </title>
<polygon fill="#fb8072" stroke="black" points="1619.15,-252 1524.85,-252 1524.85,-216 1619.15,-216 1619.15,-252"/>
<text text-anchor="middle" x="1572" y="-229.8" font-family="Times,serif" font-size="14.00">PanelModule </text>
</g>
<!-- RebirthUIModule&#45;&gt;PanelModule  -->
<g id="edge25" class="edge"><title>RebirthUIModule&#45;&gt;PanelModule </title>
<path fill="none" stroke="black" stroke-dasharray="5,2" d="M1269.33,-183C1370.22,-183 1566.62,-183 1566.62,-183 1566.62,-183 1566.62,-205.876 1566.62,-205.876"/>
<polygon fill="black" stroke="black" points="1563.13,-205.876 1566.62,-215.876 1570.13,-205.876 1563.13,-205.876"/>
</g>
<!-- AccordionModule  -->
<g id="node27" class="node"><title>AccordionModule </title>
<polygon fill="#fb8072" stroke="black" points="1507.14,-252 1384.86,-252 1384.86,-216 1507.14,-216 1507.14,-252"/>
<text text-anchor="middle" x="1446" y="-229.8" font-family="Times,serif" font-size="14.00">AccordionModule </text>
</g>
<!-- RebirthUIModule&#45;&gt;AccordionModule  -->
<g id="edge26" class="edge"><title>RebirthUIModule&#45;&gt;AccordionModule </title>
<path fill="none" stroke="black" stroke-dasharray="5,2" d="M1269.23,-185C1332.01,-185 1423.06,-185 1423.06,-185 1423.06,-185 1423.06,-205.754 1423.06,-205.754"/>
<polygon fill="black" stroke="black" points="1419.56,-205.754 1423.06,-215.754 1426.56,-205.754 1419.56,-205.754"/>
</g>
<!-- ActionButtonModule  -->
<g id="node28" class="node"><title>ActionButtonModule </title>
<polygon fill="#fb8072" stroke="black" points="1366.77,-252 1227.23,-252 1227.23,-216 1366.77,-216 1366.77,-252"/>
<text text-anchor="middle" x="1297" y="-229.8" font-family="Times,serif" font-size="14.00">ActionButtonModule </text>
</g>
<!-- RebirthUIModule&#45;&gt;ActionButtonModule  -->
<g id="edge27" class="edge"><title>RebirthUIModule&#45;&gt;ActionButtonModule </title>
<path fill="none" stroke="black" stroke-dasharray="5,2" d="M1248.26,-187.106C1248.26,-187.106 1248.26,-205.991 1248.26,-205.991"/>
<polygon fill="black" stroke="black" points="1244.76,-205.991 1248.26,-215.991 1251.76,-205.991 1244.76,-205.991"/>
</g>
<!-- RatingModule  -->
<g id="node29" class="node"><title>RatingModule </title>
<polygon fill="#fb8072" stroke="black" points="1209.38,-252 1108.62,-252 1108.62,-216 1209.38,-216 1209.38,-252"/>
<text text-anchor="middle" x="1159" y="-229.8" font-family="Times,serif" font-size="14.00">RatingModule </text>
</g>
<!-- RebirthUIModule&#45;&gt;RatingModule  -->
<g id="edge28" class="edge"><title>RebirthUIModule&#45;&gt;RatingModule </title>
<path fill="none" stroke="black" stroke-dasharray="5,2" d="M1181.02,-187.106C1181.02,-187.106 1181.02,-205.991 1181.02,-205.991"/>
<polygon fill="black" stroke="black" points="1177.52,-205.991 1181.02,-215.991 1184.52,-205.991 1177.52,-205.991"/>
</g>
<!-- TabsModule  -->
<g id="node30" class="node"><title>TabsModule </title>
<polygon fill="#fb8072" stroke="black" points="1091.26,-252 1000.74,-252 1000.74,-216 1091.26,-216 1091.26,-252"/>
<text text-anchor="middle" x="1046" y="-229.8" font-family="Times,serif" font-size="14.00">TabsModule </text>
</g>
<!-- RebirthUIModule&#45;&gt;TabsModule  -->
<g id="edge29" class="edge"><title>RebirthUIModule&#45;&gt;TabsModule </title>
<path fill="none" stroke="black" stroke-dasharray="5,2" d="M1152.55,-185C1101.48,-185 1035.46,-185 1035.46,-185 1035.46,-185 1035.46,-205.754 1035.46,-205.754"/>
<polygon fill="black" stroke="black" points="1031.96,-205.754 1035.46,-215.754 1038.96,-205.754 1031.96,-205.754"/>
</g>
<!-- TooltipModule  -->
<g id="node31" class="node"><title>TooltipModule </title>
<polygon fill="#fb8072" stroke="black" points="983.275,-252 878.725,-252 878.725,-216 983.275,-216 983.275,-252"/>
<text text-anchor="middle" x="931" y="-229.8" font-family="Times,serif" font-size="14.00">TooltipModule </text>
</g>
<!-- RebirthUIModule&#45;&gt;TooltipModule  -->
<g id="edge30" class="edge"><title>RebirthUIModule&#45;&gt;TooltipModule </title>
<path fill="none" stroke="black" stroke-dasharray="5,2" d="M1152.84,-183C1067.95,-183 920.121,-183 920.121,-183 920.121,-183 920.121,-205.876 920.121,-205.876"/>
<polygon fill="black" stroke="black" points="916.621,-205.876 920.121,-215.876 923.621,-205.876 916.621,-205.876"/>
</g>
<!-- PopoverModule  -->
<g id="node32" class="node"><title>PopoverModule </title>
<polygon fill="#fb8072" stroke="black" points="860.708,-252 751.292,-252 751.292,-216 860.708,-216 860.708,-252"/>
<text text-anchor="middle" x="806" y="-229.8" font-family="Times,serif" font-size="14.00">PopoverModule </text>
</g>
<!-- RebirthUIModule&#45;&gt;PopoverModule  -->
<g id="edge31" class="edge"><title>RebirthUIModule&#45;&gt;PopoverModule </title>
<path fill="none" stroke="black" stroke-dasharray="5,2" d="M1152.68,-181C1042.1,-181 812.875,-181 812.875,-181 812.875,-181 812.875,-205.76 812.875,-205.76"/>
<polygon fill="black" stroke="black" points="809.375,-205.76 812.875,-215.76 816.375,-205.76 809.375,-205.76"/>
</g>
<!-- DatePickerModule  -->
<g id="node33" class="node"><title>DatePickerModule </title>
<polygon fill="#fb8072" stroke="black" points="733.739,-252 608.261,-252 608.261,-216 733.739,-216 733.739,-252"/>
<text text-anchor="middle" x="671" y="-229.8" font-family="Times,serif" font-size="14.00">DatePickerModule </text>
</g>
<!-- RebirthUIModule&#45;&gt;DatePickerModule  -->
<g id="edge32" class="edge"><title>RebirthUIModule&#45;&gt;DatePickerModule </title>
<path fill="none" stroke="black" stroke-dasharray="5,2" d="M1152.84,-179C1014.9,-179 679.375,-179 679.375,-179 679.375,-179 679.375,-205.991 679.375,-205.991"/>
<polygon fill="black" stroke="black" points="675.875,-205.991 679.375,-215.991 682.875,-205.991 675.875,-205.991"/>
</g>
<!-- BreadcrumbsModule  -->
<g id="node34" class="node"><title>BreadcrumbsModule </title>
<polygon fill="#fb8072" stroke="black" points="590.687,-252 453.313,-252 453.313,-216 590.687,-216 590.687,-252"/>
<text text-anchor="middle" x="522" y="-229.8" font-family="Times,serif" font-size="14.00">BreadcrumbsModule </text>
</g>
<!-- RebirthUIModule&#45;&gt;BreadcrumbsModule  -->
<g id="edge33" class="edge"><title>RebirthUIModule&#45;&gt;BreadcrumbsModule </title>
<path fill="none" stroke="black" stroke-dasharray="5,2" d="M1152.8,-177C988.323,-177 531.875,-177 531.875,-177 531.875,-177 531.875,-205.965 531.875,-205.965"/>
<polygon fill="black" stroke="black" points="528.375,-205.965 531.875,-215.965 535.375,-205.965 528.375,-205.965"/>
</g>
<!-- ProgressBarModule  -->
<g id="node35" class="node"><title>ProgressBarModule </title>
<polygon fill="#fb8072" stroke="black" points="434.97,-252 303.03,-252 303.03,-216 434.97,-216 434.97,-252"/>
<text text-anchor="middle" x="369" y="-229.8" font-family="Times,serif" font-size="14.00">ProgressBarModule </text>
</g>
<!-- RebirthUIModule&#45;&gt;ProgressBarModule  -->
<g id="edge34" class="edge"><title>RebirthUIModule&#45;&gt;ProgressBarModule </title>
<path fill="none" stroke="black" stroke-dasharray="5,2" d="M1152.63,-175C963.673,-175 380.875,-175 380.875,-175 380.875,-175 380.875,-205.977 380.875,-205.977"/>
<polygon fill="black" stroke="black" points="377.375,-205.977 380.875,-215.977 384.375,-205.978 377.375,-205.977"/>
</g>
<!-- SelectButtonModule  -->
<g id="node36" class="node"><title>SelectButtonModule </title>
<polygon fill="#fb8072" stroke="black" points="285.876,-252 150.124,-252 150.124,-216 285.876,-216 285.876,-252"/>
<text text-anchor="middle" x="218" y="-229.8" font-family="Times,serif" font-size="14.00">SelectButtonModule </text>
</g>
<!-- RebirthUIModule&#45;&gt;SelectButtonModule  -->
<g id="edge35" class="edge"><title>RebirthUIModule&#45;&gt;SelectButtonModule </title>
<path fill="none" stroke="black" stroke-dasharray="5,2" d="M1152.65,-173C941.759,-173 231.375,-173 231.375,-173 231.375,-173 231.375,-205.698 231.375,-205.698"/>
<polygon fill="black" stroke="black" points="227.875,-205.698 231.375,-215.698 234.875,-205.698 227.875,-205.698"/>
</g>
<!-- OverlayModule  -->
<g id="node37" class="node"><title>OverlayModule </title>
<polygon fill="#fb8072" stroke="black" points="132.137,-252 23.8631,-252 23.8631,-216 132.137,-216 132.137,-252"/>
<text text-anchor="middle" x="78" y="-229.8" font-family="Times,serif" font-size="14.00">OverlayModule </text>
</g>
<!-- RebirthUIModule&#45;&gt;OverlayModule  -->
<g id="edge36" class="edge"><title>RebirthUIModule&#45;&gt;OverlayModule </title>
<path fill="none" stroke="black" stroke-dasharray="5,2" d="M1152.49,-171C922.525,-171 93.375,-171 93.375,-171 93.375,-171 93.375,-205.778 93.375,-205.778"/>
<polygon fill="black" stroke="black" points="89.8751,-205.778 93.375,-215.778 96.8751,-205.778 89.8751,-205.778"/>
</g>
</g>
</svg>
