<?xml version="1.0" encoding="UTF-8" standalone="no"?>
<!DOCTYPE svg PUBLIC "-//W3C//DTD SVG 1.1//EN"
 "http://www.w3.org/Graphics/SVG/1.1/DTD/svg11.dtd">
<!-- Generated by graphviz version 2.38.0 (20140413.2041)
 -->
<!-- Title: dependencies Pages: 1 -->
<svg width="3683pt" height="284pt"
 viewBox="0.00 0.00 3683.00 284.00" xmlns="http://www.w3.org/2000/svg" xmlns:xlink="http://www.w3.org/1999/xlink">
<g id="graph0" class="graph" transform="scale(1 1) rotate(0) translate(4 280)">
<title>dependencies</title>
<polygon fill="white" stroke="none" points="-4,4 -4,-280 3679,-280 3679,4 -4,4"/>
<text text-anchor="start" x="1816.51" y="-42.4" font-family="sans-serif" font-weight="bold" font-size="14.00">Legend</text>
<polygon fill="#ffffb3" stroke="none" points="1603.5,-10 1603.5,-30 1623.5,-30 1623.5,-10 1603.5,-10"/>
<text text-anchor="start" x="1627.13" y="-15.4" font-family="sans-serif" font-size="14.00"> &#160;Declarations</text>
<polygon fill="#8dd3c7" stroke="none" points="1716.5,-10 1716.5,-30 1736.5,-30 1736.5,-10 1716.5,-10"/>
<text text-anchor="start" x="1740.23" y="-15.4" font-family="sans-serif" font-size="14.00"> &#160;Module</text>
<polygon fill="#80b1d3" stroke="none" points="1802.5,-10 1802.5,-30 1822.5,-30 1822.5,-10 1802.5,-10"/>
<text text-anchor="start" x="1826.28" y="-15.4" font-family="sans-serif" font-size="14.00"> &#160;Bootstrap</text>
<polygon fill="#fdb462" stroke="none" points="1899.5,-10 1899.5,-30 1919.5,-30 1919.5,-10 1899.5,-10"/>
<text text-anchor="start" x="1923.17" y="-15.4" font-family="sans-serif" font-size="14.00"> &#160;Providers</text>
<polygon fill="#fb8072" stroke="none" points="1995.5,-10 1995.5,-30 2015.5,-30 2015.5,-10 1995.5,-10"/>
<text text-anchor="start" x="2019.23" y="-15.4" font-family="sans-serif" font-size="14.00"> &#160;Exports</text>
<g id="clust1" class="cluster"><title>cluster_RebirthUIModule</title>
<polygon fill="none" stroke="black" stroke-dasharray="1,5" points="8,-70 8,-268 3667,-268 3667,-70 8,-70"/>
</g>
<g id="clust3" class="cluster"><title>cluster_RebirthUIModule_imports</title>
<polygon fill="none" stroke="black" points="137,-78 137,-130 3552,-130 3552,-78 137,-78"/>
</g>
<g id="clust4" class="cluster"><title>cluster_RebirthUIModule_exports</title>
<polygon fill="none" stroke="black" points="16,-208 16,-260 3659,-260 3659,-208 16,-208"/>
</g>
<!-- RebirthCommonModule -->
<g id="node1" class="node"><title>RebirthCommonModule</title>
<polygon fill="#8dd3c7" stroke="black" points="3543.66,-122 3540.66,-126 3519.66,-126 3516.66,-122 3390.34,-122 3390.34,-86 3543.66,-86 3543.66,-122"/>
<text text-anchor="middle" x="3467" y="-99.8" font-family="Times,serif" font-size="14.00">RebirthCommonModule</text>
</g>
<!-- RebirthUIModule -->
<g id="node27" class="node"><title>RebirthUIModule</title>
<polygon fill="#8dd3c7" stroke="black" points="1981.31,-187 1978.31,-191 1957.31,-191 1954.31,-187 1864.69,-187 1864.69,-151 1981.31,-151 1981.31,-187"/>
<text text-anchor="middle" x="1923" y="-164.8" font-family="Times,serif" font-size="14.00">RebirthUIModule</text>
</g>
<!-- RebirthCommonModule&#45;&gt;RebirthUIModule -->
<g id="edge1" class="edge"><title>RebirthCommonModule&#45;&gt;RebirthUIModule</title>
<path fill="none" stroke="black" d="M3432.98,-122.169C3432.98,-141.09 3432.98,-168 3432.98,-168 3432.98,-168 1991.27,-168 1991.27,-168"/>
<polygon fill="black" stroke="black" points="1991.27,-164.5 1981.27,-168 1991.27,-171.5 1991.27,-164.5"/>
</g>
<!-- ModalModule -->
<g id="node2" class="node"><title>ModalModule</title>
<polygon fill="#8dd3c7" stroke="black" points="3372.1,-122 3369.1,-126 3348.1,-126 3345.1,-122 3275.9,-122 3275.9,-86 3372.1,-86 3372.1,-122"/>
<text text-anchor="middle" x="3324" y="-99.8" font-family="Times,serif" font-size="14.00">ModalModule</text>
</g>
<!-- ModalModule&#45;&gt;RebirthUIModule -->
<g id="edge2" class="edge"><title>ModalModule&#45;&gt;RebirthUIModule</title>
<path fill="none" stroke="black" d="M3317.26,-122.222C3317.26,-140.829 3317.26,-167 3317.26,-167 3317.26,-167 1991.58,-167 1991.58,-167"/>
<polygon fill="black" stroke="black" points="1991.58,-163.5 1981.58,-167 1991.58,-170.5 1991.58,-163.5"/>
</g>
<!-- DialogModule -->
<g id="node3" class="node"><title>DialogModule</title>
<polygon fill="#8dd3c7" stroke="black" points="3257.65,-122 3254.65,-126 3233.65,-126 3230.65,-122 3160.35,-122 3160.35,-86 3257.65,-86 3257.65,-122"/>
<text text-anchor="middle" x="3209" y="-99.8" font-family="Times,serif" font-size="14.00">DialogModule</text>
</g>
<!-- DialogModule&#45;&gt;RebirthUIModule -->
<g id="edge3" class="edge"><title>DialogModule&#45;&gt;RebirthUIModule</title>
<path fill="none" stroke="black" d="M3199.82,-122.302C3199.82,-140.27 3199.82,-165 3199.82,-165 3199.82,-165 1991.18,-165 1991.18,-165"/>
<polygon fill="black" stroke="black" points="1991.18,-161.5 1981.18,-165 1991.18,-168.5 1991.18,-161.5"/>
</g>
<!-- PagerModule -->
<g id="node4" class="node"><title>PagerModule</title>
<polygon fill="#8dd3c7" stroke="black" points="3141.92,-122 3138.92,-126 3117.92,-126 3114.92,-122 3050.08,-122 3050.08,-86 3141.92,-86 3141.92,-122"/>
<text text-anchor="middle" x="3096" y="-99.8" font-family="Times,serif" font-size="14.00">PagerModule</text>
</g>
<!-- PagerModule&#45;&gt;RebirthUIModule -->
<g id="edge4" class="edge"><title>PagerModule&#45;&gt;RebirthUIModule</title>
<path fill="none" stroke="black" d="M3088.38,-122.002C3088.38,-139.675 3088.38,-164 3088.38,-164 3088.38,-164 1991.19,-164 1991.19,-164"/>
<polygon fill="black" stroke="black" points="1991.19,-160.5 1981.19,-164 1991.19,-167.5 1991.19,-160.5"/>
</g>
<!-- PaginationModule -->
<g id="node5" class="node"><title>PaginationModule</title>
<polygon fill="#8dd3c7" stroke="black" points="3032.93,-122 3029.93,-126 3008.93,-126 3005.93,-122 2913.07,-122 2913.07,-86 3032.93,-86 3032.93,-122"/>
<text text-anchor="middle" x="2973" y="-99.8" font-family="Times,serif" font-size="14.00">PaginationModule</text>
</g>
<!-- PaginationModule&#45;&gt;RebirthUIModule -->
<g id="edge5" class="edge"><title>PaginationModule&#45;&gt;RebirthUIModule</title>
<path fill="none" stroke="black" d="M2949.43,-122.023C2949.43,-139.373 2949.43,-163 2949.43,-163 2949.43,-163 1991.5,-163 1991.5,-163"/>
<polygon fill="black" stroke="black" points="1991.5,-159.5 1981.5,-163 1991.5,-166.5 1991.5,-159.5"/>
</g>
<!-- AlertBoxModule -->
<g id="node6" class="node"><title>AlertBoxModule</title>
<polygon fill="#8dd3c7" stroke="black" points="2894.65,-122 2891.65,-126 2870.65,-126 2867.65,-122 2783.35,-122 2783.35,-86 2894.65,-86 2894.65,-122"/>
<text text-anchor="middle" x="2839" y="-99.8" font-family="Times,serif" font-size="14.00">AlertBoxModule</text>
</g>
<!-- AlertBoxModule&#45;&gt;RebirthUIModule -->
<g id="edge6" class="edge"><title>AlertBoxModule&#45;&gt;RebirthUIModule</title>
<path fill="none" stroke="black" d="M2817.79,-122.035C2817.79,-138.734 2817.79,-161 2817.79,-161 2817.79,-161 1991.36,-161 1991.36,-161"/>
<polygon fill="black" stroke="black" points="1991.36,-157.5 1981.36,-161 1991.36,-164.5 1991.36,-157.5"/>
</g>
<!-- BadgeModule -->
<g id="node7" class="node"><title>BadgeModule</title>
<polygon fill="#8dd3c7" stroke="black" points="2765.82,-122 2762.82,-126 2741.82,-126 2738.82,-122 2670.18,-122 2670.18,-86 2765.82,-86 2765.82,-122"/>
<text text-anchor="middle" x="2718" y="-99.8" font-family="Times,serif" font-size="14.00">BadgeModule</text>
</g>
<!-- BadgeModule&#45;&gt;RebirthUIModule -->
<g id="edge7" class="edge"><title>BadgeModule&#45;&gt;RebirthUIModule</title>
<path fill="none" stroke="black" d="M2703.21,-122.027C2703.21,-138.398 2703.21,-160 2703.21,-160 2703.21,-160 1991.32,-160 1991.32,-160"/>
<polygon fill="black" stroke="black" points="1991.32,-156.5 1981.32,-160 1991.32,-163.5 1991.32,-156.5"/>
</g>
<!-- PanelModule -->
<g id="node8" class="node"><title>PanelModule</title>
<polygon fill="#8dd3c7" stroke="black" points="2652.15,-122 2649.15,-126 2628.15,-126 2625.15,-122 2561.85,-122 2561.85,-86 2652.15,-86 2652.15,-122"/>
<text text-anchor="middle" x="2607" y="-99.8" font-family="Times,serif" font-size="14.00">PanelModule</text>
</g>
<!-- PanelModule&#45;&gt;RebirthUIModule -->
<g id="edge8" class="edge"><title>PanelModule&#45;&gt;RebirthUIModule</title>
<path fill="none" stroke="black" d="M2592.87,-122.282C2592.87,-137.948 2592.87,-158 2592.87,-158 2592.87,-158 1991.27,-158 1991.27,-158"/>
<polygon fill="black" stroke="black" points="1991.27,-154.5 1981.27,-158 1991.27,-161.5 1991.27,-154.5"/>
</g>
<!-- AccordionModule -->
<g id="node9" class="node"><title>AccordionModule</title>
<polygon fill="#8dd3c7" stroke="black" points="2543.14,-122 2540.14,-126 2519.14,-126 2516.14,-122 2424.86,-122 2424.86,-86 2543.14,-86 2543.14,-122"/>
<text text-anchor="middle" x="2484" y="-99.8" font-family="Times,serif" font-size="14.00">AccordionModule</text>
</g>
<!-- AccordionModule&#45;&gt;RebirthUIModule -->
<g id="edge9" class="edge"><title>AccordionModule&#45;&gt;RebirthUIModule</title>
<path fill="none" stroke="black" d="M2454.16,-122.24C2454.16,-137.571 2454.16,-157 2454.16,-157 2454.16,-157 1991.36,-157 1991.36,-157"/>
<polygon fill="black" stroke="black" points="1991.36,-153.5 1981.36,-157 1991.36,-160.5 1991.36,-153.5"/>
</g>
<!-- ActionButtonModule -->
<g id="node10" class="node"><title>ActionButtonModule</title>
<polygon fill="#8dd3c7" stroke="black" points="2406.77,-122 2403.77,-126 2382.77,-126 2379.77,-122 2271.23,-122 2271.23,-86 2406.77,-86 2406.77,-122"/>
<text text-anchor="middle" x="2339" y="-99.8" font-family="Times,serif" font-size="14.00">ActionButtonModule</text>
</g>
<!-- ActionButtonModule&#45;&gt;RebirthUIModule -->
<g id="edge10" class="edge"><title>ActionButtonModule&#45;&gt;RebirthUIModule</title>
<path fill="none" stroke="black" d="M2298.65,-122.187C2298.65,-137.182 2298.65,-156 2298.65,-156 2298.65,-156 1991.28,-156 1991.28,-156"/>
<polygon fill="black" stroke="black" points="1991.28,-152.5 1981.28,-156 1991.28,-159.5 1991.28,-152.5"/>
</g>
<!-- RatingModule -->
<g id="node11" class="node"><title>RatingModule</title>
<polygon fill="#8dd3c7" stroke="black" points="2253.38,-122 2250.38,-126 2229.38,-126 2226.38,-122 2156.62,-122 2156.62,-86 2253.38,-86 2253.38,-122"/>
<text text-anchor="middle" x="2205" y="-99.8" font-family="Times,serif" font-size="14.00">RatingModule</text>
</g>
<!-- RatingModule&#45;&gt;RebirthUIModule -->
<g id="edge11" class="edge"><title>RatingModule&#45;&gt;RebirthUIModule</title>
<path fill="none" stroke="black" d="M2182.34,-122.051C2182.34,-136.373 2182.34,-154 2182.34,-154 2182.34,-154 1991.2,-154 1991.2,-154"/>
<polygon fill="black" stroke="black" points="1991.2,-150.5 1981.2,-154 1991.2,-157.5 1991.2,-150.5"/>
</g>
<!-- TabsModule -->
<g id="node12" class="node"><title>TabsModule</title>
<polygon fill="#8dd3c7" stroke="black" points="2138.26,-122 2135.26,-126 2114.26,-126 2111.26,-122 2051.74,-122 2051.74,-86 2138.26,-86 2138.26,-122"/>
<text text-anchor="middle" x="2095" y="-99.8" font-family="Times,serif" font-size="14.00">TabsModule</text>
</g>
<!-- TabsModule&#45;&gt;RebirthUIModule -->
<g id="edge12" class="edge"><title>TabsModule&#45;&gt;RebirthUIModule</title>
<path fill="none" stroke="black" d="M2075.88,-122.246C2075.88,-136.177 2075.88,-153 2075.88,-153 2075.88,-153 1991.23,-153 1991.23,-153"/>
<polygon fill="black" stroke="black" points="1991.23,-149.5 1981.23,-153 1991.23,-156.5 1991.23,-149.5"/>
</g>
<!-- TooltipModule -->
<g id="node13" class="node"><title>TooltipModule</title>
<polygon fill="#8dd3c7" stroke="black" points="2033.27,-122 2030.27,-126 2009.27,-126 2006.27,-122 1932.73,-122 1932.73,-86 2033.27,-86 2033.27,-122"/>
<text text-anchor="middle" x="1983" y="-99.8" font-family="Times,serif" font-size="14.00">TooltipModule</text>
</g>
<!-- TooltipModule&#45;&gt;RebirthUIModule -->
<g id="edge13" class="edge"><title>TooltipModule&#45;&gt;RebirthUIModule</title>
<path fill="none" stroke="black" d="M1956.88,-122.106C1956.88,-122.106 1956.88,-140.991 1956.88,-140.991"/>
<polygon fill="black" stroke="black" points="1953.38,-140.991 1956.88,-150.991 1960.38,-140.991 1953.38,-140.991"/>
</g>
<!-- PopoverModule -->
<g id="node14" class="node"><title>PopoverModule</title>
<polygon fill="#8dd3c7" stroke="black" points="1915.21,-122 1912.21,-126 1891.21,-126 1888.21,-122 1808.79,-122 1808.79,-86 1915.21,-86 1915.21,-122"/>
<text text-anchor="middle" x="1862" y="-99.8" font-family="Times,serif" font-size="14.00">PopoverModule</text>
</g>
<!-- PopoverModule&#45;&gt;RebirthUIModule -->
<g id="edge14" class="edge"><title>PopoverModule&#45;&gt;RebirthUIModule</title>
<path fill="none" stroke="black" d="M1889.97,-122.106C1889.97,-122.106 1889.97,-140.991 1889.97,-140.991"/>
<polygon fill="black" stroke="black" points="1886.47,-140.991 1889.97,-150.991 1893.47,-140.991 1886.47,-140.991"/>
</g>
<!-- DatePickerModule -->
<g id="node15" class="node"><title>DatePickerModule</title>
<polygon fill="#8dd3c7" stroke="black" points="1790.74,-122 1787.74,-126 1766.74,-126 1763.74,-122 1669.26,-122 1669.26,-86 1790.74,-86 1790.74,-122"/>
<text text-anchor="middle" x="1730" y="-99.8" font-family="Times,serif" font-size="14.00">DatePickerModule</text>
</g>
<!-- DatePickerModule&#45;&gt;RebirthUIModule -->
<g id="edge15" class="edge"><title>DatePickerModule&#45;&gt;RebirthUIModule</title>
<path fill="none" stroke="black" d="M1758.12,-122.246C1758.12,-136.177 1758.12,-153 1758.12,-153 1758.12,-153 1854.41,-153 1854.41,-153"/>
<polygon fill="black" stroke="black" points="1854.41,-156.5 1864.41,-153 1854.41,-149.5 1854.41,-156.5"/>
</g>
<!-- BreadcrumbsModule -->
<g id="node16" class="node"><title>BreadcrumbsModule</title>
<polygon fill="#8dd3c7" stroke="black" points="1651.19,-122 1648.19,-126 1627.19,-126 1624.19,-122 1516.81,-122 1516.81,-86 1651.19,-86 1651.19,-122"/>
<text text-anchor="middle" x="1584" y="-99.8" font-family="Times,serif" font-size="14.00">BreadcrumbsModule</text>
</g>
<!-- BreadcrumbsModule&#45;&gt;RebirthUIModule -->
<g id="edge16" class="edge"><title>BreadcrumbsModule&#45;&gt;RebirthUIModule</title>
<path fill="none" stroke="black" d="M1610.62,-122.051C1610.62,-136.373 1610.62,-154 1610.62,-154 1610.62,-154 1854.61,-154 1854.61,-154"/>
<polygon fill="black" stroke="black" points="1854.61,-157.5 1864.61,-154 1854.61,-150.5 1854.61,-157.5"/>
</g>
<!-- ProgressBarModule -->
<g id="node17" class="node"><title>ProgressBarModule</title>
<polygon fill="#8dd3c7" stroke="black" points="1498.97,-122 1495.97,-126 1474.97,-126 1471.97,-122 1371.03,-122 1371.03,-86 1498.97,-86 1498.97,-122"/>
<text text-anchor="middle" x="1435" y="-99.8" font-family="Times,serif" font-size="14.00">ProgressBarModule</text>
</g>
<!-- ProgressBarModule&#45;&gt;RebirthUIModule -->
<g id="edge17" class="edge"><title>ProgressBarModule&#45;&gt;RebirthUIModule</title>
<path fill="none" stroke="black" d="M1459.62,-122.187C1459.62,-137.182 1459.62,-156 1459.62,-156 1459.62,-156 1854.78,-156 1854.78,-156"/>
<polygon fill="black" stroke="black" points="1854.78,-159.5 1864.78,-156 1854.78,-152.5 1854.78,-159.5"/>
</g>
<!-- SelectButtonModule -->
<g id="node18" class="node"><title>SelectButtonModule</title>
<polygon fill="#8dd3c7" stroke="black" points="1352.88,-122 1349.88,-126 1328.88,-126 1325.88,-122 1221.12,-122 1221.12,-86 1352.88,-86 1352.88,-122"/>
<text text-anchor="middle" x="1287" y="-99.8" font-family="Times,serif" font-size="14.00">SelectButtonModule</text>
</g>
<!-- SelectButtonModule&#45;&gt;RebirthUIModule -->
<g id="edge18" class="edge"><title>SelectButtonModule&#45;&gt;RebirthUIModule</title>
<path fill="none" stroke="black" d="M1310.12,-122.24C1310.12,-137.571 1310.12,-157 1310.12,-157 1310.12,-157 1854.79,-157 1854.79,-157"/>
<polygon fill="black" stroke="black" points="1854.79,-160.5 1864.79,-157 1854.79,-153.5 1854.79,-160.5"/>
</g>
<!-- OverlayModule -->
<g id="node19" class="node"><title>OverlayModule</title>
<polygon fill="#8dd3c7" stroke="black" points="1203.14,-122 1200.14,-126 1179.14,-126 1176.14,-122 1098.86,-122 1098.86,-86 1203.14,-86 1203.14,-122"/>
<text text-anchor="middle" x="1151" y="-99.8" font-family="Times,serif" font-size="14.00">OverlayModule</text>
</g>
<!-- OverlayModule&#45;&gt;RebirthUIModule -->
<g id="edge19" class="edge"><title>OverlayModule&#45;&gt;RebirthUIModule</title>
<path fill="none" stroke="black" d="M1172.12,-122.282C1172.12,-137.948 1172.12,-158 1172.12,-158 1172.12,-158 1854.7,-158 1854.7,-158"/>
<polygon fill="black" stroke="black" points="1854.7,-161.5 1864.7,-158 1854.7,-154.5 1854.7,-161.5"/>
</g>
<!-- CarouselModule -->
<g id="node20" class="node"><title>CarouselModule</title>
<polygon fill="#8dd3c7" stroke="black" points="1080.81,-122 1077.81,-126 1056.81,-126 1053.81,-122 971.188,-122 971.188,-86 1080.81,-86 1080.81,-122"/>
<text text-anchor="middle" x="1026" y="-99.8" font-family="Times,serif" font-size="14.00">CarouselModule</text>
</g>
<!-- CarouselModule&#45;&gt;RebirthUIModule -->
<g id="edge20" class="edge"><title>CarouselModule&#45;&gt;RebirthUIModule</title>
<path fill="none" stroke="black" d="M1045.62,-122.027C1045.62,-138.398 1045.62,-160 1045.62,-160 1045.62,-160 1854.75,-160 1854.75,-160"/>
<polygon fill="black" stroke="black" points="1854.75,-163.5 1864.75,-160 1854.75,-156.5 1854.75,-163.5"/>
</g>
<!-- SwitchModule -->
<g id="node21" class="node"><title>SwitchModule</title>
<polygon fill="#8dd3c7" stroke="black" points="953.436,-122 950.436,-126 929.436,-126 926.436,-122 854.564,-122 854.564,-86 953.436,-86 953.436,-122"/>
<text text-anchor="middle" x="904" y="-99.8" font-family="Times,serif" font-size="14.00">SwitchModule</text>
</g>
<!-- SwitchModule&#45;&gt;RebirthUIModule -->
<g id="edge21" class="edge"><title>SwitchModule&#45;&gt;RebirthUIModule</title>
<path fill="none" stroke="black" d="M922.125,-122.035C922.125,-138.734 922.125,-161 922.125,-161 922.125,-161 1854.5,-161 1854.5,-161"/>
<polygon fill="black" stroke="black" points="1854.5,-164.5 1864.5,-161 1854.5,-157.5 1854.5,-164.5"/>
</g>
<!-- MenuBarModule -->
<g id="node22" class="node"><title>MenuBarModule</title>
<polygon fill="#8dd3c7" stroke="black" points="837.422,-122 834.422,-126 813.422,-126 810.422,-122 724.578,-122 724.578,-86 837.422,-86 837.422,-122"/>
<text text-anchor="middle" x="781" y="-99.8" font-family="Times,serif" font-size="14.00">MenuBarModule</text>
</g>
<!-- MenuBarModule&#45;&gt;RebirthUIModule -->
<g id="edge22" class="edge"><title>MenuBarModule&#45;&gt;RebirthUIModule</title>
<path fill="none" stroke="black" d="M797.125,-122.023C797.125,-139.373 797.125,-163 797.125,-163 797.125,-163 1854.84,-163 1854.84,-163"/>
<polygon fill="black" stroke="black" points="1854.84,-166.5 1864.84,-163 1854.84,-159.5 1854.84,-166.5"/>
</g>
<!-- AutoCompleteModule -->
<g id="node23" class="node"><title>AutoCompleteModule</title>
<polygon fill="#8dd3c7" stroke="black" points="706.985,-122 703.985,-126 682.985,-126 679.985,-122 565.015,-122 565.015,-86 706.985,-86 706.985,-122"/>
<text text-anchor="middle" x="636" y="-99.8" font-family="Times,serif" font-size="14.00">AutoCompleteModule</text>
</g>
<!-- AutoCompleteModule&#45;&gt;RebirthUIModule -->
<g id="edge23" class="edge"><title>AutoCompleteModule&#45;&gt;RebirthUIModule</title>
<path fill="none" stroke="black" d="M650.125,-122.002C650.125,-139.675 650.125,-164 650.125,-164 650.125,-164 1854.58,-164 1854.58,-164"/>
<polygon fill="black" stroke="black" points="1854.58,-167.5 1864.58,-164 1854.58,-160.5 1854.58,-167.5"/>
</g>
<!-- FlowStepModule -->
<g id="node24" class="node"><title>FlowStepModule</title>
<polygon fill="#8dd3c7" stroke="black" points="546.718,-122 543.718,-126 522.718,-126 519.718,-122 433.282,-122 433.282,-86 546.718,-86 546.718,-122"/>
<text text-anchor="middle" x="490" y="-99.8" font-family="Times,serif" font-size="14.00">FlowStepModule</text>
</g>
<!-- FlowStepModule&#45;&gt;RebirthUIModule -->
<g id="edge24" class="edge"><title>FlowStepModule&#45;&gt;RebirthUIModule</title>
<path fill="none" stroke="black" d="M502.625,-122.302C502.625,-140.27 502.625,-165 502.625,-165 502.625,-165 1854.67,-165 1854.67,-165"/>
<polygon fill="black" stroke="black" points="1854.67,-168.5 1864.67,-165 1854.67,-161.5 1854.67,-168.5"/>
</g>
<!-- InfiniteScrollModule -->
<g id="node25" class="node"><title>InfiniteScrollModule</title>
<polygon fill="#8dd3c7" stroke="black" points="415.197,-122 412.197,-126 391.197,-126 388.197,-122 280.803,-122 280.803,-86 415.197,-86 415.197,-122"/>
<text text-anchor="middle" x="348" y="-99.8" font-family="Times,serif" font-size="14.00">InfiniteScrollModule</text>
</g>
<!-- InfiniteScrollModule&#45;&gt;RebirthUIModule -->
<g id="edge25" class="edge"><title>InfiniteScrollModule&#45;&gt;RebirthUIModule</title>
<path fill="none" stroke="black" d="M359.125,-122.222C359.125,-140.829 359.125,-167 359.125,-167 359.125,-167 1854.55,-167 1854.55,-167"/>
<polygon fill="black" stroke="black" points="1854.55,-170.5 1864.55,-167 1854.55,-163.5 1854.55,-170.5"/>
</g>
<!-- DataTableModule -->
<g id="node26" class="node"><title>DataTableModule</title>
<polygon fill="#8dd3c7" stroke="black" points="262.849,-122 259.849,-126 238.849,-126 235.849,-122 145.151,-122 145.151,-86 262.849,-86 262.849,-122"/>
<text text-anchor="middle" x="204" y="-99.8" font-family="Times,serif" font-size="14.00">DataTableModule</text>
</g>
<!-- DataTableModule&#45;&gt;RebirthUIModule -->
<g id="edge26" class="edge"><title>DataTableModule&#45;&gt;RebirthUIModule</title>
<path fill="none" stroke="black" d="M213.125,-122.169C213.125,-141.09 213.125,-168 213.125,-168 213.125,-168 1854.64,-168 1854.64,-168"/>
<polygon fill="black" stroke="black" points="1854.64,-171.5 1864.64,-168 1854.64,-164.5 1854.64,-171.5"/>
</g>
<!-- RebirthCommonModule  -->
<g id="node28" class="node"><title>RebirthCommonModule </title>
<polygon fill="#fb8072" stroke="black" points="3650.66,-252 3493.34,-252 3493.34,-216 3650.66,-216 3650.66,-252"/>
<text text-anchor="middle" x="3572" y="-229.8" font-family="Times,serif" font-size="14.00">RebirthCommonModule </text>
</g>
<!-- RebirthUIModule&#45;&gt;RebirthCommonModule  -->
<g id="edge27" class="edge"><title>RebirthUIModule&#45;&gt;RebirthCommonModule </title>
<path fill="none" stroke="black" stroke-dasharray="5,2" d="M1981.21,-169C2268.17,-169 3518.62,-169 3518.62,-169 3518.62,-169 3518.62,-205.894 3518.62,-205.894"/>
<polygon fill="black" stroke="black" points="3515.13,-205.894 3518.62,-215.894 3522.13,-205.894 3515.13,-205.894"/>
</g>
<!-- ModalModule  -->
<g id="node29" class="node"><title>ModalModule </title>
<polygon fill="#fb8072" stroke="black" points="3475.6,-252 3376.4,-252 3376.4,-216 3475.6,-216 3475.6,-252"/>
<text text-anchor="middle" x="3426" y="-229.8" font-family="Times,serif" font-size="14.00">ModalModule </text>
</g>
<!-- RebirthUIModule&#45;&gt;ModalModule  -->
<g id="edge28" class="edge"><title>RebirthUIModule&#45;&gt;ModalModule </title>
<path fill="none" stroke="black" stroke-dasharray="5,2" d="M1981.59,-171C2253.97,-171 3383.18,-171 3383.18,-171 3383.18,-171 3383.18,-205.778 3383.18,-205.778"/>
<polygon fill="black" stroke="black" points="3379.69,-205.778 3383.18,-215.778 3386.69,-205.778 3379.69,-205.778"/>
</g>
<!-- DialogModule  -->
<g id="node30" class="node"><title>DialogModule </title>
<polygon fill="#fb8072" stroke="black" points="3358.65,-252 3257.35,-252 3257.35,-216 3358.65,-216 3358.65,-252"/>
<text text-anchor="middle" x="3308" y="-229.8" font-family="Times,serif" font-size="14.00">DialogModule </text>
</g>
<!-- RebirthUIModule&#45;&gt;DialogModule  -->
<g id="edge29" class="edge"><title>RebirthUIModule&#45;&gt;DialogModule </title>
<path fill="none" stroke="black" stroke-dasharray="5,2" d="M1981.18,-172C2239.12,-172 3266.89,-172 3266.89,-172 3266.89,-172 3266.89,-205.733 3266.89,-205.733"/>
<polygon fill="black" stroke="black" points="3263.39,-205.733 3266.89,-215.733 3270.39,-205.733 3263.39,-205.733"/>
</g>
<!-- PagerModule  -->
<g id="node31" class="node"><title>PagerModule </title>
<polygon fill="#fb8072" stroke="black" points="3239.42,-252 3144.58,-252 3144.58,-216 3239.42,-216 3239.42,-252"/>
<text text-anchor="middle" x="3192" y="-229.8" font-family="Times,serif" font-size="14.00">PagerModule </text>
</g>
<!-- RebirthUIModule&#45;&gt;PagerModule  -->
<g id="edge30" class="edge"><title>RebirthUIModule&#45;&gt;PagerModule </title>
<path fill="none" stroke="black" stroke-dasharray="5,2" d="M1981.47,-174C2225.78,-174 3152.36,-174 3152.36,-174 3152.36,-174 3152.36,-205.998 3152.36,-205.998"/>
<polygon fill="black" stroke="black" points="3148.86,-205.998 3152.36,-215.998 3155.86,-205.998 3148.86,-205.998"/>
</g>
<!-- PaginationModule  -->
<g id="node32" class="node"><title>PaginationModule </title>
<polygon fill="#fb8072" stroke="black" points="3126.43,-252 3003.57,-252 3003.57,-216 3126.43,-216 3126.43,-252"/>
<text text-anchor="middle" x="3065" y="-229.8" font-family="Times,serif" font-size="14.00">PaginationModule </text>
</g>
<!-- RebirthUIModule&#45;&gt;PaginationModule  -->
<g id="edge31" class="edge"><title>RebirthUIModule&#45;&gt;PaginationModule </title>
<path fill="none" stroke="black" stroke-dasharray="5,2" d="M1981.49,-175C2208.43,-175 3018.12,-175 3018.12,-175 3018.12,-175 3018.12,-205.977 3018.12,-205.977"/>
<polygon fill="black" stroke="black" points="3014.63,-205.977 3018.12,-215.977 3021.63,-205.978 3014.63,-205.977"/>
</g>
<!-- AlertBoxModule  -->
<g id="node33" class="node"><title>AlertBoxModule </title>
<polygon fill="#fb8072" stroke="black" points="2985.65,-252 2870.35,-252 2870.35,-216 2985.65,-216 2985.65,-252"/>
<text text-anchor="middle" x="2928" y="-229.8" font-family="Times,serif" font-size="14.00">AlertBoxModule </text>
</g>
<!-- RebirthUIModule&#45;&gt;AlertBoxModule  -->
<g id="edge32" class="edge"><title>RebirthUIModule&#45;&gt;AlertBoxModule </title>
<path fill="none" stroke="black" stroke-dasharray="5,2" d="M1981.23,-176C2189.14,-176 2882.62,-176 2882.62,-176 2882.62,-176 2882.62,-205.966 2882.62,-205.966"/>
<polygon fill="black" stroke="black" points="2879.13,-205.966 2882.62,-215.966 2886.13,-205.966 2879.13,-205.966"/>
</g>
<!-- BadgeModule  -->
<g id="node34" class="node"><title>BadgeModule </title>
<polygon fill="#fb8072" stroke="black" points="2852.32,-252 2753.68,-252 2753.68,-216 2852.32,-216 2852.32,-252"/>
<text text-anchor="middle" x="2803" y="-229.8" font-family="Times,serif" font-size="14.00">BadgeModule </text>
</g>
<!-- RebirthUIModule&#45;&gt;BadgeModule  -->
<g id="edge33" class="edge"><title>RebirthUIModule&#45;&gt;BadgeModule </title>
<path fill="none" stroke="black" stroke-dasharray="5,2" d="M1981.17,-178C2170.89,-178 2759.62,-178 2759.62,-178 2759.62,-178 2759.62,-205.973 2759.62,-205.973"/>
<polygon fill="black" stroke="black" points="2756.13,-205.973 2759.62,-215.973 2763.13,-205.973 2756.13,-205.973"/>
</g>
<!-- PanelModule  -->
<g id="node35" class="node"><title>PanelModule </title>
<polygon fill="#fb8072" stroke="black" points="2736.15,-252 2641.85,-252 2641.85,-216 2736.15,-216 2736.15,-252"/>
<text text-anchor="middle" x="2689" y="-229.8" font-family="Times,serif" font-size="14.00">PanelModule </text>
</g>
<!-- RebirthUIModule&#45;&gt;PanelModule  -->
<g id="edge34" class="edge"><title>RebirthUIModule&#45;&gt;PanelModule </title>
<path fill="none" stroke="black" stroke-dasharray="5,2" d="M1981.34,-179C2153.45,-179 2647.12,-179 2647.12,-179 2647.12,-179 2647.12,-205.991 2647.12,-205.991"/>
<polygon fill="black" stroke="black" points="2643.63,-205.991 2647.12,-215.991 2650.63,-205.991 2643.63,-205.991"/>
</g>
<!-- AccordionModule  -->
<g id="node36" class="node"><title>AccordionModule </title>
<polygon fill="#fb8072" stroke="black" points="2624.14,-252 2501.86,-252 2501.86,-216 2624.14,-216 2624.14,-252"/>
<text text-anchor="middle" x="2563" y="-229.8" font-family="Times,serif" font-size="14.00">AccordionModule </text>
</g>
<!-- RebirthUIModule&#45;&gt;AccordionModule  -->
<g id="edge35" class="edge"><title>RebirthUIModule&#45;&gt;AccordionModule </title>
<path fill="none" stroke="black" stroke-dasharray="5,2" d="M1981.31,-181C2132,-181 2522.62,-181 2522.62,-181 2522.62,-181 2522.62,-205.76 2522.62,-205.76"/>
<polygon fill="black" stroke="black" points="2519.13,-205.76 2522.62,-215.76 2526.13,-205.76 2519.13,-205.76"/>
</g>
<!-- ActionButtonModule  -->
<g id="node37" class="node"><title>ActionButtonModule </title>
<polygon fill="#fb8072" stroke="black" points="2483.77,-252 2344.23,-252 2344.23,-216 2483.77,-216 2483.77,-252"/>
<text text-anchor="middle" x="2414" y="-229.8" font-family="Times,serif" font-size="14.00">ActionButtonModule </text>
</g>
<!-- RebirthUIModule&#45;&gt;ActionButtonModule  -->
<g id="edge36" class="edge"><title>RebirthUIModule&#45;&gt;ActionButtonModule </title>
<path fill="none" stroke="black" stroke-dasharray="5,2" d="M1981.25,-182C2103.49,-182 2375.62,-182 2375.62,-182 2375.62,-182 2375.62,-205.813 2375.62,-205.813"/>
<polygon fill="black" stroke="black" points="2372.13,-205.813 2375.62,-215.813 2379.13,-205.813 2372.13,-205.813"/>
</g>
<!-- RatingModule  -->
<g id="node38" class="node"><title>RatingModule </title>
<polygon fill="#fb8072" stroke="black" points="2326.38,-252 2225.62,-252 2225.62,-216 2326.38,-216 2326.38,-252"/>
<text text-anchor="middle" x="2276" y="-229.8" font-family="Times,serif" font-size="14.00">RatingModule </text>
</g>
<!-- RebirthUIModule&#45;&gt;RatingModule  -->
<g id="edge37" class="edge"><title>RebirthUIModule&#45;&gt;RatingModule </title>
<path fill="none" stroke="black" stroke-dasharray="5,2" d="M1981.44,-183C2072.93,-183 2239.62,-183 2239.62,-183 2239.62,-183 2239.62,-205.876 2239.62,-205.876"/>
<polygon fill="black" stroke="black" points="2236.13,-205.876 2239.62,-215.876 2243.13,-205.876 2236.13,-205.876"/>
</g>
<!-- TabsModule  -->
<g id="node39" class="node"><title>TabsModule </title>
<polygon fill="#fb8072" stroke="black" points="2208.26,-252 2117.74,-252 2117.74,-216 2208.26,-216 2208.26,-252"/>
<text text-anchor="middle" x="2163" y="-229.8" font-family="Times,serif" font-size="14.00">TabsModule </text>
</g>
<!-- RebirthUIModule&#45;&gt;TabsModule  -->
<g id="edge38" class="edge"><title>RebirthUIModule&#45;&gt;TabsModule </title>
<path fill="none" stroke="black" stroke-dasharray="5,2" d="M1981.23,-185C2041.88,-185 2128.12,-185 2128.12,-185 2128.12,-185 2128.12,-205.754 2128.12,-205.754"/>
<polygon fill="black" stroke="black" points="2124.63,-205.754 2128.12,-215.754 2131.63,-205.754 2124.63,-205.754"/>
</g>
<!-- TooltipModule  -->
<g id="node40" class="node"><title>TooltipModule </title>
<polygon fill="#fb8072" stroke="black" points="2100.27,-252 1995.73,-252 1995.73,-216 2100.27,-216 2100.27,-252"/>
<text text-anchor="middle" x="2048" y="-229.8" font-family="Times,serif" font-size="14.00">TooltipModule </text>
</g>
<!-- RebirthUIModule&#45;&gt;TooltipModule  -->
<g id="edge39" class="edge"><title>RebirthUIModule&#45;&gt;TooltipModule </title>
<path fill="none" stroke="black" stroke-dasharray="5,2" d="M1981.29,-186C1999.36,-186 2014.62,-186 2014.62,-186 2014.62,-186 2014.62,-205.853 2014.62,-205.853"/>
<polygon fill="black" stroke="black" points="2011.13,-205.853 2014.62,-215.853 2018.13,-205.853 2011.13,-205.853"/>
</g>
<!-- PopoverModule  -->
<g id="node41" class="node"><title>PopoverModule </title>
<polygon fill="#fb8072" stroke="black" points="1977.71,-252 1868.29,-252 1868.29,-216 1977.71,-216 1977.71,-252"/>
<text text-anchor="middle" x="1923" y="-229.8" font-family="Times,serif" font-size="14.00">PopoverModule </text>
</g>
<!-- RebirthUIModule&#45;&gt;PopoverModule  -->
<g id="edge40" class="edge"><title>RebirthUIModule&#45;&gt;PopoverModule </title>
<path fill="none" stroke="black" stroke-dasharray="5,2" d="M1923,-187.106C1923,-187.106 1923,-205.991 1923,-205.991"/>
<polygon fill="black" stroke="black" points="1919.5,-205.991 1923,-215.991 1926.5,-205.991 1919.5,-205.991"/>
</g>
<!-- DatePickerModule  -->
<g id="node42" class="node"><title>DatePickerModule </title>
<polygon fill="#fb8072" stroke="black" points="1850.74,-252 1725.26,-252 1725.26,-216 1850.74,-216 1850.74,-252"/>
<text text-anchor="middle" x="1788" y="-229.8" font-family="Times,serif" font-size="14.00">DatePickerModule </text>
</g>
<!-- RebirthUIModule&#45;&gt;DatePickerModule  -->
<g id="edge41" class="edge"><title>RebirthUIModule&#45;&gt;DatePickerModule </title>
<path fill="none" stroke="black" stroke-dasharray="5,2" d="M1864.74,-186C1845.9,-186 1829.76,-186 1829.76,-186 1829.76,-186 1829.76,-205.853 1829.76,-205.853"/>
<polygon fill="black" stroke="black" points="1826.26,-205.853 1829.76,-215.853 1833.26,-205.853 1826.26,-205.853"/>
</g>
<!-- BreadcrumbsModule  -->
<g id="node43" class="node"><title>BreadcrumbsModule </title>
<polygon fill="#fb8072" stroke="black" points="1707.69,-252 1570.31,-252 1570.31,-216 1707.69,-216 1707.69,-252"/>
<text text-anchor="middle" x="1639" y="-229.8" font-family="Times,serif" font-size="14.00">BreadcrumbsModule </text>
</g>
<!-- RebirthUIModule&#45;&gt;BreadcrumbsModule  -->
<g id="edge42" class="edge"><title>RebirthUIModule&#45;&gt;BreadcrumbsModule </title>
<path fill="none" stroke="black" stroke-dasharray="5,2" d="M1864.73,-185C1795.28,-185 1688.49,-185 1688.49,-185 1688.49,-185 1688.49,-205.754 1688.49,-205.754"/>
<polygon fill="black" stroke="black" points="1684.99,-205.754 1688.49,-215.754 1691.99,-205.754 1684.99,-205.754"/>
</g>
<!-- ProgressBarModule  -->
<g id="node44" class="node"><title>ProgressBarModule </title>
<polygon fill="#fb8072" stroke="black" points="1551.97,-252 1420.03,-252 1420.03,-216 1551.97,-216 1551.97,-252"/>
<text text-anchor="middle" x="1486" y="-229.8" font-family="Times,serif" font-size="14.00">ProgressBarModule </text>
</g>
<!-- RebirthUIModule&#45;&gt;ProgressBarModule  -->
<g id="edge43" class="edge"><title>RebirthUIModule&#45;&gt;ProgressBarModule </title>
<path fill="none" stroke="black" stroke-dasharray="5,2" d="M1864.81,-183C1756.38,-183 1534.32,-183 1534.32,-183 1534.32,-183 1534.32,-205.876 1534.32,-205.876"/>
<polygon fill="black" stroke="black" points="1530.82,-205.876 1534.32,-215.876 1537.82,-205.876 1530.82,-205.876"/>
</g>
<!-- SelectButtonModule  -->
<g id="node45" class="node"><title>SelectButtonModule </title>
<polygon fill="#fb8072" stroke="black" points="1402.88,-252 1267.12,-252 1267.12,-216 1402.88,-216 1402.88,-252"/>
<text text-anchor="middle" x="1335" y="-229.8" font-family="Times,serif" font-size="14.00">SelectButtonModule </text>
</g>
<!-- RebirthUIModule&#45;&gt;SelectButtonModule  -->
<g id="edge44" class="edge"><title>RebirthUIModule&#45;&gt;SelectButtonModule </title>
<path fill="none" stroke="black" stroke-dasharray="5,2" d="M1864.6,-182C1725.64,-182 1386.85,-182 1386.85,-182 1386.85,-182 1386.85,-205.813 1386.85,-205.813"/>
<polygon fill="black" stroke="black" points="1383.35,-205.813 1386.85,-215.813 1390.35,-205.813 1383.35,-205.813"/>
</g>
<!-- OverlayModule  -->
<g id="node46" class="node"><title>OverlayModule </title>
<polygon fill="#fb8072" stroke="black" points="1249.14,-252 1140.86,-252 1140.86,-216 1249.14,-216 1249.14,-252"/>
<text text-anchor="middle" x="1195" y="-229.8" font-family="Times,serif" font-size="14.00">OverlayModule </text>
</g>
<!-- RebirthUIModule&#45;&gt;OverlayModule  -->
<g id="edge45" class="edge"><title>RebirthUIModule&#45;&gt;OverlayModule </title>
<path fill="none" stroke="black" stroke-dasharray="5,2" d="M1864.64,-181C1698.54,-181 1235.07,-181 1235.07,-181 1235.07,-181 1235.07,-205.76 1235.07,-205.76"/>
<polygon fill="black" stroke="black" points="1231.57,-205.76 1235.07,-215.76 1238.57,-205.76 1231.57,-205.76"/>
</g>
<!-- CarouselModule  -->
<g id="node47" class="node"><title>CarouselModule </title>
<polygon fill="#fb8072" stroke="black" points="1123.31,-252 1010.69,-252 1010.69,-216 1123.31,-216 1123.31,-252"/>
<text text-anchor="middle" x="1067" y="-229.8" font-family="Times,serif" font-size="14.00">CarouselModule </text>
</g>
<!-- RebirthUIModule&#45;&gt;CarouselModule  -->
<g id="edge46" class="edge"><title>RebirthUIModule&#45;&gt;CarouselModule </title>
<path fill="none" stroke="black" stroke-dasharray="5,2" d="M1864.61,-179C1678.43,-179 1111.04,-179 1111.04,-179 1111.04,-179 1111.04,-205.991 1111.04,-205.991"/>
<polygon fill="black" stroke="black" points="1107.54,-205.991 1111.04,-215.991 1114.54,-205.991 1107.54,-205.991"/>
</g>
<!-- SwitchModule  -->
<g id="node48" class="node"><title>SwitchModule </title>
<polygon fill="#fb8072" stroke="black" points="992.935,-252 891.065,-252 891.065,-216 992.935,-216 992.935,-252"/>
<text text-anchor="middle" x="942" y="-229.8" font-family="Times,serif" font-size="14.00">SwitchModule </text>
</g>
<!-- RebirthUIModule&#45;&gt;SwitchModule  -->
<g id="edge47" class="edge"><title>RebirthUIModule&#45;&gt;SwitchModule </title>
<path fill="none" stroke="black" stroke-dasharray="5,2" d="M1864.5,-178C1658.95,-178 982.156,-178 982.156,-178 982.156,-178 982.156,-205.973 982.156,-205.973"/>
<polygon fill="black" stroke="black" points="978.656,-205.973 982.156,-215.973 985.656,-205.973 978.656,-205.973"/>
</g>
<!-- MenuBarModule  -->
<g id="node49" class="node"><title>MenuBarModule </title>
<polygon fill="#fb8072" stroke="black" points="872.921,-252 757.079,-252 757.079,-216 872.921,-216 872.921,-252"/>
<text text-anchor="middle" x="815" y="-229.8" font-family="Times,serif" font-size="14.00">MenuBarModule </text>
</g>
<!-- RebirthUIModule&#45;&gt;MenuBarModule  -->
<g id="edge48" class="edge"><title>RebirthUIModule&#45;&gt;MenuBarModule </title>
<path fill="none" stroke="black" stroke-dasharray="5,2" d="M1864.55,-176C1642.51,-176 863.871,-176 863.871,-176 863.871,-176 863.871,-205.966 863.871,-205.966"/>
<polygon fill="black" stroke="black" points="860.372,-205.966 863.871,-215.966 867.372,-205.966 860.372,-205.966"/>
</g>
<!-- AutoCompleteModule  -->
<g id="node50" class="node"><title>AutoCompleteModule </title>
<polygon fill="#fb8072" stroke="black" points="738.985,-252 593.015,-252 593.015,-216 738.985,-216 738.985,-252"/>
<text text-anchor="middle" x="666" y="-229.8" font-family="Times,serif" font-size="14.00">AutoCompleteModule </text>
</g>
<!-- RebirthUIModule&#45;&gt;AutoCompleteModule  -->
<g id="edge49" class="edge"><title>RebirthUIModule&#45;&gt;AutoCompleteModule </title>
<path fill="none" stroke="black" stroke-dasharray="5,2" d="M1864.74,-175C1625.57,-175 731.766,-175 731.766,-175 731.766,-175 731.766,-205.977 731.766,-205.977"/>
<polygon fill="black" stroke="black" points="728.266,-205.977 731.766,-215.977 735.266,-205.978 728.266,-205.977"/>
</g>
<!-- FlowStepModule  -->
<g id="node51" class="node"><title>FlowStepModule </title>
<polygon fill="#fb8072" stroke="black" points="575.218,-252 458.782,-252 458.782,-216 575.218,-216 575.218,-252"/>
<text text-anchor="middle" x="517" y="-229.8" font-family="Times,serif" font-size="14.00">FlowStepModule </text>
</g>
<!-- RebirthUIModule&#45;&gt;FlowStepModule  -->
<g id="edge50" class="edge"><title>RebirthUIModule&#45;&gt;FlowStepModule </title>
<path fill="none" stroke="black" stroke-dasharray="5,2" d="M1864.44,-174C1604.78,-174 570.183,-174 570.183,-174 570.183,-174 570.183,-205.998 570.183,-205.998"/>
<polygon fill="black" stroke="black" points="566.683,-205.998 570.183,-215.998 573.683,-205.998 566.683,-205.998"/>
</g>
<!-- InfiniteScrollModule  -->
<g id="node52" class="node"><title>InfiniteScrollModule </title>
<polygon fill="#fb8072" stroke="black" points="440.697,-252 303.303,-252 303.303,-216 440.697,-216 440.697,-252"/>
<text text-anchor="middle" x="372" y="-229.8" font-family="Times,serif" font-size="14.00">InfiniteScrollModule </text>
</g>
<!-- RebirthUIModule&#45;&gt;InfiniteScrollModule  -->
<g id="edge51" class="edge"><title>RebirthUIModule&#45;&gt;InfiniteScrollModule </title>
<path fill="none" stroke="black" stroke-dasharray="5,2" d="M1864.75,-172C1590.03,-172 437.12,-172 437.12,-172 437.12,-172 437.12,-205.733 437.12,-205.733"/>
<polygon fill="black" stroke="black" points="433.62,-205.733 437.12,-215.733 440.62,-205.733 433.62,-205.733"/>
</g>
<!-- DataTableModule  -->
<g id="node53" class="node"><title>DataTableModule </title>
<polygon fill="#fb8072" stroke="black" points="284.849,-252 163.151,-252 163.151,-216 284.849,-216 284.849,-252"/>
<text text-anchor="middle" x="224" y="-229.8" font-family="Times,serif" font-size="14.00">DataTableModule </text>
</g>
<!-- RebirthUIModule&#45;&gt;DataTableModule  -->
<g id="edge52" class="edge"><title>RebirthUIModule&#45;&gt;DataTableModule </title>
<path fill="none" stroke="black" stroke-dasharray="5,2" d="M1864.72,-171C1571.54,-171 271.913,-171 271.913,-171 271.913,-171 271.913,-205.778 271.913,-205.778"/>
<polygon fill="black" stroke="black" points="268.413,-205.778 271.913,-215.778 275.413,-205.778 268.413,-205.778"/>
</g>
<!-- DraggableModule  -->
<g id="node54" class="node"><title>DraggableModule </title>
<polygon fill="#fb8072" stroke="black" points="145.852,-252 24.1481,-252 24.1481,-216 145.852,-216 145.852,-252"/>
<text text-anchor="middle" x="85" y="-229.8" font-family="Times,serif" font-size="14.00">DraggableModule </text>
</g>
<!-- RebirthUIModule&#45;&gt;DraggableModule  -->
<g id="edge53" class="edge"><title>RebirthUIModule&#45;&gt;DraggableModule </title>
<path fill="none" stroke="black" stroke-dasharray="5,2" d="M1864.69,-169C1551.67,-169 84.7,-169 84.7,-169 84.7,-169 84.7,-205.894 84.7,-205.894"/>
<polygon fill="black" stroke="black" points="81.2001,-205.894 84.7,-215.894 88.2001,-205.894 81.2001,-205.894"/>
</g>
</g>
</svg>
