<?xml version="1.0" encoding="UTF-8" standalone="no"?>
<!DOCTYPE svg PUBLIC "-//W3C//DTD SVG 1.1//EN"
 "http://www.w3.org/Graphics/SVG/1.1/DTD/svg11.dtd">
<!-- Generated by graphviz version 2.40.1 (20161225.0304)
 -->
<!-- Title: dependencies Pages: 1 -->
<svg width="558pt" height="349pt"
 viewBox="0.00 0.00 558.00 349.00" xmlns="http://www.w3.org/2000/svg" xmlns:xlink="http://www.w3.org/1999/xlink">
<g id="graph0" class="graph" transform="scale(1 1) rotate(0) translate(4 345)">
<title>dependencies</title>
<polygon fill="#ffffff" stroke="transparent" points="-4,4 -4,-345 554,-345 554,4 -4,4"/>
<text text-anchor="start" x="254.0091" y="-42.4" font-family="sans-serif" font-weight="bold" font-size="14.00" fill="#000000">Legend</text>
<polygon fill="#ffffb3" stroke="transparent" points="41,-10 41,-30 61,-30 61,-10 41,-10"/>
<text text-anchor="start" x="64.629" y="-15.4" font-family="sans-serif" font-size="14.00" fill="#000000"> &#160;Declarations</text>
<polygon fill="#8dd3c7" stroke="transparent" points="154,-10 154,-30 174,-30 174,-10 154,-10"/>
<text text-anchor="start" x="177.7251" y="-15.4" font-family="sans-serif" font-size="14.00" fill="#000000"> &#160;Module</text>
<polygon fill="#80b1d3" stroke="transparent" points="240,-10 240,-30 260,-30 260,-10 240,-10"/>
<text text-anchor="start" x="263.7812" y="-15.4" font-family="sans-serif" font-size="14.00" fill="#000000"> &#160;Bootstrap</text>
<polygon fill="#fdb462" stroke="transparent" points="337,-10 337,-30 357,-30 357,-10 337,-10"/>
<text text-anchor="start" x="360.6732" y="-15.4" font-family="sans-serif" font-size="14.00" fill="#000000"> &#160;Providers</text>
<polygon fill="#fb8072" stroke="transparent" points="433,-10 433,-30 453,-30 453,-10 433,-10"/>
<text text-anchor="start" x="456.7258" y="-15.4" font-family="sans-serif" font-size="14.00" fill="#000000"> &#160;Exports</text>
<g id="clust1" class="cluster">
<title>cluster_SwitchModule</title>
<polygon fill="none" stroke="#000000" stroke-dasharray="1,5" points="8,-70 8,-333 542,-333 542,-70 8,-70"/>
</g>
<g id="clust2" class="cluster">
<title>cluster_SwitchModule_declarations</title>
<polygon fill="none" stroke="#000000" points="207,-143 207,-195 343,-195 343,-143 207,-143"/>
</g>
<g id="clust3" class="cluster">
<title>cluster_SwitchModule_SwitchComponent_providers</title>
<polygon fill="none" stroke="#000000" points="16,-78 16,-130 534,-130 534,-78 16,-78"/>
</g>
<g id="clust4" class="cluster">
<title>cluster_SwitchModule_imports</title>
<polygon fill="none" stroke="#000000" points="71,-143 71,-195 199,-195 199,-143 71,-143"/>
</g>
<g id="clust5" class="cluster">
<title>cluster_SwitchModule_exports</title>
<polygon fill="none" stroke="#000000" points="135,-273 135,-325 275,-325 275,-273 135,-273"/>
</g>
<!-- SwitchComponent -->
<g id="node1" class="node">
<title>SwitchComponent</title>
<polygon fill="#ffffb3" stroke="#000000" points="335.2176,-187 214.7824,-187 214.7824,-151 335.2176,-151 335.2176,-187"/>
<text text-anchor="middle" x="275" y="-164.8" font-family="Times,serif" font-size="14.00" fill="#000000">SwitchComponent</text>
</g>
<!-- SwitchModule -->
<g id="node2" class="node">
<title>SwitchModule</title>
<polygon fill="#8dd3c7" stroke="#000000" points="254.4358,-252 251.4358,-256 230.4358,-256 227.4358,-252 155.5642,-252 155.5642,-216 254.4358,-216 254.4358,-252"/>
<text text-anchor="middle" x="205" y="-229.8" font-family="Times,serif" font-size="14.00" fill="#000000">SwitchModule</text>
</g>
<!-- SwitchComponent&#45;&gt;SwitchModule -->
<g id="edge1" class="edge">
<title>SwitchComponent&#45;&gt;SwitchModule</title>
<path fill="none" stroke="#000000" d="M234.5544,-187.1061C234.5544,-187.1061 234.5544,-205.991 234.5544,-205.991"/>
<polygon fill="#000000" stroke="#000000" points="231.0544,-205.9909 234.5544,-215.991 238.0544,-205.991 231.0544,-205.9909"/>
</g>
<!-- SwitchComponent  -->
<g id="node5" class="node">
<title>SwitchComponent </title>
<polygon fill="#fb8072" stroke="#000000" points="266.7177,-317 143.2823,-317 143.2823,-281 266.7177,-281 266.7177,-317"/>
<text text-anchor="middle" x="205" y="-294.8" font-family="Times,serif" font-size="14.00" fill="#000000">SwitchComponent </text>
</g>
<!-- SwitchModule&#45;&gt;SwitchComponent  -->
<g id="edge4" class="edge">
<title>SwitchModule&#45;&gt;SwitchComponent </title>
<path fill="none" stroke="#000000" stroke-dasharray="5,2" d="M205,-252.1061C205,-252.1061 205,-270.991 205,-270.991"/>
<polygon fill="#000000" stroke="#000000" points="201.5001,-270.9909 205,-280.991 208.5001,-270.991 201.5001,-270.9909"/>
</g>
<!-- { provide: NG_VALUE_ACCESSOR, useExisting: , multi: &#160;} -->
<g id="node3" class="node">
<title>{ provide: NG_VALUE_ACCESSOR, useExisting: , multi: &#160;}</title>
<ellipse fill="#fdb462" stroke="#000000" cx="275" cy="-104" rx="251.4985" ry="18"/>
<text text-anchor="middle" x="275" y="-99.8" font-family="Times,serif" font-size="14.00" fill="#000000">{ provide: NG_VALUE_ACCESSOR, useExisting: , multi: &#160;}</text>
</g>
<!-- { provide: NG_VALUE_ACCESSOR, useExisting: , multi: &#160;}&#45;&gt;SwitchComponent -->
<g id="edge2" class="edge">
<title>{ provide: NG_VALUE_ACCESSOR, useExisting: , multi: &#160;}&#45;&gt;SwitchComponent</title>
<path fill="none" stroke="#000000" d="M275,-122.1061C275,-122.1061 275,-140.991 275,-140.991"/>
<polygon fill="#000000" stroke="#000000" points="271.5001,-140.9909 275,-150.991 278.5001,-140.991 271.5001,-140.9909"/>
</g>
<!-- CommonModule -->
<g id="node4" class="node">
<title>CommonModule</title>
<polygon fill="#8dd3c7" stroke="#000000" points="190.6681,-187 187.6681,-191 166.6681,-191 163.6681,-187 79.3319,-187 79.3319,-151 190.6681,-151 190.6681,-187"/>
<text text-anchor="middle" x="135" y="-164.8" font-family="Times,serif" font-size="14.00" fill="#000000">CommonModule</text>
</g>
<!-- CommonModule&#45;&gt;SwitchModule -->
<g id="edge3" class="edge">
<title>CommonModule&#45;&gt;SwitchModule</title>
<path fill="none" stroke="#000000" d="M173.3082,-187.1061C173.3082,-187.1061 173.3082,-205.991 173.3082,-205.991"/>
<polygon fill="#000000" stroke="#000000" points="169.8083,-205.9909 173.3082,-215.991 176.8083,-205.991 169.8083,-205.9909"/>
</g>
</g>
</svg>
