<?xml version="1.0" encoding="UTF-8" standalone="no"?>
<!DOCTYPE svg PUBLIC "-//W3C//DTD SVG 1.1//EN"
 "http://www.w3.org/Graphics/SVG/1.1/DTD/svg11.dtd">
<!-- Generated by graphviz version 2.38.0 (20140413.2041)
 -->
<!-- Title: dependencies Pages: 1 -->
<svg width="504pt" height="284pt"
 viewBox="0.00 0.00 504.00 284.00" xmlns="http://www.w3.org/2000/svg" xmlns:xlink="http://www.w3.org/1999/xlink">
<g id="graph0" class="graph" transform="scale(1 1) rotate(0) translate(4 280)">
<title>dependencies</title>
<polygon fill="white" stroke="none" points="-4,4 -4,-280 500,-280 500,4 -4,4"/>
<text text-anchor="start" x="227.009" y="-42.4" font-family="sans-serif" font-weight="bold" font-size="14.00">Legend</text>
<polygon fill="#ffffb3" stroke="none" points="14,-10 14,-30 34,-30 34,-10 14,-10"/>
<text text-anchor="start" x="37.629" y="-15.4" font-family="sans-serif" font-size="14.00"> &#160;Declarations</text>
<polygon fill="#8dd3c7" stroke="none" points="127,-10 127,-30 147,-30 147,-10 127,-10"/>
<text text-anchor="start" x="150.725" y="-15.4" font-family="sans-serif" font-size="14.00"> &#160;Module</text>
<polygon fill="#80b1d3" stroke="none" points="213,-10 213,-30 233,-30 233,-10 213,-10"/>
<text text-anchor="start" x="236.781" y="-15.4" font-family="sans-serif" font-size="14.00"> &#160;Bootstrap</text>
<polygon fill="#fdb462" stroke="none" points="310,-10 310,-30 330,-30 330,-10 310,-10"/>
<text text-anchor="start" x="333.673" y="-15.4" font-family="sans-serif" font-size="14.00"> &#160;Providers</text>
<polygon fill="#fb8072" stroke="none" points="406,-10 406,-30 426,-30 426,-10 406,-10"/>
<text text-anchor="start" x="429.726" y="-15.4" font-family="sans-serif" font-size="14.00"> &#160;Exports</text>
<g id="clust1" class="cluster"><title>cluster_SwitchModule</title>
<polygon fill="none" stroke="black" stroke-dasharray="1,5" points="104,-70 104,-268 392,-268 392,-70 104,-70"/>
</g>
<g id="clust2" class="cluster"><title>cluster_SwitchModule_declarations</title>
<polygon fill="none" stroke="black" points="248,-78 248,-130 384,-130 384,-78 248,-78"/>
</g>
<g id="clust4" class="cluster"><title>cluster_SwitchModule_imports</title>
<polygon fill="none" stroke="black" points="112,-78 112,-130 240,-130 240,-78 112,-78"/>
</g>
<g id="clust5" class="cluster"><title>cluster_SwitchModule_exports</title>
<polygon fill="none" stroke="black" points="178,-208 178,-260 318,-260 318,-208 178,-208"/>
</g>
<!-- SwitchComponent -->
<g id="node1" class="node"><title>SwitchComponent</title>
<polygon fill="#ffffb3" stroke="black" points="376.218,-122 255.782,-122 255.782,-86 376.218,-86 376.218,-122"/>
<text text-anchor="middle" x="316" y="-99.8" font-family="Times,serif" font-size="14.00">SwitchComponent</text>
</g>
<!-- SwitchModule -->
<g id="node2" class="node"><title>SwitchModule</title>
<polygon fill="#8dd3c7" stroke="black" points="297.436,-187 294.436,-191 273.436,-191 270.436,-187 198.564,-187 198.564,-151 297.436,-151 297.436,-187"/>
<text text-anchor="middle" x="248" y="-164.8" font-family="Times,serif" font-size="14.00">SwitchModule</text>
</g>
<!-- SwitchComponent&#45;&gt;SwitchModule -->
<g id="edge1" class="edge"><title>SwitchComponent&#45;&gt;SwitchModule</title>
<path fill="none" stroke="black" d="M276.554,-122.106C276.554,-122.106 276.554,-140.991 276.554,-140.991"/>
<polygon fill="black" stroke="black" points="273.054,-140.991 276.554,-150.991 280.054,-140.991 273.054,-140.991"/>
</g>
<!-- SwitchComponent  -->
<g id="node4" class="node"><title>SwitchComponent </title>
<polygon fill="#fb8072" stroke="black" points="309.718,-252 186.282,-252 186.282,-216 309.718,-216 309.718,-252"/>
<text text-anchor="middle" x="248" y="-229.8" font-family="Times,serif" font-size="14.00">SwitchComponent </text>
</g>
<!-- SwitchModule&#45;&gt;SwitchComponent  -->
<g id="edge3" class="edge"><title>SwitchModule&#45;&gt;SwitchComponent </title>
<path fill="none" stroke="black" stroke-dasharray="5,2" d="M248,-187.106C248,-187.106 248,-205.991 248,-205.991"/>
<polygon fill="black" stroke="black" points="244.5,-205.991 248,-215.991 251.5,-205.991 244.5,-205.991"/>
</g>
<!-- CommonModule -->
<g id="node3" class="node"><title>CommonModule</title>
<polygon fill="#8dd3c7" stroke="black" points="231.668,-122 228.668,-126 207.668,-126 204.668,-122 120.332,-122 120.332,-86 231.668,-86 231.668,-122"/>
<text text-anchor="middle" x="176" y="-99.8" font-family="Times,serif" font-size="14.00">CommonModule</text>
</g>
<!-- CommonModule&#45;&gt;SwitchModule -->
<g id="edge2" class="edge"><title>CommonModule&#45;&gt;SwitchModule</title>
<path fill="none" stroke="black" d="M215.308,-122.106C215.308,-122.106 215.308,-140.991 215.308,-140.991"/>
<polygon fill="black" stroke="black" points="211.808,-140.991 215.308,-150.991 218.808,-140.991 211.808,-140.991"/>
</g>
</g>
</svg>
