<?xml version="1.0" encoding="UTF-8" standalone="no"?>
<!DOCTYPE svg PUBLIC "-//W3C//DTD SVG 1.1//EN"
 "http://www.w3.org/Graphics/SVG/1.1/DTD/svg11.dtd">
<!-- Generated by graphviz version 2.40.1 (20161225.0304)
 -->
<!-- Title: dependencies Pages: 1 -->
<svg width="504pt" height="284pt"
 viewBox="0.00 0.00 504.00 284.00" xmlns="http://www.w3.org/2000/svg" xmlns:xlink="http://www.w3.org/1999/xlink">
<g id="graph0" class="graph" transform="scale(1 1) rotate(0) translate(4 280)">
<title>dependencies</title>
<polygon fill="#ffffff" stroke="transparent" points="-4,4 -4,-280 500,-280 500,4 -4,4"/>
<text text-anchor="start" x="227.0091" y="-42.4" font-family="sans-serif" font-weight="bold" font-size="14.00" fill="#000000">Legend</text>
<polygon fill="#ffffb3" stroke="transparent" points="14,-10 14,-30 34,-30 34,-10 14,-10"/>
<text text-anchor="start" x="37.629" y="-15.4" font-family="sans-serif" font-size="14.00" fill="#000000"> &#160;Declarations</text>
<polygon fill="#8dd3c7" stroke="transparent" points="127,-10 127,-30 147,-30 147,-10 127,-10"/>
<text text-anchor="start" x="150.7251" y="-15.4" font-family="sans-serif" font-size="14.00" fill="#000000"> &#160;Module</text>
<polygon fill="#80b1d3" stroke="transparent" points="213,-10 213,-30 233,-30 233,-10 213,-10"/>
<text text-anchor="start" x="236.7812" y="-15.4" font-family="sans-serif" font-size="14.00" fill="#000000"> &#160;Bootstrap</text>
<polygon fill="#fdb462" stroke="transparent" points="310,-10 310,-30 330,-30 330,-10 310,-10"/>
<text text-anchor="start" x="333.6732" y="-15.4" font-family="sans-serif" font-size="14.00" fill="#000000"> &#160;Providers</text>
<polygon fill="#fb8072" stroke="transparent" points="406,-10 406,-30 426,-30 426,-10 406,-10"/>
<text text-anchor="start" x="429.7258" y="-15.4" font-family="sans-serif" font-size="14.00" fill="#000000"> &#160;Exports</text>
<g id="clust1" class="cluster">
<title>cluster_CarouselModule</title>
<polygon fill="none" stroke="#000000" stroke-dasharray="1,5" points="106,-70 106,-268 390,-268 390,-70 106,-70"/>
</g>
<g id="clust2" class="cluster">
<title>cluster_CarouselModule_declarations</title>
<polygon fill="none" stroke="#000000" points="117,-78 117,-130 379,-130 379,-78 117,-78"/>
</g>
<g id="clust6" class="cluster">
<title>cluster_CarouselModule_exports</title>
<polygon fill="none" stroke="#000000" points="114,-208 114,-260 382,-260 382,-208 114,-208"/>
</g>
<!-- CarouselComponent -->
<g id="node1" class="node">
<title>CarouselComponent</title>
<polygon fill="#ffffb3" stroke="#000000" points="370.594,-122 239.406,-122 239.406,-86 370.594,-86 370.594,-122"/>
<text text-anchor="middle" x="305" y="-99.8" font-family="Times,serif" font-size="14.00" fill="#000000">CarouselComponent</text>
</g>
<!-- CarouselModule -->
<g id="node3" class="node">
<title>CarouselModule</title>
<polygon fill="#8dd3c7" stroke="#000000" points="228.8118,-187 225.8118,-191 204.8118,-191 201.8118,-187 119.1882,-187 119.1882,-151 228.8118,-151 228.8118,-187"/>
<text text-anchor="middle" x="174" y="-164.8" font-family="Times,serif" font-size="14.00" fill="#000000">CarouselModule</text>
</g>
<!-- CarouselComponent&#45;&gt;CarouselModule -->
<g id="edge1" class="edge">
<title>CarouselComponent&#45;&gt;CarouselModule</title>
<path fill="none" stroke="#000000" d="M239.3378,-104C230.8518,-104 225.0432,-104 225.0432,-104 225.0432,-104 225.0432,-140.8939 225.0432,-140.8939"/>
<polygon fill="#000000" stroke="#000000" points="221.5432,-140.8938 225.0432,-150.8939 228.5432,-140.8939 221.5432,-140.8938"/>
</g>
<!-- SlideDirective -->
<g id="node2" class="node">
<title>SlideDirective</title>
<polygon fill="#ffffb3" stroke="#000000" points="221.3613,-122 124.6387,-122 124.6387,-86 221.3613,-86 221.3613,-122"/>
<text text-anchor="middle" x="173" y="-99.8" font-family="Times,serif" font-size="14.00" fill="#000000">SlideDirective</text>
</g>
<!-- SlideDirective&#45;&gt;CarouselModule -->
<g id="edge2" class="edge">
<title>SlideDirective&#45;&gt;CarouselModule</title>
<path fill="none" stroke="#000000" d="M173,-122.1061C173,-122.1061 173,-140.991 173,-140.991"/>
<polygon fill="#000000" stroke="#000000" points="169.5001,-140.9909 173,-150.991 176.5001,-140.991 169.5001,-140.9909"/>
</g>
<!-- CarouselComponent  -->
<g id="node4" class="node">
<title>CarouselComponent </title>
<polygon fill="#fb8072" stroke="#000000" points="374.0946,-252 239.9054,-252 239.9054,-216 374.0946,-216 374.0946,-252"/>
<text text-anchor="middle" x="307" y="-229.8" font-family="Times,serif" font-size="14.00" fill="#000000">CarouselComponent </text>
</g>
<!-- CarouselModule&#45;&gt;CarouselComponent  -->
<g id="edge3" class="edge">
<title>CarouselModule&#45;&gt;CarouselComponent </title>
<path fill="none" stroke="#000000" stroke-dasharray="5,2" d="M228.849,-169C264.7807,-169 305.125,-169 305.125,-169 305.125,-169 305.125,-205.8939 305.125,-205.8939"/>
<polygon fill="#000000" stroke="#000000" points="301.6251,-205.8938 305.125,-215.8939 308.6251,-205.8939 301.6251,-205.8938"/>
</g>
<!-- SlideDirective  -->
<g id="node5" class="node">
<title>SlideDirective </title>
<polygon fill="#fb8072" stroke="#000000" points="222.3619,-252 121.6381,-252 121.6381,-216 222.3619,-216 222.3619,-252"/>
<text text-anchor="middle" x="172" y="-229.8" font-family="Times,serif" font-size="14.00" fill="#000000">SlideDirective </text>
</g>
<!-- CarouselModule&#45;&gt;SlideDirective  -->
<g id="edge4" class="edge">
<title>CarouselModule&#45;&gt;SlideDirective </title>
<path fill="none" stroke="#000000" stroke-dasharray="5,2" d="M172,-187.1061C172,-187.1061 172,-205.991 172,-205.991"/>
<polygon fill="#000000" stroke="#000000" points="168.5001,-205.9909 172,-215.991 175.5001,-205.991 168.5001,-205.9909"/>
</g>
</g>
</svg>
