<?xml version="1.0" encoding="UTF-8" standalone="no"?>
<!DOCTYPE svg PUBLIC "-//W3C//DTD SVG 1.1//EN"
 "http://www.w3.org/Graphics/SVG/1.1/DTD/svg11.dtd">
<!-- Generated by graphviz version 2.38.0 (20140413.2041)
 -->
<!-- Title: dependencies Pages: 1 -->
<svg width="504pt" height="284pt"
 viewBox="0.00 0.00 504.00 284.00" xmlns="http://www.w3.org/2000/svg" xmlns:xlink="http://www.w3.org/1999/xlink">
<g id="graph0" class="graph" transform="scale(1 1) rotate(0) translate(4 280)">
<title>dependencies</title>
<polygon fill="white" stroke="none" points="-4,4 -4,-280 500,-280 500,4 -4,4"/>
<text text-anchor="start" x="227.009" y="-42.4" font-family="sans-serif" font-weight="bold" font-size="14.00">Legend</text>
<polygon fill="#ffffb3" stroke="none" points="14,-10 14,-30 34,-30 34,-10 14,-10"/>
<text text-anchor="start" x="37.629" y="-15.4" font-family="sans-serif" font-size="14.00"> &#160;Declarations</text>
<polygon fill="#8dd3c7" stroke="none" points="127,-10 127,-30 147,-30 147,-10 127,-10"/>
<text text-anchor="start" x="150.725" y="-15.4" font-family="sans-serif" font-size="14.00"> &#160;Module</text>
<polygon fill="#80b1d3" stroke="none" points="213,-10 213,-30 233,-30 233,-10 213,-10"/>
<text text-anchor="start" x="236.781" y="-15.4" font-family="sans-serif" font-size="14.00"> &#160;Bootstrap</text>
<polygon fill="#fdb462" stroke="none" points="310,-10 310,-30 330,-30 330,-10 310,-10"/>
<text text-anchor="start" x="333.673" y="-15.4" font-family="sans-serif" font-size="14.00"> &#160;Providers</text>
<polygon fill="#fb8072" stroke="none" points="406,-10 406,-30 426,-30 426,-10 406,-10"/>
<text text-anchor="start" x="429.726" y="-15.4" font-family="sans-serif" font-size="14.00"> &#160;Exports</text>
<g id="clust1" class="cluster"><title>cluster_CarouselModule</title>
<polygon fill="none" stroke="black" stroke-dasharray="1,5" points="41,-70 41,-268 455,-268 455,-70 41,-70"/>
</g>
<g id="clust2" class="cluster"><title>cluster_CarouselModule_declarations</title>
<polygon fill="none" stroke="black" points="185,-78 185,-130 447,-130 447,-78 185,-78"/>
</g>
<g id="clust5" class="cluster"><title>cluster_CarouselModule_imports</title>
<polygon fill="none" stroke="black" points="49,-78 49,-130 177,-130 177,-78 49,-78"/>
</g>
<g id="clust6" class="cluster"><title>cluster_CarouselModule_exports</title>
<polygon fill="none" stroke="black" points="114,-208 114,-260 382,-260 382,-208 114,-208"/>
</g>
<!-- CarouselComponent -->
<g id="node1" class="node"><title>CarouselComponent</title>
<polygon fill="#ffffb3" stroke="black" points="438.594,-122 307.406,-122 307.406,-86 438.594,-86 438.594,-122"/>
<text text-anchor="middle" x="373" y="-99.8" font-family="Times,serif" font-size="14.00">CarouselComponent</text>
</g>
<!-- CarouselModule -->
<g id="node3" class="node"><title>CarouselModule</title>
<polygon fill="#8dd3c7" stroke="black" points="295.812,-187 292.812,-191 271.812,-191 268.812,-187 186.188,-187 186.188,-151 295.812,-151 295.812,-187"/>
<text text-anchor="middle" x="241" y="-164.8" font-family="Times,serif" font-size="14.00">CarouselModule</text>
</g>
<!-- CarouselComponent&#45;&gt;CarouselModule -->
<g id="edge1" class="edge"><title>CarouselComponent&#45;&gt;CarouselModule</title>
<path fill="none" stroke="black" d="M340.875,-122.106C340.875,-141.339 340.875,-169 340.875,-169 340.875,-169 305.904,-169 305.904,-169"/>
<polygon fill="black" stroke="black" points="305.904,-165.5 295.904,-169 305.904,-172.5 305.904,-165.5"/>
</g>
<!-- SlideDirective -->
<g id="node2" class="node"><title>SlideDirective</title>
<polygon fill="#ffffb3" stroke="black" points="289.361,-122 192.639,-122 192.639,-86 289.361,-86 289.361,-122"/>
<text text-anchor="middle" x="241" y="-99.8" font-family="Times,serif" font-size="14.00">SlideDirective</text>
</g>
<!-- SlideDirective&#45;&gt;CarouselModule -->
<g id="edge2" class="edge"><title>SlideDirective&#45;&gt;CarouselModule</title>
<path fill="none" stroke="black" d="M241,-122.106C241,-122.106 241,-140.991 241,-140.991"/>
<polygon fill="black" stroke="black" points="237.5,-140.991 241,-150.991 244.5,-140.991 237.5,-140.991"/>
</g>
<!-- CarouselComponent  -->
<g id="node5" class="node"><title>CarouselComponent </title>
<polygon fill="#fb8072" stroke="black" points="374.095,-252 239.905,-252 239.905,-216 374.095,-216 374.095,-252"/>
<text text-anchor="middle" x="307" y="-229.8" font-family="Times,serif" font-size="14.00">CarouselComponent </text>
</g>
<!-- CarouselModule&#45;&gt;CarouselComponent  -->
<g id="edge4" class="edge"><title>CarouselModule&#45;&gt;CarouselComponent </title>
<path fill="none" stroke="black" stroke-dasharray="5,2" d="M267.679,-187.106C267.679,-187.106 267.679,-205.991 267.679,-205.991"/>
<polygon fill="black" stroke="black" points="264.179,-205.991 267.679,-215.991 271.179,-205.991 264.179,-205.991"/>
</g>
<!-- SlideDirective  -->
<g id="node6" class="node"><title>SlideDirective </title>
<polygon fill="#fb8072" stroke="black" points="222.362,-252 121.638,-252 121.638,-216 222.362,-216 222.362,-252"/>
<text text-anchor="middle" x="172" y="-229.8" font-family="Times,serif" font-size="14.00">SlideDirective </text>
</g>
<!-- CarouselModule&#45;&gt;SlideDirective  -->
<g id="edge5" class="edge"><title>CarouselModule&#45;&gt;SlideDirective </title>
<path fill="none" stroke="black" stroke-dasharray="5,2" d="M204.262,-187.106C204.262,-187.106 204.262,-205.991 204.262,-205.991"/>
<polygon fill="black" stroke="black" points="200.763,-205.991 204.262,-215.991 207.763,-205.991 200.763,-205.991"/>
</g>
<!-- CommonModule -->
<g id="node4" class="node"><title>CommonModule</title>
<polygon fill="#8dd3c7" stroke="black" points="168.668,-122 165.668,-126 144.668,-126 141.668,-122 57.3319,-122 57.3319,-86 168.668,-86 168.668,-122"/>
<text text-anchor="middle" x="113" y="-99.8" font-family="Times,serif" font-size="14.00">CommonModule</text>
</g>
<!-- CommonModule&#45;&gt;CarouselModule -->
<g id="edge3" class="edge"><title>CommonModule&#45;&gt;CarouselModule</title>
<path fill="none" stroke="black" d="M145.327,-122.106C145.327,-141.339 145.327,-169 145.327,-169 145.327,-169 176.178,-169 176.178,-169"/>
<polygon fill="black" stroke="black" points="176.178,-172.5 186.178,-169 176.178,-165.5 176.178,-172.5"/>
</g>
</g>
</svg>
