<?xml version="1.0" encoding="UTF-8" standalone="no"?>
<!DOCTYPE svg PUBLIC "-//W3C//DTD SVG 1.1//EN"
 "http://www.w3.org/Graphics/SVG/1.1/DTD/svg11.dtd">
<!-- Generated by graphviz version 2.40.1 (20161225.0304)
 -->
<!-- Title: dependencies Pages: 1 -->
<svg width="504pt" height="284pt"
 viewBox="0.00 0.00 504.00 284.00" xmlns="http://www.w3.org/2000/svg" xmlns:xlink="http://www.w3.org/1999/xlink">
<g id="graph0" class="graph" transform="scale(1 1) rotate(0) translate(4 280)">
<title>dependencies</title>
<polygon fill="#ffffff" stroke="transparent" points="-4,4 -4,-280 500,-280 500,4 -4,4"/>
<text text-anchor="start" x="227.0091" y="-42.4" font-family="sans-serif" font-weight="bold" font-size="14.00" fill="#000000">Legend</text>
<polygon fill="#ffffb3" stroke="transparent" points="14,-10 14,-30 34,-30 34,-10 14,-10"/>
<text text-anchor="start" x="37.629" y="-15.4" font-family="sans-serif" font-size="14.00" fill="#000000"> &#160;Declarations</text>
<polygon fill="#8dd3c7" stroke="transparent" points="127,-10 127,-30 147,-30 147,-10 127,-10"/>
<text text-anchor="start" x="150.7251" y="-15.4" font-family="sans-serif" font-size="14.00" fill="#000000"> &#160;Module</text>
<polygon fill="#80b1d3" stroke="transparent" points="213,-10 213,-30 233,-30 233,-10 213,-10"/>
<text text-anchor="start" x="236.7812" y="-15.4" font-family="sans-serif" font-size="14.00" fill="#000000"> &#160;Bootstrap</text>
<polygon fill="#fdb462" stroke="transparent" points="310,-10 310,-30 330,-30 330,-10 310,-10"/>
<text text-anchor="start" x="333.6732" y="-15.4" font-family="sans-serif" font-size="14.00" fill="#000000"> &#160;Providers</text>
<polygon fill="#fb8072" stroke="transparent" points="406,-10 406,-30 426,-30 426,-10 406,-10"/>
<text text-anchor="start" x="429.7258" y="-15.4" font-family="sans-serif" font-size="14.00" fill="#000000"> &#160;Exports</text>
<g id="clust1" class="cluster">
<title>cluster_CarouselModule</title>
<polygon fill="none" stroke="#000000" stroke-dasharray="1,5" points="106,-70 106,-268 390,-268 390,-70 106,-70"/>
</g>
<g id="clust3" class="cluster">
<title>cluster_CarouselModule_imports</title>
<polygon fill="none" stroke="#000000" points="178,-78 178,-130 306,-130 306,-78 178,-78"/>
</g>
<g id="clust4" class="cluster">
<title>cluster_CarouselModule_exports</title>
<polygon fill="none" stroke="#000000" points="114,-208 114,-260 382,-260 382,-208 114,-208"/>
</g>
<!-- CommonModule -->
<g id="node1" class="node">
<title>CommonModule</title>
<polygon fill="#8dd3c7" stroke="#000000" points="297.6681,-122 294.6681,-126 273.6681,-126 270.6681,-122 186.3319,-122 186.3319,-86 297.6681,-86 297.6681,-122"/>
<text text-anchor="middle" x="242" y="-99.8" font-family="Times,serif" font-size="14.00" fill="#000000">CommonModule</text>
</g>
<!-- CarouselModule -->
<g id="node2" class="node">
<title>CarouselModule</title>
<polygon fill="#8dd3c7" stroke="#000000" points="296.8118,-187 293.8118,-191 272.8118,-191 269.8118,-187 187.1882,-187 187.1882,-151 296.8118,-151 296.8118,-187"/>
<text text-anchor="middle" x="242" y="-164.8" font-family="Times,serif" font-size="14.00" fill="#000000">CarouselModule</text>
</g>
<!-- CommonModule&#45;&gt;CarouselModule -->
<g id="edge1" class="edge">
<title>CommonModule&#45;&gt;CarouselModule</title>
<path fill="none" stroke="#000000" d="M242,-122.1061C242,-122.1061 242,-140.991 242,-140.991"/>
<polygon fill="#000000" stroke="#000000" points="238.5001,-140.9909 242,-150.991 245.5001,-140.991 238.5001,-140.9909"/>
</g>
<!-- CarouselComponent  -->
<g id="node3" class="node">
<title>CarouselComponent </title>
<polygon fill="#fb8072" stroke="#000000" points="374.0946,-252 239.9054,-252 239.9054,-216 374.0946,-216 374.0946,-252"/>
<text text-anchor="middle" x="307" y="-229.8" font-family="Times,serif" font-size="14.00" fill="#000000">CarouselComponent </text>
</g>
<!-- CarouselModule&#45;&gt;CarouselComponent  -->
<g id="edge2" class="edge">
<title>CarouselModule&#45;&gt;CarouselComponent </title>
<path fill="none" stroke="#000000" stroke-dasharray="5,2" d="M268.1794,-187.1061C268.1794,-187.1061 268.1794,-205.991 268.1794,-205.991"/>
<polygon fill="#000000" stroke="#000000" points="264.6794,-205.9909 268.1794,-215.991 271.6794,-205.991 264.6794,-205.9909"/>
</g>
<!-- SlideDirective  -->
<g id="node4" class="node">
<title>SlideDirective </title>
<polygon fill="#fb8072" stroke="#000000" points="222.3619,-252 121.6381,-252 121.6381,-216 222.3619,-216 222.3619,-252"/>
<text text-anchor="middle" x="172" y="-229.8" font-family="Times,serif" font-size="14.00" fill="#000000">SlideDirective </text>
</g>
<!-- CarouselModule&#45;&gt;SlideDirective  -->
<g id="edge3" class="edge">
<title>CarouselModule&#45;&gt;SlideDirective </title>
<path fill="none" stroke="#000000" stroke-dasharray="5,2" d="M204.7625,-187.1061C204.7625,-187.1061 204.7625,-205.991 204.7625,-205.991"/>
<polygon fill="#000000" stroke="#000000" points="201.2625,-205.9909 204.7625,-215.991 208.2625,-205.991 201.2625,-205.9909"/>
</g>
</g>
</svg>
