<?xml version="1.0" encoding="UTF-8" standalone="no"?>
<!DOCTYPE svg PUBLIC "-//W3C//DTD SVG 1.1//EN"
 "http://www.w3.org/Graphics/SVG/1.1/DTD/svg11.dtd">
<!-- Generated by graphviz version 2.38.0 (20140413.2041)
 -->
<!-- Title: dependencies Pages: 1 -->
<svg width="4012pt" height="284pt"
 viewBox="0.00 0.00 4012.00 284.00" xmlns="http://www.w3.org/2000/svg" xmlns:xlink="http://www.w3.org/1999/xlink">
<g id="graph0" class="graph" transform="scale(1 1) rotate(0) translate(4 280)">
<title>dependencies</title>
<polygon fill="white" stroke="none" points="-4,4 -4,-280 4008,-280 4008,4 -4,4"/>
<text text-anchor="start" x="1981.01" y="-42.4" font-family="sans-serif" font-weight="bold" font-size="14.00">Legend</text>
<polygon fill="#ffffb3" stroke="none" points="1768,-10 1768,-30 1788,-30 1788,-10 1768,-10"/>
<text text-anchor="start" x="1791.63" y="-15.4" font-family="sans-serif" font-size="14.00"> &#160;Declarations</text>
<polygon fill="#8dd3c7" stroke="none" points="1881,-10 1881,-30 1901,-30 1901,-10 1881,-10"/>
<text text-anchor="start" x="1904.73" y="-15.4" font-family="sans-serif" font-size="14.00"> &#160;Module</text>
<polygon fill="#80b1d3" stroke="none" points="1967,-10 1967,-30 1987,-30 1987,-10 1967,-10"/>
<text text-anchor="start" x="1990.78" y="-15.4" font-family="sans-serif" font-size="14.00"> &#160;Bootstrap</text>
<polygon fill="#fdb462" stroke="none" points="2064,-10 2064,-30 2084,-30 2084,-10 2064,-10"/>
<text text-anchor="start" x="2087.67" y="-15.4" font-family="sans-serif" font-size="14.00"> &#160;Providers</text>
<polygon fill="#fb8072" stroke="none" points="2160,-10 2160,-30 2180,-30 2180,-10 2160,-10"/>
<text text-anchor="start" x="2183.73" y="-15.4" font-family="sans-serif" font-size="14.00"> &#160;Exports</text>
<g id="clust1" class="cluster"><title>cluster_DataTableModule</title>
<polygon fill="none" stroke="black" stroke-dasharray="1,5" points="8,-70 8,-268 3996,-268 3996,-70 8,-70"/>
</g>
<g id="clust2" class="cluster"><title>cluster_DataTableModule_declarations</title>
<polygon fill="none" stroke="black" points="714,-78 714,-130 3988,-130 3988,-78 714,-78"/>
</g>
<g id="clust19" class="cluster"><title>cluster_DataTableModule_imports</title>
<polygon fill="none" stroke="black" points="16,-78 16,-130 706,-130 706,-78 16,-78"/>
</g>
<g id="clust20" class="cluster"><title>cluster_DataTableModule_exports</title>
<polygon fill="none" stroke="black" points="144,-208 144,-260 3477,-260 3477,-208 144,-208"/>
</g>
<!-- DataTableComponent -->
<g id="node1" class="node"><title>DataTableComponent</title>
<polygon fill="#ffffb3" stroke="black" points="3979.63,-122 3840.37,-122 3840.37,-86 3979.63,-86 3979.63,-122"/>
<text text-anchor="middle" x="3910" y="-99.8" font-family="Times,serif" font-size="14.00">DataTableComponent</text>
</g>
<!-- DataTableModule -->
<g id="node17" class="node"><title>DataTableModule</title>
<polygon fill="#8dd3c7" stroke="black" points="1860.85,-187 1857.85,-191 1836.85,-191 1833.85,-187 1743.15,-187 1743.15,-151 1860.85,-151 1860.85,-187"/>
<text text-anchor="middle" x="1802" y="-164.8" font-family="Times,serif" font-size="14.00">DataTableModule</text>
</g>
<!-- DataTableComponent&#45;&gt;DataTableModule -->
<g id="edge1" class="edge"><title>DataTableComponent&#45;&gt;DataTableModule</title>
<path fill="none" stroke="black" d="M3910,-122.308C3910,-142.146 3910,-171 3910,-171 3910,-171 1870.86,-171 1870.86,-171"/>
<polygon fill="black" stroke="black" points="1870.86,-167.5 1860.86,-171 1870.86,-174.5 1870.86,-167.5"/>
</g>
<!-- DataTableColumnTmplComponent -->
<g id="node2" class="node"><title>DataTableColumnTmplComponent</title>
<polygon fill="#ffffb3" stroke="black" points="3822.58,-122 3607.42,-122 3607.42,-86 3822.58,-86 3822.58,-122"/>
<text text-anchor="middle" x="3715" y="-99.8" font-family="Times,serif" font-size="14.00">DataTableColumnTmplComponent</text>
</g>
<!-- DataTableColumnTmplComponent&#45;&gt;DataTableModule -->
<g id="edge2" class="edge"><title>DataTableColumnTmplComponent&#45;&gt;DataTableModule</title>
<path fill="none" stroke="black" d="M3715,-122.106C3715,-141.339 3715,-169 3715,-169 3715,-169 1871.09,-169 1871.09,-169"/>
<polygon fill="black" stroke="black" points="1871.09,-165.5 1861.09,-169 1871.09,-172.5 1871.09,-165.5"/>
</g>
<!-- DataTableCellViewTmplComponent -->
<g id="node3" class="node"><title>DataTableCellViewTmplComponent</title>
<polygon fill="#ffffb3" stroke="black" points="3589.62,-122 3366.38,-122 3366.38,-86 3589.62,-86 3589.62,-122"/>
<text text-anchor="middle" x="3478" y="-99.8" font-family="Times,serif" font-size="14.00">DataTableCellViewTmplComponent</text>
</g>
<!-- DataTableCellViewTmplComponent&#45;&gt;DataTableModule -->
<g id="edge3" class="edge"><title>DataTableCellViewTmplComponent&#45;&gt;DataTableModule</title>
<path fill="none" stroke="black" d="M3417.38,-122.222C3417.38,-140.829 3417.38,-167 3417.38,-167 3417.38,-167 1870.93,-167 1870.93,-167"/>
<polygon fill="black" stroke="black" points="1870.93,-163.5 1860.93,-167 1870.93,-170.5 1870.93,-163.5"/>
</g>
<!-- DataTableCellEditTmplComponent -->
<g id="node4" class="node"><title>DataTableCellEditTmplComponent</title>
<polygon fill="#ffffb3" stroke="black" points="3348.13,-122 3131.87,-122 3131.87,-86 3348.13,-86 3348.13,-122"/>
<text text-anchor="middle" x="3240" y="-99.8" font-family="Times,serif" font-size="14.00">DataTableCellEditTmplComponent</text>
</g>
<!-- DataTableCellEditTmplComponent&#45;&gt;DataTableModule -->
<g id="edge4" class="edge"><title>DataTableCellEditTmplComponent&#45;&gt;DataTableModule</title>
<path fill="none" stroke="black" d="M3219.49,-122.302C3219.49,-140.27 3219.49,-165 3219.49,-165 3219.49,-165 1871.1,-165 1871.1,-165"/>
<polygon fill="black" stroke="black" points="1871.1,-161.5 1861.1,-165 1871.1,-168.5 1871.1,-161.5"/>
</g>
<!-- DataTableBodyComponent -->
<g id="node5" class="node"><title>DataTableBodyComponent</title>
<polygon fill="#ffffb3" stroke="black" points="3113.97,-122 2944.03,-122 2944.03,-86 3113.97,-86 3113.97,-122"/>
<text text-anchor="middle" x="3029" y="-99.8" font-family="Times,serif" font-size="14.00">DataTableBodyComponent</text>
</g>
<!-- DataTableBodyComponent&#45;&gt;DataTableModule -->
<g id="edge5" class="edge"><title>DataTableBodyComponent&#45;&gt;DataTableModule</title>
<path fill="none" stroke="black" d="M3007.29,-122.023C3007.29,-139.373 3007.29,-163 3007.29,-163 3007.29,-163 1870.95,-163 1870.95,-163"/>
<polygon fill="black" stroke="black" points="1870.95,-159.5 1860.95,-163 1870.95,-166.5 1870.95,-159.5"/>
</g>
<!-- DataTableHeadComponent -->
<g id="node6" class="node"><title>DataTableHeadComponent</title>
<polygon fill="#ffffb3" stroke="black" points="2925.67,-122 2756.33,-122 2756.33,-86 2925.67,-86 2925.67,-122"/>
<text text-anchor="middle" x="2841" y="-99.8" font-family="Times,serif" font-size="14.00">DataTableHeadComponent</text>
</g>
<!-- DataTableHeadComponent&#45;&gt;DataTableModule -->
<g id="edge6" class="edge"><title>DataTableHeadComponent&#45;&gt;DataTableModule</title>
<path fill="none" stroke="black" d="M2790.74,-122.035C2790.74,-138.734 2790.74,-161 2790.74,-161 2790.74,-161 1870.89,-161 1870.89,-161"/>
<polygon fill="black" stroke="black" points="1870.89,-157.5 1860.89,-161 1870.89,-164.5 1870.89,-157.5"/>
</g>
<!-- DataTableCellComponent -->
<g id="node7" class="node"><title>DataTableCellComponent</title>
<polygon fill="#ffffb3" stroke="black" points="2738.46,-122 2575.54,-122 2575.54,-86 2738.46,-86 2738.46,-122"/>
<text text-anchor="middle" x="2657" y="-99.8" font-family="Times,serif" font-size="14.00">DataTableCellComponent</text>
</g>
<!-- DataTableCellComponent&#45;&gt;DataTableModule -->
<g id="edge7" class="edge"><title>DataTableCellComponent&#45;&gt;DataTableModule</title>
<path fill="none" stroke="black" d="M2581.13,-122.009C2581.13,-138.049 2581.13,-159 2581.13,-159 2581.13,-159 1870.88,-159 1870.88,-159"/>
<polygon fill="black" stroke="black" points="1870.88,-155.5 1860.88,-159 1870.88,-162.5 1870.88,-155.5"/>
</g>
<!-- DataTableHeadTmplComponent -->
<g id="node8" class="node"><title>DataTableHeadTmplComponent</title>
<polygon fill="#ffffb3" stroke="black" points="2557.5,-122 2358.5,-122 2358.5,-86 2557.5,-86 2557.5,-122"/>
<text text-anchor="middle" x="2458" y="-99.8" font-family="Times,serif" font-size="14.00">DataTableHeadTmplComponent</text>
</g>
<!-- DataTableHeadTmplComponent&#45;&gt;DataTableModule -->
<g id="edge8" class="edge"><title>DataTableHeadTmplComponent&#45;&gt;DataTableModule</title>
<path fill="none" stroke="black" d="M2376.79,-122.24C2376.79,-137.571 2376.79,-157 2376.79,-157 2376.79,-157 1871.08,-157 1871.08,-157"/>
<polygon fill="black" stroke="black" points="1871.08,-153.5 1861.08,-157 1871.08,-160.5 1871.08,-153.5"/>
</g>
<!-- DataTableCellFilterTmplComponent -->
<g id="node9" class="node"><title>DataTableCellFilterTmplComponent</title>
<polygon fill="#ffffb3" stroke="black" points="2339.63,-122 2116.37,-122 2116.37,-86 2339.63,-86 2339.63,-122"/>
<text text-anchor="middle" x="2228" y="-99.8" font-family="Times,serif" font-size="14.00">DataTableCellFilterTmplComponent</text>
</g>
<!-- DataTableCellFilterTmplComponent&#45;&gt;DataTableModule -->
<g id="edge9" class="edge"><title>DataTableCellFilterTmplComponent&#45;&gt;DataTableModule</title>
<path fill="none" stroke="black" d="M2160.21,-122.124C2160.21,-136.783 2160.21,-155 2160.21,-155 2160.21,-155 1871.15,-155 1871.15,-155"/>
<polygon fill="black" stroke="black" points="1871.15,-151.5 1861.15,-155 1871.15,-158.5 1871.15,-151.5"/>
</g>
<!-- DataTableFootTmplComponent -->
<g id="node10" class="node"><title>DataTableFootTmplComponent</title>
<polygon fill="#ffffb3" stroke="black" points="2097.64,-122 1902.36,-122 1902.36,-86 2097.64,-86 2097.64,-122"/>
<text text-anchor="middle" x="2000" y="-99.8" font-family="Times,serif" font-size="14.00">DataTableFootTmplComponent</text>
</g>
<!-- DataTableFootTmplComponent&#45;&gt;DataTableModule -->
<g id="edge10" class="edge"><title>DataTableFootTmplComponent&#45;&gt;DataTableModule</title>
<path fill="none" stroke="black" d="M1960.84,-122.246C1960.84,-136.177 1960.84,-153 1960.84,-153 1960.84,-153 1871.15,-153 1871.15,-153"/>
<polygon fill="black" stroke="black" points="1871.15,-149.5 1861.15,-153 1871.15,-156.5 1871.15,-149.5"/>
</g>
<!-- DataTableFootComponent -->
<g id="node11" class="node"><title>DataTableFootComponent</title>
<polygon fill="#ffffb3" stroke="black" points="1884.8,-122 1719.2,-122 1719.2,-86 1884.8,-86 1884.8,-122"/>
<text text-anchor="middle" x="1802" y="-99.8" font-family="Times,serif" font-size="14.00">DataTableFootComponent</text>
</g>
<!-- DataTableFootComponent&#45;&gt;DataTableModule -->
<g id="edge11" class="edge"><title>DataTableFootComponent&#45;&gt;DataTableModule</title>
<path fill="none" stroke="black" d="M1802,-122.106C1802,-122.106 1802,-140.991 1802,-140.991"/>
<polygon fill="black" stroke="black" points="1798.5,-140.991 1802,-150.991 1805.5,-140.991 1798.5,-140.991"/>
</g>
<!-- DataTableTmplsComponent -->
<g id="node12" class="node"><title>DataTableTmplsComponent</title>
<polygon fill="#ffffb3" stroke="black" points="1701.91,-122 1526.09,-122 1526.09,-86 1701.91,-86 1701.91,-122"/>
<text text-anchor="middle" x="1614" y="-99.8" font-family="Times,serif" font-size="14.00">DataTableTmplsComponent</text>
</g>
<!-- DataTableTmplsComponent&#45;&gt;DataTableModule -->
<g id="edge12" class="edge"><title>DataTableTmplsComponent&#45;&gt;DataTableModule</title>
<path fill="none" stroke="black" d="M1636.57,-122.246C1636.57,-136.177 1636.57,-153 1636.57,-153 1636.57,-153 1732.74,-153 1732.74,-153"/>
<polygon fill="black" stroke="black" points="1732.74,-156.5 1742.74,-153 1732.74,-149.5 1732.74,-156.5"/>
</g>
<!-- DataTableCellTmplComponent -->
<g id="node13" class="node"><title>DataTableCellTmplComponent</title>
<polygon fill="#ffffb3" stroke="black" points="1508.8,-122 1315.2,-122 1315.2,-86 1508.8,-86 1508.8,-122"/>
<text text-anchor="middle" x="1412" y="-99.8" font-family="Times,serif" font-size="14.00">DataTableCellTmplComponent</text>
</g>
<!-- DataTableCellTmplComponent&#45;&gt;DataTableModule -->
<g id="edge13" class="edge"><title>DataTableCellTmplComponent&#45;&gt;DataTableModule</title>
<path fill="none" stroke="black" d="M1431.54,-122.124C1431.54,-136.783 1431.54,-155 1431.54,-155 1431.54,-155 1732.89,-155 1732.89,-155"/>
<polygon fill="black" stroke="black" points="1732.89,-158.5 1742.89,-155 1732.89,-151.5 1732.89,-158.5"/>
</g>
<!-- DataTablePagerComponent -->
<g id="node14" class="node"><title>DataTablePagerComponent</title>
<polygon fill="#ffffb3" stroke="black" points="1297.5,-122 1126.5,-122 1126.5,-86 1297.5,-86 1297.5,-122"/>
<text text-anchor="middle" x="1212" y="-99.8" font-family="Times,serif" font-size="14.00">DataTablePagerComponent</text>
</g>
<!-- DataTablePagerComponent&#45;&gt;DataTableModule -->
<g id="edge14" class="edge"><title>DataTablePagerComponent&#45;&gt;DataTableModule</title>
<path fill="none" stroke="black" d="M1232.67,-122.24C1232.67,-137.571 1232.67,-157 1232.67,-157 1232.67,-157 1732.95,-157 1732.95,-157"/>
<polygon fill="black" stroke="black" points="1732.95,-160.5 1742.95,-157 1732.95,-153.5 1732.95,-160.5"/>
</g>
<!-- DataTablePagerTmplComponent -->
<g id="node15" class="node"><title>DataTablePagerTmplComponent</title>
<polygon fill="#ffffb3" stroke="black" points="1107.84,-122 906.163,-122 906.163,-86 1107.84,-86 1107.84,-122"/>
<text text-anchor="middle" x="1007" y="-99.8" font-family="Times,serif" font-size="14.00">DataTablePagerTmplComponent</text>
</g>
<!-- DataTablePagerTmplComponent&#45;&gt;DataTableModule -->
<g id="edge15" class="edge"><title>DataTablePagerTmplComponent&#45;&gt;DataTableModule</title>
<path fill="none" stroke="black" d="M1039.23,-122.009C1039.23,-138.049 1039.23,-159 1039.23,-159 1039.23,-159 1733.1,-159 1733.1,-159"/>
<polygon fill="black" stroke="black" points="1733.1,-162.5 1743.1,-159 1733.1,-155.5 1733.1,-162.5"/>
</g>
<!-- DataTableRowComponent -->
<g id="node16" class="node"><title>DataTableRowComponent</title>
<polygon fill="#ffffb3" stroke="black" points="888.074,-122 721.926,-122 721.926,-86 888.074,-86 888.074,-122"/>
<text text-anchor="middle" x="805" y="-99.8" font-family="Times,serif" font-size="14.00">DataTableRowComponent</text>
</g>
<!-- DataTableRowComponent&#45;&gt;DataTableModule -->
<g id="edge16" class="edge"><title>DataTableRowComponent&#45;&gt;DataTableModule</title>
<path fill="none" stroke="black" d="M821.819,-122.035C821.819,-138.734 821.819,-161 821.819,-161 821.819,-161 1732.89,-161 1732.89,-161"/>
<polygon fill="black" stroke="black" points="1732.89,-164.5 1742.89,-161 1732.89,-157.5 1732.89,-164.5"/>
</g>
<!-- DataTableComponent  -->
<g id="node23" class="node"><title>DataTableComponent </title>
<polygon fill="#fb8072" stroke="black" points="3468.63,-252 3325.37,-252 3325.37,-216 3468.63,-216 3468.63,-252"/>
<text text-anchor="middle" x="3397" y="-229.8" font-family="Times,serif" font-size="14.00">DataTableComponent </text>
</g>
<!-- DataTableModule&#45;&gt;DataTableComponent  -->
<g id="edge22" class="edge"><title>DataTableModule&#45;&gt;DataTableComponent </title>
<path fill="none" stroke="black" stroke-dasharray="5,2" d="M1861.23,-173C2143.3,-173 3336.88,-173 3336.88,-173 3336.88,-173 3336.88,-205.698 3336.88,-205.698"/>
<polygon fill="black" stroke="black" points="3333.38,-205.698 3336.88,-215.698 3340.38,-205.698 3333.38,-205.698"/>
</g>
<!-- DataTableColumnTmplComponent  -->
<g id="node24" class="node"><title>DataTableColumnTmplComponent </title>
<polygon fill="#fb8072" stroke="black" points="3307.08,-252 3088.92,-252 3088.92,-216 3307.08,-216 3307.08,-252"/>
<text text-anchor="middle" x="3198" y="-229.8" font-family="Times,serif" font-size="14.00">DataTableColumnTmplComponent </text>
</g>
<!-- DataTableModule&#45;&gt;DataTableColumnTmplComponent  -->
<g id="edge23" class="edge"><title>DataTableModule&#45;&gt;DataTableColumnTmplComponent </title>
<path fill="none" stroke="black" stroke-dasharray="5,2" d="M1861.21,-175C2115.4,-175 3101.35,-175 3101.35,-175 3101.35,-175 3101.35,-205.977 3101.35,-205.977"/>
<polygon fill="black" stroke="black" points="3097.85,-205.977 3101.35,-215.977 3104.85,-205.978 3097.85,-205.977"/>
</g>
<!-- DataTableCellViewTmplComponent  -->
<g id="node25" class="node"><title>DataTableCellViewTmplComponent </title>
<polygon fill="#fb8072" stroke="black" points="3070.62,-252 2843.38,-252 2843.38,-216 3070.62,-216 3070.62,-252"/>
<text text-anchor="middle" x="2957" y="-229.8" font-family="Times,serif" font-size="14.00">DataTableCellViewTmplComponent </text>
</g>
<!-- DataTableModule&#45;&gt;DataTableCellViewTmplComponent  -->
<g id="edge24" class="edge"><title>DataTableModule&#45;&gt;DataTableCellViewTmplComponent </title>
<path fill="none" stroke="black" stroke-dasharray="5,2" d="M1860.97,-177C2086.87,-177 2884.51,-177 2884.51,-177 2884.51,-177 2884.51,-205.965 2884.51,-205.965"/>
<polygon fill="black" stroke="black" points="2881.01,-205.965 2884.51,-215.965 2888.01,-205.965 2881.01,-205.965"/>
</g>
<!-- DataTableCellEditTmplComponent  -->
<g id="node26" class="node"><title>DataTableCellEditTmplComponent </title>
<polygon fill="#fb8072" stroke="black" points="2825.13,-252 2604.87,-252 2604.87,-216 2825.13,-216 2825.13,-252"/>
<text text-anchor="middle" x="2715" y="-229.8" font-family="Times,serif" font-size="14.00">DataTableCellEditTmplComponent </text>
</g>
<!-- DataTableModule&#45;&gt;DataTableCellEditTmplComponent  -->
<g id="edge25" class="edge"><title>DataTableModule&#45;&gt;DataTableCellEditTmplComponent </title>
<path fill="none" stroke="black" stroke-dasharray="5,2" d="M1861.09,-179C2056.84,-179 2671.71,-179 2671.71,-179 2671.71,-179 2671.71,-205.991 2671.71,-205.991"/>
<polygon fill="black" stroke="black" points="2668.21,-205.991 2671.71,-215.991 2675.21,-205.991 2668.21,-205.991"/>
</g>
<!-- DataTableBodyComponent  -->
<g id="node27" class="node"><title>DataTableBodyComponent </title>
<polygon fill="#fb8072" stroke="black" points="2586.97,-252 2413.03,-252 2413.03,-216 2586.97,-216 2586.97,-252"/>
<text text-anchor="middle" x="2500" y="-229.8" font-family="Times,serif" font-size="14.00">DataTableBodyComponent </text>
</g>
<!-- DataTableModule&#45;&gt;DataTableBodyComponent  -->
<g id="edge26" class="edge"><title>DataTableModule&#45;&gt;DataTableBodyComponent </title>
<path fill="none" stroke="black" stroke-dasharray="5,2" d="M1860.87,-181C2026.66,-181 2485.51,-181 2485.51,-181 2485.51,-181 2485.51,-205.76 2485.51,-205.76"/>
<polygon fill="black" stroke="black" points="2482.01,-205.76 2485.51,-215.76 2489.01,-205.76 2482.01,-205.76"/>
</g>
<!-- DataTableHeadComponent  -->
<g id="node28" class="node"><title>DataTableHeadComponent </title>
<polygon fill="#fb8072" stroke="black" points="2395.17,-252 2222.83,-252 2222.83,-216 2395.17,-216 2395.17,-252"/>
<text text-anchor="middle" x="2309" y="-229.8" font-family="Times,serif" font-size="14.00">DataTableHeadComponent </text>
</g>
<!-- DataTableModule&#45;&gt;DataTableHeadComponent  -->
<g id="edge27" class="edge"><title>DataTableModule&#45;&gt;DataTableHeadComponent </title>
<path fill="none" stroke="black" stroke-dasharray="5,2" d="M1861.24,-183C1989.47,-183 2281.24,-183 2281.24,-183 2281.24,-183 2281.24,-205.876 2281.24,-205.876"/>
<polygon fill="black" stroke="black" points="2277.74,-205.876 2281.24,-215.876 2284.74,-205.876 2277.74,-205.876"/>
</g>
<!-- DataTableCellComponent  -->
<g id="node29" class="node"><title>DataTableCellComponent </title>
<polygon fill="#fb8072" stroke="black" points="2204.46,-252 2037.54,-252 2037.54,-216 2204.46,-216 2204.46,-252"/>
<text text-anchor="middle" x="2121" y="-229.8" font-family="Times,serif" font-size="14.00">DataTableCellComponent </text>
</g>
<!-- DataTableModule&#45;&gt;DataTableCellComponent  -->
<g id="edge28" class="edge"><title>DataTableModule&#45;&gt;DataTableCellComponent </title>
<path fill="none" stroke="black" stroke-dasharray="5,2" d="M1860.99,-185C1939.29,-185 2067.79,-185 2067.79,-185 2067.79,-185 2067.79,-205.754 2067.79,-205.754"/>
<polygon fill="black" stroke="black" points="2064.29,-205.754 2067.79,-215.754 2071.29,-205.754 2064.29,-205.754"/>
</g>
<!-- DataTableHeadTmplComponent  -->
<g id="node30" class="node"><title>DataTableHeadTmplComponent </title>
<polygon fill="#fb8072" stroke="black" points="2019.5,-252 1816.5,-252 1816.5,-216 2019.5,-216 2019.5,-252"/>
<text text-anchor="middle" x="1918" y="-229.8" font-family="Times,serif" font-size="14.00">DataTableHeadTmplComponent </text>
</g>
<!-- DataTableModule&#45;&gt;DataTableHeadTmplComponent  -->
<g id="edge29" class="edge"><title>DataTableModule&#45;&gt;DataTableHeadTmplComponent </title>
<path fill="none" stroke="black" stroke-dasharray="5,2" d="M1838.71,-187.106C1838.71,-187.106 1838.71,-205.991 1838.71,-205.991"/>
<polygon fill="black" stroke="black" points="1835.21,-205.991 1838.71,-215.991 1842.21,-205.991 1835.21,-205.991"/>
</g>
<!-- DataTableCellFilterTmplComponent  -->
<g id="node31" class="node"><title>DataTableCellFilterTmplComponent </title>
<polygon fill="#fb8072" stroke="black" points="1798.63,-252 1571.37,-252 1571.37,-216 1798.63,-216 1798.63,-252"/>
<text text-anchor="middle" x="1685" y="-229.8" font-family="Times,serif" font-size="14.00">DataTableCellFilterTmplComponent </text>
</g>
<!-- DataTableModule&#45;&gt;DataTableCellFilterTmplComponent  -->
<g id="edge30" class="edge"><title>DataTableModule&#45;&gt;DataTableCellFilterTmplComponent </title>
<path fill="none" stroke="black" stroke-dasharray="5,2" d="M1770.82,-187.106C1770.82,-187.106 1770.82,-205.991 1770.82,-205.991"/>
<polygon fill="black" stroke="black" points="1767.32,-205.991 1770.82,-215.991 1774.32,-205.991 1767.32,-205.991"/>
</g>
<!-- DataTableFootTmplComponent  -->
<g id="node32" class="node"><title>DataTableFootTmplComponent </title>
<polygon fill="#fb8072" stroke="black" points="1553.64,-252 1354.36,-252 1354.36,-216 1553.64,-216 1553.64,-252"/>
<text text-anchor="middle" x="1454" y="-229.8" font-family="Times,serif" font-size="14.00">DataTableFootTmplComponent </text>
</g>
<!-- DataTableModule&#45;&gt;DataTableFootTmplComponent  -->
<g id="edge31" class="edge"><title>DataTableModule&#45;&gt;DataTableFootTmplComponent </title>
<path fill="none" stroke="black" stroke-dasharray="5,2" d="M1742.86,-185C1665.57,-185 1539.93,-185 1539.93,-185 1539.93,-185 1539.93,-205.754 1539.93,-205.754"/>
<polygon fill="black" stroke="black" points="1536.43,-205.754 1539.93,-215.754 1543.43,-205.754 1536.43,-205.754"/>
</g>
<!-- DataTableFootComponent  -->
<g id="node33" class="node"><title>DataTableFootComponent </title>
<polygon fill="#fb8072" stroke="black" points="1336.3,-252 1167.7,-252 1167.7,-216 1336.3,-216 1336.3,-252"/>
<text text-anchor="middle" x="1252" y="-229.8" font-family="Times,serif" font-size="14.00">DataTableFootComponent </text>
</g>
<!-- DataTableModule&#45;&gt;DataTableFootComponent  -->
<g id="edge32" class="edge"><title>DataTableModule&#45;&gt;DataTableFootComponent </title>
<path fill="none" stroke="black" stroke-dasharray="5,2" d="M1743.14,-183C1615.75,-183 1325.88,-183 1325.88,-183 1325.88,-183 1325.88,-205.876 1325.88,-205.876"/>
<polygon fill="black" stroke="black" points="1322.38,-205.876 1325.88,-215.876 1329.38,-205.876 1322.38,-205.876"/>
</g>
<!-- DataTableTmplsComponent  -->
<g id="node34" class="node"><title>DataTableTmplsComponent </title>
<polygon fill="#fb8072" stroke="black" points="1149.41,-252 970.59,-252 970.59,-216 1149.41,-216 1149.41,-252"/>
<text text-anchor="middle" x="1060" y="-229.8" font-family="Times,serif" font-size="14.00">DataTableTmplsComponent </text>
</g>
<!-- DataTableModule&#45;&gt;DataTableTmplsComponent  -->
<g id="edge33" class="edge"><title>DataTableModule&#45;&gt;DataTableTmplsComponent </title>
<path fill="none" stroke="black" stroke-dasharray="5,2" d="M1743.06,-181C1580.52,-181 1137.85,-181 1137.85,-181 1137.85,-181 1137.85,-205.76 1137.85,-205.76"/>
<polygon fill="black" stroke="black" points="1134.35,-205.76 1137.85,-215.76 1141.35,-205.76 1134.35,-205.76"/>
</g>
<!-- DataTableCellTmplComponent  -->
<g id="node35" class="node"><title>DataTableCellTmplComponent </title>
<polygon fill="#fb8072" stroke="black" points="952.298,-252 755.702,-252 755.702,-216 952.298,-216 952.298,-252"/>
<text text-anchor="middle" x="854" y="-229.8" font-family="Times,serif" font-size="14.00">DataTableCellTmplComponent </text>
</g>
<!-- DataTableModule&#45;&gt;DataTableCellTmplComponent  -->
<g id="edge34" class="edge"><title>DataTableModule&#45;&gt;DataTableCellTmplComponent </title>
<path fill="none" stroke="black" stroke-dasharray="5,2" d="M1743.04,-179C1546.98,-179 929.24,-179 929.24,-179 929.24,-179 929.24,-205.991 929.24,-205.991"/>
<polygon fill="black" stroke="black" points="925.74,-205.991 929.24,-215.991 932.74,-205.991 925.74,-205.991"/>
</g>
<!-- DataTablePagerComponent  -->
<g id="node36" class="node"><title>DataTablePagerComponent </title>
<polygon fill="#fb8072" stroke="black" points="737.504,-252 562.496,-252 562.496,-216 737.504,-216 737.504,-252"/>
<text text-anchor="middle" x="650" y="-229.8" font-family="Times,serif" font-size="14.00">DataTablePagerComponent </text>
</g>
<!-- DataTableModule&#45;&gt;DataTablePagerComponent  -->
<g id="edge35" class="edge"><title>DataTableModule&#45;&gt;DataTablePagerComponent </title>
<path fill="none" stroke="black" stroke-dasharray="5,2" d="M1742.82,-177C1518.03,-177 729.732,-177 729.732,-177 729.732,-177 729.732,-205.965 729.732,-205.965"/>
<polygon fill="black" stroke="black" points="726.232,-205.965 729.732,-215.965 733.232,-205.965 726.232,-205.965"/>
</g>
<!-- DataTablePagerTmplComponent  -->
<g id="node37" class="node"><title>DataTablePagerTmplComponent </title>
<polygon fill="#fb8072" stroke="black" points="544.838,-252 339.162,-252 339.162,-216 544.838,-216 544.838,-252"/>
<text text-anchor="middle" x="442" y="-229.8" font-family="Times,serif" font-size="14.00">DataTablePagerTmplComponent </text>
</g>
<!-- DataTableModule&#45;&gt;DataTablePagerTmplComponent  -->
<g id="edge36" class="edge"><title>DataTableModule&#45;&gt;DataTablePagerTmplComponent </title>
<path fill="none" stroke="black" stroke-dasharray="5,2" d="M1743.08,-175C1490.13,-175 509.002,-175 509.002,-175 509.002,-175 509.002,-205.977 509.002,-205.977"/>
<polygon fill="black" stroke="black" points="505.502,-205.977 509.002,-215.977 512.502,-205.978 505.502,-205.977"/>
</g>
<!-- DataTableRowComponent  -->
<g id="node38" class="node"><title>DataTableRowComponent </title>
<polygon fill="#fb8072" stroke="black" points="321.575,-252 152.425,-252 152.425,-216 321.575,-216 321.575,-252"/>
<text text-anchor="middle" x="237" y="-229.8" font-family="Times,serif" font-size="14.00">DataTableRowComponent </text>
</g>
<!-- DataTableModule&#45;&gt;DataTableRowComponent  -->
<g id="edge37" class="edge"><title>DataTableModule&#45;&gt;DataTableRowComponent </title>
<path fill="none" stroke="black" stroke-dasharray="5,2" d="M1742.7,-173C1454.66,-173 215.39,-173 215.39,-173 215.39,-173 215.39,-205.698 215.39,-205.698"/>
<polygon fill="black" stroke="black" points="211.89,-205.698 215.39,-215.698 218.89,-205.698 211.89,-205.698"/>
</g>
<!-- CommonModule -->
<g id="node18" class="node"><title>CommonModule</title>
<polygon fill="#8dd3c7" stroke="black" points="697.668,-122 694.668,-126 673.668,-126 670.668,-122 586.332,-122 586.332,-86 697.668,-86 697.668,-122"/>
<text text-anchor="middle" x="642" y="-99.8" font-family="Times,serif" font-size="14.00">CommonModule</text>
</g>
<!-- CommonModule&#45;&gt;DataTableModule -->
<g id="edge17" class="edge"><title>CommonModule&#45;&gt;DataTableModule</title>
<path fill="none" stroke="black" d="M642,-122.023C642,-139.373 642,-163 642,-163 642,-163 1732.88,-163 1732.88,-163"/>
<polygon fill="black" stroke="black" points="1732.88,-166.5 1742.88,-163 1732.88,-159.5 1732.88,-166.5"/>
</g>
<!-- FormsModule -->
<g id="node19" class="node"><title>FormsModule</title>
<polygon fill="#8dd3c7" stroke="black" points="568.829,-122 565.829,-126 544.829,-126 541.829,-122 473.171,-122 473.171,-86 568.829,-86 568.829,-122"/>
<text text-anchor="middle" x="521" y="-99.8" font-family="Times,serif" font-size="14.00">FormsModule</text>
</g>
<!-- FormsModule&#45;&gt;DataTableModule -->
<g id="edge18" class="edge"><title>FormsModule&#45;&gt;DataTableModule</title>
<path fill="none" stroke="black" d="M553.583,-122.302C553.583,-140.27 553.583,-165 553.583,-165 553.583,-165 1733.04,-165 1733.04,-165"/>
<polygon fill="black" stroke="black" points="1733.04,-168.5 1743.04,-165 1733.04,-161.5 1733.04,-168.5"/>
</g>
<!-- PaginationModule -->
<g id="node20" class="node"><title>PaginationModule</title>
<polygon fill="#8dd3c7" stroke="black" points="455.934,-122 452.934,-126 431.934,-126 428.934,-122 336.066,-122 336.066,-86 455.934,-86 455.934,-122"/>
<text text-anchor="middle" x="396" y="-99.8" font-family="Times,serif" font-size="14.00">PaginationModule</text>
</g>
<!-- PaginationModule&#45;&gt;DataTableModule -->
<g id="edge19" class="edge"><title>PaginationModule&#45;&gt;DataTableModule</title>
<path fill="none" stroke="black" d="M397.524,-122.222C397.524,-140.829 397.524,-167 397.524,-167 397.524,-167 1732.99,-167 1732.99,-167"/>
<polygon fill="black" stroke="black" points="1732.99,-170.5 1742.99,-167 1732.99,-163.5 1732.99,-170.5"/>
</g>
<!-- RebirthCommonModule -->
<g id="node21" class="node"><title>RebirthCommonModule</title>
<polygon fill="#8dd3c7" stroke="black" points="317.661,-122 314.661,-126 293.661,-126 290.661,-122 164.339,-122 164.339,-86 317.661,-86 317.661,-122"/>
<text text-anchor="middle" x="241" y="-99.8" font-family="Times,serif" font-size="14.00">RebirthCommonModule</text>
</g>
<!-- RebirthCommonModule&#45;&gt;DataTableModule -->
<g id="edge20" class="edge"><title>RebirthCommonModule&#45;&gt;DataTableModule</title>
<path fill="none" stroke="black" d="M266.61,-122.106C266.61,-141.339 266.61,-169 266.61,-169 266.61,-169 1732.75,-169 1732.75,-169"/>
<polygon fill="black" stroke="black" points="1732.75,-172.5 1742.75,-169 1732.75,-165.5 1732.75,-172.5"/>
</g>
<!-- DatePickerModule -->
<g id="node22" class="node"><title>DatePickerModule</title>
<polygon fill="#8dd3c7" stroke="black" points="145.739,-122 142.739,-126 121.739,-126 118.739,-122 24.2605,-122 24.2605,-86 145.739,-86 145.739,-122"/>
<text text-anchor="middle" x="85" y="-99.8" font-family="Times,serif" font-size="14.00">DatePickerModule</text>
</g>
<!-- DatePickerModule&#45;&gt;DataTableModule -->
<g id="edge21" class="edge"><title>DatePickerModule&#45;&gt;DataTableModule</title>
<path fill="none" stroke="black" d="M85,-122.308C85,-142.146 85,-171 85,-171 85,-171 1732.9,-171 1732.9,-171"/>
<polygon fill="black" stroke="black" points="1732.9,-174.5 1742.9,-171 1732.9,-167.5 1732.9,-174.5"/>
</g>
</g>
</svg>
