<?xml version="1.0" encoding="UTF-8" standalone="no"?>
<!DOCTYPE svg PUBLIC "-//W3C//DTD SVG 1.1//EN"
 "http://www.w3.org/Graphics/SVG/1.1/DTD/svg11.dtd">
<!-- Generated by graphviz version 2.40.1 (20161225.0304)
 -->
<!-- Title: dependencies Pages: 1 -->
<svg width="4012pt" height="284pt"
 viewBox="0.00 0.00 4012.00 284.00" xmlns="http://www.w3.org/2000/svg" xmlns:xlink="http://www.w3.org/1999/xlink">
<g id="graph0" class="graph" transform="scale(1 1) rotate(0) translate(4 280)">
<title>dependencies</title>
<polygon fill="#ffffff" stroke="transparent" points="-4,4 -4,-280 4008,-280 4008,4 -4,4"/>
<text text-anchor="start" x="1981.0091" y="-42.4" font-family="sans-serif" font-weight="bold" font-size="14.00" fill="#000000">Legend</text>
<polygon fill="#ffffb3" stroke="transparent" points="1768,-10 1768,-30 1788,-30 1788,-10 1768,-10"/>
<text text-anchor="start" x="1791.629" y="-15.4" font-family="sans-serif" font-size="14.00" fill="#000000"> &#160;Declarations</text>
<polygon fill="#8dd3c7" stroke="transparent" points="1881,-10 1881,-30 1901,-30 1901,-10 1881,-10"/>
<text text-anchor="start" x="1904.7251" y="-15.4" font-family="sans-serif" font-size="14.00" fill="#000000"> &#160;Module</text>
<polygon fill="#80b1d3" stroke="transparent" points="1967,-10 1967,-30 1987,-30 1987,-10 1967,-10"/>
<text text-anchor="start" x="1990.7812" y="-15.4" font-family="sans-serif" font-size="14.00" fill="#000000"> &#160;Bootstrap</text>
<polygon fill="#fdb462" stroke="transparent" points="2064,-10 2064,-30 2084,-30 2084,-10 2064,-10"/>
<text text-anchor="start" x="2087.6732" y="-15.4" font-family="sans-serif" font-size="14.00" fill="#000000"> &#160;Providers</text>
<polygon fill="#fb8072" stroke="transparent" points="2160,-10 2160,-30 2180,-30 2180,-10 2160,-10"/>
<text text-anchor="start" x="2183.7258" y="-15.4" font-family="sans-serif" font-size="14.00" fill="#000000"> &#160;Exports</text>
<g id="clust1" class="cluster">
<title>cluster_DataTableModule</title>
<polygon fill="none" stroke="#000000" stroke-dasharray="1,5" points="8,-70 8,-268 3996,-268 3996,-70 8,-70"/>
</g>
<g id="clust2" class="cluster">
<title>cluster_DataTableModule_declarations</title>
<polygon fill="none" stroke="#000000" points="714,-78 714,-130 3988,-130 3988,-78 714,-78"/>
</g>
<g id="clust19" class="cluster">
<title>cluster_DataTableModule_imports</title>
<polygon fill="none" stroke="#000000" points="16,-78 16,-130 706,-130 706,-78 16,-78"/>
</g>
<g id="clust20" class="cluster">
<title>cluster_DataTableModule_exports</title>
<polygon fill="none" stroke="#000000" points="145,-208 145,-260 3478,-260 3478,-208 145,-208"/>
</g>
<!-- DataTableComponent -->
<g id="node1" class="node">
<title>DataTableComponent</title>
<polygon fill="#ffffb3" stroke="#000000" points="3979.6317,-122 3840.3683,-122 3840.3683,-86 3979.6317,-86 3979.6317,-122"/>
<text text-anchor="middle" x="3910" y="-99.8" font-family="Times,serif" font-size="14.00" fill="#000000">DataTableComponent</text>
</g>
<!-- DataTableModule -->
<g id="node17" class="node">
<title>DataTableModule</title>
<polygon fill="#8dd3c7" stroke="#000000" points="1860.8487,-187 1857.8487,-191 1836.8487,-191 1833.8487,-187 1743.1513,-187 1743.1513,-151 1860.8487,-151 1860.8487,-187"/>
<text text-anchor="middle" x="1802" y="-164.8" font-family="Times,serif" font-size="14.00" fill="#000000">DataTableModule</text>
</g>
<!-- DataTableComponent&#45;&gt;DataTableModule -->
<g id="edge1" class="edge">
<title>DataTableComponent&#45;&gt;DataTableModule</title>
<path fill="none" stroke="#000000" d="M3910,-122.308C3910,-142.1455 3910,-171 3910,-171 3910,-171 1870.8574,-171 1870.8574,-171"/>
<polygon fill="#000000" stroke="#000000" points="1870.8574,-167.5001 1860.8574,-171 1870.8573,-174.5001 1870.8574,-167.5001"/>
</g>
<!-- DataTableColumnTmplComponent -->
<g id="node2" class="node">
<title>DataTableColumnTmplComponent</title>
<polygon fill="#ffffb3" stroke="#000000" points="3822.5828,-122 3607.4172,-122 3607.4172,-86 3822.5828,-86 3822.5828,-122"/>
<text text-anchor="middle" x="3715" y="-99.8" font-family="Times,serif" font-size="14.00" fill="#000000">DataTableColumnTmplComponent</text>
</g>
<!-- DataTableColumnTmplComponent&#45;&gt;DataTableModule -->
<g id="edge2" class="edge">
<title>DataTableColumnTmplComponent&#45;&gt;DataTableModule</title>
<path fill="none" stroke="#000000" d="M3715,-122.1061C3715,-141.3391 3715,-169 3715,-169 3715,-169 1871.0859,-169 1871.0859,-169"/>
<polygon fill="#000000" stroke="#000000" points="1871.0859,-165.5001 1861.0859,-169 1871.0859,-172.5001 1871.0859,-165.5001"/>
</g>
<!-- DataTableCellViewTmplComponent -->
<g id="node3" class="node">
<title>DataTableCellViewTmplComponent</title>
<polygon fill="#ffffb3" stroke="#000000" points="3589.6161,-122 3366.3839,-122 3366.3839,-86 3589.6161,-86 3589.6161,-122"/>
<text text-anchor="middle" x="3478" y="-99.8" font-family="Times,serif" font-size="14.00" fill="#000000">DataTableCellViewTmplComponent</text>
</g>
<!-- DataTableCellViewTmplComponent&#45;&gt;DataTableModule -->
<g id="edge3" class="edge">
<title>DataTableCellViewTmplComponent&#45;&gt;DataTableModule</title>
<path fill="none" stroke="#000000" d="M3417.8789,-122.2222C3417.8789,-140.8285 3417.8789,-167 3417.8789,-167 3417.8789,-167 1870.9446,-167 1870.9446,-167"/>
<polygon fill="#000000" stroke="#000000" points="1870.9446,-163.5001 1860.9446,-167 1870.9446,-170.5001 1870.9446,-163.5001"/>
</g>
<!-- DataTableCellEditTmplComponent -->
<g id="node4" class="node">
<title>DataTableCellEditTmplComponent</title>
<polygon fill="#ffffb3" stroke="#000000" points="3348.1315,-122 3131.8685,-122 3131.8685,-86 3348.1315,-86 3348.1315,-122"/>
<text text-anchor="middle" x="3240" y="-99.8" font-family="Times,serif" font-size="14.00" fill="#000000">DataTableCellEditTmplComponent</text>
</g>
<!-- DataTableCellEditTmplComponent&#45;&gt;DataTableModule -->
<g id="edge4" class="edge">
<title>DataTableCellEditTmplComponent&#45;&gt;DataTableModule</title>
<path fill="none" stroke="#000000" d="M3219.9879,-122.302C3219.9879,-140.2699 3219.9879,-165 3219.9879,-165 3219.9879,-165 1871.1239,-165 1871.1239,-165"/>
<polygon fill="#000000" stroke="#000000" points="1871.1239,-161.5001 1861.1239,-165 1871.1238,-168.5001 1871.1239,-161.5001"/>
</g>
<!-- DataTableBodyComponent -->
<g id="node5" class="node">
<title>DataTableBodyComponent</title>
<polygon fill="#ffffb3" stroke="#000000" points="3113.9678,-122 2944.0322,-122 2944.0322,-86 3113.9678,-86 3113.9678,-122"/>
<text text-anchor="middle" x="3029" y="-99.8" font-family="Times,serif" font-size="14.00" fill="#000000">DataTableBodyComponent</text>
</g>
<!-- DataTableBodyComponent&#45;&gt;DataTableModule -->
<g id="edge5" class="edge">
<title>DataTableBodyComponent&#45;&gt;DataTableModule</title>
<path fill="none" stroke="#000000" d="M3007.787,-122.0225C3007.787,-139.3734 3007.787,-163 3007.787,-163 3007.787,-163 1870.9739,-163 1870.9739,-163"/>
<polygon fill="#000000" stroke="#000000" points="1870.9739,-159.5001 1860.9739,-163 1870.9738,-166.5001 1870.9739,-159.5001"/>
</g>
<!-- DataTableHeadComponent -->
<g id="node6" class="node">
<title>DataTableHeadComponent</title>
<polygon fill="#ffffb3" stroke="#000000" points="2925.6671,-122 2756.3329,-122 2756.3329,-86 2925.6671,-86 2925.6671,-122"/>
<text text-anchor="middle" x="2841" y="-99.8" font-family="Times,serif" font-size="14.00" fill="#000000">DataTableHeadComponent</text>
</g>
<!-- DataTableHeadComponent&#45;&gt;DataTableModule -->
<g id="edge6" class="edge">
<title>DataTableHeadComponent&#45;&gt;DataTableModule</title>
<path fill="none" stroke="#000000" d="M2791.241,-122.0352C2791.241,-138.7344 2791.241,-161 2791.241,-161 2791.241,-161 1870.919,-161 1870.919,-161"/>
<polygon fill="#000000" stroke="#000000" points="1870.9191,-157.5001 1860.919,-161 1870.919,-164.5001 1870.9191,-157.5001"/>
</g>
<!-- DataTableCellComponent -->
<g id="node7" class="node">
<title>DataTableCellComponent</title>
<polygon fill="#ffffb3" stroke="#000000" points="2738.4636,-122 2575.5364,-122 2575.5364,-86 2738.4636,-86 2738.4636,-122"/>
<text text-anchor="middle" x="2657" y="-99.8" font-family="Times,serif" font-size="14.00" fill="#000000">DataTableCellComponent</text>
</g>
<!-- DataTableCellComponent&#45;&gt;DataTableModule -->
<g id="edge7" class="edge">
<title>DataTableCellComponent&#45;&gt;DataTableModule</title>
<path fill="none" stroke="#000000" d="M2581.6261,-122.0091C2581.6261,-138.0494 2581.6261,-159 2581.6261,-159 2581.6261,-159 1870.9182,-159 1870.9182,-159"/>
<polygon fill="#000000" stroke="#000000" points="1870.9183,-155.5001 1860.9182,-159 1870.9182,-162.5001 1870.9183,-155.5001"/>
</g>
<!-- DataTableHeadTmplComponent -->
<g id="node8" class="node">
<title>DataTableHeadTmplComponent</title>
<polygon fill="#ffffb3" stroke="#000000" points="2557.5014,-122 2358.4986,-122 2358.4986,-86 2557.5014,-86 2557.5014,-122"/>
<text text-anchor="middle" x="2458" y="-99.8" font-family="Times,serif" font-size="14.00" fill="#000000">DataTableHeadTmplComponent</text>
</g>
<!-- DataTableHeadTmplComponent&#45;&gt;DataTableModule -->
<g id="edge8" class="edge">
<title>DataTableHeadTmplComponent&#45;&gt;DataTableModule</title>
<path fill="none" stroke="#000000" d="M2377.2916,-122.2396C2377.2916,-137.5706 2377.2916,-157 2377.2916,-157 2377.2916,-157 1870.8627,-157 1870.8627,-157"/>
<polygon fill="#000000" stroke="#000000" points="1870.8628,-153.5001 1860.8627,-157 1870.8627,-160.5001 1870.8628,-153.5001"/>
</g>
<!-- DataTableCellFilterTmplComponent -->
<g id="node9" class="node">
<title>DataTableCellFilterTmplComponent</title>
<polygon fill="#ffffb3" stroke="#000000" points="2339.6273,-122 2116.3727,-122 2116.3727,-86 2339.6273,-86 2339.6273,-122"/>
<text text-anchor="middle" x="2228" y="-99.8" font-family="Times,serif" font-size="14.00" fill="#000000">DataTableCellFilterTmplComponent</text>
</g>
<!-- DataTableCellFilterTmplComponent&#45;&gt;DataTableModule -->
<g id="edge9" class="edge">
<title>DataTableCellFilterTmplComponent&#45;&gt;DataTableModule</title>
<path fill="none" stroke="#000000" d="M2160.7092,-122.1243C2160.7092,-136.7832 2160.7092,-155 2160.7092,-155 2160.7092,-155 1871.2335,-155 1871.2335,-155"/>
<polygon fill="#000000" stroke="#000000" points="1871.2336,-151.5001 1861.2335,-155 1871.2335,-158.5001 1871.2336,-151.5001"/>
</g>
<!-- DataTableFootTmplComponent -->
<g id="node10" class="node">
<title>DataTableFootTmplComponent</title>
<polygon fill="#ffffb3" stroke="#000000" points="2097.6385,-122 1902.3615,-122 1902.3615,-86 2097.6385,-86 2097.6385,-122"/>
<text text-anchor="middle" x="2000" y="-99.8" font-family="Times,serif" font-size="14.00" fill="#000000">DataTableFootTmplComponent</text>
</g>
<!-- DataTableFootTmplComponent&#45;&gt;DataTableModule -->
<g id="edge10" class="edge">
<title>DataTableFootTmplComponent&#45;&gt;DataTableModule</title>
<path fill="none" stroke="#000000" d="M1961.3407,-122.2458C1961.3407,-136.1772 1961.3407,-153 1961.3407,-153 1961.3407,-153 1870.8799,-153 1870.8799,-153"/>
<polygon fill="#000000" stroke="#000000" points="1870.8799,-149.5001 1860.8799,-153 1870.8798,-156.5001 1870.8799,-149.5001"/>
</g>
<!-- DataTableFootComponent -->
<g id="node11" class="node">
<title>DataTableFootComponent</title>
<polygon fill="#ffffb3" stroke="#000000" points="1884.8047,-122 1719.1953,-122 1719.1953,-86 1884.8047,-86 1884.8047,-122"/>
<text text-anchor="middle" x="1802" y="-99.8" font-family="Times,serif" font-size="14.00" fill="#000000">DataTableFootComponent</text>
</g>
<!-- DataTableFootComponent&#45;&gt;DataTableModule -->
<g id="edge11" class="edge">
<title>DataTableFootComponent&#45;&gt;DataTableModule</title>
<path fill="none" stroke="#000000" d="M1802,-122.1061C1802,-122.1061 1802,-140.991 1802,-140.991"/>
<polygon fill="#000000" stroke="#000000" points="1798.5001,-140.9909 1802,-150.991 1805.5001,-140.991 1798.5001,-140.9909"/>
</g>
<!-- DataTableTmplsComponent -->
<g id="node12" class="node">
<title>DataTableTmplsComponent</title>
<polygon fill="#ffffb3" stroke="#000000" points="1701.9101,-122 1526.0899,-122 1526.0899,-86 1701.9101,-86 1701.9101,-122"/>
<text text-anchor="middle" x="1614" y="-99.8" font-family="Times,serif" font-size="14.00" fill="#000000">DataTableTmplsComponent</text>
</g>
<!-- DataTableTmplsComponent&#45;&gt;DataTableModule -->
<g id="edge12" class="edge">
<title>DataTableTmplsComponent&#45;&gt;DataTableModule</title>
<path fill="none" stroke="#000000" d="M1637.0707,-122.2458C1637.0707,-136.1772 1637.0707,-153 1637.0707,-153 1637.0707,-153 1732.9226,-153 1732.9226,-153"/>
<polygon fill="#000000" stroke="#000000" points="1732.9226,-156.5001 1742.9226,-153 1732.9225,-149.5001 1732.9226,-156.5001"/>
</g>
<!-- DataTableCellTmplComponent -->
<g id="node13" class="node">
<title>DataTableCellTmplComponent</title>
<polygon fill="#ffffb3" stroke="#000000" points="1508.7976,-122 1315.2024,-122 1315.2024,-86 1508.7976,-86 1508.7976,-122"/>
<text text-anchor="middle" x="1412" y="-99.8" font-family="Times,serif" font-size="14.00" fill="#000000">DataTableCellTmplComponent</text>
</g>
<!-- DataTableCellTmplComponent&#45;&gt;DataTableModule -->
<g id="edge13" class="edge">
<title>DataTableCellTmplComponent&#45;&gt;DataTableModule</title>
<path fill="none" stroke="#000000" d="M1432.0398,-122.1243C1432.0398,-136.7832 1432.0398,-155 1432.0398,-155 1432.0398,-155 1732.9696,-155 1732.9696,-155"/>
<polygon fill="#000000" stroke="#000000" points="1732.9697,-158.5001 1742.9696,-155 1732.9696,-151.5001 1732.9697,-158.5001"/>
</g>
<!-- DataTablePagerComponent -->
<g id="node14" class="node">
<title>DataTablePagerComponent</title>
<polygon fill="#ffffb3" stroke="#000000" points="1297.5043,-122 1126.4957,-122 1126.4957,-86 1297.5043,-86 1297.5043,-122"/>
<text text-anchor="middle" x="1212" y="-99.8" font-family="Times,serif" font-size="14.00" fill="#000000">DataTablePagerComponent</text>
</g>
<!-- DataTablePagerComponent&#45;&gt;DataTableModule -->
<g id="edge14" class="edge">
<title>DataTablePagerComponent&#45;&gt;DataTableModule</title>
<path fill="none" stroke="#000000" d="M1233.1748,-122.2396C1233.1748,-137.5706 1233.1748,-157 1233.1748,-157 1233.1748,-157 1733.0021,-157 1733.0021,-157"/>
<polygon fill="#000000" stroke="#000000" points="1733.0021,-160.5001 1743.0021,-157 1733.002,-153.5001 1733.0021,-160.5001"/>
</g>
<!-- DataTablePagerTmplComponent -->
<g id="node15" class="node">
<title>DataTablePagerTmplComponent</title>
<polygon fill="#ffffb3" stroke="#000000" points="1107.8375,-122 906.1625,-122 906.1625,-86 1107.8375,-86 1107.8375,-122"/>
<text text-anchor="middle" x="1007" y="-99.8" font-family="Times,serif" font-size="14.00" fill="#000000">DataTablePagerTmplComponent</text>
</g>
<!-- DataTablePagerTmplComponent&#45;&gt;DataTableModule -->
<g id="edge15" class="edge">
<title>DataTablePagerTmplComponent&#45;&gt;DataTableModule</title>
<path fill="none" stroke="#000000" d="M1039.7319,-122.0091C1039.7319,-138.0494 1039.7319,-159 1039.7319,-159 1039.7319,-159 1733.1365,-159 1733.1365,-159"/>
<polygon fill="#000000" stroke="#000000" points="1733.1365,-162.5001 1743.1365,-159 1733.1364,-155.5001 1733.1365,-162.5001"/>
</g>
<!-- DataTableRowComponent -->
<g id="node16" class="node">
<title>DataTableRowComponent</title>
<polygon fill="#ffffb3" stroke="#000000" points="888.0744,-122 721.9256,-122 721.9256,-86 888.0744,-86 888.0744,-122"/>
<text text-anchor="middle" x="805" y="-99.8" font-family="Times,serif" font-size="14.00" fill="#000000">DataTableRowComponent</text>
</g>
<!-- DataTableRowComponent&#45;&gt;DataTableModule -->
<g id="edge16" class="edge">
<title>DataTableRowComponent&#45;&gt;DataTableModule</title>
<path fill="none" stroke="#000000" d="M822.3193,-122.0352C822.3193,-138.7344 822.3193,-161 822.3193,-161 822.3193,-161 1732.9228,-161 1732.9228,-161"/>
<polygon fill="#000000" stroke="#000000" points="1732.9229,-164.5001 1742.9228,-161 1732.9228,-157.5001 1732.9229,-164.5001"/>
</g>
<!-- DataTableComponent  -->
<g id="node23" class="node">
<title>DataTableComponent </title>
<polygon fill="#fb8072" stroke="#000000" points="3469.6313,-252 3326.3687,-252 3326.3687,-216 3469.6313,-216 3469.6313,-252"/>
<text text-anchor="middle" x="3398" y="-229.8" font-family="Times,serif" font-size="14.00" fill="#000000">DataTableComponent </text>
</g>
<!-- DataTableModule&#45;&gt;DataTableComponent  -->
<g id="edge22" class="edge">
<title>DataTableModule&#45;&gt;DataTableComponent </title>
<path fill="none" stroke="#000000" stroke-dasharray="5,2" d="M1861.2477,-173C2143.4142,-173 3337.375,-173 3337.375,-173 3337.375,-173 3337.375,-205.698 3337.375,-205.698"/>
<polygon fill="#000000" stroke="#000000" points="3333.8751,-205.698 3337.375,-215.698 3340.8751,-205.698 3333.8751,-205.698"/>
</g>
<!-- DataTableColumnTmplComponent  -->
<g id="node24" class="node">
<title>DataTableColumnTmplComponent </title>
<polygon fill="#fb8072" stroke="#000000" points="3308.0832,-252 3089.9168,-252 3089.9168,-216 3308.0832,-216 3308.0832,-252"/>
<text text-anchor="middle" x="3199" y="-229.8" font-family="Times,serif" font-size="14.00" fill="#000000">DataTableColumnTmplComponent </text>
</g>
<!-- DataTableModule&#45;&gt;DataTableColumnTmplComponent  -->
<g id="edge23" class="edge">
<title>DataTableModule&#45;&gt;DataTableColumnTmplComponent </title>
<path fill="none" stroke="#000000" stroke-dasharray="5,2" d="M1861.2294,-175C2115.5173,-175 3101.8463,-175 3101.8463,-175 3101.8463,-175 3101.8463,-205.9775 3101.8463,-205.9775"/>
<polygon fill="#000000" stroke="#000000" points="3098.3463,-205.9774 3101.8463,-215.9775 3105.3463,-205.9775 3098.3463,-205.9774"/>
</g>
<!-- DataTableCellViewTmplComponent  -->
<g id="node25" class="node">
<title>DataTableCellViewTmplComponent </title>
<polygon fill="#fb8072" stroke="#000000" points="3071.6158,-252 2844.3842,-252 2844.3842,-216 3071.6158,-216 3071.6158,-252"/>
<text text-anchor="middle" x="2958" y="-229.8" font-family="Times,serif" font-size="14.00" fill="#000000">DataTableCellViewTmplComponent </text>
</g>
<!-- DataTableModule&#45;&gt;DataTableCellViewTmplComponent  -->
<g id="edge24" class="edge">
<title>DataTableModule&#45;&gt;DataTableCellViewTmplComponent </title>
<path fill="none" stroke="#000000" stroke-dasharray="5,2" d="M1860.9966,-177C2086.9971,-177 2885.0128,-177 2885.0128,-177 2885.0128,-177 2885.0128,-205.9648 2885.0128,-205.9648"/>
<polygon fill="#000000" stroke="#000000" points="2881.5129,-205.9648 2885.0128,-215.9648 2888.5129,-205.9649 2881.5129,-205.9648"/>
</g>
<!-- DataTableCellEditTmplComponent  -->
<g id="node26" class="node">
<title>DataTableCellEditTmplComponent </title>
<polygon fill="#fb8072" stroke="#000000" points="2826.1312,-252 2605.8688,-252 2605.8688,-216 2826.1312,-216 2826.1312,-252"/>
<text text-anchor="middle" x="2716" y="-229.8" font-family="Times,serif" font-size="14.00" fill="#000000">DataTableCellEditTmplComponent </text>
</g>
<!-- DataTableModule&#45;&gt;DataTableCellEditTmplComponent  -->
<g id="edge25" class="edge">
<title>DataTableModule&#45;&gt;DataTableCellEditTmplComponent </title>
<path fill="none" stroke="#000000" stroke-dasharray="5,2" d="M1861.1288,-179C2056.9894,-179 2672.2081,-179 2672.2081,-179 2672.2081,-179 2672.2081,-205.9909 2672.2081,-205.9909"/>
<polygon fill="#000000" stroke="#000000" points="2668.7082,-205.9909 2672.2081,-215.9909 2675.7082,-205.991 2668.7082,-205.9909"/>
</g>
<!-- DataTableBodyComponent  -->
<g id="node27" class="node">
<title>DataTableBodyComponent </title>
<polygon fill="#fb8072" stroke="#000000" points="2587.9684,-252 2414.0316,-252 2414.0316,-216 2587.9684,-216 2587.9684,-252"/>
<text text-anchor="middle" x="2501" y="-229.8" font-family="Times,serif" font-size="14.00" fill="#000000">DataTableBodyComponent </text>
</g>
<!-- DataTableModule&#45;&gt;DataTableBodyComponent  -->
<g id="edge26" class="edge">
<title>DataTableModule&#45;&gt;DataTableBodyComponent </title>
<path fill="none" stroke="#000000" stroke-dasharray="5,2" d="M1860.9102,-181C2026.8257,-181 2486.0083,-181 2486.0083,-181 2486.0083,-181 2486.0083,-205.7604 2486.0083,-205.7604"/>
<polygon fill="#000000" stroke="#000000" points="2482.5083,-205.7604 2486.0083,-215.7604 2489.5083,-205.7604 2482.5083,-205.7604"/>
</g>
<!-- DataTableHeadComponent  -->
<g id="node28" class="node">
<title>DataTableHeadComponent </title>
<polygon fill="#fb8072" stroke="#000000" points="2396.1673,-252 2223.8327,-252 2223.8327,-216 2396.1673,-216 2396.1673,-252"/>
<text text-anchor="middle" x="2310" y="-229.8" font-family="Times,serif" font-size="14.00" fill="#000000">DataTableHeadComponent </text>
</g>
<!-- DataTableModule&#45;&gt;DataTableHeadComponent  -->
<g id="edge27" class="edge">
<title>DataTableModule&#45;&gt;DataTableHeadComponent </title>
<path fill="none" stroke="#000000" stroke-dasharray="5,2" d="M1861.3067,-183C1989.6615,-183 2281.74,-183 2281.74,-183 2281.74,-183 2281.74,-205.8757 2281.74,-205.8757"/>
<polygon fill="#000000" stroke="#000000" points="2278.2401,-205.8757 2281.74,-215.8757 2285.2401,-205.8757 2278.2401,-205.8757"/>
</g>
<!-- DataTableCellComponent  -->
<g id="node29" class="node">
<title>DataTableCellComponent </title>
<polygon fill="#fb8072" stroke="#000000" points="2205.4642,-252 2038.5358,-252 2038.5358,-216 2205.4642,-216 2205.4642,-252"/>
<text text-anchor="middle" x="2122" y="-229.8" font-family="Times,serif" font-size="14.00" fill="#000000">DataTableCellComponent </text>
</g>
<!-- DataTableModule&#45;&gt;DataTableCellComponent  -->
<g id="edge28" class="edge">
<title>DataTableModule&#45;&gt;DataTableCellComponent </title>
<path fill="none" stroke="#000000" stroke-dasharray="5,2" d="M1861.0992,-185C1939.5515,-185 2068.2937,-185 2068.2937,-185 2068.2937,-185 2068.2937,-205.7542 2068.2937,-205.7542"/>
<polygon fill="#000000" stroke="#000000" points="2064.7937,-205.7542 2068.2937,-215.7542 2071.7937,-205.7542 2064.7937,-205.7542"/>
</g>
<!-- DataTableHeadTmplComponent  -->
<g id="node30" class="node">
<title>DataTableHeadTmplComponent </title>
<polygon fill="#fb8072" stroke="#000000" points="2020.5008,-252 1817.4992,-252 1817.4992,-216 2020.5008,-216 2020.5008,-252"/>
<text text-anchor="middle" x="1919" y="-229.8" font-family="Times,serif" font-size="14.00" fill="#000000">DataTableHeadTmplComponent </text>
</g>
<!-- DataTableModule&#45;&gt;DataTableHeadTmplComponent  -->
<g id="edge29" class="edge">
<title>DataTableModule&#45;&gt;DataTableHeadTmplComponent </title>
<path fill="none" stroke="#000000" stroke-dasharray="5,2" d="M1839.212,-187.1061C1839.212,-187.1061 1839.212,-205.991 1839.212,-205.991"/>
<polygon fill="#000000" stroke="#000000" points="1835.712,-205.9909 1839.212,-215.991 1842.712,-205.991 1835.712,-205.9909"/>
</g>
<!-- DataTableCellFilterTmplComponent  -->
<g id="node31" class="node">
<title>DataTableCellFilterTmplComponent </title>
<polygon fill="#fb8072" stroke="#000000" points="1799.627,-252 1572.373,-252 1572.373,-216 1799.627,-216 1799.627,-252"/>
<text text-anchor="middle" x="1686" y="-229.8" font-family="Times,serif" font-size="14.00" fill="#000000">DataTableCellFilterTmplComponent </text>
</g>
<!-- DataTableModule&#45;&gt;DataTableCellFilterTmplComponent  -->
<g id="edge30" class="edge">
<title>DataTableModule&#45;&gt;DataTableCellFilterTmplComponent </title>
<path fill="none" stroke="#000000" stroke-dasharray="5,2" d="M1771.3196,-187.1061C1771.3196,-187.1061 1771.3196,-205.991 1771.3196,-205.991"/>
<polygon fill="#000000" stroke="#000000" points="1767.8197,-205.9909 1771.3196,-215.991 1774.8197,-205.991 1767.8197,-205.9909"/>
</g>
<!-- DataTableFootTmplComponent  -->
<g id="node32" class="node">
<title>DataTableFootTmplComponent </title>
<polygon fill="#fb8072" stroke="#000000" points="1554.6382,-252 1355.3618,-252 1355.3618,-216 1554.6382,-216 1554.6382,-252"/>
<text text-anchor="middle" x="1455" y="-229.8" font-family="Times,serif" font-size="14.00" fill="#000000">DataTableFootTmplComponent </text>
</g>
<!-- DataTableModule&#45;&gt;DataTableFootTmplComponent  -->
<g id="edge31" class="edge">
<title>DataTableModule&#45;&gt;DataTableFootTmplComponent </title>
<path fill="none" stroke="#000000" stroke-dasharray="5,2" d="M1742.9729,-185C1665.8262,-185 1540.4322,-185 1540.4322,-185 1540.4322,-185 1540.4322,-205.7542 1540.4322,-205.7542"/>
<polygon fill="#000000" stroke="#000000" points="1536.9322,-205.7542 1540.4322,-215.7542 1543.9322,-205.7542 1536.9322,-205.7542"/>
</g>
<!-- DataTableFootComponent  -->
<g id="node33" class="node">
<title>DataTableFootComponent </title>
<polygon fill="#fb8072" stroke="#000000" points="1337.3045,-252 1168.6955,-252 1168.6955,-216 1337.3045,-216 1337.3045,-252"/>
<text text-anchor="middle" x="1253" y="-229.8" font-family="Times,serif" font-size="14.00" fill="#000000">DataTableFootComponent </text>
</g>
<!-- DataTableModule&#45;&gt;DataTableFootComponent  -->
<g id="edge32" class="edge">
<title>DataTableModule&#45;&gt;DataTableFootComponent </title>
<path fill="none" stroke="#000000" stroke-dasharray="5,2" d="M1742.7237,-183C1615.2245,-183 1326.3767,-183 1326.3767,-183 1326.3767,-183 1326.3767,-205.8757 1326.3767,-205.8757"/>
<polygon fill="#000000" stroke="#000000" points="1322.8768,-205.8757 1326.3767,-215.8757 1329.8768,-205.8757 1322.8768,-205.8757"/>
</g>
<!-- DataTableTmplsComponent  -->
<g id="node34" class="node">
<title>DataTableTmplsComponent </title>
<polygon fill="#fb8072" stroke="#000000" points="1150.4096,-252 971.5904,-252 971.5904,-216 1150.4096,-216 1150.4096,-252"/>
<text text-anchor="middle" x="1061" y="-229.8" font-family="Times,serif" font-size="14.00" fill="#000000">DataTableTmplsComponent </text>
</g>
<!-- DataTableModule&#45;&gt;DataTableTmplsComponent  -->
<g id="edge33" class="edge">
<title>DataTableModule&#45;&gt;DataTableTmplsComponent </title>
<path fill="none" stroke="#000000" stroke-dasharray="5,2" d="M1743.1056,-181C1580.6859,-181 1138.3515,-181 1138.3515,-181 1138.3515,-181 1138.3515,-205.7604 1138.3515,-205.7604"/>
<polygon fill="#000000" stroke="#000000" points="1134.8516,-205.7604 1138.3515,-215.7604 1141.8516,-205.7604 1134.8516,-205.7604"/>
</g>
<!-- DataTableCellTmplComponent  -->
<g id="node35" class="node">
<title>DataTableCellTmplComponent </title>
<polygon fill="#fb8072" stroke="#000000" points="953.2975,-252 756.7025,-252 756.7025,-216 953.2975,-216 953.2975,-252"/>
<text text-anchor="middle" x="855" y="-229.8" font-family="Times,serif" font-size="14.00" fill="#000000">DataTableCellTmplComponent </text>
</g>
<!-- DataTableModule&#45;&gt;DataTableCellTmplComponent  -->
<g id="edge34" class="edge">
<title>DataTableModule&#45;&gt;DataTableCellTmplComponent </title>
<path fill="none" stroke="#000000" stroke-dasharray="5,2" d="M1743.0734,-179C1547.1258,-179 929.74,-179 929.74,-179 929.74,-179 929.74,-205.9909 929.74,-205.9909"/>
<polygon fill="#000000" stroke="#000000" points="926.2401,-205.9909 929.74,-215.9909 933.2401,-205.991 926.2401,-205.9909"/>
</g>
<!-- DataTablePagerComponent  -->
<g id="node36" class="node">
<title>DataTablePagerComponent </title>
<polygon fill="#fb8072" stroke="#000000" points="738.5036,-252 563.4964,-252 563.4964,-216 738.5036,-216 738.5036,-252"/>
<text text-anchor="middle" x="651" y="-229.8" font-family="Times,serif" font-size="14.00" fill="#000000">DataTablePagerComponent </text>
</g>
<!-- DataTableModule&#45;&gt;DataTablePagerComponent  -->
<g id="edge35" class="edge">
<title>DataTableModule&#45;&gt;DataTablePagerComponent </title>
<path fill="none" stroke="#000000" stroke-dasharray="5,2" d="M1742.8505,-177C1518.1662,-177 730.2323,-177 730.2323,-177 730.2323,-177 730.2323,-205.9648 730.2323,-205.9648"/>
<polygon fill="#000000" stroke="#000000" points="726.7324,-205.9648 730.2323,-215.9648 733.7324,-205.9649 726.7324,-205.9648"/>
</g>
<!-- DataTablePagerTmplComponent  -->
<g id="node37" class="node">
<title>DataTablePagerTmplComponent </title>
<polygon fill="#fb8072" stroke="#000000" points="545.8377,-252 340.1623,-252 340.1623,-216 545.8377,-216 545.8377,-252"/>
<text text-anchor="middle" x="443" y="-229.8" font-family="Times,serif" font-size="14.00" fill="#000000">DataTablePagerTmplComponent </text>
</g>
<!-- DataTableModule&#45;&gt;DataTablePagerTmplComponent  -->
<g id="edge36" class="edge">
<title>DataTableModule&#45;&gt;DataTablePagerTmplComponent </title>
<path fill="none" stroke="#000000" stroke-dasharray="5,2" d="M1743.1055,-175C1490.2551,-175 509.5023,-175 509.5023,-175 509.5023,-175 509.5023,-205.9775 509.5023,-205.9775"/>
<polygon fill="#000000" stroke="#000000" points="506.0024,-205.9774 509.5023,-215.9775 513.0024,-205.9775 506.0024,-205.9774"/>
</g>
<!-- DataTableRowComponent  -->
<g id="node38" class="node">
<title>DataTableRowComponent </title>
<polygon fill="#fb8072" stroke="#000000" points="322.5749,-252 153.4251,-252 153.4251,-216 322.5749,-216 322.5749,-252"/>
<text text-anchor="middle" x="238" y="-229.8" font-family="Times,serif" font-size="14.00" fill="#000000">DataTableRowComponent </text>
</g>
<!-- DataTableModule&#45;&gt;DataTableRowComponent  -->
<g id="edge37" class="edge">
<title>DataTableModule&#45;&gt;DataTableRowComponent </title>
<path fill="none" stroke="#000000" stroke-dasharray="5,2" d="M1742.6987,-173C1454.6642,-173 215.3899,-173 215.3899,-173 215.3899,-173 215.3899,-205.698 215.3899,-205.698"/>
<polygon fill="#000000" stroke="#000000" points="211.89,-205.698 215.3899,-215.698 218.89,-205.698 211.89,-205.698"/>
</g>
<!-- CommonModule -->
<g id="node18" class="node">
<title>CommonModule</title>
<polygon fill="#8dd3c7" stroke="#000000" points="697.6681,-122 694.6681,-126 673.6681,-126 670.6681,-122 586.3319,-122 586.3319,-86 697.6681,-86 697.6681,-122"/>
<text text-anchor="middle" x="642" y="-99.8" font-family="Times,serif" font-size="14.00" fill="#000000">CommonModule</text>
</g>
<!-- CommonModule&#45;&gt;DataTableModule -->
<g id="edge17" class="edge">
<title>CommonModule&#45;&gt;DataTableModule</title>
<path fill="none" stroke="#000000" d="M642,-122.0225C642,-139.3734 642,-163 642,-163 642,-163 1732.8807,-163 1732.8807,-163"/>
<polygon fill="#000000" stroke="#000000" points="1732.8807,-166.5001 1742.8807,-163 1732.8806,-159.5001 1732.8807,-166.5001"/>
</g>
<!-- FormsModule -->
<g id="node19" class="node">
<title>FormsModule</title>
<polygon fill="#8dd3c7" stroke="#000000" points="568.8288,-122 565.8288,-126 544.8288,-126 541.8288,-122 473.1712,-122 473.1712,-86 568.8288,-86 568.8288,-122"/>
<text text-anchor="middle" x="521" y="-99.8" font-family="Times,serif" font-size="14.00" fill="#000000">FormsModule</text>
</g>
<!-- FormsModule&#45;&gt;DataTableModule -->
<g id="edge18" class="edge">
<title>FormsModule&#45;&gt;DataTableModule</title>
<path fill="none" stroke="#000000" d="M554.5835,-122.302C554.5835,-140.2699 554.5835,-165 554.5835,-165 554.5835,-165 1733.0913,-165 1733.0913,-165"/>
<polygon fill="#000000" stroke="#000000" points="1733.0914,-168.5001 1743.0913,-165 1733.0913,-161.5001 1733.0914,-168.5001"/>
</g>
<!-- PaginationModule -->
<g id="node20" class="node">
<title>PaginationModule</title>
<polygon fill="#8dd3c7" stroke="#000000" points="455.9342,-122 452.9342,-126 431.9342,-126 428.9342,-122 336.0658,-122 336.0658,-86 455.9342,-86 455.9342,-122"/>
<text text-anchor="middle" x="396" y="-99.8" font-family="Times,serif" font-size="14.00" fill="#000000">PaginationModule</text>
</g>
<!-- PaginationModule&#45;&gt;DataTableModule -->
<g id="edge19" class="edge">
<title>PaginationModule&#45;&gt;DataTableModule</title>
<path fill="none" stroke="#000000" d="M398.024,-122.2222C398.024,-140.8285 398.024,-167 398.024,-167 398.024,-167 1733.0158,-167 1733.0158,-167"/>
<polygon fill="#000000" stroke="#000000" points="1733.0158,-170.5001 1743.0158,-167 1733.0157,-163.5001 1733.0158,-170.5001"/>
</g>
<!-- RebirthCommonModule -->
<g id="node21" class="node">
<title>RebirthCommonModule</title>
<polygon fill="#8dd3c7" stroke="#000000" points="317.661,-122 314.661,-126 293.661,-126 290.661,-122 164.339,-122 164.339,-86 317.661,-86 317.661,-122"/>
<text text-anchor="middle" x="241" y="-99.8" font-family="Times,serif" font-size="14.00" fill="#000000">RebirthCommonModule</text>
</g>
<!-- RebirthCommonModule&#45;&gt;DataTableModule -->
<g id="edge20" class="edge">
<title>RebirthCommonModule&#45;&gt;DataTableModule</title>
<path fill="none" stroke="#000000" d="M266.6101,-122.1061C266.6101,-141.3391 266.6101,-169 266.6101,-169 266.6101,-169 1732.7517,-169 1732.7517,-169"/>
<polygon fill="#000000" stroke="#000000" points="1732.7517,-172.5001 1742.7517,-169 1732.7517,-165.5001 1732.7517,-172.5001"/>
</g>
<!-- DatePickerModule -->
<g id="node22" class="node">
<title>DatePickerModule</title>
<polygon fill="#8dd3c7" stroke="#000000" points="145.7395,-122 142.7395,-126 121.7395,-126 118.7395,-122 24.2605,-122 24.2605,-86 145.7395,-86 145.7395,-122"/>
<text text-anchor="middle" x="85" y="-99.8" font-family="Times,serif" font-size="14.00" fill="#000000">DatePickerModule</text>
</g>
<!-- DatePickerModule&#45;&gt;DataTableModule -->
<g id="edge21" class="edge">
<title>DatePickerModule&#45;&gt;DataTableModule</title>
<path fill="none" stroke="#000000" d="M85,-122.308C85,-142.1455 85,-171 85,-171 85,-171 1732.897,-171 1732.897,-171"/>
<polygon fill="#000000" stroke="#000000" points="1732.897,-174.5001 1742.897,-171 1732.8969,-167.5001 1732.897,-174.5001"/>
</g>
</g>
</svg>
