<?xml version="1.0" encoding="UTF-8" standalone="no"?>
<!DOCTYPE svg PUBLIC "-//W3C//DTD SVG 1.1//EN"
 "http://www.w3.org/Graphics/SVG/1.1/DTD/svg11.dtd">
<!-- Generated by graphviz version 2.40.1 (20161225.0304)
 -->
<!-- Title: dependencies Pages: 1 -->
<svg width="3373pt" height="284pt"
 viewBox="0.00 0.00 3373.00 284.00" xmlns="http://www.w3.org/2000/svg" xmlns:xlink="http://www.w3.org/1999/xlink">
<g id="graph0" class="graph" transform="scale(1 1) rotate(0) translate(4 280)">
<title>dependencies</title>
<polygon fill="#ffffff" stroke="transparent" points="-4,4 -4,-280 3369,-280 3369,4 -4,4"/>
<text text-anchor="start" x="1661.5091" y="-42.4" font-family="sans-serif" font-weight="bold" font-size="14.00" fill="#000000">Legend</text>
<polygon fill="#ffffb3" stroke="transparent" points="1448.5,-10 1448.5,-30 1468.5,-30 1468.5,-10 1448.5,-10"/>
<text text-anchor="start" x="1472.129" y="-15.4" font-family="sans-serif" font-size="14.00" fill="#000000"> &#160;Declarations</text>
<polygon fill="#8dd3c7" stroke="transparent" points="1561.5,-10 1561.5,-30 1581.5,-30 1581.5,-10 1561.5,-10"/>
<text text-anchor="start" x="1585.2251" y="-15.4" font-family="sans-serif" font-size="14.00" fill="#000000"> &#160;Module</text>
<polygon fill="#80b1d3" stroke="transparent" points="1647.5,-10 1647.5,-30 1667.5,-30 1667.5,-10 1647.5,-10"/>
<text text-anchor="start" x="1671.2812" y="-15.4" font-family="sans-serif" font-size="14.00" fill="#000000"> &#160;Bootstrap</text>
<polygon fill="#fdb462" stroke="transparent" points="1744.5,-10 1744.5,-30 1764.5,-30 1764.5,-10 1744.5,-10"/>
<text text-anchor="start" x="1768.1732" y="-15.4" font-family="sans-serif" font-size="14.00" fill="#000000"> &#160;Providers</text>
<polygon fill="#fb8072" stroke="transparent" points="1840.5,-10 1840.5,-30 1860.5,-30 1860.5,-10 1840.5,-10"/>
<text text-anchor="start" x="1864.2258" y="-15.4" font-family="sans-serif" font-size="14.00" fill="#000000"> &#160;Exports</text>
<g id="clust1" class="cluster">
<title>cluster_DataTableModule</title>
<polygon fill="none" stroke="#000000" stroke-dasharray="1,5" points="8,-70 8,-268 3357,-268 3357,-70 8,-70"/>
</g>
<g id="clust3" class="cluster">
<title>cluster_DataTableModule_imports</title>
<polygon fill="none" stroke="#000000" points="1293,-78 1293,-130 1983,-130 1983,-78 1293,-78"/>
</g>
<g id="clust4" class="cluster">
<title>cluster_DataTableModule_exports</title>
<polygon fill="none" stroke="#000000" points="16,-208 16,-260 3349,-260 3349,-208 16,-208"/>
</g>
<!-- CommonModule -->
<g id="node1" class="node">
<title>CommonModule</title>
<polygon fill="#8dd3c7" stroke="#000000" points="1974.6681,-122 1971.6681,-126 1950.6681,-126 1947.6681,-122 1863.3319,-122 1863.3319,-86 1974.6681,-86 1974.6681,-122"/>
<text text-anchor="middle" x="1919" y="-99.8" font-family="Times,serif" font-size="14.00" fill="#000000">CommonModule</text>
</g>
<!-- DataTableModule -->
<g id="node6" class="node">
<title>DataTableModule</title>
<polygon fill="#8dd3c7" stroke="#000000" points="1731.8487,-187 1728.8487,-191 1707.8487,-191 1704.8487,-187 1614.1513,-187 1614.1513,-151 1731.8487,-151 1731.8487,-187"/>
<text text-anchor="middle" x="1673" y="-164.8" font-family="Times,serif" font-size="14.00" fill="#000000">DataTableModule</text>
</g>
<!-- CommonModule&#45;&gt;DataTableModule -->
<g id="edge1" class="edge">
<title>CommonModule&#45;&gt;DataTableModule</title>
<path fill="none" stroke="#000000" d="M1877.3333,-122.0091C1877.3333,-138.0494 1877.3333,-159 1877.3333,-159 1877.3333,-159 1742.1017,-159 1742.1017,-159"/>
<polygon fill="#000000" stroke="#000000" points="1742.1017,-155.5001 1732.1017,-159 1742.1016,-162.5001 1742.1017,-155.5001"/>
</g>
<!-- FormsModule -->
<g id="node2" class="node">
<title>FormsModule</title>
<polygon fill="#8dd3c7" stroke="#000000" points="1845.8288,-122 1842.8288,-126 1821.8288,-126 1818.8288,-122 1750.1712,-122 1750.1712,-86 1845.8288,-86 1845.8288,-122"/>
<text text-anchor="middle" x="1798" y="-99.8" font-family="Times,serif" font-size="14.00" fill="#000000">FormsModule</text>
</g>
<!-- FormsModule&#45;&gt;DataTableModule -->
<g id="edge2" class="edge">
<title>FormsModule&#45;&gt;DataTableModule</title>
<path fill="none" stroke="#000000" d="M1798,-122.1243C1798,-136.7832 1798,-155 1798,-155 1798,-155 1742.2055,-155 1742.2055,-155"/>
<polygon fill="#000000" stroke="#000000" points="1742.2055,-151.5001 1732.2055,-155 1742.2054,-158.5001 1742.2055,-151.5001"/>
</g>
<!-- PaginationModule -->
<g id="node3" class="node">
<title>PaginationModule</title>
<polygon fill="#8dd3c7" stroke="#000000" points="1732.9342,-122 1729.9342,-126 1708.9342,-126 1705.9342,-122 1613.0658,-122 1613.0658,-86 1732.9342,-86 1732.9342,-122"/>
<text text-anchor="middle" x="1673" y="-99.8" font-family="Times,serif" font-size="14.00" fill="#000000">PaginationModule</text>
</g>
<!-- PaginationModule&#45;&gt;DataTableModule -->
<g id="edge3" class="edge">
<title>PaginationModule&#45;&gt;DataTableModule</title>
<path fill="none" stroke="#000000" d="M1673,-122.1061C1673,-122.1061 1673,-140.991 1673,-140.991"/>
<polygon fill="#000000" stroke="#000000" points="1669.5001,-140.9909 1673,-150.991 1676.5001,-140.991 1669.5001,-140.9909"/>
</g>
<!-- RebirthCommonModule -->
<g id="node4" class="node">
<title>RebirthCommonModule</title>
<polygon fill="#8dd3c7" stroke="#000000" points="1594.661,-122 1591.661,-126 1570.661,-126 1567.661,-122 1441.339,-122 1441.339,-86 1594.661,-86 1594.661,-122"/>
<text text-anchor="middle" x="1518" y="-99.8" font-family="Times,serif" font-size="14.00" fill="#000000">RebirthCommonModule</text>
</g>
<!-- RebirthCommonModule&#45;&gt;DataTableModule -->
<g id="edge4" class="edge">
<title>RebirthCommonModule&#45;&gt;DataTableModule</title>
<path fill="none" stroke="#000000" d="M1519.1334,-122.1243C1519.1334,-136.7832 1519.1334,-155 1519.1334,-155 1519.1334,-155 1603.9512,-155 1603.9512,-155"/>
<polygon fill="#000000" stroke="#000000" points="1603.9512,-158.5001 1613.9512,-155 1603.9512,-151.5001 1603.9512,-158.5001"/>
</g>
<!-- DatePickerModule -->
<g id="node5" class="node">
<title>DatePickerModule</title>
<polygon fill="#8dd3c7" stroke="#000000" points="1422.7395,-122 1419.7395,-126 1398.7395,-126 1395.7395,-122 1301.2605,-122 1301.2605,-86 1422.7395,-86 1422.7395,-122"/>
<text text-anchor="middle" x="1362" y="-99.8" font-family="Times,serif" font-size="14.00" fill="#000000">DatePickerModule</text>
</g>
<!-- DatePickerModule&#45;&gt;DataTableModule -->
<g id="edge5" class="edge">
<title>DatePickerModule&#45;&gt;DataTableModule</title>
<path fill="none" stroke="#000000" d="M1382.2899,-122.0091C1382.2899,-138.0494 1382.2899,-159 1382.2899,-159 1382.2899,-159 1603.8201,-159 1603.8201,-159"/>
<polygon fill="#000000" stroke="#000000" points="1603.8201,-162.5001 1613.8201,-159 1603.82,-155.5001 1603.8201,-162.5001"/>
</g>
<!-- DataTableComponent  -->
<g id="node7" class="node">
<title>DataTableComponent </title>
<polygon fill="#fb8072" stroke="#000000" points="3340.6313,-252 3197.3687,-252 3197.3687,-216 3340.6313,-216 3340.6313,-252"/>
<text text-anchor="middle" x="3269" y="-229.8" font-family="Times,serif" font-size="14.00" fill="#000000">DataTableComponent </text>
</g>
<!-- DataTableModule&#45;&gt;DataTableComponent  -->
<g id="edge6" class="edge">
<title>DataTableModule&#45;&gt;DataTableComponent </title>
<path fill="none" stroke="#000000" stroke-dasharray="5,2" d="M1732.1729,-162C2021.0135,-162 3269,-162 3269,-162 3269,-162 3269,-205.8314 3269,-205.8314"/>
<polygon fill="#000000" stroke="#000000" points="3265.5001,-205.8313 3269,-215.8314 3272.5001,-205.8314 3265.5001,-205.8313"/>
</g>
<!-- DataTableColumnTmplComponent  -->
<g id="node8" class="node">
<title>DataTableColumnTmplComponent </title>
<polygon fill="#fb8072" stroke="#000000" points="3179.0832,-252 2960.9168,-252 2960.9168,-216 3179.0832,-216 3179.0832,-252"/>
<text text-anchor="middle" x="3070" y="-229.8" font-family="Times,serif" font-size="14.00" fill="#000000">DataTableColumnTmplComponent </text>
</g>
<!-- DataTableModule&#45;&gt;DataTableColumnTmplComponent  -->
<g id="edge7" class="edge">
<title>DataTableModule&#45;&gt;DataTableColumnTmplComponent </title>
<path fill="none" stroke="#000000" stroke-dasharray="5,2" d="M1732.135,-166C1998.0331,-166 3070,-166 3070,-166 3070,-166 3070,-205.7772 3070,-205.7772"/>
<polygon fill="#000000" stroke="#000000" points="3066.5001,-205.7772 3070,-215.7772 3073.5001,-205.7773 3066.5001,-205.7772"/>
</g>
<!-- DataTableCellViewTmplComponent  -->
<g id="node9" class="node">
<title>DataTableCellViewTmplComponent </title>
<polygon fill="#fb8072" stroke="#000000" points="2942.6158,-252 2715.3842,-252 2715.3842,-216 2942.6158,-216 2942.6158,-252"/>
<text text-anchor="middle" x="2829" y="-229.8" font-family="Times,serif" font-size="14.00" fill="#000000">DataTableCellViewTmplComponent </text>
</g>
<!-- DataTableModule&#45;&gt;DataTableCellViewTmplComponent  -->
<g id="edge8" class="edge">
<title>DataTableModule&#45;&gt;DataTableCellViewTmplComponent </title>
<path fill="none" stroke="#000000" stroke-dasharray="5,2" d="M1731.9155,-169C1967.4858,-169 2829,-169 2829,-169 2829,-169 2829,-205.8939 2829,-205.8939"/>
<polygon fill="#000000" stroke="#000000" points="2825.5001,-205.8938 2829,-215.8939 2832.5001,-205.8939 2825.5001,-205.8938"/>
</g>
<!-- DataTableCellEditTmplComponent  -->
<g id="node10" class="node">
<title>DataTableCellEditTmplComponent </title>
<polygon fill="#fb8072" stroke="#000000" points="2697.1312,-252 2476.8688,-252 2476.8688,-216 2697.1312,-216 2697.1312,-252"/>
<text text-anchor="middle" x="2587" y="-229.8" font-family="Times,serif" font-size="14.00" fill="#000000">DataTableCellEditTmplComponent </text>
</g>
<!-- DataTableModule&#45;&gt;DataTableCellEditTmplComponent  -->
<g id="edge9" class="edge">
<title>DataTableModule&#45;&gt;DataTableCellEditTmplComponent </title>
<path fill="none" stroke="#000000" stroke-dasharray="5,2" d="M1731.9151,-173C1934.0492,-173 2587,-173 2587,-173 2587,-173 2587,-205.698 2587,-205.698"/>
<polygon fill="#000000" stroke="#000000" points="2583.5001,-205.698 2587,-215.698 2590.5001,-205.698 2583.5001,-205.698"/>
</g>
<!-- DataTableBodyComponent  -->
<g id="node11" class="node">
<title>DataTableBodyComponent </title>
<polygon fill="#fb8072" stroke="#000000" points="2458.9684,-252 2285.0316,-252 2285.0316,-216 2458.9684,-216 2458.9684,-252"/>
<text text-anchor="middle" x="2372" y="-229.8" font-family="Times,serif" font-size="14.00" fill="#000000">DataTableBodyComponent </text>
</g>
<!-- DataTableModule&#45;&gt;DataTableBodyComponent  -->
<g id="edge10" class="edge">
<title>DataTableModule&#45;&gt;DataTableBodyComponent </title>
<path fill="none" stroke="#000000" stroke-dasharray="5,2" d="M1731.9939,-177C1900.5135,-177 2372,-177 2372,-177 2372,-177 2372,-205.9648 2372,-205.9648"/>
<polygon fill="#000000" stroke="#000000" points="2368.5001,-205.9648 2372,-215.9648 2375.5001,-205.9649 2368.5001,-205.9648"/>
</g>
<!-- DataTableHeadComponent  -->
<g id="node12" class="node">
<title>DataTableHeadComponent </title>
<polygon fill="#fb8072" stroke="#000000" points="2267.1673,-252 2094.8327,-252 2094.8327,-216 2267.1673,-216 2267.1673,-252"/>
<text text-anchor="middle" x="2181" y="-229.8" font-family="Times,serif" font-size="14.00" fill="#000000">DataTableHeadComponent </text>
</g>
<!-- DataTableModule&#45;&gt;DataTableHeadComponent  -->
<g id="edge11" class="edge">
<title>DataTableModule&#45;&gt;DataTableHeadComponent </title>
<path fill="none" stroke="#000000" stroke-dasharray="5,2" d="M1732.2683,-180C1866.2731,-180 2181,-180 2181,-180 2181,-180 2181,-205.7181 2181,-205.7181"/>
<polygon fill="#000000" stroke="#000000" points="2177.5001,-205.718 2181,-215.7181 2184.5001,-205.7181 2177.5001,-205.718"/>
</g>
<!-- DataTableCellComponent  -->
<g id="node13" class="node">
<title>DataTableCellComponent </title>
<polygon fill="#fb8072" stroke="#000000" points="2076.4642,-252 1909.5358,-252 1909.5358,-216 2076.4642,-216 2076.4642,-252"/>
<text text-anchor="middle" x="1993" y="-229.8" font-family="Times,serif" font-size="14.00" fill="#000000">DataTableCellComponent </text>
</g>
<!-- DataTableModule&#45;&gt;DataTableCellComponent  -->
<g id="edge12" class="edge">
<title>DataTableModule&#45;&gt;DataTableCellComponent </title>
<path fill="none" stroke="#000000" stroke-dasharray="5,2" d="M1732.0992,-184C1811.3724,-184 1942.301,-184 1942.301,-184 1942.301,-184 1942.301,-205.9489 1942.301,-205.9489"/>
<polygon fill="#000000" stroke="#000000" points="1938.8011,-205.9488 1942.301,-215.9489 1945.8011,-205.9489 1938.8011,-205.9488"/>
</g>
<!-- DataTableHeadTmplComponent  -->
<g id="node14" class="node">
<title>DataTableHeadTmplComponent </title>
<polygon fill="#fb8072" stroke="#000000" points="1891.5008,-252 1688.4992,-252 1688.4992,-216 1891.5008,-216 1891.5008,-252"/>
<text text-anchor="middle" x="1790" y="-229.8" font-family="Times,serif" font-size="14.00" fill="#000000">DataTableHeadTmplComponent </text>
</g>
<!-- DataTableModule&#45;&gt;DataTableHeadTmplComponent  -->
<g id="edge13" class="edge">
<title>DataTableModule&#45;&gt;DataTableHeadTmplComponent </title>
<path fill="none" stroke="#000000" stroke-dasharray="5,2" d="M1710.212,-187.1061C1710.212,-187.1061 1710.212,-205.991 1710.212,-205.991"/>
<polygon fill="#000000" stroke="#000000" points="1706.712,-205.9909 1710.212,-215.991 1713.712,-205.991 1706.712,-205.9909"/>
</g>
<!-- DataTableCellFilterTmplComponent  -->
<g id="node15" class="node">
<title>DataTableCellFilterTmplComponent </title>
<polygon fill="#fb8072" stroke="#000000" points="1670.627,-252 1443.373,-252 1443.373,-216 1670.627,-216 1670.627,-252"/>
<text text-anchor="middle" x="1557" y="-229.8" font-family="Times,serif" font-size="14.00" fill="#000000">DataTableCellFilterTmplComponent </text>
</g>
<!-- DataTableModule&#45;&gt;DataTableCellFilterTmplComponent  -->
<g id="edge14" class="edge">
<title>DataTableModule&#45;&gt;DataTableCellFilterTmplComponent </title>
<path fill="none" stroke="#000000" stroke-dasharray="5,2" d="M1642.3196,-187.1061C1642.3196,-187.1061 1642.3196,-205.991 1642.3196,-205.991"/>
<polygon fill="#000000" stroke="#000000" points="1638.8197,-205.9909 1642.3196,-215.991 1645.8197,-205.991 1638.8197,-205.9909"/>
</g>
<!-- DataTableFootTmplComponent  -->
<g id="node16" class="node">
<title>DataTableFootTmplComponent </title>
<polygon fill="#fb8072" stroke="#000000" points="1425.6382,-252 1226.3618,-252 1226.3618,-216 1425.6382,-216 1425.6382,-252"/>
<text text-anchor="middle" x="1326" y="-229.8" font-family="Times,serif" font-size="14.00" fill="#000000">DataTableFootTmplComponent </text>
</g>
<!-- DataTableModule&#45;&gt;DataTableFootTmplComponent  -->
<g id="edge15" class="edge">
<title>DataTableModule&#45;&gt;DataTableFootTmplComponent </title>
<path fill="none" stroke="#000000" stroke-dasharray="5,2" d="M1613.772,-184C1518.4813,-184 1341.7101,-184 1341.7101,-184 1341.7101,-184 1341.7101,-205.9489 1341.7101,-205.9489"/>
<polygon fill="#000000" stroke="#000000" points="1338.2102,-205.9488 1341.7101,-215.9489 1345.2102,-205.9489 1338.2102,-205.9488"/>
</g>
<!-- DataTableFootComponent  -->
<g id="node17" class="node">
<title>DataTableFootComponent </title>
<polygon fill="#fb8072" stroke="#000000" points="1208.3045,-252 1039.6955,-252 1039.6955,-216 1208.3045,-216 1208.3045,-252"/>
<text text-anchor="middle" x="1124" y="-229.8" font-family="Times,serif" font-size="14.00" fill="#000000">DataTableFootComponent </text>
</g>
<!-- DataTableModule&#45;&gt;DataTableFootComponent  -->
<g id="edge16" class="edge">
<title>DataTableModule&#45;&gt;DataTableFootComponent </title>
<path fill="none" stroke="#000000" stroke-dasharray="5,2" d="M1613.9868,-180C1472.1933,-180 1124,-180 1124,-180 1124,-180 1124,-205.7181 1124,-205.7181"/>
<polygon fill="#000000" stroke="#000000" points="1120.5001,-205.718 1124,-215.7181 1127.5001,-205.7181 1120.5001,-205.718"/>
</g>
<!-- DataTableTmplsComponent  -->
<g id="node18" class="node">
<title>DataTableTmplsComponent </title>
<polygon fill="#fb8072" stroke="#000000" points="1021.4096,-252 842.5904,-252 842.5904,-216 1021.4096,-216 1021.4096,-252"/>
<text text-anchor="middle" x="932" y="-229.8" font-family="Times,serif" font-size="14.00" fill="#000000">DataTableTmplsComponent </text>
</g>
<!-- DataTableModule&#45;&gt;DataTableTmplsComponent  -->
<g id="edge17" class="edge">
<title>DataTableModule&#45;&gt;DataTableTmplsComponent </title>
<path fill="none" stroke="#000000" stroke-dasharray="5,2" d="M1613.9249,-177C1438.375,-177 932,-177 932,-177 932,-177 932,-205.9648 932,-205.9648"/>
<polygon fill="#000000" stroke="#000000" points="928.5001,-205.9648 932,-215.9648 935.5001,-205.9649 928.5001,-205.9648"/>
</g>
<!-- DataTableCellTmplComponent  -->
<g id="node19" class="node">
<title>DataTableCellTmplComponent </title>
<polygon fill="#fb8072" stroke="#000000" points="824.2975,-252 627.7025,-252 627.7025,-216 824.2975,-216 824.2975,-252"/>
<text text-anchor="middle" x="726" y="-229.8" font-family="Times,serif" font-size="14.00" fill="#000000">DataTableCellTmplComponent </text>
</g>
<!-- DataTableModule&#45;&gt;DataTableCellTmplComponent  -->
<g id="edge18" class="edge">
<title>DataTableModule&#45;&gt;DataTableCellTmplComponent </title>
<path fill="none" stroke="#000000" stroke-dasharray="5,2" d="M1614.1187,-173C1407.2236,-173 726,-173 726,-173 726,-173 726,-205.698 726,-205.698"/>
<polygon fill="#000000" stroke="#000000" points="722.5001,-205.698 726,-215.698 729.5001,-205.698 722.5001,-205.698"/>
</g>
<!-- DataTablePagerComponent  -->
<g id="node20" class="node">
<title>DataTablePagerComponent </title>
<polygon fill="#fb8072" stroke="#000000" points="609.5036,-252 434.4964,-252 434.4964,-216 609.5036,-216 609.5036,-252"/>
<text text-anchor="middle" x="522" y="-229.8" font-family="Times,serif" font-size="14.00" fill="#000000">DataTablePagerComponent </text>
</g>
<!-- DataTableModule&#45;&gt;DataTablePagerComponent  -->
<g id="edge19" class="edge">
<title>DataTableModule&#45;&gt;DataTablePagerComponent </title>
<path fill="none" stroke="#000000" stroke-dasharray="5,2" d="M1613.9407,-169C1378.8179,-169 522,-169 522,-169 522,-169 522,-205.8939 522,-205.8939"/>
<polygon fill="#000000" stroke="#000000" points="518.5001,-205.8938 522,-215.8939 525.5001,-205.8939 518.5001,-205.8938"/>
</g>
<!-- DataTablePagerTmplComponent  -->
<g id="node21" class="node">
<title>DataTablePagerTmplComponent </title>
<polygon fill="#fb8072" stroke="#000000" points="416.8377,-252 211.1623,-252 211.1623,-216 416.8377,-216 416.8377,-252"/>
<text text-anchor="middle" x="314" y="-229.8" font-family="Times,serif" font-size="14.00" fill="#000000">DataTablePagerTmplComponent </text>
</g>
<!-- DataTableModule&#45;&gt;DataTablePagerTmplComponent  -->
<g id="edge20" class="edge">
<title>DataTableModule&#45;&gt;DataTablePagerTmplComponent </title>
<path fill="none" stroke="#000000" stroke-dasharray="5,2" d="M1613.7316,-166C1352.1632,-166 314,-166 314,-166 314,-166 314,-205.7772 314,-205.7772"/>
<polygon fill="#000000" stroke="#000000" points="310.5001,-205.7772 314,-215.7772 317.5001,-205.7773 310.5001,-205.7772"/>
</g>
<!-- DataTableRowComponent  -->
<g id="node22" class="node">
<title>DataTableRowComponent </title>
<polygon fill="#fb8072" stroke="#000000" points="193.5749,-252 24.4251,-252 24.4251,-216 193.5749,-216 193.5749,-252"/>
<text text-anchor="middle" x="109" y="-229.8" font-family="Times,serif" font-size="14.00" fill="#000000">DataTableRowComponent </text>
</g>
<!-- DataTableModule&#45;&gt;DataTableRowComponent  -->
<g id="edge21" class="edge">
<title>DataTableModule&#45;&gt;DataTableRowComponent </title>
<path fill="none" stroke="#000000" stroke-dasharray="5,2" d="M1614.0723,-162C1329.2645,-162 109,-162 109,-162 109,-162 109,-205.8314 109,-205.8314"/>
<polygon fill="#000000" stroke="#000000" points="105.5001,-205.8313 109,-215.8314 112.5001,-205.8314 105.5001,-205.8313"/>
</g>
</g>
</svg>
