<?xml version="1.0" encoding="UTF-8" standalone="no"?>
<!DOCTYPE svg PUBLIC "-//W3C//DTD SVG 1.1//EN"
 "http://www.w3.org/Graphics/SVG/1.1/DTD/svg11.dtd">
<!-- Generated by graphviz version 2.40.1 (20161225.0304)
 -->
<!-- Title: dependencies Pages: 1 -->
<svg width="736pt" height="284pt"
 viewBox="0.00 0.00 736.00 284.00" xmlns="http://www.w3.org/2000/svg" xmlns:xlink="http://www.w3.org/1999/xlink">
<g id="graph0" class="graph" transform="scale(1 1) rotate(0) translate(4 280)">
<title>dependencies</title>
<polygon fill="#ffffff" stroke="transparent" points="-4,4 -4,-280 732,-280 732,4 -4,4"/>
<text text-anchor="start" x="343.0091" y="-42.4" font-family="sans-serif" font-weight="bold" font-size="14.00" fill="#000000">Legend</text>
<polygon fill="#ffffb3" stroke="transparent" points="130,-10 130,-30 150,-30 150,-10 130,-10"/>
<text text-anchor="start" x="153.629" y="-15.4" font-family="sans-serif" font-size="14.00" fill="#000000"> &#160;Declarations</text>
<polygon fill="#8dd3c7" stroke="transparent" points="243,-10 243,-30 263,-30 263,-10 243,-10"/>
<text text-anchor="start" x="266.7251" y="-15.4" font-family="sans-serif" font-size="14.00" fill="#000000"> &#160;Module</text>
<polygon fill="#80b1d3" stroke="transparent" points="329,-10 329,-30 349,-30 349,-10 329,-10"/>
<text text-anchor="start" x="352.7812" y="-15.4" font-family="sans-serif" font-size="14.00" fill="#000000"> &#160;Bootstrap</text>
<polygon fill="#fdb462" stroke="transparent" points="426,-10 426,-30 446,-30 446,-10 426,-10"/>
<text text-anchor="start" x="449.6732" y="-15.4" font-family="sans-serif" font-size="14.00" fill="#000000"> &#160;Providers</text>
<polygon fill="#fb8072" stroke="transparent" points="522,-10 522,-30 542,-30 542,-10 522,-10"/>
<text text-anchor="start" x="545.7258" y="-15.4" font-family="sans-serif" font-size="14.00" fill="#000000"> &#160;Exports</text>
<g id="clust1" class="cluster">
<title>cluster_MenuBarModule</title>
<polygon fill="none" stroke="#000000" stroke-dasharray="1,5" points="8,-70 8,-268 720,-268 720,-70 8,-70"/>
</g>
<g id="clust2" class="cluster">
<title>cluster_MenuBarModule_declarations</title>
<polygon fill="none" stroke="#000000" points="268,-78 268,-130 712,-130 712,-78 268,-78"/>
</g>
<g id="clust6" class="cluster">
<title>cluster_MenuBarModule_imports</title>
<polygon fill="none" stroke="#000000" points="16,-78 16,-130 260,-130 260,-78 16,-78"/>
</g>
<g id="clust7" class="cluster">
<title>cluster_MenuBarModule_exports</title>
<polygon fill="none" stroke="#000000" points="191,-208 191,-260 495,-260 495,-208 191,-208"/>
</g>
<!-- MenuBarComponent -->
<g id="node1" class="node">
<title>MenuBarComponent</title>
<polygon fill="#ffffb3" stroke="#000000" points="704.2036,-122 569.7964,-122 569.7964,-86 704.2036,-86 704.2036,-122"/>
<text text-anchor="middle" x="637" y="-99.8" font-family="Times,serif" font-size="14.00" fill="#000000">MenuBarComponent</text>
</g>
<!-- MenuBarModule -->
<g id="node4" class="node">
<title>MenuBarModule</title>
<polygon fill="#8dd3c7" stroke="#000000" points="397.4216,-187 394.4216,-191 373.4216,-191 370.4216,-187 284.5784,-187 284.5784,-151 397.4216,-151 397.4216,-187"/>
<text text-anchor="middle" x="341" y="-164.8" font-family="Times,serif" font-size="14.00" fill="#000000">MenuBarModule</text>
</g>
<!-- MenuBarComponent&#45;&gt;MenuBarModule -->
<g id="edge1" class="edge">
<title>MenuBarComponent&#45;&gt;MenuBarModule</title>
<path fill="none" stroke="#000000" d="M637,-122.2843C637,-143.3211 637,-175 637,-175 637,-175 407.3721,-175 407.3721,-175"/>
<polygon fill="#000000" stroke="#000000" points="407.3721,-171.5001 397.3721,-175 407.372,-178.5001 407.3721,-171.5001"/>
</g>
<!-- DropdownDirective -->
<g id="node2" class="node">
<title>DropdownDirective</title>
<polygon fill="#ffffb3" stroke="#000000" points="551.9566,-122 424.0434,-122 424.0434,-86 551.9566,-86 551.9566,-122"/>
<text text-anchor="middle" x="488" y="-99.8" font-family="Times,serif" font-size="14.00" fill="#000000">DropdownDirective</text>
</g>
<!-- DropdownDirective&#45;&gt;MenuBarModule -->
<g id="edge2" class="edge">
<title>DropdownDirective&#45;&gt;MenuBarModule</title>
<path fill="none" stroke="#000000" d="M455.4367,-122.0225C455.4367,-139.3734 455.4367,-163 455.4367,-163 455.4367,-163 407.2126,-163 407.2126,-163"/>
<polygon fill="#000000" stroke="#000000" points="407.2126,-159.5001 397.2126,-163 407.2126,-166.5001 407.2126,-159.5001"/>
</g>
<!-- NavItemComponent -->
<g id="node3" class="node">
<title>NavItemComponent</title>
<polygon fill="#ffffb3" stroke="#000000" points="406.3104,-122 275.6896,-122 275.6896,-86 406.3104,-86 406.3104,-122"/>
<text text-anchor="middle" x="341" y="-99.8" font-family="Times,serif" font-size="14.00" fill="#000000">NavItemComponent</text>
</g>
<!-- NavItemComponent&#45;&gt;MenuBarModule -->
<g id="edge3" class="edge">
<title>NavItemComponent&#45;&gt;MenuBarModule</title>
<path fill="none" stroke="#000000" d="M341,-122.1061C341,-122.1061 341,-140.991 341,-140.991"/>
<polygon fill="#000000" stroke="#000000" points="337.5001,-140.9909 341,-150.991 344.5001,-140.991 337.5001,-140.9909"/>
</g>
<!-- MenuBarComponent  -->
<g id="node7" class="node">
<title>MenuBarComponent </title>
<polygon fill="#fb8072" stroke="#000000" points="486.7037,-252 349.2963,-252 349.2963,-216 486.7037,-216 486.7037,-252"/>
<text text-anchor="middle" x="418" y="-229.8" font-family="Times,serif" font-size="14.00" fill="#000000">MenuBarComponent </text>
</g>
<!-- MenuBarModule&#45;&gt;MenuBarComponent  -->
<g id="edge6" class="edge">
<title>MenuBarModule&#45;&gt;MenuBarComponent </title>
<path fill="none" stroke="#000000" stroke-dasharray="5,2" d="M373.1794,-187.1061C373.1794,-187.1061 373.1794,-205.991 373.1794,-205.991"/>
<polygon fill="#000000" stroke="#000000" points="369.6794,-205.9909 373.1794,-215.991 376.6794,-205.991 369.6794,-205.9909"/>
</g>
<!-- DropdownDirective  -->
<g id="node8" class="node">
<title>DropdownDirective </title>
<polygon fill="#fb8072" stroke="#000000" points="330.9574,-252 199.0426,-252 199.0426,-216 330.9574,-216 330.9574,-252"/>
<text text-anchor="middle" x="265" y="-229.8" font-family="Times,serif" font-size="14.00" fill="#000000">DropdownDirective </text>
</g>
<!-- MenuBarModule&#45;&gt;DropdownDirective  -->
<g id="edge7" class="edge">
<title>MenuBarModule&#45;&gt;DropdownDirective </title>
<path fill="none" stroke="#000000" stroke-dasharray="5,2" d="M307.759,-187.1061C307.759,-187.1061 307.759,-205.991 307.759,-205.991"/>
<polygon fill="#000000" stroke="#000000" points="304.259,-205.9909 307.759,-215.991 311.259,-205.991 304.259,-205.9909"/>
</g>
<!-- CommonModule -->
<g id="node5" class="node">
<title>CommonModule</title>
<polygon fill="#8dd3c7" stroke="#000000" points="251.6681,-122 248.6681,-126 227.6681,-126 224.6681,-122 140.3319,-122 140.3319,-86 251.6681,-86 251.6681,-122"/>
<text text-anchor="middle" x="196" y="-99.8" font-family="Times,serif" font-size="14.00" fill="#000000">CommonModule</text>
</g>
<!-- CommonModule&#45;&gt;MenuBarModule -->
<g id="edge4" class="edge">
<title>CommonModule&#45;&gt;MenuBarModule</title>
<path fill="none" stroke="#000000" d="M225.5528,-122.0225C225.5528,-139.3734 225.5528,-163 225.5528,-163 225.5528,-163 274.6292,-163 274.6292,-163"/>
<polygon fill="#000000" stroke="#000000" points="274.6292,-166.5001 284.6292,-163 274.6291,-159.5001 274.6292,-166.5001"/>
</g>
<!-- RouterModule -->
<g id="node6" class="node">
<title>RouterModule</title>
<polygon fill="#8dd3c7" stroke="#000000" points="121.6528,-122 118.6528,-126 97.6528,-126 94.6528,-122 24.3472,-122 24.3472,-86 121.6528,-86 121.6528,-122"/>
<text text-anchor="middle" x="73" y="-99.8" font-family="Times,serif" font-size="14.00" fill="#000000">RouterModule</text>
</g>
<!-- RouterModule&#45;&gt;MenuBarModule -->
<g id="edge5" class="edge">
<title>RouterModule&#45;&gt;MenuBarModule</title>
<path fill="none" stroke="#000000" d="M73,-122.2843C73,-143.3211 73,-175 73,-175 73,-175 274.4916,-175 274.4916,-175"/>
<polygon fill="#000000" stroke="#000000" points="274.4916,-178.5001 284.4916,-175 274.4915,-171.5001 274.4916,-178.5001"/>
</g>
</g>
</svg>
