<?xml version="1.0" encoding="UTF-8" standalone="no"?>
<!DOCTYPE svg PUBLIC "-//W3C//DTD SVG 1.1//EN"
 "http://www.w3.org/Graphics/SVG/1.1/DTD/svg11.dtd">
<!-- Generated by graphviz version 2.38.0 (20140413.2041)
 -->
<!-- Title: dependencies Pages: 1 -->
<svg width="736pt" height="284pt"
 viewBox="0.00 0.00 736.00 284.00" xmlns="http://www.w3.org/2000/svg" xmlns:xlink="http://www.w3.org/1999/xlink">
<g id="graph0" class="graph" transform="scale(1 1) rotate(0) translate(4 280)">
<title>dependencies</title>
<polygon fill="white" stroke="none" points="-4,4 -4,-280 732,-280 732,4 -4,4"/>
<text text-anchor="start" x="343.009" y="-42.4" font-family="sans-serif" font-weight="bold" font-size="14.00">Legend</text>
<polygon fill="#ffffb3" stroke="none" points="130,-10 130,-30 150,-30 150,-10 130,-10"/>
<text text-anchor="start" x="153.629" y="-15.4" font-family="sans-serif" font-size="14.00"> &#160;Declarations</text>
<polygon fill="#8dd3c7" stroke="none" points="243,-10 243,-30 263,-30 263,-10 243,-10"/>
<text text-anchor="start" x="266.725" y="-15.4" font-family="sans-serif" font-size="14.00"> &#160;Module</text>
<polygon fill="#80b1d3" stroke="none" points="329,-10 329,-30 349,-30 349,-10 329,-10"/>
<text text-anchor="start" x="352.781" y="-15.4" font-family="sans-serif" font-size="14.00"> &#160;Bootstrap</text>
<polygon fill="#fdb462" stroke="none" points="426,-10 426,-30 446,-30 446,-10 426,-10"/>
<text text-anchor="start" x="449.673" y="-15.4" font-family="sans-serif" font-size="14.00"> &#160;Providers</text>
<polygon fill="#fb8072" stroke="none" points="522,-10 522,-30 542,-30 542,-10 522,-10"/>
<text text-anchor="start" x="545.726" y="-15.4" font-family="sans-serif" font-size="14.00"> &#160;Exports</text>
<g id="clust1" class="cluster"><title>cluster_MenuBarModule</title>
<polygon fill="none" stroke="black" stroke-dasharray="1,5" points="8,-70 8,-268 720,-268 720,-70 8,-70"/>
</g>
<g id="clust2" class="cluster"><title>cluster_MenuBarModule_declarations</title>
<polygon fill="none" stroke="black" points="268,-78 268,-130 712,-130 712,-78 268,-78"/>
</g>
<g id="clust6" class="cluster"><title>cluster_MenuBarModule_imports</title>
<polygon fill="none" stroke="black" points="16,-78 16,-130 260,-130 260,-78 16,-78"/>
</g>
<g id="clust7" class="cluster"><title>cluster_MenuBarModule_exports</title>
<polygon fill="none" stroke="black" points="190,-208 190,-260 494,-260 494,-208 190,-208"/>
</g>
<!-- MenuBarComponent -->
<g id="node1" class="node"><title>MenuBarComponent</title>
<polygon fill="#ffffb3" stroke="black" points="704.204,-122 569.796,-122 569.796,-86 704.204,-86 704.204,-122"/>
<text text-anchor="middle" x="637" y="-99.8" font-family="Times,serif" font-size="14.00">MenuBarComponent</text>
</g>
<!-- MenuBarModule -->
<g id="node4" class="node"><title>MenuBarModule</title>
<polygon fill="#8dd3c7" stroke="black" points="397.422,-187 394.422,-191 373.422,-191 370.422,-187 284.578,-187 284.578,-151 397.422,-151 397.422,-187"/>
<text text-anchor="middle" x="341" y="-164.8" font-family="Times,serif" font-size="14.00">MenuBarModule</text>
</g>
<!-- MenuBarComponent&#45;&gt;MenuBarModule -->
<g id="edge1" class="edge"><title>MenuBarComponent&#45;&gt;MenuBarModule</title>
<path fill="none" stroke="black" d="M637,-122.284C637,-143.321 637,-175 637,-175 637,-175 407.372,-175 407.372,-175"/>
<polygon fill="black" stroke="black" points="407.372,-171.5 397.372,-175 407.372,-178.5 407.372,-171.5"/>
</g>
<!-- DropdownDirective -->
<g id="node2" class="node"><title>DropdownDirective</title>
<polygon fill="#ffffb3" stroke="black" points="551.957,-122 424.043,-122 424.043,-86 551.957,-86 551.957,-122"/>
<text text-anchor="middle" x="488" y="-99.8" font-family="Times,serif" font-size="14.00">DropdownDirective</text>
</g>
<!-- DropdownDirective&#45;&gt;MenuBarModule -->
<g id="edge2" class="edge"><title>DropdownDirective&#45;&gt;MenuBarModule</title>
<path fill="none" stroke="black" d="M454.937,-122.023C454.937,-139.373 454.937,-163 454.937,-163 454.937,-163 407.301,-163 407.301,-163"/>
<polygon fill="black" stroke="black" points="407.301,-159.5 397.301,-163 407.301,-166.5 407.301,-159.5"/>
</g>
<!-- NavItemComponent -->
<g id="node3" class="node"><title>NavItemComponent</title>
<polygon fill="#ffffb3" stroke="black" points="406.31,-122 275.69,-122 275.69,-86 406.31,-86 406.31,-122"/>
<text text-anchor="middle" x="341" y="-99.8" font-family="Times,serif" font-size="14.00">NavItemComponent</text>
</g>
<!-- NavItemComponent&#45;&gt;MenuBarModule -->
<g id="edge3" class="edge"><title>NavItemComponent&#45;&gt;MenuBarModule</title>
<path fill="none" stroke="black" d="M341,-122.106C341,-122.106 341,-140.991 341,-140.991"/>
<polygon fill="black" stroke="black" points="337.5,-140.991 341,-150.991 344.5,-140.991 337.5,-140.991"/>
</g>
<!-- MenuBarComponent  -->
<g id="node7" class="node"><title>MenuBarComponent </title>
<polygon fill="#fb8072" stroke="black" points="485.704,-252 348.296,-252 348.296,-216 485.704,-216 485.704,-252"/>
<text text-anchor="middle" x="417" y="-229.8" font-family="Times,serif" font-size="14.00">MenuBarComponent </text>
</g>
<!-- MenuBarModule&#45;&gt;MenuBarComponent  -->
<g id="edge6" class="edge"><title>MenuBarModule&#45;&gt;MenuBarComponent </title>
<path fill="none" stroke="black" stroke-dasharray="5,2" d="M372.679,-187.106C372.679,-187.106 372.679,-205.991 372.679,-205.991"/>
<polygon fill="black" stroke="black" points="369.179,-205.991 372.679,-215.991 376.179,-205.991 369.179,-205.991"/>
</g>
<!-- DropdownDirective  -->
<g id="node8" class="node"><title>DropdownDirective </title>
<polygon fill="#fb8072" stroke="black" points="329.957,-252 198.043,-252 198.043,-216 329.957,-216 329.957,-252"/>
<text text-anchor="middle" x="264" y="-229.8" font-family="Times,serif" font-size="14.00">DropdownDirective </text>
</g>
<!-- MenuBarModule&#45;&gt;DropdownDirective  -->
<g id="edge7" class="edge"><title>MenuBarModule&#45;&gt;DropdownDirective </title>
<path fill="none" stroke="black" stroke-dasharray="5,2" d="M307.259,-187.106C307.259,-187.106 307.259,-205.991 307.259,-205.991"/>
<polygon fill="black" stroke="black" points="303.759,-205.991 307.259,-215.991 310.759,-205.991 303.759,-205.991"/>
</g>
<!-- CommonModule -->
<g id="node5" class="node"><title>CommonModule</title>
<polygon fill="#8dd3c7" stroke="black" points="251.668,-122 248.668,-126 227.668,-126 224.668,-122 140.332,-122 140.332,-86 251.668,-86 251.668,-122"/>
<text text-anchor="middle" x="196" y="-99.8" font-family="Times,serif" font-size="14.00">CommonModule</text>
</g>
<!-- CommonModule&#45;&gt;MenuBarModule -->
<g id="edge4" class="edge"><title>CommonModule&#45;&gt;MenuBarModule</title>
<path fill="none" stroke="black" d="M225.053,-122.023C225.053,-139.373 225.053,-163 225.053,-163 225.053,-163 274.725,-163 274.725,-163"/>
<polygon fill="black" stroke="black" points="274.725,-166.5 284.725,-163 274.725,-159.5 274.725,-166.5"/>
</g>
<!-- RouterModule -->
<g id="node6" class="node"><title>RouterModule</title>
<polygon fill="#8dd3c7" stroke="black" points="121.653,-122 118.653,-126 97.6528,-126 94.6528,-122 24.3472,-122 24.3472,-86 121.653,-86 121.653,-122"/>
<text text-anchor="middle" x="73" y="-99.8" font-family="Times,serif" font-size="14.00">RouterModule</text>
</g>
<!-- RouterModule&#45;&gt;MenuBarModule -->
<g id="edge5" class="edge"><title>RouterModule&#45;&gt;MenuBarModule</title>
<path fill="none" stroke="black" d="M73,-122.284C73,-143.321 73,-175 73,-175 73,-175 274.492,-175 274.492,-175"/>
<polygon fill="black" stroke="black" points="274.492,-178.5 284.492,-175 274.492,-171.5 274.492,-178.5"/>
</g>
</g>
</svg>
