<?xml version="1.0" encoding="UTF-8" standalone="no"?>
<!DOCTYPE svg PUBLIC "-//W3C//DTD SVG 1.1//EN"
 "http://www.w3.org/Graphics/SVG/1.1/DTD/svg11.dtd">
<!-- Generated by graphviz version 2.38.0 (20140413.2041)
 -->
<!-- Title: dependencies Pages: 1 -->
<svg width="588pt" height="284pt"
 viewBox="0.00 0.00 588.00 284.00" xmlns="http://www.w3.org/2000/svg" xmlns:xlink="http://www.w3.org/1999/xlink">
<g id="graph0" class="graph" transform="scale(1 1) rotate(0) translate(4 280)">
<title>dependencies</title>
<polygon fill="white" stroke="none" points="-4,4 -4,-280 584,-280 584,4 -4,4"/>
<text text-anchor="start" x="269.009" y="-42.4" font-family="sans-serif" font-weight="bold" font-size="14.00">Legend</text>
<polygon fill="#ffffb3" stroke="none" points="56,-10 56,-30 76,-30 76,-10 56,-10"/>
<text text-anchor="start" x="79.629" y="-15.4" font-family="sans-serif" font-size="14.00"> &#160;Declarations</text>
<polygon fill="#8dd3c7" stroke="none" points="169,-10 169,-30 189,-30 189,-10 169,-10"/>
<text text-anchor="start" x="192.725" y="-15.4" font-family="sans-serif" font-size="14.00"> &#160;Module</text>
<polygon fill="#80b1d3" stroke="none" points="255,-10 255,-30 275,-30 275,-10 255,-10"/>
<text text-anchor="start" x="278.781" y="-15.4" font-family="sans-serif" font-size="14.00"> &#160;Bootstrap</text>
<polygon fill="#fdb462" stroke="none" points="352,-10 352,-30 372,-30 372,-10 352,-10"/>
<text text-anchor="start" x="375.673" y="-15.4" font-family="sans-serif" font-size="14.00"> &#160;Providers</text>
<polygon fill="#fb8072" stroke="none" points="448,-10 448,-30 468,-30 468,-10 448,-10"/>
<text text-anchor="start" x="471.726" y="-15.4" font-family="sans-serif" font-size="14.00"> &#160;Exports</text>
<g id="clust1" class="cluster"><title>cluster_MenuBarModule</title>
<polygon fill="none" stroke="black" stroke-dasharray="1,5" points="8,-70 8,-268 572,-268 572,-70 8,-70"/>
</g>
<g id="clust2" class="cluster"><title>cluster_MenuBarModule_declarations</title>
<polygon fill="none" stroke="black" points="268,-78 268,-130 564,-130 564,-78 268,-78"/>
</g>
<g id="clust5" class="cluster"><title>cluster_MenuBarModule_imports</title>
<polygon fill="none" stroke="black" points="16,-78 16,-130 260,-130 260,-78 16,-78"/>
</g>
<g id="clust6" class="cluster"><title>cluster_MenuBarModule_exports</title>
<polygon fill="none" stroke="black" points="191,-208 191,-260 345,-260 345,-208 191,-208"/>
</g>
<!-- MenuBarComponent -->
<g id="node1" class="node"><title>MenuBarComponent</title>
<polygon fill="#ffffb3" stroke="black" points="556.204,-122 421.796,-122 421.796,-86 556.204,-86 556.204,-122"/>
<text text-anchor="middle" x="489" y="-99.8" font-family="Times,serif" font-size="14.00">MenuBarComponent</text>
</g>
<!-- MenuBarModule -->
<g id="node3" class="node"><title>MenuBarModule</title>
<polygon fill="#8dd3c7" stroke="black" points="324.422,-187 321.422,-191 300.422,-191 297.422,-187 211.578,-187 211.578,-151 324.422,-151 324.422,-187"/>
<text text-anchor="middle" x="268" y="-164.8" font-family="Times,serif" font-size="14.00">MenuBarModule</text>
</g>
<!-- MenuBarComponent&#45;&gt;MenuBarModule -->
<g id="edge1" class="edge"><title>MenuBarComponent&#45;&gt;MenuBarModule</title>
<path fill="none" stroke="black" d="M489,-122.106C489,-141.339 489,-169 489,-169 489,-169 334.339,-169 334.339,-169"/>
<polygon fill="black" stroke="black" points="334.339,-165.5 324.339,-169 334.339,-172.5 334.339,-165.5"/>
</g>
<!-- DropdownDirective -->
<g id="node2" class="node"><title>DropdownDirective</title>
<polygon fill="#ffffb3" stroke="black" points="403.957,-122 276.043,-122 276.043,-86 403.957,-86 403.957,-122"/>
<text text-anchor="middle" x="340" y="-99.8" font-family="Times,serif" font-size="14.00">DropdownDirective</text>
</g>
<!-- DropdownDirective&#45;&gt;MenuBarModule -->
<g id="edge2" class="edge"><title>DropdownDirective&#45;&gt;MenuBarModule</title>
<path fill="none" stroke="black" d="M300.116,-122.106C300.116,-122.106 300.116,-140.991 300.116,-140.991"/>
<polygon fill="black" stroke="black" points="296.616,-140.991 300.116,-150.991 303.616,-140.991 296.616,-140.991"/>
</g>
<!-- MenuBarComponent  -->
<g id="node6" class="node"><title>MenuBarComponent </title>
<polygon fill="#fb8072" stroke="black" points="336.704,-252 199.296,-252 199.296,-216 336.704,-216 336.704,-252"/>
<text text-anchor="middle" x="268" y="-229.8" font-family="Times,serif" font-size="14.00">MenuBarComponent </text>
</g>
<!-- MenuBarModule&#45;&gt;MenuBarComponent  -->
<g id="edge5" class="edge"><title>MenuBarModule&#45;&gt;MenuBarComponent </title>
<path fill="none" stroke="black" stroke-dasharray="5,2" d="M268,-187.106C268,-187.106 268,-205.991 268,-205.991"/>
<polygon fill="black" stroke="black" points="264.5,-205.991 268,-215.991 271.5,-205.991 264.5,-205.991"/>
</g>
<!-- CommonModule -->
<g id="node4" class="node"><title>CommonModule</title>
<polygon fill="#8dd3c7" stroke="black" points="251.668,-122 248.668,-126 227.668,-126 224.668,-122 140.332,-122 140.332,-86 251.668,-86 251.668,-122"/>
<text text-anchor="middle" x="196" y="-99.8" font-family="Times,serif" font-size="14.00">CommonModule</text>
</g>
<!-- CommonModule&#45;&gt;MenuBarModule -->
<g id="edge3" class="edge"><title>CommonModule&#45;&gt;MenuBarModule</title>
<path fill="none" stroke="black" d="M231.812,-122.106C231.812,-122.106 231.812,-140.991 231.812,-140.991"/>
<polygon fill="black" stroke="black" points="228.312,-140.991 231.812,-150.991 235.312,-140.991 228.312,-140.991"/>
</g>
<!-- RouterModule -->
<g id="node5" class="node"><title>RouterModule</title>
<polygon fill="#8dd3c7" stroke="black" points="121.653,-122 118.653,-126 97.6528,-126 94.6528,-122 24.3472,-122 24.3472,-86 121.653,-86 121.653,-122"/>
<text text-anchor="middle" x="73" y="-99.8" font-family="Times,serif" font-size="14.00">RouterModule</text>
</g>
<!-- RouterModule&#45;&gt;MenuBarModule -->
<g id="edge4" class="edge"><title>RouterModule&#45;&gt;MenuBarModule</title>
<path fill="none" stroke="black" d="M73,-122.106C73,-141.339 73,-169 73,-169 73,-169 201.598,-169 201.598,-169"/>
<polygon fill="black" stroke="black" points="201.598,-172.5 211.598,-169 201.598,-165.5 201.598,-172.5"/>
</g>
</g>
</svg>
