<?xml version="1.0" encoding="UTF-8" standalone="no"?>
<!DOCTYPE svg PUBLIC "-//W3C//DTD SVG 1.1//EN"
 "http://www.w3.org/Graphics/SVG/1.1/DTD/svg11.dtd">
<!-- Generated by graphviz version 2.40.1 (20161225.0304)
 -->
<!-- Title: dependencies Pages: 1 -->
<svg width="504pt" height="284pt"
 viewBox="0.00 0.00 504.00 284.00" xmlns="http://www.w3.org/2000/svg" xmlns:xlink="http://www.w3.org/1999/xlink">
<g id="graph0" class="graph" transform="scale(1 1) rotate(0) translate(4 280)">
<title>dependencies</title>
<polygon fill="#ffffff" stroke="transparent" points="-4,4 -4,-280 500,-280 500,4 -4,4"/>
<text text-anchor="start" x="227.0091" y="-42.4" font-family="sans-serif" font-weight="bold" font-size="14.00" fill="#000000">Legend</text>
<polygon fill="#ffffb3" stroke="transparent" points="14,-10 14,-30 34,-30 34,-10 14,-10"/>
<text text-anchor="start" x="37.629" y="-15.4" font-family="sans-serif" font-size="14.00" fill="#000000"> &#160;Declarations</text>
<polygon fill="#8dd3c7" stroke="transparent" points="127,-10 127,-30 147,-30 147,-10 127,-10"/>
<text text-anchor="start" x="150.7251" y="-15.4" font-family="sans-serif" font-size="14.00" fill="#000000"> &#160;Module</text>
<polygon fill="#80b1d3" stroke="transparent" points="213,-10 213,-30 233,-30 233,-10 213,-10"/>
<text text-anchor="start" x="236.7812" y="-15.4" font-family="sans-serif" font-size="14.00" fill="#000000"> &#160;Bootstrap</text>
<polygon fill="#fdb462" stroke="transparent" points="310,-10 310,-30 330,-30 330,-10 310,-10"/>
<text text-anchor="start" x="333.6732" y="-15.4" font-family="sans-serif" font-size="14.00" fill="#000000"> &#160;Providers</text>
<polygon fill="#fb8072" stroke="transparent" points="406,-10 406,-30 426,-30 426,-10 406,-10"/>
<text text-anchor="start" x="429.7258" y="-15.4" font-family="sans-serif" font-size="14.00" fill="#000000"> &#160;Exports</text>
<g id="clust1" class="cluster">
<title>cluster_MenuBarModule</title>
<polygon fill="none" stroke="#000000" stroke-dasharray="1,5" points="32,-70 32,-268 464,-268 464,-70 32,-70"/>
</g>
<g id="clust3" class="cluster">
<title>cluster_MenuBarModule_imports</title>
<polygon fill="none" stroke="#000000" points="40,-78 40,-130 456,-130 456,-78 40,-78"/>
</g>
<g id="clust4" class="cluster">
<title>cluster_MenuBarModule_exports</title>
<polygon fill="none" stroke="#000000" points="192,-208 192,-260 346,-260 346,-208 192,-208"/>
</g>
<!-- CommonModule -->
<g id="node1" class="node">
<title>CommonModule</title>
<polygon fill="#8dd3c7" stroke="#000000" points="447.6681,-122 444.6681,-126 423.6681,-126 420.6681,-122 336.3319,-122 336.3319,-86 447.6681,-86 447.6681,-122"/>
<text text-anchor="middle" x="392" y="-99.8" font-family="Times,serif" font-size="14.00" fill="#000000">CommonModule</text>
</g>
<!-- MenuBarModule -->
<g id="node4" class="node">
<title>MenuBarModule</title>
<polygon fill="#8dd3c7" stroke="#000000" points="325.4216,-187 322.4216,-191 301.4216,-191 298.4216,-187 212.5784,-187 212.5784,-151 325.4216,-151 325.4216,-187"/>
<text text-anchor="middle" x="269" y="-164.8" font-family="Times,serif" font-size="14.00" fill="#000000">MenuBarModule</text>
</g>
<!-- CommonModule&#45;&gt;MenuBarModule -->
<g id="edge1" class="edge">
<title>CommonModule&#45;&gt;MenuBarModule</title>
<path fill="none" stroke="#000000" d="M336.1221,-104C327.5677,-104 321.5182,-104 321.5182,-104 321.5182,-104 321.5182,-140.8939 321.5182,-140.8939"/>
<polygon fill="#000000" stroke="#000000" points="318.0183,-140.8938 321.5182,-150.8939 325.0183,-140.8939 318.0183,-140.8938"/>
</g>
<!-- RouterModule -->
<g id="node2" class="node">
<title>RouterModule</title>
<polygon fill="#8dd3c7" stroke="#000000" points="317.6528,-122 314.6528,-126 293.6528,-126 290.6528,-122 220.3472,-122 220.3472,-86 317.6528,-86 317.6528,-122"/>
<text text-anchor="middle" x="269" y="-99.8" font-family="Times,serif" font-size="14.00" fill="#000000">RouterModule</text>
</g>
<!-- RouterModule&#45;&gt;MenuBarModule -->
<g id="edge2" class="edge">
<title>RouterModule&#45;&gt;MenuBarModule</title>
<path fill="none" stroke="#000000" d="M269,-122.1061C269,-122.1061 269,-140.991 269,-140.991"/>
<polygon fill="#000000" stroke="#000000" points="265.5001,-140.9909 269,-150.991 272.5001,-140.991 265.5001,-140.9909"/>
</g>
<!-- RebirthCommonModule -->
<g id="node3" class="node">
<title>RebirthCommonModule</title>
<polygon fill="#8dd3c7" stroke="#000000" points="201.661,-122 198.661,-126 177.661,-126 174.661,-122 48.339,-122 48.339,-86 201.661,-86 201.661,-122"/>
<text text-anchor="middle" x="125" y="-99.8" font-family="Times,serif" font-size="14.00" fill="#000000">RebirthCommonModule</text>
</g>
<!-- RebirthCommonModule&#45;&gt;MenuBarModule -->
<g id="edge3" class="edge">
<title>RebirthCommonModule&#45;&gt;MenuBarModule</title>
<path fill="none" stroke="#000000" d="M201.7836,-104C210.5841,-104 216.4818,-104 216.4818,-104 216.4818,-104 216.4818,-140.8939 216.4818,-140.8939"/>
<polygon fill="#000000" stroke="#000000" points="212.9818,-140.8938 216.4818,-150.8939 219.9818,-140.8939 212.9818,-140.8938"/>
</g>
<!-- MenuBarComponent  -->
<g id="node5" class="node">
<title>MenuBarComponent </title>
<polygon fill="#fb8072" stroke="#000000" points="337.7037,-252 200.2963,-252 200.2963,-216 337.7037,-216 337.7037,-252"/>
<text text-anchor="middle" x="269" y="-229.8" font-family="Times,serif" font-size="14.00" fill="#000000">MenuBarComponent </text>
</g>
<!-- MenuBarModule&#45;&gt;MenuBarComponent  -->
<g id="edge4" class="edge">
<title>MenuBarModule&#45;&gt;MenuBarComponent </title>
<path fill="none" stroke="#000000" stroke-dasharray="5,2" d="M269,-187.1061C269,-187.1061 269,-205.991 269,-205.991"/>
<polygon fill="#000000" stroke="#000000" points="265.5001,-205.9909 269,-215.991 272.5001,-205.991 265.5001,-205.9909"/>
</g>
</g>
</svg>
