<?xml version="1.0" encoding="UTF-8" standalone="no"?>
<!DOCTYPE svg PUBLIC "-//W3C//DTD SVG 1.1//EN"
 "http://www.w3.org/Graphics/SVG/1.1/DTD/svg11.dtd">
<!-- Generated by graphviz version 2.40.1 (20161225.0304)
 -->
<!-- Title: dependencies Pages: 1 -->
<svg width="504pt" height="284pt"
 viewBox="0.00 0.00 504.00 284.00" xmlns="http://www.w3.org/2000/svg" xmlns:xlink="http://www.w3.org/1999/xlink">
<g id="graph0" class="graph" transform="scale(1 1) rotate(0) translate(4 280)">
<title>dependencies</title>
<polygon fill="#ffffff" stroke="transparent" points="-4,4 -4,-280 500,-280 500,4 -4,4"/>
<text text-anchor="start" x="227.0091" y="-42.4" font-family="sans-serif" font-weight="bold" font-size="14.00" fill="#000000">Legend</text>
<polygon fill="#ffffb3" stroke="transparent" points="14,-10 14,-30 34,-30 34,-10 14,-10"/>
<text text-anchor="start" x="37.629" y="-15.4" font-family="sans-serif" font-size="14.00" fill="#000000"> &#160;Declarations</text>
<polygon fill="#8dd3c7" stroke="transparent" points="127,-10 127,-30 147,-30 147,-10 127,-10"/>
<text text-anchor="start" x="150.7251" y="-15.4" font-family="sans-serif" font-size="14.00" fill="#000000"> &#160;Module</text>
<polygon fill="#80b1d3" stroke="transparent" points="213,-10 213,-30 233,-30 233,-10 213,-10"/>
<text text-anchor="start" x="236.7812" y="-15.4" font-family="sans-serif" font-size="14.00" fill="#000000"> &#160;Bootstrap</text>
<polygon fill="#fdb462" stroke="transparent" points="310,-10 310,-30 330,-30 330,-10 310,-10"/>
<text text-anchor="start" x="333.6732" y="-15.4" font-family="sans-serif" font-size="14.00" fill="#000000"> &#160;Providers</text>
<polygon fill="#fb8072" stroke="transparent" points="406,-10 406,-30 426,-30 426,-10 406,-10"/>
<text text-anchor="start" x="429.7258" y="-15.4" font-family="sans-serif" font-size="14.00" fill="#000000"> &#160;Exports</text>
<g id="clust1" class="cluster">
<title>cluster_MenuBarModule</title>
<polygon fill="none" stroke="#000000" stroke-dasharray="1,5" points="88,-70 88,-268 408,-268 408,-70 88,-70"/>
</g>
<g id="clust3" class="cluster">
<title>cluster_MenuBarModule_imports</title>
<polygon fill="none" stroke="#000000" points="130,-78 130,-130 374,-130 374,-78 130,-78"/>
</g>
<g id="clust4" class="cluster">
<title>cluster_MenuBarModule_exports</title>
<polygon fill="none" stroke="#000000" points="96,-208 96,-260 400,-260 400,-208 96,-208"/>
</g>
<!-- CommonModule -->
<g id="node1" class="node">
<title>CommonModule</title>
<polygon fill="#8dd3c7" stroke="#000000" points="365.6681,-122 362.6681,-126 341.6681,-126 338.6681,-122 254.3319,-122 254.3319,-86 365.6681,-86 365.6681,-122"/>
<text text-anchor="middle" x="310" y="-99.8" font-family="Times,serif" font-size="14.00" fill="#000000">CommonModule</text>
</g>
<!-- MenuBarModule -->
<g id="node3" class="node">
<title>MenuBarModule</title>
<polygon fill="#8dd3c7" stroke="#000000" points="251.4216,-187 248.4216,-191 227.4216,-191 224.4216,-187 138.5784,-187 138.5784,-151 251.4216,-151 251.4216,-187"/>
<text text-anchor="middle" x="195" y="-164.8" font-family="Times,serif" font-size="14.00" fill="#000000">MenuBarModule</text>
</g>
<!-- CommonModule&#45;&gt;MenuBarModule -->
<g id="edge1" class="edge">
<title>CommonModule&#45;&gt;MenuBarModule</title>
<path fill="none" stroke="#000000" d="M254.1997,-104C247.8042,-104 243.5183,-104 243.5183,-104 243.5183,-104 243.5183,-140.8939 243.5183,-140.8939"/>
<polygon fill="#000000" stroke="#000000" points="240.0183,-140.8938 243.5183,-150.8939 247.0183,-140.8939 240.0183,-140.8938"/>
</g>
<!-- RouterModule -->
<g id="node2" class="node">
<title>RouterModule</title>
<polygon fill="#8dd3c7" stroke="#000000" points="235.6528,-122 232.6528,-126 211.6528,-126 208.6528,-122 138.3472,-122 138.3472,-86 235.6528,-86 235.6528,-122"/>
<text text-anchor="middle" x="187" y="-99.8" font-family="Times,serif" font-size="14.00" fill="#000000">RouterModule</text>
</g>
<!-- RouterModule&#45;&gt;MenuBarModule -->
<g id="edge2" class="edge">
<title>RouterModule&#45;&gt;MenuBarModule</title>
<path fill="none" stroke="#000000" d="M187.3079,-122.1061C187.3079,-122.1061 187.3079,-140.991 187.3079,-140.991"/>
<polygon fill="#000000" stroke="#000000" points="183.8079,-140.9909 187.3079,-150.991 190.8079,-140.991 183.8079,-140.9909"/>
</g>
<!-- MenuBarComponent  -->
<g id="node4" class="node">
<title>MenuBarComponent </title>
<polygon fill="#fb8072" stroke="#000000" points="391.7037,-252 254.2963,-252 254.2963,-216 391.7037,-216 391.7037,-252"/>
<text text-anchor="middle" x="323" y="-229.8" font-family="Times,serif" font-size="14.00" fill="#000000">MenuBarComponent </text>
</g>
<!-- MenuBarModule&#45;&gt;MenuBarComponent  -->
<g id="edge3" class="edge">
<title>MenuBarModule&#45;&gt;MenuBarComponent </title>
<path fill="none" stroke="#000000" stroke-dasharray="5,2" d="M243.4694,-187.1061C243.4694,-206.3391 243.4694,-234 243.4694,-234 243.4694,-234 244.5419,-234 244.5419,-234"/>
<polygon fill="#000000" stroke="#000000" points="244.1952,-237.5001 254.1952,-234 244.1952,-230.5001 244.1952,-237.5001"/>
</g>
<!-- DropdownDirective  -->
<g id="node5" class="node">
<title>DropdownDirective </title>
<polygon fill="#fb8072" stroke="#000000" points="235.9574,-252 104.0426,-252 104.0426,-216 235.9574,-216 235.9574,-252"/>
<text text-anchor="middle" x="170" y="-229.8" font-family="Times,serif" font-size="14.00" fill="#000000">DropdownDirective </text>
</g>
<!-- MenuBarModule&#45;&gt;DropdownDirective  -->
<g id="edge4" class="edge">
<title>MenuBarModule&#45;&gt;DropdownDirective </title>
<path fill="none" stroke="#000000" stroke-dasharray="5,2" d="M187.259,-187.1061C187.259,-187.1061 187.259,-205.991 187.259,-205.991"/>
<polygon fill="#000000" stroke="#000000" points="183.759,-205.9909 187.259,-215.991 190.759,-205.991 183.759,-205.9909"/>
</g>
</g>
</svg>
