<?xml version="1.0" encoding="UTF-8" standalone="no"?>
<!DOCTYPE svg PUBLIC "-//W3C//DTD SVG 1.1//EN"
 "http://www.w3.org/Graphics/SVG/1.1/DTD/svg11.dtd">
<!-- Generated by graphviz version 2.40.1 (20161225.0304)
 -->
<!-- Title: dependencies Pages: 1 -->
<svg width="516pt" height="284pt"
 viewBox="0.00 0.00 516.00 284.00" xmlns="http://www.w3.org/2000/svg" xmlns:xlink="http://www.w3.org/1999/xlink">
<g id="graph0" class="graph" transform="scale(1 1) rotate(0) translate(4 280)">
<title>dependencies</title>
<polygon fill="#ffffff" stroke="transparent" points="-4,4 -4,-280 512,-280 512,4 -4,4"/>
<text text-anchor="start" x="233.0091" y="-42.4" font-family="sans-serif" font-weight="bold" font-size="14.00" fill="#000000">Legend</text>
<polygon fill="#ffffb3" stroke="transparent" points="20,-10 20,-30 40,-30 40,-10 20,-10"/>
<text text-anchor="start" x="43.629" y="-15.4" font-family="sans-serif" font-size="14.00" fill="#000000"> &#160;Declarations</text>
<polygon fill="#8dd3c7" stroke="transparent" points="133,-10 133,-30 153,-30 153,-10 133,-10"/>
<text text-anchor="start" x="156.7251" y="-15.4" font-family="sans-serif" font-size="14.00" fill="#000000"> &#160;Module</text>
<polygon fill="#80b1d3" stroke="transparent" points="219,-10 219,-30 239,-30 239,-10 219,-10"/>
<text text-anchor="start" x="242.7812" y="-15.4" font-family="sans-serif" font-size="14.00" fill="#000000"> &#160;Bootstrap</text>
<polygon fill="#fdb462" stroke="transparent" points="316,-10 316,-30 336,-30 336,-10 316,-10"/>
<text text-anchor="start" x="339.6732" y="-15.4" font-family="sans-serif" font-size="14.00" fill="#000000"> &#160;Providers</text>
<polygon fill="#fb8072" stroke="transparent" points="412,-10 412,-30 432,-30 432,-10 412,-10"/>
<text text-anchor="start" x="435.7258" y="-15.4" font-family="sans-serif" font-size="14.00" fill="#000000"> &#160;Exports</text>
<g id="clust1" class="cluster">
<title>cluster_MenuBarModule</title>
<polygon fill="none" stroke="#000000" stroke-dasharray="1,5" points="8,-70 8,-268 500,-268 500,-70 8,-70"/>
</g>
<g id="clust2" class="cluster">
<title>cluster_MenuBarModule_declarations</title>
<polygon fill="none" stroke="#000000" points="194,-78 194,-130 492,-130 492,-78 194,-78"/>
</g>
<g id="clust5" class="cluster">
<title>cluster_MenuBarModule_imports</title>
<polygon fill="none" stroke="#000000" points="16,-78 16,-130 186,-130 186,-78 16,-78"/>
</g>
<g id="clust6" class="cluster">
<title>cluster_MenuBarModule_exports</title>
<polygon fill="none" stroke="#000000" points="190,-208 190,-260 344,-260 344,-208 190,-208"/>
</g>
<!-- MenuBarComponent -->
<g id="node1" class="node">
<title>MenuBarComponent</title>
<polygon fill="#ffffb3" stroke="#000000" points="484.2036,-122 349.7964,-122 349.7964,-86 484.2036,-86 484.2036,-122"/>
<text text-anchor="middle" x="417" y="-99.8" font-family="Times,serif" font-size="14.00" fill="#000000">MenuBarComponent</text>
</g>
<!-- MenuBarModule -->
<g id="node3" class="node">
<title>MenuBarModule</title>
<polygon fill="#8dd3c7" stroke="#000000" points="323.4216,-187 320.4216,-191 299.4216,-191 296.4216,-187 210.5784,-187 210.5784,-151 323.4216,-151 323.4216,-187"/>
<text text-anchor="middle" x="267" y="-164.8" font-family="Times,serif" font-size="14.00" fill="#000000">MenuBarModule</text>
</g>
<!-- MenuBarComponent&#45;&gt;MenuBarModule -->
<g id="edge1" class="edge">
<title>MenuBarComponent&#45;&gt;MenuBarModule</title>
<path fill="none" stroke="#000000" d="M417,-122.1061C417,-141.3391 417,-169 417,-169 417,-169 333.2812,-169 333.2812,-169"/>
<polygon fill="#000000" stroke="#000000" points="333.2813,-165.5001 323.2812,-169 333.2812,-172.5001 333.2813,-165.5001"/>
</g>
<!-- NavItemComponent -->
<g id="node2" class="node">
<title>NavItemComponent</title>
<polygon fill="#ffffb3" stroke="#000000" points="332.3104,-122 201.6896,-122 201.6896,-86 332.3104,-86 332.3104,-122"/>
<text text-anchor="middle" x="267" y="-99.8" font-family="Times,serif" font-size="14.00" fill="#000000">NavItemComponent</text>
</g>
<!-- NavItemComponent&#45;&gt;MenuBarModule -->
<g id="edge2" class="edge">
<title>NavItemComponent&#45;&gt;MenuBarModule</title>
<path fill="none" stroke="#000000" d="M267,-122.1061C267,-122.1061 267,-140.991 267,-140.991"/>
<polygon fill="#000000" stroke="#000000" points="263.5001,-140.9909 267,-150.991 270.5001,-140.991 263.5001,-140.9909"/>
</g>
<!-- MenuBarComponent  -->
<g id="node5" class="node">
<title>MenuBarComponent </title>
<polygon fill="#fb8072" stroke="#000000" points="335.7037,-252 198.2963,-252 198.2963,-216 335.7037,-216 335.7037,-252"/>
<text text-anchor="middle" x="267" y="-229.8" font-family="Times,serif" font-size="14.00" fill="#000000">MenuBarComponent </text>
</g>
<!-- MenuBarModule&#45;&gt;MenuBarComponent  -->
<g id="edge4" class="edge">
<title>MenuBarModule&#45;&gt;MenuBarComponent </title>
<path fill="none" stroke="#000000" stroke-dasharray="5,2" d="M267,-187.1061C267,-187.1061 267,-205.991 267,-205.991"/>
<polygon fill="#000000" stroke="#000000" points="263.5001,-205.9909 267,-215.991 270.5001,-205.991 263.5001,-205.9909"/>
</g>
<!-- RebirthCommonModule -->
<g id="node4" class="node">
<title>RebirthCommonModule</title>
<polygon fill="#8dd3c7" stroke="#000000" points="177.661,-122 174.661,-126 153.661,-126 150.661,-122 24.339,-122 24.339,-86 177.661,-86 177.661,-122"/>
<text text-anchor="middle" x="101" y="-99.8" font-family="Times,serif" font-size="14.00" fill="#000000">RebirthCommonModule</text>
</g>
<!-- RebirthCommonModule&#45;&gt;MenuBarModule -->
<g id="edge3" class="edge">
<title>RebirthCommonModule&#45;&gt;MenuBarModule</title>
<path fill="none" stroke="#000000" d="M101,-122.1061C101,-141.3391 101,-169 101,-169 101,-169 200.3365,-169 200.3365,-169"/>
<polygon fill="#000000" stroke="#000000" points="200.3365,-172.5001 210.3365,-169 200.3365,-165.5001 200.3365,-172.5001"/>
</g>
</g>
</svg>
