<?xml version="1.0" encoding="UTF-8" standalone="no"?>
<!DOCTYPE svg PUBLIC "-//W3C//DTD SVG 1.1//EN"
 "http://www.w3.org/Graphics/SVG/1.1/DTD/svg11.dtd">
<!-- Generated by graphviz version 2.40.1 (20161225.0304)
 -->
<!-- Title: dependencies Pages: 1 -->
<svg width="587pt" height="284pt"
 viewBox="0.00 0.00 587.00 284.00" xmlns="http://www.w3.org/2000/svg" xmlns:xlink="http://www.w3.org/1999/xlink">
<g id="graph0" class="graph" transform="scale(1 1) rotate(0) translate(4 280)">
<title>dependencies</title>
<polygon fill="#ffffff" stroke="transparent" points="-4,4 -4,-280 583,-280 583,4 -4,4"/>
<text text-anchor="start" x="268.5091" y="-42.4" font-family="sans-serif" font-weight="bold" font-size="14.00" fill="#000000">Legend</text>
<polygon fill="#ffffb3" stroke="transparent" points="55.5,-10 55.5,-30 75.5,-30 75.5,-10 55.5,-10"/>
<text text-anchor="start" x="79.129" y="-15.4" font-family="sans-serif" font-size="14.00" fill="#000000"> &#160;Declarations</text>
<polygon fill="#8dd3c7" stroke="transparent" points="168.5,-10 168.5,-30 188.5,-30 188.5,-10 168.5,-10"/>
<text text-anchor="start" x="192.2251" y="-15.4" font-family="sans-serif" font-size="14.00" fill="#000000"> &#160;Module</text>
<polygon fill="#80b1d3" stroke="transparent" points="254.5,-10 254.5,-30 274.5,-30 274.5,-10 254.5,-10"/>
<text text-anchor="start" x="278.2812" y="-15.4" font-family="sans-serif" font-size="14.00" fill="#000000"> &#160;Bootstrap</text>
<polygon fill="#fdb462" stroke="transparent" points="351.5,-10 351.5,-30 371.5,-30 371.5,-10 351.5,-10"/>
<text text-anchor="start" x="375.1732" y="-15.4" font-family="sans-serif" font-size="14.00" fill="#000000"> &#160;Providers</text>
<polygon fill="#fb8072" stroke="transparent" points="447.5,-10 447.5,-30 467.5,-30 467.5,-10 447.5,-10"/>
<text text-anchor="start" x="471.2258" y="-15.4" font-family="sans-serif" font-size="14.00" fill="#000000"> &#160;Exports</text>
<g id="clust1" class="cluster">
<title>cluster_TreeViewModule</title>
<polygon fill="none" stroke="#000000" stroke-dasharray="1,5" points="8,-70 8,-268 571,-268 571,-70 8,-70"/>
</g>
<g id="clust3" class="cluster">
<title>cluster_TreeViewModule_imports</title>
<polygon fill="none" stroke="#000000" points="16,-78 16,-130 563,-130 563,-78 16,-78"/>
</g>
<g id="clust4" class="cluster">
<title>cluster_TreeViewModule_exports</title>
<polygon fill="none" stroke="#000000" points="52,-208 52,-260 527,-260 527,-208 52,-208"/>
</g>
<!-- CommonModule -->
<g id="node1" class="node">
<title>CommonModule</title>
<polygon fill="#8dd3c7" stroke="#000000" points="554.6681,-122 551.6681,-126 530.6681,-126 527.6681,-122 443.3319,-122 443.3319,-86 554.6681,-86 554.6681,-122"/>
<text text-anchor="middle" x="499" y="-99.8" font-family="Times,serif" font-size="14.00" fill="#000000">CommonModule</text>
</g>
<!-- TreeViewModule -->
<g id="node5" class="node">
<title>TreeViewModule</title>
<polygon fill="#8dd3c7" stroke="#000000" points="347.5116,-187 344.5116,-191 323.5116,-191 320.5116,-187 232.4884,-187 232.4884,-151 347.5116,-151 347.5116,-187"/>
<text text-anchor="middle" x="290" y="-164.8" font-family="Times,serif" font-size="14.00" fill="#000000">TreeViewModule</text>
</g>
<!-- CommonModule&#45;&gt;TreeViewModule -->
<g id="edge1" class="edge">
<title>CommonModule&#45;&gt;TreeViewModule</title>
<path fill="none" stroke="#000000" d="M481.2814,-122.0225C481.2814,-139.3734 481.2814,-163 481.2814,-163 481.2814,-163 357.6501,-163 357.6501,-163"/>
<polygon fill="#000000" stroke="#000000" points="357.6502,-159.5001 347.6501,-163 357.6501,-166.5001 357.6502,-159.5001"/>
</g>
<!-- FormsModule -->
<g id="node2" class="node">
<title>FormsModule</title>
<polygon fill="#8dd3c7" stroke="#000000" points="425.8288,-122 422.8288,-126 401.8288,-126 398.8288,-122 330.1712,-122 330.1712,-86 425.8288,-86 425.8288,-122"/>
<text text-anchor="middle" x="378" y="-99.8" font-family="Times,serif" font-size="14.00" fill="#000000">FormsModule</text>
</g>
<!-- FormsModule&#45;&gt;TreeViewModule -->
<g id="edge2" class="edge">
<title>FormsModule&#45;&gt;TreeViewModule</title>
<path fill="none" stroke="#000000" d="M339.0456,-122.1061C339.0456,-122.1061 339.0456,-140.991 339.0456,-140.991"/>
<polygon fill="#000000" stroke="#000000" points="335.5457,-140.9909 339.0456,-150.991 342.5457,-140.991 335.5457,-140.9909"/>
</g>
<!-- CheckboxGroupModule -->
<g id="node3" class="node">
<title>CheckboxGroupModule</title>
<polygon fill="#8dd3c7" stroke="#000000" points="312.0828,-122 309.0828,-126 288.0828,-126 285.0828,-122 159.9172,-122 159.9172,-86 312.0828,-86 312.0828,-122"/>
<text text-anchor="middle" x="236" y="-99.8" font-family="Times,serif" font-size="14.00" fill="#000000">CheckboxGroupModule</text>
</g>
<!-- CheckboxGroupModule&#45;&gt;TreeViewModule -->
<g id="edge3" class="edge">
<title>CheckboxGroupModule&#45;&gt;TreeViewModule</title>
<path fill="none" stroke="#000000" d="M272.1431,-122.1061C272.1431,-122.1061 272.1431,-140.991 272.1431,-140.991"/>
<polygon fill="#000000" stroke="#000000" points="268.6431,-140.9909 272.1431,-150.991 275.6431,-140.991 268.6431,-140.9909"/>
</g>
<!-- DraggableModule -->
<g id="node4" class="node">
<title>DraggableModule</title>
<polygon fill="#8dd3c7" stroke="#000000" points="141.8515,-122 138.8515,-126 117.8515,-126 114.8515,-122 24.1485,-122 24.1485,-86 141.8515,-86 141.8515,-122"/>
<text text-anchor="middle" x="83" y="-99.8" font-family="Times,serif" font-size="14.00" fill="#000000">DraggableModule</text>
</g>
<!-- DraggableModule&#45;&gt;TreeViewModule -->
<g id="edge4" class="edge">
<title>DraggableModule&#45;&gt;TreeViewModule</title>
<path fill="none" stroke="#000000" d="M101.0686,-122.0225C101.0686,-139.3734 101.0686,-163 101.0686,-163 101.0686,-163 222.2877,-163 222.2877,-163"/>
<polygon fill="#000000" stroke="#000000" points="222.2878,-166.5001 232.2877,-163 222.2877,-159.5001 222.2878,-166.5001"/>
</g>
<!-- TreeViewComponent  -->
<g id="node6" class="node">
<title>TreeViewComponent </title>
<polygon fill="#fb8072" stroke="#000000" points="519.2934,-252 378.7066,-252 378.7066,-216 519.2934,-216 519.2934,-252"/>
<text text-anchor="middle" x="449" y="-229.8" font-family="Times,serif" font-size="14.00" fill="#000000">TreeViewComponent </text>
</g>
<!-- TreeViewModule&#45;&gt;TreeViewComponent  -->
<g id="edge5" class="edge">
<title>TreeViewModule&#45;&gt;TreeViewComponent </title>
<path fill="none" stroke="#000000" stroke-dasharray="5,2" d="M347.7093,-175C375.1847,-175 402.1337,-175 402.1337,-175 402.1337,-175 402.1337,-205.9775 402.1337,-205.9775"/>
<polygon fill="#000000" stroke="#000000" points="398.6338,-205.9774 402.1337,-215.9775 405.6338,-205.9775 398.6338,-205.9774"/>
</g>
<!-- TreeNodeComponent  -->
<g id="node7" class="node">
<title>TreeNodeComponent </title>
<polygon fill="#fb8072" stroke="#000000" points="360.2961,-252 219.7039,-252 219.7039,-216 360.2961,-216 360.2961,-252"/>
<text text-anchor="middle" x="290" y="-229.8" font-family="Times,serif" font-size="14.00" fill="#000000">TreeNodeComponent </text>
</g>
<!-- TreeViewModule&#45;&gt;TreeNodeComponent  -->
<g id="edge6" class="edge">
<title>TreeViewModule&#45;&gt;TreeNodeComponent </title>
<path fill="none" stroke="#000000" stroke-dasharray="5,2" d="M290,-187.1061C290,-187.1061 290,-205.991 290,-205.991"/>
<polygon fill="#000000" stroke="#000000" points="286.5001,-205.9909 290,-215.991 293.5001,-205.991 286.5001,-205.9909"/>
</g>
<!-- TreePanelComponent  -->
<g id="node8" class="node">
<title>TreePanelComponent </title>
<polygon fill="#fb8072" stroke="#000000" points="201.5778,-252 60.4222,-252 60.4222,-216 201.5778,-216 201.5778,-252"/>
<text text-anchor="middle" x="131" y="-229.8" font-family="Times,serif" font-size="14.00" fill="#000000">TreePanelComponent </text>
</g>
<!-- TreeViewModule&#45;&gt;TreePanelComponent  -->
<g id="edge7" class="edge">
<title>TreeViewModule&#45;&gt;TreePanelComponent </title>
<path fill="none" stroke="#000000" stroke-dasharray="5,2" d="M232.2414,-175C206.0655,-175 180.8736,-175 180.8736,-175 180.8736,-175 180.8736,-205.9775 180.8736,-205.9775"/>
<polygon fill="#000000" stroke="#000000" points="177.3737,-205.9774 180.8736,-215.9775 184.3737,-205.9775 177.3737,-205.9774"/>
</g>
</g>
</svg>
