<?xml version="1.0" encoding="UTF-8" standalone="no"?>
<!DOCTYPE svg PUBLIC "-//W3C//DTD SVG 1.1//EN"
 "http://www.w3.org/Graphics/SVG/1.1/DTD/svg11.dtd">
<!-- Generated by graphviz version 2.40.1 (20161225.0304)
 -->
<!-- Title: dependencies Pages: 1 -->
<svg width="818pt" height="284pt"
 viewBox="0.00 0.00 818.00 284.00" xmlns="http://www.w3.org/2000/svg" xmlns:xlink="http://www.w3.org/1999/xlink">
<g id="graph0" class="graph" transform="scale(1 1) rotate(0) translate(4 280)">
<title>dependencies</title>
<polygon fill="#ffffff" stroke="transparent" points="-4,4 -4,-280 814,-280 814,4 -4,4"/>
<text text-anchor="start" x="384.0091" y="-42.4" font-family="sans-serif" font-weight="bold" font-size="14.00" fill="#000000">Legend</text>
<polygon fill="#ffffb3" stroke="transparent" points="171,-10 171,-30 191,-30 191,-10 171,-10"/>
<text text-anchor="start" x="194.629" y="-15.4" font-family="sans-serif" font-size="14.00" fill="#000000"> &#160;Declarations</text>
<polygon fill="#8dd3c7" stroke="transparent" points="284,-10 284,-30 304,-30 304,-10 284,-10"/>
<text text-anchor="start" x="307.7251" y="-15.4" font-family="sans-serif" font-size="14.00" fill="#000000"> &#160;Module</text>
<polygon fill="#80b1d3" stroke="transparent" points="370,-10 370,-30 390,-30 390,-10 370,-10"/>
<text text-anchor="start" x="393.7812" y="-15.4" font-family="sans-serif" font-size="14.00" fill="#000000"> &#160;Bootstrap</text>
<polygon fill="#fdb462" stroke="transparent" points="467,-10 467,-30 487,-30 487,-10 467,-10"/>
<text text-anchor="start" x="490.6732" y="-15.4" font-family="sans-serif" font-size="14.00" fill="#000000"> &#160;Providers</text>
<polygon fill="#fb8072" stroke="transparent" points="563,-10 563,-30 583,-30 583,-10 563,-10"/>
<text text-anchor="start" x="586.7258" y="-15.4" font-family="sans-serif" font-size="14.00" fill="#000000"> &#160;Exports</text>
<g id="clust1" class="cluster">
<title>cluster_TreeViewModule</title>
<polygon fill="none" stroke="#000000" stroke-dasharray="1,5" points="8,-70 8,-268 802,-268 802,-70 8,-70"/>
</g>
<g id="clust2" class="cluster">
<title>cluster_TreeViewModule_declarations</title>
<polygon fill="none" stroke="#000000" points="328,-78 328,-130 794,-130 794,-78 328,-78"/>
</g>
<g id="clust6" class="cluster">
<title>cluster_TreeViewModule_imports</title>
<polygon fill="none" stroke="#000000" points="16,-78 16,-130 320,-130 320,-78 16,-78"/>
</g>
<g id="clust7" class="cluster">
<title>cluster_TreeViewModule_exports</title>
<polygon fill="none" stroke="#000000" points="168,-208 168,-260 642,-260 642,-208 168,-208"/>
</g>
<!-- TreeNodeComponent -->
<g id="node1" class="node">
<title>TreeNodeComponent</title>
<polygon fill="#ffffb3" stroke="#000000" points="785.7963,-122 648.2037,-122 648.2037,-86 785.7963,-86 785.7963,-122"/>
<text text-anchor="middle" x="717" y="-99.8" font-family="Times,serif" font-size="14.00" fill="#000000">TreeNodeComponent</text>
</g>
<!-- TreeViewModule -->
<g id="node4" class="node">
<title>TreeViewModule</title>
<polygon fill="#8dd3c7" stroke="#000000" points="462.5116,-187 459.5116,-191 438.5116,-191 435.5116,-187 347.4884,-187 347.4884,-151 462.5116,-151 462.5116,-187"/>
<text text-anchor="middle" x="405" y="-164.8" font-family="Times,serif" font-size="14.00" fill="#000000">TreeViewModule</text>
</g>
<!-- TreeNodeComponent&#45;&gt;TreeViewModule -->
<g id="edge1" class="edge">
<title>TreeNodeComponent&#45;&gt;TreeViewModule</title>
<path fill="none" stroke="#000000" d="M717,-122.1061C717,-141.3391 717,-169 717,-169 717,-169 472.5892,-169 472.5892,-169"/>
<polygon fill="#000000" stroke="#000000" points="472.5892,-165.5001 462.5892,-169 472.5892,-172.5001 472.5892,-165.5001"/>
</g>
<!-- TreePanelComponent -->
<g id="node2" class="node">
<title>TreePanelComponent</title>
<polygon fill="#ffffb3" stroke="#000000" points="630.0772,-122 491.9228,-122 491.9228,-86 630.0772,-86 630.0772,-122"/>
<text text-anchor="middle" x="561" y="-99.8" font-family="Times,serif" font-size="14.00" fill="#000000">TreePanelComponent</text>
</g>
<!-- TreePanelComponent&#45;&gt;TreeViewModule -->
<g id="edge2" class="edge">
<title>TreePanelComponent&#45;&gt;TreeViewModule</title>
<path fill="none" stroke="#000000" d="M584.5597,-122.027C584.5597,-138.3976 584.5597,-160 584.5597,-160 584.5597,-160 472.8022,-160 472.8022,-160"/>
<polygon fill="#000000" stroke="#000000" points="472.8022,-156.5001 462.8022,-160 472.8022,-163.5001 472.8022,-156.5001"/>
</g>
<!-- TreeViewComponent -->
<g id="node3" class="node">
<title>TreeViewComponent</title>
<polygon fill="#ffffb3" stroke="#000000" points="473.7935,-122 336.2065,-122 336.2065,-86 473.7935,-86 473.7935,-122"/>
<text text-anchor="middle" x="405" y="-99.8" font-family="Times,serif" font-size="14.00" fill="#000000">TreeViewComponent</text>
</g>
<!-- TreeViewComponent&#45;&gt;TreeViewModule -->
<g id="edge3" class="edge">
<title>TreeViewComponent&#45;&gt;TreeViewModule</title>
<path fill="none" stroke="#000000" d="M405,-122.1061C405,-122.1061 405,-140.991 405,-140.991"/>
<polygon fill="#000000" stroke="#000000" points="401.5001,-140.9909 405,-150.991 408.5001,-140.991 401.5001,-140.9909"/>
</g>
<!-- TreeNodeComponent  -->
<g id="node7" class="node">
<title>TreeNodeComponent </title>
<polygon fill="#fb8072" stroke="#000000" points="634.2961,-252 493.7039,-252 493.7039,-216 634.2961,-216 634.2961,-252"/>
<text text-anchor="middle" x="564" y="-229.8" font-family="Times,serif" font-size="14.00" fill="#000000">TreeNodeComponent </text>
</g>
<!-- TreeViewModule&#45;&gt;TreeNodeComponent  -->
<g id="edge6" class="edge">
<title>TreeViewModule&#45;&gt;TreeNodeComponent </title>
<path fill="none" stroke="#000000" stroke-dasharray="5,2" d="M462.6405,-178C498.981,-178 539.0809,-178 539.0809,-178 539.0809,-178 539.0809,-205.973 539.0809,-205.973"/>
<polygon fill="#000000" stroke="#000000" points="535.581,-205.973 539.0809,-215.973 542.581,-205.973 535.581,-205.973"/>
</g>
<!-- TreePanelComponent  -->
<g id="node8" class="node">
<title>TreePanelComponent </title>
<polygon fill="#fb8072" stroke="#000000" points="475.5778,-252 334.4222,-252 334.4222,-216 475.5778,-216 475.5778,-252"/>
<text text-anchor="middle" x="405" y="-229.8" font-family="Times,serif" font-size="14.00" fill="#000000">TreePanelComponent </text>
</g>
<!-- TreeViewModule&#45;&gt;TreePanelComponent  -->
<g id="edge7" class="edge">
<title>TreeViewModule&#45;&gt;TreePanelComponent </title>
<path fill="none" stroke="#000000" stroke-dasharray="5,2" d="M405,-187.1061C405,-187.1061 405,-205.991 405,-205.991"/>
<polygon fill="#000000" stroke="#000000" points="401.5001,-205.9909 405,-215.991 408.5001,-205.991 401.5001,-205.9909"/>
</g>
<!-- TreeViewComponent  -->
<g id="node9" class="node">
<title>TreeViewComponent </title>
<polygon fill="#fb8072" stroke="#000000" points="316.2934,-252 175.7066,-252 175.7066,-216 316.2934,-216 316.2934,-252"/>
<text text-anchor="middle" x="246" y="-229.8" font-family="Times,serif" font-size="14.00" fill="#000000">TreeViewComponent </text>
</g>
<!-- TreeViewModule&#45;&gt;TreeViewComponent  -->
<g id="edge8" class="edge">
<title>TreeViewModule&#45;&gt;TreeViewComponent </title>
<path fill="none" stroke="#000000" stroke-dasharray="5,2" d="M347.092,-178C309.1564,-178 266.5621,-178 266.5621,-178 266.5621,-178 266.5621,-205.973 266.5621,-205.973"/>
<polygon fill="#000000" stroke="#000000" points="263.0622,-205.973 266.5621,-215.973 270.0622,-205.973 263.0622,-205.973"/>
</g>
<!-- CheckboxGroupModule -->
<g id="node5" class="node">
<title>CheckboxGroupModule</title>
<polygon fill="#8dd3c7" stroke="#000000" points="312.0828,-122 309.0828,-126 288.0828,-126 285.0828,-122 159.9172,-122 159.9172,-86 312.0828,-86 312.0828,-122"/>
<text text-anchor="middle" x="236" y="-99.8" font-family="Times,serif" font-size="14.00" fill="#000000">CheckboxGroupModule</text>
</g>
<!-- CheckboxGroupModule&#45;&gt;TreeViewModule -->
<g id="edge4" class="edge">
<title>CheckboxGroupModule&#45;&gt;TreeViewModule</title>
<path fill="none" stroke="#000000" d="M221.0827,-122.027C221.0827,-138.3976 221.0827,-160 221.0827,-160 221.0827,-160 337.312,-160 337.312,-160"/>
<polygon fill="#000000" stroke="#000000" points="337.3121,-163.5001 347.312,-160 337.312,-156.5001 337.3121,-163.5001"/>
</g>
<!-- DraggableModule -->
<g id="node6" class="node">
<title>DraggableModule</title>
<polygon fill="#8dd3c7" stroke="#000000" points="141.8515,-122 138.8515,-126 117.8515,-126 114.8515,-122 24.1485,-122 24.1485,-86 141.8515,-86 141.8515,-122"/>
<text text-anchor="middle" x="83" y="-99.8" font-family="Times,serif" font-size="14.00" fill="#000000">DraggableModule</text>
</g>
<!-- DraggableModule&#45;&gt;TreeViewModule -->
<g id="edge5" class="edge">
<title>DraggableModule&#45;&gt;TreeViewModule</title>
<path fill="none" stroke="#000000" d="M83,-122.1061C83,-141.3391 83,-169 83,-169 83,-169 337.4329,-169 337.4329,-169"/>
<polygon fill="#000000" stroke="#000000" points="337.4329,-172.5001 347.4329,-169 337.4328,-165.5001 337.4329,-172.5001"/>
</g>
</g>
</svg>
