<?xml version="1.0" encoding="UTF-8" standalone="no"?>
<!DOCTYPE svg PUBLIC "-//W3C//DTD SVG 1.1//EN"
 "http://www.w3.org/Graphics/SVG/1.1/DTD/svg11.dtd">
<!-- Generated by graphviz version 2.40.1 (20161225.0304)
 -->
<!-- Title: dependencies Pages: 1 -->
<svg width="504pt" height="284pt"
 viewBox="0.00 0.00 504.00 284.00" xmlns="http://www.w3.org/2000/svg" xmlns:xlink="http://www.w3.org/1999/xlink">
<g id="graph0" class="graph" transform="scale(1 1) rotate(0) translate(4 280)">
<title>dependencies</title>
<polygon fill="#ffffff" stroke="transparent" points="-4,4 -4,-280 500,-280 500,4 -4,4"/>
<text text-anchor="start" x="227.0091" y="-42.4" font-family="sans-serif" font-weight="bold" font-size="14.00" fill="#000000">Legend</text>
<polygon fill="#ffffb3" stroke="transparent" points="14,-10 14,-30 34,-30 34,-10 14,-10"/>
<text text-anchor="start" x="37.629" y="-15.4" font-family="sans-serif" font-size="14.00" fill="#000000"> &#160;Declarations</text>
<polygon fill="#8dd3c7" stroke="transparent" points="127,-10 127,-30 147,-30 147,-10 127,-10"/>
<text text-anchor="start" x="150.7251" y="-15.4" font-family="sans-serif" font-size="14.00" fill="#000000"> &#160;Module</text>
<polygon fill="#80b1d3" stroke="transparent" points="213,-10 213,-30 233,-30 233,-10 213,-10"/>
<text text-anchor="start" x="236.7812" y="-15.4" font-family="sans-serif" font-size="14.00" fill="#000000"> &#160;Bootstrap</text>
<polygon fill="#fdb462" stroke="transparent" points="310,-10 310,-30 330,-30 330,-10 310,-10"/>
<text text-anchor="start" x="333.6732" y="-15.4" font-family="sans-serif" font-size="14.00" fill="#000000"> &#160;Providers</text>
<polygon fill="#fb8072" stroke="transparent" points="406,-10 406,-30 426,-30 426,-10 406,-10"/>
<text text-anchor="start" x="429.7258" y="-15.4" font-family="sans-serif" font-size="14.00" fill="#000000"> &#160;Exports</text>
<g id="clust1" class="cluster">
<title>cluster_TreeViewModule</title>
<polygon fill="none" stroke="#000000" stroke-dasharray="1,5" points="34.5,-70 34.5,-268 461.5,-268 461.5,-70 34.5,-70"/>
</g>
<g id="clust3" class="cluster">
<title>cluster_TreeViewModule_imports</title>
<polygon fill="none" stroke="#000000" points="42.5,-78 42.5,-130 453.5,-130 453.5,-78 42.5,-78"/>
</g>
<g id="clust4" class="cluster">
<title>cluster_TreeViewModule_exports</title>
<polygon fill="none" stroke="#000000" points="90.5,-208 90.5,-260 405.5,-260 405.5,-208 90.5,-208"/>
</g>
<!-- CommonModule -->
<g id="node1" class="node">
<title>CommonModule</title>
<polygon fill="#8dd3c7" stroke="#000000" points="445.1681,-122 442.1681,-126 421.1681,-126 418.1681,-122 333.8319,-122 333.8319,-86 445.1681,-86 445.1681,-122"/>
<text text-anchor="middle" x="389.5" y="-99.8" font-family="Times,serif" font-size="14.00" fill="#000000">CommonModule</text>
</g>
<!-- TreeViewModule -->
<g id="node4" class="node">
<title>TreeViewModule</title>
<polygon fill="#8dd3c7" stroke="#000000" points="326.0116,-187 323.0116,-191 302.0116,-191 299.0116,-187 210.9884,-187 210.9884,-151 326.0116,-151 326.0116,-187"/>
<text text-anchor="middle" x="268.5" y="-164.8" font-family="Times,serif" font-size="14.00" fill="#000000">TreeViewModule</text>
</g>
<!-- CommonModule&#45;&gt;TreeViewModule -->
<g id="edge1" class="edge">
<title>CommonModule&#45;&gt;TreeViewModule</title>
<path fill="none" stroke="#000000" d="M333.7352,-104C326.3156,-104 321.2097,-104 321.2097,-104 321.2097,-104 321.2097,-140.8939 321.2097,-140.8939"/>
<polygon fill="#000000" stroke="#000000" points="317.7098,-140.8938 321.2097,-150.8939 324.7098,-140.8939 317.7098,-140.8938"/>
</g>
<!-- FormsModule -->
<g id="node2" class="node">
<title>FormsModule</title>
<polygon fill="#8dd3c7" stroke="#000000" points="316.3288,-122 313.3288,-126 292.3288,-126 289.3288,-122 220.6712,-122 220.6712,-86 316.3288,-86 316.3288,-122"/>
<text text-anchor="middle" x="268.5" y="-99.8" font-family="Times,serif" font-size="14.00" fill="#000000">FormsModule</text>
</g>
<!-- FormsModule&#45;&gt;TreeViewModule -->
<g id="edge2" class="edge">
<title>FormsModule&#45;&gt;TreeViewModule</title>
<path fill="none" stroke="#000000" d="M268.5,-122.1061C268.5,-122.1061 268.5,-140.991 268.5,-140.991"/>
<polygon fill="#000000" stroke="#000000" points="265.0001,-140.9909 268.5,-150.991 272.0001,-140.991 265.0001,-140.9909"/>
</g>
<!-- CheckboxGroupModule -->
<g id="node3" class="node">
<title>CheckboxGroupModule</title>
<polygon fill="#8dd3c7" stroke="#000000" points="202.5828,-122 199.5828,-126 178.5828,-126 175.5828,-122 50.4172,-122 50.4172,-86 202.5828,-86 202.5828,-122"/>
<text text-anchor="middle" x="126.5" y="-99.8" font-family="Times,serif" font-size="14.00" fill="#000000">CheckboxGroupModule</text>
</g>
<!-- CheckboxGroupModule&#45;&gt;TreeViewModule -->
<g id="edge3" class="edge">
<title>CheckboxGroupModule&#45;&gt;TreeViewModule</title>
<path fill="none" stroke="#000000" d="M202.6152,-104C210.553,-104 215.7903,-104 215.7903,-104 215.7903,-104 215.7903,-140.8939 215.7903,-140.8939"/>
<polygon fill="#000000" stroke="#000000" points="212.2904,-140.8938 215.7903,-150.8939 219.2904,-140.8939 212.2904,-140.8938"/>
</g>
<!-- TreeViewComponent  -->
<g id="node5" class="node">
<title>TreeViewComponent </title>
<polygon fill="#fb8072" stroke="#000000" points="397.7934,-252 257.2066,-252 257.2066,-216 397.7934,-216 397.7934,-252"/>
<text text-anchor="middle" x="327.5" y="-229.8" font-family="Times,serif" font-size="14.00" fill="#000000">TreeViewComponent </text>
</g>
<!-- TreeViewModule&#45;&gt;TreeViewComponent  -->
<g id="edge4" class="edge">
<title>TreeViewModule&#45;&gt;TreeViewComponent </title>
<path fill="none" stroke="#000000" stroke-dasharray="5,2" d="M291.6794,-187.1061C291.6794,-187.1061 291.6794,-205.991 291.6794,-205.991"/>
<polygon fill="#000000" stroke="#000000" points="288.1794,-205.9909 291.6794,-215.991 295.1794,-205.991 288.1794,-205.9909"/>
</g>
<!-- TreeNodeComponent  -->
<g id="node6" class="node">
<title>TreeNodeComponent </title>
<polygon fill="#fb8072" stroke="#000000" points="238.7961,-252 98.2039,-252 98.2039,-216 238.7961,-216 238.7961,-252"/>
<text text-anchor="middle" x="168.5" y="-229.8" font-family="Times,serif" font-size="14.00" fill="#000000">TreeNodeComponent </text>
</g>
<!-- TreeViewModule&#45;&gt;TreeNodeComponent  -->
<g id="edge5" class="edge">
<title>TreeViewModule&#45;&gt;TreeNodeComponent </title>
<path fill="none" stroke="#000000" stroke-dasharray="5,2" d="M224.8214,-187.1061C224.8214,-187.1061 224.8214,-205.991 224.8214,-205.991"/>
<polygon fill="#000000" stroke="#000000" points="221.3214,-205.9909 224.8214,-215.991 228.3214,-205.991 221.3214,-205.9909"/>
</g>
</g>
</svg>
