<?xml version="1.0" encoding="UTF-8" standalone="no"?>
<!DOCTYPE svg PUBLIC "-//W3C//DTD SVG 1.1//EN"
 "http://www.w3.org/Graphics/SVG/1.1/DTD/svg11.dtd">
<!-- Generated by graphviz version 2.40.1 (20161225.0304)
 -->
<!-- Title: dependencies Pages: 1 -->
<svg width="817pt" height="284pt"
 viewBox="0.00 0.00 817.00 284.00" xmlns="http://www.w3.org/2000/svg" xmlns:xlink="http://www.w3.org/1999/xlink">
<g id="graph0" class="graph" transform="scale(1 1) rotate(0) translate(4 280)">
<title>dependencies</title>
<polygon fill="#ffffff" stroke="transparent" points="-4,4 -4,-280 813,-280 813,4 -4,4"/>
<text text-anchor="start" x="383.5091" y="-42.4" font-family="sans-serif" font-weight="bold" font-size="14.00" fill="#000000">Legend</text>
<polygon fill="#ffffb3" stroke="transparent" points="170.5,-10 170.5,-30 190.5,-30 190.5,-10 170.5,-10"/>
<text text-anchor="start" x="194.129" y="-15.4" font-family="sans-serif" font-size="14.00" fill="#000000"> &#160;Declarations</text>
<polygon fill="#8dd3c7" stroke="transparent" points="283.5,-10 283.5,-30 303.5,-30 303.5,-10 283.5,-10"/>
<text text-anchor="start" x="307.2251" y="-15.4" font-family="sans-serif" font-size="14.00" fill="#000000"> &#160;Module</text>
<polygon fill="#80b1d3" stroke="transparent" points="369.5,-10 369.5,-30 389.5,-30 389.5,-10 369.5,-10"/>
<text text-anchor="start" x="393.2812" y="-15.4" font-family="sans-serif" font-size="14.00" fill="#000000"> &#160;Bootstrap</text>
<polygon fill="#fdb462" stroke="transparent" points="466.5,-10 466.5,-30 486.5,-30 486.5,-10 466.5,-10"/>
<text text-anchor="start" x="490.1732" y="-15.4" font-family="sans-serif" font-size="14.00" fill="#000000"> &#160;Providers</text>
<polygon fill="#fb8072" stroke="transparent" points="562.5,-10 562.5,-30 582.5,-30 582.5,-10 562.5,-10"/>
<text text-anchor="start" x="586.2258" y="-15.4" font-family="sans-serif" font-size="14.00" fill="#000000"> &#160;Exports</text>
<g id="clust1" class="cluster">
<title>cluster_TreeViewModule</title>
<polygon fill="none" stroke="#000000" stroke-dasharray="1,5" points="8,-70 8,-268 801,-268 801,-70 8,-70"/>
</g>
<g id="clust2" class="cluster">
<title>cluster_TreeViewModule_declarations</title>
<polygon fill="none" stroke="#000000" points="328,-78 328,-130 793,-130 793,-78 328,-78"/>
</g>
<g id="clust6" class="cluster">
<title>cluster_TreeViewModule_imports</title>
<polygon fill="none" stroke="#000000" points="16,-78 16,-130 320,-130 320,-78 16,-78"/>
</g>
<g id="clust7" class="cluster">
<title>cluster_TreeViewModule_exports</title>
<polygon fill="none" stroke="#000000" points="167,-208 167,-260 642,-260 642,-208 167,-208"/>
</g>
<!-- TreeViewComponent -->
<g id="node1" class="node">
<title>TreeViewComponent</title>
<polygon fill="#ffffb3" stroke="#000000" points="784.7935,-122 647.2065,-122 647.2065,-86 784.7935,-86 784.7935,-122"/>
<text text-anchor="middle" x="716" y="-99.8" font-family="Times,serif" font-size="14.00" fill="#000000">TreeViewComponent</text>
</g>
<!-- TreeViewModule -->
<g id="node4" class="node">
<title>TreeViewModule</title>
<polygon fill="#8dd3c7" stroke="#000000" points="462.5116,-187 459.5116,-191 438.5116,-191 435.5116,-187 347.4884,-187 347.4884,-151 462.5116,-151 462.5116,-187"/>
<text text-anchor="middle" x="405" y="-164.8" font-family="Times,serif" font-size="14.00" fill="#000000">TreeViewModule</text>
</g>
<!-- TreeViewComponent&#45;&gt;TreeViewModule -->
<g id="edge1" class="edge">
<title>TreeViewComponent&#45;&gt;TreeViewModule</title>
<path fill="none" stroke="#000000" d="M716,-122.1061C716,-141.3391 716,-169 716,-169 716,-169 472.7679,-169 472.7679,-169"/>
<polygon fill="#000000" stroke="#000000" points="472.7679,-165.5001 462.7679,-169 472.7678,-172.5001 472.7679,-165.5001"/>
</g>
<!-- TreeNodeComponent -->
<g id="node2" class="node">
<title>TreeNodeComponent</title>
<polygon fill="#ffffb3" stroke="#000000" points="629.7963,-122 492.2037,-122 492.2037,-86 629.7963,-86 629.7963,-122"/>
<text text-anchor="middle" x="561" y="-99.8" font-family="Times,serif" font-size="14.00" fill="#000000">TreeNodeComponent</text>
</g>
<!-- TreeNodeComponent&#45;&gt;TreeViewModule -->
<g id="edge2" class="edge">
<title>TreeNodeComponent&#45;&gt;TreeViewModule</title>
<path fill="none" stroke="#000000" d="M584.2998,-122.027C584.2998,-138.3976 584.2998,-160 584.2998,-160 584.2998,-160 472.7185,-160 472.7185,-160"/>
<polygon fill="#000000" stroke="#000000" points="472.7186,-156.5001 462.7185,-160 472.7185,-163.5001 472.7186,-156.5001"/>
</g>
<!-- TreePanelComponent -->
<g id="node3" class="node">
<title>TreePanelComponent</title>
<polygon fill="#ffffb3" stroke="#000000" points="474.0772,-122 335.9228,-122 335.9228,-86 474.0772,-86 474.0772,-122"/>
<text text-anchor="middle" x="405" y="-99.8" font-family="Times,serif" font-size="14.00" fill="#000000">TreePanelComponent</text>
</g>
<!-- TreePanelComponent&#45;&gt;TreeViewModule -->
<g id="edge3" class="edge">
<title>TreePanelComponent&#45;&gt;TreeViewModule</title>
<path fill="none" stroke="#000000" d="M405,-122.1061C405,-122.1061 405,-140.991 405,-140.991"/>
<polygon fill="#000000" stroke="#000000" points="401.5001,-140.9909 405,-150.991 408.5001,-140.991 401.5001,-140.9909"/>
</g>
<!-- TreeViewComponent  -->
<g id="node7" class="node">
<title>TreeViewComponent </title>
<polygon fill="#fb8072" stroke="#000000" points="634.2934,-252 493.7066,-252 493.7066,-216 634.2934,-216 634.2934,-252"/>
<text text-anchor="middle" x="564" y="-229.8" font-family="Times,serif" font-size="14.00" fill="#000000">TreeViewComponent </text>
</g>
<!-- TreeViewModule&#45;&gt;TreeViewComponent  -->
<g id="edge6" class="edge">
<title>TreeViewModule&#45;&gt;TreeViewComponent </title>
<path fill="none" stroke="#000000" stroke-dasharray="5,2" d="M462.5849,-178C498.8904,-178 538.9516,-178 538.9516,-178 538.9516,-178 538.9516,-205.973 538.9516,-205.973"/>
<polygon fill="#000000" stroke="#000000" points="535.4517,-205.973 538.9516,-215.973 542.4517,-205.973 535.4517,-205.973"/>
</g>
<!-- TreeNodeComponent  -->
<g id="node8" class="node">
<title>TreeNodeComponent </title>
<polygon fill="#fb8072" stroke="#000000" points="475.2961,-252 334.7039,-252 334.7039,-216 475.2961,-216 475.2961,-252"/>
<text text-anchor="middle" x="405" y="-229.8" font-family="Times,serif" font-size="14.00" fill="#000000">TreeNodeComponent </text>
</g>
<!-- TreeViewModule&#45;&gt;TreeNodeComponent  -->
<g id="edge7" class="edge">
<title>TreeViewModule&#45;&gt;TreeNodeComponent </title>
<path fill="none" stroke="#000000" stroke-dasharray="5,2" d="M405,-187.1061C405,-187.1061 405,-205.991 405,-205.991"/>
<polygon fill="#000000" stroke="#000000" points="401.5001,-205.9909 405,-215.991 408.5001,-205.991 401.5001,-205.9909"/>
</g>
<!-- TreePanelComponent  -->
<g id="node9" class="node">
<title>TreePanelComponent </title>
<polygon fill="#fb8072" stroke="#000000" points="316.5778,-252 175.4222,-252 175.4222,-216 316.5778,-216 316.5778,-252"/>
<text text-anchor="middle" x="246" y="-229.8" font-family="Times,serif" font-size="14.00" fill="#000000">TreePanelComponent </text>
</g>
<!-- TreeViewModule&#45;&gt;TreePanelComponent  -->
<g id="edge8" class="edge">
<title>TreeViewModule&#45;&gt;TreePanelComponent </title>
<path fill="none" stroke="#000000" stroke-dasharray="5,2" d="M347.4383,-178C309.3667,-178 266.4314,-178 266.4314,-178 266.4314,-178 266.4314,-205.973 266.4314,-205.973"/>
<polygon fill="#000000" stroke="#000000" points="262.9315,-205.973 266.4314,-215.973 269.9315,-205.973 262.9315,-205.973"/>
</g>
<!-- CheckboxGroupModule -->
<g id="node5" class="node">
<title>CheckboxGroupModule</title>
<polygon fill="#8dd3c7" stroke="#000000" points="312.0828,-122 309.0828,-126 288.0828,-126 285.0828,-122 159.9172,-122 159.9172,-86 312.0828,-86 312.0828,-122"/>
<text text-anchor="middle" x="236" y="-99.8" font-family="Times,serif" font-size="14.00" fill="#000000">CheckboxGroupModule</text>
</g>
<!-- CheckboxGroupModule&#45;&gt;TreeViewModule -->
<g id="edge4" class="edge">
<title>CheckboxGroupModule&#45;&gt;TreeViewModule</title>
<path fill="none" stroke="#000000" d="M220.8214,-122.027C220.8214,-138.3976 220.8214,-160 220.8214,-160 220.8214,-160 337.4823,-160 337.4823,-160"/>
<polygon fill="#000000" stroke="#000000" points="337.4824,-163.5001 347.4823,-160 337.4823,-156.5001 337.4824,-163.5001"/>
</g>
<!-- DraggableModule -->
<g id="node6" class="node">
<title>DraggableModule</title>
<polygon fill="#8dd3c7" stroke="#000000" points="141.8515,-122 138.8515,-126 117.8515,-126 114.8515,-122 24.1485,-122 24.1485,-86 141.8515,-86 141.8515,-122"/>
<text text-anchor="middle" x="83" y="-99.8" font-family="Times,serif" font-size="14.00" fill="#000000">DraggableModule</text>
</g>
<!-- DraggableModule&#45;&gt;TreeViewModule -->
<g id="edge5" class="edge">
<title>DraggableModule&#45;&gt;TreeViewModule</title>
<path fill="none" stroke="#000000" d="M83,-122.1061C83,-141.3391 83,-169 83,-169 83,-169 337.4329,-169 337.4329,-169"/>
<polygon fill="#000000" stroke="#000000" points="337.4329,-172.5001 347.4329,-169 337.4328,-165.5001 337.4329,-172.5001"/>
</g>
</g>
</svg>
