<?xml version="1.0" encoding="UTF-8" standalone="no"?>
<!DOCTYPE svg PUBLIC "-//W3C//DTD SVG 1.1//EN"
 "http://www.w3.org/Graphics/SVG/1.1/DTD/svg11.dtd">
<!-- Generated by graphviz version 2.38.0 (20140413.2041)
 -->
<!-- Title: dependencies Pages: 1 -->
<svg width="708pt" height="284pt"
 viewBox="0.00 0.00 708.00 284.00" xmlns="http://www.w3.org/2000/svg" xmlns:xlink="http://www.w3.org/1999/xlink">
<g id="graph0" class="graph" transform="scale(1 1) rotate(0) translate(4 280)">
<title>dependencies</title>
<polygon fill="white" stroke="none" points="-4,4 -4,-280 704,-280 704,4 -4,4"/>
<text text-anchor="start" x="329.009" y="-42.4" font-family="sans-serif" font-weight="bold" font-size="14.00">Legend</text>
<polygon fill="#ffffb3" stroke="none" points="116,-10 116,-30 136,-30 136,-10 116,-10"/>
<text text-anchor="start" x="139.629" y="-15.4" font-family="sans-serif" font-size="14.00"> &#160;Declarations</text>
<polygon fill="#8dd3c7" stroke="none" points="229,-10 229,-30 249,-30 249,-10 229,-10"/>
<text text-anchor="start" x="252.725" y="-15.4" font-family="sans-serif" font-size="14.00"> &#160;Module</text>
<polygon fill="#80b1d3" stroke="none" points="315,-10 315,-30 335,-30 335,-10 315,-10"/>
<text text-anchor="start" x="338.781" y="-15.4" font-family="sans-serif" font-size="14.00"> &#160;Bootstrap</text>
<polygon fill="#fdb462" stroke="none" points="412,-10 412,-30 432,-30 432,-10 412,-10"/>
<text text-anchor="start" x="435.673" y="-15.4" font-family="sans-serif" font-size="14.00"> &#160;Providers</text>
<polygon fill="#fb8072" stroke="none" points="508,-10 508,-30 528,-30 528,-10 508,-10"/>
<text text-anchor="start" x="531.726" y="-15.4" font-family="sans-serif" font-size="14.00"> &#160;Exports</text>
<g id="clust1" class="cluster"><title>cluster_TabsModule</title>
<polygon fill="none" stroke="black" stroke-dasharray="1,5" points="8,-70 8,-268 692,-268 692,-70 8,-70"/>
</g>
<g id="clust2" class="cluster"><title>cluster_TabsModule_declarations</title>
<polygon fill="none" stroke="black" points="152,-78 152,-130 684,-130 684,-78 152,-78"/>
</g>
<g id="clust7" class="cluster"><title>cluster_TabsModule_imports</title>
<polygon fill="none" stroke="black" points="16,-78 16,-130 144,-130 144,-78 16,-78"/>
</g>
<g id="clust8" class="cluster"><title>cluster_TabsModule_exports</title>
<polygon fill="none" stroke="black" points="77,-208 77,-260 623,-260 623,-208 77,-208"/>
</g>
<!-- TabsComponent -->
<g id="node1" class="node"><title>TabsComponent</title>
<polygon fill="#ffffb3" stroke="black" points="676.045,-122 567.955,-122 567.955,-86 676.045,-86 676.045,-122"/>
<text text-anchor="middle" x="622" y="-99.8" font-family="Times,serif" font-size="14.00">TabsComponent</text>
</g>
<!-- TabsModule -->
<g id="node5" class="node"><title>TabsModule</title>
<polygon fill="#8dd3c7" stroke="black" points="413.262,-187 410.262,-191 389.262,-191 386.262,-187 326.738,-187 326.738,-151 413.262,-151 413.262,-187"/>
<text text-anchor="middle" x="370" y="-164.8" font-family="Times,serif" font-size="14.00">TabsModule</text>
</g>
<!-- TabsComponent&#45;&gt;TabsModule -->
<g id="edge1" class="edge"><title>TabsComponent&#45;&gt;TabsModule</title>
<path fill="none" stroke="black" d="M591.375,-122.106C591.375,-141.339 591.375,-169 591.375,-169 591.375,-169 423.472,-169 423.472,-169"/>
<polygon fill="black" stroke="black" points="423.472,-165.5 413.472,-169 423.472,-172.5 423.472,-165.5"/>
</g>
<!-- TabComponent -->
<g id="node2" class="node"><title>TabComponent</title>
<polygon fill="#ffffb3" stroke="black" points="549.6,-122 446.4,-122 446.4,-86 549.6,-86 549.6,-122"/>
<text text-anchor="middle" x="498" y="-99.8" font-family="Times,serif" font-size="14.00">TabComponent</text>
</g>
<!-- TabComponent&#45;&gt;TabsModule -->
<g id="edge2" class="edge"><title>TabComponent&#45;&gt;TabsModule</title>
<path fill="none" stroke="black" d="M465.875,-122.027C465.875,-138.398 465.875,-160 465.875,-160 465.875,-160 423.449,-160 423.449,-160"/>
<polygon fill="black" stroke="black" points="423.449,-156.5 413.449,-160 423.449,-163.5 423.449,-156.5"/>
</g>
<!-- TabTitleDirective -->
<g id="node3" class="node"><title>TabTitleDirective</title>
<polygon fill="#ffffb3" stroke="black" points="428.289,-122 311.711,-122 311.711,-86 428.289,-86 428.289,-122"/>
<text text-anchor="middle" x="370" y="-99.8" font-family="Times,serif" font-size="14.00">TabTitleDirective</text>
</g>
<!-- TabTitleDirective&#45;&gt;TabsModule -->
<g id="edge3" class="edge"><title>TabTitleDirective&#45;&gt;TabsModule</title>
<path fill="none" stroke="black" d="M370,-122.106C370,-122.106 370,-140.991 370,-140.991"/>
<polygon fill="black" stroke="black" points="366.5,-140.991 370,-150.991 373.5,-140.991 366.5,-140.991"/>
</g>
<!-- TabContentDirective -->
<g id="node4" class="node"><title>TabContentDirective</title>
<polygon fill="#ffffb3" stroke="black" points="294.183,-122 159.817,-122 159.817,-86 294.183,-86 294.183,-122"/>
<text text-anchor="middle" x="227" y="-99.8" font-family="Times,serif" font-size="14.00">TabContentDirective</text>
</g>
<!-- TabContentDirective&#45;&gt;TabsModule -->
<g id="edge4" class="edge"><title>TabContentDirective&#45;&gt;TabsModule</title>
<path fill="none" stroke="black" d="M267.598,-122.027C267.598,-138.398 267.598,-160 267.598,-160 267.598,-160 316.572,-160 316.572,-160"/>
<polygon fill="black" stroke="black" points="316.573,-163.5 326.572,-160 316.572,-156.5 316.573,-163.5"/>
</g>
<!-- TabsComponent  -->
<g id="node7" class="node"><title>TabsComponent </title>
<polygon fill="#fb8072" stroke="black" points="615.044,-252 502.956,-252 502.956,-216 615.044,-216 615.044,-252"/>
<text text-anchor="middle" x="559" y="-229.8" font-family="Times,serif" font-size="14.00">TabsComponent </text>
</g>
<!-- TabsModule&#45;&gt;TabsComponent  -->
<g id="edge6" class="edge"><title>TabsModule&#45;&gt;TabsComponent </title>
<path fill="none" stroke="black" stroke-dasharray="5,2" d="M413.528,-178C459.765,-178 526.264,-178 526.264,-178 526.264,-178 526.264,-205.973 526.264,-205.973"/>
<polygon fill="black" stroke="black" points="522.764,-205.973 526.264,-215.973 529.764,-205.973 522.764,-205.973"/>
</g>
<!-- TabComponent  -->
<g id="node8" class="node"><title>TabComponent </title>
<polygon fill="#fb8072" stroke="black" points="485.1,-252 378.9,-252 378.9,-216 485.1,-216 485.1,-252"/>
<text text-anchor="middle" x="432" y="-229.8" font-family="Times,serif" font-size="14.00">TabComponent </text>
</g>
<!-- TabsModule&#45;&gt;TabComponent  -->
<g id="edge7" class="edge"><title>TabsModule&#45;&gt;TabComponent </title>
<path fill="none" stroke="black" stroke-dasharray="5,2" d="M396.041,-187.106C396.041,-187.106 396.041,-205.991 396.041,-205.991"/>
<polygon fill="black" stroke="black" points="392.541,-205.991 396.041,-215.991 399.541,-205.991 392.541,-205.991"/>
</g>
<!-- TabTitleDirective  -->
<g id="node9" class="node"><title>TabTitleDirective </title>
<polygon fill="#fb8072" stroke="black" points="360.789,-252 241.211,-252 241.211,-216 360.789,-216 360.789,-252"/>
<text text-anchor="middle" x="301" y="-229.8" font-family="Times,serif" font-size="14.00">TabTitleDirective </text>
</g>
<!-- TabsModule&#45;&gt;TabTitleDirective  -->
<g id="edge8" class="edge"><title>TabsModule&#45;&gt;TabTitleDirective </title>
<path fill="none" stroke="black" stroke-dasharray="5,2" d="M343.757,-187.106C343.757,-187.106 343.757,-205.991 343.757,-205.991"/>
<polygon fill="black" stroke="black" points="340.257,-205.991 343.757,-215.991 347.257,-205.991 340.257,-205.991"/>
</g>
<!-- TabContentDirective  -->
<g id="node10" class="node"><title>TabContentDirective </title>
<polygon fill="#fb8072" stroke="black" points="222.683,-252 85.3172,-252 85.3172,-216 222.683,-216 222.683,-252"/>
<text text-anchor="middle" x="154" y="-229.8" font-family="Times,serif" font-size="14.00">TabContentDirective </text>
</g>
<!-- TabsModule&#45;&gt;TabContentDirective  -->
<g id="edge9" class="edge"><title>TabsModule&#45;&gt;TabContentDirective </title>
<path fill="none" stroke="black" stroke-dasharray="5,2" d="M326.303,-178C273.422,-178 191.375,-178 191.375,-178 191.375,-178 191.375,-205.973 191.375,-205.973"/>
<polygon fill="black" stroke="black" points="187.875,-205.973 191.375,-215.973 194.875,-205.973 187.875,-205.973"/>
</g>
<!-- CommonModule -->
<g id="node6" class="node"><title>CommonModule</title>
<polygon fill="#8dd3c7" stroke="black" points="135.668,-122 132.668,-126 111.668,-126 108.668,-122 24.3319,-122 24.3319,-86 135.668,-86 135.668,-122"/>
<text text-anchor="middle" x="80" y="-99.8" font-family="Times,serif" font-size="14.00">CommonModule</text>
</g>
<!-- CommonModule&#45;&gt;TabsModule -->
<g id="edge5" class="edge"><title>CommonModule&#45;&gt;TabsModule</title>
<path fill="none" stroke="black" d="M110.496,-122.106C110.496,-141.339 110.496,-169 110.496,-169 110.496,-169 316.565,-169 316.565,-169"/>
<polygon fill="black" stroke="black" points="316.565,-172.5 326.565,-169 316.565,-165.5 316.565,-172.5"/>
</g>
</g>
</svg>
