<?xml version="1.0" encoding="UTF-8" standalone="no"?>
<!DOCTYPE svg PUBLIC "-//W3C//DTD SVG 1.1//EN"
 "http://www.w3.org/Graphics/SVG/1.1/DTD/svg11.dtd">
<!-- Generated by graphviz version 2.40.1 (20161225.0304)
 -->
<!-- Title: dependencies Pages: 1 -->
<svg width="586pt" height="284pt"
 viewBox="0.00 0.00 586.00 284.00" xmlns="http://www.w3.org/2000/svg" xmlns:xlink="http://www.w3.org/1999/xlink">
<g id="graph0" class="graph" transform="scale(1 1) rotate(0) translate(4 280)">
<title>dependencies</title>
<polygon fill="#ffffff" stroke="transparent" points="-4,4 -4,-280 582,-280 582,4 -4,4"/>
<text text-anchor="start" x="268.0091" y="-42.4" font-family="sans-serif" font-weight="bold" font-size="14.00" fill="#000000">Legend</text>
<polygon fill="#ffffb3" stroke="transparent" points="55,-10 55,-30 75,-30 75,-10 55,-10"/>
<text text-anchor="start" x="78.629" y="-15.4" font-family="sans-serif" font-size="14.00" fill="#000000"> &#160;Declarations</text>
<polygon fill="#8dd3c7" stroke="transparent" points="168,-10 168,-30 188,-30 188,-10 168,-10"/>
<text text-anchor="start" x="191.7251" y="-15.4" font-family="sans-serif" font-size="14.00" fill="#000000"> &#160;Module</text>
<polygon fill="#80b1d3" stroke="transparent" points="254,-10 254,-30 274,-30 274,-10 254,-10"/>
<text text-anchor="start" x="277.7812" y="-15.4" font-family="sans-serif" font-size="14.00" fill="#000000"> &#160;Bootstrap</text>
<polygon fill="#fdb462" stroke="transparent" points="351,-10 351,-30 371,-30 371,-10 351,-10"/>
<text text-anchor="start" x="374.6732" y="-15.4" font-family="sans-serif" font-size="14.00" fill="#000000"> &#160;Providers</text>
<polygon fill="#fb8072" stroke="transparent" points="447,-10 447,-30 467,-30 467,-10 447,-10"/>
<text text-anchor="start" x="470.7258" y="-15.4" font-family="sans-serif" font-size="14.00" fill="#000000"> &#160;Exports</text>
<g id="clust1" class="cluster">
<title>cluster_TabsModule</title>
<polygon fill="none" stroke="#000000" stroke-dasharray="1,5" points="8,-70 8,-268 570,-268 570,-70 8,-70"/>
</g>
<g id="clust3" class="cluster">
<title>cluster_TabsModule_imports</title>
<polygon fill="none" stroke="#000000" points="241,-78 241,-130 369,-130 369,-78 241,-78"/>
</g>
<g id="clust4" class="cluster">
<title>cluster_TabsModule_exports</title>
<polygon fill="none" stroke="#000000" points="16,-208 16,-260 562,-260 562,-208 16,-208"/>
</g>
<!-- CommonModule -->
<g id="node1" class="node">
<title>CommonModule</title>
<polygon fill="#8dd3c7" stroke="#000000" points="360.6681,-122 357.6681,-126 336.6681,-126 333.6681,-122 249.3319,-122 249.3319,-86 360.6681,-86 360.6681,-122"/>
<text text-anchor="middle" x="305" y="-99.8" font-family="Times,serif" font-size="14.00" fill="#000000">CommonModule</text>
</g>
<!-- TabsModule -->
<g id="node2" class="node">
<title>TabsModule</title>
<polygon fill="#8dd3c7" stroke="#000000" points="348.2619,-187 345.2619,-191 324.2619,-191 321.2619,-187 261.7381,-187 261.7381,-151 348.2619,-151 348.2619,-187"/>
<text text-anchor="middle" x="305" y="-164.8" font-family="Times,serif" font-size="14.00" fill="#000000">TabsModule</text>
</g>
<!-- CommonModule&#45;&gt;TabsModule -->
<g id="edge1" class="edge">
<title>CommonModule&#45;&gt;TabsModule</title>
<path fill="none" stroke="#000000" d="M305,-122.1061C305,-122.1061 305,-140.991 305,-140.991"/>
<polygon fill="#000000" stroke="#000000" points="301.5001,-140.9909 305,-150.991 308.5001,-140.991 301.5001,-140.9909"/>
</g>
<!-- TabsComponent  -->
<g id="node3" class="node">
<title>TabsComponent </title>
<polygon fill="#fb8072" stroke="#000000" points="554.0442,-252 441.9558,-252 441.9558,-216 554.0442,-216 554.0442,-252"/>
<text text-anchor="middle" x="498" y="-229.8" font-family="Times,serif" font-size="14.00" fill="#000000">TabsComponent </text>
</g>
<!-- TabsModule&#45;&gt;TabsComponent  -->
<g id="edge2" class="edge">
<title>TabsModule&#45;&gt;TabsComponent </title>
<path fill="none" stroke="#000000" stroke-dasharray="5,2" d="M348.313,-169C405.2158,-169 498,-169 498,-169 498,-169 498,-205.8939 498,-205.8939"/>
<polygon fill="#000000" stroke="#000000" points="494.5001,-205.8938 498,-215.8939 501.5001,-205.8939 494.5001,-205.8938"/>
</g>
<!-- TabComponent  -->
<g id="node4" class="node">
<title>TabComponent </title>
<polygon fill="#fb8072" stroke="#000000" points="424.1003,-252 317.8997,-252 317.8997,-216 424.1003,-216 424.1003,-252"/>
<text text-anchor="middle" x="371" y="-229.8" font-family="Times,serif" font-size="14.00" fill="#000000">TabComponent </text>
</g>
<!-- TabsModule&#45;&gt;TabComponent  -->
<g id="edge3" class="edge">
<title>TabsModule&#45;&gt;TabComponent </title>
<path fill="none" stroke="#000000" stroke-dasharray="5,2" d="M333.0405,-187.1061C333.0405,-187.1061 333.0405,-205.991 333.0405,-205.991"/>
<polygon fill="#000000" stroke="#000000" points="329.5406,-205.9909 333.0405,-215.991 336.5406,-205.991 329.5406,-205.9909"/>
</g>
<!-- TabTitleDirective  -->
<g id="node5" class="node">
<title>TabTitleDirective </title>
<polygon fill="#fb8072" stroke="#000000" points="299.7892,-252 180.2108,-252 180.2108,-216 299.7892,-216 299.7892,-252"/>
<text text-anchor="middle" x="240" y="-229.8" font-family="Times,serif" font-size="14.00" fill="#000000">TabTitleDirective </text>
</g>
<!-- TabsModule&#45;&gt;TabTitleDirective  -->
<g id="edge4" class="edge">
<title>TabsModule&#45;&gt;TabTitleDirective </title>
<path fill="none" stroke="#000000" stroke-dasharray="5,2" d="M280.7569,-187.1061C280.7569,-187.1061 280.7569,-205.991 280.7569,-205.991"/>
<polygon fill="#000000" stroke="#000000" points="277.2569,-205.9909 280.7569,-215.991 284.2569,-205.991 277.2569,-205.9909"/>
</g>
<!-- TabContentDirective  -->
<g id="node6" class="node">
<title>TabContentDirective </title>
<polygon fill="#fb8072" stroke="#000000" points="161.6828,-252 24.3172,-252 24.3172,-216 161.6828,-216 161.6828,-252"/>
<text text-anchor="middle" x="93" y="-229.8" font-family="Times,serif" font-size="14.00" fill="#000000">TabContentDirective </text>
</g>
<!-- TabsModule&#45;&gt;TabContentDirective  -->
<g id="edge5" class="edge">
<title>TabsModule&#45;&gt;TabContentDirective </title>
<path fill="none" stroke="#000000" stroke-dasharray="5,2" d="M261.5871,-169C199.5637,-169 93,-169 93,-169 93,-169 93,-205.8939 93,-205.8939"/>
<polygon fill="#000000" stroke="#000000" points="89.5001,-205.8938 93,-215.8939 96.5001,-205.8939 89.5001,-205.8938"/>
</g>
</g>
</svg>
