<?xml version="1.0" encoding="UTF-8" standalone="no"?>
<!DOCTYPE svg PUBLIC "-//W3C//DTD SVG 1.1//EN"
 "http://www.w3.org/Graphics/SVG/1.1/DTD/svg11.dtd">
<!-- Generated by graphviz version 2.40.1 (20161225.0304)
 -->
<!-- Title: dependencies Pages: 1 -->
<svg width="586pt" height="284pt"
 viewBox="0.00 0.00 586.00 284.00" xmlns="http://www.w3.org/2000/svg" xmlns:xlink="http://www.w3.org/1999/xlink">
<g id="graph0" class="graph" transform="scale(1 1) rotate(0) translate(4 280)">
<title>dependencies</title>
<polygon fill="#ffffff" stroke="transparent" points="-4,4 -4,-280 582,-280 582,4 -4,4"/>
<text text-anchor="start" x="268.0091" y="-42.4" font-family="sans-serif" font-weight="bold" font-size="14.00" fill="#000000">Legend</text>
<polygon fill="#ffffb3" stroke="transparent" points="55,-10 55,-30 75,-30 75,-10 55,-10"/>
<text text-anchor="start" x="78.629" y="-15.4" font-family="sans-serif" font-size="14.00" fill="#000000"> &#160;Declarations</text>
<polygon fill="#8dd3c7" stroke="transparent" points="168,-10 168,-30 188,-30 188,-10 168,-10"/>
<text text-anchor="start" x="191.7251" y="-15.4" font-family="sans-serif" font-size="14.00" fill="#000000"> &#160;Module</text>
<polygon fill="#80b1d3" stroke="transparent" points="254,-10 254,-30 274,-30 274,-10 254,-10"/>
<text text-anchor="start" x="277.7812" y="-15.4" font-family="sans-serif" font-size="14.00" fill="#000000"> &#160;Bootstrap</text>
<polygon fill="#fdb462" stroke="transparent" points="351,-10 351,-30 371,-30 371,-10 351,-10"/>
<text text-anchor="start" x="374.6732" y="-15.4" font-family="sans-serif" font-size="14.00" fill="#000000"> &#160;Providers</text>
<polygon fill="#fb8072" stroke="transparent" points="447,-10 447,-30 467,-30 467,-10 447,-10"/>
<text text-anchor="start" x="470.7258" y="-15.4" font-family="sans-serif" font-size="14.00" fill="#000000"> &#160;Exports</text>
<g id="clust1" class="cluster">
<title>cluster_TabsModule</title>
<polygon fill="none" stroke="#000000" stroke-dasharray="1,5" points="8,-70 8,-268 570,-268 570,-70 8,-70"/>
</g>
<g id="clust2" class="cluster">
<title>cluster_TabsModule_declarations</title>
<polygon fill="none" stroke="#000000" points="24,-78 24,-130 556,-130 556,-78 24,-78"/>
</g>
<g id="clust8" class="cluster">
<title>cluster_TabsModule_exports</title>
<polygon fill="none" stroke="#000000" points="16,-208 16,-260 562,-260 562,-208 16,-208"/>
</g>
<!-- TabsComponent -->
<g id="node1" class="node">
<title>TabsComponent</title>
<polygon fill="#ffffb3" stroke="#000000" points="548.0452,-122 439.9548,-122 439.9548,-86 548.0452,-86 548.0452,-122"/>
<text text-anchor="middle" x="494" y="-99.8" font-family="Times,serif" font-size="14.00" fill="#000000">TabsComponent</text>
</g>
<!-- TabsModule -->
<g id="node5" class="node">
<title>TabsModule</title>
<polygon fill="#8dd3c7" stroke="#000000" points="288.2619,-187 285.2619,-191 264.2619,-191 261.2619,-187 201.7381,-187 201.7381,-151 288.2619,-151 288.2619,-187"/>
<text text-anchor="middle" x="245" y="-164.8" font-family="Times,serif" font-size="14.00" fill="#000000">TabsModule</text>
</g>
<!-- TabsComponent&#45;&gt;TabsModule -->
<g id="edge1" class="edge">
<title>TabsComponent&#45;&gt;TabsModule</title>
<path fill="none" stroke="#000000" d="M512.8407,-122.2667C512.8407,-140.5552 512.8407,-166 512.8407,-166 512.8407,-166 298.3309,-166 298.3309,-166"/>
<polygon fill="#000000" stroke="#000000" points="298.331,-162.5001 288.3309,-166 298.3309,-169.5001 298.331,-162.5001"/>
</g>
<!-- TabComponent -->
<g id="node2" class="node">
<title>TabComponent</title>
<polygon fill="#ffffb3" stroke="#000000" points="421.5996,-122 318.4004,-122 318.4004,-86 421.5996,-86 421.5996,-122"/>
<text text-anchor="middle" x="370" y="-99.8" font-family="Times,serif" font-size="14.00" fill="#000000">TabComponent</text>
</g>
<!-- TabComponent&#45;&gt;TabsModule -->
<g id="edge2" class="edge">
<title>TabComponent&#45;&gt;TabsModule</title>
<path fill="none" stroke="#000000" d="M387.1833,-122.0091C387.1833,-138.0494 387.1833,-159 387.1833,-159 387.1833,-159 298.4322,-159 298.4322,-159"/>
<polygon fill="#000000" stroke="#000000" points="298.4323,-155.5001 288.4322,-159 298.4322,-162.5001 298.4323,-155.5001"/>
</g>
<!-- TabTitleDirective -->
<g id="node3" class="node">
<title>TabTitleDirective</title>
<polygon fill="#ffffb3" stroke="#000000" points="300.2894,-122 183.7106,-122 183.7106,-86 300.2894,-86 300.2894,-122"/>
<text text-anchor="middle" x="242" y="-99.8" font-family="Times,serif" font-size="14.00" fill="#000000">TabTitleDirective</text>
</g>
<!-- TabTitleDirective&#45;&gt;TabsModule -->
<g id="edge3" class="edge">
<title>TabTitleDirective&#45;&gt;TabsModule</title>
<path fill="none" stroke="#000000" d="M245,-122.1061C245,-122.1061 245,-140.991 245,-140.991"/>
<polygon fill="#000000" stroke="#000000" points="241.5001,-140.9909 245,-150.991 248.5001,-140.991 241.5001,-140.9909"/>
</g>
<!-- TabContentDirective -->
<g id="node4" class="node">
<title>TabContentDirective</title>
<polygon fill="#ffffb3" stroke="#000000" points="166.1825,-122 31.8175,-122 31.8175,-86 166.1825,-86 166.1825,-122"/>
<text text-anchor="middle" x="99" y="-99.8" font-family="Times,serif" font-size="14.00" fill="#000000">TabContentDirective</text>
</g>
<!-- TabContentDirective&#45;&gt;TabsModule -->
<g id="edge4" class="edge">
<title>TabContentDirective&#45;&gt;TabsModule</title>
<path fill="none" stroke="#000000" d="M118.5304,-122.0225C118.5304,-139.3734 118.5304,-163 118.5304,-163 118.5304,-163 191.4763,-163 191.4763,-163"/>
<polygon fill="#000000" stroke="#000000" points="191.4764,-166.5001 201.4763,-163 191.4763,-159.5001 191.4764,-166.5001"/>
</g>
<!-- TabsComponent  -->
<g id="node6" class="node">
<title>TabsComponent </title>
<polygon fill="#fb8072" stroke="#000000" points="554.0442,-252 441.9558,-252 441.9558,-216 554.0442,-216 554.0442,-252"/>
<text text-anchor="middle" x="498" y="-229.8" font-family="Times,serif" font-size="14.00" fill="#000000">TabsComponent </text>
</g>
<!-- TabsModule&#45;&gt;TabsComponent  -->
<g id="edge5" class="edge">
<title>TabsModule&#45;&gt;TabsComponent </title>
<path fill="none" stroke="#000000" stroke-dasharray="5,2" d="M288.4418,-173C355.7095,-173 477.4093,-173 477.4093,-173 477.4093,-173 477.4093,-205.698 477.4093,-205.698"/>
<polygon fill="#000000" stroke="#000000" points="473.9094,-205.698 477.4093,-215.698 480.9094,-205.698 473.9094,-205.698"/>
</g>
<!-- TabComponent  -->
<g id="node7" class="node">
<title>TabComponent </title>
<polygon fill="#fb8072" stroke="#000000" points="424.1003,-252 317.8997,-252 317.8997,-216 424.1003,-216 424.1003,-252"/>
<text text-anchor="middle" x="371" y="-229.8" font-family="Times,serif" font-size="14.00" fill="#000000">TabComponent </text>
</g>
<!-- TabsModule&#45;&gt;TabComponent  -->
<g id="edge6" class="edge">
<title>TabsModule&#45;&gt;TabComponent </title>
<path fill="none" stroke="#000000" stroke-dasharray="5,2" d="M288.5424,-180C318.4655,-180 352.8167,-180 352.8167,-180 352.8167,-180 352.8167,-205.7181 352.8167,-205.7181"/>
<polygon fill="#000000" stroke="#000000" points="349.3168,-205.718 352.8167,-215.7181 356.3168,-205.7181 349.3168,-205.718"/>
</g>
<!-- TabTitleDirective  -->
<g id="node8" class="node">
<title>TabTitleDirective </title>
<polygon fill="#fb8072" stroke="#000000" points="299.7892,-252 180.2108,-252 180.2108,-216 299.7892,-216 299.7892,-252"/>
<text text-anchor="middle" x="240" y="-229.8" font-family="Times,serif" font-size="14.00" fill="#000000">TabTitleDirective </text>
</g>
<!-- TabsModule&#45;&gt;TabTitleDirective  -->
<g id="edge7" class="edge">
<title>TabsModule&#45;&gt;TabTitleDirective </title>
<path fill="none" stroke="#000000" stroke-dasharray="5,2" d="M245,-187.1061C245,-187.1061 245,-205.991 245,-205.991"/>
<polygon fill="#000000" stroke="#000000" points="241.5001,-205.9909 245,-215.991 248.5001,-205.991 241.5001,-205.9909"/>
</g>
<!-- TabContentDirective  -->
<g id="node9" class="node">
<title>TabContentDirective </title>
<polygon fill="#fb8072" stroke="#000000" points="161.6828,-252 24.3172,-252 24.3172,-216 161.6828,-216 161.6828,-252"/>
<text text-anchor="middle" x="93" y="-229.8" font-family="Times,serif" font-size="14.00" fill="#000000">TabContentDirective </text>
</g>
<!-- TabsModule&#45;&gt;TabContentDirective  -->
<g id="edge8" class="edge">
<title>TabsModule&#45;&gt;TabContentDirective </title>
<path fill="none" stroke="#000000" stroke-dasharray="5,2" d="M201.7179,-175C151.4162,-175 75.2196,-175 75.2196,-175 75.2196,-175 75.2196,-205.9775 75.2196,-205.9775"/>
<polygon fill="#000000" stroke="#000000" points="71.7197,-205.9774 75.2196,-215.9775 78.7197,-205.9775 71.7197,-205.9774"/>
</g>
</g>
</svg>
