<?xml version="1.0" encoding="UTF-8" standalone="no"?>
<!DOCTYPE svg PUBLIC "-//W3C//DTD SVG 1.1//EN"
 "http://www.w3.org/Graphics/SVG/1.1/DTD/svg11.dtd">
<!-- Generated by graphviz version 2.40.1 (20161225.0304)
 -->
<!-- Title: dependencies Pages: 1 -->
<svg width="586pt" height="284pt"
 viewBox="0.00 0.00 586.00 284.00" xmlns="http://www.w3.org/2000/svg" xmlns:xlink="http://www.w3.org/1999/xlink">
<g id="graph0" class="graph" transform="scale(1 1) rotate(0) translate(4 280)">
<title>dependencies</title>
<polygon fill="#ffffff" stroke="transparent" points="-4,4 -4,-280 582,-280 582,4 -4,4"/>
<text text-anchor="start" x="268.0091" y="-42.4" font-family="sans-serif" font-weight="bold" font-size="14.00" fill="#000000">Legend</text>
<polygon fill="#ffffb3" stroke="transparent" points="55,-10 55,-30 75,-30 75,-10 55,-10"/>
<text text-anchor="start" x="78.629" y="-15.4" font-family="sans-serif" font-size="14.00" fill="#000000"> &#160;Declarations</text>
<polygon fill="#8dd3c7" stroke="transparent" points="168,-10 168,-30 188,-30 188,-10 168,-10"/>
<text text-anchor="start" x="191.7251" y="-15.4" font-family="sans-serif" font-size="14.00" fill="#000000"> &#160;Module</text>
<polygon fill="#80b1d3" stroke="transparent" points="254,-10 254,-30 274,-30 274,-10 254,-10"/>
<text text-anchor="start" x="277.7812" y="-15.4" font-family="sans-serif" font-size="14.00" fill="#000000"> &#160;Bootstrap</text>
<polygon fill="#fdb462" stroke="transparent" points="351,-10 351,-30 371,-30 371,-10 351,-10"/>
<text text-anchor="start" x="374.6732" y="-15.4" font-family="sans-serif" font-size="14.00" fill="#000000"> &#160;Providers</text>
<polygon fill="#fb8072" stroke="transparent" points="447,-10 447,-30 467,-30 467,-10 447,-10"/>
<text text-anchor="start" x="470.7258" y="-15.4" font-family="sans-serif" font-size="14.00" fill="#000000"> &#160;Exports</text>
<g id="clust1" class="cluster">
<title>cluster_TabsModule</title>
<polygon fill="none" stroke="#000000" stroke-dasharray="1,5" points="8,-70 8,-268 570,-268 570,-70 8,-70"/>
</g>
<g id="clust2" class="cluster">
<title>cluster_TabsModule_declarations</title>
<polygon fill="none" stroke="#000000" points="24,-78 24,-130 556,-130 556,-78 24,-78"/>
</g>
<g id="clust8" class="cluster">
<title>cluster_TabsModule_exports</title>
<polygon fill="none" stroke="#000000" points="16,-208 16,-260 562,-260 562,-208 16,-208"/>
</g>
<!-- TabComponent -->
<g id="node1" class="node">
<title>TabComponent</title>
<polygon fill="#ffffb3" stroke="#000000" points="547.5996,-122 444.4004,-122 444.4004,-86 547.5996,-86 547.5996,-122"/>
<text text-anchor="middle" x="496" y="-99.8" font-family="Times,serif" font-size="14.00" fill="#000000">TabComponent</text>
</g>
<!-- TabsModule -->
<g id="node5" class="node">
<title>TabsModule</title>
<polygon fill="#8dd3c7" stroke="#000000" points="262.2619,-187 259.2619,-191 238.2619,-191 235.2619,-187 175.7381,-187 175.7381,-151 262.2619,-151 262.2619,-187"/>
<text text-anchor="middle" x="219" y="-164.8" font-family="Times,serif" font-size="14.00" fill="#000000">TabsModule</text>
</g>
<!-- TabComponent&#45;&gt;TabsModule -->
<g id="edge1" class="edge">
<title>TabComponent&#45;&gt;TabsModule</title>
<path fill="none" stroke="#000000" d="M514.2666,-122.2667C514.2666,-140.5552 514.2666,-166 514.2666,-166 514.2666,-166 272.5676,-166 272.5676,-166"/>
<polygon fill="#000000" stroke="#000000" points="272.5676,-162.5001 262.5676,-166 272.5676,-169.5001 272.5676,-162.5001"/>
</g>
<!-- TabContentDirective -->
<g id="node2" class="node">
<title>TabContentDirective</title>
<polygon fill="#ffffb3" stroke="#000000" points="426.1825,-122 291.8175,-122 291.8175,-86 426.1825,-86 426.1825,-122"/>
<text text-anchor="middle" x="359" y="-99.8" font-family="Times,serif" font-size="14.00" fill="#000000">TabContentDirective</text>
</g>
<!-- TabContentDirective&#45;&gt;TabsModule -->
<g id="edge2" class="edge">
<title>TabContentDirective&#45;&gt;TabsModule</title>
<path fill="none" stroke="#000000" d="M381.4471,-122.0091C381.4471,-138.0494 381.4471,-159 381.4471,-159 381.4471,-159 272.5328,-159 272.5328,-159"/>
<polygon fill="#000000" stroke="#000000" points="272.5329,-155.5001 262.5328,-159 272.5328,-162.5001 272.5329,-155.5001"/>
</g>
<!-- TabTitleDirective -->
<g id="node3" class="node">
<title>TabTitleDirective</title>
<polygon fill="#ffffb3" stroke="#000000" points="274.2894,-122 157.7106,-122 157.7106,-86 274.2894,-86 274.2894,-122"/>
<text text-anchor="middle" x="216" y="-99.8" font-family="Times,serif" font-size="14.00" fill="#000000">TabTitleDirective</text>
</g>
<!-- TabTitleDirective&#45;&gt;TabsModule -->
<g id="edge3" class="edge">
<title>TabTitleDirective&#45;&gt;TabsModule</title>
<path fill="none" stroke="#000000" d="M219,-122.1061C219,-122.1061 219,-140.991 219,-140.991"/>
<polygon fill="#000000" stroke="#000000" points="215.5001,-140.9909 219,-150.991 222.5001,-140.991 215.5001,-140.9909"/>
</g>
<!-- TabsComponent -->
<g id="node4" class="node">
<title>TabsComponent</title>
<polygon fill="#ffffb3" stroke="#000000" points="140.0452,-122 31.9548,-122 31.9548,-86 140.0452,-86 140.0452,-122"/>
<text text-anchor="middle" x="86" y="-99.8" font-family="Times,serif" font-size="14.00" fill="#000000">TabsComponent</text>
</g>
<!-- TabsComponent&#45;&gt;TabsModule -->
<g id="edge4" class="edge">
<title>TabsComponent&#45;&gt;TabsModule</title>
<path fill="none" stroke="#000000" d="M101.2574,-122.0225C101.2574,-139.3734 101.2574,-163 101.2574,-163 101.2574,-163 165.4915,-163 165.4915,-163"/>
<polygon fill="#000000" stroke="#000000" points="165.4915,-166.5001 175.4915,-163 165.4915,-159.5001 165.4915,-166.5001"/>
</g>
<!-- TabComponent  -->
<g id="node6" class="node">
<title>TabComponent </title>
<polygon fill="#fb8072" stroke="#000000" points="554.1003,-252 447.8997,-252 447.8997,-216 554.1003,-216 554.1003,-252"/>
<text text-anchor="middle" x="501" y="-229.8" font-family="Times,serif" font-size="14.00" fill="#000000">TabComponent </text>
</g>
<!-- TabsModule&#45;&gt;TabComponent  -->
<g id="edge5" class="edge">
<title>TabsModule&#45;&gt;TabComponent </title>
<path fill="none" stroke="#000000" stroke-dasharray="5,2" d="M262.5553,-173C337.0514,-173 480.9834,-173 480.9834,-173 480.9834,-173 480.9834,-205.698 480.9834,-205.698"/>
<polygon fill="#000000" stroke="#000000" points="477.4835,-205.698 480.9834,-215.698 484.4835,-205.698 477.4835,-205.698"/>
</g>
<!-- TabContentDirective  -->
<g id="node7" class="node">
<title>TabContentDirective </title>
<polygon fill="#fb8072" stroke="#000000" points="429.6828,-252 292.3172,-252 292.3172,-216 429.6828,-216 429.6828,-252"/>
<text text-anchor="middle" x="361" y="-229.8" font-family="Times,serif" font-size="14.00" fill="#000000">TabContentDirective </text>
</g>
<!-- TabsModule&#45;&gt;TabContentDirective  -->
<g id="edge6" class="edge">
<title>TabsModule&#45;&gt;TabContentDirective </title>
<path fill="none" stroke="#000000" stroke-dasharray="5,2" d="M262.5308,-180C296.0884,-180 336.8029,-180 336.8029,-180 336.8029,-180 336.8029,-205.7181 336.8029,-205.7181"/>
<polygon fill="#000000" stroke="#000000" points="333.303,-205.718 336.8029,-215.7181 340.303,-205.7181 333.303,-205.718"/>
</g>
<!-- TabTitleDirective  -->
<g id="node8" class="node">
<title>TabTitleDirective </title>
<polygon fill="#fb8072" stroke="#000000" points="273.7892,-252 154.2108,-252 154.2108,-216 273.7892,-216 273.7892,-252"/>
<text text-anchor="middle" x="214" y="-229.8" font-family="Times,serif" font-size="14.00" fill="#000000">TabTitleDirective </text>
</g>
<!-- TabsModule&#45;&gt;TabTitleDirective  -->
<g id="edge7" class="edge">
<title>TabsModule&#45;&gt;TabTitleDirective </title>
<path fill="none" stroke="#000000" stroke-dasharray="5,2" d="M219,-187.1061C219,-187.1061 219,-205.991 219,-205.991"/>
<polygon fill="#000000" stroke="#000000" points="215.5001,-205.9909 219,-215.991 222.5001,-205.991 215.5001,-205.9909"/>
</g>
<!-- TabsComponent  -->
<g id="node9" class="node">
<title>TabsComponent </title>
<polygon fill="#fb8072" stroke="#000000" points="136.0442,-252 23.9558,-252 23.9558,-216 136.0442,-216 136.0442,-252"/>
<text text-anchor="middle" x="80" y="-229.8" font-family="Times,serif" font-size="14.00" fill="#000000">TabsComponent </text>
</g>
<!-- TabsModule&#45;&gt;TabsComponent  -->
<g id="edge8" class="edge">
<title>TabsModule&#45;&gt;TabsComponent </title>
<path fill="none" stroke="#000000" stroke-dasharray="5,2" d="M175.7054,-175C130.6176,-175 66.4926,-175 66.4926,-175 66.4926,-175 66.4926,-205.9775 66.4926,-205.9775"/>
<polygon fill="#000000" stroke="#000000" points="62.9927,-205.9774 66.4926,-215.9775 69.9927,-205.9775 62.9927,-205.9774"/>
</g>
</g>
</svg>
