<?xml version="1.0" encoding="UTF-8" standalone="no"?>
<!DOCTYPE svg PUBLIC "-//W3C//DTD SVG 1.1//EN"
 "http://www.w3.org/Graphics/SVG/1.1/DTD/svg11.dtd">
<!-- Generated by graphviz version 2.40.1 (20161225.0304)
 -->
<!-- Title: dependencies Pages: 1 -->
<svg width="708pt" height="284pt"
 viewBox="0.00 0.00 708.00 284.00" xmlns="http://www.w3.org/2000/svg" xmlns:xlink="http://www.w3.org/1999/xlink">
<g id="graph0" class="graph" transform="scale(1 1) rotate(0) translate(4 280)">
<title>dependencies</title>
<polygon fill="#ffffff" stroke="transparent" points="-4,4 -4,-280 704,-280 704,4 -4,4"/>
<text text-anchor="start" x="329.0091" y="-42.4" font-family="sans-serif" font-weight="bold" font-size="14.00" fill="#000000">Legend</text>
<polygon fill="#ffffb3" stroke="transparent" points="116,-10 116,-30 136,-30 136,-10 116,-10"/>
<text text-anchor="start" x="139.629" y="-15.4" font-family="sans-serif" font-size="14.00" fill="#000000"> &#160;Declarations</text>
<polygon fill="#8dd3c7" stroke="transparent" points="229,-10 229,-30 249,-30 249,-10 229,-10"/>
<text text-anchor="start" x="252.7251" y="-15.4" font-family="sans-serif" font-size="14.00" fill="#000000"> &#160;Module</text>
<polygon fill="#80b1d3" stroke="transparent" points="315,-10 315,-30 335,-30 335,-10 315,-10"/>
<text text-anchor="start" x="338.7812" y="-15.4" font-family="sans-serif" font-size="14.00" fill="#000000"> &#160;Bootstrap</text>
<polygon fill="#fdb462" stroke="transparent" points="412,-10 412,-30 432,-30 432,-10 412,-10"/>
<text text-anchor="start" x="435.6732" y="-15.4" font-family="sans-serif" font-size="14.00" fill="#000000"> &#160;Providers</text>
<polygon fill="#fb8072" stroke="transparent" points="508,-10 508,-30 528,-30 528,-10 508,-10"/>
<text text-anchor="start" x="531.7258" y="-15.4" font-family="sans-serif" font-size="14.00" fill="#000000"> &#160;Exports</text>
<g id="clust1" class="cluster">
<title>cluster_TabsModule</title>
<polygon fill="none" stroke="#000000" stroke-dasharray="1,5" points="8,-70 8,-268 692,-268 692,-70 8,-70"/>
</g>
<g id="clust2" class="cluster">
<title>cluster_TabsModule_declarations</title>
<polygon fill="none" stroke="#000000" points="152,-78 152,-130 684,-130 684,-78 152,-78"/>
</g>
<g id="clust7" class="cluster">
<title>cluster_TabsModule_imports</title>
<polygon fill="none" stroke="#000000" points="16,-78 16,-130 144,-130 144,-78 16,-78"/>
</g>
<g id="clust8" class="cluster">
<title>cluster_TabsModule_exports</title>
<polygon fill="none" stroke="#000000" points="77,-208 77,-260 623,-260 623,-208 77,-208"/>
</g>
<!-- TabsComponent -->
<g id="node1" class="node">
<title>TabsComponent</title>
<polygon fill="#ffffb3" stroke="#000000" points="676.0452,-122 567.9548,-122 567.9548,-86 676.0452,-86 676.0452,-122"/>
<text text-anchor="middle" x="622" y="-99.8" font-family="Times,serif" font-size="14.00" fill="#000000">TabsComponent</text>
</g>
<!-- TabsModule -->
<g id="node5" class="node">
<title>TabsModule</title>
<polygon fill="#8dd3c7" stroke="#000000" points="413.2619,-187 410.2619,-191 389.2619,-191 386.2619,-187 326.7381,-187 326.7381,-151 413.2619,-151 413.2619,-187"/>
<text text-anchor="middle" x="370" y="-164.8" font-family="Times,serif" font-size="14.00" fill="#000000">TabsModule</text>
</g>
<!-- TabsComponent&#45;&gt;TabsModule -->
<g id="edge1" class="edge">
<title>TabsComponent&#45;&gt;TabsModule</title>
<path fill="none" stroke="#000000" d="M591.375,-122.1061C591.375,-141.3391 591.375,-169 591.375,-169 591.375,-169 423.4724,-169 423.4724,-169"/>
<polygon fill="#000000" stroke="#000000" points="423.4725,-165.5001 413.4724,-169 423.4724,-172.5001 423.4725,-165.5001"/>
</g>
<!-- TabComponent -->
<g id="node2" class="node">
<title>TabComponent</title>
<polygon fill="#ffffb3" stroke="#000000" points="549.5996,-122 446.4004,-122 446.4004,-86 549.5996,-86 549.5996,-122"/>
<text text-anchor="middle" x="498" y="-99.8" font-family="Times,serif" font-size="14.00" fill="#000000">TabComponent</text>
</g>
<!-- TabComponent&#45;&gt;TabsModule -->
<g id="edge2" class="edge">
<title>TabComponent&#45;&gt;TabsModule</title>
<path fill="none" stroke="#000000" d="M465.875,-122.027C465.875,-138.3976 465.875,-160 465.875,-160 465.875,-160 423.4492,-160 423.4492,-160"/>
<polygon fill="#000000" stroke="#000000" points="423.4492,-156.5001 413.4492,-160 423.4492,-163.5001 423.4492,-156.5001"/>
</g>
<!-- TabTitleDirective -->
<g id="node3" class="node">
<title>TabTitleDirective</title>
<polygon fill="#ffffb3" stroke="#000000" points="428.2894,-122 311.7106,-122 311.7106,-86 428.2894,-86 428.2894,-122"/>
<text text-anchor="middle" x="370" y="-99.8" font-family="Times,serif" font-size="14.00" fill="#000000">TabTitleDirective</text>
</g>
<!-- TabTitleDirective&#45;&gt;TabsModule -->
<g id="edge3" class="edge">
<title>TabTitleDirective&#45;&gt;TabsModule</title>
<path fill="none" stroke="#000000" d="M370,-122.1061C370,-122.1061 370,-140.991 370,-140.991"/>
<polygon fill="#000000" stroke="#000000" points="366.5001,-140.9909 370,-150.991 373.5001,-140.991 366.5001,-140.9909"/>
</g>
<!-- TabContentDirective -->
<g id="node4" class="node">
<title>TabContentDirective</title>
<polygon fill="#ffffb3" stroke="#000000" points="294.1825,-122 159.8175,-122 159.8175,-86 294.1825,-86 294.1825,-122"/>
<text text-anchor="middle" x="227" y="-99.8" font-family="Times,serif" font-size="14.00" fill="#000000">TabContentDirective</text>
</g>
<!-- TabContentDirective&#45;&gt;TabsModule -->
<g id="edge4" class="edge">
<title>TabContentDirective&#45;&gt;TabsModule</title>
<path fill="none" stroke="#000000" d="M267.5984,-122.027C267.5984,-138.3976 267.5984,-160 267.5984,-160 267.5984,-160 316.5725,-160 316.5725,-160"/>
<polygon fill="#000000" stroke="#000000" points="316.5725,-163.5001 326.5725,-160 316.5724,-156.5001 316.5725,-163.5001"/>
</g>
<!-- TabsComponent  -->
<g id="node7" class="node">
<title>TabsComponent </title>
<polygon fill="#fb8072" stroke="#000000" points="615.0442,-252 502.9558,-252 502.9558,-216 615.0442,-216 615.0442,-252"/>
<text text-anchor="middle" x="559" y="-229.8" font-family="Times,serif" font-size="14.00" fill="#000000">TabsComponent </text>
</g>
<!-- TabsModule&#45;&gt;TabsComponent  -->
<g id="edge6" class="edge">
<title>TabsModule&#45;&gt;TabsComponent </title>
<path fill="none" stroke="#000000" stroke-dasharray="5,2" d="M413.5282,-178C459.7654,-178 526.2639,-178 526.2639,-178 526.2639,-178 526.2639,-205.973 526.2639,-205.973"/>
<polygon fill="#000000" stroke="#000000" points="522.7639,-205.973 526.2639,-215.973 529.7639,-205.973 522.7639,-205.973"/>
</g>
<!-- TabComponent  -->
<g id="node8" class="node">
<title>TabComponent </title>
<polygon fill="#fb8072" stroke="#000000" points="485.1003,-252 378.8997,-252 378.8997,-216 485.1003,-216 485.1003,-252"/>
<text text-anchor="middle" x="432" y="-229.8" font-family="Times,serif" font-size="14.00" fill="#000000">TabComponent </text>
</g>
<!-- TabsModule&#45;&gt;TabComponent  -->
<g id="edge7" class="edge">
<title>TabsModule&#45;&gt;TabComponent </title>
<path fill="none" stroke="#000000" stroke-dasharray="5,2" d="M396.0405,-187.1061C396.0405,-187.1061 396.0405,-205.991 396.0405,-205.991"/>
<polygon fill="#000000" stroke="#000000" points="392.5406,-205.9909 396.0405,-215.991 399.5406,-205.991 392.5406,-205.9909"/>
</g>
<!-- TabTitleDirective  -->
<g id="node9" class="node">
<title>TabTitleDirective </title>
<polygon fill="#fb8072" stroke="#000000" points="360.7892,-252 241.2108,-252 241.2108,-216 360.7892,-216 360.7892,-252"/>
<text text-anchor="middle" x="301" y="-229.8" font-family="Times,serif" font-size="14.00" fill="#000000">TabTitleDirective </text>
</g>
<!-- TabsModule&#45;&gt;TabTitleDirective  -->
<g id="edge8" class="edge">
<title>TabsModule&#45;&gt;TabTitleDirective </title>
<path fill="none" stroke="#000000" stroke-dasharray="5,2" d="M343.7569,-187.1061C343.7569,-187.1061 343.7569,-205.991 343.7569,-205.991"/>
<polygon fill="#000000" stroke="#000000" points="340.2569,-205.9909 343.7569,-215.991 347.2569,-205.991 340.2569,-205.9909"/>
</g>
<!-- TabContentDirective  -->
<g id="node10" class="node">
<title>TabContentDirective </title>
<polygon fill="#fb8072" stroke="#000000" points="222.6828,-252 85.3172,-252 85.3172,-216 222.6828,-216 222.6828,-252"/>
<text text-anchor="middle" x="154" y="-229.8" font-family="Times,serif" font-size="14.00" fill="#000000">TabContentDirective </text>
</g>
<!-- TabsModule&#45;&gt;TabContentDirective  -->
<g id="edge9" class="edge">
<title>TabsModule&#45;&gt;TabContentDirective </title>
<path fill="none" stroke="#000000" stroke-dasharray="5,2" d="M326.3034,-178C273.4217,-178 191.375,-178 191.375,-178 191.375,-178 191.375,-205.973 191.375,-205.973"/>
<polygon fill="#000000" stroke="#000000" points="187.8751,-205.973 191.375,-215.973 194.8751,-205.973 187.8751,-205.973"/>
</g>
<!-- CommonModule -->
<g id="node6" class="node">
<title>CommonModule</title>
<polygon fill="#8dd3c7" stroke="#000000" points="135.6681,-122 132.6681,-126 111.6681,-126 108.6681,-122 24.3319,-122 24.3319,-86 135.6681,-86 135.6681,-122"/>
<text text-anchor="middle" x="80" y="-99.8" font-family="Times,serif" font-size="14.00" fill="#000000">CommonModule</text>
</g>
<!-- CommonModule&#45;&gt;TabsModule -->
<g id="edge5" class="edge">
<title>CommonModule&#45;&gt;TabsModule</title>
<path fill="none" stroke="#000000" d="M110.4963,-122.1061C110.4963,-141.3391 110.4963,-169 110.4963,-169 110.4963,-169 316.5649,-169 316.5649,-169"/>
<polygon fill="#000000" stroke="#000000" points="316.565,-172.5001 326.5649,-169 316.5649,-165.5001 316.565,-172.5001"/>
</g>
</g>
</svg>
