<?xml version="1.0" encoding="UTF-8" standalone="no"?>
<!DOCTYPE svg PUBLIC "-//W3C//DTD SVG 1.1//EN"
 "http://www.w3.org/Graphics/SVG/1.1/DTD/svg11.dtd">
<!-- Generated by graphviz version 2.40.1 (20161225.0304)
 -->
<!-- Title: dependencies Pages: 1 -->
<svg width="728pt" height="284pt"
 viewBox="0.00 0.00 728.00 284.00" xmlns="http://www.w3.org/2000/svg" xmlns:xlink="http://www.w3.org/1999/xlink">
<g id="graph0" class="graph" transform="scale(1 1) rotate(0) translate(4 280)">
<title>dependencies</title>
<polygon fill="#ffffff" stroke="transparent" points="-4,4 -4,-280 724,-280 724,4 -4,4"/>
<text text-anchor="start" x="339.0091" y="-42.4" font-family="sans-serif" font-weight="bold" font-size="14.00" fill="#000000">Legend</text>
<polygon fill="#ffffb3" stroke="transparent" points="126,-10 126,-30 146,-30 146,-10 126,-10"/>
<text text-anchor="start" x="149.629" y="-15.4" font-family="sans-serif" font-size="14.00" fill="#000000"> &#160;Declarations</text>
<polygon fill="#8dd3c7" stroke="transparent" points="239,-10 239,-30 259,-30 259,-10 239,-10"/>
<text text-anchor="start" x="262.7251" y="-15.4" font-family="sans-serif" font-size="14.00" fill="#000000"> &#160;Module</text>
<polygon fill="#80b1d3" stroke="transparent" points="325,-10 325,-30 345,-30 345,-10 325,-10"/>
<text text-anchor="start" x="348.7812" y="-15.4" font-family="sans-serif" font-size="14.00" fill="#000000"> &#160;Bootstrap</text>
<polygon fill="#fdb462" stroke="transparent" points="422,-10 422,-30 442,-30 442,-10 422,-10"/>
<text text-anchor="start" x="445.6732" y="-15.4" font-family="sans-serif" font-size="14.00" fill="#000000"> &#160;Providers</text>
<polygon fill="#fb8072" stroke="transparent" points="518,-10 518,-30 538,-30 538,-10 518,-10"/>
<text text-anchor="start" x="541.7258" y="-15.4" font-family="sans-serif" font-size="14.00" fill="#000000"> &#160;Exports</text>
<g id="clust1" class="cluster">
<title>cluster_ModalModule</title>
<polygon fill="none" stroke="#000000" stroke-dasharray="1,5" points="8,-70 8,-268 712,-268 712,-70 8,-70"/>
</g>
<g id="clust2" class="cluster">
<title>cluster_ModalModule_declarations</title>
<polygon fill="none" stroke="#000000" points="16,-78 16,-130 704,-130 704,-78 16,-78"/>
</g>
<g id="clust8" class="cluster">
<title>cluster_ModalModule_exports</title>
<polygon fill="none" stroke="#000000" points="272,-208 272,-260 464,-260 464,-208 272,-208"/>
</g>
<!-- ModalBackdropComponent -->
<g id="node1" class="node">
<title>ModalBackdropComponent</title>
<polygon fill="#ffffb3" stroke="#000000" points="696.3089,-122 523.6911,-122 523.6911,-86 696.3089,-86 696.3089,-122"/>
<text text-anchor="middle" x="610" y="-99.8" font-family="Times,serif" font-size="14.00" fill="#000000">ModalBackdropComponent</text>
</g>
<!-- ModalModule -->
<g id="node5" class="node">
<title>ModalModule</title>
<polygon fill="#8dd3c7" stroke="#000000" points="416.0997,-187 413.0997,-191 392.0997,-191 389.0997,-187 319.9003,-187 319.9003,-151 416.0997,-151 416.0997,-187"/>
<text text-anchor="middle" x="368" y="-164.8" font-family="Times,serif" font-size="14.00" fill="#000000">ModalModule</text>
</g>
<!-- ModalBackdropComponent&#45;&gt;ModalModule -->
<g id="edge1" class="edge">
<title>ModalBackdropComponent&#45;&gt;ModalModule</title>
<path fill="none" stroke="#000000" d="M610,-122.1061C610,-141.3391 610,-169 610,-169 610,-169 426.1008,-169 426.1008,-169"/>
<polygon fill="#000000" stroke="#000000" points="426.1008,-165.5001 416.1008,-169 426.1007,-172.5001 426.1008,-165.5001"/>
</g>
<!-- ModalComponent -->
<g id="node2" class="node">
<title>ModalComponent</title>
<polygon fill="#ffffb3" stroke="#000000" points="505.8823,-122 388.1177,-122 388.1177,-86 505.8823,-86 505.8823,-122"/>
<text text-anchor="middle" x="447" y="-99.8" font-family="Times,serif" font-size="14.00" fill="#000000">ModalComponent</text>
</g>
<!-- ModalComponent&#45;&gt;ModalModule -->
<g id="edge2" class="edge">
<title>ModalComponent&#45;&gt;ModalModule</title>
<path fill="none" stroke="#000000" d="M402.0544,-122.1061C402.0544,-122.1061 402.0544,-140.991 402.0544,-140.991"/>
<polygon fill="#000000" stroke="#000000" points="398.5544,-140.9909 402.0544,-150.991 405.5544,-140.991 398.5544,-140.9909"/>
</g>
<!-- ModalContentComponent -->
<g id="node3" class="node">
<title>ModalContentComponent</title>
<polygon fill="#ffffb3" stroke="#000000" points="370.2147,-122 207.7853,-122 207.7853,-86 370.2147,-86 370.2147,-122"/>
<text text-anchor="middle" x="289" y="-99.8" font-family="Times,serif" font-size="14.00" fill="#000000">ModalContentComponent</text>
</g>
<!-- ModalContentComponent&#45;&gt;ModalModule -->
<g id="edge3" class="edge">
<title>ModalContentComponent&#45;&gt;ModalModule</title>
<path fill="none" stroke="#000000" d="M345.0288,-122.1061C345.0288,-122.1061 345.0288,-140.991 345.0288,-140.991"/>
<polygon fill="#000000" stroke="#000000" points="341.5288,-140.9909 345.0288,-150.991 348.5288,-140.991 341.5288,-140.9909"/>
</g>
<!-- ModalWindowComponent -->
<g id="node4" class="node">
<title>ModalWindowComponent</title>
<polygon fill="#ffffb3" stroke="#000000" points="190.094,-122 23.906,-122 23.906,-86 190.094,-86 190.094,-122"/>
<text text-anchor="middle" x="107" y="-99.8" font-family="Times,serif" font-size="14.00" fill="#000000">ModalWindowComponent</text>
</g>
<!-- ModalWindowComponent&#45;&gt;ModalModule -->
<g id="edge4" class="edge">
<title>ModalWindowComponent&#45;&gt;ModalModule</title>
<path fill="none" stroke="#000000" d="M107,-122.1061C107,-141.3391 107,-169 107,-169 107,-169 309.8244,-169 309.8244,-169"/>
<polygon fill="#000000" stroke="#000000" points="309.8244,-172.5001 319.8244,-169 309.8244,-165.5001 309.8244,-172.5001"/>
</g>
<!-- ModalBackdropComponent  -->
<g id="node6" class="node">
<title>ModalBackdropComponent </title>
<polygon fill="#fb8072" stroke="#000000" points="455.8087,-252 280.1913,-252 280.1913,-216 455.8087,-216 455.8087,-252"/>
<text text-anchor="middle" x="368" y="-229.8" font-family="Times,serif" font-size="14.00" fill="#000000">ModalBackdropComponent </text>
</g>
<!-- ModalModule&#45;&gt;ModalBackdropComponent  -->
<g id="edge5" class="edge">
<title>ModalModule&#45;&gt;ModalBackdropComponent </title>
<path fill="none" stroke="#000000" stroke-dasharray="5,2" d="M368,-187.1061C368,-187.1061 368,-205.991 368,-205.991"/>
<polygon fill="#000000" stroke="#000000" points="364.5001,-205.9909 368,-215.991 371.5001,-205.991 364.5001,-205.9909"/>
</g>
</g>
</svg>
