<?xml version="1.0" encoding="UTF-8" standalone="no"?>
<!DOCTYPE svg PUBLIC "-//W3C//DTD SVG 1.1//EN"
 "http://www.w3.org/Graphics/SVG/1.1/DTD/svg11.dtd">
<!-- Generated by graphviz version 2.40.1 (20161225.0304)
 -->
<!-- Title: dependencies Pages: 1 -->
<svg width="864pt" height="284pt"
 viewBox="0.00 0.00 864.00 284.00" xmlns="http://www.w3.org/2000/svg" xmlns:xlink="http://www.w3.org/1999/xlink">
<g id="graph0" class="graph" transform="scale(1 1) rotate(0) translate(4 280)">
<title>dependencies</title>
<polygon fill="#ffffff" stroke="transparent" points="-4,4 -4,-280 860,-280 860,4 -4,4"/>
<text text-anchor="start" x="407.0091" y="-42.4" font-family="sans-serif" font-weight="bold" font-size="14.00" fill="#000000">Legend</text>
<polygon fill="#ffffb3" stroke="transparent" points="194,-10 194,-30 214,-30 214,-10 194,-10"/>
<text text-anchor="start" x="217.629" y="-15.4" font-family="sans-serif" font-size="14.00" fill="#000000"> &#160;Declarations</text>
<polygon fill="#8dd3c7" stroke="transparent" points="307,-10 307,-30 327,-30 327,-10 307,-10"/>
<text text-anchor="start" x="330.7251" y="-15.4" font-family="sans-serif" font-size="14.00" fill="#000000"> &#160;Module</text>
<polygon fill="#80b1d3" stroke="transparent" points="393,-10 393,-30 413,-30 413,-10 393,-10"/>
<text text-anchor="start" x="416.7812" y="-15.4" font-family="sans-serif" font-size="14.00" fill="#000000"> &#160;Bootstrap</text>
<polygon fill="#fdb462" stroke="transparent" points="490,-10 490,-30 510,-30 510,-10 490,-10"/>
<text text-anchor="start" x="513.6732" y="-15.4" font-family="sans-serif" font-size="14.00" fill="#000000"> &#160;Providers</text>
<polygon fill="#fb8072" stroke="transparent" points="586,-10 586,-30 606,-30 606,-10 586,-10"/>
<text text-anchor="start" x="609.7258" y="-15.4" font-family="sans-serif" font-size="14.00" fill="#000000"> &#160;Exports</text>
<g id="clust1" class="cluster">
<title>cluster_ModalModule</title>
<polygon fill="none" stroke="#000000" stroke-dasharray="1,5" points="8,-70 8,-268 848,-268 848,-70 8,-70"/>
</g>
<g id="clust2" class="cluster">
<title>cluster_ModalModule_declarations</title>
<polygon fill="none" stroke="#000000" points="152,-78 152,-130 840,-130 840,-78 152,-78"/>
</g>
<g id="clust7" class="cluster">
<title>cluster_ModalModule_imports</title>
<polygon fill="none" stroke="#000000" points="16,-78 16,-130 144,-130 144,-78 16,-78"/>
</g>
<g id="clust8" class="cluster">
<title>cluster_ModalModule_exports</title>
<polygon fill="none" stroke="#000000" points="334,-208 334,-260 526,-260 526,-208 334,-208"/>
</g>
<!-- ModalComponent -->
<g id="node1" class="node">
<title>ModalComponent</title>
<polygon fill="#ffffb3" stroke="#000000" points="831.8823,-122 714.1177,-122 714.1177,-86 831.8823,-86 831.8823,-122"/>
<text text-anchor="middle" x="773" y="-99.8" font-family="Times,serif" font-size="14.00" fill="#000000">ModalComponent</text>
</g>
<!-- ModalModule -->
<g id="node5" class="node">
<title>ModalModule</title>
<polygon fill="#8dd3c7" stroke="#000000" points="478.0997,-187 475.0997,-191 454.0997,-191 451.0997,-187 381.9003,-187 381.9003,-151 478.0997,-151 478.0997,-187"/>
<text text-anchor="middle" x="430" y="-164.8" font-family="Times,serif" font-size="14.00" fill="#000000">ModalModule</text>
</g>
<!-- ModalComponent&#45;&gt;ModalModule -->
<g id="edge1" class="edge">
<title>ModalComponent&#45;&gt;ModalModule</title>
<path fill="none" stroke="#000000" d="M773,-122.2843C773,-143.3211 773,-175 773,-175 773,-175 488.0538,-175 488.0538,-175"/>
<polygon fill="#000000" stroke="#000000" points="488.0539,-171.5001 478.0538,-175 488.0538,-178.5001 488.0539,-171.5001"/>
</g>
<!-- ModalContentComponent -->
<g id="node2" class="node">
<title>ModalContentComponent</title>
<polygon fill="#ffffb3" stroke="#000000" points="696.2147,-122 533.7853,-122 533.7853,-86 696.2147,-86 696.2147,-122"/>
<text text-anchor="middle" x="615" y="-99.8" font-family="Times,serif" font-size="14.00" fill="#000000">ModalContentComponent</text>
</g>
<!-- ModalContentComponent&#45;&gt;ModalModule -->
<g id="edge2" class="edge">
<title>ModalContentComponent&#45;&gt;ModalModule</title>
<path fill="none" stroke="#000000" d="M615,-122.0225C615,-139.3734 615,-163 615,-163 615,-163 488.1236,-163 488.1236,-163"/>
<polygon fill="#000000" stroke="#000000" points="488.1237,-159.5001 478.1236,-163 488.1236,-166.5001 488.1237,-159.5001"/>
</g>
<!-- ModalBackdropComponent -->
<g id="node3" class="node">
<title>ModalBackdropComponent</title>
<polygon fill="#ffffb3" stroke="#000000" points="516.3089,-122 343.6911,-122 343.6911,-86 516.3089,-86 516.3089,-122"/>
<text text-anchor="middle" x="430" y="-99.8" font-family="Times,serif" font-size="14.00" fill="#000000">ModalBackdropComponent</text>
</g>
<!-- ModalBackdropComponent&#45;&gt;ModalModule -->
<g id="edge3" class="edge">
<title>ModalBackdropComponent&#45;&gt;ModalModule</title>
<path fill="none" stroke="#000000" d="M430,-122.1061C430,-122.1061 430,-140.991 430,-140.991"/>
<polygon fill="#000000" stroke="#000000" points="426.5001,-140.9909 430,-150.991 433.5001,-140.991 426.5001,-140.9909"/>
</g>
<!-- ModalWindowComponent -->
<g id="node4" class="node">
<title>ModalWindowComponent</title>
<polygon fill="#ffffb3" stroke="#000000" points="326.094,-122 159.906,-122 159.906,-86 326.094,-86 326.094,-122"/>
<text text-anchor="middle" x="243" y="-99.8" font-family="Times,serif" font-size="14.00" fill="#000000">ModalWindowComponent</text>
</g>
<!-- ModalWindowComponent&#45;&gt;ModalModule -->
<g id="edge4" class="edge">
<title>ModalWindowComponent&#45;&gt;ModalModule</title>
<path fill="none" stroke="#000000" d="M243,-122.0225C243,-139.3734 243,-163 243,-163 243,-163 371.8429,-163 371.8429,-163"/>
<polygon fill="#000000" stroke="#000000" points="371.8429,-166.5001 381.8429,-163 371.8428,-159.5001 371.8429,-166.5001"/>
</g>
<!-- ModalBackdropComponent  -->
<g id="node7" class="node">
<title>ModalBackdropComponent </title>
<polygon fill="#fb8072" stroke="#000000" points="517.8087,-252 342.1913,-252 342.1913,-216 517.8087,-216 517.8087,-252"/>
<text text-anchor="middle" x="430" y="-229.8" font-family="Times,serif" font-size="14.00" fill="#000000">ModalBackdropComponent </text>
</g>
<!-- ModalModule&#45;&gt;ModalBackdropComponent  -->
<g id="edge6" class="edge">
<title>ModalModule&#45;&gt;ModalBackdropComponent </title>
<path fill="none" stroke="#000000" stroke-dasharray="5,2" d="M430,-187.1061C430,-187.1061 430,-205.991 430,-205.991"/>
<polygon fill="#000000" stroke="#000000" points="426.5001,-205.9909 430,-215.991 433.5001,-205.991 426.5001,-205.9909"/>
</g>
<!-- CommonModule -->
<g id="node6" class="node">
<title>CommonModule</title>
<polygon fill="#8dd3c7" stroke="#000000" points="135.6681,-122 132.6681,-126 111.6681,-126 108.6681,-122 24.3319,-122 24.3319,-86 135.6681,-86 135.6681,-122"/>
<text text-anchor="middle" x="80" y="-99.8" font-family="Times,serif" font-size="14.00" fill="#000000">CommonModule</text>
</g>
<!-- CommonModule&#45;&gt;ModalModule -->
<g id="edge5" class="edge">
<title>CommonModule&#45;&gt;ModalModule</title>
<path fill="none" stroke="#000000" d="M80,-122.2843C80,-143.3211 80,-175 80,-175 80,-175 371.7015,-175 371.7015,-175"/>
<polygon fill="#000000" stroke="#000000" points="371.7015,-178.5001 381.7015,-175 371.7014,-171.5001 371.7015,-178.5001"/>
</g>
</g>
</svg>
