<?xml version="1.0" encoding="UTF-8" standalone="no"?>
<!DOCTYPE svg PUBLIC "-//W3C//DTD SVG 1.1//EN"
 "http://www.w3.org/Graphics/SVG/1.1/DTD/svg11.dtd">
<!-- Generated by graphviz version 2.38.0 (20140413.2041)
 -->
<!-- Title: dependencies Pages: 1 -->
<svg width="864pt" height="211pt"
 viewBox="0.00 0.00 864.00 211.00" xmlns="http://www.w3.org/2000/svg" xmlns:xlink="http://www.w3.org/1999/xlink">
<g id="graph0" class="graph" transform="scale(1 1) rotate(0) translate(4 207)">
<title>dependencies</title>
<polygon fill="white" stroke="none" points="-4,4 -4,-207 860,-207 860,4 -4,4"/>
<text text-anchor="start" x="407.009" y="-42.4" font-family="sans-serif" font-weight="bold" font-size="14.00">Legend</text>
<polygon fill="#ffffb3" stroke="none" points="194,-10 194,-30 214,-30 214,-10 194,-10"/>
<text text-anchor="start" x="217.629" y="-15.4" font-family="sans-serif" font-size="14.00"> &#160;Declarations</text>
<polygon fill="#8dd3c7" stroke="none" points="307,-10 307,-30 327,-30 327,-10 307,-10"/>
<text text-anchor="start" x="330.725" y="-15.4" font-family="sans-serif" font-size="14.00"> &#160;Module</text>
<polygon fill="#80b1d3" stroke="none" points="393,-10 393,-30 413,-30 413,-10 393,-10"/>
<text text-anchor="start" x="416.781" y="-15.4" font-family="sans-serif" font-size="14.00"> &#160;Bootstrap</text>
<polygon fill="#fdb462" stroke="none" points="490,-10 490,-30 510,-30 510,-10 490,-10"/>
<text text-anchor="start" x="513.673" y="-15.4" font-family="sans-serif" font-size="14.00"> &#160;Providers</text>
<polygon fill="#fb8072" stroke="none" points="586,-10 586,-30 606,-30 606,-10 586,-10"/>
<text text-anchor="start" x="609.726" y="-15.4" font-family="sans-serif" font-size="14.00"> &#160;Exports</text>
<g id="clust1" class="cluster"><title>cluster_ModalModule</title>
<polygon fill="none" stroke="black" stroke-dasharray="1,5" points="8,-70 8,-195 848,-195 848,-70 8,-70"/>
</g>
<g id="clust2" class="cluster"><title>cluster_ModalModule_declarations</title>
<polygon fill="none" stroke="black" points="152,-78 152,-130 840,-130 840,-78 152,-78"/>
</g>
<g id="clust7" class="cluster"><title>cluster_ModalModule_imports</title>
<polygon fill="none" stroke="black" points="16,-78 16,-130 144,-130 144,-78 16,-78"/>
</g>
<!-- ModalComponent -->
<g id="node1" class="node"><title>ModalComponent</title>
<polygon fill="#ffffb3" stroke="black" points="831.882,-122 714.118,-122 714.118,-86 831.882,-86 831.882,-122"/>
<text text-anchor="middle" x="773" y="-99.8" font-family="Times,serif" font-size="14.00">ModalComponent</text>
</g>
<!-- ModalModule -->
<g id="node5" class="node"><title>ModalModule</title>
<polygon fill="#8dd3c7" stroke="black" points="478.1,-187 475.1,-191 454.1,-191 451.1,-187 381.9,-187 381.9,-151 478.1,-151 478.1,-187"/>
<text text-anchor="middle" x="430" y="-164.8" font-family="Times,serif" font-size="14.00">ModalModule</text>
</g>
<!-- ModalComponent&#45;&gt;ModalModule -->
<g id="edge1" class="edge"><title>ModalComponent&#45;&gt;ModalModule</title>
<path fill="none" stroke="black" d="M773,-122.284C773,-143.321 773,-175 773,-175 773,-175 488.054,-175 488.054,-175"/>
<polygon fill="black" stroke="black" points="488.054,-171.5 478.054,-175 488.054,-178.5 488.054,-171.5"/>
</g>
<!-- ModalContentComponent -->
<g id="node2" class="node"><title>ModalContentComponent</title>
<polygon fill="#ffffb3" stroke="black" points="696.215,-122 533.785,-122 533.785,-86 696.215,-86 696.215,-122"/>
<text text-anchor="middle" x="615" y="-99.8" font-family="Times,serif" font-size="14.00">ModalContentComponent</text>
</g>
<!-- ModalContentComponent&#45;&gt;ModalModule -->
<g id="edge2" class="edge"><title>ModalContentComponent&#45;&gt;ModalModule</title>
<path fill="none" stroke="black" d="M615,-122.023C615,-139.373 615,-163 615,-163 615,-163 488.124,-163 488.124,-163"/>
<polygon fill="black" stroke="black" points="488.124,-159.5 478.124,-163 488.124,-166.5 488.124,-159.5"/>
</g>
<!-- ModalBackdropComponent -->
<g id="node3" class="node"><title>ModalBackdropComponent</title>
<polygon fill="#ffffb3" stroke="black" points="516.309,-122 343.691,-122 343.691,-86 516.309,-86 516.309,-122"/>
<text text-anchor="middle" x="430" y="-99.8" font-family="Times,serif" font-size="14.00">ModalBackdropComponent</text>
</g>
<!-- ModalBackdropComponent&#45;&gt;ModalModule -->
<g id="edge3" class="edge"><title>ModalBackdropComponent&#45;&gt;ModalModule</title>
<path fill="none" stroke="black" d="M430,-122.106C430,-122.106 430,-140.991 430,-140.991"/>
<polygon fill="black" stroke="black" points="426.5,-140.991 430,-150.991 433.5,-140.991 426.5,-140.991"/>
</g>
<!-- ModalWindowComponent -->
<g id="node4" class="node"><title>ModalWindowComponent</title>
<polygon fill="#ffffb3" stroke="black" points="326.094,-122 159.906,-122 159.906,-86 326.094,-86 326.094,-122"/>
<text text-anchor="middle" x="243" y="-99.8" font-family="Times,serif" font-size="14.00">ModalWindowComponent</text>
</g>
<!-- ModalWindowComponent&#45;&gt;ModalModule -->
<g id="edge4" class="edge"><title>ModalWindowComponent&#45;&gt;ModalModule</title>
<path fill="none" stroke="black" d="M243,-122.023C243,-139.373 243,-163 243,-163 243,-163 371.843,-163 371.843,-163"/>
<polygon fill="black" stroke="black" points="371.843,-166.5 381.843,-163 371.843,-159.5 371.843,-166.5"/>
</g>
<!-- CommonModule -->
<g id="node6" class="node"><title>CommonModule</title>
<polygon fill="#8dd3c7" stroke="black" points="135.668,-122 132.668,-126 111.668,-126 108.668,-122 24.3319,-122 24.3319,-86 135.668,-86 135.668,-122"/>
<text text-anchor="middle" x="80" y="-99.8" font-family="Times,serif" font-size="14.00">CommonModule</text>
</g>
<!-- CommonModule&#45;&gt;ModalModule -->
<g id="edge5" class="edge"><title>CommonModule&#45;&gt;ModalModule</title>
<path fill="none" stroke="black" d="M80,-122.284C80,-143.321 80,-175 80,-175 80,-175 371.701,-175 371.701,-175"/>
<polygon fill="black" stroke="black" points="371.702,-178.5 381.701,-175 371.701,-171.5 371.702,-178.5"/>
</g>
</g>
</svg>
