<?xml version="1.0" encoding="UTF-8" standalone="no"?>
<!DOCTYPE svg PUBLIC "-//W3C//DTD SVG 1.1//EN"
 "http://www.w3.org/Graphics/SVG/1.1/DTD/svg11.dtd">
<!-- Generated by graphviz version 2.38.0 (20140413.2041)
 -->
<!-- Title: dependencies Pages: 1 -->
<svg width="504pt" height="284pt"
 viewBox="0.00 0.00 504.00 284.00" xmlns="http://www.w3.org/2000/svg" xmlns:xlink="http://www.w3.org/1999/xlink">
<g id="graph0" class="graph" transform="scale(1 1) rotate(0) translate(4 280)">
<title>dependencies</title>
<polygon fill="white" stroke="none" points="-4,4 -4,-280 500,-280 500,4 -4,4"/>
<text text-anchor="start" x="227.009" y="-42.4" font-family="sans-serif" font-weight="bold" font-size="14.00">Legend</text>
<polygon fill="#ffffb3" stroke="none" points="14,-10 14,-30 34,-30 34,-10 14,-10"/>
<text text-anchor="start" x="37.629" y="-15.4" font-family="sans-serif" font-size="14.00"> &#160;Declarations</text>
<polygon fill="#8dd3c7" stroke="none" points="127,-10 127,-30 147,-30 147,-10 127,-10"/>
<text text-anchor="start" x="150.725" y="-15.4" font-family="sans-serif" font-size="14.00"> &#160;Module</text>
<polygon fill="#80b1d3" stroke="none" points="213,-10 213,-30 233,-30 233,-10 213,-10"/>
<text text-anchor="start" x="236.781" y="-15.4" font-family="sans-serif" font-size="14.00"> &#160;Bootstrap</text>
<polygon fill="#fdb462" stroke="none" points="310,-10 310,-30 330,-30 330,-10 310,-10"/>
<text text-anchor="start" x="333.673" y="-15.4" font-family="sans-serif" font-size="14.00"> &#160;Providers</text>
<polygon fill="#fb8072" stroke="none" points="406,-10 406,-30 426,-30 426,-10 406,-10"/>
<text text-anchor="start" x="429.726" y="-15.4" font-family="sans-serif" font-size="14.00"> &#160;Exports</text>
<g id="clust1" class="cluster"><title>cluster_PaginationModule</title>
<polygon fill="none" stroke="black" stroke-dasharray="1,5" points="93,-70 93,-268 403,-268 403,-70 93,-70"/>
</g>
<g id="clust2" class="cluster"><title>cluster_PaginationModule_declarations</title>
<polygon fill="none" stroke="black" points="237,-78 237,-130 395,-130 395,-78 237,-78"/>
</g>
<g id="clust4" class="cluster"><title>cluster_PaginationModule_imports</title>
<polygon fill="none" stroke="black" points="101,-78 101,-130 229,-130 229,-78 101,-78"/>
</g>
<g id="clust5" class="cluster"><title>cluster_PaginationModule_exports</title>
<polygon fill="none" stroke="black" points="168,-208 168,-260 328,-260 328,-208 168,-208"/>
</g>
<!-- PaginationComponent -->
<g id="node1" class="node"><title>PaginationComponent</title>
<polygon fill="#ffffb3" stroke="black" points="386.716,-122 245.284,-122 245.284,-86 386.716,-86 386.716,-122"/>
<text text-anchor="middle" x="316" y="-99.8" font-family="Times,serif" font-size="14.00">PaginationComponent</text>
</g>
<!-- PaginationModule -->
<g id="node2" class="node"><title>PaginationModule</title>
<polygon fill="#8dd3c7" stroke="black" points="307.934,-187 304.934,-191 283.934,-191 280.934,-187 188.066,-187 188.066,-151 307.934,-151 307.934,-187"/>
<text text-anchor="middle" x="248" y="-164.8" font-family="Times,serif" font-size="14.00">PaginationModule</text>
</g>
<!-- PaginationComponent&#45;&gt;PaginationModule -->
<g id="edge1" class="edge"><title>PaginationComponent&#45;&gt;PaginationModule</title>
<path fill="none" stroke="black" d="M276.554,-122.106C276.554,-122.106 276.554,-140.991 276.554,-140.991"/>
<polygon fill="black" stroke="black" points="273.054,-140.991 276.554,-150.991 280.054,-140.991 273.054,-140.991"/>
</g>
<!-- PaginationComponent  -->
<g id="node4" class="node"><title>PaginationComponent </title>
<polygon fill="#fb8072" stroke="black" points="320.216,-252 175.784,-252 175.784,-216 320.216,-216 320.216,-252"/>
<text text-anchor="middle" x="248" y="-229.8" font-family="Times,serif" font-size="14.00">PaginationComponent </text>
</g>
<!-- PaginationModule&#45;&gt;PaginationComponent  -->
<g id="edge3" class="edge"><title>PaginationModule&#45;&gt;PaginationComponent </title>
<path fill="none" stroke="black" stroke-dasharray="5,2" d="M248,-187.106C248,-187.106 248,-205.991 248,-205.991"/>
<polygon fill="black" stroke="black" points="244.5,-205.991 248,-215.991 251.5,-205.991 244.5,-205.991"/>
</g>
<!-- CommonModule -->
<g id="node3" class="node"><title>CommonModule</title>
<polygon fill="#8dd3c7" stroke="black" points="220.668,-122 217.668,-126 196.668,-126 193.668,-122 109.332,-122 109.332,-86 220.668,-86 220.668,-122"/>
<text text-anchor="middle" x="165" y="-99.8" font-family="Times,serif" font-size="14.00">CommonModule</text>
</g>
<!-- CommonModule&#45;&gt;PaginationModule -->
<g id="edge2" class="edge"><title>CommonModule&#45;&gt;PaginationModule</title>
<path fill="none" stroke="black" d="M204.559,-122.106C204.559,-122.106 204.559,-140.991 204.559,-140.991"/>
<polygon fill="black" stroke="black" points="201.059,-140.991 204.559,-150.991 208.059,-140.991 201.059,-140.991"/>
</g>
</g>
</svg>
