<?xml version="1.0" encoding="UTF-8" standalone="no"?>
<!DOCTYPE svg PUBLIC "-//W3C//DTD SVG 1.1//EN"
 "http://www.w3.org/Graphics/SVG/1.1/DTD/svg11.dtd">
<!-- Generated by graphviz version 2.40.1 (20161225.0304)
 -->
<!-- Title: dependencies Pages: 1 -->
<svg width="504pt" height="284pt"
 viewBox="0.00 0.00 504.00 284.00" xmlns="http://www.w3.org/2000/svg" xmlns:xlink="http://www.w3.org/1999/xlink">
<g id="graph0" class="graph" transform="scale(1 1) rotate(0) translate(4 280)">
<title>dependencies</title>
<polygon fill="#ffffff" stroke="transparent" points="-4,4 -4,-280 500,-280 500,4 -4,4"/>
<text text-anchor="start" x="227.0091" y="-42.4" font-family="sans-serif" font-weight="bold" font-size="14.00" fill="#000000">Legend</text>
<polygon fill="#ffffb3" stroke="transparent" points="14,-10 14,-30 34,-30 34,-10 14,-10"/>
<text text-anchor="start" x="37.629" y="-15.4" font-family="sans-serif" font-size="14.00" fill="#000000"> &#160;Declarations</text>
<polygon fill="#8dd3c7" stroke="transparent" points="127,-10 127,-30 147,-30 147,-10 127,-10"/>
<text text-anchor="start" x="150.7251" y="-15.4" font-family="sans-serif" font-size="14.00" fill="#000000"> &#160;Module</text>
<polygon fill="#80b1d3" stroke="transparent" points="213,-10 213,-30 233,-30 233,-10 213,-10"/>
<text text-anchor="start" x="236.7812" y="-15.4" font-family="sans-serif" font-size="14.00" fill="#000000"> &#160;Bootstrap</text>
<polygon fill="#fdb462" stroke="transparent" points="310,-10 310,-30 330,-30 330,-10 310,-10"/>
<text text-anchor="start" x="333.6732" y="-15.4" font-family="sans-serif" font-size="14.00" fill="#000000"> &#160;Providers</text>
<polygon fill="#fb8072" stroke="transparent" points="406,-10 406,-30 426,-30 426,-10 406,-10"/>
<text text-anchor="start" x="429.7258" y="-15.4" font-family="sans-serif" font-size="14.00" fill="#000000"> &#160;Exports</text>
<g id="clust1" class="cluster">
<title>cluster_TooltipModule</title>
<polygon fill="none" stroke="#000000" stroke-dasharray="1,5" points="86,-70 86,-268 410,-268 410,-70 86,-70"/>
</g>
<g id="clust3" class="cluster">
<title>cluster_TooltipModule_imports</title>
<polygon fill="none" stroke="#000000" points="196,-78 196,-130 324,-130 324,-78 196,-78"/>
</g>
<g id="clust4" class="cluster">
<title>cluster_TooltipModule_exports</title>
<polygon fill="none" stroke="#000000" points="94,-208 94,-260 402,-260 402,-208 94,-208"/>
</g>
<!-- CommonModule -->
<g id="node1" class="node">
<title>CommonModule</title>
<polygon fill="#8dd3c7" stroke="#000000" points="315.6681,-122 312.6681,-126 291.6681,-126 288.6681,-122 204.3319,-122 204.3319,-86 315.6681,-86 315.6681,-122"/>
<text text-anchor="middle" x="260" y="-99.8" font-family="Times,serif" font-size="14.00" fill="#000000">CommonModule</text>
</g>
<!-- TooltipModule -->
<g id="node2" class="node">
<title>TooltipModule</title>
<polygon fill="#8dd3c7" stroke="#000000" points="310.2745,-187 307.2745,-191 286.2745,-191 283.2745,-187 209.7255,-187 209.7255,-151 310.2745,-151 310.2745,-187"/>
<text text-anchor="middle" x="260" y="-164.8" font-family="Times,serif" font-size="14.00" fill="#000000">TooltipModule</text>
</g>
<!-- CommonModule&#45;&gt;TooltipModule -->
<g id="edge1" class="edge">
<title>CommonModule&#45;&gt;TooltipModule</title>
<path fill="none" stroke="#000000" d="M260,-122.1061C260,-122.1061 260,-140.991 260,-140.991"/>
<polygon fill="#000000" stroke="#000000" points="256.5001,-140.9909 260,-150.991 263.5001,-140.991 256.5001,-140.9909"/>
</g>
<!-- TooltipDirective  -->
<g id="node3" class="node">
<title>TooltipDirective </title>
<polygon fill="#fb8072" stroke="#000000" points="394.3074,-252 281.6926,-252 281.6926,-216 394.3074,-216 394.3074,-252"/>
<text text-anchor="middle" x="338" y="-229.8" font-family="Times,serif" font-size="14.00" fill="#000000">TooltipDirective </text>
</g>
<!-- TooltipModule&#45;&gt;TooltipDirective  -->
<g id="edge2" class="edge">
<title>TooltipModule&#45;&gt;TooltipDirective </title>
<path fill="none" stroke="#000000" stroke-dasharray="5,2" d="M295.9918,-187.1061C295.9918,-187.1061 295.9918,-205.991 295.9918,-205.991"/>
<polygon fill="#000000" stroke="#000000" points="292.4918,-205.9909 295.9918,-215.991 299.4918,-205.991 292.4918,-205.9909"/>
</g>
<!-- TooltipPopupComponent  -->
<g id="node4" class="node">
<title>TooltipPopupComponent </title>
<polygon fill="#fb8072" stroke="#000000" points="263.8395,-252 102.1605,-252 102.1605,-216 263.8395,-216 263.8395,-252"/>
<text text-anchor="middle" x="183" y="-229.8" font-family="Times,serif" font-size="14.00" fill="#000000">TooltipPopupComponent </text>
</g>
<!-- TooltipModule&#45;&gt;TooltipPopupComponent  -->
<g id="edge3" class="edge">
<title>TooltipModule&#45;&gt;TooltipPopupComponent </title>
<path fill="none" stroke="#000000" stroke-dasharray="5,2" d="M236.7663,-187.1061C236.7663,-187.1061 236.7663,-205.991 236.7663,-205.991"/>
<polygon fill="#000000" stroke="#000000" points="233.2664,-205.9909 236.7663,-215.991 240.2664,-205.991 233.2664,-205.9909"/>
</g>
</g>
</svg>
