<?xml version="1.0" encoding="UTF-8" standalone="no"?>
<!DOCTYPE svg PUBLIC "-//W3C//DTD SVG 1.1//EN"
 "http://www.w3.org/Graphics/SVG/1.1/DTD/svg11.dtd">
<!-- Generated by graphviz version 2.38.0 (20140413.2041)
 -->
<!-- Title: dependencies Pages: 1 -->
<svg width="504pt" height="284pt"
 viewBox="0.00 0.00 504.00 284.00" xmlns="http://www.w3.org/2000/svg" xmlns:xlink="http://www.w3.org/1999/xlink">
<g id="graph0" class="graph" transform="scale(1 1) rotate(0) translate(4 280)">
<title>dependencies</title>
<polygon fill="white" stroke="none" points="-4,4 -4,-280 500,-280 500,4 -4,4"/>
<text text-anchor="start" x="227.009" y="-42.4" font-family="sans-serif" font-weight="bold" font-size="14.00">Legend</text>
<polygon fill="#ffffb3" stroke="none" points="14,-10 14,-30 34,-30 34,-10 14,-10"/>
<text text-anchor="start" x="37.629" y="-15.4" font-family="sans-serif" font-size="14.00"> &#160;Declarations</text>
<polygon fill="#8dd3c7" stroke="none" points="127,-10 127,-30 147,-30 147,-10 127,-10"/>
<text text-anchor="start" x="150.725" y="-15.4" font-family="sans-serif" font-size="14.00"> &#160;Module</text>
<polygon fill="#80b1d3" stroke="none" points="213,-10 213,-30 233,-30 233,-10 213,-10"/>
<text text-anchor="start" x="236.781" y="-15.4" font-family="sans-serif" font-size="14.00"> &#160;Bootstrap</text>
<polygon fill="#fdb462" stroke="none" points="310,-10 310,-30 330,-30 330,-10 310,-10"/>
<text text-anchor="start" x="333.673" y="-15.4" font-family="sans-serif" font-size="14.00"> &#160;Providers</text>
<polygon fill="#fb8072" stroke="none" points="406,-10 406,-30 426,-30 426,-10 406,-10"/>
<text text-anchor="start" x="429.726" y="-15.4" font-family="sans-serif" font-size="14.00"> &#160;Exports</text>
<g id="clust1" class="cluster"><title>cluster_TooltipModule</title>
<polygon fill="none" stroke="black" stroke-dasharray="1,5" points="21,-70 21,-268 475,-268 475,-70 21,-70"/>
</g>
<g id="clust2" class="cluster"><title>cluster_TooltipModule_declarations</title>
<polygon fill="none" stroke="black" points="165,-78 165,-130 467,-130 467,-78 165,-78"/>
</g>
<g id="clust5" class="cluster"><title>cluster_TooltipModule_imports</title>
<polygon fill="none" stroke="black" points="29,-78 29,-130 157,-130 157,-78 29,-78"/>
</g>
<g id="clust6" class="cluster"><title>cluster_TooltipModule_exports</title>
<polygon fill="none" stroke="black" points="94,-208 94,-260 402,-260 402,-208 94,-208"/>
</g>
<!-- TooltipDirective -->
<g id="node1" class="node"><title>TooltipDirective</title>
<polygon fill="#ffffb3" stroke="black" points="458.808,-122 349.192,-122 349.192,-86 458.808,-86 458.808,-122"/>
<text text-anchor="middle" x="404" y="-99.8" font-family="Times,serif" font-size="14.00">TooltipDirective</text>
</g>
<!-- TooltipModule -->
<g id="node3" class="node"><title>TooltipModule</title>
<polygon fill="#8dd3c7" stroke="black" points="302.274,-187 299.274,-191 278.274,-191 275.274,-187 201.726,-187 201.726,-151 302.274,-151 302.274,-187"/>
<text text-anchor="middle" x="252" y="-164.8" font-family="Times,serif" font-size="14.00">TooltipModule</text>
</g>
<!-- TooltipDirective&#45;&gt;TooltipModule -->
<g id="edge1" class="edge"><title>TooltipDirective&#45;&gt;TooltipModule</title>
<path fill="none" stroke="black" d="M371.875,-122.106C371.875,-141.339 371.875,-169 371.875,-169 371.875,-169 312.49,-169 312.49,-169"/>
<polygon fill="black" stroke="black" points="312.49,-165.5 302.49,-169 312.49,-172.5 312.49,-165.5"/>
</g>
<!-- TooltipPopupComponent -->
<g id="node2" class="node"><title>TooltipPopupComponent</title>
<polygon fill="#ffffb3" stroke="black" points="331.34,-122 172.66,-122 172.66,-86 331.34,-86 331.34,-122"/>
<text text-anchor="middle" x="252" y="-99.8" font-family="Times,serif" font-size="14.00">TooltipPopupComponent</text>
</g>
<!-- TooltipPopupComponent&#45;&gt;TooltipModule -->
<g id="edge2" class="edge"><title>TooltipPopupComponent&#45;&gt;TooltipModule</title>
<path fill="none" stroke="black" d="M252,-122.106C252,-122.106 252,-140.991 252,-140.991"/>
<polygon fill="black" stroke="black" points="248.5,-140.991 252,-150.991 255.5,-140.991 248.5,-140.991"/>
</g>
<!-- TooltipDirective  -->
<g id="node5" class="node"><title>TooltipDirective </title>
<polygon fill="#fb8072" stroke="black" points="394.307,-252 281.693,-252 281.693,-216 394.307,-216 394.307,-252"/>
<text text-anchor="middle" x="338" y="-229.8" font-family="Times,serif" font-size="14.00">TooltipDirective </text>
</g>
<!-- TooltipModule&#45;&gt;TooltipDirective  -->
<g id="edge4" class="edge"><title>TooltipModule&#45;&gt;TooltipDirective </title>
<path fill="none" stroke="black" stroke-dasharray="5,2" d="M291.992,-187.106C291.992,-187.106 291.992,-205.991 291.992,-205.991"/>
<polygon fill="black" stroke="black" points="288.492,-205.991 291.992,-215.991 295.492,-205.991 288.492,-205.991"/>
</g>
<!-- TooltipPopupComponent  -->
<g id="node6" class="node"><title>TooltipPopupComponent </title>
<polygon fill="#fb8072" stroke="black" points="263.839,-252 102.161,-252 102.161,-216 263.839,-216 263.839,-252"/>
<text text-anchor="middle" x="183" y="-229.8" font-family="Times,serif" font-size="14.00">TooltipPopupComponent </text>
</g>
<!-- TooltipModule&#45;&gt;TooltipPopupComponent  -->
<g id="edge5" class="edge"><title>TooltipModule&#45;&gt;TooltipPopupComponent </title>
<path fill="none" stroke="black" stroke-dasharray="5,2" d="M232.766,-187.106C232.766,-187.106 232.766,-205.991 232.766,-205.991"/>
<polygon fill="black" stroke="black" points="229.266,-205.991 232.766,-215.991 236.266,-205.991 229.266,-205.991"/>
</g>
<!-- CommonModule -->
<g id="node4" class="node"><title>CommonModule</title>
<polygon fill="#8dd3c7" stroke="black" points="148.668,-122 145.668,-126 124.668,-126 121.668,-122 37.3319,-122 37.3319,-86 148.668,-86 148.668,-122"/>
<text text-anchor="middle" x="93" y="-99.8" font-family="Times,serif" font-size="14.00">CommonModule</text>
</g>
<!-- CommonModule&#45;&gt;TooltipModule -->
<g id="edge3" class="edge"><title>CommonModule&#45;&gt;TooltipModule</title>
<path fill="none" stroke="black" d="M125.457,-122.106C125.457,-141.339 125.457,-169 125.457,-169 125.457,-169 191.623,-169 191.623,-169"/>
<polygon fill="black" stroke="black" points="191.623,-172.5 201.623,-169 191.623,-165.5 191.623,-172.5"/>
</g>
</g>
</svg>
