<?xml version="1.0" encoding="UTF-8" standalone="no"?>
<!DOCTYPE svg PUBLIC "-//W3C//DTD SVG 1.1//EN"
 "http://www.w3.org/Graphics/SVG/1.1/DTD/svg11.dtd">
<!-- Generated by graphviz version 2.38.0 (20140413.2041)
 -->
<!-- Title: dependencies Pages: 1 -->
<svg width="504pt" height="284pt"
 viewBox="0.00 0.00 504.00 284.00" xmlns="http://www.w3.org/2000/svg" xmlns:xlink="http://www.w3.org/1999/xlink">
<g id="graph0" class="graph" transform="scale(1 1) rotate(0) translate(4 280)">
<title>dependencies</title>
<polygon fill="white" stroke="none" points="-4,4 -4,-280 500,-280 500,4 -4,4"/>
<text text-anchor="start" x="227.009" y="-42.4" font-family="sans-serif" font-weight="bold" font-size="14.00">Legend</text>
<polygon fill="#ffffb3" stroke="none" points="14,-10 14,-30 34,-30 34,-10 14,-10"/>
<text text-anchor="start" x="37.629" y="-15.4" font-family="sans-serif" font-size="14.00"> &#160;Declarations</text>
<polygon fill="#8dd3c7" stroke="none" points="127,-10 127,-30 147,-30 147,-10 127,-10"/>
<text text-anchor="start" x="150.725" y="-15.4" font-family="sans-serif" font-size="14.00"> &#160;Module</text>
<polygon fill="#80b1d3" stroke="none" points="213,-10 213,-30 233,-30 233,-10 213,-10"/>
<text text-anchor="start" x="236.781" y="-15.4" font-family="sans-serif" font-size="14.00"> &#160;Bootstrap</text>
<polygon fill="#fdb462" stroke="none" points="310,-10 310,-30 330,-30 330,-10 310,-10"/>
<text text-anchor="start" x="333.673" y="-15.4" font-family="sans-serif" font-size="14.00"> &#160;Providers</text>
<polygon fill="#fb8072" stroke="none" points="406,-10 406,-30 426,-30 426,-10 406,-10"/>
<text text-anchor="start" x="429.726" y="-15.4" font-family="sans-serif" font-size="14.00"> &#160;Exports</text>
<g id="clust1" class="cluster"><title>cluster_RatingModule</title>
<polygon fill="none" stroke="black" stroke-dasharray="1,5" points="105,-70 105,-268 391,-268 391,-70 105,-70"/>
</g>
<g id="clust2" class="cluster"><title>cluster_RatingModule_declarations</title>
<polygon fill="none" stroke="black" points="249,-78 249,-130 383,-130 383,-78 249,-78"/>
</g>
<g id="clust4" class="cluster"><title>cluster_RatingModule_imports</title>
<polygon fill="none" stroke="black" points="113,-78 113,-130 241,-130 241,-78 113,-78"/>
</g>
<g id="clust5" class="cluster"><title>cluster_RatingModule_exports</title>
<polygon fill="none" stroke="black" points="179,-208 179,-260 317,-260 317,-208 179,-208"/>
</g>
<!-- RatingComponent -->
<g id="node1" class="node"><title>RatingComponent</title>
<polygon fill="#ffffb3" stroke="black" points="375.165,-122 256.835,-122 256.835,-86 375.165,-86 375.165,-122"/>
<text text-anchor="middle" x="316" y="-99.8" font-family="Times,serif" font-size="14.00">RatingComponent</text>
</g>
<!-- RatingModule -->
<g id="node2" class="node"><title>RatingModule</title>
<polygon fill="#8dd3c7" stroke="black" points="296.382,-187 293.382,-191 272.382,-191 269.382,-187 199.618,-187 199.618,-151 296.382,-151 296.382,-187"/>
<text text-anchor="middle" x="248" y="-164.8" font-family="Times,serif" font-size="14.00">RatingModule</text>
</g>
<!-- RatingComponent&#45;&gt;RatingModule -->
<g id="edge1" class="edge"><title>RatingComponent&#45;&gt;RatingModule</title>
<path fill="none" stroke="black" d="M276.554,-122.106C276.554,-122.106 276.554,-140.991 276.554,-140.991"/>
<polygon fill="black" stroke="black" points="273.054,-140.991 276.554,-150.991 280.054,-140.991 273.054,-140.991"/>
</g>
<!-- RatingComponent  -->
<g id="node4" class="node"><title>RatingComponent </title>
<polygon fill="#fb8072" stroke="black" points="309.165,-252 186.835,-252 186.835,-216 309.165,-216 309.165,-252"/>
<text text-anchor="middle" x="248" y="-229.8" font-family="Times,serif" font-size="14.00">RatingComponent </text>
</g>
<!-- RatingModule&#45;&gt;RatingComponent  -->
<g id="edge3" class="edge"><title>RatingModule&#45;&gt;RatingComponent </title>
<path fill="none" stroke="black" stroke-dasharray="5,2" d="M248,-187.106C248,-187.106 248,-205.991 248,-205.991"/>
<polygon fill="black" stroke="black" points="244.5,-205.991 248,-215.991 251.5,-205.991 244.5,-205.991"/>
</g>
<!-- CommonModule -->
<g id="node3" class="node"><title>CommonModule</title>
<polygon fill="#8dd3c7" stroke="black" points="232.668,-122 229.668,-126 208.668,-126 205.668,-122 121.332,-122 121.332,-86 232.668,-86 232.668,-122"/>
<text text-anchor="middle" x="177" y="-99.8" font-family="Times,serif" font-size="14.00">CommonModule</text>
</g>
<!-- CommonModule&#45;&gt;RatingModule -->
<g id="edge2" class="edge"><title>CommonModule&#45;&gt;RatingModule</title>
<path fill="none" stroke="black" d="M216.196,-122.106C216.196,-122.106 216.196,-140.991 216.196,-140.991"/>
<polygon fill="black" stroke="black" points="212.696,-140.991 216.196,-150.991 219.696,-140.991 212.696,-140.991"/>
</g>
</g>
</svg>
