<?xml version="1.0" encoding="UTF-8" standalone="no"?>
<!DOCTYPE svg PUBLIC "-//W3C//DTD SVG 1.1//EN"
 "http://www.w3.org/Graphics/SVG/1.1/DTD/svg11.dtd">
<!-- Generated by graphviz version 2.40.1 (20161225.0304)
 -->
<!-- Title: dependencies Pages: 1 -->
<svg width="680pt" height="284pt"
 viewBox="0.00 0.00 680.00 284.00" xmlns="http://www.w3.org/2000/svg" xmlns:xlink="http://www.w3.org/1999/xlink">
<g id="graph0" class="graph" transform="scale(1 1) rotate(0) translate(4 280)">
<title>dependencies</title>
<polygon fill="#ffffff" stroke="transparent" points="-4,4 -4,-280 676,-280 676,4 -4,4"/>
<text text-anchor="start" x="315.0091" y="-42.4" font-family="sans-serif" font-weight="bold" font-size="14.00" fill="#000000">Legend</text>
<polygon fill="#ffffb3" stroke="transparent" points="102,-10 102,-30 122,-30 122,-10 102,-10"/>
<text text-anchor="start" x="125.629" y="-15.4" font-family="sans-serif" font-size="14.00" fill="#000000"> &#160;Declarations</text>
<polygon fill="#8dd3c7" stroke="transparent" points="215,-10 215,-30 235,-30 235,-10 215,-10"/>
<text text-anchor="start" x="238.7251" y="-15.4" font-family="sans-serif" font-size="14.00" fill="#000000"> &#160;Module</text>
<polygon fill="#80b1d3" stroke="transparent" points="301,-10 301,-30 321,-30 321,-10 301,-10"/>
<text text-anchor="start" x="324.7812" y="-15.4" font-family="sans-serif" font-size="14.00" fill="#000000"> &#160;Bootstrap</text>
<polygon fill="#fdb462" stroke="transparent" points="398,-10 398,-30 418,-30 418,-10 398,-10"/>
<text text-anchor="start" x="421.6732" y="-15.4" font-family="sans-serif" font-size="14.00" fill="#000000"> &#160;Providers</text>
<polygon fill="#fb8072" stroke="transparent" points="494,-10 494,-30 514,-30 514,-10 494,-10"/>
<text text-anchor="start" x="517.7258" y="-15.4" font-family="sans-serif" font-size="14.00" fill="#000000"> &#160;Exports</text>
<g id="clust1" class="cluster">
<title>cluster_PanelModule</title>
<polygon fill="none" stroke="#000000" stroke-dasharray="1,5" points="8,-70 8,-268 664,-268 664,-70 8,-70"/>
</g>
<g id="clust3" class="cluster">
<title>cluster_PanelModule_imports</title>
<polygon fill="none" stroke="#000000" points="287,-78 287,-130 415,-130 415,-78 287,-78"/>
</g>
<g id="clust4" class="cluster">
<title>cluster_PanelModule_exports</title>
<polygon fill="none" stroke="#000000" points="16,-208 16,-260 656,-260 656,-208 16,-208"/>
</g>
<!-- CommonModule -->
<g id="node1" class="node">
<title>CommonModule</title>
<polygon fill="#8dd3c7" stroke="#000000" points="406.6681,-122 403.6681,-126 382.6681,-126 379.6681,-122 295.3319,-122 295.3319,-86 406.6681,-86 406.6681,-122"/>
<text text-anchor="middle" x="351" y="-99.8" font-family="Times,serif" font-size="14.00" fill="#000000">CommonModule</text>
</g>
<!-- PanelModule -->
<g id="node2" class="node">
<title>PanelModule</title>
<polygon fill="#8dd3c7" stroke="#000000" points="396.1529,-187 393.1529,-191 372.1529,-191 369.1529,-187 305.8471,-187 305.8471,-151 396.1529,-151 396.1529,-187"/>
<text text-anchor="middle" x="351" y="-164.8" font-family="Times,serif" font-size="14.00" fill="#000000">PanelModule</text>
</g>
<!-- CommonModule&#45;&gt;PanelModule -->
<g id="edge1" class="edge">
<title>CommonModule&#45;&gt;PanelModule</title>
<path fill="none" stroke="#000000" d="M351,-122.1061C351,-122.1061 351,-140.991 351,-140.991"/>
<polygon fill="#000000" stroke="#000000" points="347.5001,-140.9909 351,-150.991 354.5001,-140.991 347.5001,-140.9909"/>
</g>
<!-- PanelComponent  -->
<g id="node3" class="node">
<title>PanelComponent </title>
<polygon fill="#fb8072" stroke="#000000" points="647.9348,-252 532.0652,-252 532.0652,-216 647.9348,-216 647.9348,-252"/>
<text text-anchor="middle" x="590" y="-229.8" font-family="Times,serif" font-size="14.00" fill="#000000">PanelComponent </text>
</g>
<!-- PanelModule&#45;&gt;PanelComponent  -->
<g id="edge2" class="edge">
<title>PanelModule&#45;&gt;PanelComponent </title>
<path fill="none" stroke="#000000" stroke-dasharray="5,2" d="M396.235,-169C465.5236,-169 590,-169 590,-169 590,-169 590,-205.8939 590,-205.8939"/>
<polygon fill="#000000" stroke="#000000" points="586.5001,-205.8938 590,-215.8939 593.5001,-205.8939 586.5001,-205.8938"/>
</g>
<!-- PanelHeaderComponent  -->
<g id="node4" class="node">
<title>PanelHeaderComponent </title>
<polygon fill="#fb8072" stroke="#000000" points="514.3462,-252 357.6538,-252 357.6538,-216 514.3462,-216 514.3462,-252"/>
<text text-anchor="middle" x="436" y="-229.8" font-family="Times,serif" font-size="14.00" fill="#000000">PanelHeaderComponent </text>
</g>
<!-- PanelModule&#45;&gt;PanelHeaderComponent  -->
<g id="edge3" class="edge">
<title>PanelModule&#45;&gt;PanelHeaderComponent </title>
<path fill="none" stroke="#000000" stroke-dasharray="5,2" d="M377.0766,-187.1061C377.0766,-187.1061 377.0766,-205.991 377.0766,-205.991"/>
<polygon fill="#000000" stroke="#000000" points="373.5767,-205.9909 377.0766,-215.991 380.5767,-205.991 373.5767,-205.9909"/>
</g>
<!-- PanelBodyComponent  -->
<g id="node5" class="node">
<title>PanelBodyComponent </title>
<polygon fill="#fb8072" stroke="#000000" points="340.2717,-252 193.7283,-252 193.7283,-216 340.2717,-216 340.2717,-252"/>
<text text-anchor="middle" x="267" y="-229.8" font-family="Times,serif" font-size="14.00" fill="#000000">PanelBodyComponent </text>
</g>
<!-- PanelModule&#45;&gt;PanelBodyComponent  -->
<g id="edge4" class="edge">
<title>PanelModule&#45;&gt;PanelBodyComponent </title>
<path fill="none" stroke="#000000" stroke-dasharray="5,2" d="M322.9048,-187.1061C322.9048,-187.1061 322.9048,-205.991 322.9048,-205.991"/>
<polygon fill="#000000" stroke="#000000" points="319.4049,-205.9909 322.9048,-215.991 326.4049,-205.991 319.4049,-205.9909"/>
</g>
<!-- PanelFooterComponent  -->
<g id="node6" class="node">
<title>PanelFooterComponent </title>
<polygon fill="#fb8072" stroke="#000000" points="176.484,-252 23.516,-252 23.516,-216 176.484,-216 176.484,-252"/>
<text text-anchor="middle" x="100" y="-229.8" font-family="Times,serif" font-size="14.00" fill="#000000">PanelFooterComponent </text>
</g>
<!-- PanelModule&#45;&gt;PanelFooterComponent  -->
<g id="edge5" class="edge">
<title>PanelModule&#45;&gt;PanelFooterComponent </title>
<path fill="none" stroke="#000000" stroke-dasharray="5,2" d="M305.8363,-169C233.5719,-169 100,-169 100,-169 100,-169 100,-205.8939 100,-205.8939"/>
<polygon fill="#000000" stroke="#000000" points="96.5001,-205.8938 100,-215.8939 103.5001,-205.8939 96.5001,-205.8938"/>
</g>
</g>
</svg>
