<?xml version="1.0" encoding="UTF-8" standalone="no"?>
<!DOCTYPE svg PUBLIC "-//W3C//DTD SVG 1.1//EN"
 "http://www.w3.org/Graphics/SVG/1.1/DTD/svg11.dtd">
<!-- Generated by graphviz version 2.38.0 (20140413.2041)
 -->
<!-- Title: dependencies Pages: 1 -->
<svg width="636pt" height="284pt"
 viewBox="0.00 0.00 636.00 284.00" xmlns="http://www.w3.org/2000/svg" xmlns:xlink="http://www.w3.org/1999/xlink">
<g id="graph0" class="graph" transform="scale(1 1) rotate(0) translate(4 280)">
<title>dependencies</title>
<polygon fill="white" stroke="none" points="-4,4 -4,-280 632,-280 632,4 -4,4"/>
<text text-anchor="start" x="293.009" y="-42.4" font-family="sans-serif" font-weight="bold" font-size="14.00">Legend</text>
<polygon fill="#ffffb3" stroke="none" points="80,-10 80,-30 100,-30 100,-10 80,-10"/>
<text text-anchor="start" x="103.629" y="-15.4" font-family="sans-serif" font-size="14.00"> &#160;Declarations</text>
<polygon fill="#8dd3c7" stroke="none" points="193,-10 193,-30 213,-30 213,-10 193,-10"/>
<text text-anchor="start" x="216.725" y="-15.4" font-family="sans-serif" font-size="14.00"> &#160;Module</text>
<polygon fill="#80b1d3" stroke="none" points="279,-10 279,-30 299,-30 299,-10 279,-10"/>
<text text-anchor="start" x="302.781" y="-15.4" font-family="sans-serif" font-size="14.00"> &#160;Bootstrap</text>
<polygon fill="#fdb462" stroke="none" points="376,-10 376,-30 396,-30 396,-10 376,-10"/>
<text text-anchor="start" x="399.673" y="-15.4" font-family="sans-serif" font-size="14.00"> &#160;Providers</text>
<polygon fill="#fb8072" stroke="none" points="472,-10 472,-30 492,-30 492,-10 472,-10"/>
<text text-anchor="start" x="495.726" y="-15.4" font-family="sans-serif" font-size="14.00"> &#160;Exports</text>
<g id="clust1" class="cluster"><title>cluster_PanelModule</title>
<polygon fill="none" stroke="black" stroke-dasharray="1,5" points="8,-70 8,-268 620,-268 620,-70 8,-70"/>
</g>
<g id="clust2" class="cluster"><title>cluster_PanelModule_declarations</title>
<polygon fill="none" stroke="black" points="152,-78 152,-130 612,-130 612,-78 152,-78"/>
</g>
<g id="clust6" class="cluster"><title>cluster_PanelModule_imports</title>
<polygon fill="none" stroke="black" points="16,-78 16,-130 144,-130 144,-78 16,-78"/>
</g>
<g id="clust7" class="cluster"><title>cluster_PanelModule_exports</title>
<polygon fill="none" stroke="black" points="79,-208 79,-260 549,-260 549,-208 79,-208"/>
</g>
<!-- PanelComponent -->
<g id="node1" class="node"><title>PanelComponent</title>
<polygon fill="#ffffb3" stroke="black" points="604.436,-122 491.564,-122 491.564,-86 604.436,-86 604.436,-122"/>
<text text-anchor="middle" x="548" y="-99.8" font-family="Times,serif" font-size="14.00">PanelComponent</text>
</g>
<!-- PanelModule -->
<g id="node4" class="node"><title>PanelModule</title>
<polygon fill="#8dd3c7" stroke="black" points="374.153,-187 371.153,-191 350.153,-191 347.153,-187 283.847,-187 283.847,-151 374.153,-151 374.153,-187"/>
<text text-anchor="middle" x="329" y="-164.8" font-family="Times,serif" font-size="14.00">PanelModule</text>
</g>
<!-- PanelComponent&#45;&gt;PanelModule -->
<g id="edge1" class="edge"><title>PanelComponent&#45;&gt;PanelModule</title>
<path fill="none" stroke="black" d="M516.375,-122.023C516.375,-139.373 516.375,-163 516.375,-163 516.375,-163 384.358,-163 384.358,-163"/>
<polygon fill="black" stroke="black" points="384.358,-159.5 374.358,-163 384.358,-166.5 384.358,-159.5"/>
</g>
<!-- PanelHeaderComponent -->
<g id="node2" class="node"><title>PanelHeaderComponent</title>
<polygon fill="#ffffb3" stroke="black" points="473.346,-122 320.654,-122 320.654,-86 473.346,-86 473.346,-122"/>
<text text-anchor="middle" x="397" y="-99.8" font-family="Times,serif" font-size="14.00">PanelHeaderComponent</text>
</g>
<!-- PanelHeaderComponent&#45;&gt;PanelModule -->
<g id="edge2" class="edge"><title>PanelHeaderComponent&#45;&gt;PanelModule</title>
<path fill="none" stroke="black" d="M347.452,-122.106C347.452,-122.106 347.452,-140.991 347.452,-140.991"/>
<polygon fill="black" stroke="black" points="343.952,-140.991 347.452,-150.991 350.952,-140.991 343.952,-140.991"/>
</g>
<!-- PanelBodyComponent -->
<g id="node3" class="node"><title>PanelBodyComponent</title>
<polygon fill="#ffffb3" stroke="black" points="302.272,-122 159.728,-122 159.728,-86 302.272,-86 302.272,-122"/>
<text text-anchor="middle" x="231" y="-99.8" font-family="Times,serif" font-size="14.00">PanelBodyComponent</text>
</g>
<!-- PanelBodyComponent&#45;&gt;PanelModule -->
<g id="edge3" class="edge"><title>PanelBodyComponent&#45;&gt;PanelModule</title>
<path fill="none" stroke="black" d="M293.03,-122.106C293.03,-122.106 293.03,-140.991 293.03,-140.991"/>
<polygon fill="black" stroke="black" points="289.53,-140.991 293.03,-150.991 296.53,-140.991 289.53,-140.991"/>
</g>
<!-- PanelComponent  -->
<g id="node6" class="node"><title>PanelComponent </title>
<polygon fill="#fb8072" stroke="black" points="540.935,-252 425.065,-252 425.065,-216 540.935,-216 540.935,-252"/>
<text text-anchor="middle" x="483" y="-229.8" font-family="Times,serif" font-size="14.00">PanelComponent </text>
</g>
<!-- PanelModule&#45;&gt;PanelComponent  -->
<g id="edge5" class="edge"><title>PanelModule&#45;&gt;PanelComponent </title>
<path fill="none" stroke="black" stroke-dasharray="5,2" d="M374.453,-175C408.499,-175 449.228,-175 449.228,-175 449.228,-175 449.228,-205.977 449.228,-205.977"/>
<polygon fill="black" stroke="black" points="445.728,-205.977 449.228,-215.977 452.728,-205.978 445.728,-205.977"/>
</g>
<!-- PanelHeaderComponent  -->
<g id="node7" class="node"><title>PanelHeaderComponent </title>
<polygon fill="#fb8072" stroke="black" points="407.346,-252 250.654,-252 250.654,-216 407.346,-216 407.346,-252"/>
<text text-anchor="middle" x="329" y="-229.8" font-family="Times,serif" font-size="14.00">PanelHeaderComponent </text>
</g>
<!-- PanelModule&#45;&gt;PanelHeaderComponent  -->
<g id="edge6" class="edge"><title>PanelModule&#45;&gt;PanelHeaderComponent </title>
<path fill="none" stroke="black" stroke-dasharray="5,2" d="M329,-187.106C329,-187.106 329,-205.991 329,-205.991"/>
<polygon fill="black" stroke="black" points="325.5,-205.991 329,-215.991 332.5,-205.991 325.5,-205.991"/>
</g>
<!-- PanelBodyComponent  -->
<g id="node8" class="node"><title>PanelBodyComponent </title>
<polygon fill="#fb8072" stroke="black" points="233.272,-252 86.7283,-252 86.7283,-216 233.272,-216 233.272,-252"/>
<text text-anchor="middle" x="160" y="-229.8" font-family="Times,serif" font-size="14.00">PanelBodyComponent </text>
</g>
<!-- PanelModule&#45;&gt;PanelBodyComponent  -->
<g id="edge7" class="edge"><title>PanelModule&#45;&gt;PanelBodyComponent </title>
<path fill="none" stroke="black" stroke-dasharray="5,2" d="M283.729,-175C245.308,-175 196.375,-175 196.375,-175 196.375,-175 196.375,-205.977 196.375,-205.977"/>
<polygon fill="black" stroke="black" points="192.875,-205.977 196.375,-215.977 199.875,-205.978 192.875,-205.977"/>
</g>
<!-- CommonModule -->
<g id="node5" class="node"><title>CommonModule</title>
<polygon fill="#8dd3c7" stroke="black" points="135.668,-122 132.668,-126 111.668,-126 108.668,-122 24.3319,-122 24.3319,-86 135.668,-86 135.668,-122"/>
<text text-anchor="middle" x="80" y="-99.8" font-family="Times,serif" font-size="14.00">CommonModule</text>
</g>
<!-- CommonModule&#45;&gt;PanelModule -->
<g id="edge4" class="edge"><title>CommonModule&#45;&gt;PanelModule</title>
<path fill="none" stroke="black" d="M111.349,-122.023C111.349,-139.373 111.349,-163 111.349,-163 111.349,-163 273.638,-163 273.638,-163"/>
<polygon fill="black" stroke="black" points="273.638,-166.5 283.638,-163 273.638,-159.5 273.638,-166.5"/>
</g>
</g>
</svg>
