<?xml version="1.0" encoding="UTF-8" standalone="no"?>
<!DOCTYPE svg PUBLIC "-//W3C//DTD SVG 1.1//EN"
 "http://www.w3.org/Graphics/SVG/1.1/DTD/svg11.dtd">
<!-- Generated by graphviz version 2.40.1 (20161225.0304)
 -->
<!-- Title: dependencies Pages: 1 -->
<svg width="803pt" height="284pt"
 viewBox="0.00 0.00 803.00 284.00" xmlns="http://www.w3.org/2000/svg" xmlns:xlink="http://www.w3.org/1999/xlink">
<g id="graph0" class="graph" transform="scale(1 1) rotate(0) translate(4 280)">
<title>dependencies</title>
<polygon fill="#ffffff" stroke="transparent" points="-4,4 -4,-280 799,-280 799,4 -4,4"/>
<text text-anchor="start" x="376.5091" y="-42.4" font-family="sans-serif" font-weight="bold" font-size="14.00" fill="#000000">Legend</text>
<polygon fill="#ffffb3" stroke="transparent" points="163.5,-10 163.5,-30 183.5,-30 183.5,-10 163.5,-10"/>
<text text-anchor="start" x="187.129" y="-15.4" font-family="sans-serif" font-size="14.00" fill="#000000"> &#160;Declarations</text>
<polygon fill="#8dd3c7" stroke="transparent" points="276.5,-10 276.5,-30 296.5,-30 296.5,-10 276.5,-10"/>
<text text-anchor="start" x="300.2251" y="-15.4" font-family="sans-serif" font-size="14.00" fill="#000000"> &#160;Module</text>
<polygon fill="#80b1d3" stroke="transparent" points="362.5,-10 362.5,-30 382.5,-30 382.5,-10 362.5,-10"/>
<text text-anchor="start" x="386.2812" y="-15.4" font-family="sans-serif" font-size="14.00" fill="#000000"> &#160;Bootstrap</text>
<polygon fill="#fdb462" stroke="transparent" points="459.5,-10 459.5,-30 479.5,-30 479.5,-10 459.5,-10"/>
<text text-anchor="start" x="483.1732" y="-15.4" font-family="sans-serif" font-size="14.00" fill="#000000"> &#160;Providers</text>
<polygon fill="#fb8072" stroke="transparent" points="555.5,-10 555.5,-30 575.5,-30 575.5,-10 555.5,-10"/>
<text text-anchor="start" x="579.2258" y="-15.4" font-family="sans-serif" font-size="14.00" fill="#000000"> &#160;Exports</text>
<g id="clust1" class="cluster">
<title>cluster_PanelModule</title>
<polygon fill="none" stroke="#000000" stroke-dasharray="1,5" points="8,-70 8,-268 787,-268 787,-70 8,-70"/>
</g>
<g id="clust2" class="cluster">
<title>cluster_PanelModule_declarations</title>
<polygon fill="none" stroke="#000000" points="152,-78 152,-130 779,-130 779,-78 152,-78"/>
</g>
<g id="clust7" class="cluster">
<title>cluster_PanelModule_imports</title>
<polygon fill="none" stroke="#000000" points="16,-78 16,-130 144,-130 144,-78 16,-78"/>
</g>
<g id="clust8" class="cluster">
<title>cluster_PanelModule_exports</title>
<polygon fill="none" stroke="#000000" points="78,-208 78,-260 718,-260 718,-208 78,-208"/>
</g>
<!-- PanelComponent -->
<g id="node1" class="node">
<title>PanelComponent</title>
<polygon fill="#ffffb3" stroke="#000000" points="771.4356,-122 658.5644,-122 658.5644,-86 771.4356,-86 771.4356,-122"/>
<text text-anchor="middle" x="715" y="-99.8" font-family="Times,serif" font-size="14.00" fill="#000000">PanelComponent</text>
</g>
<!-- PanelModule -->
<g id="node5" class="node">
<title>PanelModule</title>
<polygon fill="#8dd3c7" stroke="#000000" points="443.1529,-187 440.1529,-191 419.1529,-191 416.1529,-187 352.8471,-187 352.8471,-151 443.1529,-151 443.1529,-187"/>
<text text-anchor="middle" x="398" y="-164.8" font-family="Times,serif" font-size="14.00" fill="#000000">PanelModule</text>
</g>
<!-- PanelComponent&#45;&gt;PanelModule -->
<g id="edge1" class="edge">
<title>PanelComponent&#45;&gt;PanelModule</title>
<path fill="none" stroke="#000000" d="M684.375,-122.1061C684.375,-141.3391 684.375,-169 684.375,-169 684.375,-169 453.377,-169 453.377,-169"/>
<polygon fill="#000000" stroke="#000000" points="453.377,-165.5001 443.377,-169 453.3769,-172.5001 453.377,-165.5001"/>
</g>
<!-- PanelHeaderComponent -->
<g id="node2" class="node">
<title>PanelHeaderComponent</title>
<polygon fill="#ffffb3" stroke="#000000" points="640.3459,-122 487.6541,-122 487.6541,-86 640.3459,-86 640.3459,-122"/>
<text text-anchor="middle" x="564" y="-99.8" font-family="Times,serif" font-size="14.00" fill="#000000">PanelHeaderComponent</text>
</g>
<!-- PanelHeaderComponent&#45;&gt;PanelModule -->
<g id="edge2" class="edge">
<title>PanelHeaderComponent&#45;&gt;PanelModule</title>
<path fill="none" stroke="#000000" d="M531.875,-122.027C531.875,-138.3976 531.875,-160 531.875,-160 531.875,-160 453.324,-160 453.324,-160"/>
<polygon fill="#000000" stroke="#000000" points="453.324,-156.5001 443.324,-160 453.3239,-163.5001 453.324,-156.5001"/>
</g>
<!-- PanelBodyComponent -->
<g id="node3" class="node">
<title>PanelBodyComponent</title>
<polygon fill="#ffffb3" stroke="#000000" points="469.2716,-122 326.7284,-122 326.7284,-86 469.2716,-86 469.2716,-122"/>
<text text-anchor="middle" x="398" y="-99.8" font-family="Times,serif" font-size="14.00" fill="#000000">PanelBodyComponent</text>
</g>
<!-- PanelBodyComponent&#45;&gt;PanelModule -->
<g id="edge3" class="edge">
<title>PanelBodyComponent&#45;&gt;PanelModule</title>
<path fill="none" stroke="#000000" d="M398,-122.1061C398,-122.1061 398,-140.991 398,-140.991"/>
<polygon fill="#000000" stroke="#000000" points="394.5001,-140.9909 398,-150.991 401.5001,-140.991 394.5001,-140.9909"/>
</g>
<!-- PanelFooterComponent -->
<g id="node4" class="node">
<title>PanelFooterComponent</title>
<polygon fill="#ffffb3" stroke="#000000" points="308.4832,-122 159.5168,-122 159.5168,-86 308.4832,-86 308.4832,-122"/>
<text text-anchor="middle" x="234" y="-99.8" font-family="Times,serif" font-size="14.00" fill="#000000">PanelFooterComponent</text>
</g>
<!-- PanelFooterComponent&#45;&gt;PanelModule -->
<g id="edge4" class="edge">
<title>PanelFooterComponent&#45;&gt;PanelModule</title>
<path fill="none" stroke="#000000" d="M282.178,-122.027C282.178,-138.3976 282.178,-160 282.178,-160 282.178,-160 342.5565,-160 342.5565,-160"/>
<polygon fill="#000000" stroke="#000000" points="342.5565,-163.5001 352.5565,-160 342.5564,-156.5001 342.5565,-163.5001"/>
</g>
<!-- PanelComponent  -->
<g id="node7" class="node">
<title>PanelComponent </title>
<polygon fill="#fb8072" stroke="#000000" points="709.9348,-252 594.0652,-252 594.0652,-216 709.9348,-216 709.9348,-252"/>
<text text-anchor="middle" x="652" y="-229.8" font-family="Times,serif" font-size="14.00" fill="#000000">PanelComponent </text>
</g>
<!-- PanelModule&#45;&gt;PanelComponent  -->
<g id="edge6" class="edge">
<title>PanelModule&#45;&gt;PanelComponent </title>
<path fill="none" stroke="#000000" stroke-dasharray="5,2" d="M443.1583,-178C507.3343,-178 617.2278,-178 617.2278,-178 617.2278,-178 617.2278,-205.973 617.2278,-205.973"/>
<polygon fill="#000000" stroke="#000000" points="613.7278,-205.973 617.2278,-215.973 620.7278,-205.973 613.7278,-205.973"/>
</g>
<!-- PanelHeaderComponent  -->
<g id="node8" class="node">
<title>PanelHeaderComponent </title>
<polygon fill="#fb8072" stroke="#000000" points="576.3462,-252 419.6538,-252 419.6538,-216 576.3462,-216 576.3462,-252"/>
<text text-anchor="middle" x="498" y="-229.8" font-family="Times,serif" font-size="14.00" fill="#000000">PanelHeaderComponent </text>
</g>
<!-- PanelModule&#45;&gt;PanelHeaderComponent  -->
<g id="edge7" class="edge">
<title>PanelModule&#45;&gt;PanelHeaderComponent </title>
<path fill="none" stroke="#000000" stroke-dasharray="5,2" d="M431.5766,-187.1061C431.5766,-187.1061 431.5766,-205.991 431.5766,-205.991"/>
<polygon fill="#000000" stroke="#000000" points="428.0767,-205.9909 431.5766,-215.991 435.0767,-205.991 428.0767,-205.9909"/>
</g>
<!-- PanelBodyComponent  -->
<g id="node9" class="node">
<title>PanelBodyComponent </title>
<polygon fill="#fb8072" stroke="#000000" points="402.2717,-252 255.7283,-252 255.7283,-216 402.2717,-216 402.2717,-252"/>
<text text-anchor="middle" x="329" y="-229.8" font-family="Times,serif" font-size="14.00" fill="#000000">PanelBodyComponent </text>
</g>
<!-- PanelModule&#45;&gt;PanelBodyComponent  -->
<g id="edge8" class="edge">
<title>PanelModule&#45;&gt;PanelBodyComponent </title>
<path fill="none" stroke="#000000" stroke-dasharray="5,2" d="M377.4048,-187.1061C377.4048,-187.1061 377.4048,-205.991 377.4048,-205.991"/>
<polygon fill="#000000" stroke="#000000" points="373.9049,-205.9909 377.4048,-215.991 380.9049,-205.991 373.9049,-205.9909"/>
</g>
<!-- PanelFooterComponent  -->
<g id="node10" class="node">
<title>PanelFooterComponent </title>
<polygon fill="#fb8072" stroke="#000000" points="238.484,-252 85.516,-252 85.516,-216 238.484,-216 238.484,-252"/>
<text text-anchor="middle" x="162" y="-229.8" font-family="Times,serif" font-size="14.00" fill="#000000">PanelFooterComponent </text>
</g>
<!-- PanelModule&#45;&gt;PanelFooterComponent  -->
<g id="edge9" class="edge">
<title>PanelModule&#45;&gt;PanelFooterComponent </title>
<path fill="none" stroke="#000000" stroke-dasharray="5,2" d="M352.8155,-178C294.0652,-178 198.875,-178 198.875,-178 198.875,-178 198.875,-205.973 198.875,-205.973"/>
<polygon fill="#000000" stroke="#000000" points="195.3751,-205.973 198.875,-215.973 202.3751,-205.973 195.3751,-205.973"/>
</g>
<!-- CommonModule -->
<g id="node6" class="node">
<title>CommonModule</title>
<polygon fill="#8dd3c7" stroke="#000000" points="135.6681,-122 132.6681,-126 111.6681,-126 108.6681,-122 24.3319,-122 24.3319,-86 135.6681,-86 135.6681,-122"/>
<text text-anchor="middle" x="80" y="-99.8" font-family="Times,serif" font-size="14.00" fill="#000000">CommonModule</text>
</g>
<!-- CommonModule&#45;&gt;PanelModule -->
<g id="edge5" class="edge">
<title>CommonModule&#45;&gt;PanelModule</title>
<path fill="none" stroke="#000000" d="M110.7961,-122.1061C110.7961,-141.3391 110.7961,-169 110.7961,-169 110.7961,-169 342.8084,-169 342.8084,-169"/>
<polygon fill="#000000" stroke="#000000" points="342.8085,-172.5001 352.8084,-169 342.8084,-165.5001 342.8085,-172.5001"/>
</g>
</g>
</svg>
