<?xml version="1.0" encoding="UTF-8" standalone="no"?>
<!DOCTYPE svg PUBLIC "-//W3C//DTD SVG 1.1//EN"
 "http://www.w3.org/Graphics/SVG/1.1/DTD/svg11.dtd">
<!-- Generated by graphviz version 2.40.1 (20161225.0304)
 -->
<!-- Title: dependencies Pages: 1 -->
<svg width="680pt" height="284pt"
 viewBox="0.00 0.00 680.00 284.00" xmlns="http://www.w3.org/2000/svg" xmlns:xlink="http://www.w3.org/1999/xlink">
<g id="graph0" class="graph" transform="scale(1 1) rotate(0) translate(4 280)">
<title>dependencies</title>
<polygon fill="#ffffff" stroke="transparent" points="-4,4 -4,-280 676,-280 676,4 -4,4"/>
<text text-anchor="start" x="315.0091" y="-42.4" font-family="sans-serif" font-weight="bold" font-size="14.00" fill="#000000">Legend</text>
<polygon fill="#ffffb3" stroke="transparent" points="102,-10 102,-30 122,-30 122,-10 102,-10"/>
<text text-anchor="start" x="125.629" y="-15.4" font-family="sans-serif" font-size="14.00" fill="#000000"> &#160;Declarations</text>
<polygon fill="#8dd3c7" stroke="transparent" points="215,-10 215,-30 235,-30 235,-10 215,-10"/>
<text text-anchor="start" x="238.7251" y="-15.4" font-family="sans-serif" font-size="14.00" fill="#000000"> &#160;Module</text>
<polygon fill="#80b1d3" stroke="transparent" points="301,-10 301,-30 321,-30 321,-10 301,-10"/>
<text text-anchor="start" x="324.7812" y="-15.4" font-family="sans-serif" font-size="14.00" fill="#000000"> &#160;Bootstrap</text>
<polygon fill="#fdb462" stroke="transparent" points="398,-10 398,-30 418,-30 418,-10 398,-10"/>
<text text-anchor="start" x="421.6732" y="-15.4" font-family="sans-serif" font-size="14.00" fill="#000000"> &#160;Providers</text>
<polygon fill="#fb8072" stroke="transparent" points="494,-10 494,-30 514,-30 514,-10 494,-10"/>
<text text-anchor="start" x="517.7258" y="-15.4" font-family="sans-serif" font-size="14.00" fill="#000000"> &#160;Exports</text>
<g id="clust1" class="cluster">
<title>cluster_PanelModule</title>
<polygon fill="none" stroke="#000000" stroke-dasharray="1,5" points="8,-70 8,-268 664,-268 664,-70 8,-70"/>
</g>
<g id="clust2" class="cluster">
<title>cluster_PanelModule_declarations</title>
<polygon fill="none" stroke="#000000" points="24,-78 24,-130 651,-130 651,-78 24,-78"/>
</g>
<g id="clust8" class="cluster">
<title>cluster_PanelModule_exports</title>
<polygon fill="none" stroke="#000000" points="16,-208 16,-260 656,-260 656,-208 16,-208"/>
</g>
<!-- PanelBodyComponent -->
<g id="node1" class="node">
<title>PanelBodyComponent</title>
<polygon fill="#ffffb3" stroke="#000000" points="643.2716,-122 500.7284,-122 500.7284,-86 643.2716,-86 643.2716,-122"/>
<text text-anchor="middle" x="572" y="-99.8" font-family="Times,serif" font-size="14.00" fill="#000000">PanelBodyComponent</text>
</g>
<!-- PanelModule -->
<g id="node5" class="node">
<title>PanelModule</title>
<polygon fill="#8dd3c7" stroke="#000000" points="324.1529,-187 321.1529,-191 300.1529,-191 297.1529,-187 233.8471,-187 233.8471,-151 324.1529,-151 324.1529,-187"/>
<text text-anchor="middle" x="279" y="-164.8" font-family="Times,serif" font-size="14.00" fill="#000000">PanelModule</text>
</g>
<!-- PanelBodyComponent&#45;&gt;PanelModule -->
<g id="edge1" class="edge">
<title>PanelBodyComponent&#45;&gt;PanelModule</title>
<path fill="none" stroke="#000000" d="M596.2119,-122.2667C596.2119,-140.5552 596.2119,-166 596.2119,-166 596.2119,-166 334.4487,-166 334.4487,-166"/>
<polygon fill="#000000" stroke="#000000" points="334.4488,-162.5001 324.4487,-166 334.4487,-169.5001 334.4488,-162.5001"/>
</g>
<!-- PanelComponent -->
<g id="node2" class="node">
<title>PanelComponent</title>
<polygon fill="#ffffb3" stroke="#000000" points="482.4356,-122 369.5644,-122 369.5644,-86 482.4356,-86 482.4356,-122"/>
<text text-anchor="middle" x="426" y="-99.8" font-family="Times,serif" font-size="14.00" fill="#000000">PanelComponent</text>
</g>
<!-- PanelComponent&#45;&gt;PanelModule -->
<g id="edge2" class="edge">
<title>PanelComponent&#45;&gt;PanelModule</title>
<path fill="none" stroke="#000000" d="M444.7391,-122.0091C444.7391,-138.0494 444.7391,-159 444.7391,-159 444.7391,-159 334.2889,-159 334.2889,-159"/>
<polygon fill="#000000" stroke="#000000" points="334.289,-155.5001 324.2889,-159 334.2889,-162.5001 334.289,-155.5001"/>
</g>
<!-- PanelFooterComponent -->
<g id="node3" class="node">
<title>PanelFooterComponent</title>
<polygon fill="#ffffb3" stroke="#000000" points="351.4832,-122 202.5168,-122 202.5168,-86 351.4832,-86 351.4832,-122"/>
<text text-anchor="middle" x="277" y="-99.8" font-family="Times,serif" font-size="14.00" fill="#000000">PanelFooterComponent</text>
</g>
<!-- PanelFooterComponent&#45;&gt;PanelModule -->
<g id="edge3" class="edge">
<title>PanelFooterComponent&#45;&gt;PanelModule</title>
<path fill="none" stroke="#000000" d="M279,-122.1061C279,-122.1061 279,-140.991 279,-140.991"/>
<polygon fill="#000000" stroke="#000000" points="275.5001,-140.9909 279,-150.991 282.5001,-140.991 275.5001,-140.9909"/>
</g>
<!-- PanelHeaderComponent -->
<g id="node4" class="node">
<title>PanelHeaderComponent</title>
<polygon fill="#ffffb3" stroke="#000000" points="184.3459,-122 31.6541,-122 31.6541,-86 184.3459,-86 184.3459,-122"/>
<text text-anchor="middle" x="108" y="-99.8" font-family="Times,serif" font-size="14.00" fill="#000000">PanelHeaderComponent</text>
</g>
<!-- PanelHeaderComponent&#45;&gt;PanelModule -->
<g id="edge4" class="edge">
<title>PanelHeaderComponent&#45;&gt;PanelModule</title>
<path fill="none" stroke="#000000" d="M130.641,-122.0225C130.641,-139.3734 130.641,-163 130.641,-163 130.641,-163 223.6813,-163 223.6813,-163"/>
<polygon fill="#000000" stroke="#000000" points="223.6813,-166.5001 233.6813,-163 223.6812,-159.5001 223.6813,-166.5001"/>
</g>
<!-- PanelBodyComponent  -->
<g id="node6" class="node">
<title>PanelBodyComponent </title>
<polygon fill="#fb8072" stroke="#000000" points="648.2717,-252 501.7283,-252 501.7283,-216 648.2717,-216 648.2717,-252"/>
<text text-anchor="middle" x="575" y="-229.8" font-family="Times,serif" font-size="14.00" fill="#000000">PanelBodyComponent </text>
</g>
<!-- PanelModule&#45;&gt;PanelBodyComponent  -->
<g id="edge5" class="edge">
<title>PanelModule&#45;&gt;PanelBodyComponent </title>
<path fill="none" stroke="#000000" stroke-dasharray="5,2" d="M324.1983,-173C401.0716,-173 549.0381,-173 549.0381,-173 549.0381,-173 549.0381,-205.698 549.0381,-205.698"/>
<polygon fill="#000000" stroke="#000000" points="545.5382,-205.698 549.0381,-215.698 552.5382,-205.698 545.5382,-205.698"/>
</g>
<!-- PanelComponent  -->
<g id="node7" class="node">
<title>PanelComponent </title>
<polygon fill="#fb8072" stroke="#000000" points="483.9348,-252 368.0652,-252 368.0652,-216 483.9348,-216 483.9348,-252"/>
<text text-anchor="middle" x="426" y="-229.8" font-family="Times,serif" font-size="14.00" fill="#000000">PanelComponent </text>
</g>
<!-- PanelModule&#45;&gt;PanelComponent  -->
<g id="edge6" class="edge">
<title>PanelModule&#45;&gt;PanelComponent </title>
<path fill="none" stroke="#000000" stroke-dasharray="5,2" d="M324.22,-180C361.1471,-180 407.2609,-180 407.2609,-180 407.2609,-180 407.2609,-205.7181 407.2609,-205.7181"/>
<polygon fill="#000000" stroke="#000000" points="403.761,-205.718 407.2609,-215.7181 410.761,-205.7181 403.761,-205.718"/>
</g>
<!-- PanelFooterComponent  -->
<g id="node8" class="node">
<title>PanelFooterComponent </title>
<polygon fill="#fb8072" stroke="#000000" points="350.484,-252 197.516,-252 197.516,-216 350.484,-216 350.484,-252"/>
<text text-anchor="middle" x="274" y="-229.8" font-family="Times,serif" font-size="14.00" fill="#000000">PanelFooterComponent </text>
</g>
<!-- PanelModule&#45;&gt;PanelFooterComponent  -->
<g id="edge7" class="edge">
<title>PanelModule&#45;&gt;PanelFooterComponent </title>
<path fill="none" stroke="#000000" stroke-dasharray="5,2" d="M279,-187.1061C279,-187.1061 279,-205.991 279,-205.991"/>
<polygon fill="#000000" stroke="#000000" points="275.5001,-205.9909 279,-215.991 282.5001,-205.991 275.5001,-205.9909"/>
</g>
<!-- PanelHeaderComponent  -->
<g id="node9" class="node">
<title>PanelHeaderComponent </title>
<polygon fill="#fb8072" stroke="#000000" points="180.3462,-252 23.6538,-252 23.6538,-216 180.3462,-216 180.3462,-252"/>
<text text-anchor="middle" x="102" y="-229.8" font-family="Times,serif" font-size="14.00" fill="#000000">PanelHeaderComponent </text>
</g>
<!-- PanelModule&#45;&gt;PanelHeaderComponent  -->
<g id="edge8" class="edge">
<title>PanelModule&#45;&gt;PanelHeaderComponent </title>
<path fill="none" stroke="#000000" stroke-dasharray="5,2" d="M233.5998,-175C175.1756,-175 81.109,-175 81.109,-175 81.109,-175 81.109,-205.9775 81.109,-205.9775"/>
<polygon fill="#000000" stroke="#000000" points="77.6091,-205.9774 81.109,-215.9775 84.6091,-205.9775 77.6091,-205.9774"/>
</g>
</g>
</svg>
