<?xml version="1.0" encoding="UTF-8" standalone="no"?>
<!DOCTYPE svg PUBLIC "-//W3C//DTD SVG 1.1//EN"
 "http://www.w3.org/Graphics/SVG/1.1/DTD/svg11.dtd">
<!-- Generated by graphviz version 2.38.0 (20140413.2041)
 -->
<!-- Title: dependencies Pages: 1 -->
<svg width="803pt" height="284pt"
 viewBox="0.00 0.00 803.00 284.00" xmlns="http://www.w3.org/2000/svg" xmlns:xlink="http://www.w3.org/1999/xlink">
<g id="graph0" class="graph" transform="scale(1 1) rotate(0) translate(4 280)">
<title>dependencies</title>
<polygon fill="white" stroke="none" points="-4,4 -4,-280 799,-280 799,4 -4,4"/>
<text text-anchor="start" x="376.509" y="-42.4" font-family="sans-serif" font-weight="bold" font-size="14.00">Legend</text>
<polygon fill="#ffffb3" stroke="none" points="163.5,-10 163.5,-30 183.5,-30 183.5,-10 163.5,-10"/>
<text text-anchor="start" x="187.129" y="-15.4" font-family="sans-serif" font-size="14.00"> &#160;Declarations</text>
<polygon fill="#8dd3c7" stroke="none" points="276.5,-10 276.5,-30 296.5,-30 296.5,-10 276.5,-10"/>
<text text-anchor="start" x="300.225" y="-15.4" font-family="sans-serif" font-size="14.00"> &#160;Module</text>
<polygon fill="#80b1d3" stroke="none" points="362.5,-10 362.5,-30 382.5,-30 382.5,-10 362.5,-10"/>
<text text-anchor="start" x="386.281" y="-15.4" font-family="sans-serif" font-size="14.00"> &#160;Bootstrap</text>
<polygon fill="#fdb462" stroke="none" points="459.5,-10 459.5,-30 479.5,-30 479.5,-10 459.5,-10"/>
<text text-anchor="start" x="483.173" y="-15.4" font-family="sans-serif" font-size="14.00"> &#160;Providers</text>
<polygon fill="#fb8072" stroke="none" points="555.5,-10 555.5,-30 575.5,-30 575.5,-10 555.5,-10"/>
<text text-anchor="start" x="579.226" y="-15.4" font-family="sans-serif" font-size="14.00"> &#160;Exports</text>
<g id="clust1" class="cluster"><title>cluster_PanelModule</title>
<polygon fill="none" stroke="black" stroke-dasharray="1,5" points="8,-70 8,-268 787,-268 787,-70 8,-70"/>
</g>
<g id="clust2" class="cluster"><title>cluster_PanelModule_declarations</title>
<polygon fill="none" stroke="black" points="152,-78 152,-130 779,-130 779,-78 152,-78"/>
</g>
<g id="clust7" class="cluster"><title>cluster_PanelModule_imports</title>
<polygon fill="none" stroke="black" points="16,-78 16,-130 144,-130 144,-78 16,-78"/>
</g>
<g id="clust8" class="cluster"><title>cluster_PanelModule_exports</title>
<polygon fill="none" stroke="black" points="77,-208 77,-260 717,-260 717,-208 77,-208"/>
</g>
<!-- PanelComponent -->
<g id="node1" class="node"><title>PanelComponent</title>
<polygon fill="#ffffb3" stroke="black" points="771.436,-122 658.564,-122 658.564,-86 771.436,-86 771.436,-122"/>
<text text-anchor="middle" x="715" y="-99.8" font-family="Times,serif" font-size="14.00">PanelComponent</text>
</g>
<!-- PanelModule -->
<g id="node5" class="node"><title>PanelModule</title>
<polygon fill="#8dd3c7" stroke="black" points="443.153,-187 440.153,-191 419.153,-191 416.153,-187 352.847,-187 352.847,-151 443.153,-151 443.153,-187"/>
<text text-anchor="middle" x="398" y="-164.8" font-family="Times,serif" font-size="14.00">PanelModule</text>
</g>
<!-- PanelComponent&#45;&gt;PanelModule -->
<g id="edge1" class="edge"><title>PanelComponent&#45;&gt;PanelModule</title>
<path fill="none" stroke="black" d="M683.875,-122.106C683.875,-141.339 683.875,-169 683.875,-169 683.875,-169 453.298,-169 453.298,-169"/>
<polygon fill="black" stroke="black" points="453.298,-165.5 443.298,-169 453.298,-172.5 453.298,-165.5"/>
</g>
<!-- PanelHeaderComponent -->
<g id="node2" class="node"><title>PanelHeaderComponent</title>
<polygon fill="#ffffb3" stroke="black" points="640.346,-122 487.654,-122 487.654,-86 640.346,-86 640.346,-122"/>
<text text-anchor="middle" x="564" y="-99.8" font-family="Times,serif" font-size="14.00">PanelHeaderComponent</text>
</g>
<!-- PanelHeaderComponent&#45;&gt;PanelModule -->
<g id="edge2" class="edge"><title>PanelHeaderComponent&#45;&gt;PanelModule</title>
<path fill="none" stroke="black" d="M531.375,-122.027C531.375,-138.398 531.375,-160 531.375,-160 531.375,-160 453.155,-160 453.155,-160"/>
<polygon fill="black" stroke="black" points="453.155,-156.5 443.155,-160 453.155,-163.5 453.155,-156.5"/>
</g>
<!-- PanelBodyComponent -->
<g id="node3" class="node"><title>PanelBodyComponent</title>
<polygon fill="#ffffb3" stroke="black" points="469.272,-122 326.728,-122 326.728,-86 469.272,-86 469.272,-122"/>
<text text-anchor="middle" x="398" y="-99.8" font-family="Times,serif" font-size="14.00">PanelBodyComponent</text>
</g>
<!-- PanelBodyComponent&#45;&gt;PanelModule -->
<g id="edge3" class="edge"><title>PanelBodyComponent&#45;&gt;PanelModule</title>
<path fill="none" stroke="black" d="M398,-122.106C398,-122.106 398,-140.991 398,-140.991"/>
<polygon fill="black" stroke="black" points="394.5,-140.991 398,-150.991 401.5,-140.991 394.5,-140.991"/>
</g>
<!-- PanelFooterComponent -->
<g id="node4" class="node"><title>PanelFooterComponent</title>
<polygon fill="#ffffb3" stroke="black" points="308.483,-122 159.517,-122 159.517,-86 308.483,-86 308.483,-122"/>
<text text-anchor="middle" x="234" y="-99.8" font-family="Times,serif" font-size="14.00">PanelFooterComponent</text>
</g>
<!-- PanelFooterComponent&#45;&gt;PanelModule -->
<g id="edge4" class="edge"><title>PanelFooterComponent&#45;&gt;PanelModule</title>
<path fill="none" stroke="black" d="M281.678,-122.027C281.678,-138.398 281.678,-160 281.678,-160 281.678,-160 342.694,-160 342.694,-160"/>
<polygon fill="black" stroke="black" points="342.694,-163.5 352.694,-160 342.694,-156.5 342.694,-163.5"/>
</g>
<!-- PanelComponent  -->
<g id="node7" class="node"><title>PanelComponent </title>
<polygon fill="#fb8072" stroke="black" points="708.935,-252 593.065,-252 593.065,-216 708.935,-216 708.935,-252"/>
<text text-anchor="middle" x="651" y="-229.8" font-family="Times,serif" font-size="14.00">PanelComponent </text>
</g>
<!-- PanelModule&#45;&gt;PanelComponent  -->
<g id="edge6" class="edge"><title>PanelModule&#45;&gt;PanelComponent </title>
<path fill="none" stroke="black" stroke-dasharray="5,2" d="M443.321,-178C507.387,-178 616.728,-178 616.728,-178 616.728,-178 616.728,-205.973 616.728,-205.973"/>
<polygon fill="black" stroke="black" points="613.228,-205.973 616.728,-215.973 620.228,-205.973 613.228,-205.973"/>
</g>
<!-- PanelHeaderComponent  -->
<g id="node8" class="node"><title>PanelHeaderComponent </title>
<polygon fill="#fb8072" stroke="black" points="575.346,-252 418.654,-252 418.654,-216 575.346,-216 575.346,-252"/>
<text text-anchor="middle" x="497" y="-229.8" font-family="Times,serif" font-size="14.00">PanelHeaderComponent </text>
</g>
<!-- PanelModule&#45;&gt;PanelHeaderComponent  -->
<g id="edge7" class="edge"><title>PanelModule&#45;&gt;PanelHeaderComponent </title>
<path fill="none" stroke="black" stroke-dasharray="5,2" d="M431.077,-187.106C431.077,-187.106 431.077,-205.991 431.077,-205.991"/>
<polygon fill="black" stroke="black" points="427.577,-205.991 431.077,-215.991 434.577,-205.991 427.577,-205.991"/>
</g>
<!-- PanelBodyComponent  -->
<g id="node9" class="node"><title>PanelBodyComponent </title>
<polygon fill="#fb8072" stroke="black" points="401.272,-252 254.728,-252 254.728,-216 401.272,-216 401.272,-252"/>
<text text-anchor="middle" x="328" y="-229.8" font-family="Times,serif" font-size="14.00">PanelBodyComponent </text>
</g>
<!-- PanelModule&#45;&gt;PanelBodyComponent  -->
<g id="edge8" class="edge"><title>PanelModule&#45;&gt;PanelBodyComponent </title>
<path fill="none" stroke="black" stroke-dasharray="5,2" d="M376.905,-187.106C376.905,-187.106 376.905,-205.991 376.905,-205.991"/>
<polygon fill="black" stroke="black" points="373.405,-205.991 376.905,-215.991 380.405,-205.991 373.405,-205.991"/>
</g>
<!-- PanelFooterComponent  -->
<g id="node10" class="node"><title>PanelFooterComponent </title>
<polygon fill="#fb8072" stroke="black" points="237.484,-252 84.516,-252 84.516,-216 237.484,-216 237.484,-252"/>
<text text-anchor="middle" x="161" y="-229.8" font-family="Times,serif" font-size="14.00">PanelFooterComponent </text>
</g>
<!-- PanelModule&#45;&gt;PanelFooterComponent  -->
<g id="edge9" class="edge"><title>PanelModule&#45;&gt;PanelFooterComponent </title>
<path fill="none" stroke="black" stroke-dasharray="5,2" d="M352.702,-178C293.804,-178 198.375,-178 198.375,-178 198.375,-178 198.375,-205.973 198.375,-205.973"/>
<polygon fill="black" stroke="black" points="194.875,-205.973 198.375,-215.973 201.875,-205.973 194.875,-205.973"/>
</g>
<!-- CommonModule -->
<g id="node6" class="node"><title>CommonModule</title>
<polygon fill="#8dd3c7" stroke="black" points="135.668,-122 132.668,-126 111.668,-126 108.668,-122 24.3319,-122 24.3319,-86 135.668,-86 135.668,-122"/>
<text text-anchor="middle" x="80" y="-99.8" font-family="Times,serif" font-size="14.00">CommonModule</text>
</g>
<!-- CommonModule&#45;&gt;PanelModule -->
<g id="edge5" class="edge"><title>CommonModule&#45;&gt;PanelModule</title>
<path fill="none" stroke="black" d="M110.296,-122.106C110.296,-141.339 110.296,-169 110.296,-169 110.296,-169 342.73,-169 342.73,-169"/>
<polygon fill="black" stroke="black" points="342.73,-172.5 352.73,-169 342.73,-165.5 342.73,-172.5"/>
</g>
</g>
</svg>
